G04*
G04 #@! TF.GenerationSoftware,Altium Limited,Altium Designer,20.2.6 (244)*
G04*
G04 Layer_Physical_Order=4*
G04 Layer_Color=16711680*
%FSLAX24Y24*%
%MOIN*%
G70*
G04*
G04 #@! TF.SameCoordinates,F8AEF4A7-C5AA-40DC-9DAC-891B57281ED6*
G04*
G04*
G04 #@! TF.FilePolarity,Positive*
G04*
G01*
G75*
%ADD10C,0.0100*%
%ADD17C,0.0300*%
%ADD22R,0.0354X0.0315*%
%ADD28R,0.0320X0.0320*%
%ADD34R,0.0340X0.0318*%
%ADD88C,0.0200*%
%ADD90C,0.0150*%
%ADD92R,0.1300X0.1600*%
%ADD93C,0.0600*%
%ADD94O,0.1500X0.2200*%
%ADD95R,0.0709X0.1024*%
%ADD96O,0.0709X0.1024*%
%ADD97R,0.0709X0.0709*%
%ADD98C,0.0709*%
%ADD99C,0.0512*%
%ADD100R,0.0600X0.0600*%
%ADD101R,0.0630X0.0630*%
%ADD102C,0.0630*%
%ADD103R,0.0600X0.0600*%
%ADD104O,0.0600X0.0400*%
%ADD105R,0.0600X0.0400*%
%ADD106O,0.0600X0.1000*%
%ADD107C,0.0700*%
%ADD108R,0.0700X0.0700*%
%ADD109C,0.0256*%
%ADD110O,0.0394X0.0827*%
%ADD111O,0.0394X0.0709*%
%ADD112C,0.0300*%
%ADD113C,0.0200*%
%ADD134O,0.0248X0.0734*%
%ADD135O,0.0776X0.0237*%
G36*
X44900Y27397D02*
X44850Y27385D01*
X44820Y27441D01*
X44721Y27561D01*
X44601Y27660D01*
X44464Y27733D01*
X44315Y27779D01*
X44160Y27794D01*
X44005Y27779D01*
X43856Y27733D01*
X43719Y27660D01*
X43599Y27561D01*
X43500Y27441D01*
X43427Y27304D01*
X43381Y27155D01*
X43366Y27000D01*
Y26300D01*
X43381Y26145D01*
X43427Y25996D01*
X43500Y25859D01*
X43599Y25739D01*
X43719Y25640D01*
X43856Y25567D01*
X44005Y25521D01*
X44160Y25506D01*
X44315Y25521D01*
X44464Y25567D01*
X44601Y25640D01*
X44721Y25739D01*
X44820Y25859D01*
X44850Y25915D01*
X44900Y25903D01*
Y24058D01*
X44850Y24045D01*
X44820Y24101D01*
X44721Y24221D01*
X44601Y24320D01*
X44464Y24393D01*
X44315Y24439D01*
X44160Y24454D01*
X44005Y24439D01*
X43856Y24393D01*
X43719Y24320D01*
X43599Y24221D01*
X43500Y24101D01*
X43427Y23964D01*
X43381Y23815D01*
X43366Y23660D01*
Y22960D01*
X43381Y22805D01*
X43427Y22656D01*
X43500Y22519D01*
X43599Y22399D01*
X43719Y22300D01*
X43856Y22227D01*
X44005Y22181D01*
X44160Y22166D01*
X44315Y22181D01*
X44464Y22227D01*
X44601Y22300D01*
X44721Y22399D01*
X44820Y22519D01*
X44850Y22575D01*
X44900Y22562D01*
Y21850D01*
X36700D01*
Y22600D01*
X36750Y22612D01*
X36800Y22519D01*
X36899Y22399D01*
X37019Y22300D01*
X37156Y22227D01*
X37305Y22181D01*
X37460Y22166D01*
X37615Y22181D01*
X37764Y22227D01*
X37901Y22300D01*
X38021Y22399D01*
X38120Y22519D01*
X38193Y22656D01*
X38239Y22805D01*
X38254Y22960D01*
Y23660D01*
X38239Y23815D01*
X38193Y23964D01*
X38120Y24101D01*
X38021Y24221D01*
X37901Y24320D01*
X37764Y24393D01*
X37615Y24439D01*
X37460Y24454D01*
X37305Y24439D01*
X37156Y24393D01*
X37019Y24320D01*
X36899Y24221D01*
X36800Y24101D01*
X36750Y24008D01*
X36700Y24020D01*
Y25940D01*
X36750Y25952D01*
X36800Y25859D01*
X36899Y25739D01*
X37019Y25640D01*
X37156Y25567D01*
X37305Y25521D01*
X37460Y25506D01*
X37615Y25521D01*
X37764Y25567D01*
X37901Y25640D01*
X38021Y25739D01*
X38120Y25859D01*
X38193Y25996D01*
X38239Y26145D01*
X38254Y26300D01*
Y27000D01*
X38239Y27155D01*
X38193Y27304D01*
X38120Y27441D01*
X38021Y27561D01*
X37901Y27660D01*
X37764Y27733D01*
X37615Y27779D01*
X37460Y27794D01*
X37305Y27779D01*
X37156Y27733D01*
X37019Y27660D01*
X36899Y27561D01*
X36800Y27441D01*
X36750Y27348D01*
X36700Y27360D01*
Y28200D01*
X38467D01*
Y28180D01*
X38479Y28149D01*
X38510Y28137D01*
X38823D01*
X38829Y28091D01*
X38863Y28009D01*
X38918Y27938D01*
X38989Y27883D01*
X39071Y27849D01*
X39160Y27837D01*
X39249Y27849D01*
X39331Y27883D01*
X39402Y27938D01*
X39457Y28009D01*
X39491Y28091D01*
X39497Y28137D01*
X39810D01*
X39841Y28149D01*
X39853Y28180D01*
Y28200D01*
X39929D01*
X39929Y28199D01*
X39960Y28187D01*
X41660D01*
X41691Y28199D01*
X41691Y28200D01*
X41767D01*
Y28180D01*
X41779Y28149D01*
X41810Y28137D01*
X42123D01*
X42129Y28091D01*
X42163Y28009D01*
X42218Y27938D01*
X42289Y27883D01*
X42371Y27849D01*
X42460Y27837D01*
X42549Y27849D01*
X42631Y27883D01*
X42702Y27938D01*
X42757Y28009D01*
X42791Y28091D01*
X42797Y28137D01*
X43110D01*
X43141Y28149D01*
X43153Y28180D01*
Y28200D01*
X44900D01*
Y27397D01*
D02*
G37*
G36*
X59104Y53054D02*
X59100Y53050D01*
Y17600D01*
X47900D01*
Y19200D01*
X45850D01*
X45800Y19250D01*
Y31050D01*
X35800D01*
Y19250D01*
X33700D01*
Y17600D01*
X22500D01*
Y53100D01*
X59085D01*
X59104Y53054D01*
D02*
G37*
%LPC*%
G36*
X39900Y26123D02*
X39824Y26113D01*
X39754Y26083D01*
X39693Y26037D01*
X39647Y25976D01*
X39617Y25906D01*
X39608Y25830D01*
X39617Y25754D01*
X39647Y25684D01*
X39693Y25623D01*
X39754Y25577D01*
X39824Y25547D01*
X39900Y25538D01*
X39976Y25547D01*
X40046Y25577D01*
X40107Y25623D01*
X40153Y25684D01*
X40183Y25754D01*
X40192Y25830D01*
X40183Y25906D01*
X40153Y25976D01*
X40107Y26037D01*
X40046Y26083D01*
X39976Y26113D01*
X39900Y26123D01*
D02*
G37*
G36*
X41720Y26112D02*
X41644Y26103D01*
X41574Y26073D01*
X41513Y26027D01*
X41467Y25966D01*
X41437Y25896D01*
X41427Y25820D01*
X41437Y25744D01*
X41467Y25674D01*
X41513Y25613D01*
X41574Y25567D01*
X41644Y25537D01*
X41720Y25528D01*
X41796Y25537D01*
X41866Y25567D01*
X41927Y25613D01*
X41973Y25674D01*
X42003Y25744D01*
X42013Y25820D01*
X42003Y25896D01*
X41973Y25966D01*
X41927Y26027D01*
X41866Y26073D01*
X41796Y26103D01*
X41720Y26112D01*
D02*
G37*
G36*
X39900Y24432D02*
X39824Y24423D01*
X39754Y24393D01*
X39693Y24347D01*
X39647Y24286D01*
X39617Y24216D01*
X39608Y24140D01*
X39617Y24064D01*
X39647Y23994D01*
X39693Y23933D01*
X39754Y23887D01*
X39824Y23857D01*
X39900Y23847D01*
X39976Y23857D01*
X40046Y23887D01*
X40107Y23933D01*
X40153Y23994D01*
X40183Y24064D01*
X40192Y24140D01*
X40183Y24216D01*
X40153Y24286D01*
X40107Y24347D01*
X40046Y24393D01*
X39976Y24423D01*
X39900Y24432D01*
D02*
G37*
G36*
X41720Y24423D02*
X41644Y24413D01*
X41574Y24383D01*
X41513Y24337D01*
X41467Y24276D01*
X41437Y24206D01*
X41427Y24130D01*
X41437Y24054D01*
X41467Y23984D01*
X41513Y23923D01*
X41574Y23877D01*
X41644Y23847D01*
X41720Y23837D01*
X41796Y23847D01*
X41866Y23877D01*
X41927Y23923D01*
X41973Y23984D01*
X42003Y24054D01*
X42013Y24130D01*
X42003Y24206D01*
X41973Y24276D01*
X41927Y24337D01*
X41866Y24383D01*
X41796Y24413D01*
X41720Y24423D01*
D02*
G37*
G36*
X27600Y51944D02*
X27526Y51929D01*
X27472Y51893D01*
X25828D01*
X25774Y51929D01*
X25700Y51944D01*
X25626Y51929D01*
X25563Y51887D01*
X25521Y51824D01*
X25506Y51750D01*
X25521Y51676D01*
X25563Y51613D01*
X25626Y51571D01*
X25700Y51556D01*
X25774Y51571D01*
X25828Y51607D01*
X25975D01*
X26000Y51557D01*
X25971Y51514D01*
X25956Y51440D01*
X25971Y51366D01*
X26013Y51303D01*
X26076Y51261D01*
X26150Y51246D01*
X26224Y51261D01*
X26287Y51303D01*
X26324Y51358D01*
X26567D01*
X26594Y51308D01*
X26571Y51274D01*
X26565Y51245D01*
X26512Y51192D01*
X25367D01*
X25337Y51237D01*
X25274Y51279D01*
X25200Y51294D01*
X25126Y51279D01*
X25063Y51237D01*
X25021Y51174D01*
X25006Y51100D01*
X25021Y51026D01*
X25063Y50963D01*
X25126Y50921D01*
X25200Y50906D01*
X25274Y50921D01*
X25337Y50963D01*
X25367Y51008D01*
X26550D01*
X26585Y51015D01*
X26615Y51035D01*
X26631Y51051D01*
X26676Y51021D01*
X26750Y51006D01*
X26824Y51021D01*
X26887Y51063D01*
X26929Y51126D01*
X26944Y51200D01*
X26939Y51226D01*
X26974Y51261D01*
X27000Y51256D01*
X27074Y51271D01*
X27108Y51294D01*
X27162Y51270D01*
X27171Y51226D01*
X27213Y51163D01*
X27258Y51133D01*
Y43388D01*
X26753Y42883D01*
X26700Y42894D01*
X26626Y42879D01*
X26563Y42837D01*
X26521Y42774D01*
X26506Y42700D01*
X26521Y42626D01*
X26538Y42600D01*
X26511Y42551D01*
X24857D01*
X24783Y42536D01*
X24720Y42494D01*
X23713Y41487D01*
X23671Y41424D01*
X23656Y41350D01*
Y37328D01*
X23671Y37254D01*
X23713Y37191D01*
X25291Y35613D01*
X27507Y33397D01*
X27570Y33355D01*
X27585Y33352D01*
X27683Y33254D01*
Y33133D01*
X27733D01*
Y32928D01*
X27732Y32922D01*
Y32397D01*
X27721Y32380D01*
X27706Y32306D01*
X27721Y32232D01*
X27733Y32214D01*
Y32063D01*
X27745Y31999D01*
X27782Y31945D01*
X27836Y31908D01*
X27900Y31896D01*
X27964Y31908D01*
X28018Y31945D01*
X28054Y31999D01*
X28067Y32063D01*
Y32201D01*
X28105Y32258D01*
X28120Y32332D01*
Y32917D01*
X28121Y32923D01*
Y33323D01*
X28117Y33342D01*
Y33528D01*
X27957D01*
X27814Y33671D01*
X27751Y33713D01*
X27736Y33716D01*
X25942Y35510D01*
X25961Y35556D01*
X27349D01*
X29506Y33399D01*
Y32100D01*
X29521Y32026D01*
X29563Y31963D01*
X29757Y31769D01*
X29738Y31723D01*
X29635D01*
X29203Y32155D01*
X29157Y32186D01*
X29102Y32197D01*
X29067Y32229D01*
Y32549D01*
X29055Y32613D01*
X29018Y32667D01*
X28964Y32704D01*
X28900Y32716D01*
X28836Y32704D01*
X28782Y32667D01*
X28746Y32613D01*
X28733Y32549D01*
Y32063D01*
X28746Y31999D01*
X28782Y31945D01*
X28836Y31908D01*
X28900Y31896D01*
X28964Y31908D01*
X28968Y31911D01*
X29043D01*
X29433Y31521D01*
Y31328D01*
X29867D01*
Y31594D01*
X29913Y31613D01*
X30013Y31513D01*
X30076Y31471D01*
X30150Y31456D01*
X30824D01*
X30898Y31471D01*
X30961Y31513D01*
X31137Y31689D01*
X31179Y31752D01*
X31194Y31826D01*
Y32497D01*
X31179Y32571D01*
X31156Y32606D01*
X31154Y32613D01*
X31118Y32667D01*
X31094Y32684D01*
Y33133D01*
X31117D01*
Y33528D01*
X30683D01*
Y33510D01*
X30633Y33505D01*
X30629Y33524D01*
X30587Y33587D01*
X30524Y33629D01*
X30450Y33644D01*
X30376Y33629D01*
X30313Y33587D01*
X30271Y33524D01*
X30256Y33450D01*
X30271Y33376D01*
X30307Y33322D01*
Y32356D01*
X30307Y32356D01*
X30318Y32301D01*
X30333Y32280D01*
Y32063D01*
X30345Y31999D01*
X30382Y31945D01*
X30436Y31908D01*
X30500Y31896D01*
X30564Y31908D01*
X30618Y31945D01*
X30654Y31999D01*
X30667Y32063D01*
Y32537D01*
X30717Y32542D01*
X30721Y32523D01*
X30763Y32460D01*
X30806Y32417D01*
Y31906D01*
X30744Y31844D01*
X30230D01*
X29894Y32180D01*
Y33479D01*
X29879Y33553D01*
X29837Y33616D01*
X27943Y35510D01*
X27962Y35556D01*
X36970D01*
X38668Y33858D01*
X38666Y33853D01*
X38652Y33750D01*
X38666Y33647D01*
X38706Y33551D01*
X38769Y33469D01*
X38851Y33406D01*
X38947Y33366D01*
X39050Y33352D01*
X39153Y33366D01*
X39249Y33406D01*
X39331Y33469D01*
X39394Y33551D01*
X39400Y33565D01*
X39450Y33555D01*
Y33458D01*
X39457Y33423D01*
X39477Y33393D01*
X39685Y33185D01*
X39715Y33165D01*
X39750Y33158D01*
X39874D01*
X39884Y33108D01*
X39851Y33094D01*
X39769Y33031D01*
X39706Y32949D01*
X39666Y32853D01*
X39652Y32750D01*
X39666Y32647D01*
X39706Y32551D01*
X39769Y32469D01*
X39851Y32406D01*
X39947Y32366D01*
X40041Y32353D01*
X40059Y32330D01*
X40069Y32304D01*
X40061Y32292D01*
X38638D01*
X38388Y32542D01*
X38394Y32551D01*
X38434Y32647D01*
X38448Y32750D01*
X38434Y32853D01*
X38394Y32949D01*
X38331Y33031D01*
X38249Y33094D01*
X38153Y33134D01*
X38050Y33148D01*
X37947Y33134D01*
X37851Y33094D01*
X37769Y33031D01*
X37706Y32949D01*
X37666Y32853D01*
X37652Y32750D01*
X37666Y32647D01*
X37706Y32551D01*
X37769Y32469D01*
X37851Y32406D01*
X37947Y32366D01*
X38050Y32352D01*
X38153Y32366D01*
X38249Y32406D01*
X38258Y32412D01*
X38471Y32199D01*
X38452Y32153D01*
X37150D01*
X36994Y32309D01*
X37017Y32357D01*
X37050Y32352D01*
X37153Y32366D01*
X37249Y32406D01*
X37331Y32469D01*
X37394Y32551D01*
X37434Y32647D01*
X37448Y32750D01*
X37434Y32853D01*
X37394Y32949D01*
X37331Y33031D01*
X37249Y33094D01*
X37153Y33134D01*
X37050Y33148D01*
X36947Y33134D01*
X36851Y33094D01*
X36769Y33031D01*
X36737Y32990D01*
X36687Y33007D01*
Y33256D01*
X36687Y33256D01*
X36676Y33310D01*
X36645Y33357D01*
X36645Y33357D01*
X36411Y33591D01*
X36434Y33647D01*
X36448Y33750D01*
X36434Y33853D01*
X36394Y33949D01*
X36331Y34031D01*
X36249Y34094D01*
X36153Y34134D01*
X36050Y34148D01*
X35947Y34134D01*
X35851Y34094D01*
X35769Y34031D01*
X35706Y33949D01*
X35666Y33853D01*
X35652Y33750D01*
X35666Y33647D01*
X35706Y33551D01*
X35769Y33469D01*
X35851Y33406D01*
X35947Y33366D01*
X36050Y33352D01*
X36153Y33366D01*
X36209Y33389D01*
X36402Y33197D01*
Y33022D01*
X36352Y33005D01*
X36331Y33031D01*
X36249Y33094D01*
X36153Y33134D01*
X36050Y33148D01*
X35947Y33134D01*
X35851Y33094D01*
X35769Y33031D01*
X35743Y32997D01*
X35693Y33014D01*
Y33250D01*
X35693Y33250D01*
X35682Y33305D01*
X35651Y33351D01*
X35651Y33351D01*
X35411Y33591D01*
X35434Y33647D01*
X35448Y33750D01*
X35434Y33853D01*
X35394Y33949D01*
X35331Y34031D01*
X35287Y34065D01*
Y34164D01*
X36030Y34906D01*
X36750D01*
X36824Y34921D01*
X36887Y34963D01*
X36929Y35026D01*
X36944Y35100D01*
X36929Y35174D01*
X36887Y35237D01*
X36824Y35279D01*
X36750Y35294D01*
X35950D01*
X35876Y35279D01*
X35813Y35237D01*
X34957Y34381D01*
X34915Y34318D01*
X34900Y34244D01*
Y34115D01*
X34851Y34094D01*
X34769Y34031D01*
X34706Y33949D01*
X34666Y33853D01*
X34652Y33750D01*
X34666Y33647D01*
X34706Y33551D01*
X34769Y33469D01*
X34851Y33406D01*
X34947Y33366D01*
X35050Y33352D01*
X35153Y33366D01*
X35209Y33389D01*
X35404Y33194D01*
X35399Y33144D01*
X34656D01*
Y32356D01*
X35416D01*
X35418Y32345D01*
X35449Y32299D01*
X36089Y31659D01*
X36089Y31659D01*
X36135Y31628D01*
X36190Y31617D01*
X36190Y31617D01*
X44831D01*
X45099Y31349D01*
X45099Y31349D01*
X45145Y31318D01*
X45200Y31307D01*
X45200Y31307D01*
X46972D01*
X47026Y31271D01*
X47100Y31256D01*
X47174Y31271D01*
X47237Y31313D01*
X47279Y31376D01*
X47294Y31450D01*
X47279Y31524D01*
X47237Y31587D01*
X47174Y31629D01*
X47100Y31644D01*
X47026Y31629D01*
X46972Y31593D01*
X45259D01*
X44991Y31861D01*
X44957Y31884D01*
X44949Y31914D01*
X44977Y31962D01*
X45024Y31971D01*
X45087Y32013D01*
X45129Y32076D01*
X45144Y32150D01*
X45129Y32224D01*
X45087Y32287D01*
X45024Y32329D01*
X44950Y32344D01*
X44876Y32329D01*
X44813Y32287D01*
X44771Y32224D01*
X44758Y32160D01*
X44751Y32153D01*
X40276D01*
X40257Y32199D01*
X40615Y32557D01*
X40635Y32587D01*
X40635Y32590D01*
X40640Y32593D01*
X40687Y32595D01*
X40706Y32551D01*
X40769Y32469D01*
X40851Y32406D01*
X40947Y32366D01*
X41050Y32352D01*
X41153Y32366D01*
X41249Y32406D01*
X41331Y32469D01*
X41394Y32551D01*
X41434Y32647D01*
X41448Y32750D01*
X41434Y32853D01*
X41394Y32949D01*
X41331Y33031D01*
X41249Y33094D01*
X41153Y33134D01*
X41139Y33136D01*
X41142Y33186D01*
X41206D01*
X41241Y33193D01*
X41271Y33213D01*
X41601Y33543D01*
X41621Y33573D01*
X41628Y33608D01*
Y33826D01*
X42460Y34658D01*
X42833D01*
X42863Y34613D01*
X42926Y34571D01*
X43000Y34556D01*
X43074Y34571D01*
X43137Y34613D01*
X43167Y34658D01*
X43912D01*
X45935Y32635D01*
X45965Y32615D01*
X46000Y32608D01*
X46650D01*
X46685Y32615D01*
X46715Y32635D01*
X47127Y33047D01*
X47180Y33036D01*
X47254Y33051D01*
X47317Y33093D01*
X47359Y33156D01*
X47374Y33230D01*
X47359Y33304D01*
X47317Y33367D01*
X47254Y33409D01*
X47180Y33424D01*
X47106Y33409D01*
X47043Y33367D01*
X47001Y33304D01*
X46986Y33230D01*
X46997Y33177D01*
X46612Y32792D01*
X46038D01*
X44015Y34815D01*
X43985Y34835D01*
X43950Y34842D01*
X43167D01*
X43137Y34887D01*
X43074Y34929D01*
X43000Y34944D01*
X42926Y34929D01*
X42863Y34887D01*
X42833Y34842D01*
X42422D01*
X42387Y34835D01*
X42357Y34815D01*
X41471Y33929D01*
X41462Y33916D01*
X41408Y33917D01*
X41408Y33917D01*
X41394Y33949D01*
X41331Y34031D01*
X41249Y34094D01*
X41153Y34134D01*
X41050Y34148D01*
X40947Y34134D01*
X40851Y34094D01*
X40769Y34031D01*
X40706Y33949D01*
X40666Y33853D01*
X40652Y33750D01*
X40666Y33647D01*
X40706Y33551D01*
X40712Y33542D01*
X40512Y33342D01*
X40226D01*
X40216Y33392D01*
X40249Y33406D01*
X40331Y33469D01*
X40394Y33551D01*
X40434Y33647D01*
X40448Y33750D01*
X40434Y33853D01*
X40394Y33949D01*
X40331Y34031D01*
X40249Y34094D01*
X40153Y34134D01*
X40050Y34148D01*
X39947Y34134D01*
X39926Y34126D01*
X36643Y37409D01*
Y42422D01*
X36679Y42476D01*
X36694Y42550D01*
X36679Y42624D01*
X36637Y42687D01*
X36574Y42729D01*
X36500Y42744D01*
X36426Y42729D01*
X36363Y42687D01*
X36321Y42624D01*
X36306Y42550D01*
X36321Y42476D01*
X36357Y42422D01*
Y37350D01*
X36357Y37350D01*
X36368Y37295D01*
X36399Y37249D01*
X37456Y36192D01*
X37436Y36142D01*
X30138D01*
X29042Y37238D01*
Y38383D01*
X29087Y38413D01*
X29129Y38476D01*
X29144Y38550D01*
X29129Y38624D01*
X29087Y38687D01*
X29024Y38729D01*
X28950Y38744D01*
X28876Y38729D01*
X28813Y38687D01*
X28771Y38624D01*
X28756Y38550D01*
X28771Y38476D01*
X28813Y38413D01*
X28858Y38383D01*
Y37200D01*
X28865Y37165D01*
X28885Y37135D01*
X30027Y35994D01*
X30018Y35960D01*
X30007Y35944D01*
X25509D01*
X24044Y37409D01*
Y41270D01*
X24937Y42163D01*
X27650D01*
X27724Y42178D01*
X27787Y42220D01*
X27829Y42283D01*
X27844Y42357D01*
X27829Y42431D01*
X27787Y42494D01*
X27724Y42536D01*
X27650Y42551D01*
X26889D01*
X26862Y42600D01*
X26879Y42626D01*
X26894Y42700D01*
X26883Y42753D01*
X27415Y43285D01*
X27435Y43315D01*
X27442Y43350D01*
Y51133D01*
X27487Y51163D01*
X27529Y51226D01*
X27544Y51300D01*
X27529Y51374D01*
X27487Y51437D01*
X27424Y51479D01*
X27350Y51494D01*
X27276Y51479D01*
X27242Y51456D01*
X27188Y51480D01*
X27179Y51524D01*
X27157Y51557D01*
X27184Y51607D01*
X27472D01*
X27526Y51571D01*
X27600Y51556D01*
X27674Y51571D01*
X27737Y51613D01*
X27779Y51676D01*
X27794Y51750D01*
X27779Y51824D01*
X27737Y51887D01*
X27674Y51929D01*
X27600Y51944D01*
D02*
G37*
G36*
X54800Y51433D02*
X54716Y51422D01*
X54639Y51390D01*
X54572Y51338D01*
X54520Y51271D01*
X54488Y51194D01*
X54477Y51110D01*
X54488Y51026D01*
X54520Y50949D01*
X54572Y50882D01*
X54639Y50830D01*
X54716Y50798D01*
X54800Y50787D01*
X54884Y50798D01*
X54961Y50830D01*
X55028Y50882D01*
X55080Y50949D01*
X55112Y51026D01*
X55123Y51110D01*
X55112Y51194D01*
X55080Y51271D01*
X55028Y51338D01*
X54961Y51390D01*
X54884Y51422D01*
X54800Y51433D01*
D02*
G37*
G36*
X49275D02*
X49191Y51422D01*
X49114Y51390D01*
X49047Y51338D01*
X48995Y51271D01*
X48963Y51194D01*
X48952Y51110D01*
X48963Y51026D01*
X48995Y50949D01*
X49047Y50882D01*
X49114Y50830D01*
X49191Y50798D01*
X49275Y50787D01*
X49359Y50798D01*
X49436Y50830D01*
X49503Y50882D01*
X49555Y50949D01*
X49587Y51026D01*
X49598Y51110D01*
X49587Y51194D01*
X49555Y51271D01*
X49503Y51338D01*
X49436Y51390D01*
X49359Y51422D01*
X49275Y51433D01*
D02*
G37*
G36*
X32592Y51073D02*
X32526Y51060D01*
X32471Y51023D01*
X32433Y50967D01*
X32420Y50902D01*
X32433Y50836D01*
X32471Y50781D01*
X32526Y50744D01*
X32592Y50731D01*
X32657Y50744D01*
X32713Y50781D01*
X32750Y50836D01*
X32763Y50902D01*
X32750Y50967D01*
X32713Y51023D01*
X32657Y51060D01*
X32592Y51073D01*
D02*
G37*
G36*
X30308Y51069D02*
X30243Y51056D01*
X30187Y51019D01*
X30150Y50963D01*
X30137Y50898D01*
X30150Y50832D01*
X30187Y50777D01*
X30243Y50740D01*
X30308Y50727D01*
X30374Y50740D01*
X30429Y50777D01*
X30466Y50832D01*
X30480Y50898D01*
X30466Y50963D01*
X30429Y51019D01*
X30374Y51056D01*
X30308Y51069D01*
D02*
G37*
G36*
X28900Y51994D02*
X28826Y51979D01*
X28763Y51937D01*
X28721Y51874D01*
X28706Y51800D01*
X28721Y51726D01*
X28763Y51663D01*
X28808Y51633D01*
Y51067D01*
X28763Y51037D01*
X28721Y50974D01*
X28706Y50900D01*
X28721Y50826D01*
X28763Y50763D01*
X28826Y50721D01*
X28900Y50706D01*
X28974Y50721D01*
X29037Y50763D01*
X29079Y50826D01*
X29094Y50900D01*
X29079Y50974D01*
X29037Y51037D01*
X28992Y51067D01*
Y51633D01*
X29037Y51663D01*
X29079Y51726D01*
X29094Y51800D01*
X29079Y51874D01*
X29037Y51937D01*
X28974Y51979D01*
X28900Y51994D01*
D02*
G37*
G36*
X28200Y51944D02*
X28126Y51929D01*
X28063Y51887D01*
X28021Y51824D01*
X28006Y51750D01*
X28021Y51676D01*
X28063Y51613D01*
X28126Y51571D01*
X28158Y51565D01*
Y51017D01*
X28113Y50987D01*
X28071Y50924D01*
X28056Y50850D01*
X28071Y50776D01*
X28113Y50713D01*
X28176Y50671D01*
X28250Y50656D01*
X28324Y50671D01*
X28387Y50713D01*
X28429Y50776D01*
X28444Y50850D01*
X28429Y50924D01*
X28387Y50987D01*
X28342Y51017D01*
Y51620D01*
X28379Y51676D01*
X28394Y51750D01*
X28379Y51824D01*
X28337Y51887D01*
X28274Y51929D01*
X28200Y51944D01*
D02*
G37*
G36*
X28950Y50244D02*
X28876Y50229D01*
X28813Y50187D01*
X28787D01*
X28724Y50229D01*
X28650Y50244D01*
X28576Y50229D01*
X28513Y50187D01*
X28487D01*
X28424Y50229D01*
X28350Y50244D01*
X28276Y50229D01*
X28213Y50187D01*
X28171Y50124D01*
X28156Y50050D01*
X28171Y49976D01*
X28213Y49913D01*
X28276Y49871D01*
X28350Y49856D01*
X28424Y49871D01*
X28487Y49913D01*
X28513D01*
X28576Y49871D01*
X28650Y49856D01*
X28724Y49871D01*
X28787Y49913D01*
X28813D01*
X28876Y49871D01*
X28950Y49856D01*
X29024Y49871D01*
X29087Y49913D01*
X29129Y49976D01*
X29144Y50050D01*
X29129Y50124D01*
X29087Y50187D01*
X29024Y50229D01*
X28950Y50244D01*
D02*
G37*
G36*
X44950Y50144D02*
X44876Y50129D01*
X44813Y50087D01*
X44771Y50024D01*
X44756Y49950D01*
X44771Y49876D01*
X44813Y49813D01*
X44876Y49771D01*
X44950Y49756D01*
X45024Y49771D01*
X45087Y49813D01*
X45129Y49876D01*
X45144Y49950D01*
X45129Y50024D01*
X45087Y50087D01*
X45024Y50129D01*
X44950Y50144D01*
D02*
G37*
G36*
X44450D02*
X44376Y50129D01*
X44313Y50087D01*
X44271Y50024D01*
X44256Y49950D01*
X44271Y49876D01*
X44313Y49813D01*
X44376Y49771D01*
X44450Y49756D01*
X44524Y49771D01*
X44587Y49813D01*
X44629Y49876D01*
X44644Y49950D01*
X44629Y50024D01*
X44587Y50087D01*
X44524Y50129D01*
X44450Y50144D01*
D02*
G37*
G36*
X38719Y49698D02*
X38641Y49688D01*
X38569Y49658D01*
X38507Y49611D01*
X38460Y49549D01*
X38430Y49477D01*
X38420Y49400D01*
X38430Y49323D01*
X38460Y49251D01*
X38507Y49189D01*
X38569Y49142D01*
X38641Y49112D01*
X38719Y49102D01*
X38796Y49112D01*
X38868Y49142D01*
X38930Y49189D01*
X38977Y49251D01*
X39007Y49323D01*
X39017Y49400D01*
X39007Y49477D01*
X38977Y49549D01*
X38930Y49611D01*
X38868Y49658D01*
X38796Y49688D01*
X38719Y49698D01*
D02*
G37*
G36*
X36750D02*
X36673Y49688D01*
X36601Y49658D01*
X36539Y49611D01*
X36492Y49549D01*
X36462Y49477D01*
X36452Y49400D01*
X36462Y49323D01*
X36492Y49251D01*
X36539Y49189D01*
X36601Y49142D01*
X36673Y49112D01*
X36750Y49102D01*
X36827Y49112D01*
X36899Y49142D01*
X36961Y49189D01*
X37008Y49251D01*
X37038Y49323D01*
X37048Y49400D01*
X37038Y49477D01*
X37008Y49549D01*
X36961Y49611D01*
X36899Y49658D01*
X36827Y49688D01*
X36750Y49698D01*
D02*
G37*
G36*
X31745Y49598D02*
X31671Y49584D01*
X31608Y49542D01*
X31566Y49479D01*
X31552Y49405D01*
X31566Y49331D01*
X31608Y49268D01*
X31654Y49238D01*
Y49044D01*
X31607Y49024D01*
X31324Y49307D01*
X31334Y49321D01*
X31348Y49395D01*
X31334Y49469D01*
X31292Y49532D01*
X31229Y49574D01*
X31155Y49589D01*
X31081Y49574D01*
X31018Y49532D01*
X30976Y49469D01*
X30961Y49395D01*
X30976Y49321D01*
X31018Y49258D01*
X31081Y49216D01*
X31155Y49202D01*
X31168Y49204D01*
X34918Y45454D01*
Y43348D01*
X32835Y41265D01*
X32815Y41235D01*
X32808Y41200D01*
Y40002D01*
X32815Y39967D01*
X32835Y39937D01*
X34608Y38164D01*
Y36717D01*
X34563Y36687D01*
X34521Y36624D01*
X34506Y36550D01*
X34521Y36476D01*
X34563Y36413D01*
X34626Y36371D01*
X34700Y36356D01*
X34774Y36371D01*
X34837Y36413D01*
X34850Y36432D01*
X34900D01*
X34913Y36413D01*
X34976Y36371D01*
X35050Y36356D01*
X35124Y36371D01*
X35187Y36413D01*
X35229Y36476D01*
X35244Y36550D01*
X35229Y36624D01*
X35187Y36687D01*
X35142Y36717D01*
Y38050D01*
X35135Y38085D01*
X35115Y38115D01*
X33132Y40098D01*
Y41104D01*
X33383Y41355D01*
X33431Y41332D01*
X33431Y41307D01*
Y40246D01*
X34219D01*
Y41350D01*
X33477D01*
X33448Y41350D01*
X33425Y41398D01*
X35215Y43187D01*
X35235Y43217D01*
X35242Y43252D01*
Y45550D01*
X35235Y45585D01*
X35215Y45615D01*
X31837Y48993D01*
Y49238D01*
X31882Y49268D01*
X31924Y49331D01*
X31939Y49405D01*
X31924Y49479D01*
X31882Y49542D01*
X31819Y49584D01*
X31745Y49598D01*
D02*
G37*
G36*
X54800Y49073D02*
X54716Y49062D01*
X54639Y49030D01*
X54572Y48978D01*
X54520Y48911D01*
X54488Y48834D01*
X54477Y48750D01*
X54488Y48666D01*
X54520Y48589D01*
X54572Y48522D01*
X54639Y48470D01*
X54716Y48438D01*
X54800Y48427D01*
X54884Y48438D01*
X54961Y48470D01*
X55028Y48522D01*
X55080Y48589D01*
X55112Y48666D01*
X55123Y48750D01*
X55112Y48834D01*
X55080Y48911D01*
X55028Y48978D01*
X54961Y49030D01*
X54884Y49062D01*
X54800Y49073D01*
D02*
G37*
G36*
X49275D02*
X49191Y49062D01*
X49114Y49030D01*
X49047Y48978D01*
X48995Y48911D01*
X48963Y48834D01*
X48952Y48750D01*
X48963Y48666D01*
X48995Y48589D01*
X49047Y48522D01*
X49114Y48470D01*
X49191Y48438D01*
X49275Y48427D01*
X49359Y48438D01*
X49436Y48470D01*
X49503Y48522D01*
X49555Y48589D01*
X49587Y48666D01*
X49598Y48750D01*
X49587Y48834D01*
X49555Y48911D01*
X49503Y48978D01*
X49436Y49030D01*
X49359Y49062D01*
X49275Y49073D01*
D02*
G37*
G36*
X52250Y47894D02*
X52176Y47879D01*
X52113Y47837D01*
X52083Y47792D01*
X47700D01*
X47665Y47785D01*
X47635Y47765D01*
X45585Y45715D01*
X45565Y45685D01*
X45558Y45650D01*
Y44867D01*
X45513Y44837D01*
X45471Y44774D01*
X45456Y44700D01*
X45471Y44626D01*
X45513Y44563D01*
X45576Y44521D01*
X45650Y44506D01*
X45724Y44521D01*
X45787Y44563D01*
X45829Y44626D01*
X45844Y44700D01*
X45829Y44774D01*
X45787Y44837D01*
X45742Y44867D01*
Y45612D01*
X47738Y47608D01*
X52083D01*
X52113Y47563D01*
X52176Y47521D01*
X52250Y47506D01*
X52324Y47521D01*
X52387Y47563D01*
X52429Y47626D01*
X52444Y47700D01*
X52429Y47774D01*
X52387Y47837D01*
X52324Y47879D01*
X52250Y47894D01*
D02*
G37*
G36*
X51600Y47394D02*
X51526Y47379D01*
X51463Y47337D01*
X51421Y47274D01*
X51406Y47200D01*
X51417Y47147D01*
X50795Y46525D01*
X50775Y46495D01*
X50768Y46460D01*
Y39501D01*
X50775Y39465D01*
X50795Y39436D01*
X50958Y39273D01*
Y37817D01*
X50913Y37787D01*
X50871Y37724D01*
X50856Y37650D01*
X50871Y37576D01*
X50913Y37513D01*
X50976Y37471D01*
X51050Y37456D01*
X51124Y37471D01*
X51187Y37513D01*
X51229Y37576D01*
X51244Y37650D01*
X51229Y37724D01*
X51187Y37787D01*
X51142Y37817D01*
Y39311D01*
X51135Y39346D01*
X51115Y39375D01*
X50952Y39539D01*
Y43610D01*
X51002Y43637D01*
X51026Y43621D01*
X51100Y43606D01*
X51174Y43621D01*
X51237Y43663D01*
X51279Y43726D01*
X51294Y43800D01*
X51279Y43874D01*
X51237Y43937D01*
X51174Y43979D01*
X51100Y43994D01*
X51026Y43979D01*
X51002Y43963D01*
X50952Y43990D01*
Y46422D01*
X51547Y47017D01*
X51600Y47006D01*
X51674Y47021D01*
X51737Y47063D01*
X51779Y47126D01*
X51794Y47200D01*
X51779Y47274D01*
X51737Y47337D01*
X51674Y47379D01*
X51600Y47394D01*
D02*
G37*
G36*
X24300Y46793D02*
X24211Y46781D01*
X24129Y46747D01*
X24058Y46692D01*
X24003Y46621D01*
X23969Y46539D01*
X23957Y46450D01*
X23969Y46361D01*
X24003Y46279D01*
X24058Y46208D01*
X24129Y46153D01*
X24211Y46119D01*
X24300Y46107D01*
X24389Y46119D01*
X24471Y46153D01*
X24542Y46208D01*
X24597Y46279D01*
X24631Y46361D01*
X24643Y46450D01*
X24631Y46539D01*
X24597Y46621D01*
X24542Y46692D01*
X24471Y46747D01*
X24389Y46781D01*
X24300Y46793D01*
D02*
G37*
G36*
X30950Y45394D02*
X30876Y45379D01*
X30813Y45337D01*
X30771Y45274D01*
X30756Y45200D01*
X30771Y45126D01*
X30813Y45063D01*
X30876Y45021D01*
X30950Y45006D01*
X31024Y45021D01*
X31087Y45063D01*
X31129Y45126D01*
X31144Y45200D01*
X31129Y45274D01*
X31087Y45337D01*
X31024Y45379D01*
X30950Y45394D01*
D02*
G37*
G36*
X30400D02*
X30326Y45379D01*
X30263Y45337D01*
X30221Y45274D01*
X30206Y45200D01*
X30221Y45126D01*
X30263Y45063D01*
X30326Y45021D01*
X30400Y45006D01*
X30474Y45021D01*
X30537Y45063D01*
X30579Y45126D01*
X30594Y45200D01*
X30579Y45274D01*
X30537Y45337D01*
X30474Y45379D01*
X30400Y45394D01*
D02*
G37*
G36*
X39545Y45628D02*
X39443Y45615D01*
X39348Y45576D01*
X39267Y45513D01*
X39204Y45432D01*
X39165Y45337D01*
X39152Y45235D01*
X39165Y45133D01*
X39204Y45038D01*
X39267Y44957D01*
X39348Y44894D01*
X39443Y44855D01*
X39545Y44842D01*
X39647Y44855D01*
X39742Y44894D01*
X39823Y44957D01*
X39886Y45038D01*
X39925Y45133D01*
X39938Y45235D01*
X39925Y45337D01*
X39886Y45432D01*
X39823Y45513D01*
X39742Y45576D01*
X39647Y45615D01*
X39545Y45628D01*
D02*
G37*
G36*
X25750Y47833D02*
X25676Y47818D01*
X25613Y47776D01*
X25571Y47713D01*
X25556Y47639D01*
X25571Y47565D01*
X25613Y47502D01*
X25676Y47460D01*
X25750Y47446D01*
X25803Y47456D01*
X26608Y46651D01*
Y45067D01*
X26563Y45037D01*
X26521Y44974D01*
X26506Y44900D01*
X26521Y44826D01*
X26563Y44763D01*
X26626Y44721D01*
X26700Y44706D01*
X26774Y44721D01*
X26837Y44763D01*
X26879Y44826D01*
X26894Y44900D01*
X26879Y44974D01*
X26837Y45037D01*
X26792Y45067D01*
Y46689D01*
X26785Y46724D01*
X26765Y46754D01*
X25933Y47586D01*
X25944Y47639D01*
X25929Y47713D01*
X25887Y47776D01*
X25824Y47818D01*
X25750Y47833D01*
D02*
G37*
G36*
X30650Y44844D02*
X30576Y44829D01*
X30513Y44787D01*
X30471Y44724D01*
X30456Y44650D01*
X30471Y44576D01*
X30513Y44513D01*
X30576Y44471D01*
X30650Y44456D01*
X30724Y44471D01*
X30787Y44513D01*
X30829Y44576D01*
X30844Y44650D01*
X30829Y44724D01*
X30787Y44787D01*
X30724Y44829D01*
X30650Y44844D01*
D02*
G37*
G36*
X56300Y45894D02*
X56226Y45879D01*
X56163Y45837D01*
X56121Y45774D01*
X56106Y45700D01*
X56121Y45626D01*
X56163Y45563D01*
X56183Y45550D01*
Y44330D01*
X56176Y44329D01*
X56113Y44287D01*
X56071Y44224D01*
X56056Y44150D01*
X56071Y44076D01*
X56113Y44013D01*
X56176Y43971D01*
X56250Y43956D01*
X56324Y43971D01*
X56387Y44013D01*
X56429Y44076D01*
X56444Y44150D01*
X56429Y44224D01*
X56387Y44287D01*
X56367Y44300D01*
Y45520D01*
X56374Y45521D01*
X56437Y45563D01*
X56479Y45626D01*
X56494Y45700D01*
X56479Y45774D01*
X56437Y45837D01*
X56374Y45879D01*
X56300Y45894D01*
D02*
G37*
G36*
X24300Y44343D02*
X24211Y44331D01*
X24129Y44297D01*
X24058Y44242D01*
X24003Y44171D01*
X23969Y44089D01*
X23957Y44000D01*
X23969Y43911D01*
X24003Y43829D01*
X24058Y43758D01*
X24129Y43703D01*
X24211Y43669D01*
X24300Y43657D01*
X24389Y43669D01*
X24471Y43703D01*
X24542Y43758D01*
X24597Y43829D01*
X24631Y43911D01*
X24643Y44000D01*
X24631Y44089D01*
X24597Y44171D01*
X24542Y44242D01*
X24471Y44297D01*
X24389Y44331D01*
X24300Y44343D01*
D02*
G37*
G36*
X33100Y43643D02*
X33011Y43631D01*
X32929Y43597D01*
X32858Y43542D01*
X32803Y43471D01*
X32769Y43389D01*
X32757Y43300D01*
X32769Y43211D01*
X32803Y43129D01*
X32858Y43058D01*
X32929Y43003D01*
X33011Y42969D01*
X33100Y42957D01*
X33189Y42969D01*
X33271Y43003D01*
X33342Y43058D01*
X33397Y43129D01*
X33431Y43211D01*
X33443Y43300D01*
X33431Y43389D01*
X33397Y43471D01*
X33342Y43542D01*
X33271Y43597D01*
X33189Y43631D01*
X33100Y43643D01*
D02*
G37*
G36*
X32100D02*
X32011Y43631D01*
X31929Y43597D01*
X31858Y43542D01*
X31803Y43471D01*
X31769Y43389D01*
X31757Y43300D01*
X31769Y43211D01*
X31803Y43129D01*
X31858Y43058D01*
X31929Y43003D01*
X32011Y42969D01*
X32100Y42957D01*
X32189Y42969D01*
X32271Y43003D01*
X32342Y43058D01*
X32397Y43129D01*
X32431Y43211D01*
X32443Y43300D01*
X32431Y43389D01*
X32397Y43471D01*
X32342Y43542D01*
X32271Y43597D01*
X32189Y43631D01*
X32100Y43643D01*
D02*
G37*
G36*
X31100D02*
X31011Y43631D01*
X30929Y43597D01*
X30858Y43542D01*
X30803Y43471D01*
X30769Y43389D01*
X30757Y43300D01*
X30769Y43211D01*
X30803Y43129D01*
X30858Y43058D01*
X30929Y43003D01*
X31011Y42969D01*
X31100Y42957D01*
X31189Y42969D01*
X31271Y43003D01*
X31342Y43058D01*
X31397Y43129D01*
X31431Y43211D01*
X31443Y43300D01*
X31431Y43389D01*
X31397Y43471D01*
X31342Y43542D01*
X31271Y43597D01*
X31189Y43631D01*
X31100Y43643D01*
D02*
G37*
G36*
X38955Y43655D02*
X38175D01*
Y42875D01*
X38955D01*
Y43655D01*
D02*
G37*
G36*
X40535Y43658D02*
X40433Y43645D01*
X40338Y43606D01*
X40257Y43543D01*
X40194Y43462D01*
X40155Y43367D01*
X40142Y43265D01*
X40155Y43163D01*
X40194Y43068D01*
X40257Y42987D01*
X40338Y42924D01*
X40433Y42885D01*
X40535Y42872D01*
X40637Y42885D01*
X40732Y42924D01*
X40813Y42987D01*
X40876Y43068D01*
X40915Y43163D01*
X40928Y43265D01*
X40915Y43367D01*
X40876Y43462D01*
X40813Y43543D01*
X40732Y43606D01*
X40637Y43645D01*
X40535Y43658D01*
D02*
G37*
G36*
X24640Y43340D02*
X23960D01*
Y42660D01*
X24640D01*
Y43340D01*
D02*
G37*
G36*
X28843Y42551D02*
X28769Y42536D01*
X28706Y42494D01*
X28664Y42431D01*
X28649Y42357D01*
X28664Y42283D01*
X28706Y42220D01*
X28769Y42178D01*
X28843Y42163D01*
X28917Y42178D01*
X28980Y42220D01*
X29022Y42283D01*
X29037Y42357D01*
X29022Y42431D01*
X28980Y42494D01*
X28917Y42536D01*
X28843Y42551D01*
D02*
G37*
G36*
X31750Y42544D02*
X31676Y42529D01*
X31613Y42487D01*
X31571Y42424D01*
X31556Y42350D01*
X31571Y42276D01*
X31613Y42213D01*
X31676Y42171D01*
X31750Y42156D01*
X31824Y42171D01*
X31887Y42213D01*
X31929Y42276D01*
X31944Y42350D01*
X31929Y42424D01*
X31887Y42487D01*
X31824Y42529D01*
X31750Y42544D01*
D02*
G37*
G36*
X30350D02*
X30276Y42529D01*
X30213Y42487D01*
X30171Y42424D01*
X30156Y42350D01*
X30171Y42276D01*
X30213Y42213D01*
X30276Y42171D01*
X30350Y42156D01*
X30424Y42171D01*
X30487Y42213D01*
X30529Y42276D01*
X30544Y42350D01*
X30529Y42424D01*
X30487Y42487D01*
X30424Y42529D01*
X30350Y42544D01*
D02*
G37*
G36*
X44700Y41357D02*
X44597Y41344D01*
X44501Y41304D01*
X44419Y41241D01*
X44356Y41158D01*
X44316Y41062D01*
X44302Y40959D01*
Y40644D01*
X44316Y40542D01*
X44356Y40446D01*
X44419Y40363D01*
X44501Y40300D01*
X44597Y40260D01*
X44700Y40247D01*
X44803Y40260D01*
X44899Y40300D01*
X44981Y40363D01*
X45044Y40446D01*
X45084Y40542D01*
X45098Y40644D01*
Y40788D01*
X48650D01*
X48676Y40771D01*
X48750Y40756D01*
X48824Y40771D01*
X48887Y40813D01*
X48929Y40876D01*
X48944Y40950D01*
X48929Y41024D01*
X48887Y41087D01*
X48824Y41129D01*
X48750Y41144D01*
X48676Y41129D01*
X48613Y41087D01*
X48604Y41074D01*
X45080D01*
X45044Y41158D01*
X44981Y41241D01*
X44899Y41304D01*
X44803Y41344D01*
X44700Y41357D01*
D02*
G37*
G36*
X40262D02*
X40160Y41344D01*
X40064Y41304D01*
X39981Y41241D01*
X39918Y41158D01*
X39878Y41062D01*
X39865Y40959D01*
Y40644D01*
X39878Y40542D01*
X39918Y40446D01*
X39981Y40363D01*
X40064Y40300D01*
X40160Y40260D01*
X40262Y40247D01*
X40365Y40260D01*
X40461Y40300D01*
X40544Y40363D01*
X40607Y40446D01*
X40647Y40542D01*
X40660Y40644D01*
Y40959D01*
X40647Y41062D01*
X40607Y41158D01*
X40544Y41241D01*
X40461Y41304D01*
X40365Y41344D01*
X40262Y41357D01*
D02*
G37*
G36*
X35825D02*
X35722Y41344D01*
X35626Y41304D01*
X35544Y41241D01*
X35481Y41158D01*
X35441Y41062D01*
X35427Y40959D01*
Y40644D01*
X35441Y40542D01*
X35481Y40446D01*
X35544Y40363D01*
X35626Y40300D01*
X35722Y40260D01*
X35825Y40247D01*
X35928Y40260D01*
X36024Y40300D01*
X36106Y40363D01*
X36169Y40446D01*
X36209Y40542D01*
X36223Y40644D01*
Y40959D01*
X36209Y41062D01*
X36169Y41158D01*
X36106Y41241D01*
X36024Y41304D01*
X35928Y41344D01*
X35825Y41357D01*
D02*
G37*
G36*
X31388D02*
X31285Y41344D01*
X31189Y41304D01*
X31106Y41241D01*
X31043Y41158D01*
X31003Y41062D01*
X30990Y40959D01*
Y40644D01*
X31003Y40542D01*
X31043Y40446D01*
X31106Y40363D01*
X31189Y40300D01*
X31285Y40260D01*
X31388Y40247D01*
X31490Y40260D01*
X31586Y40300D01*
X31669Y40363D01*
X31732Y40446D01*
X31772Y40542D01*
X31785Y40644D01*
Y40959D01*
X31772Y41062D01*
X31732Y41158D01*
X31669Y41241D01*
X31586Y41304D01*
X31490Y41344D01*
X31388Y41357D01*
D02*
G37*
G36*
X26950D02*
X26847Y41344D01*
X26751Y41304D01*
X26669Y41241D01*
X26606Y41158D01*
X26566Y41062D01*
X26552Y40959D01*
Y40644D01*
X26566Y40542D01*
X26606Y40446D01*
X26669Y40363D01*
X26751Y40300D01*
X26847Y40260D01*
X26950Y40247D01*
X27053Y40260D01*
X27149Y40300D01*
X27231Y40363D01*
X27294Y40446D01*
X27334Y40542D01*
X27348Y40644D01*
Y40959D01*
X27334Y41062D01*
X27294Y41158D01*
X27231Y41241D01*
X27149Y41304D01*
X27053Y41344D01*
X26950Y41357D01*
D02*
G37*
G36*
X38657Y41350D02*
X37868D01*
Y40246D01*
X38657D01*
Y41350D01*
D02*
G37*
G36*
X29782D02*
X28993D01*
Y40246D01*
X29782D01*
Y41350D01*
D02*
G37*
G36*
X43700Y41353D02*
X43597Y41340D01*
X43501Y41300D01*
X43419Y41237D01*
X43356Y41154D01*
X43316Y41058D01*
X43302Y40956D01*
Y40641D01*
X43316Y40538D01*
X43356Y40442D01*
X43419Y40359D01*
X43501Y40296D01*
X43597Y40256D01*
X43700Y40243D01*
X43803Y40256D01*
X43899Y40296D01*
X43981Y40359D01*
X44044Y40442D01*
X44084Y40538D01*
X44098Y40641D01*
Y40956D01*
X44084Y41058D01*
X44044Y41154D01*
X43981Y41237D01*
X43899Y41300D01*
X43803Y41340D01*
X43700Y41353D01*
D02*
G37*
G36*
X25950D02*
X25847Y41340D01*
X25751Y41300D01*
X25669Y41237D01*
X25606Y41154D01*
X25566Y41058D01*
X25552Y40956D01*
Y40641D01*
X25566Y40538D01*
X25606Y40442D01*
X25669Y40359D01*
X25751Y40296D01*
X25847Y40256D01*
X25950Y40243D01*
X26053Y40256D01*
X26149Y40296D01*
X26231Y40359D01*
X26294Y40442D01*
X26334Y40538D01*
X26348Y40641D01*
Y40956D01*
X26334Y41058D01*
X26294Y41154D01*
X26231Y41237D01*
X26149Y41300D01*
X26053Y41340D01*
X25950Y41353D01*
D02*
G37*
G36*
X33230Y39324D02*
X33156Y39309D01*
X33093Y39267D01*
X33060Y39217D01*
X24600D01*
X24587Y39237D01*
X24524Y39279D01*
X24450Y39294D01*
X24376Y39279D01*
X24313Y39237D01*
X24271Y39174D01*
X24256Y39100D01*
X24271Y39026D01*
X24313Y38963D01*
X24376Y38921D01*
X24450Y38906D01*
X24524Y38921D01*
X24587Y38963D01*
X24600Y38983D01*
X33108D01*
X33156Y38951D01*
X33230Y38936D01*
X33304Y38951D01*
X33367Y38993D01*
X33409Y39056D01*
X33424Y39130D01*
X33409Y39204D01*
X33367Y39267D01*
X33304Y39309D01*
X33230Y39324D01*
D02*
G37*
G36*
X49564Y35188D02*
X49144D01*
Y35081D01*
X48810D01*
Y35188D01*
X48390D01*
Y34791D01*
X48810D01*
Y34898D01*
X49144D01*
Y34791D01*
X49564D01*
Y34898D01*
X49933D01*
Y34743D01*
X50237D01*
X50344Y34637D01*
X50323Y34587D01*
X49933D01*
Y34481D01*
X49564D01*
Y34595D01*
X49144D01*
Y34198D01*
X49564D01*
Y34297D01*
X49933D01*
Y34192D01*
X50185D01*
Y34173D01*
X50192Y34138D01*
X50212Y34108D01*
X50627Y33693D01*
X50621Y33684D01*
X50606Y33610D01*
X50621Y33536D01*
X50663Y33473D01*
X50726Y33431D01*
X50800Y33416D01*
X50874Y33431D01*
X50883Y33437D01*
X50947Y33374D01*
X50942Y33350D01*
X50954Y33288D01*
X50989Y33236D01*
X51042Y33201D01*
X51104Y33188D01*
X51643D01*
X51704Y33201D01*
X51757Y33236D01*
X51792Y33288D01*
X51804Y33350D01*
X51792Y33412D01*
X51757Y33464D01*
X51704Y33499D01*
X51643Y33512D01*
X51104D01*
X51074Y33506D01*
X50990Y33590D01*
X50994Y33610D01*
X50979Y33682D01*
X50984Y33688D01*
X51017Y33717D01*
X51042Y33701D01*
X51104Y33688D01*
X51643D01*
X51704Y33701D01*
X51757Y33736D01*
X51792Y33788D01*
X51804Y33850D01*
X51792Y33912D01*
X51757Y33964D01*
X51704Y33999D01*
X51643Y34012D01*
X51104D01*
X51077Y34006D01*
X50769Y34314D01*
Y34433D01*
X50762Y34468D01*
X50742Y34498D01*
X50367Y34873D01*
Y35138D01*
X49933D01*
Y35081D01*
X49564D01*
Y35188D01*
D02*
G37*
G36*
X52275Y39669D02*
X52201Y39654D01*
X52138Y39612D01*
X52096Y39549D01*
X52081Y39475D01*
X52096Y39401D01*
X52132Y39347D01*
Y32733D01*
X51892Y32493D01*
X51714D01*
X51704Y32499D01*
X51643Y32512D01*
X51104D01*
X51042Y32499D01*
X51032Y32493D01*
X50834D01*
X50367Y32959D01*
Y33172D01*
X49933D01*
Y32777D01*
X50146D01*
X50674Y32249D01*
X50674Y32249D01*
X50720Y32218D01*
X50774Y32207D01*
X50774Y32207D01*
X51032D01*
X51042Y32201D01*
X51104Y32188D01*
X51643D01*
X51704Y32201D01*
X51714Y32207D01*
X51952D01*
X51952Y32207D01*
X52006Y32218D01*
X52052Y32249D01*
X52376Y32573D01*
X52376Y32573D01*
X52407Y32619D01*
X52418Y32673D01*
Y37730D01*
X52467Y37746D01*
X52493Y37720D01*
Y33972D01*
X52493Y33972D01*
X52504Y33917D01*
X52535Y33871D01*
X53106Y33300D01*
X53108Y33288D01*
X53143Y33236D01*
X53196Y33201D01*
X53257Y33188D01*
X53796D01*
X53858Y33201D01*
X53868Y33207D01*
X54297D01*
X54297Y33207D01*
X54352Y33218D01*
X54398Y33249D01*
X54456Y33307D01*
X54683D01*
Y33253D01*
X55117D01*
Y33647D01*
X54683D01*
Y33593D01*
X54397D01*
X54342Y33582D01*
X54296Y33551D01*
X54296Y33551D01*
X54238Y33493D01*
X53868D01*
X53858Y33499D01*
X53796Y33512D01*
X53298D01*
X52778Y34031D01*
Y34163D01*
X52828Y34189D01*
X52856Y34171D01*
X52930Y34156D01*
X53004Y34171D01*
X53067Y34213D01*
X53085Y34240D01*
X53141D01*
X53143Y34236D01*
X53196Y34201D01*
X53257Y34188D01*
X53796D01*
X53858Y34201D01*
X53911Y34236D01*
X53926Y34258D01*
X54731D01*
Y34198D01*
X55165D01*
Y34463D01*
X55260Y34558D01*
X55569D01*
Y34198D01*
X55848D01*
X58008Y32037D01*
Y31820D01*
X57958Y31805D01*
X57937Y31837D01*
X57874Y31879D01*
X57800Y31894D01*
X57726Y31879D01*
X57663Y31837D01*
X57633Y31792D01*
X56860D01*
Y32162D01*
X56570D01*
X56317Y32415D01*
X56287Y32435D01*
X56252Y32442D01*
X55356D01*
X55321Y32435D01*
X55291Y32415D01*
X55037Y32161D01*
X54733D01*
Y32056D01*
X54615D01*
X54586Y32075D01*
X54551Y32082D01*
X54194D01*
X53953Y32323D01*
X53958Y32350D01*
X53946Y32412D01*
X53911Y32464D01*
X53858Y32499D01*
X53796Y32512D01*
X53257D01*
X53249Y32510D01*
X52762Y32997D01*
Y33133D01*
X52807Y33163D01*
X52849Y33226D01*
X52864Y33300D01*
X52849Y33374D01*
X52807Y33437D01*
X52744Y33479D01*
X52670Y33494D01*
X52596Y33479D01*
X52533Y33437D01*
X52491Y33374D01*
X52476Y33300D01*
X52491Y33226D01*
X52533Y33163D01*
X52578Y33133D01*
Y32959D01*
X52585Y32924D01*
X52605Y32894D01*
X53105Y32394D01*
X53096Y32350D01*
X53108Y32288D01*
X53143Y32236D01*
X53196Y32201D01*
X53257Y32188D01*
X53796D01*
X53823Y32194D01*
X54029Y31988D01*
X54010Y31942D01*
X53926D01*
X53911Y31964D01*
X53858Y31999D01*
X53796Y32012D01*
X53257D01*
X53196Y31999D01*
X53143Y31964D01*
X53108Y31912D01*
X53096Y31850D01*
X53108Y31788D01*
X53143Y31736D01*
X53196Y31701D01*
X53257Y31688D01*
X53796D01*
X53858Y31701D01*
X53911Y31736D01*
X53926Y31758D01*
X54455D01*
X54733Y31481D01*
Y31215D01*
X55167D01*
Y31278D01*
X55569D01*
Y31171D01*
X55989D01*
Y31278D01*
X56440D01*
Y31171D01*
X56860D01*
Y31569D01*
X56885Y31608D01*
X57633D01*
X57663Y31563D01*
X57726Y31521D01*
X57800Y31506D01*
X57874Y31521D01*
X57937Y31563D01*
X57958Y31595D01*
X58008Y31580D01*
Y30038D01*
X57203Y29233D01*
X57150Y29244D01*
X57076Y29229D01*
X57013Y29187D01*
X56971Y29124D01*
X56956Y29050D01*
X56971Y28976D01*
X57013Y28913D01*
X57076Y28871D01*
X57150Y28856D01*
X57224Y28871D01*
X57287Y28913D01*
X57329Y28976D01*
X57344Y29050D01*
X57333Y29103D01*
X58165Y29935D01*
X58185Y29965D01*
X58192Y30000D01*
Y32076D01*
X58185Y32111D01*
X58165Y32140D01*
X55989Y34316D01*
Y34558D01*
X56347D01*
X56440Y34465D01*
Y34198D01*
X56860D01*
Y34595D01*
X56570D01*
X56450Y34715D01*
X56420Y34735D01*
X56385Y34742D01*
X55992D01*
X55989Y34791D01*
X55989Y34792D01*
Y34898D01*
X56440D01*
Y34791D01*
X56860D01*
Y35188D01*
X56440D01*
Y35081D01*
X55989D01*
Y35188D01*
X55569D01*
Y35038D01*
X55165D01*
Y35144D01*
X54731D01*
Y34942D01*
X53926D01*
X53911Y34964D01*
X53858Y34999D01*
X53796Y35012D01*
X53257D01*
X53196Y34999D01*
X53143Y34964D01*
X53108Y34912D01*
X53096Y34850D01*
X53108Y34788D01*
X53143Y34736D01*
X53196Y34701D01*
X53257Y34688D01*
X53796D01*
X53858Y34701D01*
X53911Y34736D01*
X53926Y34758D01*
X54731D01*
Y34749D01*
X55121D01*
X55141Y34699D01*
X55035Y34593D01*
X54731D01*
Y34442D01*
X53926D01*
X53911Y34464D01*
X53858Y34499D01*
X53796Y34512D01*
X53257D01*
X53196Y34499D01*
X53143Y34464D01*
X53141Y34460D01*
X53085D01*
X53067Y34487D01*
X53004Y34529D01*
X52930Y34544D01*
X52856Y34529D01*
X52828Y34511D01*
X52778Y34537D01*
Y37722D01*
X52814Y37776D01*
X52829Y37850D01*
X52814Y37924D01*
X52772Y37987D01*
X52710Y38029D01*
X52636Y38044D01*
X52561Y38029D01*
X52499Y37987D01*
X52468Y37941D01*
X52418Y37956D01*
Y39347D01*
X52454Y39401D01*
X52469Y39475D01*
X52454Y39549D01*
X52412Y39612D01*
X52349Y39654D01*
X52275Y39669D01*
D02*
G37*
G36*
X51643Y35012D02*
X51104D01*
X51042Y34999D01*
X50989Y34964D01*
X50954Y34912D01*
X50942Y34850D01*
X50954Y34788D01*
X50989Y34736D01*
X51042Y34701D01*
X51104Y34688D01*
X51643D01*
X51704Y34701D01*
X51757Y34736D01*
X51792Y34788D01*
X51804Y34850D01*
X51792Y34912D01*
X51757Y34964D01*
X51704Y34999D01*
X51643Y35012D01*
D02*
G37*
G36*
Y34512D02*
X51104D01*
X51042Y34499D01*
X50989Y34464D01*
X50954Y34412D01*
X50942Y34350D01*
X50954Y34288D01*
X50989Y34236D01*
X51042Y34201D01*
X51104Y34188D01*
X51643D01*
X51704Y34201D01*
X51757Y34236D01*
X51792Y34288D01*
X51804Y34350D01*
X51792Y34412D01*
X51757Y34464D01*
X51704Y34499D01*
X51643Y34512D01*
D02*
G37*
G36*
X49650Y33894D02*
X49576Y33879D01*
X49513Y33837D01*
X49471Y33774D01*
X49456Y33700D01*
X49471Y33626D01*
X49513Y33563D01*
X49576Y33521D01*
X49650Y33506D01*
X49724Y33521D01*
X49787Y33563D01*
X49829Y33626D01*
X49844Y33700D01*
X49829Y33774D01*
X49787Y33837D01*
X49724Y33879D01*
X49650Y33894D01*
D02*
G37*
G36*
X38050Y34148D02*
X37947Y34134D01*
X37851Y34094D01*
X37769Y34031D01*
X37706Y33949D01*
X37666Y33853D01*
X37652Y33750D01*
X37666Y33647D01*
X37706Y33551D01*
X37769Y33469D01*
X37851Y33406D01*
X37947Y33366D01*
X38050Y33352D01*
X38153Y33366D01*
X38249Y33406D01*
X38331Y33469D01*
X38394Y33551D01*
X38434Y33647D01*
X38448Y33750D01*
X38434Y33853D01*
X38394Y33949D01*
X38331Y34031D01*
X38249Y34094D01*
X38153Y34134D01*
X38050Y34148D01*
D02*
G37*
G36*
X37050D02*
X36947Y34134D01*
X36851Y34094D01*
X36769Y34031D01*
X36706Y33949D01*
X36666Y33853D01*
X36652Y33750D01*
X36666Y33647D01*
X36706Y33551D01*
X36769Y33469D01*
X36851Y33406D01*
X36947Y33366D01*
X37050Y33352D01*
X37153Y33366D01*
X37249Y33406D01*
X37331Y33469D01*
X37394Y33551D01*
X37434Y33647D01*
X37448Y33750D01*
X37434Y33853D01*
X37394Y33949D01*
X37331Y34031D01*
X37249Y34094D01*
X37153Y34134D01*
X37050Y34148D01*
D02*
G37*
G36*
X37250Y39344D02*
X37176Y39329D01*
X37113Y39287D01*
X37071Y39224D01*
X37056Y39150D01*
X37071Y39076D01*
X37113Y39013D01*
X37176Y38971D01*
X37250Y38956D01*
X37324Y38971D01*
X37387Y39013D01*
X37400Y39033D01*
X40451D01*
X46363Y33121D01*
X46368Y33095D01*
X46399Y33049D01*
X46445Y33018D01*
X46500Y33007D01*
X46555Y33018D01*
X46601Y33049D01*
X46632Y33095D01*
X46643Y33150D01*
X46632Y33205D01*
X46601Y33251D01*
X46555Y33282D01*
X46529Y33287D01*
X40583Y39233D01*
X40545Y39258D01*
X40500Y39267D01*
X37400D01*
X37387Y39287D01*
X37324Y39329D01*
X37250Y39344D01*
D02*
G37*
G36*
X24250Y33543D02*
X24161Y33531D01*
X24079Y33497D01*
X24008Y33442D01*
X23953Y33371D01*
X23919Y33289D01*
X23907Y33200D01*
X23919Y33111D01*
X23953Y33029D01*
X24008Y32958D01*
X24079Y32903D01*
X24161Y32869D01*
X24250Y32857D01*
X24339Y32869D01*
X24421Y32903D01*
X24492Y32958D01*
X24547Y33029D01*
X24581Y33111D01*
X24593Y33200D01*
X24581Y33289D01*
X24547Y33371D01*
X24492Y33442D01*
X24421Y33497D01*
X24339Y33531D01*
X24250Y33543D01*
D02*
G37*
G36*
X55350Y34144D02*
X55276Y34129D01*
X55213Y34087D01*
X55171Y34024D01*
X55156Y33950D01*
X55171Y33876D01*
X55213Y33813D01*
X55276Y33771D01*
X55350Y33756D01*
X55362Y33759D01*
X56167Y32953D01*
X56156Y32900D01*
X56171Y32826D01*
X56213Y32763D01*
X56276Y32721D01*
X56350Y32706D01*
X56424Y32721D01*
X56487Y32763D01*
X56529Y32826D01*
X56544Y32900D01*
X56529Y32974D01*
X56487Y33037D01*
X56424Y33079D01*
X56350Y33094D01*
X56297Y33083D01*
X55519Y33861D01*
X55529Y33876D01*
X55544Y33950D01*
X55529Y34024D01*
X55487Y34087D01*
X55424Y34129D01*
X55350Y34144D01*
D02*
G37*
G36*
X48810Y34595D02*
X48390D01*
Y34327D01*
X47475Y33413D01*
X47455Y33383D01*
X47448Y33348D01*
Y32126D01*
X47445Y32123D01*
X47425Y32093D01*
X47418Y32058D01*
Y30090D01*
X47425Y30055D01*
X47445Y30025D01*
X49307Y28163D01*
X49301Y28154D01*
X49287Y28080D01*
X49301Y28006D01*
X49343Y27943D01*
X49382Y27917D01*
X49367Y27867D01*
X49242D01*
X49197Y27858D01*
X49159Y27833D01*
X48367Y27041D01*
X48342Y27003D01*
X48333Y26958D01*
Y25558D01*
X48342Y25513D01*
X48367Y25475D01*
X49289Y24553D01*
X49266Y24506D01*
X49250Y24508D01*
X49157Y24496D01*
X49071Y24460D01*
X48997Y24403D01*
X48940Y24329D01*
X48904Y24243D01*
X48892Y24150D01*
X48904Y24057D01*
X48940Y23971D01*
X48997Y23897D01*
X49071Y23840D01*
X49157Y23804D01*
X49158Y23804D01*
Y21563D01*
X48370Y20775D01*
X48100D01*
Y20375D01*
X48500D01*
Y20645D01*
X48630Y20775D01*
X48650Y20775D01*
X48700Y20726D01*
Y20375D01*
X48783D01*
Y19238D01*
X48792Y19193D01*
X48817Y19155D01*
X48905Y19067D01*
X48943Y19042D01*
X48988Y19033D01*
X50040D01*
X50085Y19042D01*
X50123Y19067D01*
X50211Y19155D01*
X50236Y19193D01*
X50245Y19238D01*
Y19349D01*
X50291Y19368D01*
X50592Y19067D01*
X50630Y19042D01*
X50675Y19033D01*
X51537D01*
X51582Y19042D01*
X51620Y19067D01*
X52028Y19475D01*
X52097D01*
X52505Y19067D01*
X52543Y19042D01*
X52587Y19033D01*
X53450D01*
X53495Y19042D01*
X53533Y19067D01*
X53941Y19475D01*
X54009D01*
X54417Y19067D01*
X54455Y19042D01*
X54500Y19033D01*
X55363D01*
X55407Y19042D01*
X55445Y19067D01*
X55853Y19475D01*
X55922D01*
X56330Y19067D01*
X56368Y19042D01*
X56413Y19033D01*
X57275D01*
X57320Y19042D01*
X57358Y19067D01*
X57766Y19475D01*
X58000D01*
Y19875D01*
X57649D01*
X57600Y19925D01*
X57600Y19945D01*
X58215Y20560D01*
X58235Y20590D01*
X58242Y20625D01*
Y26250D01*
X58235Y26285D01*
X58215Y26315D01*
X57605Y26925D01*
Y27505D01*
X56895D01*
Y26795D01*
X57475D01*
X58058Y26212D01*
Y20663D01*
X57270Y19875D01*
X57000D01*
Y19475D01*
X57363D01*
X57384Y19425D01*
X57226Y19267D01*
X56461D01*
X56087Y19641D01*
Y19709D01*
X56751Y20373D01*
X56765D01*
X56776Y20375D01*
X57050D01*
Y20609D01*
X57933Y21492D01*
X57958Y21530D01*
X57967Y21575D01*
Y25150D01*
X57958Y25195D01*
X57933Y25233D01*
X57579Y25586D01*
X57541Y25612D01*
X57497Y25621D01*
X55793D01*
Y25702D01*
X55373D01*
Y25621D01*
X54731D01*
Y25702D01*
X54351D01*
X54331Y25752D01*
X54476Y25898D01*
X54731D01*
Y25979D01*
X55373D01*
Y25898D01*
X55793D01*
Y26295D01*
X55373D01*
Y26214D01*
X54731D01*
Y26295D01*
X54698D01*
Y26432D01*
X55096Y26830D01*
X55157Y26804D01*
X55250Y26792D01*
X55343Y26804D01*
X55429Y26840D01*
X55503Y26897D01*
X55560Y26971D01*
X55596Y27057D01*
X55608Y27150D01*
X55596Y27243D01*
X55560Y27329D01*
X55503Y27403D01*
X55429Y27460D01*
X55343Y27496D01*
X55250Y27508D01*
X55157Y27496D01*
X55071Y27460D01*
X54997Y27403D01*
X54940Y27329D01*
X54904Y27243D01*
X54892Y27150D01*
X54904Y27057D01*
X54930Y26996D01*
X54497Y26563D01*
X54472Y26525D01*
X54463Y26480D01*
Y26295D01*
X54310D01*
Y26064D01*
X54164Y25917D01*
X53668D01*
Y26295D01*
X53248D01*
Y26188D01*
X52606D01*
Y26295D01*
X52367D01*
Y26814D01*
X52429Y26840D01*
X52503Y26897D01*
X52560Y26971D01*
X52596Y27057D01*
X52608Y27150D01*
X52596Y27243D01*
X52560Y27329D01*
X52503Y27403D01*
X52429Y27460D01*
X52343Y27496D01*
X52250Y27508D01*
X52157Y27496D01*
X52071Y27460D01*
X51997Y27403D01*
X51940Y27329D01*
X51904Y27243D01*
X51892Y27150D01*
X51904Y27057D01*
X51940Y26971D01*
X51997Y26897D01*
X52071Y26840D01*
X52157Y26804D01*
X52184Y26801D01*
Y26205D01*
X52186Y26196D01*
Y25933D01*
X52136Y25906D01*
X52133Y25908D01*
X52088Y25917D01*
X51543D01*
Y26295D01*
X51342D01*
Y26804D01*
X51343Y26804D01*
X51429Y26840D01*
X51503Y26897D01*
X51560Y26971D01*
X51596Y27057D01*
X51608Y27150D01*
X51596Y27243D01*
X51560Y27329D01*
X51503Y27403D01*
X51429Y27460D01*
X51343Y27496D01*
X51250Y27508D01*
X51157Y27496D01*
X51071Y27460D01*
X50997Y27403D01*
X50940Y27329D01*
X50904Y27243D01*
X50892Y27150D01*
X50904Y27057D01*
X50940Y26971D01*
X50997Y26897D01*
X51071Y26840D01*
X51157Y26804D01*
X51158Y26804D01*
Y26295D01*
X51123D01*
Y25917D01*
X50481D01*
Y26005D01*
X50547D01*
X50582Y26012D01*
X50611Y26032D01*
X50697Y26117D01*
X50750Y26106D01*
X50824Y26121D01*
X50887Y26163D01*
X50929Y26226D01*
X50944Y26300D01*
X50929Y26374D01*
X50887Y26437D01*
X50824Y26479D01*
X50750Y26494D01*
X50676Y26479D01*
X50613Y26437D01*
X50571Y26374D01*
X50556Y26300D01*
X50567Y26247D01*
X50531Y26211D01*
X50481Y26231D01*
Y26295D01*
X50061D01*
Y25917D01*
X49948D01*
X49735Y26130D01*
X49697Y26156D01*
X49652Y26165D01*
X49467D01*
Y26245D01*
X49367D01*
Y26814D01*
X49429Y26840D01*
X49503Y26897D01*
X49560Y26971D01*
X49596Y27057D01*
X49608Y27150D01*
X49596Y27243D01*
X49560Y27329D01*
X49503Y27403D01*
X49429Y27460D01*
X49343Y27496D01*
X49250Y27508D01*
X49234Y27506D01*
X49211Y27553D01*
X49291Y27633D01*
X52601D01*
X52930Y27304D01*
X52904Y27243D01*
X52892Y27150D01*
X52904Y27057D01*
X52940Y26971D01*
X52997Y26897D01*
X53071Y26840D01*
X53157Y26804D01*
X53250Y26792D01*
X53343Y26804D01*
X53429Y26840D01*
X53503Y26897D01*
X53560Y26971D01*
X53596Y27057D01*
X53608Y27150D01*
X53596Y27243D01*
X53560Y27329D01*
X53503Y27403D01*
X53429Y27460D01*
X53343Y27496D01*
X53250Y27508D01*
X53157Y27496D01*
X53096Y27470D01*
X52733Y27833D01*
X52695Y27858D01*
X52650Y27867D01*
X50908D01*
X50895Y27897D01*
X50890Y27917D01*
X50929Y27976D01*
X50944Y28050D01*
X50929Y28124D01*
X50887Y28187D01*
X50824Y28229D01*
X50750Y28244D01*
X50676Y28229D01*
X50613Y28187D01*
X50583Y28142D01*
X49888D01*
X47742Y30288D01*
Y31962D01*
X48247Y32467D01*
X48300Y32456D01*
X48374Y32471D01*
X48437Y32513D01*
X48479Y32576D01*
X48494Y32650D01*
X48479Y32724D01*
X48437Y32787D01*
X48374Y32829D01*
X48300Y32844D01*
X48226Y32829D01*
X48163Y32787D01*
X48121Y32724D01*
X48106Y32650D01*
X48117Y32597D01*
X47678Y32158D01*
X47632Y32177D01*
Y33310D01*
X48520Y34198D01*
X48810D01*
Y34595D01*
D02*
G37*
G36*
X44050Y33148D02*
X43947Y33134D01*
X43851Y33094D01*
X43769Y33031D01*
X43706Y32949D01*
X43666Y32853D01*
X43652Y32750D01*
X43666Y32647D01*
X43706Y32551D01*
X43769Y32469D01*
X43851Y32406D01*
X43947Y32366D01*
X44050Y32352D01*
X44153Y32366D01*
X44249Y32406D01*
X44331Y32469D01*
X44394Y32551D01*
X44434Y32647D01*
X44448Y32750D01*
X44434Y32853D01*
X44394Y32949D01*
X44331Y33031D01*
X44249Y33094D01*
X44153Y33134D01*
X44050Y33148D01*
D02*
G37*
G36*
X43050D02*
X42947Y33134D01*
X42851Y33094D01*
X42769Y33031D01*
X42706Y32949D01*
X42666Y32853D01*
X42652Y32750D01*
X42666Y32647D01*
X42706Y32551D01*
X42769Y32469D01*
X42851Y32406D01*
X42947Y32366D01*
X43050Y32352D01*
X43153Y32366D01*
X43249Y32406D01*
X43331Y32469D01*
X43394Y32551D01*
X43434Y32647D01*
X43448Y32750D01*
X43434Y32853D01*
X43394Y32949D01*
X43331Y33031D01*
X43249Y33094D01*
X43153Y33134D01*
X43050Y33148D01*
D02*
G37*
G36*
X42050D02*
X41947Y33134D01*
X41851Y33094D01*
X41769Y33031D01*
X41706Y32949D01*
X41666Y32853D01*
X41652Y32750D01*
X41666Y32647D01*
X41706Y32551D01*
X41769Y32469D01*
X41851Y32406D01*
X41947Y32366D01*
X42050Y32352D01*
X42153Y32366D01*
X42249Y32406D01*
X42331Y32469D01*
X42394Y32551D01*
X42434Y32647D01*
X42448Y32750D01*
X42434Y32853D01*
X42394Y32949D01*
X42331Y33031D01*
X42249Y33094D01*
X42153Y33134D01*
X42050Y33148D01*
D02*
G37*
G36*
X39050D02*
X38947Y33134D01*
X38851Y33094D01*
X38769Y33031D01*
X38706Y32949D01*
X38666Y32853D01*
X38652Y32750D01*
X38666Y32647D01*
X38706Y32551D01*
X38769Y32469D01*
X38851Y32406D01*
X38947Y32366D01*
X39050Y32352D01*
X39153Y32366D01*
X39249Y32406D01*
X39331Y32469D01*
X39394Y32551D01*
X39434Y32647D01*
X39448Y32750D01*
X39434Y32853D01*
X39394Y32949D01*
X39331Y33031D01*
X39249Y33094D01*
X39153Y33134D01*
X39050Y33148D01*
D02*
G37*
G36*
X49564Y32245D02*
X49144D01*
Y32138D01*
X48810D01*
Y32245D01*
X48390D01*
Y31998D01*
X48340Y31983D01*
X48337Y31987D01*
X48274Y32029D01*
X48200Y32044D01*
X48126Y32029D01*
X48063Y31987D01*
X48021Y31924D01*
X48006Y31850D01*
X48021Y31776D01*
X48063Y31713D01*
X48126Y31671D01*
X48200Y31656D01*
X48274Y31671D01*
X48324Y31705D01*
X48344Y31685D01*
X48351Y31680D01*
X48390Y31652D01*
Y31255D01*
X48679D01*
X48899Y31035D01*
X48928Y31015D01*
X48963Y31008D01*
X49776D01*
X49811Y31015D01*
X49840Y31035D01*
X50082Y31277D01*
X50241D01*
X50259Y31265D01*
X50294Y31258D01*
X50974D01*
X50989Y31236D01*
X51042Y31201D01*
X51104Y31188D01*
X51281D01*
Y30027D01*
X51288Y29992D01*
X51308Y29962D01*
X52867Y28403D01*
X52856Y28350D01*
X52871Y28276D01*
X52913Y28213D01*
X52976Y28171D01*
X53050Y28156D01*
X53124Y28171D01*
X53187Y28213D01*
X53229Y28276D01*
X53244Y28350D01*
X53229Y28424D01*
X53187Y28487D01*
X53124Y28529D01*
X53050Y28544D01*
X52997Y28533D01*
X51465Y30065D01*
Y31188D01*
X51643D01*
X51704Y31201D01*
X51757Y31236D01*
X51792Y31288D01*
X51793Y31294D01*
X51847Y31310D01*
X51873Y31285D01*
X51902Y31265D01*
X51937Y31258D01*
X53128D01*
X53143Y31236D01*
X53196Y31201D01*
X53257Y31188D01*
X53796D01*
X53858Y31201D01*
X53911Y31236D01*
X53946Y31288D01*
X53958Y31350D01*
X53946Y31412D01*
X53911Y31464D01*
X53858Y31499D01*
X53796Y31512D01*
X53257D01*
X53196Y31499D01*
X53143Y31464D01*
X53128Y31442D01*
X51975D01*
X51718Y31699D01*
X51688Y31719D01*
X51653Y31726D01*
X50599D01*
X50367Y31958D01*
Y32223D01*
X49933D01*
Y32138D01*
X49564D01*
Y32245D01*
D02*
G37*
G36*
X31867Y33522D02*
X31433D01*
Y33127D01*
X31507D01*
Y32771D01*
X31441Y32705D01*
X31436Y32704D01*
X31382Y32667D01*
X31346Y32613D01*
X31333Y32549D01*
Y32063D01*
X31346Y31999D01*
X31382Y31945D01*
X31436Y31908D01*
X31500Y31896D01*
X31564Y31908D01*
X31618Y31945D01*
X31655Y31999D01*
X31667Y32063D01*
Y32528D01*
X31751Y32611D01*
X31782Y32658D01*
X31793Y32712D01*
X31793Y32712D01*
Y33127D01*
X31867D01*
Y33522D01*
D02*
G37*
G36*
X28917D02*
X28483D01*
Y33329D01*
X28299Y33145D01*
X28268Y33099D01*
X28257Y33044D01*
X28257Y33044D01*
Y32631D01*
X28245Y32613D01*
X28233Y32549D01*
Y32063D01*
X28245Y31999D01*
X28282Y31945D01*
X28336Y31908D01*
X28400Y31896D01*
X28464Y31908D01*
X28518Y31945D01*
X28554Y31999D01*
X28567Y32063D01*
Y32549D01*
X28554Y32613D01*
X28543Y32631D01*
Y32985D01*
X28685Y33127D01*
X28917D01*
Y33522D01*
D02*
G37*
G36*
X27400Y33194D02*
X27326Y33179D01*
X27263Y33137D01*
X27221Y33074D01*
X27206Y33000D01*
X27221Y32926D01*
X27257Y32872D01*
Y32631D01*
X27246Y32613D01*
X27233Y32549D01*
Y32063D01*
X27246Y31999D01*
X27282Y31945D01*
X27336Y31908D01*
X27400Y31896D01*
X27464Y31908D01*
X27518Y31945D01*
X27555Y31999D01*
X27567Y32063D01*
Y32549D01*
X27555Y32613D01*
X27543Y32631D01*
Y32872D01*
X27579Y32926D01*
X27594Y33000D01*
X27579Y33074D01*
X27537Y33137D01*
X27474Y33179D01*
X27400Y33194D01*
D02*
G37*
G36*
X32000Y32716D02*
X31936Y32704D01*
X31882Y32667D01*
X31846Y32613D01*
X31833Y32549D01*
Y32063D01*
X31846Y31999D01*
X31882Y31945D01*
X31936Y31908D01*
X32000Y31896D01*
X32064Y31908D01*
X32118Y31945D01*
X32155Y31999D01*
X32167Y32063D01*
Y32163D01*
X32485D01*
X32757Y31891D01*
Y31723D01*
X32683D01*
Y31328D01*
X33117D01*
Y31723D01*
X33043D01*
Y31950D01*
X33032Y32005D01*
X33001Y32051D01*
X33001Y32051D01*
X32645Y32407D01*
X32599Y32438D01*
X32544Y32449D01*
X32544Y32449D01*
X32167D01*
Y32549D01*
X32155Y32613D01*
X32118Y32667D01*
X32064Y32704D01*
X32000Y32716D01*
D02*
G37*
G36*
X25195Y31678D02*
X25093Y31665D01*
X24998Y31626D01*
X24917Y31563D01*
X24854Y31482D01*
X24815Y31387D01*
X24802Y31285D01*
X24815Y31183D01*
X24854Y31088D01*
X24917Y31007D01*
X24998Y30944D01*
X25093Y30905D01*
X25195Y30892D01*
X25297Y30905D01*
X25392Y30944D01*
X25473Y31007D01*
X25536Y31088D01*
X25575Y31183D01*
X25588Y31285D01*
X25575Y31387D01*
X25536Y31482D01*
X25473Y31563D01*
X25392Y31626D01*
X25297Y31665D01*
X25195Y31678D01*
D02*
G37*
G36*
X56300Y31094D02*
X56226Y31079D01*
X56163Y31037D01*
X56121Y30974D01*
X56106Y30900D01*
X56121Y30826D01*
X56163Y30763D01*
X56226Y30721D01*
X56300Y30706D01*
X56374Y30721D01*
X56437Y30763D01*
X56479Y30826D01*
X56494Y30900D01*
X56479Y30974D01*
X56437Y31037D01*
X56374Y31079D01*
X56300Y31094D01*
D02*
G37*
G36*
X29867Y31172D02*
X29433D01*
Y30979D01*
X29043Y30589D01*
X28968D01*
X28964Y30592D01*
X28900Y30604D01*
X28836Y30592D01*
X28782Y30555D01*
X28746Y30501D01*
X28733Y30437D01*
Y29951D01*
X28746Y29887D01*
X28782Y29833D01*
X28836Y29796D01*
X28900Y29784D01*
X28964Y29796D01*
X29018Y29833D01*
X29055Y29887D01*
X29067Y29951D01*
Y30271D01*
X29102Y30303D01*
X29157Y30314D01*
X29203Y30345D01*
X29635Y30777D01*
X29867D01*
Y31172D01*
D02*
G37*
G36*
X33117D02*
X32683D01*
Y30777D01*
X32721D01*
Y30711D01*
X32347Y30337D01*
X32167D01*
Y30437D01*
X32155Y30501D01*
X32118Y30555D01*
X32064Y30592D01*
X32000Y30604D01*
X31936Y30592D01*
X31882Y30555D01*
X31846Y30501D01*
X31833Y30437D01*
Y29951D01*
X31846Y29887D01*
X31882Y29833D01*
X31936Y29796D01*
X32000Y29784D01*
X32064Y29796D01*
X32118Y29833D01*
X32155Y29887D01*
X32167Y29951D01*
Y30051D01*
X32406D01*
X32406Y30051D01*
X32460Y30062D01*
X32507Y30093D01*
X32965Y30551D01*
X32965Y30551D01*
X32996Y30597D01*
X33006Y30652D01*
X33006Y30652D01*
Y30777D01*
X33117D01*
Y31172D01*
D02*
G37*
G36*
X48700Y30638D02*
X48626Y30624D01*
X48563Y30582D01*
X48521Y30519D01*
X48506Y30445D01*
X48521Y30370D01*
X48563Y30308D01*
X48626Y30266D01*
X48700Y30251D01*
X48774Y30266D01*
X48837Y30308D01*
X48879Y30370D01*
X48894Y30445D01*
X48879Y30519D01*
X48837Y30582D01*
X48774Y30624D01*
X48700Y30638D01*
D02*
G37*
G36*
X31000Y30604D02*
X30936Y30592D01*
X30882Y30555D01*
X30845Y30501D01*
X30833Y30437D01*
Y29951D01*
X30845Y29887D01*
X30857Y29869D01*
Y29495D01*
X30790D01*
Y29098D01*
X31210D01*
Y29495D01*
X31143D01*
Y29869D01*
X31154Y29887D01*
X31167Y29951D01*
Y30437D01*
X31154Y30501D01*
X31118Y30555D01*
X31064Y30592D01*
X31000Y30604D01*
D02*
G37*
G36*
X27900D02*
X27836Y30592D01*
X27782Y30555D01*
X27745Y30501D01*
X27733Y30437D01*
Y30286D01*
X27721Y30268D01*
X27706Y30194D01*
Y29495D01*
X27690D01*
Y29098D01*
X28110D01*
Y29495D01*
X28094D01*
Y30194D01*
X28079Y30268D01*
X28067Y30286D01*
Y30437D01*
X28054Y30501D01*
X28018Y30555D01*
X27964Y30592D01*
X27900Y30604D01*
D02*
G37*
G36*
X24605Y29705D02*
X23825D01*
Y28925D01*
X24605D01*
Y29705D01*
D02*
G37*
G36*
X26185Y29708D02*
X26083Y29695D01*
X25988Y29656D01*
X25907Y29593D01*
X25844Y29512D01*
X25805Y29417D01*
X25792Y29315D01*
X25805Y29213D01*
X25844Y29118D01*
X25907Y29037D01*
X25988Y28974D01*
X26083Y28935D01*
X26185Y28922D01*
X26287Y28935D01*
X26382Y28974D01*
X26463Y29037D01*
X26526Y29118D01*
X26565Y29213D01*
X26578Y29315D01*
X26565Y29417D01*
X26526Y29512D01*
X26463Y29593D01*
X26382Y29656D01*
X26287Y29695D01*
X26185Y29708D01*
D02*
G37*
G36*
X29265Y28904D02*
X29191Y28889D01*
X29128Y28847D01*
X29086Y28784D01*
X29082Y28763D01*
X29072D01*
X29037Y28757D01*
X29015Y28742D01*
X28110D01*
Y28902D01*
X27690D01*
Y28505D01*
X28110D01*
Y28558D01*
X29050D01*
X29085Y28565D01*
X29128Y28573D01*
X29191Y28531D01*
X29265Y28516D01*
X29339Y28531D01*
X29402Y28573D01*
X29444Y28636D01*
X29458Y28710D01*
X29444Y28784D01*
X29402Y28847D01*
X29339Y28889D01*
X29265Y28904D01*
D02*
G37*
G36*
X31210Y28902D02*
X30790D01*
Y28505D01*
X31080D01*
X31908Y27677D01*
Y27542D01*
X31858Y27522D01*
X31665Y27715D01*
X31635Y27735D01*
X31600Y27742D01*
X28950D01*
X28915Y27735D01*
X28885Y27715D01*
X28630Y27459D01*
X28629Y27460D01*
X28543Y27496D01*
X28450Y27508D01*
X28357Y27496D01*
X28271Y27460D01*
X28197Y27403D01*
X28140Y27329D01*
X28104Y27243D01*
X28092Y27150D01*
X28104Y27057D01*
X28140Y26971D01*
X28197Y26897D01*
X28271Y26840D01*
X28357Y26804D01*
X28450Y26792D01*
X28543Y26804D01*
X28629Y26840D01*
X28703Y26897D01*
X28760Y26971D01*
X28796Y27057D01*
X28808Y27150D01*
X28796Y27243D01*
X28760Y27329D01*
X28760Y27330D01*
X28988Y27558D01*
X31562D01*
X31758Y27362D01*
Y27261D01*
X31758Y27245D01*
X31756Y27198D01*
X31756Y27198D01*
X31756Y27198D01*
X31763Y27150D01*
X31756Y27102D01*
X31756Y27102D01*
X31756Y27102D01*
X31758Y27055D01*
X31758Y27039D01*
Y24409D01*
X31711Y24393D01*
X31703Y24403D01*
X31629Y24460D01*
X31543Y24496D01*
X31450Y24508D01*
X31357Y24496D01*
X31271Y24460D01*
X31197Y24403D01*
X31140Y24329D01*
X31104Y24243D01*
X31092Y24150D01*
X31104Y24057D01*
X31140Y23971D01*
X31197Y23897D01*
X31271Y23840D01*
X31357Y23804D01*
X31363Y23803D01*
Y21331D01*
X30808Y20775D01*
X30542D01*
Y23804D01*
X30543Y23804D01*
X30629Y23840D01*
X30703Y23897D01*
X30760Y23971D01*
X30796Y24057D01*
X30808Y24150D01*
X30796Y24243D01*
X30760Y24329D01*
X30703Y24403D01*
X30629Y24460D01*
X30543Y24496D01*
X30450Y24508D01*
X30357Y24496D01*
X30271Y24460D01*
X30197Y24403D01*
X30140Y24329D01*
X30104Y24243D01*
X30092Y24150D01*
X30104Y24057D01*
X30140Y23971D01*
X30197Y23897D01*
X30271Y23840D01*
X30357Y23804D01*
X30358Y23804D01*
Y20388D01*
X29845Y19875D01*
X29575D01*
Y19475D01*
X29887D01*
X29913Y19425D01*
X29908Y19417D01*
X28824D01*
X28600Y19641D01*
Y19709D01*
X28899Y20008D01*
X28975D01*
X29020Y20017D01*
X29058Y20042D01*
X29391Y20375D01*
X29625D01*
Y20775D01*
X29274D01*
X29225Y20825D01*
X29225Y20845D01*
X29585Y21205D01*
X29605Y21235D01*
X29612Y21270D01*
Y23833D01*
X29629Y23840D01*
X29703Y23897D01*
X29760Y23971D01*
X29796Y24057D01*
X29808Y24150D01*
X29796Y24243D01*
X29760Y24329D01*
X29703Y24403D01*
X29629Y24460D01*
X29543Y24496D01*
X29450Y24508D01*
X29357Y24496D01*
X29271Y24460D01*
X29197Y24403D01*
X29140Y24329D01*
X29104Y24243D01*
X29092Y24150D01*
X29104Y24057D01*
X29140Y23971D01*
X29197Y23897D01*
X29271Y23840D01*
X29357Y23804D01*
X29428Y23795D01*
Y22616D01*
X29378Y22590D01*
X29324Y22626D01*
X29230Y22645D01*
X29030D01*
X28936Y22626D01*
X28857Y22573D01*
X28804Y22494D01*
X28785Y22400D01*
X28804Y22306D01*
X28857Y22227D01*
X28936Y22174D01*
X29030Y22155D01*
X29230D01*
X29324Y22174D01*
X29378Y22210D01*
X29428Y22184D01*
Y21308D01*
X28895Y20775D01*
X28625D01*
Y20375D01*
X28988D01*
X29009Y20325D01*
X28926Y20242D01*
X28850D01*
X28805Y20233D01*
X28767Y20208D01*
X28434Y19875D01*
X28200D01*
Y19641D01*
X28050Y19491D01*
X28000Y19512D01*
Y19745D01*
X28015Y19760D01*
X28035Y19790D01*
X28042Y19825D01*
Y22184D01*
X28092Y22210D01*
X28146Y22174D01*
X28240Y22155D01*
X28440D01*
X28534Y22174D01*
X28613Y22227D01*
X28666Y22306D01*
X28685Y22400D01*
X28666Y22494D01*
X28613Y22573D01*
X28534Y22626D01*
X28440Y22645D01*
X28240D01*
X28146Y22626D01*
X28092Y22590D01*
X28042Y22616D01*
Y22945D01*
X28515Y23418D01*
X28535Y23448D01*
X28542Y23483D01*
Y23804D01*
X28543Y23804D01*
X28629Y23840D01*
X28703Y23897D01*
X28760Y23971D01*
X28796Y24057D01*
X28808Y24150D01*
X28796Y24243D01*
X28760Y24329D01*
X28703Y24403D01*
X28629Y24460D01*
X28543Y24496D01*
X28450Y24508D01*
X28357Y24496D01*
X28271Y24460D01*
X28197Y24403D01*
X28140Y24329D01*
X28104Y24243D01*
X28092Y24150D01*
X28104Y24057D01*
X28140Y23971D01*
X28197Y23897D01*
X28271Y23840D01*
X28357Y23804D01*
X28358Y23804D01*
Y23521D01*
X27885Y23048D01*
X27865Y23018D01*
X27858Y22983D01*
Y22603D01*
X27808Y22583D01*
X27744Y22626D01*
X27650Y22645D01*
X27450D01*
X27356Y22626D01*
X27302Y22590D01*
X27252Y22616D01*
Y22960D01*
X27515Y23223D01*
X27535Y23253D01*
X27542Y23288D01*
Y23804D01*
X27543Y23804D01*
X27629Y23840D01*
X27703Y23897D01*
X27760Y23971D01*
X27796Y24057D01*
X27808Y24150D01*
X27796Y24243D01*
X27760Y24329D01*
X27703Y24403D01*
X27629Y24460D01*
X27543Y24496D01*
X27450Y24508D01*
X27357Y24496D01*
X27271Y24460D01*
X27197Y24403D01*
X27140Y24329D01*
X27104Y24243D01*
X27092Y24150D01*
X27104Y24057D01*
X27140Y23971D01*
X27197Y23897D01*
X27271Y23840D01*
X27357Y23804D01*
X27358Y23804D01*
Y23326D01*
X27095Y23063D01*
X27075Y23033D01*
X27068Y22998D01*
Y22603D01*
X27018Y22583D01*
X26954Y22626D01*
X26860Y22645D01*
X26660D01*
X26566Y22626D01*
X26487Y22573D01*
X26434Y22494D01*
X26415Y22400D01*
X26434Y22306D01*
X26487Y22227D01*
X26566Y22174D01*
X26660Y22155D01*
X26860D01*
X26954Y22174D01*
X27018Y22217D01*
X27068Y22197D01*
Y21914D01*
X27072Y21895D01*
Y20864D01*
X26983Y20775D01*
X26713D01*
Y20375D01*
X27076D01*
X27097Y20325D01*
X27014Y20242D01*
X26875D01*
X26830Y20233D01*
X26792Y20208D01*
X26459Y19875D01*
X26225D01*
Y19641D01*
X26075Y19491D01*
X26025Y19512D01*
Y19875D01*
X25992D01*
Y21100D01*
X25985Y21135D01*
X25965Y21165D01*
X25542Y21588D01*
Y23062D01*
X26305Y23826D01*
X26357Y23804D01*
X26450Y23792D01*
X26543Y23804D01*
X26629Y23840D01*
X26703Y23897D01*
X26760Y23971D01*
X26796Y24057D01*
X26808Y24150D01*
X26796Y24243D01*
X26760Y24329D01*
X26703Y24403D01*
X26629Y24460D01*
X26543Y24496D01*
X26450Y24508D01*
X26357Y24496D01*
X26271Y24460D01*
X26197Y24403D01*
X26140Y24329D01*
X26104Y24243D01*
X26092Y24150D01*
X26104Y24057D01*
X26140Y23971D01*
X26162Y23942D01*
X25385Y23165D01*
X25365Y23135D01*
X25358Y23100D01*
Y21550D01*
X25365Y21515D01*
X25385Y21485D01*
X25808Y21062D01*
Y20822D01*
X25800Y20775D01*
X25758Y20775D01*
X25400D01*
Y20541D01*
X25250Y20391D01*
X25200Y20412D01*
Y20775D01*
X25092D01*
Y23662D01*
X25270Y23840D01*
X25271Y23840D01*
X25357Y23804D01*
X25450Y23792D01*
X25543Y23804D01*
X25629Y23840D01*
X25703Y23897D01*
X25760Y23971D01*
X25796Y24057D01*
X25808Y24150D01*
X25796Y24243D01*
X25760Y24329D01*
X25703Y24403D01*
X25629Y24460D01*
X25543Y24496D01*
X25450Y24508D01*
X25357Y24496D01*
X25271Y24460D01*
X25197Y24403D01*
X25140Y24329D01*
X25104Y24243D01*
X25092Y24150D01*
X25104Y24057D01*
X25140Y23971D01*
X25141Y23970D01*
X24935Y23765D01*
X24915Y23735D01*
X24908Y23700D01*
Y20775D01*
X24800D01*
Y20375D01*
X25163D01*
X25184Y20325D01*
X25101Y20242D01*
X24900D01*
X24855Y20233D01*
X24817Y20208D01*
X24484Y19875D01*
X24299D01*
X24250Y19925D01*
X24250Y19945D01*
X24515Y20210D01*
X24535Y20240D01*
X24542Y20275D01*
Y23804D01*
X24543Y23804D01*
X24629Y23840D01*
X24703Y23897D01*
X24760Y23971D01*
X24796Y24057D01*
X24808Y24150D01*
X24796Y24243D01*
X24760Y24329D01*
X24703Y24403D01*
X24629Y24460D01*
X24543Y24496D01*
X24450Y24508D01*
X24357Y24496D01*
X24271Y24460D01*
X24197Y24403D01*
X24140Y24329D01*
X24104Y24243D01*
X24092Y24150D01*
X24104Y24057D01*
X24140Y23971D01*
X24197Y23897D01*
X24271Y23840D01*
X24357Y23804D01*
X24358Y23804D01*
Y20313D01*
X23920Y19875D01*
X23667D01*
X23650Y19875D01*
X23617Y19911D01*
Y24501D01*
X23799Y24683D01*
X28300D01*
X28345Y24692D01*
X28383Y24717D01*
X29002Y25336D01*
X29593D01*
Y25255D01*
X30013D01*
Y25336D01*
X30941D01*
Y25255D01*
X31361D01*
Y25652D01*
X30941D01*
Y25571D01*
X30013D01*
Y25652D01*
X29593D01*
Y25571D01*
X28953D01*
X28909Y25562D01*
X28871Y25536D01*
X28251Y24917D01*
X23750D01*
X23705Y24908D01*
X23667Y24883D01*
X23417Y24633D01*
X23392Y24595D01*
X23383Y24550D01*
Y19188D01*
X23392Y19143D01*
X23417Y19105D01*
X23505Y19017D01*
X23543Y18992D01*
X23588Y18983D01*
X23875D01*
X23920Y18992D01*
X23958Y19017D01*
X24416Y19475D01*
X24484D01*
X24792Y19167D01*
X24830Y19142D01*
X24875Y19133D01*
X26000D01*
X26045Y19142D01*
X26083Y19167D01*
X26391Y19475D01*
X26459D01*
X26767Y19167D01*
X26805Y19142D01*
X26850Y19133D01*
X27975D01*
X28020Y19142D01*
X28058Y19167D01*
X28366Y19475D01*
X28434D01*
X28692Y19217D01*
X28730Y19192D01*
X28775Y19183D01*
X30000D01*
X30045Y19192D01*
X30083Y19217D01*
X30341Y19475D01*
X30409D01*
X30717Y19167D01*
X30755Y19142D01*
X30800Y19133D01*
X31950D01*
X31995Y19142D01*
X32033Y19167D01*
X32341Y19475D01*
X32550D01*
Y19709D01*
X33216Y20375D01*
X33450D01*
Y20775D01*
X33050D01*
Y20541D01*
X32900Y20391D01*
X32850Y20412D01*
Y20775D01*
X32742D01*
Y21835D01*
X33765Y22858D01*
X33785Y22888D01*
X33792Y22923D01*
Y25900D01*
X33785Y25935D01*
X33765Y25965D01*
X32805Y26925D01*
Y27505D01*
X32095D01*
X32092Y27554D01*
Y27715D01*
X32085Y27750D01*
X32065Y27780D01*
X31335Y28510D01*
X31354Y28556D01*
X31783D01*
X31813Y28511D01*
X31876Y28469D01*
X31950Y28454D01*
X32024Y28469D01*
X32087Y28511D01*
X32129Y28574D01*
X32144Y28648D01*
X32129Y28722D01*
X32087Y28785D01*
X32024Y28827D01*
X31950Y28842D01*
X31876Y28827D01*
X31813Y28785D01*
X31783Y28740D01*
X31210D01*
Y28902D01*
D02*
G37*
G36*
X30450Y27508D02*
X30357Y27496D01*
X30271Y27460D01*
X30197Y27403D01*
X30140Y27329D01*
X30104Y27243D01*
X30092Y27150D01*
X30104Y27057D01*
X30140Y26971D01*
X30197Y26897D01*
X30271Y26840D01*
X30357Y26804D01*
X30450Y26792D01*
X30543Y26804D01*
X30604Y26830D01*
X31034Y26400D01*
Y26245D01*
X30941D01*
Y26164D01*
X30013D01*
Y26245D01*
X29593D01*
Y26164D01*
X29147D01*
X29102Y26155D01*
X29064Y26129D01*
X28779Y25844D01*
X28713D01*
X28664Y25848D01*
X28664Y25894D01*
Y26245D01*
X28244D01*
Y26138D01*
X27404D01*
X27385Y26185D01*
X27515Y26315D01*
X27535Y26344D01*
X27542Y26380D01*
Y26804D01*
X27543Y26804D01*
X27629Y26840D01*
X27703Y26897D01*
X27760Y26971D01*
X27796Y27057D01*
X27808Y27150D01*
X27796Y27243D01*
X27760Y27329D01*
X27703Y27403D01*
X27629Y27460D01*
X27543Y27496D01*
X27450Y27508D01*
X27357Y27496D01*
X27271Y27460D01*
X27197Y27403D01*
X27140Y27329D01*
X27104Y27243D01*
X27092Y27150D01*
X27104Y27057D01*
X27140Y26971D01*
X27197Y26897D01*
X27271Y26840D01*
X27357Y26804D01*
X27358Y26804D01*
Y26418D01*
X27186Y26245D01*
X26896D01*
Y25848D01*
X27316D01*
Y25955D01*
X28209D01*
X28244Y25919D01*
Y25890D01*
X28237Y25846D01*
X28199Y25837D01*
X28192Y25836D01*
X28154Y25810D01*
X27914Y25571D01*
X27316D01*
Y25652D01*
X26896D01*
Y25571D01*
X26297D01*
X26033Y25835D01*
X25995Y25860D01*
X25967Y25866D01*
Y26116D01*
X26452Y26600D01*
X26472Y26630D01*
X26479Y26665D01*
Y26796D01*
X26543Y26804D01*
X26629Y26840D01*
X26703Y26897D01*
X26760Y26971D01*
X26796Y27057D01*
X26808Y27150D01*
X26796Y27243D01*
X26760Y27329D01*
X26703Y27403D01*
X26629Y27460D01*
X26543Y27496D01*
X26450Y27508D01*
X26357Y27496D01*
X26271Y27460D01*
X26197Y27403D01*
X26140Y27329D01*
X26104Y27243D01*
X26092Y27150D01*
X26104Y27057D01*
X26140Y26971D01*
X26197Y26897D01*
X26271Y26840D01*
X26295Y26830D01*
Y26703D01*
X25837Y26245D01*
X25547D01*
Y25940D01*
X25497Y25919D01*
X25283Y26133D01*
X25245Y26158D01*
X25200Y26167D01*
X24667D01*
Y26195D01*
X24644D01*
Y26851D01*
X24703Y26897D01*
X24760Y26971D01*
X24796Y27057D01*
X24808Y27150D01*
X24796Y27243D01*
X24760Y27329D01*
X24703Y27403D01*
X24629Y27460D01*
X24543Y27496D01*
X24450Y27508D01*
X24357Y27496D01*
X24271Y27460D01*
X24197Y27403D01*
X24140Y27329D01*
X24104Y27243D01*
X24092Y27150D01*
X24104Y27057D01*
X24140Y26971D01*
X24197Y26897D01*
X24256Y26851D01*
Y26195D01*
X24233D01*
Y25800D01*
X24667D01*
Y25933D01*
X25151D01*
X25415Y25669D01*
X25453Y25643D01*
X25498Y25634D01*
X25902D01*
X26166Y25371D01*
X26204Y25345D01*
X26248Y25336D01*
X26896D01*
Y25255D01*
X27316D01*
Y25336D01*
X27963D01*
X28008Y25345D01*
X28046Y25371D01*
X28285Y25610D01*
X28827D01*
X28872Y25619D01*
X28910Y25644D01*
X29195Y25929D01*
X29593D01*
Y25848D01*
X30013D01*
Y25929D01*
X30941D01*
Y25848D01*
X31361D01*
Y26245D01*
X31269D01*
Y26449D01*
X31260Y26493D01*
X31234Y26532D01*
X30770Y26996D01*
X30796Y27057D01*
X30808Y27150D01*
X30796Y27243D01*
X30760Y27329D01*
X30703Y27403D01*
X30629Y27460D01*
X30543Y27496D01*
X30450Y27508D01*
D02*
G37*
%LPD*%
G36*
X39309Y34112D02*
X39276Y34074D01*
X39249Y34094D01*
X39153Y34134D01*
X39050Y34148D01*
X38947Y34134D01*
X38942Y34132D01*
X37187Y35887D01*
X37155Y35908D01*
X37170Y35958D01*
X37462D01*
X39309Y34112D01*
D02*
G37*
G36*
X36388Y32504D02*
X36416Y32497D01*
X36443Y32456D01*
X36946Y31953D01*
X36926Y31903D01*
X36249D01*
X35712Y32440D01*
X35716Y32456D01*
X35769Y32469D01*
X35851Y32406D01*
X35947Y32366D01*
X36050Y32352D01*
X36153Y32366D01*
X36249Y32406D01*
X36331Y32469D01*
X36360Y32507D01*
X36388Y32504D01*
D02*
G37*
G36*
X56440Y32032D02*
Y31912D01*
X56394Y31893D01*
X56259Y32028D01*
X56229Y32048D01*
X56194Y32055D01*
X55989D01*
Y32162D01*
X55569D01*
Y31764D01*
X55989D01*
Y31871D01*
X56156D01*
X56392Y31635D01*
X56422Y31615D01*
X56428Y31614D01*
X56440Y31569D01*
X56440Y31569D01*
X56440D01*
X56440Y31569D01*
Y31462D01*
X55989D01*
Y31569D01*
X55569D01*
Y31462D01*
X55167D01*
Y31610D01*
X54863D01*
X54756Y31716D01*
X54777Y31767D01*
X55167D01*
Y32032D01*
X55394Y32258D01*
X56214D01*
X56440Y32032D01*
D02*
G37*
G36*
X54310Y25667D02*
Y25305D01*
X54731D01*
Y25386D01*
X55373D01*
Y25305D01*
X55793D01*
Y25386D01*
X57448D01*
X57733Y25101D01*
Y21624D01*
X56884Y20775D01*
X56650D01*
X56615Y20811D01*
X57315Y21510D01*
X57335Y21540D01*
X57342Y21575D01*
Y23804D01*
X57343Y23804D01*
X57429Y23840D01*
X57503Y23897D01*
X57560Y23971D01*
X57596Y24057D01*
X57608Y24150D01*
X57596Y24243D01*
X57560Y24329D01*
X57503Y24403D01*
X57429Y24460D01*
X57343Y24496D01*
X57250Y24508D01*
X57157Y24496D01*
X57071Y24460D01*
X56997Y24403D01*
X56940Y24329D01*
X56904Y24243D01*
X56892Y24150D01*
X56904Y24057D01*
X56940Y23971D01*
X56997Y23897D01*
X57071Y23840D01*
X57157Y23804D01*
X57158Y23804D01*
Y21613D01*
X56320Y20775D01*
X56162D01*
X56143Y20821D01*
X56315Y20993D01*
X56335Y21023D01*
X56342Y21058D01*
Y23804D01*
X56343Y23804D01*
X56429Y23840D01*
X56503Y23897D01*
X56560Y23971D01*
X56596Y24057D01*
X56608Y24150D01*
X56596Y24243D01*
X56560Y24329D01*
X56503Y24403D01*
X56429Y24460D01*
X56343Y24496D01*
X56250Y24508D01*
X56157Y24496D01*
X56071Y24460D01*
X55997Y24403D01*
X55940Y24329D01*
X55904Y24243D01*
X55892Y24150D01*
X55904Y24057D01*
X55940Y23971D01*
X55997Y23897D01*
X56071Y23840D01*
X56157Y23804D01*
X56158Y23804D01*
Y21096D01*
X55700Y20638D01*
X55681Y20608D01*
X55674Y20573D01*
Y20191D01*
X55358Y19875D01*
X55087D01*
Y19475D01*
X55451D01*
X55472Y19425D01*
X55314Y19267D01*
X54549D01*
X54175Y19641D01*
Y19709D01*
X54841Y20375D01*
X55062D01*
Y20775D01*
X54663D01*
X54628Y20811D01*
X54768Y20951D01*
X54893D01*
X54928Y20958D01*
X54957Y20978D01*
X55315Y21335D01*
X55335Y21365D01*
X55342Y21400D01*
Y22197D01*
X55392Y22217D01*
X55456Y22174D01*
X55550Y22155D01*
X55750D01*
X55844Y22174D01*
X55923Y22227D01*
X55976Y22306D01*
X55995Y22400D01*
X55976Y22494D01*
X55923Y22573D01*
X55844Y22626D01*
X55750Y22645D01*
X55550D01*
X55456Y22626D01*
X55392Y22583D01*
X55342Y22603D01*
Y23804D01*
X55343Y23804D01*
X55429Y23840D01*
X55503Y23897D01*
X55560Y23971D01*
X55596Y24057D01*
X55608Y24150D01*
X55596Y24243D01*
X55560Y24329D01*
X55503Y24403D01*
X55429Y24460D01*
X55343Y24496D01*
X55250Y24508D01*
X55157Y24496D01*
X55071Y24460D01*
X54997Y24403D01*
X54940Y24329D01*
X54904Y24243D01*
X54892Y24150D01*
X54904Y24057D01*
X54940Y23971D01*
X54997Y23897D01*
X55071Y23840D01*
X55157Y23804D01*
X55158Y23804D01*
Y22616D01*
X55108Y22590D01*
X55054Y22626D01*
X54960Y22645D01*
X54760D01*
X54666Y22626D01*
X54602Y22583D01*
X54552Y22603D01*
Y23038D01*
X54545Y23073D01*
X54525Y23103D01*
X54342Y23286D01*
Y23804D01*
X54343Y23804D01*
X54429Y23840D01*
X54503Y23897D01*
X54560Y23971D01*
X54596Y24057D01*
X54608Y24150D01*
X54596Y24243D01*
X54560Y24329D01*
X54503Y24403D01*
X54429Y24460D01*
X54343Y24496D01*
X54250Y24508D01*
X54157Y24496D01*
X54071Y24460D01*
X53997Y24403D01*
X53940Y24329D01*
X53904Y24243D01*
X53892Y24150D01*
X53904Y24057D01*
X53940Y23971D01*
X53997Y23897D01*
X54071Y23840D01*
X54157Y23804D01*
X54158Y23804D01*
Y23248D01*
X54165Y23213D01*
X54185Y23183D01*
X54368Y23000D01*
Y22616D01*
X54318Y22590D01*
X54264Y22626D01*
X54170Y22645D01*
X53970D01*
X53876Y22626D01*
X53797Y22573D01*
X53744Y22494D01*
X53725Y22400D01*
X53744Y22306D01*
X53797Y22227D01*
X53876Y22174D01*
X53970Y22155D01*
X54170D01*
X54264Y22174D01*
X54318Y22210D01*
X54368Y22184D01*
Y21348D01*
X53310Y20290D01*
X53290Y20260D01*
X53283Y20225D01*
Y19875D01*
X53175D01*
Y19475D01*
X53538D01*
X53559Y19425D01*
X53401Y19267D01*
X52636D01*
X52263Y19641D01*
Y19709D01*
X52873Y20320D01*
X52898Y20358D01*
X52902Y20375D01*
X53075D01*
Y20775D01*
X52725D01*
X52675Y20775D01*
X52640Y20811D01*
X52955Y21125D01*
X52975Y21155D01*
X52982Y21190D01*
Y22184D01*
X53032Y22210D01*
X53086Y22174D01*
X53180Y22155D01*
X53380D01*
X53474Y22174D01*
X53553Y22227D01*
X53606Y22306D01*
X53625Y22400D01*
X53606Y22494D01*
X53553Y22573D01*
X53474Y22626D01*
X53380Y22645D01*
X53180D01*
X53086Y22626D01*
X53032Y22590D01*
X52982Y22616D01*
Y22985D01*
X53315Y23318D01*
X53335Y23348D01*
X53342Y23383D01*
Y23804D01*
X53343Y23804D01*
X53429Y23840D01*
X53503Y23897D01*
X53560Y23971D01*
X53596Y24057D01*
X53608Y24150D01*
X53596Y24243D01*
X53560Y24329D01*
X53503Y24403D01*
X53429Y24460D01*
X53343Y24496D01*
X53250Y24508D01*
X53157Y24496D01*
X53071Y24460D01*
X52997Y24403D01*
X52940Y24329D01*
X52904Y24243D01*
X52892Y24150D01*
X52904Y24057D01*
X52940Y23971D01*
X52997Y23897D01*
X53071Y23840D01*
X53157Y23804D01*
X53158Y23804D01*
Y23421D01*
X52825Y23088D01*
X52805Y23058D01*
X52798Y23023D01*
Y21228D01*
X52345Y20775D01*
X52075D01*
Y20375D01*
X52475D01*
Y20645D01*
X52639Y20810D01*
X52675Y20775D01*
X52675Y20725D01*
Y20501D01*
X52673Y20490D01*
Y20451D01*
X52097Y19875D01*
X51863D01*
X51828Y19911D01*
X51925Y20008D01*
X51945Y20038D01*
X51952Y20073D01*
Y22360D01*
X52315Y22722D01*
X52335Y22752D01*
X52342Y22787D01*
Y23804D01*
X52343Y23804D01*
X52429Y23840D01*
X52503Y23897D01*
X52560Y23971D01*
X52596Y24057D01*
X52608Y24150D01*
X52596Y24243D01*
X52560Y24329D01*
X52503Y24403D01*
X52429Y24460D01*
X52343Y24496D01*
X52250Y24508D01*
X52157Y24496D01*
X52071Y24460D01*
X51997Y24403D01*
X51940Y24329D01*
X51904Y24243D01*
X51892Y24150D01*
X51904Y24057D01*
X51940Y23971D01*
X51997Y23897D01*
X52071Y23840D01*
X52157Y23804D01*
X52158Y23804D01*
Y22825D01*
X51796Y22463D01*
X51776Y22433D01*
X51769Y22398D01*
Y20111D01*
X51533Y19875D01*
X51262D01*
Y19475D01*
X51626D01*
X51647Y19425D01*
X51489Y19267D01*
X50724D01*
X50350Y19641D01*
Y19709D01*
X50885Y20245D01*
X50911Y20283D01*
X50920Y20327D01*
Y20375D01*
X51087D01*
Y20775D01*
X50688D01*
X50653Y20811D01*
X51315Y21473D01*
X51335Y21502D01*
X51342Y21537D01*
Y23804D01*
X51343Y23804D01*
X51429Y23840D01*
X51503Y23897D01*
X51560Y23971D01*
X51596Y24057D01*
X51608Y24150D01*
X51596Y24243D01*
X51560Y24329D01*
X51503Y24403D01*
X51429Y24460D01*
X51343Y24496D01*
X51250Y24508D01*
X51157Y24496D01*
X51071Y24460D01*
X50997Y24403D01*
X50940Y24329D01*
X50904Y24243D01*
X50892Y24150D01*
X50904Y24057D01*
X50940Y23971D01*
X50997Y23897D01*
X51071Y23840D01*
X51157Y23804D01*
X51158Y23804D01*
Y21576D01*
X50358Y20775D01*
X50129D01*
Y20844D01*
X50135Y20853D01*
X50142Y20888D01*
Y23245D01*
X50145Y23247D01*
X50195Y23221D01*
Y22645D01*
X50975D01*
Y23425D01*
X50677D01*
Y23734D01*
X50745Y23802D01*
X50765Y23831D01*
X50772Y23867D01*
Y25106D01*
X50765Y25141D01*
X50745Y25171D01*
X50481Y25434D01*
Y25683D01*
X52039D01*
X52186Y25536D01*
Y25305D01*
X52606D01*
Y25536D01*
X52752Y25683D01*
X54213D01*
X54257Y25692D01*
X54260Y25694D01*
X54310Y25667D01*
D02*
G37*
G36*
X48894Y27166D02*
X48892Y27150D01*
X48904Y27057D01*
X48940Y26971D01*
X48997Y26897D01*
X49071Y26840D01*
X49133Y26814D01*
Y26245D01*
X49033D01*
Y25850D01*
X49467D01*
Y25930D01*
X49604D01*
X49817Y25717D01*
X49855Y25692D01*
X49900Y25683D01*
X50061D01*
Y25305D01*
X50351D01*
X50588Y25068D01*
Y24374D01*
X50538Y24358D01*
X50503Y24403D01*
X50429Y24460D01*
X50343Y24496D01*
X50250Y24508D01*
X50157Y24496D01*
X50071Y24460D01*
X49997Y24403D01*
X49940Y24329D01*
X49904Y24243D01*
X49892Y24150D01*
X49904Y24057D01*
X49940Y23971D01*
X49997Y23897D01*
X50071Y23840D01*
X50157Y23804D01*
X50158Y23804D01*
Y23565D01*
X49985Y23392D01*
X49965Y23362D01*
X49958Y23327D01*
Y21327D01*
X49908Y21310D01*
X49883Y21343D01*
X49802Y21406D01*
X49797Y21408D01*
Y24328D01*
X49788Y24373D01*
X49763Y24411D01*
X48567Y25607D01*
Y26909D01*
X48847Y27189D01*
X48894Y27166D01*
D02*
G37*
G36*
X54666Y22174D02*
X54760Y22155D01*
X54960D01*
X55054Y22174D01*
X55108Y22210D01*
X55158Y22184D01*
Y21438D01*
X54854Y21134D01*
X54730D01*
X54695Y21127D01*
X54665Y21107D01*
X54333Y20775D01*
X54125D01*
X54105Y20825D01*
X54525Y21245D01*
X54545Y21275D01*
X54552Y21310D01*
Y22197D01*
X54602Y22217D01*
X54666Y22174D01*
D02*
G37*
G36*
X50687Y20775D02*
Y20501D01*
X50685Y20490D01*
Y20376D01*
X50184Y19875D01*
X49950D01*
X49915Y19911D01*
X50102Y20098D01*
X50122Y20127D01*
X50129Y20162D01*
Y20375D01*
X50487D01*
Y20645D01*
X50652Y20810D01*
X50687Y20775D01*
D02*
G37*
G36*
X54062Y20712D02*
Y20375D01*
X54438D01*
X54459Y20325D01*
X54009Y19875D01*
X53775D01*
Y19641D01*
X53625Y19491D01*
X53575Y19512D01*
Y19875D01*
X53467D01*
Y20187D01*
X54012Y20733D01*
X54062Y20712D01*
D02*
G37*
G36*
X49563Y23892D02*
Y21453D01*
X49503Y21445D01*
X49408Y21406D01*
X49327Y21343D01*
X49264Y21262D01*
X49225Y21167D01*
X49212Y21065D01*
X49225Y20963D01*
X49264Y20868D01*
X49327Y20787D01*
X49408Y20724D01*
X49503Y20685D01*
X49605Y20672D01*
X49707Y20685D01*
X49802Y20724D01*
X49883Y20787D01*
X49896Y20803D01*
X49946Y20786D01*
Y20201D01*
X49620Y19875D01*
X49350D01*
Y19475D01*
X49750D01*
Y19745D01*
X49914Y19910D01*
X49950Y19875D01*
Y19475D01*
X50011D01*
Y19286D01*
X49991Y19267D01*
X49036D01*
X49017Y19286D01*
Y20375D01*
X49100D01*
Y20775D01*
X48749D01*
X48700Y20825D01*
X48700Y20845D01*
X49315Y21460D01*
X49335Y21490D01*
X49342Y21525D01*
Y23804D01*
X49343Y23804D01*
X49429Y23840D01*
X49503Y23897D01*
X49513Y23909D01*
X49563Y23892D01*
D02*
G37*
G36*
X49933Y31828D02*
X50237D01*
X50344Y31722D01*
X50323Y31672D01*
X49933D01*
Y31387D01*
X49738Y31192D01*
X49001D01*
X48810Y31383D01*
Y31652D01*
X48858Y31658D01*
X49008D01*
X49144Y31522D01*
Y31255D01*
X49564D01*
Y31652D01*
X49274D01*
X49117Y31809D01*
X49149Y31848D01*
X49564D01*
Y31955D01*
X49933D01*
Y31828D01*
D02*
G37*
G36*
X33608Y25862D02*
Y22961D01*
X33421Y22774D01*
X33375Y22793D01*
Y23425D01*
X32947D01*
Y24318D01*
X32940Y24353D01*
X32920Y24383D01*
X32592Y24711D01*
Y25255D01*
X32710D01*
Y25652D01*
X32290D01*
Y25255D01*
X32408D01*
Y24673D01*
X32415Y24638D01*
X32435Y24608D01*
X32490Y24553D01*
X32466Y24506D01*
X32450Y24508D01*
X32357Y24496D01*
X32271Y24460D01*
X32197Y24403D01*
X32140Y24329D01*
X32104Y24243D01*
X32092Y24150D01*
X32104Y24057D01*
X32140Y23971D01*
X32197Y23897D01*
X32271Y23840D01*
X32357Y23804D01*
X32358Y23804D01*
Y21327D01*
X32308Y21310D01*
X32283Y21343D01*
X32202Y21406D01*
X32107Y21445D01*
X32005Y21458D01*
X31979Y21455D01*
X31942Y21488D01*
Y24087D01*
X31941Y24089D01*
X31949Y24150D01*
X31941Y24211D01*
X31942Y24213D01*
Y26613D01*
X31988Y26632D01*
X32325Y26295D01*
X32304Y26245D01*
X32290D01*
Y25848D01*
X32710D01*
Y26245D01*
X32545D01*
Y26297D01*
X32538Y26332D01*
X32518Y26362D01*
X32135Y26745D01*
X32155Y26795D01*
X32675D01*
X33608Y25862D01*
D02*
G37*
G36*
X27858Y22197D02*
Y19875D01*
X27600D01*
Y19475D01*
X27963D01*
X27984Y19425D01*
X27926Y19367D01*
X26899D01*
X26625Y19641D01*
Y19709D01*
X26924Y20008D01*
X27062D01*
X27107Y20017D01*
X27145Y20042D01*
X27478Y20375D01*
X27713D01*
Y20775D01*
X27313D01*
Y20541D01*
X27162Y20391D01*
X27113Y20412D01*
Y20645D01*
X27229Y20762D01*
X27249Y20791D01*
X27256Y20826D01*
Y21910D01*
X27252Y21930D01*
Y22184D01*
X27302Y22210D01*
X27356Y22174D01*
X27450Y22155D01*
X27650D01*
X27744Y22174D01*
X27808Y22217D01*
X27858Y22197D01*
D02*
G37*
G36*
X32763Y23893D02*
Y23425D01*
X32595D01*
Y22645D01*
X33227D01*
X33246Y22599D01*
X32592Y21944D01*
X32565Y21949D01*
X32542Y21963D01*
Y23804D01*
X32543Y23804D01*
X32629Y23840D01*
X32703Y23897D01*
X32713Y23910D01*
X32763Y23893D01*
D02*
G37*
G36*
X31758Y23891D02*
Y21367D01*
X31727Y21343D01*
X31664Y21262D01*
X31625Y21167D01*
X31612Y21065D01*
X31625Y20963D01*
X31664Y20868D01*
X31727Y20787D01*
X31808Y20724D01*
X31903Y20685D01*
X32005Y20672D01*
X32107Y20685D01*
X32116Y20689D01*
X32144Y20647D01*
X32088Y20590D01*
X32068Y20560D01*
X32061Y20525D01*
Y20116D01*
X31820Y19875D01*
X31550D01*
Y19475D01*
X31938D01*
X31966Y19431D01*
X31901Y19367D01*
X30849D01*
X30575Y19641D01*
Y19709D01*
X31239Y20373D01*
X31253D01*
X31264Y20375D01*
X31537D01*
Y20775D01*
X31138D01*
X31103Y20811D01*
X31520Y21228D01*
X31540Y21257D01*
X31547Y21293D01*
Y23806D01*
X31629Y23840D01*
X31703Y23897D01*
X31711Y23907D01*
X31758Y23891D01*
D02*
G37*
G36*
X25800Y20375D02*
X25808Y20328D01*
Y19875D01*
X25625D01*
Y19475D01*
X25988D01*
X26009Y19425D01*
X25951Y19367D01*
X24924D01*
X24650Y19641D01*
Y19709D01*
X24949Y20008D01*
X25150D01*
X25195Y20017D01*
X25233Y20042D01*
X25566Y20375D01*
X25800Y20375D01*
D02*
G37*
D10*
X31850Y27087D02*
G03*
X31850Y27213I-400J63D01*
G01*
Y24087D02*
G03*
X31850Y24213I-400J63D01*
G01*
X47540Y32088D02*
Y33348D01*
X48589Y34396D01*
X47650Y32000D02*
X48300Y32650D01*
X47650Y30250D02*
Y32000D01*
Y30250D02*
X49850Y28050D01*
X47510Y32058D02*
X47540Y32088D01*
X47510Y30090D02*
Y32058D01*
Y30090D02*
X49480Y28120D01*
X37500Y36050D02*
X39542Y34008D01*
X30100Y36050D02*
X37500D01*
X33040Y40060D02*
X35050Y38050D01*
Y36550D02*
Y38050D01*
X34700Y36550D02*
Y38202D01*
X32900Y40002D02*
X34700Y38202D01*
X28950Y37200D02*
Y38550D01*
Y37200D02*
X30100Y36050D01*
X32900Y40002D02*
Y41200D01*
X33040Y40060D02*
Y41142D01*
X35150Y43252D01*
X32900Y41200D02*
X35010Y43310D01*
X31745Y48955D02*
Y49405D01*
X35010Y43310D02*
Y45492D01*
X35150Y43252D02*
Y45550D01*
X31745Y48955D02*
X35150Y45550D01*
X31155Y49347D02*
Y49395D01*
Y49347D02*
X35010Y45492D01*
X26700Y42700D02*
X27350Y43350D01*
Y51300D01*
X43950Y34750D02*
X46000Y32700D01*
X46650D01*
X43000Y34750D02*
X43950D01*
X46650Y32700D02*
X47180Y33230D01*
X29227Y28672D02*
X29265Y28710D01*
X29072Y28672D02*
X29227D01*
X29050Y28650D02*
X29072Y28672D01*
X28950Y27650D02*
X31600D01*
X28450Y27150D02*
X28950Y27650D01*
X39542Y33458D02*
Y34008D01*
X39750Y33250D02*
X40550D01*
X39542Y33458D02*
X39750Y33250D01*
X40550D02*
X41050Y33750D01*
X31141Y28648D02*
X31950D01*
X31098Y28605D02*
X31141Y28648D01*
X40128Y32200D02*
X40550Y32622D01*
X38050Y32750D02*
X38600Y32200D01*
X40128D01*
X31000Y28703D02*
X31098Y28605D01*
X31104Y28611D02*
X32000Y27715D01*
X27900Y28703D02*
X27953Y28650D01*
X29050D01*
X32000Y26750D02*
Y27715D01*
X31850Y21220D02*
Y24087D01*
X32000Y26750D02*
X32453Y26297D01*
X31600Y27650D02*
X31821Y27429D01*
X31850Y27400D01*
Y24213D02*
Y27087D01*
X31879Y21191D02*
X32005Y21065D01*
X31850Y21220D02*
X31879Y21191D01*
X31850Y27213D02*
Y27400D01*
X52670Y32959D02*
X53279Y32350D01*
X52670Y32959D02*
Y33300D01*
X50650Y33800D02*
X50800Y33650D01*
X50820Y33630D02*
X51100Y33350D01*
X50800Y33610D02*
Y33650D01*
X53279Y32350D02*
X53527D01*
X53796D01*
X48963Y31100D02*
X49776D01*
X48600Y31453D02*
X48611D01*
X48720Y31343D02*
X48963Y31100D01*
X48611Y31453D02*
X48720Y31345D01*
Y31343D02*
Y31345D01*
X49776Y31100D02*
X50023Y31347D01*
Y31367D01*
X50130Y31474D01*
X49480Y28080D02*
Y28120D01*
X52930Y34350D02*
X54903D01*
X53050Y28350D02*
Y28350D01*
X51373Y30027D02*
Y31350D01*
Y30027D02*
X53050Y28350D01*
X58100Y30000D02*
Y32076D01*
X57150Y29050D02*
X58100Y30000D01*
X50860Y46460D02*
X51600Y47200D01*
X50860Y39501D02*
Y46460D01*
Y39501D02*
X51050Y39311D01*
Y37650D02*
Y39311D01*
X45650Y45650D02*
X47700Y47700D01*
X52250D01*
X55350Y33900D02*
X56350Y32900D01*
X55350Y33900D02*
Y33950D01*
X50170Y34389D02*
X50277Y34282D01*
Y34173D02*
Y34282D01*
Y34173D02*
X50650Y33800D01*
X49361Y34389D02*
X50150D01*
X50170D01*
X49354Y34396D02*
X49361Y34389D01*
X51100Y33350D02*
X51373D01*
X50677Y34276D02*
X51104Y33850D01*
X50677Y34276D02*
Y34433D01*
X50170Y34940D02*
X50677Y34433D01*
X51104Y33850D02*
X51373D01*
X52890Y21190D02*
Y23023D01*
X52275Y20575D02*
X52890Y21190D01*
Y23023D02*
X53250Y23383D01*
Y24150D01*
X56457Y31700D02*
X57800D01*
X45650Y44700D02*
Y45650D01*
X48309Y31850D02*
X48409Y31750D01*
X48200Y31850D02*
X48309D01*
X48409Y31750D02*
X49046D01*
X49850Y28050D02*
X50750D01*
X50547Y26097D02*
X50750Y26300D01*
X50271Y26097D02*
X50547D01*
X50585Y23035D02*
Y23772D01*
X50680Y23867D01*
Y25106D01*
X50282Y25503D02*
X50680Y25106D01*
X50271Y25503D02*
X50282D01*
X50037Y20875D02*
X50050Y20888D01*
Y23327D02*
X50250Y23527D01*
X50050Y20888D02*
Y23327D01*
X50250Y23527D02*
Y24150D01*
X58150Y20625D02*
Y26250D01*
X57200Y19675D02*
X58150Y20625D01*
X57250Y27150D02*
X58150Y26250D01*
X49250Y21525D02*
Y24150D01*
X48300Y20575D02*
X49250Y21525D01*
X49550Y19675D02*
X50037Y20162D01*
Y20875D01*
X51250Y21537D02*
Y24150D01*
X50287Y20575D02*
X51250Y21537D01*
X51861Y22398D02*
X52250Y22787D01*
Y24150D01*
X51861Y20073D02*
Y22398D01*
X51462Y19675D02*
X51861Y20073D01*
X53375Y19675D02*
Y20225D01*
X54460Y21310D01*
X54250Y23248D02*
Y24150D01*
Y23248D02*
X54460Y23038D01*
Y21310D02*
Y23038D01*
X54262Y20575D02*
X54730Y21042D01*
X54893D01*
X55250Y21400D01*
Y24150D01*
X56250Y21058D02*
Y24150D01*
X55765Y20573D02*
X56250Y21058D01*
X55765Y20153D02*
Y20573D01*
X55287Y19675D02*
X55765Y20153D01*
X57250Y21575D02*
Y24150D01*
X56250Y20575D02*
X57250Y21575D01*
X52250Y27150D02*
X52276Y27124D01*
Y26205D02*
Y27124D01*
Y26205D02*
X52384Y26097D01*
X52396D01*
X53458D01*
X51250Y26180D02*
X51333Y26097D01*
X51250Y26180D02*
Y27150D01*
X32453Y26093D02*
X32500Y26047D01*
X32453Y26093D02*
Y26297D01*
X32855Y23165D02*
X32985Y23035D01*
X32500Y24673D02*
X32855Y24318D01*
X32500Y24673D02*
Y25453D01*
X32855Y23165D02*
Y24318D01*
X30738Y20575D02*
X31455Y21293D01*
Y24145D01*
X32450Y27150D02*
X33700Y25900D01*
X32650Y20575D02*
Y21873D01*
X33700Y22923D01*
Y25900D01*
X32153Y20525D02*
X32450Y20822D01*
Y24150D01*
X32153Y20078D02*
Y20525D01*
X31750Y19675D02*
X32153Y20078D01*
X31450Y24150D02*
X31455Y24145D01*
X30450Y20350D02*
Y24150D01*
X29775Y19675D02*
X30450Y20350D01*
X29450Y24150D02*
X29520Y24080D01*
Y21270D02*
Y24080D01*
X28825Y20575D02*
X29520Y21270D01*
X27950Y19825D02*
Y22983D01*
X27800Y19675D02*
X27950Y19825D01*
Y22983D02*
X28450Y23483D01*
Y24150D01*
X27450Y23288D02*
Y24150D01*
X27160Y22998D02*
X27450Y23288D01*
X27160Y21914D02*
Y22998D01*
Y21914D02*
X27164Y21910D01*
Y20826D02*
Y21910D01*
X26913Y20575D02*
X27164Y20826D01*
X25900Y19750D02*
Y21100D01*
X25825Y19675D02*
X25900Y19750D01*
X25450Y21550D02*
X25900Y21100D01*
X25450Y21550D02*
Y23100D01*
X26450Y24100D02*
Y24150D01*
X25450Y23100D02*
X26450Y24100D01*
X25000Y20575D02*
Y23700D01*
X25450Y24150D01*
X24450Y20275D02*
Y24150D01*
X23850Y19675D02*
X24450Y20275D01*
X25757Y26047D02*
X25768D01*
X26387Y26665D01*
Y27087D01*
X26450Y27150D01*
X27117Y26047D02*
X28454D01*
X27106D02*
X27117D01*
X27450Y26380D02*
Y27150D01*
X27117Y26047D02*
X27450Y26380D01*
X40949Y33278D02*
X41206D01*
X41536Y33608D02*
Y33864D01*
X40550Y32622D02*
Y32878D01*
X41206Y33278D02*
X41536Y33608D01*
X40550Y32878D02*
X40949Y33278D01*
X41536Y33864D02*
X42422Y34750D01*
X43000D01*
X56250Y44150D02*
X56275Y44175D01*
Y45675D01*
X56300Y45700D01*
X56194Y31963D02*
X56457Y31700D01*
X55779Y34396D02*
X58100Y32076D01*
X49046Y31750D02*
X49343Y31453D01*
X49354D01*
X50130Y31474D02*
X50170D01*
X50294Y31350D02*
X51373D01*
X50170Y31474D02*
X50294Y31350D01*
X48589Y34396D02*
X48600D01*
X55779Y31963D02*
X56194D01*
X56639Y34396D02*
X56650D01*
X56385Y34650D02*
X56639Y34396D01*
X55222Y34650D02*
X56385D01*
X54948Y34395D02*
X54968D01*
X55222Y34650D01*
X28900Y50900D02*
Y51800D01*
X54950Y31964D02*
X54970D01*
X55356Y32350D01*
X56252D01*
X56639Y31963D02*
X56650D01*
X56252Y32350D02*
X56639Y31963D01*
X55779Y31370D02*
X56650D01*
X54950Y31413D02*
X54993Y31370D01*
X55779D01*
X51937Y31350D02*
X53527D01*
X51653Y31634D02*
X51937Y31350D01*
X50561Y31634D02*
X51653D01*
X50170Y32026D02*
X50561Y31634D01*
X50150Y32026D02*
X50170D01*
X53796Y32350D02*
X54156Y31990D01*
X53527Y31850D02*
X54493D01*
X54930Y31413D01*
X54950D01*
X54577Y31964D02*
X54950D01*
X54551Y31990D02*
X54577Y31964D01*
X54156Y31990D02*
X54551D01*
X55779Y34989D02*
X56650D01*
X54948Y34946D02*
X55736D01*
X55779Y34989D01*
X53527Y34850D02*
X54851D01*
X54948Y34946D01*
X54903Y34350D02*
X54948Y34395D01*
X49354Y32047D02*
X50129D01*
X50150Y32026D01*
X48600Y32047D02*
X49354D01*
X48600Y34989D02*
X49354D01*
X50101D01*
X50150Y34940D01*
X50170D01*
X28250Y50850D02*
Y51700D01*
X28200Y51750D02*
X28250Y51700D01*
X26650Y51200D02*
X26750D01*
X26550Y51100D02*
X26650Y51200D01*
X25200Y51100D02*
X26550D01*
X26160Y51450D02*
X27000D01*
X26150Y51440D02*
X26160Y51450D01*
X26700Y44900D02*
Y46689D01*
X25750Y47639D02*
X26700Y46689D01*
D17*
X39150Y28329D02*
Y31250D01*
X39160Y28180D02*
Y28319D01*
X39150Y28329D02*
X39160Y28319D01*
X37050Y35750D02*
X39050Y33750D01*
X27429Y35750D02*
X37050D01*
X35950Y35100D02*
X36750D01*
X35094Y34244D02*
X35950Y35100D01*
X24857Y42357D02*
X27650D01*
X23850Y37328D02*
X25428Y35750D01*
X23850Y37328D02*
Y41350D01*
X24857Y42357D01*
X27900Y29297D02*
Y30194D01*
X30150Y31650D02*
X30824D01*
X29700Y32100D02*
X30150Y31650D01*
X31000Y31826D02*
Y32497D01*
X30824Y31650D02*
X31000Y31826D01*
X29700Y32100D02*
Y33479D01*
X27429Y35750D02*
X29700Y33479D01*
X25428Y35750D02*
X27644Y33534D01*
X25428Y35750D02*
X27429D01*
X35050Y33750D02*
X35094Y33794D01*
Y34244D01*
X27880Y33331D02*
X27900D01*
X27677Y33534D02*
X27880Y33331D01*
X27644Y33534D02*
X27677D01*
X30900Y32597D02*
Y33331D01*
Y32597D02*
X31000Y32497D01*
X27900Y32306D02*
X27926Y32332D01*
Y32922D01*
X27927Y32923D01*
Y33323D01*
X27900Y33331D02*
X27920D01*
X27927Y33323D01*
X24450Y25998D02*
Y27150D01*
D22*
X28700Y33876D02*
D03*
Y33324D02*
D03*
X31650Y33876D02*
D03*
Y33324D02*
D03*
X29650Y30974D02*
D03*
Y31526D02*
D03*
X32900Y30974D02*
D03*
Y31526D02*
D03*
X24450Y25998D02*
D03*
Y25446D02*
D03*
X49250Y26048D02*
D03*
Y25496D02*
D03*
X50150Y32026D02*
D03*
Y31474D02*
D03*
Y33526D02*
D03*
Y32974D02*
D03*
Y34940D02*
D03*
Y34389D02*
D03*
X54950Y31964D02*
D03*
Y31413D02*
D03*
X54900Y32899D02*
D03*
Y33450D02*
D03*
X54948Y34395D02*
D03*
Y34946D02*
D03*
X30900Y33882D02*
D03*
Y33331D02*
D03*
X27900Y33882D02*
D03*
Y33331D02*
D03*
D28*
X23850Y19675D02*
D03*
X24450D02*
D03*
X25825D02*
D03*
X26425D02*
D03*
X27800D02*
D03*
X28400D02*
D03*
X28825Y20575D02*
D03*
X29425D02*
D03*
X29775Y19675D02*
D03*
X30375D02*
D03*
X31750D02*
D03*
X32350D02*
D03*
X48300Y20575D02*
D03*
X48900D02*
D03*
X49550Y19675D02*
D03*
X50150D02*
D03*
X51462D02*
D03*
X52063D02*
D03*
X53375D02*
D03*
X53975D02*
D03*
X55287D02*
D03*
X55887D02*
D03*
X57200D02*
D03*
X57800D02*
D03*
X56250Y20575D02*
D03*
X56850D02*
D03*
X25600D02*
D03*
X25000D02*
D03*
X27513D02*
D03*
X26913D02*
D03*
X31337D02*
D03*
X30738D02*
D03*
X33250D02*
D03*
X32650D02*
D03*
X50887D02*
D03*
X50287D02*
D03*
X54862D02*
D03*
X54262D02*
D03*
X52875D02*
D03*
X52275D02*
D03*
D34*
X27900Y28703D02*
D03*
Y29297D02*
D03*
X31000Y28703D02*
D03*
Y29297D02*
D03*
X25757Y25453D02*
D03*
Y26047D02*
D03*
X27106Y25453D02*
D03*
Y26047D02*
D03*
X28454Y25453D02*
D03*
Y26047D02*
D03*
X29803D02*
D03*
Y25453D02*
D03*
X31151Y26047D02*
D03*
Y25453D02*
D03*
X32500Y26047D02*
D03*
Y25453D02*
D03*
X50271Y26097D02*
D03*
Y25503D02*
D03*
X51333D02*
D03*
Y26097D02*
D03*
X52396Y25503D02*
D03*
Y26097D02*
D03*
X53458Y25503D02*
D03*
Y26097D02*
D03*
X54520D02*
D03*
Y25503D02*
D03*
X55583Y26097D02*
D03*
Y25503D02*
D03*
X48600Y31453D02*
D03*
Y32047D02*
D03*
X49354D02*
D03*
Y31453D02*
D03*
X48600Y34396D02*
D03*
Y34989D02*
D03*
X49354Y34396D02*
D03*
Y34989D02*
D03*
X55779Y31370D02*
D03*
Y31963D02*
D03*
X56650Y31370D02*
D03*
Y31963D02*
D03*
X55779Y34396D02*
D03*
Y34989D02*
D03*
X56650D02*
D03*
Y34396D02*
D03*
D88*
X42400Y28240D02*
Y31300D01*
Y28240D02*
X42460Y28180D01*
X36500Y37350D02*
Y42550D01*
Y37350D02*
X40050Y33800D01*
X35050Y33750D02*
X35550Y33250D01*
Y32400D02*
X36190Y31760D01*
X35550Y32400D02*
Y33250D01*
X36190Y31760D02*
X44890D01*
X37091Y32010D02*
X44810D01*
X36544Y32557D02*
X37091Y32010D01*
X36544Y32557D02*
Y33256D01*
X44810Y32010D02*
X44950Y32150D01*
X45200Y31450D02*
X47100D01*
X40050Y33750D02*
Y33800D01*
X27400Y32306D02*
Y33000D01*
X32000Y30194D02*
X32406D01*
X32864Y30652D01*
Y30938D01*
X32900Y30974D01*
Y31526D02*
Y31950D01*
X32544Y32306D02*
X32900Y31950D01*
X32000Y32306D02*
X32544D01*
X31000Y29297D02*
Y30194D01*
X30450Y32356D02*
Y33450D01*
Y32356D02*
X30500Y32306D01*
X31650Y32712D02*
Y33324D01*
X31500Y32562D02*
X31650Y32712D01*
X31500Y32306D02*
Y32562D01*
X28400Y32306D02*
Y33044D01*
X28680Y33324D01*
X28700D01*
X29630Y31526D02*
X29650D01*
X29102Y32054D02*
X29630Y31526D01*
X28922Y32054D02*
X29102D01*
X28900Y32076D02*
X28922Y32054D01*
X28900Y32076D02*
Y32306D01*
X29630Y30974D02*
X29650D01*
X29102Y30446D02*
X29630Y30974D01*
X28922Y30446D02*
X29102D01*
X28900Y30424D02*
X28922Y30446D01*
X28900Y30194D02*
Y30424D01*
X44890Y31760D02*
X45200Y31450D01*
X36050Y33750D02*
X36544Y33256D01*
X52636Y33972D02*
Y37850D01*
Y33972D02*
X53257Y33350D01*
X52275Y32673D02*
Y39475D01*
X51952Y32350D02*
X52275Y32673D01*
X51373Y32350D02*
X51952D01*
X50774D02*
X51373D01*
X44829Y40931D02*
X48731D01*
X44700Y40802D02*
X44829Y40931D01*
X48731D02*
X48750Y40950D01*
X53257Y33350D02*
X53527D01*
X54397Y33450D02*
X54900D01*
X54297Y33350D02*
X54397Y33450D01*
X53527Y33350D02*
X54297D01*
X50227Y32897D02*
X50774Y32350D01*
X50227Y32897D02*
Y32917D01*
X50170Y32974D02*
X50227Y32917D01*
X50150Y32974D02*
X50170D01*
X25700Y51750D02*
X27600D01*
D90*
X24450Y39100D02*
X33200D01*
X33230Y39130D01*
X37250Y39150D02*
X40500D01*
X46500Y33150D01*
X48450Y26958D02*
X49242Y27750D01*
X48450Y25558D02*
Y26958D01*
X49242Y27750D02*
X52650D01*
X53250Y27150D01*
X48450Y25558D02*
X49680Y24328D01*
Y21140D02*
Y24328D01*
X49605Y21065D02*
X49680Y21140D01*
X56850Y20575D02*
X57850Y21575D01*
Y25150D01*
X57497Y25503D02*
X57850Y25150D01*
X55583Y25503D02*
X57497D01*
X50150Y19675D02*
X50802Y20327D01*
Y20490D01*
X50887Y20575D01*
X52063Y19675D02*
X52790Y20403D01*
Y20490D01*
X52875Y20575D01*
X53975Y19675D02*
X54777Y20477D01*
Y20490D01*
X54862Y20575D01*
X55887Y19675D02*
X56702Y20490D01*
X56765D01*
X56850Y20575D01*
X57275Y19150D02*
X57800Y19675D01*
X56413Y19150D02*
X57275D01*
X55887Y19675D02*
X56413Y19150D01*
X55363D02*
X55887Y19675D01*
X54500Y19150D02*
X55363D01*
X53975Y19675D02*
X54500Y19150D01*
X53450D02*
X53975Y19675D01*
X52587Y19150D02*
X53450D01*
X52063Y19675D02*
X52587Y19150D01*
X51537D02*
X52063Y19675D01*
X50675Y19150D02*
X51537D01*
X50150Y19675D02*
X50675Y19150D01*
X48900Y19238D02*
Y20575D01*
X50128Y19238D02*
Y19653D01*
X50040Y19150D02*
X50128Y19238D01*
X48900D02*
X48988Y19150D01*
X50040D01*
X50128Y19653D02*
X50150Y19675D01*
X54509Y26097D02*
X54580Y26168D01*
Y26480D02*
X55250Y27150D01*
X54580Y26168D02*
Y26480D01*
X54520Y26097D02*
X55583D01*
X54509D02*
X54520D01*
X54213Y25800D02*
X54509Y26097D01*
X52704Y25800D02*
X54213D01*
X52396Y25503D02*
X52407D01*
X52704Y25800D01*
X52384Y25503D02*
X52396D01*
X52088Y25800D02*
X52384Y25503D01*
X49900Y25800D02*
X52088D01*
X49250Y26048D02*
X49652D01*
X49900Y25800D01*
X49250Y26048D02*
Y27150D01*
X54520Y25503D02*
X55583D01*
X23500Y19188D02*
X23588Y19100D01*
X23875D01*
X24450Y19675D01*
X23500Y19188D02*
Y24550D01*
X23750Y24800D02*
X28300D01*
X23500Y24550D02*
X23750Y24800D01*
X28953Y25453D02*
X29803D01*
X28300Y24800D02*
X28953Y25453D01*
X27106D02*
X27963D01*
X26248D02*
X27106D01*
X27963D02*
X28236Y25727D01*
X28827D01*
X25498Y25752D02*
X25950D01*
X26248Y25453D01*
X30375Y19675D02*
X31190Y20490D01*
X31253D01*
X31337Y20575D01*
X28400Y19675D02*
X28850Y20125D01*
X28975D01*
X29425Y20575D01*
X26425Y19675D02*
X26875Y20125D01*
X27062D01*
X27513Y20575D01*
X24450Y19675D02*
X24900Y20125D01*
X25150D01*
X25600Y20575D01*
X30800Y19250D02*
X31950D01*
X32265Y19590D02*
X33250Y20575D01*
X32265Y19565D02*
Y19590D01*
X31950Y19250D02*
X32265Y19565D01*
X30460Y19590D02*
X30800Y19250D01*
X30375Y19675D02*
X30460Y19590D01*
Y19590D02*
Y19590D01*
X28400Y19675D02*
X28775Y19300D01*
X30000D02*
X30375Y19675D01*
X28775Y19300D02*
X30000D01*
X26425Y19675D02*
X26850Y19250D01*
X27975D02*
X28400Y19675D01*
X26850Y19250D02*
X27975D01*
X26000D02*
X26425Y19675D01*
X24875Y19250D02*
X26000D01*
X24450Y19675D02*
X24875Y19250D01*
X29803Y25453D02*
X31151D01*
X30450Y27150D02*
X31151Y26449D01*
Y26047D02*
Y26449D01*
X29803Y26047D02*
X31151D01*
X29147D02*
X29803D01*
X28827Y25727D02*
X29147Y26047D01*
X24450Y25998D02*
X24502Y26050D01*
X25200D01*
X25498Y25752D01*
D92*
X39160Y28980D02*
D03*
X42460D02*
D03*
D93*
X39160Y28180D02*
D03*
X42460D02*
D03*
X32100Y43300D02*
D03*
X31100D02*
D03*
X33100D02*
D03*
X24250Y33200D02*
D03*
X24300Y44000D02*
D03*
Y46450D02*
D03*
D94*
X37460Y23310D02*
D03*
X44160D02*
D03*
X37460Y26650D02*
D03*
X44160D02*
D03*
D95*
X24950Y40798D02*
D03*
X29388D02*
D03*
X33825D02*
D03*
X38263D02*
D03*
X42700D02*
D03*
D96*
X26950Y40802D02*
D03*
X25950Y40798D02*
D03*
X30387D02*
D03*
X31388Y40802D02*
D03*
X34825Y40798D02*
D03*
X35825Y40802D02*
D03*
X40262D02*
D03*
X39262Y40798D02*
D03*
X44700Y40802D02*
D03*
X43700Y40798D02*
D03*
D97*
X35050Y32750D02*
D03*
D98*
Y33750D02*
D03*
X36050Y32750D02*
D03*
Y33750D02*
D03*
X37050Y32750D02*
D03*
Y33750D02*
D03*
X38050Y32750D02*
D03*
Y33750D02*
D03*
X39050Y32750D02*
D03*
Y33750D02*
D03*
X40050Y32750D02*
D03*
Y33750D02*
D03*
X41050Y32750D02*
D03*
Y33750D02*
D03*
X42050Y32750D02*
D03*
Y33750D02*
D03*
X43050Y32750D02*
D03*
Y33750D02*
D03*
X44050Y32750D02*
D03*
Y33750D02*
D03*
D99*
X38719Y49400D02*
D03*
X36750D02*
D03*
D100*
X34100Y43300D02*
D03*
D101*
X57250Y27150D02*
D03*
X32450D02*
D03*
D102*
X56250D02*
D03*
X55250D02*
D03*
X54250D02*
D03*
X53250D02*
D03*
X52250D02*
D03*
X51250D02*
D03*
X50250D02*
D03*
X57250Y24150D02*
D03*
X56250D02*
D03*
X49250Y27150D02*
D03*
Y24150D02*
D03*
X50250D02*
D03*
X51250D02*
D03*
X52250D02*
D03*
X53250D02*
D03*
X54250D02*
D03*
X55250D02*
D03*
X31450Y27150D02*
D03*
X30450D02*
D03*
X29450D02*
D03*
X28450D02*
D03*
X27450D02*
D03*
X26450D02*
D03*
X25450D02*
D03*
X32450Y24150D02*
D03*
X31450D02*
D03*
X24450Y27150D02*
D03*
Y24150D02*
D03*
X25450D02*
D03*
X26450D02*
D03*
X27450D02*
D03*
X28450D02*
D03*
X29450D02*
D03*
X30450D02*
D03*
D103*
X24250Y34200D02*
D03*
X24300Y43000D02*
D03*
Y45450D02*
D03*
D104*
X28340Y22400D02*
D03*
X27550D02*
D03*
X26760D02*
D03*
X29130D02*
D03*
X55650D02*
D03*
X53280D02*
D03*
X54070D02*
D03*
X54860D02*
D03*
D105*
X25970D02*
D03*
X52490D02*
D03*
D106*
X25500Y18420D02*
D03*
X29600D02*
D03*
X56120D02*
D03*
X52020D02*
D03*
D107*
X25195Y31285D02*
D03*
X26185Y29315D02*
D03*
X32005Y21065D02*
D03*
X31015Y23035D02*
D03*
X49605Y21065D02*
D03*
X48615Y23035D02*
D03*
X39545Y45235D02*
D03*
X40535Y43265D02*
D03*
D108*
X24215Y29315D02*
D03*
X32985Y23035D02*
D03*
X50585D02*
D03*
X38565Y43265D02*
D03*
D109*
X32592Y50902D02*
D03*
X30308Y50898D02*
D03*
D110*
X33151Y50705D02*
D03*
X29749D02*
D03*
D111*
X33151Y52339D02*
D03*
X29749D02*
D03*
D112*
X28200Y51750D02*
D03*
X28900Y51800D02*
D03*
X44450Y49950D02*
D03*
X48200Y37650D02*
D03*
X48150Y30650D02*
D03*
X51500Y24850D02*
D03*
X49800D02*
D03*
X49050Y29300D02*
D03*
X56300Y30900D02*
D03*
X56000Y28450D02*
D03*
X55650D02*
D03*
X55300D02*
D03*
X54300Y33900D02*
D03*
X54000D02*
D03*
X53700D02*
D03*
X47300Y32200D02*
D03*
X47100Y31950D02*
D03*
X35050Y36550D02*
D03*
X34700D02*
D03*
X36750Y35100D02*
D03*
X28950Y38550D02*
D03*
X33230Y39130D02*
D03*
X27650Y42357D02*
D03*
X28843D02*
D03*
X30950Y45200D02*
D03*
X36500Y42550D02*
D03*
X31750Y42350D02*
D03*
X31745Y49405D02*
D03*
X31155Y49395D02*
D03*
X37250Y39150D02*
D03*
X47180Y33230D02*
D03*
X44950Y32150D02*
D03*
X47100Y31450D02*
D03*
X24450Y39100D02*
D03*
X29265Y28710D02*
D03*
X27400Y33000D02*
D03*
X30450Y33450D02*
D03*
X31950Y28648D02*
D03*
X48700Y30445D02*
D03*
X49650Y33700D02*
D03*
X52670Y33300D02*
D03*
X50800Y33610D02*
D03*
X49480Y28080D02*
D03*
X52930Y34350D02*
D03*
X52636Y37850D02*
D03*
X52275Y39475D02*
D03*
X53050Y28350D02*
D03*
X57150Y29050D02*
D03*
X51600Y47200D02*
D03*
X51050Y37650D02*
D03*
X55350Y33950D02*
D03*
X56350Y32900D02*
D03*
X57800Y31700D02*
D03*
X45650Y44700D02*
D03*
X52250Y47700D02*
D03*
X51100Y43800D02*
D03*
X48300Y32650D02*
D03*
X48200Y31850D02*
D03*
X50750Y28050D02*
D03*
Y26300D02*
D03*
X43000Y34750D02*
D03*
X48750Y40950D02*
D03*
X56300Y45700D02*
D03*
X56250Y44150D02*
D03*
X28250Y50850D02*
D03*
X28900Y50900D02*
D03*
X27600Y51750D02*
D03*
X30350Y42350D02*
D03*
X26700Y42700D02*
D03*
X44950Y49950D02*
D03*
X28650Y50050D02*
D03*
X28950D02*
D03*
X28350D02*
D03*
X27350Y51300D02*
D03*
X25200Y51100D02*
D03*
X26750Y51200D02*
D03*
X30400Y45200D02*
D03*
X30650Y44650D02*
D03*
X26700Y44900D02*
D03*
X25750Y47639D02*
D03*
X26150Y51440D02*
D03*
X27000Y51450D02*
D03*
X25700Y51750D02*
D03*
D113*
X46500Y33150D02*
D03*
D134*
X28900Y30194D02*
D03*
X28400D02*
D03*
X27900D02*
D03*
X27400D02*
D03*
X28900Y32306D02*
D03*
X28400D02*
D03*
X27900D02*
D03*
X27400D02*
D03*
X32000Y30194D02*
D03*
X31500D02*
D03*
X31000D02*
D03*
X30500D02*
D03*
X32000Y32306D02*
D03*
X31500D02*
D03*
X31000D02*
D03*
X30500D02*
D03*
D135*
X51373Y31350D02*
D03*
Y31850D02*
D03*
Y32350D02*
D03*
Y32850D02*
D03*
Y33350D02*
D03*
Y33850D02*
D03*
Y34350D02*
D03*
Y34850D02*
D03*
X53527Y31350D02*
D03*
Y31850D02*
D03*
Y32350D02*
D03*
Y32850D02*
D03*
Y33350D02*
D03*
Y33850D02*
D03*
Y34350D02*
D03*
Y34850D02*
D03*
M02*
