G04*
G04 #@! TF.GenerationSoftware,Altium Limited,Altium Designer,20.2.6 (244)*
G04*
G04 Layer_Physical_Order=2*
G04 Layer_Color=32768*
%FSLAX24Y24*%
%MOIN*%
G70*
G04*
G04 #@! TF.SameCoordinates,F8AEF4A7-C5AA-40DC-9DAC-891B57281ED6*
G04*
G04*
G04 #@! TF.FilePolarity,Negative*
G04*
G01*
G75*
%ADD89C,0.0400*%
%ADD107C,0.0700*%
G04:AMPARAMS|DCode=114|XSize=90mil|YSize=90mil|CornerRadius=0mil|HoleSize=0mil|Usage=FLASHONLY|Rotation=0.000|XOffset=0mil|YOffset=0mil|HoleType=Round|Shape=Relief|Width=10mil|Gap=10mil|Entries=4|*
%AMTHD114*
7,0,0,0.0900,0.0700,0.0100,45*
%
%ADD114THD114*%
%ADD115R,0.1200X0.1900*%
G04:AMPARAMS|DCode=116|XSize=107.244mil|YSize=107.244mil|CornerRadius=0mil|HoleSize=0mil|Usage=FLASHONLY|Rotation=0.000|XOffset=0mil|YOffset=0mil|HoleType=Round|Shape=Relief|Width=10mil|Gap=10mil|Entries=4|*
%AMTHD116*
7,0,0,0.1072,0.0872,0.0100,45*
%
%ADD116THD116*%
%ADD117C,0.0872*%
%ADD118C,0.0912*%
%ADD119C,0.0794*%
G04:AMPARAMS|DCode=120|XSize=99.37mil|YSize=99.37mil|CornerRadius=0mil|HoleSize=0mil|Usage=FLASHONLY|Rotation=0.000|XOffset=0mil|YOffset=0mil|HoleType=Round|Shape=Relief|Width=10mil|Gap=10mil|Entries=4|*
%AMTHD120*
7,0,0,0.0994,0.0794,0.0100,45*
%
%ADD120THD120*%
%ADD121O,0.0800X0.0600*%
%AMTHOVALD122*
21,1,0.0200,0.0800,0,0,180.0*
1,1,0.0800,0.0100,0.0000*
1,1,0.0800,-0.0100,0.0000*
21,0,0.0200,0.0600,0,0,180.0*
1,0,0.0600,0.0100,0.0000*
1,0,0.0600,-0.0100,0.0000*
4,0,4,0.0065,0.0035,0.0347,0.0318,0.0418,0.0247,0.0135,-0.0035,0.0065,0.0035,0.0*
4,0,4,-0.0135,0.0035,-0.0418,-0.0247,-0.0347,-0.0318,-0.0065,-0.0035,-0.0135,0.0035,0.0*
4,0,4,0.0135,0.0035,0.0418,-0.0247,0.0347,-0.0318,0.0065,-0.0035,0.0135,0.0035,0.0*
4,0,4,-0.0065,0.0035,-0.0347,0.0318,-0.0418,0.0247,-0.0135,-0.0035,-0.0065,0.0035,0.0*
%
%ADD122THOVALD122*%

%AMTHOVALD123*
21,1,0.0250,0.0800,0,0,270.0*
1,1,0.0800,0.0000,0.0125*
1,1,0.0800,0.0000,-0.0125*
21,0,0.0250,0.0600,0,0,270.0*
1,0,0.0600,0.0000,0.0125*
1,0,0.0600,0.0000,-0.0125*
4,0,4,-0.0035,0.0090,-0.0318,0.0372,-0.0247,0.0443,0.0035,0.0160,-0.0035,0.0090,0.0*
4,0,4,-0.0035,-0.0160,0.0247,-0.0443,0.0318,-0.0372,0.0035,-0.0090,-0.0035,-0.0160,0.0*
4,0,4,-0.0035,0.0160,0.0247,0.0443,0.0318,0.0372,0.0035,0.0090,-0.0035,0.0160,0.0*
4,0,4,-0.0035,-0.0090,-0.0318,-0.0372,-0.0247,-0.0443,0.0035,-0.0160,-0.0035,-0.0090,0.0*
%
%ADD123THOVALD123*%

%ADD124C,0.0800*%
G04:AMPARAMS|DCode=125|XSize=100mil|YSize=100mil|CornerRadius=0mil|HoleSize=0mil|Usage=FLASHONLY|Rotation=0.000|XOffset=0mil|YOffset=0mil|HoleType=Round|Shape=Relief|Width=10mil|Gap=10mil|Entries=4|*
%AMTHD125*
7,0,0,0.1000,0.0800,0.0100,45*
%
%ADD125THD125*%
%ADD126C,0.0656*%
%AMTHOVALD127*
21,1,0.0433,0.0836,0,0,270.0*
1,1,0.0836,0.0000,0.0217*
1,1,0.0836,0.0000,-0.0217*
21,0,0.0433,0.0636,0,0,270.0*
1,0,0.0636,0.0000,0.0217*
1,0,0.0636,0.0000,-0.0217*
4,0,4,-0.0035,0.0181,-0.0331,0.0477,-0.0260,0.0548,0.0035,0.0252,-0.0035,0.0181,0.0*
4,0,4,-0.0035,-0.0252,0.0260,-0.0548,0.0331,-0.0477,0.0035,-0.0181,-0.0035,-0.0252,0.0*
4,0,4,-0.0035,0.0252,0.0260,0.0548,0.0331,0.0477,0.0035,0.0181,-0.0035,0.0252,0.0*
4,0,4,-0.0035,-0.0181,-0.0331,-0.0477,-0.0260,-0.0548,0.0035,-0.0252,-0.0035,-0.0181,0.0*
%
%ADD127THOVALD127*%

%AMTHOVALD128*
21,1,0.0315,0.0836,0,0,270.0*
1,1,0.0836,0.0000,0.0157*
1,1,0.0836,0.0000,-0.0157*
21,0,0.0315,0.0636,0,0,270.0*
1,0,0.0636,0.0000,0.0157*
1,0,0.0636,0.0000,-0.0157*
4,0,4,-0.0035,0.0122,-0.0331,0.0418,-0.0260,0.0488,0.0035,0.0193,-0.0035,0.0122,0.0*
4,0,4,-0.0035,-0.0193,0.0260,-0.0488,0.0331,-0.0418,0.0035,-0.0122,-0.0035,-0.0193,0.0*
4,0,4,-0.0035,0.0193,0.0260,0.0488,0.0331,0.0418,0.0035,0.0122,-0.0035,0.0193,0.0*
4,0,4,-0.0035,-0.0122,-0.0331,-0.0418,-0.0260,-0.0488,0.0035,-0.0193,-0.0035,-0.0122,0.0*
%
%ADD128THOVALD128*%

%ADD129C,0.0560*%
G04:AMPARAMS|DCode=130|XSize=76mil|YSize=76mil|CornerRadius=0mil|HoleSize=0mil|Usage=FLASHONLY|Rotation=0.000|XOffset=0mil|YOffset=0mil|HoleType=Round|Shape=Relief|Width=10mil|Gap=10mil|Entries=4|*
%AMTHD130*
7,0,0,0.0760,0.0560,0.0100,45*
%
%ADD130THD130*%
G36*
X54930Y51305D02*
X54995Y51240D01*
X55030Y51156D01*
Y51110D01*
Y51064D01*
X54995Y50980D01*
X54930Y50915D01*
X54846Y50880D01*
X54754D01*
X54670Y50915D01*
X54605Y50980D01*
X54570Y51064D01*
Y51110D01*
Y51156D01*
X54605Y51240D01*
X54670Y51305D01*
X54754Y51340D01*
X54846D01*
X54930Y51305D01*
D02*
G37*
G36*
X49405D02*
X49470Y51240D01*
X49505Y51156D01*
Y51110D01*
Y51064D01*
X49470Y50980D01*
X49405Y50915D01*
X49321Y50880D01*
X49229D01*
X49145Y50915D01*
X49080Y50980D01*
X49045Y51064D01*
Y51110D01*
Y51156D01*
X49080Y51240D01*
X49145Y51305D01*
X49229Y51340D01*
X49321D01*
X49405Y51305D01*
D02*
G37*
G36*
X54930Y48945D02*
X54995Y48880D01*
X55030Y48796D01*
Y48750D01*
Y48704D01*
X54995Y48620D01*
X54930Y48555D01*
X54846Y48520D01*
X54754D01*
X54670Y48555D01*
X54605Y48620D01*
X54570Y48704D01*
Y48750D01*
Y48796D01*
X54605Y48880D01*
X54670Y48945D01*
X54754Y48980D01*
X54846D01*
X54930Y48945D01*
D02*
G37*
G36*
X49405D02*
X49470Y48880D01*
X49505Y48796D01*
Y48750D01*
Y48704D01*
X49470Y48620D01*
X49405Y48555D01*
X49321Y48520D01*
X49229D01*
X49145Y48555D01*
X49080Y48620D01*
X49045Y48704D01*
Y48750D01*
Y48796D01*
X49080Y48880D01*
X49145Y48945D01*
X49229Y48980D01*
X49321D01*
X49405Y48945D01*
D02*
G37*
G36*
X41660Y31000D02*
Y28230D01*
X39960D01*
Y31010D01*
X41650D01*
X41660Y31000D01*
D02*
G37*
G36*
X40013Y26000D02*
X40070Y25943D01*
X40100Y25870D01*
Y25830D01*
Y25790D01*
X40070Y25717D01*
X40013Y25660D01*
X39940Y25630D01*
X39860D01*
X39787Y25660D01*
X39730Y25717D01*
X39700Y25790D01*
Y25830D01*
Y25870D01*
X39730Y25943D01*
X39787Y26000D01*
X39860Y26030D01*
X39940D01*
X40013Y26000D01*
D02*
G37*
G36*
X41833Y25990D02*
X41890Y25933D01*
X41920Y25860D01*
Y25820D01*
Y25780D01*
X41890Y25707D01*
X41833Y25650D01*
X41760Y25620D01*
X41680D01*
X41607Y25650D01*
X41550Y25707D01*
X41520Y25780D01*
Y25820D01*
Y25860D01*
X41550Y25933D01*
X41607Y25990D01*
X41680Y26020D01*
X41760D01*
X41833Y25990D01*
D02*
G37*
G36*
X40013Y24310D02*
X40070Y24253D01*
X40100Y24180D01*
Y24140D01*
Y24100D01*
X40070Y24027D01*
X40013Y23970D01*
X39940Y23940D01*
X39860D01*
X39787Y23970D01*
X39730Y24027D01*
X39700Y24100D01*
Y24140D01*
Y24180D01*
X39730Y24253D01*
X39787Y24310D01*
X39860Y24340D01*
X39940D01*
X40013Y24310D01*
D02*
G37*
G36*
X41833Y24300D02*
X41890Y24243D01*
X41920Y24170D01*
Y24130D01*
Y24090D01*
X41890Y24017D01*
X41833Y23960D01*
X41760Y23930D01*
X41680D01*
X41607Y23960D01*
X41550Y24017D01*
X41520Y24090D01*
Y24130D01*
Y24170D01*
X41550Y24243D01*
X41607Y24300D01*
X41680Y24330D01*
X41760D01*
X41833Y24300D01*
D02*
G37*
D89*
X41650Y31010D02*
X41660Y31000D01*
Y28230D02*
Y31000D01*
X39960Y28230D02*
X41660D01*
X39960D02*
Y31010D01*
X41650D01*
X41760Y24330D02*
X41833Y24300D01*
X41890Y24243D01*
X41920Y24170D01*
Y24130D02*
Y24170D01*
Y24090D02*
Y24130D01*
X41890Y24017D02*
X41920Y24090D01*
X41833Y23960D02*
X41890Y24017D01*
X41760Y23930D02*
X41833Y23960D01*
X41680Y23930D02*
X41760D01*
X41607Y23960D02*
X41680Y23930D01*
X41550Y24017D02*
X41607Y23960D01*
X41520Y24090D02*
X41550Y24017D01*
X41520Y24090D02*
Y24130D01*
Y24170D01*
X41550Y24243D01*
X41607Y24300D01*
X41680Y24330D01*
X41760D01*
X39940Y24340D02*
X40013Y24310D01*
X40070Y24253D01*
X40100Y24180D01*
Y24140D02*
Y24180D01*
Y24100D02*
Y24140D01*
X40070Y24027D02*
X40100Y24100D01*
X40013Y23970D02*
X40070Y24027D01*
X39940Y23940D02*
X40013Y23970D01*
X39860Y23940D02*
X39940D01*
X39787Y23970D02*
X39860Y23940D01*
X39730Y24027D02*
X39787Y23970D01*
X39700Y24100D02*
X39730Y24027D01*
X39700Y24100D02*
Y24140D01*
Y24180D01*
X39730Y24253D01*
X39787Y24310D01*
X39860Y24340D01*
X39940D01*
X41760Y26020D02*
X41833Y25990D01*
X41890Y25933D01*
X41920Y25860D01*
Y25820D02*
Y25860D01*
Y25780D02*
Y25820D01*
X41890Y25707D02*
X41920Y25780D01*
X41833Y25650D02*
X41890Y25707D01*
X41760Y25620D02*
X41833Y25650D01*
X41680Y25620D02*
X41760D01*
X41607Y25650D02*
X41680Y25620D01*
X41550Y25707D02*
X41607Y25650D01*
X41520Y25780D02*
X41550Y25707D01*
X41520Y25780D02*
Y25820D01*
Y25860D01*
X41550Y25933D01*
X41607Y25990D01*
X41680Y26020D01*
X41760D01*
X39940Y26030D02*
X40013Y26000D01*
X40070Y25943D01*
X40100Y25870D01*
Y25830D02*
Y25870D01*
Y25790D02*
Y25830D01*
X40070Y25717D02*
X40100Y25790D01*
X40013Y25660D02*
X40070Y25717D01*
X39940Y25630D02*
X40013Y25660D01*
X39860Y25630D02*
X39940D01*
X39787Y25660D02*
X39860Y25630D01*
X39730Y25717D02*
X39787Y25660D01*
X39700Y25790D02*
X39730Y25717D01*
X39700Y25790D02*
Y25830D01*
Y25870D01*
X39730Y25943D01*
X39787Y26000D01*
X39860Y26030D01*
X39940D01*
X35800Y31030D02*
X38340D01*
X38360Y31010D01*
Y28230D02*
Y31010D01*
X36660Y28230D02*
X38360D01*
X36660Y21830D02*
Y28230D01*
Y21830D02*
X44960D01*
Y28230D01*
X43260D02*
X44960D01*
X43260D02*
Y31010D01*
X43280Y31030D01*
X45820D01*
X49321Y48980D02*
X49405Y48945D01*
X49470Y48880D01*
X49505Y48796D01*
Y48750D02*
Y48796D01*
Y48704D02*
Y48750D01*
X49470Y48620D02*
X49505Y48704D01*
X49405Y48555D02*
X49470Y48620D01*
X49321Y48520D02*
X49405Y48555D01*
X49229Y48520D02*
X49321D01*
X49145Y48555D02*
X49229Y48520D01*
X49080Y48620D02*
X49145Y48555D01*
X49045Y48704D02*
X49080Y48620D01*
X49045Y48704D02*
Y48750D01*
Y48796D01*
X49080Y48880D01*
X49145Y48945D01*
X49229Y48980D01*
X49321D01*
X54846D02*
X54930Y48945D01*
X54995Y48880D01*
X55030Y48796D01*
Y48750D02*
Y48796D01*
Y48704D02*
Y48750D01*
X54995Y48620D02*
X55030Y48704D01*
X54930Y48555D02*
X54995Y48620D01*
X54846Y48520D02*
X54930Y48555D01*
X54754Y48520D02*
X54846D01*
X54670Y48555D02*
X54754Y48520D01*
X54605Y48620D02*
X54670Y48555D01*
X54570Y48704D02*
X54605Y48620D01*
X54570Y48704D02*
Y48750D01*
Y48796D01*
X54605Y48880D01*
X54670Y48945D01*
X54754Y48980D01*
X54846D01*
X49321Y51340D02*
X49405Y51305D01*
X49470Y51240D01*
X49505Y51156D01*
Y51110D02*
Y51156D01*
Y51064D02*
Y51110D01*
X49470Y50980D02*
X49505Y51064D01*
X49405Y50915D02*
X49470Y50980D01*
X49321Y50880D02*
X49405Y50915D01*
X49229Y50880D02*
X49321D01*
X49145Y50915D02*
X49229Y50880D01*
X49080Y50980D02*
X49145Y50915D01*
X49045Y51064D02*
X49080Y50980D01*
X49045Y51064D02*
Y51110D01*
Y51156D01*
X49080Y51240D01*
X49145Y51305D01*
X49229Y51340D01*
X49321D01*
X54846D02*
X54930Y51305D01*
X54995Y51240D01*
X55030Y51156D01*
Y51110D02*
Y51156D01*
Y51064D02*
Y51110D01*
X54995Y50980D02*
X55030Y51064D01*
X54930Y50915D02*
X54995Y50980D01*
X54846Y50880D02*
X54930Y50915D01*
X54754Y50880D02*
X54846D01*
X54670Y50915D02*
X54754Y50880D01*
X54605Y50980D02*
X54670Y50915D01*
X54570Y51064D02*
X54605Y50980D01*
X54570Y51064D02*
Y51110D01*
Y51156D01*
X54605Y51240D01*
X54670Y51305D01*
X54754Y51340D01*
X54846D01*
X59120Y17620D02*
Y53120D01*
X22500D02*
X59120D01*
X22500Y17620D02*
Y53120D01*
Y17620D02*
X33700D01*
Y19220D01*
X35800D01*
Y31030D01*
X45820Y19220D02*
Y31030D01*
Y19220D02*
X47920D01*
Y17620D02*
Y19220D01*
Y17620D02*
X59120D01*
D107*
X32100Y43300D02*
D03*
X31100D02*
D03*
X33100D02*
D03*
X24250Y33200D02*
D03*
X24300Y44000D02*
D03*
Y43000D02*
D03*
Y46450D02*
D03*
D114*
X39160Y28180D02*
D03*
X42460D02*
D03*
X34100Y43300D02*
D03*
X24250Y34200D02*
D03*
X24300Y45450D02*
D03*
D115*
X37460Y23310D02*
D03*
X44160D02*
D03*
X37460Y26650D02*
D03*
X44160D02*
D03*
D116*
X24950Y40798D02*
D03*
X30387D02*
D03*
X34825D02*
D03*
X39262D02*
D03*
X42700D02*
D03*
X42050Y33750D02*
D03*
X43050D02*
D03*
X44050D02*
D03*
D117*
X26950Y40802D02*
D03*
X25950Y40798D02*
D03*
X31388Y40802D02*
D03*
X29388Y40798D02*
D03*
X35825Y40802D02*
D03*
X33825Y40798D02*
D03*
X38263D02*
D03*
X40262Y40802D02*
D03*
X44700D02*
D03*
X43700Y40798D02*
D03*
X35050Y32750D02*
D03*
Y33750D02*
D03*
X36050Y32750D02*
D03*
Y33750D02*
D03*
X37050Y32750D02*
D03*
Y33750D02*
D03*
X38050Y32750D02*
D03*
Y33750D02*
D03*
X39050Y32750D02*
D03*
Y33750D02*
D03*
X40050Y32750D02*
D03*
Y33750D02*
D03*
X41050Y32750D02*
D03*
Y33750D02*
D03*
X42050Y32750D02*
D03*
X43050D02*
D03*
X44050D02*
D03*
D118*
X38719Y49400D02*
D03*
X36750D02*
D03*
D119*
X57250Y27150D02*
D03*
X55250D02*
D03*
X53250D02*
D03*
X52250D02*
D03*
X51250D02*
D03*
X57250Y24150D02*
D03*
X56250D02*
D03*
X49250Y27150D02*
D03*
Y24150D02*
D03*
X50250D02*
D03*
X51250D02*
D03*
X52250D02*
D03*
X53250D02*
D03*
X54250D02*
D03*
X55250D02*
D03*
X32450Y27150D02*
D03*
X30450D02*
D03*
X28450D02*
D03*
X27450D02*
D03*
X26450D02*
D03*
X32450Y24150D02*
D03*
X31450D02*
D03*
X24450Y27150D02*
D03*
Y24150D02*
D03*
X25450D02*
D03*
X26450D02*
D03*
X27450D02*
D03*
X28450D02*
D03*
X29450D02*
D03*
X30450D02*
D03*
D120*
X56250Y27150D02*
D03*
X54250D02*
D03*
X50250D02*
D03*
X31450D02*
D03*
X29450D02*
D03*
X25450D02*
D03*
D121*
X28340Y22400D02*
D03*
X27550D02*
D03*
X26760D02*
D03*
X29130D02*
D03*
X55650D02*
D03*
X53280D02*
D03*
X54070D02*
D03*
X54860D02*
D03*
D122*
X25970D02*
D03*
X52490D02*
D03*
D123*
X25500Y18420D02*
D03*
X29600D02*
D03*
X56120D02*
D03*
X52020D02*
D03*
D124*
X25195Y31285D02*
D03*
X24215Y29315D02*
D03*
X26185D02*
D03*
X32005Y21065D02*
D03*
X32985Y23035D02*
D03*
X49605Y21065D02*
D03*
X50585Y23035D02*
D03*
X39545Y45235D02*
D03*
X38565Y43265D02*
D03*
X40535D02*
D03*
D125*
X31015Y23035D02*
D03*
X48615D02*
D03*
D126*
X32592Y50902D02*
D03*
X30308Y50898D02*
D03*
D127*
X33151Y50705D02*
D03*
X29749D02*
D03*
D128*
X33151Y52339D02*
D03*
X29749D02*
D03*
D129*
X28200Y51750D02*
D03*
X28900Y51800D02*
D03*
X44450Y49950D02*
D03*
X56300Y30900D02*
D03*
X35050Y36550D02*
D03*
X34700D02*
D03*
X36750Y35100D02*
D03*
X28950Y38550D02*
D03*
X33230Y39130D02*
D03*
X27650Y42357D02*
D03*
X28843D02*
D03*
X30950Y45200D02*
D03*
X36500Y42550D02*
D03*
X31750Y42350D02*
D03*
X31745Y49405D02*
D03*
X31155Y49395D02*
D03*
X37250Y39150D02*
D03*
X47180Y33230D02*
D03*
X46500Y33150D02*
D03*
X44950Y32150D02*
D03*
X47100Y31450D02*
D03*
X24450Y39100D02*
D03*
X29265Y28710D02*
D03*
X27400Y33000D02*
D03*
X30450Y33450D02*
D03*
X31950Y28648D02*
D03*
X48700Y30445D02*
D03*
X49650Y33700D02*
D03*
X52670Y33300D02*
D03*
X50800Y33610D02*
D03*
X49480Y28080D02*
D03*
X52930Y34350D02*
D03*
X52636Y37850D02*
D03*
X52275Y39475D02*
D03*
X53050Y28350D02*
D03*
X57150Y29050D02*
D03*
X51600Y47200D02*
D03*
X51050Y37650D02*
D03*
X55350Y33950D02*
D03*
X56350Y32900D02*
D03*
X57800Y31700D02*
D03*
X45650Y44700D02*
D03*
X52250Y47700D02*
D03*
X51100Y43800D02*
D03*
X48300Y32650D02*
D03*
X48200Y31850D02*
D03*
X50750Y28050D02*
D03*
Y26300D02*
D03*
X43000Y34750D02*
D03*
X48750Y40950D02*
D03*
X56300Y45700D02*
D03*
X56250Y44150D02*
D03*
X28250Y50850D02*
D03*
X28900Y50900D02*
D03*
X27600Y51750D02*
D03*
X30350Y42350D02*
D03*
X26700Y42700D02*
D03*
X44950Y49950D02*
D03*
X28650Y50050D02*
D03*
X28950D02*
D03*
X28350D02*
D03*
X27350Y51300D02*
D03*
X25200Y51100D02*
D03*
X26750Y51200D02*
D03*
X30400Y45200D02*
D03*
X30650Y44650D02*
D03*
X26700Y44900D02*
D03*
X25750Y47639D02*
D03*
X26150Y51440D02*
D03*
X27000Y51450D02*
D03*
X25700Y51750D02*
D03*
D130*
X48200Y37650D02*
D03*
X48150Y30650D02*
D03*
X51500Y24850D02*
D03*
X49800D02*
D03*
X49050Y29300D02*
D03*
X56000Y28450D02*
D03*
X55650D02*
D03*
X55300D02*
D03*
X54300Y33900D02*
D03*
X54000D02*
D03*
X53700D02*
D03*
X47300Y32200D02*
D03*
X47100Y31950D02*
D03*
M02*
