G04*
G04 #@! TF.GenerationSoftware,Altium Limited,Altium Designer,20.2.6 (244)*
G04*
G04 Layer_Color=32896*
%FSLAX24Y24*%
%MOIN*%
G70*
G04*
G04 #@! TF.SameCoordinates,939C5B67-7932-4E13-932B-422522EE1AF6*
G04*
G04*
G04 #@! TF.FilePolarity,Positive*
G04*
G01*
G75*
%ADD10C,0.0100*%
G36*
X24665Y51393D02*
X24035D01*
Y51707D01*
X24665D01*
Y51393D01*
D02*
G37*
G36*
X42557Y51185D02*
X42243D01*
Y51815D01*
X42557D01*
Y51185D01*
D02*
G37*
G36*
X24665Y50623D02*
X24035D01*
Y50937D01*
X24665D01*
Y50623D01*
D02*
G37*
G36*
X24637Y49894D02*
X24007D01*
Y50209D01*
X24637D01*
Y49894D01*
D02*
G37*
G36*
X24615Y49093D02*
X23985D01*
Y49407D01*
X24615D01*
Y49093D01*
D02*
G37*
G36*
X28807Y49085D02*
X28493D01*
Y49715D01*
X28807D01*
Y49085D01*
D02*
G37*
G36*
X30015Y48993D02*
X29385D01*
Y49307D01*
X30015D01*
Y48993D01*
D02*
G37*
G36*
X24615Y48343D02*
X23985D01*
Y48657D01*
X24615D01*
Y48343D01*
D02*
G37*
G36*
X30015Y48243D02*
X29385D01*
Y48557D01*
X30015D01*
Y48243D01*
D02*
G37*
G36*
X24612Y47643D02*
X23982D01*
Y47957D01*
X24612D01*
Y47643D01*
D02*
G37*
G36*
X45407Y47585D02*
X45093D01*
Y48215D01*
X45407D01*
Y47585D01*
D02*
G37*
G36*
X29957Y45759D02*
X29643D01*
Y46389D01*
X29957D01*
Y45759D01*
D02*
G37*
G36*
X29097D02*
X28783D01*
Y46389D01*
X29097D01*
Y45759D01*
D02*
G37*
G36*
X28237D02*
X27923D01*
Y46389D01*
X28237D01*
Y45759D01*
D02*
G37*
G36*
X27377D02*
X27063D01*
Y46389D01*
X27377D01*
Y45759D01*
D02*
G37*
G36*
X26517D02*
X26203D01*
Y46389D01*
X26517D01*
Y45759D01*
D02*
G37*
G36*
X25657D02*
X25343D01*
Y46389D01*
X25657D01*
Y45759D01*
D02*
G37*
G36*
X55665Y44843D02*
X55035D01*
Y45157D01*
X55665D01*
Y44843D01*
D02*
G37*
G36*
X31907Y44560D02*
X31593D01*
Y45190D01*
X31907D01*
Y44560D01*
D02*
G37*
G36*
X33357Y44559D02*
X33043D01*
Y45189D01*
X33357D01*
Y44559D01*
D02*
G37*
G36*
X32607D02*
X32293D01*
Y45189D01*
X32607D01*
Y44559D01*
D02*
G37*
G36*
X26112Y44493D02*
X25482D01*
Y44807D01*
X26112D01*
Y44493D01*
D02*
G37*
G36*
X48765Y44293D02*
X48135D01*
Y44607D01*
X48765D01*
Y44293D01*
D02*
G37*
G36*
X55687Y44134D02*
X55057D01*
Y44449D01*
X55687D01*
Y44134D01*
D02*
G37*
G36*
X37757Y43885D02*
X37443D01*
Y44515D01*
X37757D01*
Y43885D01*
D02*
G37*
G36*
X26112Y43768D02*
X25482D01*
Y44082D01*
X26112D01*
Y43768D01*
D02*
G37*
G36*
X48759Y43514D02*
X48129D01*
Y43829D01*
X48759D01*
Y43514D01*
D02*
G37*
G36*
X55665Y43343D02*
X55035D01*
Y43657D01*
X55665D01*
Y43343D01*
D02*
G37*
G36*
X26112Y43043D02*
X25482D01*
Y43357D01*
X26112D01*
Y43043D01*
D02*
G37*
G36*
X48737Y42693D02*
X48107D01*
Y43007D01*
X48737D01*
Y42693D01*
D02*
G37*
G36*
X55665Y42593D02*
X55035D01*
Y42907D01*
X55665D01*
Y42593D01*
D02*
G37*
G36*
X45315Y42535D02*
X45000D01*
Y43165D01*
X45315D01*
Y42535D01*
D02*
G37*
G36*
X44278D02*
X43963D01*
Y43165D01*
X44278D01*
Y42535D01*
D02*
G37*
G36*
X43242D02*
X42927D01*
Y43165D01*
X43242D01*
Y42535D01*
D02*
G37*
G36*
X42205D02*
X41890D01*
Y43165D01*
X42205D01*
Y42535D01*
D02*
G37*
G36*
X55615Y40243D02*
X54985D01*
Y40557D01*
X55615D01*
Y40243D01*
D02*
G37*
G36*
X48765Y39993D02*
X48135D01*
Y40307D01*
X48765D01*
Y39993D01*
D02*
G37*
G36*
X55637Y39434D02*
X55007D01*
Y39749D01*
X55637D01*
Y39434D01*
D02*
G37*
G36*
X48759Y39189D02*
X48129D01*
Y39504D01*
X48759D01*
Y39189D01*
D02*
G37*
G36*
X45357Y38638D02*
X45043D01*
Y39268D01*
X45357D01*
Y38638D01*
D02*
G37*
G36*
X40907D02*
X40593D01*
Y39268D01*
X40907D01*
Y38638D01*
D02*
G37*
G36*
X32007D02*
X31693D01*
Y39268D01*
X32007D01*
Y38638D01*
D02*
G37*
G36*
X27457Y38635D02*
X27143D01*
Y39265D01*
X27457D01*
Y38635D01*
D02*
G37*
G36*
X36307Y38585D02*
X35993D01*
Y39215D01*
X36307D01*
Y38585D01*
D02*
G37*
G36*
X55615Y38543D02*
X54985D01*
Y38857D01*
X55615D01*
Y38543D01*
D02*
G37*
G36*
X48737Y38343D02*
X48107D01*
Y38657D01*
X48737D01*
Y38343D01*
D02*
G37*
G36*
X55618Y37693D02*
X54988D01*
Y38007D01*
X55618D01*
Y37693D01*
D02*
G37*
G36*
X45357Y36712D02*
X45043D01*
Y37342D01*
X45357D01*
Y36712D01*
D02*
G37*
G36*
X40907D02*
X40593D01*
Y37342D01*
X40907D01*
Y36712D01*
D02*
G37*
G36*
X32007D02*
X31693D01*
Y37342D01*
X32007D01*
Y36712D01*
D02*
G37*
G36*
X27457D02*
X27143D01*
Y37342D01*
X27457D01*
Y36712D01*
D02*
G37*
G36*
X56807Y34378D02*
X56493D01*
Y35008D01*
X56807D01*
Y34378D01*
D02*
G37*
G36*
X55937D02*
X55622D01*
Y35008D01*
X55937D01*
Y34378D01*
D02*
G37*
G36*
X49512D02*
X49197D01*
Y35008D01*
X49512D01*
Y34378D01*
D02*
G37*
G36*
X48757D02*
X48443D01*
Y35008D01*
X48757D01*
Y34378D01*
D02*
G37*
G36*
X55105Y34356D02*
X54790D01*
Y34986D01*
X55105D01*
Y34356D01*
D02*
G37*
G36*
X50307Y34350D02*
X49993D01*
Y34980D01*
X50307D01*
Y34350D01*
D02*
G37*
G36*
X32707Y34235D02*
X32393D01*
Y34865D01*
X32707D01*
Y34235D01*
D02*
G37*
G36*
X28857Y34182D02*
X28543D01*
Y34812D01*
X28857D01*
Y34182D01*
D02*
G37*
G36*
X31057Y33291D02*
X30743D01*
Y33921D01*
X31057D01*
Y33291D01*
D02*
G37*
G36*
X28057D02*
X27743D01*
Y33921D01*
X28057D01*
Y33291D01*
D02*
G37*
G36*
X31807Y33285D02*
X31493D01*
Y33915D01*
X31807D01*
Y33285D01*
D02*
G37*
G36*
X28857D02*
X28543D01*
Y33915D01*
X28857D01*
Y33285D01*
D02*
G37*
G36*
X50307Y32935D02*
X49993D01*
Y33565D01*
X50307D01*
Y32935D01*
D02*
G37*
G36*
X55057Y32859D02*
X54743D01*
Y33489D01*
X55057D01*
Y32859D01*
D02*
G37*
G36*
X48315Y32843D02*
X47685D01*
Y33157D01*
X48315D01*
Y32843D01*
D02*
G37*
G36*
X55912Y32795D02*
X55282D01*
Y33110D01*
X55912D01*
Y32795D01*
D02*
G37*
G36*
X49693Y32793D02*
X49063D01*
Y33107D01*
X49693D01*
Y32793D01*
D02*
G37*
G36*
X57365Y32743D02*
X56735D01*
Y33057D01*
X57365D01*
Y32743D01*
D02*
G37*
G36*
X48315Y32055D02*
X47685D01*
Y32370D01*
X48315D01*
Y32055D01*
D02*
G37*
G36*
X55912Y32023D02*
X55282D01*
Y32338D01*
X55912D01*
Y32023D01*
D02*
G37*
G36*
X57387Y31997D02*
X56757D01*
Y32312D01*
X57387D01*
Y31997D01*
D02*
G37*
G36*
X50307Y31435D02*
X49993D01*
Y32065D01*
X50307D01*
Y31435D01*
D02*
G37*
G36*
X48757D02*
X48443D01*
Y32065D01*
X48757D01*
Y31435D01*
D02*
G37*
G36*
X55107Y31373D02*
X54793D01*
Y32003D01*
X55107D01*
Y31373D01*
D02*
G37*
G36*
X48315Y31309D02*
X47685D01*
Y31624D01*
X48315D01*
Y31309D01*
D02*
G37*
G36*
X55937Y31352D02*
X55912D01*
Y31251D01*
X55282D01*
Y31566D01*
X55622D01*
Y31981D01*
X55937D01*
Y31352D01*
D02*
G37*
G36*
X49693Y32021D02*
X49512D01*
Y31564D01*
X49693D01*
Y31249D01*
X49063D01*
Y31564D01*
X49197D01*
Y32021D01*
X49063D01*
Y32336D01*
X49693D01*
Y32021D01*
D02*
G37*
G36*
X56807Y31482D02*
X57365D01*
Y31168D01*
X56735D01*
Y31352D01*
X56493D01*
Y31981D01*
X56807D01*
Y31482D01*
D02*
G37*
G36*
X33057Y30935D02*
X32743D01*
Y31565D01*
X33057D01*
Y30935D01*
D02*
G37*
G36*
X29807D02*
X29493D01*
Y31565D01*
X29807D01*
Y30935D01*
D02*
G37*
G36*
X30965Y30893D02*
X30335D01*
Y31207D01*
X30965D01*
Y30893D01*
D02*
G37*
G36*
X29465D02*
X28835D01*
Y31207D01*
X29465D01*
Y30893D01*
D02*
G37*
G36*
X48315Y30480D02*
X47685D01*
Y30795D01*
X48315D01*
Y30480D01*
D02*
G37*
G36*
X55912Y30479D02*
X55282D01*
Y30794D01*
X55912D01*
Y30479D01*
D02*
G37*
G36*
X49693Y30477D02*
X49063D01*
Y30792D01*
X49693D01*
Y30477D01*
D02*
G37*
G36*
X57365Y30380D02*
X56735D01*
Y30695D01*
X57365D01*
Y30380D01*
D02*
G37*
G36*
X55865Y29743D02*
X55235D01*
Y30057D01*
X55865D01*
Y29743D01*
D02*
G37*
G36*
X49665D02*
X49035D01*
Y30057D01*
X49665D01*
Y29743D01*
D02*
G37*
G36*
X48315Y29693D02*
X47685D01*
Y30007D01*
X48315D01*
Y29693D01*
D02*
G37*
G36*
X57365Y29593D02*
X56735D01*
Y29907D01*
X57365D01*
Y29593D01*
D02*
G37*
G36*
X29465Y29243D02*
X28835D01*
Y29557D01*
X29465D01*
Y29243D01*
D02*
G37*
G36*
X55915Y29043D02*
X55285D01*
Y29357D01*
X55915D01*
Y29043D01*
D02*
G37*
G36*
X49665Y28893D02*
X49035D01*
Y29207D01*
X49665D01*
Y28893D01*
D02*
G37*
G36*
X30965Y29315D02*
X31157D01*
Y28685D01*
X30843D01*
Y29293D01*
X30335D01*
Y29607D01*
X30965D01*
Y29315D01*
D02*
G37*
G36*
X28057Y28685D02*
X27743D01*
Y29315D01*
X28057D01*
Y28685D01*
D02*
G37*
G36*
X55740Y25485D02*
X55425D01*
Y26115D01*
X55740D01*
Y25485D01*
D02*
G37*
G36*
X54678D02*
X54363D01*
Y26115D01*
X54678D01*
Y25485D01*
D02*
G37*
G36*
X53616D02*
X53301D01*
Y26115D01*
X53616D01*
Y25485D01*
D02*
G37*
G36*
X52553D02*
X52238D01*
Y26115D01*
X52553D01*
Y25485D01*
D02*
G37*
G36*
X51491D02*
X51176D01*
Y26115D01*
X51491D01*
Y25485D01*
D02*
G37*
G36*
X50428D02*
X50113D01*
Y26115D01*
X50428D01*
Y25485D01*
D02*
G37*
G36*
X49407Y25457D02*
X49093D01*
Y26087D01*
X49407D01*
Y25457D01*
D02*
G37*
G36*
X32657Y25435D02*
X32343D01*
Y26065D01*
X32657D01*
Y25435D01*
D02*
G37*
G36*
X31309D02*
X30994D01*
Y26065D01*
X31309D01*
Y25435D01*
D02*
G37*
G36*
X29960D02*
X29645D01*
Y26065D01*
X29960D01*
Y25435D01*
D02*
G37*
G36*
X28612D02*
X28297D01*
Y26065D01*
X28612D01*
Y25435D01*
D02*
G37*
G36*
X27263D02*
X26948D01*
Y26065D01*
X27263D01*
Y25435D01*
D02*
G37*
G36*
X25914D02*
X25600D01*
Y26065D01*
X25914D01*
Y25435D01*
D02*
G37*
G36*
X24607Y25407D02*
X24293D01*
Y26037D01*
X24607D01*
Y25407D01*
D02*
G37*
D10*
X55030Y51110D02*
G03*
X55030Y51110I-230J0D01*
G01*
Y48750D02*
G03*
X55030Y48750I-230J0D01*
G01*
X49505D02*
G03*
X49505Y48750I-230J0D01*
G01*
Y51110D02*
G03*
X49505Y51110I-230J0D01*
G01*
X38170Y13853D02*
X39303D01*
X38170Y19456D02*
X39170Y19460D01*
X39800Y30930D02*
X41800D01*
X39770Y21060D02*
Y23460D01*
X39110D02*
X39770D01*
X39170Y21060D02*
X39770D01*
X40770D02*
Y23460D01*
X44110Y21060D02*
Y21860D01*
X42510Y21060D02*
Y21860D01*
X40770Y23460D02*
X42510D01*
X43820Y30130D02*
Y31030D01*
X41800Y30130D02*
Y30930D01*
X39800Y30130D02*
Y30930D01*
X37800Y30130D02*
Y31030D01*
X36310Y30130D02*
X37800D01*
X43820Y31030D02*
X45820D01*
X43820Y30130D02*
X45310D01*
X39800D02*
X41800D01*
X35800Y31030D02*
X37800D01*
X39303Y13853D02*
X44910Y19460D01*
X36570Y13853D02*
X38170D01*
X36570D02*
Y15453D01*
Y17053D02*
Y18653D01*
Y15453D02*
X38170D01*
X36570Y17053D02*
X38170D01*
X36570Y18653D02*
X38170D01*
Y15453D02*
Y17053D01*
Y18653D02*
Y19453D01*
X39170Y19460D02*
Y21060D01*
X40770Y19460D02*
Y21060D01*
Y19460D02*
X42510D01*
X44110D02*
X44910D01*
X42510D02*
Y21060D01*
X44110Y19460D02*
Y21060D01*
X37510Y21860D02*
X39110D01*
X44110D02*
Y23460D01*
X42510Y21860D02*
Y23460D01*
X37510Y21860D02*
Y23460D01*
X39110Y21860D02*
Y23460D01*
X44110D02*
X45310D01*
X36310D02*
X37510D01*
X36310D02*
Y30130D01*
X45310Y23460D02*
Y30130D01*
X45820Y19220D02*
Y31030D01*
X35800Y19220D02*
Y31030D01*
X45820Y19220D02*
X47920D01*
X33700D02*
X35800D01*
X47920Y17620D02*
Y19220D01*
X33700Y17620D02*
Y19220D01*
X47920Y17620D02*
X59120D01*
X22500D02*
X33700D01*
X22500D02*
Y53120D01*
X59120D01*
Y17620D02*
Y53120D01*
M02*
