G04*
G04 #@! TF.GenerationSoftware,Altium Limited,Altium Designer,20.2.6 (244)*
G04*
G04 Layer_Physical_Order=1*
G04 Layer_Color=255*
%FSLAX24Y24*%
%MOIN*%
G70*
G04*
G04 #@! TF.SameCoordinates,F8AEF4A7-C5AA-40DC-9DAC-891B57281ED6*
G04*
G04*
G04 #@! TF.FilePolarity,Positive*
G04*
G01*
G75*
%ADD10C,0.0100*%
%ADD17C,0.0300*%
%ADD19R,0.0500X0.0800*%
%ADD20R,0.1200X0.0600*%
%ADD21R,0.0475X0.0670*%
%ADD22R,0.0354X0.0315*%
%ADD23R,0.0315X0.0354*%
%ADD24R,0.0318X0.0340*%
%ADD25O,0.0945X0.0226*%
%ADD26R,0.0472X0.1496*%
%ADD27R,0.1181X0.2087*%
%ADD28R,0.0320X0.0320*%
%ADD29R,0.0669X0.0860*%
%ADD30O,0.0400X0.1200*%
%ADD31R,0.1004X0.1004*%
%ADD32R,0.0110X0.0350*%
%ADD33R,0.0350X0.0110*%
%ADD34R,0.0340X0.0318*%
%ADD35R,0.1496X0.0984*%
%ADD36R,0.0236X0.0800*%
%ADD37R,0.0118X0.0800*%
%ADD38O,0.1200X0.0400*%
%ADD39R,0.0700X0.0400*%
%ADD40R,0.0217X0.0394*%
%ADD41R,0.1500X0.1701*%
%ADD42R,0.0787X0.0236*%
%ADD87C,0.0500*%
%ADD88C,0.0200*%
%ADD89C,0.0400*%
%ADD90C,0.0150*%
%ADD91C,0.0250*%
%ADD92R,0.1300X0.1600*%
%ADD93C,0.0600*%
%ADD94O,0.1500X0.2200*%
%ADD95R,0.0709X0.1024*%
%ADD96O,0.0709X0.1024*%
%ADD97R,0.0709X0.0709*%
%ADD98C,0.0709*%
%ADD99C,0.0512*%
%ADD100R,0.0600X0.0600*%
%ADD101R,0.0630X0.0630*%
%ADD102C,0.0630*%
%ADD103R,0.0600X0.0600*%
%ADD104O,0.0600X0.0400*%
%ADD105R,0.0600X0.0400*%
%ADD106O,0.0600X0.1000*%
%ADD107C,0.0700*%
%ADD108R,0.0700X0.0700*%
%ADD109C,0.0256*%
%ADD110O,0.0394X0.0827*%
%ADD111O,0.0394X0.0709*%
%ADD112C,0.0300*%
%ADD113C,0.0200*%
G36*
X41767Y28180D02*
X41779Y28151D01*
X41121Y27493D01*
X40920D01*
Y27790D01*
X40340D01*
Y26910D01*
X40920D01*
Y27207D01*
X41180D01*
X41180Y27207D01*
X41235Y27218D01*
X41281Y27249D01*
X41754Y27722D01*
X41800Y27703D01*
Y27369D01*
X41797Y27350D01*
X41800Y27331D01*
Y26910D01*
X42380D01*
Y27057D01*
X43335D01*
X43368Y27020D01*
X43366Y27000D01*
Y26300D01*
X43381Y26145D01*
X43427Y25996D01*
X43500Y25859D01*
X43599Y25739D01*
X43719Y25640D01*
X43856Y25567D01*
X44005Y25521D01*
X44160Y25506D01*
X44315Y25521D01*
X44464Y25567D01*
X44601Y25640D01*
X44721Y25739D01*
X44820Y25859D01*
X44850Y25915D01*
X44900Y25903D01*
Y24058D01*
X44850Y24045D01*
X44820Y24101D01*
X44721Y24221D01*
X44601Y24320D01*
X44464Y24393D01*
X44315Y24439D01*
X44160Y24454D01*
X44005Y24439D01*
X43856Y24393D01*
X43719Y24320D01*
X43599Y24221D01*
X43500Y24101D01*
X43427Y23964D01*
X43381Y23815D01*
X43366Y23660D01*
Y22960D01*
X43368Y22940D01*
X43335Y22903D01*
X42380D01*
Y23050D01*
X41800D01*
Y22629D01*
X41797Y22610D01*
X41800Y22591D01*
Y22170D01*
X42380D01*
Y22318D01*
X43539D01*
X43615Y22327D01*
X43662Y22347D01*
X43719Y22300D01*
X43856Y22227D01*
X44005Y22181D01*
X44160Y22166D01*
X44315Y22181D01*
X44464Y22227D01*
X44601Y22300D01*
X44721Y22399D01*
X44820Y22519D01*
X44850Y22575D01*
X44900Y22562D01*
Y21850D01*
X36700D01*
Y22600D01*
X36750Y22612D01*
X36800Y22519D01*
X36899Y22399D01*
X37019Y22300D01*
X37156Y22227D01*
X37305Y22181D01*
X37460Y22166D01*
X37615Y22181D01*
X37764Y22227D01*
X37901Y22300D01*
X37958Y22347D01*
X38005Y22327D01*
X38081Y22318D01*
X39240D01*
Y22170D01*
X39820D01*
Y22591D01*
X39822Y22610D01*
X39820Y22629D01*
Y23050D01*
X39240D01*
Y22903D01*
X38285D01*
X38252Y22940D01*
X38254Y22960D01*
Y23660D01*
X38239Y23815D01*
X38193Y23964D01*
X38120Y24101D01*
X38021Y24221D01*
X37901Y24320D01*
X37764Y24393D01*
X37615Y24439D01*
X37460Y24454D01*
X37305Y24439D01*
X37156Y24393D01*
X37019Y24320D01*
X36899Y24221D01*
X36800Y24101D01*
X36750Y24008D01*
X36700Y24020D01*
Y25940D01*
X36750Y25952D01*
X36800Y25859D01*
X36899Y25739D01*
X37019Y25640D01*
X37156Y25567D01*
X37305Y25521D01*
X37460Y25506D01*
X37615Y25521D01*
X37764Y25567D01*
X37901Y25640D01*
X38021Y25739D01*
X38048Y25771D01*
X38084Y25747D01*
X38090Y25746D01*
X38723Y25113D01*
X38786Y25071D01*
X38860Y25056D01*
X39870D01*
X40436Y24490D01*
Y23050D01*
X40340D01*
Y22170D01*
X40920D01*
Y23050D01*
X40824D01*
Y24570D01*
X40809Y24644D01*
X40767Y24707D01*
X40087Y25387D01*
X40024Y25429D01*
X39950Y25444D01*
X38940D01*
X38321Y26063D01*
X38258Y26105D01*
X38239Y26145D01*
X38254Y26300D01*
Y27000D01*
X38239Y27155D01*
X38193Y27304D01*
X38120Y27441D01*
X38021Y27561D01*
X37901Y27660D01*
X37764Y27733D01*
X37615Y27779D01*
X37460Y27794D01*
X37305Y27779D01*
X37156Y27733D01*
X37019Y27660D01*
X36899Y27561D01*
X36800Y27441D01*
X36750Y27348D01*
X36700Y27360D01*
Y28200D01*
X38467D01*
Y28180D01*
X38479Y28149D01*
X38510Y28137D01*
X38823D01*
X38829Y28091D01*
X38863Y28009D01*
X38918Y27938D01*
X38989Y27883D01*
X39071Y27849D01*
X39080Y27848D01*
X39236Y27691D01*
Y27450D01*
X39240Y27431D01*
Y26910D01*
X39820D01*
Y27790D01*
X39620D01*
X39609Y27846D01*
X39567Y27908D01*
X39460Y28015D01*
X39491Y28091D01*
X39497Y28137D01*
X39810D01*
X39841Y28149D01*
X39853Y28180D01*
Y28200D01*
X39929D01*
X39929Y28199D01*
X39960Y28187D01*
X41660D01*
X41691Y28199D01*
X41691Y28200D01*
X41767D01*
Y28180D01*
D02*
G37*
G36*
X44900Y27397D02*
X44850Y27385D01*
X44820Y27441D01*
X44721Y27561D01*
X44601Y27660D01*
X44464Y27733D01*
X44315Y27779D01*
X44160Y27794D01*
X44005Y27779D01*
X43856Y27733D01*
X43719Y27660D01*
X43662Y27613D01*
X43615Y27633D01*
X43539Y27643D01*
X42380D01*
Y27790D01*
X41887D01*
X41868Y27836D01*
X41993Y27961D01*
X42200D01*
X42218Y27938D01*
X42289Y27883D01*
X42371Y27849D01*
X42460Y27837D01*
X42549Y27849D01*
X42631Y27883D01*
X42702Y27938D01*
X42757Y28009D01*
X42791Y28091D01*
X42797Y28137D01*
X43110D01*
X43141Y28149D01*
X43153Y28180D01*
Y28200D01*
X44900D01*
Y27397D01*
D02*
G37*
G36*
X59100Y17600D02*
X47900D01*
Y19200D01*
X45800D01*
Y31050D01*
X35800D01*
Y19200D01*
X33700D01*
Y17600D01*
X22500D01*
Y53100D01*
X59100D01*
Y17600D01*
D02*
G37*
%LPC*%
G36*
X39900Y26123D02*
X39824Y26113D01*
X39754Y26083D01*
X39693Y26037D01*
X39647Y25976D01*
X39617Y25906D01*
X39608Y25830D01*
X39617Y25754D01*
X39647Y25684D01*
X39693Y25623D01*
X39754Y25577D01*
X39824Y25547D01*
X39900Y25538D01*
X39976Y25547D01*
X40046Y25577D01*
X40107Y25623D01*
X40153Y25684D01*
X40183Y25754D01*
X40192Y25830D01*
X40183Y25906D01*
X40153Y25976D01*
X40107Y26037D01*
X40046Y26083D01*
X39976Y26113D01*
X39900Y26123D01*
D02*
G37*
G36*
X41720Y26112D02*
X41644Y26103D01*
X41574Y26073D01*
X41513Y26027D01*
X41467Y25966D01*
X41437Y25896D01*
X41427Y25820D01*
X41437Y25744D01*
X41467Y25674D01*
X41513Y25613D01*
X41574Y25567D01*
X41644Y25537D01*
X41720Y25528D01*
X41796Y25537D01*
X41866Y25567D01*
X41927Y25613D01*
X41973Y25674D01*
X42003Y25744D01*
X42013Y25820D01*
X42003Y25896D01*
X41973Y25966D01*
X41927Y26027D01*
X41866Y26073D01*
X41796Y26103D01*
X41720Y26112D01*
D02*
G37*
G36*
X39900Y24432D02*
X39824Y24423D01*
X39754Y24393D01*
X39693Y24347D01*
X39647Y24286D01*
X39617Y24216D01*
X39608Y24140D01*
X39617Y24064D01*
X39647Y23994D01*
X39693Y23933D01*
X39754Y23887D01*
X39824Y23857D01*
X39900Y23847D01*
X39976Y23857D01*
X40046Y23887D01*
X40107Y23933D01*
X40153Y23994D01*
X40183Y24064D01*
X40192Y24140D01*
X40183Y24216D01*
X40153Y24286D01*
X40107Y24347D01*
X40046Y24393D01*
X39976Y24423D01*
X39900Y24432D01*
D02*
G37*
G36*
X41720Y24423D02*
X41644Y24413D01*
X41574Y24383D01*
X41513Y24337D01*
X41467Y24276D01*
X41437Y24206D01*
X41427Y24130D01*
X41437Y24054D01*
X41467Y23984D01*
X41513Y23923D01*
X41574Y23877D01*
X41644Y23847D01*
X41720Y23837D01*
X41796Y23847D01*
X41866Y23877D01*
X41927Y23923D01*
X41973Y23984D01*
X42003Y24054D01*
X42013Y24130D01*
X42003Y24206D01*
X41973Y24276D01*
X41927Y24337D01*
X41866Y24383D01*
X41796Y24413D01*
X41720Y24423D01*
D02*
G37*
G36*
X28500Y52843D02*
X28500Y52843D01*
X27350D01*
X27350Y52843D01*
X27295Y52832D01*
X27249Y52801D01*
X27249Y52801D01*
X26998Y52550D01*
X26800D01*
Y52150D01*
X26908D01*
Y51617D01*
X26863Y51587D01*
X26821Y51524D01*
X26806Y51450D01*
X26811Y51424D01*
X26776Y51389D01*
X26750Y51394D01*
X26676Y51379D01*
X26613Y51337D01*
X26592Y51305D01*
X26542Y51320D01*
Y52200D01*
X26535Y52235D01*
X26515Y52265D01*
X26500Y52280D01*
Y52550D01*
X26302D01*
X26051Y52801D01*
X26005Y52832D01*
X25950Y52843D01*
X25950Y52843D01*
X24750D01*
X24750Y52843D01*
X24695Y52832D01*
X24649Y52801D01*
X24649Y52801D01*
X24398Y52550D01*
X24200D01*
Y52150D01*
X24600D01*
Y52348D01*
X24754Y52502D01*
X24800Y52483D01*
Y52150D01*
X25200D01*
Y52207D01*
X25500D01*
Y52150D01*
X25557D01*
Y51878D01*
X25521Y51824D01*
X25506Y51750D01*
X25521Y51676D01*
X25563Y51613D01*
X25608Y51583D01*
Y50209D01*
X25615Y50173D01*
X25635Y50144D01*
X25739Y50040D01*
X25728Y50002D01*
X25720Y49990D01*
X24795D01*
Y50269D01*
X24738D01*
Y50570D01*
X24845D01*
X24845Y50990D01*
X24888Y51008D01*
X25033D01*
X25063Y50963D01*
X25126Y50921D01*
X25200Y50906D01*
X25274Y50921D01*
X25337Y50963D01*
X25379Y51026D01*
X25394Y51100D01*
X25379Y51174D01*
X25337Y51237D01*
X25274Y51279D01*
X25200Y51294D01*
X25126Y51279D01*
X25063Y51237D01*
X25033Y51192D01*
X24530D01*
X24252Y51470D01*
Y51760D01*
X23855D01*
Y51340D01*
X23962D01*
Y50990D01*
X23855D01*
Y50570D01*
X24252D01*
Y50990D01*
X24145D01*
Y51252D01*
X24191Y51271D01*
X24427Y51035D01*
X24431Y51033D01*
X24448Y50990D01*
X24448Y50966D01*
Y50570D01*
X24555D01*
Y50269D01*
X24400D01*
Y49964D01*
X24178Y49742D01*
X23947D01*
X23912Y49735D01*
X23882Y49715D01*
X23535Y49368D01*
X23515Y49338D01*
X23508Y49303D01*
Y48915D01*
X23515Y48880D01*
X23535Y48850D01*
X23805Y48580D01*
Y48290D01*
X24202D01*
Y48710D01*
X23934D01*
X23692Y48953D01*
Y49265D01*
X23985Y49558D01*
X24216D01*
X24251Y49565D01*
X24280Y49585D01*
X24530Y49834D01*
X24665D01*
X24666Y49834D01*
X24696Y49814D01*
X24731Y49807D01*
X25958D01*
X26004Y49797D01*
X26004Y49606D01*
X25958Y49596D01*
X25530D01*
X25494Y49590D01*
X25465Y49570D01*
X25237Y49342D01*
X24795D01*
Y49460D01*
X24398D01*
Y49040D01*
X24795D01*
Y49158D01*
X25275D01*
X25310Y49165D01*
X25340Y49185D01*
X25568Y49413D01*
X25650D01*
X25658Y49401D01*
X25669Y49363D01*
X25018Y48712D01*
X24705D01*
X24696Y48710D01*
X24398D01*
Y48290D01*
X24501D01*
Y48010D01*
X24394D01*
Y47590D01*
X24792D01*
Y48010D01*
X24685D01*
Y48290D01*
X24795D01*
Y48528D01*
X25056D01*
X25091Y48535D01*
X25121Y48555D01*
X25782Y49216D01*
X26004D01*
Y49213D01*
X26434D01*
X26434Y49403D01*
X26434Y49453D01*
X26434Y49600D01*
X26434Y49650D01*
Y49797D01*
X26434D01*
Y49803D01*
X26434Y49803D01*
X26434Y49994D01*
X26434Y50044D01*
X26434Y50190D01*
X26434Y50240D01*
X26434Y50347D01*
X26434Y50361D01*
X26437Y50370D01*
X26447Y50395D01*
X26450Y50400D01*
X26455Y50403D01*
X26480Y50413D01*
X26489Y50416D01*
X26503Y50416D01*
X26653D01*
X26703Y50416D01*
X26850D01*
Y50416D01*
X26856D01*
Y50416D01*
X27003D01*
X27047Y50416D01*
Y50416D01*
X27053D01*
Y50416D01*
X27244D01*
X27244Y50416D01*
X27250D01*
Y50416D01*
X27294Y50416D01*
X27397D01*
X27440Y50416D01*
Y50416D01*
X27447D01*
Y50416D01*
X27597Y50416D01*
X27611Y50416D01*
X27620Y50413D01*
X27645Y50403D01*
X27650Y50400D01*
X27653Y50395D01*
X27663Y50370D01*
X27666Y50361D01*
X27666Y50347D01*
X27666Y50197D01*
X27666Y50197D01*
Y50190D01*
X27666D01*
X27666Y50117D01*
X27663Y50108D01*
X27664Y50107D01*
X27664Y50105D01*
X27666Y50091D01*
Y50044D01*
X27666Y50000D01*
X27666D01*
Y49994D01*
X27666D01*
Y49803D01*
X27666D01*
Y49797D01*
X27666D01*
Y49732D01*
X27664Y49727D01*
X27657Y49715D01*
X27658Y49712D01*
X27657Y49709D01*
Y48950D01*
X27669Y48919D01*
X27700Y48907D01*
X28507D01*
Y48200D01*
X28507Y48200D01*
X28518Y48145D01*
X28549Y48099D01*
X29249Y47399D01*
X29249Y47399D01*
X29295Y47368D01*
X29350Y47357D01*
X30742D01*
X30742Y47357D01*
X30796Y47368D01*
X30843Y47399D01*
X31364Y47920D01*
X32738D01*
Y48984D01*
X31162D01*
Y48122D01*
X30683Y47643D01*
X29409D01*
X28793Y48259D01*
Y48907D01*
X28850D01*
X28881Y48919D01*
X28893Y48950D01*
Y49250D01*
X28881Y49281D01*
X28867Y49294D01*
Y49322D01*
X28839D01*
X28831Y49331D01*
X28824Y49333D01*
X28819Y49339D01*
X28638Y49429D01*
X28649Y49478D01*
X28867D01*
Y49664D01*
X28881Y49669D01*
X28893Y49700D01*
Y49828D01*
X28932Y49860D01*
X28950Y49856D01*
X29024Y49871D01*
X29087Y49913D01*
X29129Y49976D01*
X29144Y50050D01*
X29129Y50124D01*
X29087Y50187D01*
X29024Y50229D01*
X28950Y50244D01*
X28876Y50229D01*
X28822Y50193D01*
X28778D01*
X28724Y50229D01*
X28650Y50244D01*
X28576Y50229D01*
X28522Y50193D01*
X28478D01*
X28427Y50227D01*
X28420Y50236D01*
X28407Y50277D01*
X28847Y50717D01*
X28900Y50706D01*
X28974Y50721D01*
X29037Y50763D01*
X29079Y50826D01*
X29094Y50900D01*
X29079Y50974D01*
X29037Y51037D01*
X28994Y51066D01*
X29009Y51116D01*
X30286D01*
X30291Y51066D01*
X30243Y51056D01*
X30187Y51019D01*
X30150Y50963D01*
X30137Y50898D01*
X30150Y50832D01*
X30187Y50777D01*
X30243Y50740D01*
X30308Y50727D01*
X30374Y50740D01*
X30429Y50777D01*
X30466Y50832D01*
X30474Y50870D01*
X30523Y50892D01*
X30528Y50889D01*
X30552Y50865D01*
X30553Y50812D01*
X30422Y50681D01*
X30391Y50635D01*
X30385Y50601D01*
X30347D01*
Y50157D01*
X30344Y50143D01*
X30344Y50143D01*
Y49740D01*
X29971Y49367D01*
X29778D01*
Y48933D01*
X29833D01*
Y48617D01*
X29778D01*
Y48183D01*
X30173D01*
Y48617D01*
X30118D01*
Y48933D01*
X30173D01*
Y49165D01*
X30588Y49580D01*
X30588Y49580D01*
X30619Y49627D01*
X30630Y49681D01*
X30659Y49721D01*
X31063D01*
Y49562D01*
X31018Y49532D01*
X30976Y49469D01*
X30961Y49395D01*
X30976Y49321D01*
X31018Y49258D01*
X31081Y49216D01*
X31155Y49202D01*
X31229Y49216D01*
X31292Y49258D01*
X31334Y49321D01*
X31348Y49395D01*
X31334Y49469D01*
X31292Y49532D01*
X31246Y49562D01*
Y49649D01*
X31293Y49664D01*
X31296Y49664D01*
X31354Y49606D01*
X31384Y49586D01*
X31419Y49579D01*
X31578D01*
X31585Y49571D01*
X31600Y49529D01*
X31566Y49479D01*
X31552Y49405D01*
X31566Y49331D01*
X31608Y49268D01*
X31671Y49226D01*
X31745Y49211D01*
X31819Y49226D01*
X31882Y49268D01*
X31924Y49331D01*
X31939Y49405D01*
X31924Y49479D01*
X31882Y49542D01*
X31837Y49572D01*
Y49721D01*
X32553D01*
Y50601D01*
X32515D01*
X32509Y50635D01*
X32478Y50681D01*
X32478Y50681D01*
X32108Y51051D01*
X32062Y51082D01*
X32007Y51093D01*
X32007Y51093D01*
X30743D01*
X30477Y51359D01*
X30430Y51390D01*
X30376Y51401D01*
X30376Y51401D01*
X27741D01*
X27741Y51401D01*
X27687Y51390D01*
X27640Y51359D01*
X27640Y51359D01*
X27592Y51311D01*
X27538Y51328D01*
X27529Y51374D01*
X27487Y51437D01*
X27424Y51479D01*
X27350Y51494D01*
X27276Y51479D01*
X27242Y51456D01*
X27188Y51480D01*
X27179Y51524D01*
X27137Y51587D01*
X27092Y51617D01*
Y52150D01*
X27200D01*
Y52348D01*
X27354Y52502D01*
X27400Y52483D01*
Y52150D01*
X27457D01*
Y51878D01*
X27421Y51824D01*
X27406Y51750D01*
X27421Y51676D01*
X27463Y51613D01*
X27526Y51571D01*
X27600Y51556D01*
X27674Y51571D01*
X27737Y51613D01*
X27779Y51676D01*
X27794Y51750D01*
X27779Y51824D01*
X27743Y51878D01*
Y52150D01*
X27800D01*
Y52207D01*
X28050D01*
Y52150D01*
X28450D01*
Y52483D01*
X28496Y52502D01*
X28650Y52348D01*
Y52150D01*
X29050D01*
Y52550D01*
X28852D01*
X28601Y52801D01*
X28555Y52832D01*
X28500Y52843D01*
D02*
G37*
G36*
X45357Y52544D02*
X44649D01*
X44573Y52534D01*
X44503Y52505D01*
X44442Y52458D01*
X44412Y52419D01*
X44072D01*
Y52488D01*
X43776D01*
Y52326D01*
X43769Y52316D01*
X43756Y52251D01*
X43769Y52187D01*
X43776Y52176D01*
Y52014D01*
X44072D01*
Y52083D01*
X44412D01*
X44442Y52044D01*
X44503Y51998D01*
X44573Y51969D01*
X44649Y51959D01*
X45236D01*
X45357Y51837D01*
Y48697D01*
X45161Y48501D01*
X43510D01*
X43435Y48491D01*
X43409Y48480D01*
X42462D01*
Y47724D01*
X42459Y47705D01*
Y47523D01*
X42093Y47157D01*
X42047Y47096D01*
X42017Y47026D01*
X42007Y46950D01*
Y46536D01*
X41925D01*
Y45596D01*
X42675D01*
Y46536D01*
X42593D01*
Y46829D01*
X42959Y47195D01*
X43005Y47256D01*
X43035Y47326D01*
X43044Y47402D01*
Y47415D01*
X44038D01*
Y47916D01*
X45302D01*
X45378Y47926D01*
X45448Y47955D01*
X45509Y48001D01*
X45555Y48062D01*
X45559Y48071D01*
X45857Y48369D01*
X45903Y48429D01*
X45933Y48500D01*
X45943Y48576D01*
Y51958D01*
X45933Y52034D01*
X45903Y52105D01*
X45857Y52165D01*
X45564Y52458D01*
X45503Y52505D01*
X45433Y52534D01*
X45357Y52544D01*
D02*
G37*
G36*
X43324Y52488D02*
X43028D01*
Y52292D01*
X42238D01*
X42202Y52285D01*
X42173Y52265D01*
X39480Y49572D01*
X39460Y49543D01*
X39453Y49507D01*
Y45616D01*
X39443Y45615D01*
X39348Y45576D01*
X39267Y45513D01*
X39204Y45432D01*
X39165Y45337D01*
X39152Y45235D01*
X39165Y45133D01*
X39204Y45038D01*
X39211Y45030D01*
X38500Y44320D01*
X38175Y43995D01*
X37810D01*
Y44102D01*
X37390D01*
Y43705D01*
X37810D01*
Y43812D01*
X38213D01*
X38249Y43819D01*
X38278Y43839D01*
X38427Y43987D01*
X38473Y43968D01*
Y43655D01*
X38175D01*
Y42875D01*
X38955D01*
Y43655D01*
X38657D01*
Y44217D01*
X39340Y44901D01*
X39348Y44894D01*
X39443Y44855D01*
X39545Y44842D01*
X39647Y44855D01*
X39742Y44894D01*
X39823Y44957D01*
X39886Y45038D01*
X39925Y45133D01*
X39938Y45235D01*
X39925Y45337D01*
X39886Y45432D01*
X39823Y45513D01*
X39742Y45576D01*
X39647Y45615D01*
X39637Y45616D01*
Y49469D01*
X42276Y52108D01*
X43028D01*
Y52014D01*
X43324D01*
Y52488D01*
D02*
G37*
G36*
X28900Y51994D02*
X28826Y51979D01*
X28763Y51937D01*
X28721Y51874D01*
X28706Y51800D01*
X28721Y51726D01*
X28744Y51692D01*
X28717Y51642D01*
X28438D01*
X28383Y51697D01*
X28394Y51750D01*
X28379Y51824D01*
X28337Y51887D01*
X28274Y51929D01*
X28200Y51944D01*
X28126Y51929D01*
X28063Y51887D01*
X28021Y51824D01*
X28006Y51750D01*
X28021Y51676D01*
X28063Y51613D01*
X28126Y51571D01*
X28200Y51556D01*
X28253Y51567D01*
X28335Y51485D01*
X28365Y51465D01*
X28400Y51458D01*
X36062D01*
X37250Y50270D01*
Y48653D01*
X37066D01*
Y47076D01*
X37618D01*
Y48653D01*
X37434D01*
Y50308D01*
X37432Y50318D01*
X37478Y50342D01*
X38038Y49782D01*
Y48653D01*
X37854D01*
Y47076D01*
X38406D01*
Y48653D01*
X38222D01*
Y49820D01*
X38215Y49855D01*
X38195Y49885D01*
X36215Y51865D01*
X36185Y51885D01*
X36150Y51892D01*
X29067D01*
X29037Y51937D01*
X28974Y51979D01*
X28900Y51994D01*
D02*
G37*
G36*
X44072Y51386D02*
X43776D01*
Y50912D01*
X44072D01*
Y51386D01*
D02*
G37*
G36*
X54800Y51433D02*
X54716Y51422D01*
X54639Y51390D01*
X54572Y51338D01*
X54520Y51271D01*
X54488Y51194D01*
X54477Y51110D01*
X54488Y51026D01*
X54520Y50949D01*
X54572Y50882D01*
X54639Y50830D01*
X54716Y50798D01*
X54800Y50787D01*
X54884Y50798D01*
X54961Y50830D01*
X55028Y50882D01*
X55080Y50949D01*
X55112Y51026D01*
X55123Y51110D01*
X55112Y51194D01*
X55080Y51271D01*
X55028Y51338D01*
X54961Y51390D01*
X54884Y51422D01*
X54800Y51433D01*
D02*
G37*
G36*
X49275D02*
X49191Y51422D01*
X49114Y51390D01*
X49047Y51338D01*
X48995Y51271D01*
X48963Y51194D01*
X48952Y51110D01*
X48963Y51026D01*
X48995Y50949D01*
X49047Y50882D01*
X49114Y50830D01*
X49191Y50798D01*
X49275Y50787D01*
X49359Y50798D01*
X49436Y50830D01*
X49503Y50882D01*
X49555Y50949D01*
X49587Y51026D01*
X49598Y51110D01*
X49587Y51194D01*
X49555Y51271D01*
X49503Y51338D01*
X49436Y51390D01*
X49359Y51422D01*
X49275Y51433D01*
D02*
G37*
G36*
X32592Y51073D02*
X32526Y51060D01*
X32471Y51023D01*
X32433Y50967D01*
X32420Y50902D01*
X32433Y50836D01*
X32471Y50781D01*
X32526Y50744D01*
X32592Y50731D01*
X32657Y50744D01*
X32713Y50781D01*
X32750Y50836D01*
X32763Y50902D01*
X32750Y50967D01*
X32713Y51023D01*
X32657Y51060D01*
X32592Y51073D01*
D02*
G37*
G36*
X42420Y51469D02*
X42400D01*
X42306Y51451D01*
X42264Y51422D01*
X42183D01*
Y51331D01*
X42174Y51318D01*
X42155Y51224D01*
X42174Y51131D01*
X42182Y51118D01*
Y50975D01*
X42201Y50881D01*
X42254Y50802D01*
X42407Y50649D01*
Y50494D01*
X42426Y50401D01*
X42462Y50347D01*
Y49620D01*
X44038D01*
Y49705D01*
X44950D01*
X45044Y49724D01*
X45123Y49777D01*
X45176Y49856D01*
X45195Y49950D01*
X45176Y50044D01*
X45123Y50123D01*
X45044Y50176D01*
X44950Y50195D01*
X44038D01*
Y50684D01*
X43608D01*
Y50912D01*
X43698D01*
Y51386D01*
X43402D01*
X43363Y51393D01*
X43324Y51386D01*
X43028D01*
Y50912D01*
X43118D01*
Y50684D01*
X42897D01*
Y50750D01*
X42878Y50844D01*
X42825Y50923D01*
X42672Y51076D01*
Y51217D01*
X42653Y51311D01*
X42617Y51365D01*
Y51422D01*
X42556D01*
X42513Y51451D01*
X42498Y51454D01*
X42420Y51469D01*
D02*
G37*
G36*
X38719Y49698D02*
X38641Y49688D01*
X38569Y49658D01*
X38507Y49611D01*
X38460Y49549D01*
X38430Y49477D01*
X38420Y49400D01*
X38430Y49323D01*
X38460Y49251D01*
X38507Y49189D01*
X38569Y49142D01*
X38641Y49112D01*
X38719Y49102D01*
X38796Y49112D01*
X38868Y49142D01*
X38930Y49189D01*
X38977Y49251D01*
X39007Y49323D01*
X39017Y49400D01*
X39007Y49477D01*
X38977Y49549D01*
X38930Y49611D01*
X38868Y49658D01*
X38796Y49688D01*
X38719Y49698D01*
D02*
G37*
G36*
X36750D02*
X36673Y49688D01*
X36601Y49658D01*
X36539Y49611D01*
X36492Y49549D01*
X36462Y49477D01*
X36452Y49400D01*
X36462Y49323D01*
X36492Y49251D01*
X36539Y49189D01*
X36601Y49142D01*
X36673Y49112D01*
X36750Y49102D01*
X36827Y49112D01*
X36899Y49142D01*
X36961Y49189D01*
X37008Y49251D01*
X37038Y49323D01*
X37048Y49400D01*
X37038Y49477D01*
X37008Y49549D01*
X36961Y49611D01*
X36899Y49658D01*
X36827Y49688D01*
X36750Y49698D01*
D02*
G37*
G36*
X54800Y49073D02*
X54716Y49062D01*
X54639Y49030D01*
X54572Y48978D01*
X54520Y48911D01*
X54488Y48834D01*
X54477Y48750D01*
X54488Y48666D01*
X54520Y48589D01*
X54572Y48522D01*
X54639Y48470D01*
X54716Y48438D01*
X54800Y48427D01*
X54884Y48438D01*
X54961Y48470D01*
X55028Y48522D01*
X55080Y48589D01*
X55112Y48666D01*
X55123Y48750D01*
X55112Y48834D01*
X55080Y48911D01*
X55028Y48978D01*
X54961Y49030D01*
X54884Y49062D01*
X54800Y49073D01*
D02*
G37*
G36*
X49275D02*
X49191Y49062D01*
X49114Y49030D01*
X49047Y48978D01*
X48995Y48911D01*
X48963Y48834D01*
X48952Y48750D01*
X48963Y48666D01*
X48995Y48589D01*
X49047Y48522D01*
X49114Y48470D01*
X49191Y48438D01*
X49275Y48427D01*
X49359Y48438D01*
X49436Y48470D01*
X49503Y48522D01*
X49555Y48589D01*
X49587Y48666D01*
X49598Y48750D01*
X49587Y48834D01*
X49555Y48911D01*
X49503Y48978D01*
X49436Y49030D01*
X49359Y49062D01*
X49275Y49073D01*
D02*
G37*
G36*
X39390Y48653D02*
X38838D01*
Y47278D01*
X37802Y46243D01*
X35750D01*
X35750Y46243D01*
X35695Y46232D01*
X35649Y46201D01*
X35649Y46201D01*
X35041Y45593D01*
X34863D01*
X34843Y45623D01*
X34764Y45676D01*
X34670Y45695D01*
X33870D01*
X33776Y45676D01*
X33697Y45623D01*
X33651Y45554D01*
X33481D01*
X33427Y45544D01*
X33380Y45513D01*
X33380Y45513D01*
X33215Y45347D01*
X32983D01*
Y45293D01*
X32667D01*
Y45347D01*
X32233D01*
Y45303D01*
X31960D01*
Y45370D01*
X31540D01*
Y45328D01*
X31093D01*
X31087Y45337D01*
X31024Y45379D01*
X30950Y45394D01*
X30876Y45379D01*
X30822Y45343D01*
X30528D01*
X30474Y45379D01*
X30400Y45394D01*
X30326Y45379D01*
X30263Y45337D01*
X30221Y45274D01*
X30206Y45200D01*
X30221Y45126D01*
X30257Y45072D01*
Y44900D01*
X30257Y44900D01*
X30268Y44845D01*
X30299Y44799D01*
X30458Y44640D01*
X30471Y44576D01*
X30513Y44513D01*
X30576Y44471D01*
X30650Y44456D01*
X30724Y44471D01*
X30787Y44513D01*
X30829Y44576D01*
X30844Y44650D01*
X30829Y44724D01*
X30787Y44787D01*
X30724Y44829D01*
X30660Y44842D01*
X30543Y44959D01*
Y45057D01*
X30822D01*
X30876Y45021D01*
X30950Y45006D01*
X31024Y45021D01*
X31057Y45043D01*
X31540D01*
Y44972D01*
X31960D01*
Y45018D01*
X32233D01*
Y44953D01*
X32667D01*
Y45007D01*
X32983D01*
Y44953D01*
X33417D01*
Y45146D01*
X33541Y45269D01*
X33709D01*
X33776Y45224D01*
X33870Y45205D01*
X34127D01*
Y44780D01*
X34127Y44780D01*
X34138Y44725D01*
X34169Y44679D01*
X36308Y42540D01*
X36321Y42476D01*
X36363Y42413D01*
X36426Y42371D01*
X36500Y42356D01*
X36574Y42371D01*
X36637Y42413D01*
X36679Y42476D01*
X36694Y42550D01*
X36679Y42624D01*
X36637Y42687D01*
X36574Y42729D01*
X36510Y42742D01*
X34413Y44839D01*
Y45205D01*
X34670D01*
X34764Y45224D01*
X34843Y45277D01*
X34863Y45307D01*
X35100D01*
X35100Y45307D01*
X35155Y45318D01*
X35201Y45349D01*
X35809Y45957D01*
X37861D01*
X37861Y45957D01*
X37916Y45968D01*
X37962Y45999D01*
X39040Y47076D01*
X39390D01*
Y48653D01*
D02*
G37*
G36*
X45467Y47822D02*
X45033D01*
Y47427D01*
X45082D01*
Y46581D01*
X45037Y46536D01*
X44525D01*
Y46234D01*
X43982D01*
Y46536D01*
X43233D01*
Y45596D01*
X43982D01*
Y45898D01*
X44525D01*
Y45596D01*
X45275D01*
Y46298D01*
X45369Y46393D01*
X45405Y46447D01*
X45418Y46512D01*
X45418Y46512D01*
Y47427D01*
X45467D01*
Y47822D01*
D02*
G37*
G36*
X54065Y48850D02*
X52785D01*
Y48269D01*
X52783Y48260D01*
Y48025D01*
X52550Y47792D01*
X52417D01*
X52387Y47837D01*
X52324Y47879D01*
X52250Y47894D01*
X52176Y47879D01*
X52113Y47837D01*
X52071Y47774D01*
X52056Y47700D01*
X52071Y47626D01*
X52113Y47563D01*
X52176Y47521D01*
X52250Y47506D01*
X52324Y47521D01*
X52387Y47563D01*
X52417Y47608D01*
X52588D01*
X52623Y47615D01*
X52653Y47635D01*
X52940Y47922D01*
X52960Y47952D01*
X52967Y47987D01*
Y48170D01*
X53935D01*
X54330Y47775D01*
X54360Y47755D01*
X54395Y47748D01*
X55535D01*
Y47500D01*
X56208D01*
Y45867D01*
X56163Y45837D01*
X56121Y45774D01*
X56106Y45700D01*
X56121Y45626D01*
X56163Y45563D01*
X56226Y45521D01*
X56300Y45506D01*
X56374Y45521D01*
X56437Y45563D01*
X56479Y45626D01*
X56494Y45700D01*
X56479Y45774D01*
X56437Y45837D01*
X56392Y45867D01*
Y47500D01*
X56815D01*
Y48180D01*
X55535D01*
Y47932D01*
X54433D01*
X54065Y48300D01*
Y48850D01*
D02*
G37*
G36*
X54130Y45456D02*
X53411D01*
X53351Y45444D01*
X53300Y45410D01*
X53267Y45360D01*
X53255Y45300D01*
X53267Y45240D01*
X53300Y45190D01*
X53351Y45156D01*
X53411Y45144D01*
X54130D01*
X54189Y45156D01*
X54240Y45190D01*
X54274Y45240D01*
X54286Y45300D01*
X54274Y45360D01*
X54240Y45410D01*
X54189Y45444D01*
X54130Y45456D01*
D02*
G37*
G36*
X50389D02*
X49670D01*
X49611Y45444D01*
X49560Y45410D01*
X49526Y45360D01*
X49514Y45300D01*
X49526Y45240D01*
X49560Y45190D01*
X49611Y45156D01*
X49670Y45144D01*
X50389D01*
X50449Y45156D01*
X50500Y45190D01*
X50533Y45240D01*
X50545Y45300D01*
X50533Y45360D01*
X50500Y45410D01*
X50449Y45444D01*
X50389Y45456D01*
D02*
G37*
G36*
X54130Y44956D02*
X53411D01*
X53351Y44944D01*
X53300Y44910D01*
X53267Y44860D01*
X53255Y44800D01*
X53267Y44740D01*
X53300Y44690D01*
X53351Y44656D01*
X53411Y44644D01*
X54130D01*
X54189Y44656D01*
X54240Y44690D01*
X54274Y44740D01*
X54286Y44800D01*
X54274Y44860D01*
X54240Y44910D01*
X54189Y44944D01*
X54130Y44956D01*
D02*
G37*
G36*
X50389D02*
X49670D01*
X49611Y44944D01*
X49560Y44910D01*
X49526Y44860D01*
X49514Y44800D01*
X49526Y44740D01*
X49560Y44690D01*
X49611Y44656D01*
X49670Y44644D01*
X50389D01*
X50449Y44656D01*
X50500Y44690D01*
X50533Y44740D01*
X50545Y44800D01*
X50533Y44860D01*
X50500Y44910D01*
X50449Y44944D01*
X50389Y44956D01*
D02*
G37*
G36*
X55252Y45210D02*
X54855D01*
Y44790D01*
X54932D01*
Y44509D01*
X54899D01*
Y44439D01*
X54198D01*
X54189Y44444D01*
X54130Y44456D01*
X53411D01*
X53351Y44444D01*
X53300Y44410D01*
X53267Y44360D01*
X53255Y44300D01*
X53267Y44240D01*
X53300Y44190D01*
X53351Y44156D01*
X53411Y44144D01*
X54130D01*
X54175Y44153D01*
X54899D01*
Y44074D01*
X55294D01*
Y44509D01*
X55218D01*
Y44790D01*
X55252D01*
Y45210D01*
D02*
G37*
G36*
X25699Y44860D02*
X25301D01*
Y44440D01*
X25357D01*
Y44135D01*
X25301D01*
Y44105D01*
X24624D01*
X24597Y44171D01*
X24542Y44242D01*
X24471Y44297D01*
X24389Y44331D01*
X24300Y44343D01*
X24211Y44331D01*
X24129Y44297D01*
X24058Y44242D01*
X24003Y44171D01*
X23969Y44089D01*
X23957Y44000D01*
X23969Y43911D01*
X24003Y43829D01*
X24058Y43758D01*
X24129Y43703D01*
X24211Y43669D01*
X24300Y43657D01*
X24389Y43669D01*
X24471Y43703D01*
X24542Y43758D01*
X24590Y43820D01*
X25301D01*
Y43715D01*
X25699D01*
Y44135D01*
X25643D01*
Y44440D01*
X25699D01*
Y44860D01*
D02*
G37*
G36*
X51100Y43994D02*
X51026Y43979D01*
X50972Y43943D01*
X50451D01*
X50449Y43944D01*
X50389Y43956D01*
X49670D01*
X49611Y43944D01*
X49560Y43910D01*
X49536Y43875D01*
X49476Y43815D01*
X48917D01*
Y43889D01*
X48522D01*
Y43455D01*
X48917D01*
Y43529D01*
X49535D01*
X49535Y43529D01*
X49590Y43540D01*
X49636Y43571D01*
X49709Y43644D01*
X50389D01*
X50449Y43656D01*
X50451Y43657D01*
X50972D01*
X51026Y43621D01*
X51100Y43606D01*
X51174Y43621D01*
X51237Y43663D01*
X51279Y43726D01*
X51294Y43800D01*
X51279Y43874D01*
X51237Y43937D01*
X51174Y43979D01*
X51100Y43994D01*
D02*
G37*
G36*
X26700Y45094D02*
X26626Y45079D01*
X26563Y45037D01*
X26521Y44974D01*
X26506Y44900D01*
X26521Y44826D01*
X26563Y44763D01*
X26626Y44721D01*
X26700Y44706D01*
X26753Y44717D01*
X26930Y44540D01*
Y44140D01*
X26632D01*
Y43719D01*
X26582Y43699D01*
X26292Y43989D01*
Y44135D01*
X25894D01*
Y43715D01*
X26018D01*
X26273Y43460D01*
X26252Y43410D01*
X25894D01*
Y43192D01*
X25735Y43033D01*
X25223D01*
X25154Y43101D01*
X25108Y43132D01*
X25053Y43143D01*
X25053Y43143D01*
X24640D01*
Y43340D01*
X23960D01*
Y42660D01*
X24640D01*
Y42857D01*
X24994D01*
X25062Y42789D01*
X25062Y42789D01*
X25109Y42758D01*
X25163Y42747D01*
X25163Y42747D01*
X25794D01*
X25794Y42747D01*
X25849Y42758D01*
X25895Y42789D01*
X26096Y42990D01*
X26162D01*
X26517Y42635D01*
X26520Y42633D01*
X26521Y42626D01*
X26563Y42563D01*
X26626Y42521D01*
X26700Y42506D01*
X26774Y42521D01*
X26837Y42563D01*
X26879Y42626D01*
X26894Y42700D01*
X26879Y42774D01*
X26861Y42801D01*
X26900Y42833D01*
X27513Y42220D01*
X27576Y42178D01*
X27650Y42163D01*
X30316D01*
X30350Y42156D01*
X32000D01*
X32074Y42171D01*
X32137Y42213D01*
X32928Y43004D01*
X32929Y43003D01*
X33011Y42969D01*
X33100Y42957D01*
X33189Y42969D01*
X33271Y43003D01*
X33342Y43058D01*
X33397Y43129D01*
X33431Y43211D01*
X33443Y43300D01*
X33431Y43389D01*
X33397Y43471D01*
X33342Y43542D01*
X33271Y43597D01*
X33189Y43631D01*
X33100Y43643D01*
X33011Y43631D01*
X32929Y43597D01*
X32858Y43542D01*
X32803Y43471D01*
X32772Y43396D01*
X31920Y42544D01*
X30377D01*
X30343Y42551D01*
X27730D01*
X26671Y43610D01*
X26691Y43660D01*
X27412D01*
Y44140D01*
X27114D01*
Y44578D01*
X27107Y44613D01*
X27087Y44643D01*
X26883Y44847D01*
X26894Y44900D01*
X26879Y44974D01*
X26837Y45037D01*
X26774Y45079D01*
X26700Y45094D01*
D02*
G37*
G36*
X52624Y50722D02*
X48730D01*
X48695Y50715D01*
X48665Y50695D01*
X45825Y47855D01*
X45805Y47825D01*
X45798Y47790D01*
Y44890D01*
X45748Y44863D01*
X45724Y44879D01*
X45650Y44894D01*
X45576Y44879D01*
X45513Y44837D01*
X45471Y44774D01*
X45456Y44700D01*
X45471Y44626D01*
X45513Y44563D01*
X45576Y44521D01*
X45650Y44506D01*
X45658Y44458D01*
Y36878D01*
X44422Y35642D01*
X39100D01*
X39065Y35635D01*
X39035Y35615D01*
X38485Y35065D01*
X38465Y35035D01*
X38458Y35000D01*
Y33926D01*
X38408Y33916D01*
X38394Y33949D01*
X38331Y34031D01*
X38249Y34094D01*
X38244Y34097D01*
Y35020D01*
X38980Y35756D01*
X41450D01*
X41524Y35771D01*
X41587Y35813D01*
X42155Y36381D01*
X42197Y36444D01*
X42212Y36518D01*
Y38018D01*
X42771Y38577D01*
X42864D01*
X42877Y38557D01*
X42956Y38504D01*
X43050Y38485D01*
X43144Y38504D01*
X43223Y38557D01*
X43276Y38636D01*
X43295Y38730D01*
Y38936D01*
X43950D01*
X44346Y38540D01*
X44409Y38498D01*
X44483Y38483D01*
X44983D01*
Y38480D01*
X45006D01*
Y37500D01*
X44983D01*
Y37105D01*
X45417D01*
Y37500D01*
X45394D01*
Y38480D01*
X45417D01*
Y38875D01*
X44983D01*
Y38871D01*
X44563D01*
X44304Y39130D01*
X44837Y39663D01*
X44879Y39726D01*
X44894Y39800D01*
Y40298D01*
X44899Y40300D01*
X44981Y40363D01*
X45044Y40446D01*
X45084Y40542D01*
X45098Y40644D01*
Y40959D01*
X45084Y41062D01*
X45044Y41158D01*
X44981Y41241D01*
X44899Y41304D01*
X44803Y41344D01*
X44700Y41357D01*
X44597Y41344D01*
X44501Y41304D01*
X44419Y41241D01*
X44356Y41158D01*
X44316Y41062D01*
X44302Y40959D01*
Y40644D01*
X44316Y40542D01*
X44356Y40446D01*
X44419Y40363D01*
X44501Y40300D01*
X44506Y40298D01*
Y39880D01*
X43950Y39324D01*
X43295D01*
Y39530D01*
X43276Y39624D01*
X43223Y39703D01*
X43144Y39756D01*
X43050Y39775D01*
X42956Y39756D01*
X42877Y39703D01*
X42824Y39624D01*
X42805Y39530D01*
Y38964D01*
X42690D01*
X42616Y38949D01*
X42553Y38907D01*
X41881Y38235D01*
X41839Y38173D01*
X41825Y38098D01*
Y36599D01*
X41370Y36144D01*
X38900D01*
X38826Y36129D01*
X38763Y36087D01*
X37913Y35237D01*
X37871Y35174D01*
X37856Y35100D01*
Y34097D01*
X37851Y34094D01*
X37769Y34031D01*
X37706Y33949D01*
X37666Y33853D01*
X37652Y33750D01*
X37666Y33647D01*
X37706Y33551D01*
X37769Y33469D01*
X37851Y33406D01*
X37947Y33366D01*
X38050Y33352D01*
X38153Y33366D01*
X38249Y33406D01*
X38331Y33469D01*
X38394Y33551D01*
X38408Y33584D01*
X38458Y33574D01*
Y32926D01*
X38408Y32916D01*
X38394Y32949D01*
X38331Y33031D01*
X38249Y33094D01*
X38153Y33134D01*
X38050Y33148D01*
X37947Y33134D01*
X37851Y33094D01*
X37769Y33031D01*
X37740Y32993D01*
X37690Y32990D01*
X37365Y33315D01*
X37335Y33335D01*
X37300Y33342D01*
X37226D01*
X37216Y33392D01*
X37249Y33406D01*
X37331Y33469D01*
X37394Y33551D01*
X37434Y33647D01*
X37448Y33750D01*
X37434Y33853D01*
X37394Y33949D01*
X37331Y34031D01*
X37249Y34094D01*
X37153Y34134D01*
X37050Y34148D01*
X36947Y34134D01*
X36942Y34132D01*
X36334Y34740D01*
Y37491D01*
X36319Y37565D01*
X36277Y37628D01*
X35528Y38377D01*
X35465Y38419D01*
X35391Y38434D01*
X32077D01*
X32067Y38480D01*
X32067D01*
Y38875D01*
X31861D01*
X31843Y38878D01*
X31646D01*
X31344Y39180D01*
Y40213D01*
X31381Y40248D01*
X31388Y40247D01*
X31490Y40260D01*
X31586Y40300D01*
X31669Y40363D01*
X31732Y40446D01*
X31772Y40542D01*
X31785Y40644D01*
Y40959D01*
X31772Y41062D01*
X31732Y41158D01*
X31669Y41241D01*
X31586Y41304D01*
X31490Y41344D01*
X31428Y41352D01*
X31394Y41356D01*
X31398Y41406D01*
X33631D01*
Y41350D01*
X33431D01*
Y40246D01*
X34219D01*
Y41350D01*
X34019D01*
Y41406D01*
X35815D01*
X35818Y41356D01*
X35785Y41352D01*
X35722Y41344D01*
X35626Y41304D01*
X35544Y41241D01*
X35481Y41158D01*
X35441Y41062D01*
X35427Y40959D01*
Y40644D01*
X35441Y40542D01*
X35481Y40446D01*
X35544Y40363D01*
X35626Y40300D01*
X35631Y40298D01*
Y39896D01*
X35098Y39362D01*
X34420D01*
Y39530D01*
X34401Y39624D01*
X34348Y39703D01*
X34269Y39756D01*
X34175Y39775D01*
X34081Y39756D01*
X34002Y39703D01*
X33949Y39624D01*
X33930Y39530D01*
Y39324D01*
X33230D01*
X33156Y39309D01*
X33093Y39267D01*
X33051Y39204D01*
X33036Y39130D01*
X33051Y39056D01*
X33093Y38993D01*
X33156Y38951D01*
X33230Y38936D01*
X33930D01*
Y38730D01*
X33949Y38636D01*
X34002Y38557D01*
X34081Y38504D01*
X34175Y38485D01*
X34269Y38504D01*
X34348Y38557D01*
X34401Y38636D01*
X34420Y38730D01*
Y38974D01*
X36143D01*
X36161Y38978D01*
X36367D01*
Y38982D01*
X37160D01*
X37176Y38971D01*
X37250Y38956D01*
X37324Y38971D01*
X37387Y39013D01*
X37429Y39076D01*
X37444Y39150D01*
X37429Y39224D01*
X37387Y39287D01*
X37361Y39313D01*
X37299Y39355D01*
X37224Y39369D01*
X36367D01*
Y39373D01*
X35933D01*
Y39362D01*
X35711D01*
X35692Y39408D01*
X35962Y39678D01*
X36004Y39741D01*
X36019Y39815D01*
Y40298D01*
X36024Y40300D01*
X36106Y40363D01*
X36169Y40446D01*
X36209Y40542D01*
X36223Y40644D01*
Y40959D01*
X36209Y41062D01*
X36169Y41158D01*
X36106Y41241D01*
X36024Y41304D01*
X35928Y41344D01*
X35865Y41352D01*
X35832Y41356D01*
X35835Y41406D01*
X38321D01*
X38348Y41356D01*
X38343Y41350D01*
X37868D01*
Y40246D01*
X38657D01*
Y41076D01*
X39044Y41463D01*
X39326Y41745D01*
X39326Y41745D01*
X40462Y42881D01*
X40535Y42872D01*
X40637Y42885D01*
X40732Y42924D01*
X40813Y42987D01*
X40876Y43068D01*
X40915Y43163D01*
X40928Y43265D01*
X40915Y43367D01*
X40876Y43462D01*
X40813Y43543D01*
X40732Y43606D01*
X40729Y43607D01*
Y44021D01*
X41854D01*
Y43323D01*
X41831D01*
Y42928D01*
X42265D01*
Y42932D01*
X42867D01*
Y42928D01*
X43301D01*
Y43323D01*
X42867D01*
Y43319D01*
X42265D01*
Y43323D01*
X42242D01*
Y43864D01*
X42675D01*
Y44804D01*
X41925D01*
Y44409D01*
X40535D01*
X40461Y44394D01*
X40398Y44352D01*
X40356Y44289D01*
X40341Y44215D01*
Y43607D01*
X40338Y43606D01*
X40257Y43543D01*
X40194Y43462D01*
X40155Y43367D01*
X40142Y43265D01*
X40155Y43163D01*
X40167Y43134D01*
X39052Y42019D01*
X39052Y42019D01*
X38827Y41794D01*
X30032D01*
X29958Y41779D01*
X29895Y41737D01*
X29508Y41350D01*
X28993D01*
Y40394D01*
X28947Y40375D01*
X27707Y41615D01*
X27677Y41635D01*
X27642Y41642D01*
X24238D01*
X23342Y42538D01*
Y46762D01*
X23689Y47109D01*
X25311D01*
X25346Y47116D01*
X25376Y47136D01*
X25697Y47456D01*
X25750Y47446D01*
X25824Y47460D01*
X25887Y47502D01*
X25929Y47565D01*
X25944Y47639D01*
X25933Y47693D01*
X26475Y48235D01*
X26525Y48214D01*
Y47998D01*
X26390D01*
Y47450D01*
X26259Y47319D01*
X26228Y47273D01*
X26217Y47218D01*
X26217Y47218D01*
Y46547D01*
X26143D01*
Y46493D01*
X25717D01*
Y46547D01*
X25283D01*
Y46543D01*
X24630D01*
X24597Y46621D01*
X24542Y46692D01*
X24471Y46747D01*
X24389Y46781D01*
X24300Y46793D01*
X24211Y46781D01*
X24129Y46747D01*
X24058Y46692D01*
X24003Y46621D01*
X23969Y46539D01*
X23957Y46450D01*
X23969Y46361D01*
X24003Y46279D01*
X24058Y46208D01*
X24129Y46153D01*
X24211Y46119D01*
X24300Y46107D01*
X24389Y46119D01*
X24471Y46153D01*
X24542Y46208D01*
X24581Y46257D01*
X25283D01*
Y46153D01*
X25515D01*
X25807Y45861D01*
Y45391D01*
X25807Y45391D01*
X25818Y45337D01*
X25849Y45290D01*
X25950Y45189D01*
Y44860D01*
X25894D01*
Y44440D01*
X26292D01*
Y44860D01*
X26236D01*
Y45248D01*
X26236Y45248D01*
X26225Y45303D01*
X26194Y45349D01*
X26093Y45451D01*
Y45920D01*
X26082Y45974D01*
X26051Y46021D01*
X26051Y46021D01*
X25910Y46161D01*
X25930Y46207D01*
X26143D01*
Y46153D01*
X26577D01*
Y46207D01*
X27003D01*
Y46153D01*
X27437D01*
Y46207D01*
X27863D01*
Y46153D01*
X28297D01*
Y46547D01*
X27863D01*
Y46493D01*
X27437D01*
Y46547D01*
X27003D01*
Y46493D01*
X26577D01*
Y46547D01*
X26503D01*
Y47159D01*
X26592Y47248D01*
X26946D01*
Y47998D01*
X26811D01*
Y48199D01*
X27151Y48539D01*
X27151Y48539D01*
X27151Y48540D01*
X27218Y48550D01*
X27228Y48542D01*
Y48207D01*
X27237Y48162D01*
X27262Y48124D01*
X27554Y47832D01*
Y47248D01*
X27903D01*
X27912Y47206D01*
X27937Y47168D01*
X28723Y46382D01*
Y46153D01*
X29157D01*
Y46233D01*
X29583D01*
Y46153D01*
X29838D01*
X29858Y46139D01*
X29902Y46130D01*
X31162D01*
Y45715D01*
X32738D01*
Y46780D01*
X31162D01*
Y46365D01*
X30017D01*
Y46547D01*
X29583D01*
Y46467D01*
X29157D01*
Y46547D01*
X28889D01*
X28137Y47299D01*
Y47435D01*
X28128Y47480D01*
X28110Y47508D01*
Y47998D01*
X27720D01*
X27463Y48256D01*
Y48969D01*
X27454Y49014D01*
X27440Y49034D01*
Y49184D01*
X27294D01*
X27250Y49184D01*
Y49184D01*
X27244D01*
Y49184D01*
X27053D01*
Y49184D01*
X27047D01*
Y49184D01*
X26856D01*
Y49184D01*
X26850D01*
Y49184D01*
X26660D01*
Y48754D01*
X26663D01*
Y48682D01*
X25803Y47822D01*
X25750Y47833D01*
X25676Y47818D01*
X25613Y47776D01*
X25571Y47713D01*
X25556Y47639D01*
X25567Y47586D01*
X25273Y47292D01*
X23651D01*
X23615Y47285D01*
X23586Y47265D01*
X23185Y46865D01*
X23165Y46835D01*
X23158Y46800D01*
Y42500D01*
X23165Y42465D01*
X23185Y42435D01*
X24135Y41485D01*
X24165Y41465D01*
X24200Y41458D01*
X27604D01*
X28858Y40204D01*
Y38717D01*
X28813Y38687D01*
X28771Y38624D01*
X28756Y38550D01*
X28771Y38476D01*
X28813Y38413D01*
X28876Y38371D01*
X28950Y38356D01*
X29024Y38371D01*
X29087Y38413D01*
X29129Y38476D01*
X29144Y38550D01*
X29129Y38624D01*
X29087Y38687D01*
X29042Y38717D01*
Y40242D01*
X29045Y40246D01*
X29782D01*
Y41076D01*
X30112Y41406D01*
X31377D01*
X31381Y41356D01*
X31347Y41352D01*
X31285Y41344D01*
X31189Y41304D01*
X31106Y41241D01*
X31043Y41158D01*
X31003Y41062D01*
X30990Y40959D01*
Y40644D01*
X31003Y40542D01*
X31038Y40458D01*
X31013Y40433D01*
X30971Y40371D01*
X30956Y40296D01*
Y39281D01*
X29982D01*
Y39530D01*
X29964Y39624D01*
X29911Y39703D01*
X29831Y39756D01*
X29738Y39775D01*
X29644Y39756D01*
X29564Y39703D01*
X29511Y39624D01*
X29493Y39530D01*
Y38730D01*
X29511Y38636D01*
X29564Y38557D01*
X29644Y38504D01*
X29738Y38485D01*
X29831Y38504D01*
X29911Y38557D01*
X29964Y38636D01*
X29982Y38730D01*
Y38894D01*
X31082D01*
X31428Y38548D01*
X31491Y38506D01*
X31565Y38491D01*
X31633D01*
Y38480D01*
X31656D01*
Y38240D01*
Y37500D01*
X31633D01*
Y37105D01*
X32067D01*
Y37500D01*
X32044D01*
Y38046D01*
X33577D01*
X33598Y37996D01*
X31995Y36394D01*
X31830D01*
X30098Y38126D01*
X30036Y38168D01*
X29961Y38182D01*
X27494D01*
Y38477D01*
X27517D01*
Y38872D01*
X27083D01*
Y38868D01*
X26621D01*
X26359Y39130D01*
X27087Y39858D01*
X27129Y39920D01*
X27144Y39995D01*
Y40298D01*
X27149Y40300D01*
X27231Y40363D01*
X27294Y40446D01*
X27334Y40542D01*
X27348Y40644D01*
Y40959D01*
X27334Y41062D01*
X27294Y41158D01*
X27231Y41241D01*
X27149Y41304D01*
X27053Y41344D01*
X26950Y41357D01*
X26847Y41344D01*
X26751Y41304D01*
X26669Y41241D01*
X26606Y41158D01*
X26566Y41062D01*
X26552Y40959D01*
Y40644D01*
X26566Y40542D01*
X26606Y40446D01*
X26669Y40363D01*
X26751Y40300D01*
X26756Y40298D01*
Y40075D01*
X26005Y39324D01*
X25545D01*
Y39530D01*
X25526Y39624D01*
X25473Y39703D01*
X25394Y39756D01*
X25300Y39775D01*
X25206Y39756D01*
X25127Y39703D01*
X25074Y39624D01*
X25055Y39530D01*
Y38730D01*
X25074Y38636D01*
X25127Y38557D01*
X25206Y38504D01*
X25300Y38485D01*
X25394Y38504D01*
X25473Y38557D01*
X25526Y38636D01*
X25545Y38730D01*
Y38936D01*
X26005D01*
X26404Y38537D01*
X26467Y38495D01*
X26541Y38481D01*
X27083D01*
Y38477D01*
X27106D01*
Y37989D01*
Y37500D01*
X27083D01*
Y37105D01*
X27517D01*
Y37500D01*
X27494D01*
Y37795D01*
X29881D01*
X31613Y36063D01*
X31676Y36021D01*
X31750Y36006D01*
X32076D01*
X32150Y36021D01*
X32213Y36063D01*
X33856Y37706D01*
X35170D01*
X35606Y37270D01*
Y36194D01*
X35556Y36173D01*
X35233Y36497D01*
X35244Y36550D01*
X35229Y36624D01*
X35187Y36687D01*
X35124Y36729D01*
X35050Y36744D01*
X34976Y36729D01*
X34913Y36687D01*
X34900Y36667D01*
X34850D01*
X34837Y36687D01*
X34774Y36729D01*
X34700Y36744D01*
X34626Y36729D01*
X34563Y36687D01*
X34521Y36624D01*
X34506Y36550D01*
X34521Y36476D01*
X34533Y36458D01*
X34285Y36211D01*
X34265Y36181D01*
X34258Y36146D01*
Y33100D01*
X34265Y33065D01*
X34285Y33035D01*
X34539Y32781D01*
X34569Y32761D01*
X34604Y32754D01*
X34656D01*
Y32356D01*
X35444D01*
Y33144D01*
X34656D01*
Y32995D01*
X34606Y32974D01*
X34442Y33138D01*
Y36108D01*
X34692Y36358D01*
X34700Y36356D01*
X34774Y36371D01*
X34837Y36413D01*
X34850Y36432D01*
X34900D01*
X34913Y36413D01*
X34976Y36371D01*
X35050Y36356D01*
X35103Y36367D01*
X35419Y36051D01*
Y33999D01*
X35369Y33982D01*
X35331Y34031D01*
X35249Y34094D01*
X35153Y34134D01*
X35050Y34148D01*
X34947Y34134D01*
X34851Y34094D01*
X34769Y34031D01*
X34706Y33949D01*
X34666Y33853D01*
X34652Y33750D01*
X34666Y33647D01*
X34706Y33551D01*
X34769Y33469D01*
X34851Y33406D01*
X34947Y33366D01*
X35050Y33352D01*
X35153Y33366D01*
X35249Y33406D01*
X35331Y33469D01*
X35369Y33518D01*
X35419Y33501D01*
Y33289D01*
X35426Y33254D01*
X35446Y33224D01*
X35712Y32958D01*
X35706Y32949D01*
X35666Y32853D01*
X35652Y32750D01*
X35666Y32647D01*
X35706Y32551D01*
X35769Y32469D01*
X35851Y32406D01*
X35947Y32366D01*
X36050Y32352D01*
X36153Y32366D01*
X36174Y32375D01*
X36202Y32332D01*
X36162Y32292D01*
X35300D01*
X35265Y32285D01*
X35235Y32265D01*
X31950Y28980D01*
X30755D01*
X30736Y29026D01*
X30950Y29240D01*
X31145D01*
Y29660D01*
X31089D01*
Y30840D01*
X31145D01*
Y31260D01*
X30748D01*
Y30840D01*
X30804D01*
Y29660D01*
X30748D01*
Y29442D01*
X30598Y29292D01*
X30552Y29312D01*
Y29660D01*
X30357D01*
X29866Y30151D01*
Y33781D01*
X29866Y33781D01*
X29855Y33836D01*
X29824Y33882D01*
X29824Y33882D01*
X28910Y34796D01*
Y34992D01*
X28490D01*
Y34936D01*
X27095D01*
Y35080D01*
X27076Y35174D01*
X27023Y35253D01*
X26944Y35306D01*
X26850Y35325D01*
X26756Y35306D01*
X26677Y35253D01*
X26624Y35174D01*
X26605Y35080D01*
Y34280D01*
X26624Y34186D01*
X26677Y34107D01*
X26756Y34054D01*
X26850Y34035D01*
X26944Y34054D01*
X27023Y34107D01*
X27076Y34186D01*
X27095Y34280D01*
Y34650D01*
X28490D01*
Y34594D01*
X28708D01*
X28858Y34445D01*
X28838Y34399D01*
X28490D01*
Y34203D01*
X27467Y33180D01*
X27400Y33194D01*
X27326Y33179D01*
X27272Y33143D01*
X27057D01*
X27023Y33193D01*
X26944Y33246D01*
X26850Y33265D01*
X26756Y33246D01*
X26677Y33193D01*
X26624Y33114D01*
X26605Y33020D01*
Y32220D01*
X26624Y32126D01*
X26677Y32047D01*
X26756Y31994D01*
X26850Y31975D01*
X26944Y31994D01*
X27023Y32047D01*
X27076Y32126D01*
X27095Y32220D01*
Y32857D01*
X27272D01*
X27326Y32821D01*
X27400Y32806D01*
X27474Y32821D01*
X27537Y32863D01*
X27540Y32867D01*
X27543Y32868D01*
X27590Y32899D01*
X28692Y34001D01*
X28910D01*
Y34327D01*
X28956Y34346D01*
X29580Y33722D01*
Y30092D01*
X29580Y30092D01*
X29591Y30037D01*
X29622Y29991D01*
X30155Y29458D01*
Y29240D01*
X30481D01*
X30500Y29194D01*
X30449Y29143D01*
X29059D01*
X29052Y29190D01*
X29052D01*
Y29610D01*
X28857D01*
X27977Y30489D01*
Y30831D01*
X27977Y30832D01*
X27975Y30845D01*
Y31536D01*
X27225D01*
Y30596D01*
X27692D01*
Y30430D01*
X27692Y30430D01*
X27703Y30375D01*
X27734Y30329D01*
X28655Y29408D01*
Y29339D01*
X28609Y29320D01*
X28494Y29435D01*
X28447Y29466D01*
X28393Y29477D01*
X28393Y29477D01*
X27975D01*
Y29804D01*
X27225D01*
Y29458D01*
X26548D01*
X26526Y29512D01*
X26463Y29593D01*
X26382Y29656D01*
X26287Y29695D01*
X26185Y29708D01*
X26083Y29695D01*
X25988Y29656D01*
X25907Y29593D01*
X25844Y29512D01*
X25805Y29417D01*
X25792Y29315D01*
X25805Y29213D01*
X25844Y29118D01*
X25907Y29037D01*
X25988Y28974D01*
X26083Y28935D01*
X26185Y28922D01*
X26287Y28935D01*
X26382Y28974D01*
X26463Y29037D01*
X26526Y29118D01*
X26548Y29172D01*
X27225D01*
Y28864D01*
X27975D01*
Y29191D01*
X28334D01*
X28626Y28899D01*
X28626Y28899D01*
X28672Y28868D01*
X28727Y28857D01*
X28727Y28857D01*
X29075D01*
X29101Y28807D01*
X29086Y28784D01*
X29071Y28710D01*
X29086Y28636D01*
X29128Y28573D01*
X29191Y28531D01*
X29265Y28516D01*
X29339Y28531D01*
X29402Y28573D01*
X29432Y28618D01*
X29805D01*
X29838Y28585D01*
X29868Y28565D01*
X29903Y28558D01*
X30427D01*
X30462Y28565D01*
X30492Y28585D01*
X30703Y28796D01*
X31760D01*
X31787Y28746D01*
X31771Y28722D01*
X31756Y28648D01*
X31771Y28574D01*
X31813Y28511D01*
X31876Y28469D01*
X31950Y28454D01*
X32024Y28469D01*
X32087Y28511D01*
X32129Y28574D01*
X32144Y28648D01*
X32133Y28701D01*
X33192Y29760D01*
X33238Y29741D01*
Y26068D01*
X32162Y24992D01*
X24100D01*
X24065Y24985D01*
X24035Y24965D01*
X23735Y24665D01*
X23715Y24635D01*
X23708Y24600D01*
Y23102D01*
X23715Y23067D01*
X23735Y23037D01*
X25087Y21685D01*
X25117Y21665D01*
X25152Y21658D01*
X28380D01*
X28415Y21665D01*
X28445Y21685D01*
X28935Y22175D01*
X28936Y22174D01*
X29030Y22155D01*
X29230D01*
X29324Y22174D01*
X29403Y22227D01*
X29456Y22306D01*
X29475Y22400D01*
X29456Y22494D01*
X29403Y22573D01*
X29324Y22626D01*
X29230Y22645D01*
X29030D01*
X28936Y22626D01*
X28857Y22573D01*
X28804Y22494D01*
X28785Y22400D01*
X28804Y22306D01*
X28805Y22305D01*
X28342Y21842D01*
X27882D01*
X27862Y21892D01*
X28145Y22175D01*
X28146Y22174D01*
X28240Y22155D01*
X28440D01*
X28534Y22174D01*
X28613Y22227D01*
X28666Y22306D01*
X28685Y22400D01*
X28666Y22494D01*
X28613Y22573D01*
X28534Y22626D01*
X28440Y22645D01*
X28240D01*
X28146Y22626D01*
X28067Y22573D01*
X28014Y22494D01*
X27995Y22400D01*
X28014Y22306D01*
X28015Y22305D01*
X27722Y22012D01*
X25218D01*
X24032Y23198D01*
Y24504D01*
X24196Y24668D01*
X32258D01*
X32293Y24675D01*
X32323Y24695D01*
X33472Y25844D01*
X33518Y25825D01*
Y24702D01*
X32833Y24017D01*
X32791Y24045D01*
X32796Y24057D01*
X32808Y24150D01*
X32796Y24243D01*
X32760Y24329D01*
X32703Y24403D01*
X32629Y24460D01*
X32543Y24496D01*
X32450Y24508D01*
X32357Y24496D01*
X32271Y24460D01*
X32197Y24403D01*
X32140Y24329D01*
X32104Y24243D01*
X32092Y24150D01*
X32104Y24057D01*
X32140Y23971D01*
X32197Y23897D01*
X32210Y23887D01*
X32193Y23837D01*
X31707D01*
X31690Y23887D01*
X31703Y23897D01*
X31760Y23971D01*
X31796Y24057D01*
X31808Y24150D01*
X31796Y24243D01*
X31760Y24329D01*
X31703Y24403D01*
X31629Y24460D01*
X31543Y24496D01*
X31450Y24508D01*
X31357Y24496D01*
X31271Y24460D01*
X31197Y24403D01*
X31140Y24329D01*
X31104Y24243D01*
X31092Y24150D01*
X31104Y24057D01*
X31140Y23971D01*
X31197Y23897D01*
X31210Y23887D01*
X31193Y23837D01*
X30707D01*
X30690Y23887D01*
X30703Y23897D01*
X30760Y23971D01*
X30796Y24057D01*
X30808Y24150D01*
X30796Y24243D01*
X30760Y24329D01*
X30703Y24403D01*
X30629Y24460D01*
X30543Y24496D01*
X30450Y24508D01*
X30357Y24496D01*
X30271Y24460D01*
X30197Y24403D01*
X30140Y24329D01*
X30104Y24243D01*
X30092Y24150D01*
X30104Y24057D01*
X30140Y23971D01*
X30197Y23897D01*
X30210Y23887D01*
X30193Y23837D01*
X29707D01*
X29690Y23887D01*
X29703Y23897D01*
X29760Y23971D01*
X29796Y24057D01*
X29808Y24150D01*
X29796Y24243D01*
X29760Y24329D01*
X29703Y24403D01*
X29629Y24460D01*
X29543Y24496D01*
X29450Y24508D01*
X29357Y24496D01*
X29271Y24460D01*
X29197Y24403D01*
X29140Y24329D01*
X29104Y24243D01*
X29092Y24150D01*
X29104Y24057D01*
X29140Y23971D01*
X29197Y23897D01*
X29210Y23887D01*
X29193Y23837D01*
X28707D01*
X28690Y23887D01*
X28703Y23897D01*
X28760Y23971D01*
X28796Y24057D01*
X28808Y24150D01*
X28796Y24243D01*
X28760Y24329D01*
X28703Y24403D01*
X28629Y24460D01*
X28543Y24496D01*
X28450Y24508D01*
X28357Y24496D01*
X28271Y24460D01*
X28197Y24403D01*
X28140Y24329D01*
X28104Y24243D01*
X28092Y24150D01*
X28104Y24057D01*
X28140Y23971D01*
X28197Y23897D01*
X28210Y23887D01*
X28207Y23861D01*
X28195Y23835D01*
X28170Y23830D01*
X28140Y23810D01*
X26955Y22625D01*
X26954Y22626D01*
X26860Y22645D01*
X26660D01*
X26566Y22626D01*
X26487Y22573D01*
X26434Y22494D01*
X26415Y22400D01*
X26434Y22306D01*
X26487Y22227D01*
X26566Y22174D01*
X26660Y22155D01*
X26860D01*
X26954Y22174D01*
X27033Y22227D01*
X27086Y22306D01*
X27105Y22400D01*
X27086Y22494D01*
X27085Y22495D01*
X28243Y23653D01*
X28517D01*
X28536Y23607D01*
X27685Y22756D01*
X27665Y22727D01*
X27665Y22726D01*
X27658Y22691D01*
X27658Y22691D01*
X27646Y22648D01*
X27608Y22645D01*
X27450D01*
X27356Y22626D01*
X27277Y22573D01*
X27224Y22494D01*
X27205Y22400D01*
X27224Y22306D01*
X27277Y22227D01*
X27356Y22174D01*
X27450Y22155D01*
X27650D01*
X27744Y22174D01*
X27823Y22227D01*
X27876Y22306D01*
X27895Y22400D01*
X27876Y22494D01*
X27832Y22560D01*
X27835Y22565D01*
X27842Y22600D01*
Y22653D01*
X28702Y23513D01*
X32749D01*
X32784Y23520D01*
X32814Y23540D01*
X33815Y24541D01*
X33835Y24571D01*
X33842Y24606D01*
Y29618D01*
X35622Y31398D01*
X43840D01*
X43875Y31405D01*
X43905Y31425D01*
X44713Y32233D01*
X44768Y32222D01*
X44770Y32220D01*
X44756Y32150D01*
X44771Y32076D01*
X44813Y32013D01*
X44876Y31971D01*
X44950Y31956D01*
X45024Y31971D01*
X45087Y32013D01*
X45129Y32076D01*
X45142Y32140D01*
X46559Y33557D01*
X49511D01*
Y33167D01*
X49456D01*
Y32733D01*
X49511D01*
Y32395D01*
X49456D01*
Y31961D01*
X49811D01*
X49831Y31911D01*
X49762Y31842D01*
X48900D01*
X48865Y31835D01*
X48835Y31815D01*
X48646Y31625D01*
X48626Y31596D01*
X48619Y31560D01*
Y31478D01*
X48519Y31378D01*
X48473Y31397D01*
Y31684D01*
X48376D01*
X48351Y31734D01*
X48379Y31776D01*
X48394Y31850D01*
X48379Y31924D01*
X48360Y31952D01*
X48387Y32002D01*
X48495D01*
Y32423D01*
X48393D01*
X48376Y32469D01*
X48376Y32473D01*
X48437Y32513D01*
X48479Y32576D01*
X48494Y32650D01*
X48479Y32724D01*
X48468Y32740D01*
X48495Y32790D01*
X48495D01*
Y33210D01*
X48228D01*
X48113Y33325D01*
X48083Y33345D01*
X48048Y33352D01*
X47327D01*
X47317Y33367D01*
X47254Y33409D01*
X47180Y33424D01*
X47106Y33409D01*
X47043Y33367D01*
X47001Y33304D01*
X46986Y33230D01*
X47001Y33156D01*
X47043Y33093D01*
X47106Y33051D01*
X47180Y33036D01*
X47254Y33051D01*
X47317Y33093D01*
X47359Y33156D01*
X47361Y33168D01*
X47505D01*
Y32920D01*
X46795Y32210D01*
X46775Y32180D01*
X46768Y32145D01*
Y30685D01*
X46775Y30650D01*
X46795Y30621D01*
X47343Y30073D01*
X47373Y30053D01*
X47385Y30050D01*
X47505Y29930D01*
Y29640D01*
X47612D01*
Y29518D01*
X47619Y29483D01*
X47639Y29453D01*
X49261Y27831D01*
X49261Y27831D01*
X49316Y27775D01*
X49346Y27756D01*
X49381Y27749D01*
X49580D01*
X49615Y27756D01*
X49645Y27775D01*
X50015Y28146D01*
X50035Y28175D01*
X50042Y28211D01*
Y28362D01*
X50170Y28490D01*
X50216Y28471D01*
Y28292D01*
X50737D01*
X50742Y28242D01*
X50676Y28229D01*
X50613Y28187D01*
X50571Y28124D01*
X50556Y28050D01*
X50571Y27976D01*
X50613Y27913D01*
X50658Y27883D01*
Y26467D01*
X50613Y26437D01*
X50571Y26374D01*
X50556Y26300D01*
X50571Y26226D01*
X50613Y26163D01*
X50676Y26121D01*
X50750Y26106D01*
X50824Y26121D01*
X50887Y26163D01*
X50929Y26226D01*
X50944Y26300D01*
X50929Y26374D01*
X50887Y26437D01*
X50842Y26467D01*
Y27883D01*
X50887Y27913D01*
X50929Y27976D01*
X50944Y28050D01*
X50929Y28124D01*
X50887Y28187D01*
X50824Y28229D01*
X50758Y28242D01*
X50763Y28292D01*
X51083D01*
Y28608D01*
X51114Y28646D01*
X51365Y28897D01*
X51385Y28926D01*
X51392Y28961D01*
Y32300D01*
X51385Y32335D01*
X51365Y32365D01*
X51215Y32515D01*
X51185Y32535D01*
X51150Y32542D01*
X51083D01*
Y32608D01*
X50216D01*
Y32292D01*
X50185Y32265D01*
X49901Y31981D01*
X49851Y32002D01*
Y32395D01*
X49796D01*
Y32733D01*
X49851D01*
Y32807D01*
X50216D01*
Y32792D01*
X51083D01*
Y33108D01*
X50216D01*
Y33093D01*
X49851D01*
Y33167D01*
X49796D01*
Y33577D01*
X49829Y33626D01*
X49842Y33690D01*
X49909Y33757D01*
X50610D01*
X50636Y33707D01*
X50621Y33684D01*
X50606Y33610D01*
X50621Y33536D01*
X50663Y33473D01*
X50726Y33431D01*
X50800Y33416D01*
X50874Y33431D01*
X50883Y33437D01*
X51508Y32812D01*
Y29000D01*
X51515Y28965D01*
X51535Y28935D01*
X52563Y27907D01*
Y27407D01*
X52513Y27390D01*
X52503Y27403D01*
X52429Y27460D01*
X52343Y27496D01*
X52250Y27508D01*
X52157Y27496D01*
X52071Y27460D01*
X51997Y27403D01*
X51940Y27329D01*
X51904Y27243D01*
X51892Y27150D01*
X51904Y27057D01*
X51940Y26971D01*
X51997Y26897D01*
X52071Y26840D01*
X52157Y26804D01*
X52250Y26792D01*
X52343Y26804D01*
X52429Y26840D01*
X52503Y26897D01*
X52513Y26910D01*
X52563Y26893D01*
Y24407D01*
X52513Y24390D01*
X52503Y24403D01*
X52429Y24460D01*
X52343Y24496D01*
X52250Y24508D01*
X52157Y24496D01*
X52071Y24460D01*
X51997Y24403D01*
X51940Y24329D01*
X51904Y24243D01*
X51892Y24150D01*
X51904Y24057D01*
X51940Y23971D01*
X51997Y23897D01*
X52071Y23840D01*
X52157Y23804D01*
X52250Y23792D01*
X52343Y23804D01*
X52429Y23840D01*
X52503Y23897D01*
X52560Y23971D01*
X52588Y24039D01*
X52642Y24056D01*
X53188Y23509D01*
Y22645D01*
X53180D01*
X53086Y22626D01*
X53007Y22573D01*
X52954Y22494D01*
X52935Y22400D01*
X52954Y22306D01*
X53007Y22227D01*
X53086Y22174D01*
X53180Y22155D01*
X53380D01*
X53474Y22174D01*
X53553Y22227D01*
X53606Y22306D01*
X53625Y22400D01*
X53606Y22494D01*
X53553Y22573D01*
X53474Y22626D01*
X53380Y22645D01*
X53372D01*
Y23547D01*
X53365Y23582D01*
X53345Y23612D01*
X53210Y23747D01*
X53234Y23794D01*
X53250Y23792D01*
X53343Y23804D01*
X53429Y23840D01*
X53503Y23897D01*
X53560Y23971D01*
X53589Y24041D01*
X53607Y24050D01*
X53631Y24054D01*
X53646Y24052D01*
X53978Y23719D01*
Y22645D01*
X53970D01*
X53876Y22626D01*
X53797Y22573D01*
X53744Y22494D01*
X53725Y22400D01*
X53744Y22306D01*
X53797Y22227D01*
X53876Y22174D01*
X53970Y22155D01*
X54170D01*
X54264Y22174D01*
X54343Y22227D01*
X54396Y22306D01*
X54415Y22400D01*
X54396Y22494D01*
X54343Y22573D01*
X54264Y22626D01*
X54170Y22645D01*
X54162D01*
Y23753D01*
X54163Y23759D01*
X54205Y23798D01*
X54250Y23792D01*
X54343Y23804D01*
X54429Y23840D01*
X54503Y23897D01*
X54560Y23971D01*
X54596Y24057D01*
X54608Y24150D01*
X54596Y24243D01*
X54560Y24329D01*
X54503Y24403D01*
X54429Y24460D01*
X54343Y24496D01*
X54250Y24508D01*
X54157Y24496D01*
X54071Y24460D01*
X53997Y24403D01*
X53940Y24329D01*
X53904Y24243D01*
X53892Y24150D01*
X53894Y24134D01*
X53847Y24110D01*
X53792Y24165D01*
Y27700D01*
X53785Y27735D01*
X53765Y27765D01*
X53233Y28297D01*
X53244Y28350D01*
X53229Y28424D01*
X53187Y28487D01*
X53124Y28529D01*
X53050Y28544D01*
X52976Y28529D01*
X52913Y28487D01*
X52871Y28424D01*
X52856Y28350D01*
X52871Y28276D01*
X52913Y28213D01*
X52976Y28171D01*
X53050Y28156D01*
X53103Y28167D01*
X53608Y27662D01*
Y27350D01*
X53563Y27331D01*
X53558Y27331D01*
X53503Y27403D01*
X53429Y27460D01*
X53343Y27496D01*
X53250Y27508D01*
X53157Y27496D01*
X53071Y27460D01*
X52997Y27403D01*
X52940Y27329D01*
X52904Y27243D01*
X52892Y27150D01*
X52904Y27057D01*
X52940Y26971D01*
X52997Y26897D01*
X53071Y26840D01*
X53157Y26804D01*
X53250Y26792D01*
X53343Y26804D01*
X53429Y26840D01*
X53503Y26897D01*
X53558Y26969D01*
X53563Y26969D01*
X53608Y26950D01*
Y24350D01*
X53563Y24331D01*
X53558Y24331D01*
X53503Y24403D01*
X53429Y24460D01*
X53343Y24496D01*
X53250Y24508D01*
X53157Y24496D01*
X53071Y24460D01*
X52997Y24403D01*
X52940Y24329D01*
X52904Y24243D01*
X52892Y24150D01*
X52894Y24134D01*
X52847Y24110D01*
X52747Y24210D01*
Y27945D01*
X52740Y27980D01*
X52720Y28010D01*
X51692Y29038D01*
Y32850D01*
X51685Y32885D01*
X51665Y32915D01*
X50990Y33590D01*
X50994Y33610D01*
X50979Y33684D01*
X50964Y33707D01*
X50990Y33757D01*
X51091D01*
X51999Y32849D01*
X51999Y32849D01*
X52045Y32818D01*
X52100Y32807D01*
X52100Y32807D01*
X53917D01*
Y32792D01*
X54784D01*
Y32808D01*
X55124D01*
Y32735D01*
X55179D01*
Y32398D01*
X55124D01*
Y32026D01*
X55074Y32006D01*
X54815Y32265D01*
X54784Y32292D01*
Y32608D01*
X53917D01*
Y32542D01*
X53600D01*
X53565Y32535D01*
X53535Y32515D01*
X53385Y32365D01*
X53365Y32335D01*
X53358Y32300D01*
Y28450D01*
X53365Y28415D01*
X53385Y28385D01*
X53785Y27985D01*
X53815Y27965D01*
X53850Y27958D01*
X57189D01*
X57225Y27965D01*
X57254Y27985D01*
X57765Y28496D01*
X57785Y28525D01*
X57792Y28561D01*
Y29397D01*
X57785Y29432D01*
X57765Y29461D01*
X57545Y29681D01*
Y29830D01*
X58165Y30450D01*
X58185Y30480D01*
X58192Y30515D01*
Y32135D01*
X58185Y32170D01*
X58165Y32200D01*
X57545Y32820D01*
Y33110D01*
X57148D01*
Y32690D01*
X57416D01*
X58008Y32097D01*
Y31820D01*
X57958Y31805D01*
X57937Y31837D01*
X57874Y31879D01*
X57800Y31894D01*
X57732Y31880D01*
X57545Y32067D01*
Y32371D01*
X57150D01*
Y31937D01*
X57255D01*
Y31535D01*
X57148D01*
Y31165D01*
X57148Y31157D01*
X57101Y31111D01*
X57085Y31112D01*
X56952Y31245D01*
Y31535D01*
X56555D01*
Y31417D01*
X56456D01*
X55958Y31915D01*
X55928Y31935D01*
X55893Y31942D01*
X55560D01*
X55519Y31963D01*
X55519Y31992D01*
Y32398D01*
X55464D01*
Y32735D01*
X55519D01*
Y33169D01*
X55124D01*
Y33094D01*
X54784D01*
Y33108D01*
X53917D01*
Y33093D01*
X52792D01*
X52777Y33143D01*
X52807Y33163D01*
X52849Y33226D01*
X52864Y33300D01*
X52849Y33374D01*
X52807Y33437D01*
X52744Y33479D01*
X52670Y33494D01*
X52596Y33479D01*
X52593Y33477D01*
X51862Y34208D01*
X51882Y34258D01*
X52763D01*
X52793Y34213D01*
X52856Y34171D01*
X52930Y34156D01*
X53004Y34171D01*
X53067Y34213D01*
X53109Y34276D01*
X53124Y34350D01*
X53109Y34424D01*
X53067Y34487D01*
X53004Y34529D01*
X52930Y34544D01*
X52856Y34529D01*
X52793Y34487D01*
X52763Y34442D01*
X46500D01*
X46465Y34435D01*
X46435Y34415D01*
X43742Y31722D01*
X41217D01*
X41198Y31768D01*
X41842Y32412D01*
X41851Y32406D01*
X41947Y32366D01*
X42050Y32352D01*
X42153Y32366D01*
X42249Y32406D01*
X42331Y32469D01*
X42394Y32551D01*
X42434Y32647D01*
X42448Y32750D01*
X42469Y32775D01*
X42538D01*
X42573Y32782D01*
X42603Y32802D01*
X42609Y32808D01*
X42657Y32785D01*
X42652Y32750D01*
X42666Y32647D01*
X42706Y32551D01*
X42769Y32469D01*
X42851Y32406D01*
X42947Y32366D01*
X43050Y32352D01*
X43153Y32366D01*
X43249Y32406D01*
X43331Y32469D01*
X43394Y32551D01*
X43434Y32647D01*
X43448Y32750D01*
X43434Y32853D01*
X43394Y32949D01*
X43388Y32958D01*
X43554Y33124D01*
X43808D01*
X43825Y33074D01*
X43769Y33031D01*
X43706Y32949D01*
X43666Y32853D01*
X43652Y32750D01*
X43666Y32647D01*
X43706Y32551D01*
X43769Y32469D01*
X43851Y32406D01*
X43947Y32366D01*
X44050Y32352D01*
X44153Y32366D01*
X44249Y32406D01*
X44331Y32469D01*
X44394Y32551D01*
X44434Y32647D01*
X44448Y32750D01*
X44434Y32853D01*
X44394Y32949D01*
X44388Y32958D01*
X48783Y37354D01*
X48803Y37383D01*
X48810Y37419D01*
Y38290D01*
X48917D01*
Y38408D01*
X49548D01*
X49560Y38390D01*
X49611Y38356D01*
X49670Y38344D01*
X49938D01*
Y38156D01*
X49670D01*
X49611Y38144D01*
X49560Y38110D01*
X49526Y38060D01*
X49514Y38000D01*
X49526Y37940D01*
X49560Y37890D01*
X49611Y37856D01*
X49670Y37844D01*
X50389D01*
X50449Y37856D01*
X50500Y37890D01*
X50512Y37908D01*
X51561D01*
X51683Y37786D01*
X51658Y37740D01*
X51650Y37742D01*
X51217D01*
X51187Y37787D01*
X51124Y37829D01*
X51050Y37844D01*
X50976Y37829D01*
X50913Y37787D01*
X50871Y37724D01*
X50856Y37650D01*
X50871Y37576D01*
X50913Y37513D01*
X50976Y37471D01*
X51050Y37456D01*
X51124Y37471D01*
X51187Y37513D01*
X51217Y37558D01*
X51612D01*
X55167Y34003D01*
X55156Y33950D01*
X55171Y33876D01*
X55213Y33813D01*
X55276Y33771D01*
X55350Y33756D01*
X55424Y33771D01*
X55487Y33813D01*
X55529Y33876D01*
X55544Y33950D01*
X55529Y34024D01*
X55487Y34087D01*
X55424Y34129D01*
X55350Y34144D01*
X55297Y34133D01*
X53116Y36314D01*
X53141Y36360D01*
X53149Y36358D01*
X54864D01*
X58318Y32904D01*
Y24346D01*
X56914Y22942D01*
X55410D01*
X55375Y22935D01*
X55345Y22915D01*
X55055Y22625D01*
X55054Y22626D01*
X54960Y22645D01*
X54760D01*
X54666Y22626D01*
X54587Y22573D01*
X54534Y22494D01*
X54515Y22400D01*
X54534Y22306D01*
X54587Y22227D01*
X54666Y22174D01*
X54760Y22155D01*
X54960D01*
X55054Y22174D01*
X55133Y22227D01*
X55186Y22306D01*
X55205Y22400D01*
X55186Y22494D01*
X55185Y22495D01*
X55448Y22758D01*
X56863D01*
X56882Y22712D01*
X56662Y22492D01*
X55976D01*
X55976Y22494D01*
X55923Y22573D01*
X55844Y22626D01*
X55750Y22645D01*
X55550D01*
X55456Y22626D01*
X55377Y22573D01*
X55324Y22494D01*
X55305Y22400D01*
X55324Y22306D01*
X55377Y22227D01*
X55456Y22174D01*
X55550Y22155D01*
X55750D01*
X55844Y22174D01*
X55923Y22227D01*
X55976Y22306D01*
X55976Y22308D01*
X56700D01*
X56735Y22315D01*
X56765Y22335D01*
X58615Y24185D01*
X58635Y24215D01*
X58642Y24250D01*
Y33000D01*
X58635Y33035D01*
X58615Y33065D01*
X55099Y36581D01*
Y37640D01*
X55206D01*
Y38060D01*
X54808D01*
Y37942D01*
X54325D01*
X54283Y37984D01*
X54286Y38000D01*
X54274Y38060D01*
X54240Y38110D01*
X54189Y38144D01*
X54130Y38156D01*
X53862D01*
Y38344D01*
X54130D01*
X54189Y38356D01*
X54240Y38390D01*
X54274Y38440D01*
X54286Y38500D01*
X54274Y38560D01*
X54240Y38610D01*
X54189Y38644D01*
X54130Y38656D01*
X53411D01*
X53351Y38644D01*
X53300Y38610D01*
X53267Y38560D01*
X53255Y38500D01*
X53267Y38440D01*
X53299Y38392D01*
X53297Y38380D01*
X53282Y38342D01*
X52788D01*
X51823Y39307D01*
X51843Y39357D01*
X52125D01*
X52138Y39338D01*
X52201Y39296D01*
X52275Y39281D01*
X52349Y39296D01*
X52412Y39338D01*
X52454Y39401D01*
X52469Y39475D01*
X52454Y39549D01*
X52412Y39612D01*
X52349Y39654D01*
X52275Y39669D01*
X52201Y39654D01*
X52184Y39643D01*
X50799D01*
X50780Y39689D01*
X51701Y40610D01*
X51701Y40610D01*
X51732Y40656D01*
X51743Y40711D01*
Y44183D01*
X51732Y44237D01*
X51701Y44284D01*
X51701Y44284D01*
X51584Y44401D01*
X51537Y44432D01*
X51483Y44443D01*
X51483Y44443D01*
X50451D01*
X50449Y44444D01*
X50389Y44456D01*
X49709D01*
X49614Y44551D01*
X49568Y44582D01*
X49513Y44593D01*
X49513Y44593D01*
X48923D01*
Y44667D01*
X48528D01*
Y44233D01*
X48923D01*
Y44307D01*
X49454D01*
X49536Y44225D01*
X49560Y44190D01*
X49611Y44156D01*
X49670Y44144D01*
X50389D01*
X50449Y44156D01*
X50451Y44157D01*
X51424D01*
X51457Y44124D01*
Y40770D01*
X50343Y39656D01*
X49716D01*
X49198Y40174D01*
X49152Y40205D01*
X49097Y40216D01*
X49097Y40216D01*
X48923D01*
Y40367D01*
X48893D01*
Y40822D01*
X48929Y40876D01*
X48944Y40950D01*
X48929Y41024D01*
X48887Y41087D01*
X48824Y41129D01*
X48750Y41144D01*
X48676Y41129D01*
X48613Y41087D01*
X48571Y41024D01*
X48556Y40950D01*
X48571Y40876D01*
X48607Y40822D01*
Y40367D01*
X48528D01*
Y39933D01*
X48769D01*
X48783Y39930D01*
X48783Y39930D01*
X49038D01*
X49526Y39443D01*
X49526Y39440D01*
X49552Y39402D01*
X49537Y39361D01*
X49530Y39352D01*
X49428D01*
X48965Y39815D01*
X48935Y39835D01*
X48900Y39842D01*
X48050D01*
X48015Y39835D01*
X47985Y39815D01*
X47685Y39515D01*
X47665Y39485D01*
X47658Y39450D01*
Y36688D01*
X44278Y33308D01*
X43516D01*
X43481Y33301D01*
X43451Y33281D01*
X43258Y33088D01*
X43249Y33094D01*
X43163Y33130D01*
X43173Y33180D01*
X43200D01*
X43235Y33187D01*
X43265Y33207D01*
X43598Y33540D01*
X43618Y33570D01*
X43625Y33605D01*
Y33823D01*
X44020Y34218D01*
X44260D01*
X44295Y34225D01*
X44325Y34245D01*
X46515Y36435D01*
X46535Y36465D01*
X46542Y36500D01*
Y40532D01*
X48650Y42640D01*
X48917D01*
Y42662D01*
X49601D01*
X49611Y42656D01*
X49670Y42644D01*
X50389D01*
X50449Y42656D01*
X50500Y42690D01*
X50533Y42740D01*
X50545Y42800D01*
X50533Y42860D01*
X50500Y42910D01*
X50449Y42944D01*
X50389Y42956D01*
X50173D01*
Y43144D01*
X50389D01*
X50449Y43156D01*
X50500Y43190D01*
X50533Y43240D01*
X50545Y43300D01*
X50533Y43360D01*
X50500Y43410D01*
X50449Y43444D01*
X50389Y43456D01*
X49670D01*
X49611Y43444D01*
X49560Y43410D01*
X49526Y43360D01*
X49514Y43300D01*
X49526Y43240D01*
X49560Y43190D01*
X49611Y43156D01*
X49670Y43144D01*
X49887D01*
Y42956D01*
X49670D01*
X49629Y42948D01*
X48917D01*
Y43060D01*
X48520D01*
Y42770D01*
X46448Y40698D01*
X46402Y40717D01*
Y46822D01*
X46788Y47208D01*
X49312D01*
X53229Y43291D01*
X53259Y43271D01*
X53260Y43271D01*
X53267Y43240D01*
X53300Y43190D01*
X53351Y43156D01*
X53411Y43144D01*
X53627D01*
Y42956D01*
X53411D01*
X53351Y42944D01*
X53300Y42910D01*
X53267Y42860D01*
X53255Y42800D01*
X53267Y42740D01*
X53300Y42690D01*
X53351Y42656D01*
X53411Y42644D01*
X54130D01*
X54171Y42652D01*
X54855D01*
Y42540D01*
X55252D01*
Y42960D01*
X54855D01*
Y42938D01*
X54199D01*
X54189Y42944D01*
X54130Y42956D01*
X53913D01*
Y43144D01*
X54130D01*
X54189Y43156D01*
X54240Y43190D01*
X54274Y43240D01*
X54286Y43300D01*
X54274Y43360D01*
X54240Y43410D01*
X54189Y43444D01*
X54130Y43456D01*
X53411D01*
X53351Y43444D01*
X53348Y43442D01*
X53335Y43445D01*
X49415Y47365D01*
X49385Y47385D01*
X49350Y47392D01*
X46750D01*
X46715Y47385D01*
X46685Y47365D01*
X46329Y47009D01*
X46276Y47027D01*
X46273Y47053D01*
X47390Y48170D01*
X48410D01*
X48805Y47775D01*
X48835Y47755D01*
X48870Y47748D01*
X50010D01*
Y47500D01*
X51290D01*
Y48180D01*
X50010D01*
Y47932D01*
X48908D01*
X48540Y48300D01*
Y48850D01*
X47345D01*
X47326Y48896D01*
X48578Y50148D01*
X50010D01*
Y49900D01*
X51108D01*
Y48822D01*
X51115Y48787D01*
X51135Y48757D01*
X51508Y48384D01*
Y47367D01*
X51463Y47337D01*
X51421Y47274D01*
X51406Y47200D01*
X51421Y47126D01*
X51463Y47063D01*
X51526Y47021D01*
X51600Y47006D01*
X51674Y47021D01*
X51737Y47063D01*
X51779Y47126D01*
X51794Y47200D01*
X51779Y47274D01*
X51737Y47337D01*
X51692Y47367D01*
Y48422D01*
X51685Y48457D01*
X51665Y48487D01*
X51292Y48860D01*
Y49990D01*
X51290Y49999D01*
Y50538D01*
X52586D01*
X52949Y50175D01*
X52979Y50155D01*
X53014Y50148D01*
X55535D01*
Y49900D01*
X56613D01*
X56907Y49606D01*
Y45773D01*
X55643Y44509D01*
X55450D01*
Y44074D01*
X55504D01*
Y43710D01*
X55448D01*
Y43290D01*
X55845D01*
Y43710D01*
X55790D01*
Y44074D01*
X55845D01*
Y44307D01*
X57151Y45613D01*
X57151Y45613D01*
X57182Y45659D01*
X57193Y45714D01*
X57193Y45714D01*
Y49665D01*
X57193Y49665D01*
X57182Y49720D01*
X57151Y49766D01*
X57151Y49766D01*
X56815Y50102D01*
Y50580D01*
X55535D01*
Y50332D01*
X53052D01*
X52689Y50695D01*
X52659Y50715D01*
X52624Y50722D01*
D02*
G37*
G36*
X31960Y44777D02*
X31540D01*
Y44379D01*
X31607D01*
Y43608D01*
X31607Y43608D01*
X31618Y43554D01*
X31649Y43507D01*
X31769Y43388D01*
X31757Y43300D01*
X31769Y43211D01*
X31803Y43129D01*
X31858Y43058D01*
X31929Y43003D01*
X32011Y42969D01*
X32100Y42957D01*
X32189Y42969D01*
X32271Y43003D01*
X32342Y43058D01*
X32397Y43129D01*
X32431Y43211D01*
X32443Y43300D01*
X32431Y43389D01*
X32397Y43471D01*
X32342Y43542D01*
X32271Y43597D01*
X32189Y43631D01*
X32100Y43643D01*
X32011Y43631D01*
X31953Y43607D01*
X31893Y43667D01*
Y44379D01*
X31960D01*
Y44777D01*
D02*
G37*
G36*
X31100Y43643D02*
X31011Y43631D01*
X30929Y43597D01*
X30858Y43542D01*
X30803Y43471D01*
X30769Y43389D01*
X30757Y43300D01*
X30769Y43211D01*
X30803Y43129D01*
X30858Y43058D01*
X30929Y43003D01*
X31011Y42969D01*
X31100Y42957D01*
X31189Y42969D01*
X31271Y43003D01*
X31342Y43058D01*
X31397Y43129D01*
X31431Y43211D01*
X31443Y43300D01*
X31431Y43389D01*
X31397Y43471D01*
X31342Y43542D01*
X31271Y43597D01*
X31189Y43631D01*
X31100Y43643D01*
D02*
G37*
G36*
X43982Y44804D02*
X43233D01*
Y43864D01*
X43557D01*
Y43150D01*
Y41323D01*
X43501Y41300D01*
X43419Y41237D01*
X43356Y41154D01*
X43316Y41058D01*
X43302Y40956D01*
Y40641D01*
X43316Y40538D01*
X43356Y40442D01*
X43419Y40359D01*
X43501Y40296D01*
X43597Y40256D01*
X43700Y40243D01*
X43803Y40256D01*
X43899Y40296D01*
X43981Y40359D01*
X44044Y40442D01*
X44084Y40538D01*
X44098Y40641D01*
Y40956D01*
X44084Y41058D01*
X44044Y41154D01*
X43981Y41237D01*
X43899Y41300D01*
X43843Y41323D01*
Y43007D01*
X43904D01*
Y42928D01*
X44338D01*
Y42983D01*
X44940D01*
Y42928D01*
X45374D01*
Y43323D01*
X44940D01*
Y43268D01*
X44338D01*
Y43323D01*
X43904D01*
Y43293D01*
X43843D01*
Y43864D01*
X43982D01*
Y44804D01*
D02*
G37*
G36*
X54130Y42456D02*
X53411D01*
X53351Y42444D01*
X53300Y42410D01*
X53267Y42360D01*
X53255Y42300D01*
X53267Y42240D01*
X53300Y42190D01*
X53351Y42156D01*
X53411Y42144D01*
X54130D01*
X54189Y42156D01*
X54240Y42190D01*
X54274Y42240D01*
X54286Y42300D01*
X54274Y42360D01*
X54240Y42410D01*
X54189Y42444D01*
X54130Y42456D01*
D02*
G37*
G36*
X50389D02*
X49670D01*
X49611Y42444D01*
X49560Y42410D01*
X49526Y42360D01*
X49514Y42300D01*
X49526Y42240D01*
X49560Y42190D01*
X49611Y42156D01*
X49670Y42144D01*
X50389D01*
X50449Y42156D01*
X50500Y42190D01*
X50533Y42240D01*
X50545Y42300D01*
X50533Y42360D01*
X50500Y42410D01*
X50449Y42444D01*
X50389Y42456D01*
D02*
G37*
G36*
X54130Y41956D02*
X53411D01*
X53351Y41944D01*
X53300Y41910D01*
X53267Y41860D01*
X53255Y41800D01*
X53267Y41740D01*
X53300Y41690D01*
X53351Y41656D01*
X53411Y41644D01*
X54130D01*
X54189Y41656D01*
X54240Y41690D01*
X54274Y41740D01*
X54286Y41800D01*
X54274Y41860D01*
X54240Y41910D01*
X54189Y41944D01*
X54130Y41956D01*
D02*
G37*
G36*
X50389D02*
X49670D01*
X49611Y41944D01*
X49560Y41910D01*
X49526Y41860D01*
X49514Y41800D01*
X49526Y41740D01*
X49560Y41690D01*
X49611Y41656D01*
X49670Y41644D01*
X50389D01*
X50449Y41656D01*
X50500Y41690D01*
X50533Y41740D01*
X50545Y41800D01*
X50533Y41860D01*
X50500Y41910D01*
X50449Y41944D01*
X50389Y41956D01*
D02*
G37*
G36*
X54130Y40656D02*
X53411D01*
X53351Y40644D01*
X53300Y40610D01*
X53267Y40560D01*
X53255Y40500D01*
X53267Y40440D01*
X53300Y40390D01*
X53351Y40356D01*
X53411Y40344D01*
X54130D01*
X54189Y40356D01*
X54240Y40390D01*
X54274Y40440D01*
X54286Y40500D01*
X54274Y40560D01*
X54240Y40610D01*
X54189Y40644D01*
X54130Y40656D01*
D02*
G37*
G36*
X50389D02*
X49670D01*
X49611Y40644D01*
X49560Y40610D01*
X49526Y40560D01*
X49514Y40500D01*
X49526Y40440D01*
X49560Y40390D01*
X49611Y40356D01*
X49670Y40344D01*
X50389D01*
X50449Y40356D01*
X50500Y40390D01*
X50533Y40440D01*
X50545Y40500D01*
X50533Y40560D01*
X50500Y40610D01*
X50449Y40644D01*
X50389Y40656D01*
D02*
G37*
G36*
X40262Y41357D02*
X40160Y41344D01*
X40064Y41304D01*
X39981Y41241D01*
X39918Y41158D01*
X39878Y41062D01*
X39865Y40959D01*
Y40644D01*
X39878Y40542D01*
X39886Y40524D01*
X39763Y40401D01*
X39721Y40339D01*
X39706Y40264D01*
Y39306D01*
X38857D01*
Y39530D01*
X38839Y39624D01*
X38786Y39703D01*
X38706Y39756D01*
X38612Y39775D01*
X38519Y39756D01*
X38439Y39703D01*
X38386Y39624D01*
X38368Y39530D01*
Y39159D01*
X37513Y38304D01*
X37471Y38242D01*
X37456Y38168D01*
Y36080D01*
X36613Y35237D01*
X36571Y35174D01*
X36556Y35100D01*
X36571Y35026D01*
X36613Y34963D01*
X36676Y34921D01*
X36750Y34906D01*
X36824Y34921D01*
X36887Y34963D01*
X37787Y35863D01*
X37829Y35926D01*
X37844Y36000D01*
Y38087D01*
X38361Y38605D01*
X38411Y38600D01*
X38439Y38557D01*
X38519Y38504D01*
X38612Y38485D01*
X38706Y38504D01*
X38786Y38557D01*
X38839Y38636D01*
X38857Y38730D01*
Y38919D01*
X39820D01*
X40191Y38548D01*
X40254Y38506D01*
X40328Y38491D01*
X40533D01*
Y38480D01*
X40556D01*
Y37500D01*
X40533D01*
Y37105D01*
X40967D01*
Y37500D01*
X40944D01*
Y38480D01*
X40967D01*
Y38875D01*
X40761D01*
X40743Y38878D01*
X40408D01*
X40094Y39193D01*
Y40184D01*
X40169Y40259D01*
X40262Y40247D01*
X40365Y40260D01*
X40461Y40300D01*
X40544Y40363D01*
X40607Y40446D01*
X40647Y40542D01*
X40660Y40644D01*
Y40959D01*
X40647Y41062D01*
X40607Y41158D01*
X40544Y41241D01*
X40461Y41304D01*
X40365Y41344D01*
X40262Y41357D01*
D02*
G37*
G36*
X25950Y41353D02*
X25847Y41340D01*
X25751Y41300D01*
X25669Y41237D01*
X25606Y41154D01*
X25566Y41058D01*
X25552Y40956D01*
Y40641D01*
X25566Y40538D01*
X25606Y40442D01*
X25669Y40359D01*
X25751Y40296D01*
X25847Y40256D01*
X25950Y40243D01*
X26053Y40256D01*
X26149Y40296D01*
X26231Y40359D01*
X26294Y40442D01*
X26334Y40538D01*
X26348Y40641D01*
Y40956D01*
X26334Y41058D01*
X26294Y41154D01*
X26231Y41237D01*
X26149Y41300D01*
X26053Y41340D01*
X25950Y41353D01*
D02*
G37*
G36*
X54130Y40156D02*
X53411D01*
X53351Y40144D01*
X53300Y40110D01*
X53267Y40060D01*
X53255Y40000D01*
X53267Y39940D01*
X53300Y39890D01*
X53351Y39856D01*
X53411Y39844D01*
X54130D01*
X54189Y39856D01*
X54240Y39890D01*
X54274Y39940D01*
X54286Y40000D01*
X54274Y40060D01*
X54240Y40110D01*
X54189Y40144D01*
X54130Y40156D01*
D02*
G37*
G36*
X50389D02*
X49670D01*
X49611Y40144D01*
X49560Y40110D01*
X49526Y40060D01*
X49514Y40000D01*
X49526Y39940D01*
X49560Y39890D01*
X49611Y39856D01*
X49670Y39844D01*
X50389D01*
X50449Y39856D01*
X50500Y39890D01*
X50533Y39940D01*
X50545Y40000D01*
X50533Y40060D01*
X50500Y40110D01*
X50449Y40144D01*
X50389Y40156D01*
D02*
G37*
G36*
X55202Y40610D02*
X54805D01*
Y40190D01*
X54882D01*
Y39809D01*
X54849D01*
Y39643D01*
X54191D01*
X54189Y39644D01*
X54130Y39656D01*
X53411D01*
X53351Y39644D01*
X53300Y39610D01*
X53267Y39560D01*
X53255Y39500D01*
X53267Y39440D01*
X53300Y39390D01*
X53351Y39356D01*
X53411Y39344D01*
X54130D01*
X54189Y39356D01*
X54191Y39357D01*
X54974D01*
X54974Y39357D01*
X55029Y39368D01*
X55039Y39374D01*
X55244D01*
Y39809D01*
X55168D01*
Y40190D01*
X55202D01*
Y40610D01*
D02*
G37*
G36*
X24450Y39294D02*
X24376Y39279D01*
X24313Y39237D01*
X24271Y39174D01*
X24256Y39100D01*
X24261Y39077D01*
X23367Y38183D01*
X23342Y38145D01*
X23333Y38100D01*
Y28900D01*
X23342Y28855D01*
X23367Y28817D01*
X24246Y27938D01*
X24284Y27913D01*
X24329Y27904D01*
X29531D01*
X30130Y27304D01*
X30104Y27243D01*
X30092Y27150D01*
X30104Y27057D01*
X30140Y26971D01*
X30197Y26897D01*
X30271Y26840D01*
X30357Y26804D01*
X30450Y26792D01*
X30543Y26804D01*
X30629Y26840D01*
X30703Y26897D01*
X30760Y26971D01*
X30796Y27057D01*
X30808Y27150D01*
X30796Y27243D01*
X30760Y27329D01*
X30703Y27403D01*
X30629Y27460D01*
X30543Y27496D01*
X30450Y27508D01*
X30357Y27496D01*
X30296Y27470D01*
X29662Y28104D01*
X29624Y28129D01*
X29579Y28138D01*
X24378D01*
X23567Y28949D01*
Y38051D01*
X24427Y38911D01*
X24450Y38906D01*
X24524Y38921D01*
X24587Y38963D01*
X24629Y39026D01*
X24644Y39100D01*
X24629Y39174D01*
X24587Y39237D01*
X24524Y39279D01*
X24450Y39294D01*
D02*
G37*
G36*
X56250Y44344D02*
X56176Y44329D01*
X56113Y44287D01*
X56071Y44224D01*
X56056Y44150D01*
X56071Y44076D01*
X56113Y44013D01*
X56158Y43983D01*
Y40302D01*
X55665Y39809D01*
X55400D01*
Y39374D01*
X55506D01*
Y38910D01*
X55398D01*
Y38490D01*
X55795D01*
Y38910D01*
X55689D01*
Y39374D01*
X55795D01*
Y39679D01*
X56315Y40199D01*
X56335Y40229D01*
X56342Y40264D01*
Y43983D01*
X56387Y44013D01*
X56429Y44076D01*
X56444Y44150D01*
X56429Y44224D01*
X56387Y44287D01*
X56324Y44329D01*
X56250Y44344D01*
D02*
G37*
G36*
X50389Y37656D02*
X49670D01*
X49611Y37644D01*
X49560Y37610D01*
X49526Y37560D01*
X49514Y37500D01*
X49526Y37440D01*
X49560Y37390D01*
X49611Y37356D01*
X49670Y37344D01*
X50389D01*
X50449Y37356D01*
X50500Y37390D01*
X50533Y37440D01*
X50545Y37500D01*
X50533Y37560D01*
X50500Y37610D01*
X50449Y37644D01*
X50389Y37656D01*
D02*
G37*
G36*
Y37156D02*
X49670D01*
X49611Y37144D01*
X49560Y37110D01*
X49526Y37060D01*
X49514Y37000D01*
X49526Y36940D01*
X49560Y36890D01*
X49611Y36856D01*
X49670Y36844D01*
X50389D01*
X50449Y36856D01*
X50500Y36890D01*
X50533Y36940D01*
X50545Y37000D01*
X50533Y37060D01*
X50500Y37110D01*
X50449Y37144D01*
X50389Y37156D01*
D02*
G37*
G36*
X30650Y35325D02*
X30556Y35306D01*
X30477Y35253D01*
X30424Y35174D01*
X30405Y35080D01*
Y34280D01*
X30412Y34244D01*
X29999Y33831D01*
X29968Y33785D01*
X29957Y33730D01*
X29957Y33730D01*
Y31950D01*
X29957Y31950D01*
X29968Y31895D01*
X29999Y31849D01*
X30211Y31637D01*
Y31260D01*
X30155D01*
Y30840D01*
X30552D01*
Y31260D01*
X30496D01*
Y31697D01*
X30485Y31751D01*
X30454Y31797D01*
X30454Y31797D01*
X30243Y32009D01*
Y33328D01*
X30293Y33343D01*
X30313Y33313D01*
X30376Y33271D01*
X30440Y33258D01*
X30469Y33229D01*
Y33181D01*
X30424Y33114D01*
X30405Y33020D01*
Y32220D01*
X30424Y32126D01*
X30477Y32047D01*
X30556Y31994D01*
X30650Y31975D01*
X30744Y31994D01*
X30823Y32047D01*
X30876Y32126D01*
X30895Y32220D01*
Y33020D01*
X30888Y33056D01*
X31943Y34111D01*
X32340D01*
Y34055D01*
X32760D01*
Y34452D01*
X32340D01*
Y34396D01*
X31883D01*
X31883Y34396D01*
X31829Y34385D01*
X31783Y34354D01*
X31783Y34354D01*
X30787Y33359D01*
X30726Y33369D01*
X30713Y33389D01*
X30642Y33460D01*
X30629Y33524D01*
X30587Y33587D01*
X30524Y33629D01*
X30450Y33644D01*
X30376Y33629D01*
X30313Y33587D01*
X30293Y33557D01*
X30243Y33572D01*
Y33671D01*
X30614Y34042D01*
X30650Y34035D01*
X30744Y34054D01*
X30823Y34107D01*
X30876Y34186D01*
X30895Y34280D01*
Y34704D01*
X32340D01*
Y34648D01*
X32760D01*
Y35045D01*
X32340D01*
Y34989D01*
X30895D01*
Y35080D01*
X30876Y35174D01*
X30823Y35253D01*
X30744Y35306D01*
X30650Y35325D01*
D02*
G37*
G36*
X56952Y33110D02*
X56555D01*
Y33026D01*
X56505Y33010D01*
X56487Y33037D01*
X56424Y33079D01*
X56350Y33094D01*
X56276Y33079D01*
X56213Y33037D01*
X56171Y32974D01*
X56156Y32900D01*
X56171Y32826D01*
X56213Y32763D01*
X56276Y32721D01*
X56350Y32706D01*
X56424Y32721D01*
X56487Y32763D01*
X56505Y32790D01*
X56555Y32774D01*
Y32690D01*
X56952D01*
Y33110D01*
D02*
G37*
G36*
X24250Y33543D02*
X24161Y33531D01*
X24079Y33497D01*
X24008Y33442D01*
X23953Y33371D01*
X23919Y33289D01*
X23907Y33200D01*
X23919Y33111D01*
X23953Y33029D01*
X24008Y32958D01*
X24079Y32903D01*
X24161Y32869D01*
X24250Y32857D01*
X24339Y32869D01*
X24367Y32881D01*
X25052Y32196D01*
Y31648D01*
X24998Y31626D01*
X24917Y31563D01*
X24854Y31482D01*
X24815Y31387D01*
X24802Y31285D01*
X24815Y31183D01*
X24837Y31129D01*
X24114Y30406D01*
X24083Y30360D01*
X24072Y30305D01*
X24072Y30305D01*
Y29705D01*
X23825D01*
Y28925D01*
X24605D01*
Y29705D01*
X24358D01*
Y30246D01*
X25039Y30927D01*
X25093Y30905D01*
X25195Y30892D01*
X25297Y30905D01*
X25392Y30944D01*
X25473Y31007D01*
X25536Y31088D01*
X25558Y31142D01*
X26583D01*
X26583Y31142D01*
X26637Y31153D01*
X26684Y31184D01*
X27257Y31757D01*
X27985D01*
X28677Y31065D01*
Y30833D01*
X29072D01*
Y31267D01*
X28879D01*
X28145Y32001D01*
X28099Y32032D01*
X28044Y32043D01*
X28044Y32043D01*
X27198D01*
X27143Y32032D01*
X27097Y32001D01*
X27097Y32001D01*
X26524Y31428D01*
X25558D01*
X25536Y31482D01*
X25473Y31563D01*
X25392Y31626D01*
X25338Y31648D01*
Y32255D01*
X25338Y32255D01*
X25327Y32310D01*
X25296Y32356D01*
X25296Y32356D01*
X24569Y33083D01*
X24581Y33111D01*
X24593Y33200D01*
X24581Y33289D01*
X24547Y33371D01*
X24492Y33442D01*
X24421Y33497D01*
X24339Y33531D01*
X24250Y33543D01*
D02*
G37*
G36*
X57605Y27505D02*
X56895D01*
Y26795D01*
X57605D01*
Y27505D01*
D02*
G37*
G36*
X32805D02*
X32095D01*
Y26795D01*
X32805D01*
Y27505D01*
D02*
G37*
G36*
X55250Y27508D02*
X55157Y27496D01*
X55071Y27460D01*
X54997Y27403D01*
X54940Y27329D01*
X54904Y27243D01*
X54892Y27150D01*
X54904Y27057D01*
X54940Y26971D01*
X54997Y26897D01*
X55071Y26840D01*
X55157Y26804D01*
X55250Y26792D01*
X55343Y26804D01*
X55429Y26840D01*
X55503Y26897D01*
X55560Y26971D01*
X55596Y27057D01*
X55608Y27150D01*
X55596Y27243D01*
X55560Y27329D01*
X55503Y27403D01*
X55429Y27460D01*
X55343Y27496D01*
X55250Y27508D01*
D02*
G37*
G36*
X51250D02*
X51157Y27496D01*
X51071Y27460D01*
X50997Y27403D01*
X50940Y27329D01*
X50904Y27243D01*
X50892Y27150D01*
X50904Y27057D01*
X50940Y26971D01*
X50997Y26897D01*
X51071Y26840D01*
X51157Y26804D01*
X51250Y26792D01*
X51343Y26804D01*
X51429Y26840D01*
X51503Y26897D01*
X51560Y26971D01*
X51596Y27057D01*
X51608Y27150D01*
X51596Y27243D01*
X51560Y27329D01*
X51503Y27403D01*
X51429Y27460D01*
X51343Y27496D01*
X51250Y27508D01*
D02*
G37*
G36*
X46500Y33293D02*
X46445Y33282D01*
X46399Y33251D01*
X46368Y33205D01*
X46363Y33179D01*
X46152Y32968D01*
X46127Y32930D01*
X46118Y32885D01*
Y30165D01*
X46127Y30120D01*
X46152Y30082D01*
X48930Y27304D01*
X48904Y27243D01*
X48892Y27150D01*
X48904Y27057D01*
X48940Y26971D01*
X48997Y26897D01*
X49071Y26840D01*
X49157Y26804D01*
X49250Y26792D01*
X49343Y26804D01*
X49429Y26840D01*
X49503Y26897D01*
X49560Y26971D01*
X49596Y27057D01*
X49608Y27150D01*
X49596Y27243D01*
X49560Y27329D01*
X49503Y27403D01*
X49429Y27460D01*
X49343Y27496D01*
X49250Y27508D01*
X49157Y27496D01*
X49096Y27470D01*
X46352Y30214D01*
Y32836D01*
X46529Y33013D01*
X46555Y33018D01*
X46601Y33049D01*
X46632Y33095D01*
X46643Y33150D01*
X46632Y33205D01*
X46601Y33251D01*
X46555Y33282D01*
X46500Y33293D01*
D02*
G37*
G36*
X28450Y27508D02*
X28357Y27496D01*
X28271Y27460D01*
X28197Y27403D01*
X28140Y27329D01*
X28104Y27243D01*
X28092Y27150D01*
X28104Y27057D01*
X28140Y26971D01*
X28197Y26897D01*
X28271Y26840D01*
X28357Y26804D01*
X28450Y26792D01*
X28543Y26804D01*
X28629Y26840D01*
X28703Y26897D01*
X28760Y26971D01*
X28796Y27057D01*
X28808Y27150D01*
X28796Y27243D01*
X28760Y27329D01*
X28703Y27403D01*
X28629Y27460D01*
X28543Y27496D01*
X28450Y27508D01*
D02*
G37*
G36*
X27450D02*
X27357Y27496D01*
X27271Y27460D01*
X27197Y27403D01*
X27140Y27329D01*
X27104Y27243D01*
X27092Y27150D01*
X27104Y27057D01*
X27140Y26971D01*
X27197Y26897D01*
X27271Y26840D01*
X27357Y26804D01*
X27450Y26792D01*
X27543Y26804D01*
X27629Y26840D01*
X27703Y26897D01*
X27760Y26971D01*
X27796Y27057D01*
X27808Y27150D01*
X27796Y27243D01*
X27760Y27329D01*
X27703Y27403D01*
X27629Y27460D01*
X27543Y27496D01*
X27450Y27508D01*
D02*
G37*
G36*
X26450D02*
X26357Y27496D01*
X26271Y27460D01*
X26197Y27403D01*
X26140Y27329D01*
X26104Y27243D01*
X26092Y27150D01*
X26104Y27057D01*
X26140Y26971D01*
X26197Y26897D01*
X26271Y26840D01*
X26357Y26804D01*
X26450Y26792D01*
X26543Y26804D01*
X26629Y26840D01*
X26703Y26897D01*
X26760Y26971D01*
X26796Y27057D01*
X26808Y27150D01*
X26796Y27243D01*
X26760Y27329D01*
X26703Y27403D01*
X26629Y27460D01*
X26543Y27496D01*
X26450Y27508D01*
D02*
G37*
G36*
X24450D02*
X24357Y27496D01*
X24271Y27460D01*
X24197Y27403D01*
X24140Y27329D01*
X24104Y27243D01*
X24092Y27150D01*
X24104Y27057D01*
X24140Y26971D01*
X24197Y26897D01*
X24271Y26840D01*
X24357Y26804D01*
X24450Y26792D01*
X24543Y26804D01*
X24629Y26840D01*
X24703Y26897D01*
X24760Y26971D01*
X24796Y27057D01*
X24808Y27150D01*
X24796Y27243D01*
X24760Y27329D01*
X24703Y27403D01*
X24629Y27460D01*
X24543Y27496D01*
X24450Y27508D01*
D02*
G37*
G36*
X57250Y24508D02*
X57157Y24496D01*
X57071Y24460D01*
X56997Y24403D01*
X56940Y24329D01*
X56904Y24243D01*
X56892Y24150D01*
X56904Y24057D01*
X56940Y23971D01*
X56997Y23897D01*
X57071Y23840D01*
X57157Y23804D01*
X57250Y23792D01*
X57343Y23804D01*
X57429Y23840D01*
X57503Y23897D01*
X57560Y23971D01*
X57596Y24057D01*
X57608Y24150D01*
X57596Y24243D01*
X57560Y24329D01*
X57503Y24403D01*
X57429Y24460D01*
X57343Y24496D01*
X57250Y24508D01*
D02*
G37*
G36*
X56250D02*
X56157Y24496D01*
X56071Y24460D01*
X55997Y24403D01*
X55940Y24329D01*
X55904Y24243D01*
X55892Y24150D01*
X55904Y24057D01*
X55940Y23971D01*
X55997Y23897D01*
X56071Y23840D01*
X56157Y23804D01*
X56250Y23792D01*
X56343Y23804D01*
X56429Y23840D01*
X56503Y23897D01*
X56560Y23971D01*
X56596Y24057D01*
X56608Y24150D01*
X56596Y24243D01*
X56560Y24329D01*
X56503Y24403D01*
X56429Y24460D01*
X56343Y24496D01*
X56250Y24508D01*
D02*
G37*
G36*
X55250D02*
X55157Y24496D01*
X55071Y24460D01*
X54997Y24403D01*
X54940Y24329D01*
X54904Y24243D01*
X54892Y24150D01*
X54904Y24057D01*
X54940Y23971D01*
X54997Y23897D01*
X55071Y23840D01*
X55157Y23804D01*
X55250Y23792D01*
X55343Y23804D01*
X55429Y23840D01*
X55503Y23897D01*
X55560Y23971D01*
X55596Y24057D01*
X55608Y24150D01*
X55596Y24243D01*
X55560Y24329D01*
X55503Y24403D01*
X55429Y24460D01*
X55343Y24496D01*
X55250Y24508D01*
D02*
G37*
G36*
X51250D02*
X51157Y24496D01*
X51071Y24460D01*
X50997Y24403D01*
X50940Y24329D01*
X50904Y24243D01*
X50892Y24150D01*
X50904Y24057D01*
X50940Y23971D01*
X50997Y23897D01*
X51071Y23840D01*
X51157Y23804D01*
X51250Y23792D01*
X51343Y23804D01*
X51429Y23840D01*
X51503Y23897D01*
X51560Y23971D01*
X51596Y24057D01*
X51608Y24150D01*
X51596Y24243D01*
X51560Y24329D01*
X51503Y24403D01*
X51429Y24460D01*
X51343Y24496D01*
X51250Y24508D01*
D02*
G37*
G36*
X50250D02*
X50157Y24496D01*
X50071Y24460D01*
X49997Y24403D01*
X49940Y24329D01*
X49904Y24243D01*
X49892Y24150D01*
X49904Y24057D01*
X49940Y23971D01*
X49997Y23897D01*
X50071Y23840D01*
X50157Y23804D01*
X50250Y23792D01*
X50343Y23804D01*
X50429Y23840D01*
X50503Y23897D01*
X50560Y23971D01*
X50596Y24057D01*
X50608Y24150D01*
X50596Y24243D01*
X50560Y24329D01*
X50503Y24403D01*
X50429Y24460D01*
X50343Y24496D01*
X50250Y24508D01*
D02*
G37*
G36*
X49250D02*
X49157Y24496D01*
X49071Y24460D01*
X48997Y24403D01*
X48940Y24329D01*
X48904Y24243D01*
X48892Y24150D01*
X48904Y24057D01*
X48940Y23971D01*
X48997Y23897D01*
X49071Y23840D01*
X49157Y23804D01*
X49250Y23792D01*
X49343Y23804D01*
X49429Y23840D01*
X49503Y23897D01*
X49560Y23971D01*
X49596Y24057D01*
X49608Y24150D01*
X49596Y24243D01*
X49560Y24329D01*
X49503Y24403D01*
X49429Y24460D01*
X49343Y24496D01*
X49250Y24508D01*
D02*
G37*
G36*
X27450D02*
X27357Y24496D01*
X27271Y24460D01*
X27197Y24403D01*
X27140Y24329D01*
X27104Y24243D01*
X27092Y24150D01*
X27104Y24057D01*
X27140Y23971D01*
X27197Y23897D01*
X27271Y23840D01*
X27357Y23804D01*
X27450Y23792D01*
X27543Y23804D01*
X27629Y23840D01*
X27703Y23897D01*
X27760Y23971D01*
X27796Y24057D01*
X27808Y24150D01*
X27796Y24243D01*
X27760Y24329D01*
X27703Y24403D01*
X27629Y24460D01*
X27543Y24496D01*
X27450Y24508D01*
D02*
G37*
G36*
X26450D02*
X26357Y24496D01*
X26271Y24460D01*
X26197Y24403D01*
X26140Y24329D01*
X26104Y24243D01*
X26092Y24150D01*
X26104Y24057D01*
X26140Y23971D01*
X26197Y23897D01*
X26271Y23840D01*
X26357Y23804D01*
X26450Y23792D01*
X26543Y23804D01*
X26629Y23840D01*
X26703Y23897D01*
X26760Y23971D01*
X26796Y24057D01*
X26808Y24150D01*
X26796Y24243D01*
X26760Y24329D01*
X26703Y24403D01*
X26629Y24460D01*
X26543Y24496D01*
X26450Y24508D01*
D02*
G37*
G36*
X25450D02*
X25357Y24496D01*
X25271Y24460D01*
X25197Y24403D01*
X25140Y24329D01*
X25104Y24243D01*
X25092Y24150D01*
X25104Y24057D01*
X25140Y23971D01*
X25197Y23897D01*
X25271Y23840D01*
X25357Y23804D01*
X25450Y23792D01*
X25543Y23804D01*
X25629Y23840D01*
X25703Y23897D01*
X25760Y23971D01*
X25796Y24057D01*
X25808Y24150D01*
X25796Y24243D01*
X25760Y24329D01*
X25703Y24403D01*
X25629Y24460D01*
X25543Y24496D01*
X25450Y24508D01*
D02*
G37*
G36*
X24450D02*
X24357Y24496D01*
X24271Y24460D01*
X24197Y24403D01*
X24140Y24329D01*
X24104Y24243D01*
X24092Y24150D01*
X24104Y24057D01*
X24140Y23971D01*
X24197Y23897D01*
X24271Y23840D01*
X24357Y23804D01*
X24450Y23792D01*
X24543Y23804D01*
X24629Y23840D01*
X24703Y23897D01*
X24760Y23971D01*
X24796Y24057D01*
X24808Y24150D01*
X24796Y24243D01*
X24760Y24329D01*
X24703Y24403D01*
X24629Y24460D01*
X24543Y24496D01*
X24450Y24508D01*
D02*
G37*
G36*
X50975Y23425D02*
X50195D01*
Y22645D01*
X50975D01*
Y23425D01*
D02*
G37*
G36*
X33375D02*
X32595D01*
Y22645D01*
X33375D01*
Y23425D01*
D02*
G37*
G36*
X49605Y21458D02*
X49503Y21445D01*
X49408Y21406D01*
X49327Y21343D01*
X49264Y21262D01*
X49225Y21167D01*
X49212Y21065D01*
X49225Y20963D01*
X49264Y20868D01*
X49327Y20787D01*
X49408Y20724D01*
X49503Y20685D01*
X49605Y20672D01*
X49707Y20685D01*
X49802Y20724D01*
X49883Y20787D01*
X49946Y20868D01*
X49985Y20963D01*
X49998Y21065D01*
X49985Y21167D01*
X49946Y21262D01*
X49883Y21343D01*
X49802Y21406D01*
X49707Y21445D01*
X49605Y21458D01*
D02*
G37*
G36*
X32005D02*
X31903Y21445D01*
X31808Y21406D01*
X31727Y21343D01*
X31664Y21262D01*
X31625Y21167D01*
X31612Y21065D01*
X31625Y20963D01*
X31664Y20868D01*
X31727Y20787D01*
X31808Y20724D01*
X31903Y20685D01*
X32005Y20672D01*
X32107Y20685D01*
X32202Y20724D01*
X32283Y20787D01*
X32346Y20868D01*
X32385Y20963D01*
X32398Y21065D01*
X32385Y21167D01*
X32346Y21262D01*
X32283Y21343D01*
X32202Y21406D01*
X32107Y21445D01*
X32005Y21458D01*
D02*
G37*
%LPD*%
G36*
X26100Y52348D02*
Y52150D01*
X26358D01*
Y51560D01*
X26308Y51545D01*
X26287Y51577D01*
X26224Y51619D01*
X26150Y51634D01*
X26076Y51619D01*
X26013Y51577D01*
X25971Y51514D01*
X25956Y51440D01*
X25971Y51366D01*
X26013Y51303D01*
X26058Y51273D01*
Y50387D01*
X26004D01*
X26004Y50197D01*
X25958Y50187D01*
X25851D01*
X25792Y50247D01*
Y51583D01*
X25837Y51613D01*
X25879Y51676D01*
X25894Y51750D01*
X25879Y51824D01*
X25843Y51878D01*
Y52150D01*
X25900D01*
Y52483D01*
X25946Y52502D01*
X26100Y52348D01*
D02*
G37*
G36*
X28806Y51066D02*
X28763Y51037D01*
X28721Y50974D01*
X28706Y50900D01*
X28717Y50847D01*
X28254Y50384D01*
X28096D01*
Y50387D01*
X27706Y50387D01*
X27693Y50388D01*
X27683Y50390D01*
X27658Y50400D01*
X27654Y50404D01*
X27650Y50408D01*
X27640Y50433D01*
X27638Y50443D01*
X27637Y50456D01*
X27637Y50664D01*
X28129D01*
X28164Y50671D01*
X28170Y50675D01*
X28176Y50671D01*
X28250Y50656D01*
X28324Y50671D01*
X28387Y50713D01*
X28429Y50776D01*
X28444Y50850D01*
X28429Y50924D01*
X28387Y50987D01*
X28324Y51029D01*
X28250Y51044D01*
X28176Y51029D01*
X28113Y50987D01*
X28071Y50924D01*
X28056Y50850D01*
X28054Y50848D01*
X27603D01*
X27583Y50898D01*
X27801Y51116D01*
X28791D01*
X28806Y51066D01*
D02*
G37*
G36*
X28850Y49700D02*
X28500D01*
X28350Y49850D01*
X27750D01*
X27706Y50112D01*
X27739Y50150D01*
X28850D01*
Y49700D01*
D02*
G37*
G36*
X28100Y49650D02*
X28433Y49484D01*
Y49478D01*
X28444D01*
X28800Y49300D01*
X28850Y49250D01*
Y48950D01*
X28793D01*
Y49124D01*
X28782Y49179D01*
X28751Y49225D01*
X28705Y49256D01*
X28650Y49267D01*
X28595Y49256D01*
X28549Y49225D01*
X28518Y49179D01*
X28507Y49124D01*
Y48950D01*
X27700D01*
Y49709D01*
X27739Y49740D01*
X28100Y49650D01*
D02*
G37*
G36*
X36101Y51691D02*
X36075Y51642D01*
X29123D01*
X29094Y51692D01*
X29104Y51708D01*
X36090D01*
X36101Y51691D01*
D02*
G37*
G36*
X50010Y50332D02*
X48627D01*
X48608Y50378D01*
X48768Y50538D01*
X50010D01*
Y50332D01*
D02*
G37*
G36*
X47260Y48765D02*
Y48300D01*
X46168Y47208D01*
X46122Y47227D01*
Y47692D01*
X47214Y48784D01*
X47260Y48765D01*
D02*
G37*
G36*
X48906Y39614D02*
X48885Y39564D01*
X48522D01*
Y39130D01*
X48715D01*
X48946Y38899D01*
X48946Y38899D01*
X48992Y38868D01*
X49047Y38857D01*
X49609D01*
X49611Y38856D01*
X49670Y38844D01*
X50389D01*
X50449Y38856D01*
X50451Y38857D01*
X51372D01*
X52463Y37766D01*
X52499Y37713D01*
X52561Y37671D01*
X52636Y37656D01*
X52710Y37671D01*
X52772Y37713D01*
X52814Y37776D01*
X52829Y37850D01*
X52814Y37924D01*
X52772Y37987D01*
X52710Y38029D01*
X52636Y38044D01*
X52597Y38036D01*
X51532Y39101D01*
X51506Y39118D01*
X51521Y39168D01*
X51702D01*
X52685Y38185D01*
X52715Y38165D01*
X52750Y38158D01*
X53282D01*
X53297Y38120D01*
X53299Y38108D01*
X53267Y38060D01*
X53255Y38000D01*
X53267Y37940D01*
X53300Y37890D01*
X53351Y37856D01*
X53411Y37844D01*
X54130D01*
X54157Y37850D01*
X54222Y37785D01*
X54252Y37765D01*
X54287Y37758D01*
X54808D01*
Y37640D01*
X54915D01*
Y36590D01*
X54902Y36543D01*
X54868Y36542D01*
X53187D01*
X51664Y38065D01*
X51634Y38085D01*
X51599Y38092D01*
X50512D01*
X50500Y38110D01*
X50449Y38144D01*
X50389Y38156D01*
X50122D01*
Y38344D01*
X50389D01*
X50449Y38356D01*
X50500Y38390D01*
X50533Y38440D01*
X50545Y38500D01*
X50533Y38560D01*
X50500Y38610D01*
X50449Y38644D01*
X50389Y38656D01*
X49670D01*
X49611Y38644D01*
X49560Y38610D01*
X49548Y38592D01*
X48917D01*
Y38710D01*
X48520D01*
Y38290D01*
X48627D01*
Y37457D01*
X47888Y36718D01*
X47842Y36737D01*
Y39412D01*
X48088Y39658D01*
X48862D01*
X48906Y39614D01*
D02*
G37*
G36*
X44393Y35408D02*
X44381Y35392D01*
X41850D01*
X41815Y35385D01*
X41785Y35365D01*
X40485Y34065D01*
X40465Y34035D01*
X40458Y34000D01*
Y33926D01*
X40408Y33916D01*
X40394Y33949D01*
X40331Y34031D01*
X40249Y34094D01*
X40153Y34134D01*
X40050Y34148D01*
X39947Y34134D01*
X39851Y34094D01*
X39769Y34031D01*
X39706Y33949D01*
X39666Y33853D01*
X39652Y33750D01*
X39666Y33647D01*
X39706Y33551D01*
X39769Y33469D01*
X39851Y33406D01*
X39947Y33366D01*
X40007Y33358D01*
X40003Y33308D01*
X39516D01*
X39481Y33301D01*
X39451Y33281D01*
X39258Y33088D01*
X39249Y33094D01*
X39153Y33134D01*
X39050Y33148D01*
X38947Y33134D01*
X38851Y33094D01*
X38769Y33031D01*
X38706Y32949D01*
X38692Y32916D01*
X38642Y32926D01*
Y33574D01*
X38692Y33584D01*
X38706Y33551D01*
X38769Y33469D01*
X38851Y33406D01*
X38947Y33366D01*
X39050Y33352D01*
X39153Y33366D01*
X39249Y33406D01*
X39331Y33469D01*
X39394Y33551D01*
X39434Y33647D01*
X39448Y33750D01*
X39434Y33853D01*
X39394Y33949D01*
X39331Y34031D01*
X39249Y34094D01*
X39153Y34134D01*
X39050Y34148D01*
X38947Y34134D01*
X38851Y34094D01*
X38769Y34031D01*
X38706Y33949D01*
X38692Y33916D01*
X38642Y33926D01*
Y34962D01*
X39138Y35458D01*
X44367D01*
X44393Y35408D01*
D02*
G37*
G36*
X44382Y35162D02*
X44312Y35092D01*
X42672D01*
X42637Y35085D01*
X42607Y35065D01*
X41541Y33999D01*
X41521Y33969D01*
X41514Y33934D01*
Y33735D01*
X41494Y33721D01*
X41448Y33749D01*
X41448Y33750D01*
X41434Y33853D01*
X41394Y33949D01*
X41331Y34031D01*
X41249Y34094D01*
X41153Y34134D01*
X41050Y34148D01*
X40947Y34134D01*
X40851Y34094D01*
X40824Y34074D01*
X40791Y34112D01*
X41888Y35208D01*
X44363D01*
X44382Y35162D01*
D02*
G37*
G36*
X36668Y33858D02*
X36666Y33853D01*
X36652Y33750D01*
X36666Y33647D01*
X36706Y33551D01*
X36769Y33469D01*
X36851Y33406D01*
X36884Y33392D01*
X36874Y33342D01*
X36850D01*
X36815Y33335D01*
X36785Y33315D01*
X36485Y33015D01*
X36465Y32985D01*
X36458Y32950D01*
Y32926D01*
X36408Y32916D01*
X36394Y32949D01*
X36331Y33031D01*
X36249Y33094D01*
X36153Y33134D01*
X36050Y33148D01*
X35947Y33134D01*
X35851Y33094D01*
X35842Y33088D01*
X35603Y33327D01*
Y33974D01*
X35653Y33989D01*
X35663Y33974D01*
X35700Y33936D01*
X35666Y33853D01*
X35652Y33750D01*
X35666Y33647D01*
X35706Y33551D01*
X35769Y33469D01*
X35851Y33406D01*
X35947Y33366D01*
X36050Y33352D01*
X36153Y33366D01*
X36249Y33406D01*
X36331Y33469D01*
X36394Y33551D01*
X36434Y33647D01*
X36448Y33750D01*
X36434Y33853D01*
X36394Y33949D01*
X36331Y34031D01*
X36249Y34094D01*
X36153Y34134D01*
X36050Y34148D01*
X36038Y34146D01*
X35994Y34191D01*
Y34462D01*
X36044Y34482D01*
X36668Y33858D01*
D02*
G37*
G36*
X52482Y33328D02*
X52476Y33300D01*
X52491Y33226D01*
X52533Y33163D01*
X52563Y33143D01*
X52548Y33093D01*
X52159D01*
X51251Y34001D01*
X51205Y34032D01*
X51150Y34043D01*
X51150Y34043D01*
X49850D01*
X49850Y34043D01*
X49795Y34032D01*
X49749Y34001D01*
X49749Y34001D01*
X49640Y33892D01*
X49576Y33879D01*
X49522Y33843D01*
X46500D01*
X46500Y33843D01*
X46445Y33832D01*
X46399Y33801D01*
X44940Y32342D01*
X44880Y32330D01*
X44878Y32332D01*
X44867Y32387D01*
X46578Y34098D01*
X51712D01*
X52482Y33328D01*
D02*
G37*
G36*
X42844Y34858D02*
X42821Y34824D01*
X42806Y34750D01*
X42821Y34676D01*
X42863Y34613D01*
X42895Y34592D01*
X42880Y34542D01*
X42750D01*
X42715Y34535D01*
X42685Y34515D01*
X42429Y34259D01*
X42410Y34229D01*
X42403Y34194D01*
Y33604D01*
X42107Y33308D01*
X41516D01*
X41481Y33301D01*
X41451Y33281D01*
X41258Y33088D01*
X41249Y33094D01*
X41153Y33134D01*
X41050Y33148D01*
X41049Y33148D01*
X41021Y33194D01*
X41035Y33214D01*
X41234D01*
X41269Y33221D01*
X41299Y33241D01*
X41671Y33612D01*
X41690Y33642D01*
X41697Y33677D01*
Y33896D01*
X42710Y34908D01*
X42817D01*
X42844Y34858D01*
D02*
G37*
G36*
X43854Y34312D02*
X43468Y33926D01*
X43448Y33897D01*
X43441Y33861D01*
Y33643D01*
X43162Y33364D01*
X42944D01*
X42908Y33357D01*
X42879Y33337D01*
X42500Y32958D01*
X42387D01*
X42331Y33031D01*
X42249Y33094D01*
X42228Y33103D01*
X42220Y33122D01*
X42219Y33161D01*
X42559Y33501D01*
X42579Y33531D01*
X42586Y33566D01*
Y34156D01*
X42788Y34358D01*
X43835D01*
X43854Y34312D01*
D02*
G37*
G36*
X41825Y33074D02*
X41769Y33031D01*
X41706Y32949D01*
X41666Y32853D01*
X41652Y32750D01*
X41666Y32647D01*
X41706Y32551D01*
X41712Y32542D01*
X41032Y31862D01*
X40357D01*
X40338Y31908D01*
X40842Y32412D01*
X40851Y32406D01*
X40947Y32366D01*
X41050Y32352D01*
X41153Y32366D01*
X41249Y32406D01*
X41331Y32469D01*
X41394Y32551D01*
X41434Y32647D01*
X41448Y32750D01*
X41434Y32853D01*
X41394Y32949D01*
X41388Y32958D01*
X41554Y33124D01*
X41808D01*
X41825Y33074D01*
D02*
G37*
G36*
X39825D02*
X39769Y33031D01*
X39706Y32949D01*
X39666Y32853D01*
X39652Y32750D01*
X39666Y32647D01*
X39706Y32551D01*
X39712Y32542D01*
X39462Y32292D01*
X38888D01*
X38791Y32388D01*
X38825Y32426D01*
X38851Y32406D01*
X38947Y32366D01*
X39050Y32352D01*
X39153Y32366D01*
X39249Y32406D01*
X39331Y32469D01*
X39394Y32551D01*
X39434Y32647D01*
X39448Y32750D01*
X39434Y32853D01*
X39394Y32949D01*
X39388Y32958D01*
X39554Y33124D01*
X39808D01*
X39825Y33074D01*
D02*
G37*
G36*
X37622Y32048D02*
X37603Y32002D01*
X36497D01*
X36478Y32048D01*
X36842Y32412D01*
X36851Y32406D01*
X36947Y32366D01*
X37050Y32352D01*
X37153Y32366D01*
X37249Y32406D01*
X37258Y32412D01*
X37622Y32048D01*
D02*
G37*
G36*
X37619Y32802D02*
X37648Y32782D01*
X37656Y32780D01*
X37652Y32750D01*
X37666Y32647D01*
X37706Y32551D01*
X37769Y32469D01*
X37851Y32406D01*
X37947Y32366D01*
X38050Y32352D01*
X38153Y32366D01*
X38249Y32406D01*
X38331Y32469D01*
X38394Y32551D01*
X38408Y32584D01*
X38458Y32574D01*
Y32500D01*
X38465Y32465D01*
X38485Y32435D01*
X38722Y32198D01*
X38703Y32152D01*
X37778D01*
X37388Y32542D01*
X37394Y32551D01*
X37434Y32647D01*
X37448Y32750D01*
X37434Y32853D01*
X37394Y32949D01*
X37374Y32976D01*
X37412Y33009D01*
X37619Y32802D01*
D02*
G37*
G36*
X53917Y32108D02*
Y31792D01*
X54582D01*
X54720Y31654D01*
X54701Y31608D01*
X53917D01*
Y31542D01*
X53697D01*
X53692Y31547D01*
Y32062D01*
X53738Y32108D01*
X53867D01*
X53917Y32108D01*
D02*
G37*
G36*
X50216Y31525D02*
Y31292D01*
X51083D01*
Y31426D01*
X51091D01*
X51127Y31433D01*
X51156Y31453D01*
X51162Y31459D01*
X51208Y31440D01*
Y28999D01*
X51129Y28921D01*
X51083Y28940D01*
Y29108D01*
X50216D01*
Y28792D01*
X50185Y28765D01*
X49885Y28465D01*
X49865Y28435D01*
X49858Y28400D01*
Y28249D01*
X49719Y28110D01*
X49665Y28126D01*
X49659Y28154D01*
X49617Y28217D01*
X49592Y28234D01*
Y28833D01*
X49823D01*
Y29267D01*
X49779D01*
Y29690D01*
X49845D01*
Y30088D01*
X49845Y30088D01*
X49845Y30088D01*
X49872Y30129D01*
X49884Y30138D01*
X49905Y30152D01*
X50160Y30406D01*
X50160Y30406D01*
X50166Y30416D01*
X50216Y30400D01*
Y30292D01*
X51083D01*
Y30608D01*
X50299D01*
X50280Y30654D01*
X50418Y30792D01*
X51083D01*
Y31108D01*
X50216D01*
Y30994D01*
X49958Y30736D01*
X49927Y30689D01*
X49916Y30635D01*
X49916Y30635D01*
Y30594D01*
X49901Y30583D01*
X49851Y30608D01*
Y30852D01*
X49796D01*
Y31189D01*
X49851D01*
Y31341D01*
X49908D01*
X49908Y31341D01*
X49962Y31352D01*
X50009Y31383D01*
X50170Y31544D01*
X50216Y31525D01*
D02*
G37*
G36*
X48098Y33080D02*
Y32790D01*
X48105D01*
X48132Y32740D01*
X48121Y32724D01*
X48106Y32650D01*
X48121Y32576D01*
X48163Y32513D01*
X48224Y32473D01*
X48224Y32469D01*
X48207Y32423D01*
X48098D01*
Y32010D01*
X48063Y31987D01*
X48021Y31924D01*
X48006Y31850D01*
X48021Y31776D01*
X48055Y31724D01*
X48078Y31684D01*
Y31249D01*
X48325D01*
X48344Y31203D01*
X48238Y31097D01*
X48105D01*
X48070Y31090D01*
X48040Y31070D01*
X47820Y30849D01*
X47812D01*
X47803Y30848D01*
X47634D01*
X47433Y31049D01*
Y31812D01*
X47623Y32002D01*
X47902D01*
Y32423D01*
X47505D01*
Y32144D01*
X47276Y31915D01*
X47256Y31885D01*
X47249Y31850D01*
Y31639D01*
X47199Y31612D01*
X47174Y31629D01*
X47100Y31644D01*
X47026Y31629D01*
X47002Y31613D01*
X46952Y31640D01*
Y32107D01*
X47634Y32790D01*
X47902D01*
Y33168D01*
X48010D01*
X48098Y33080D01*
D02*
G37*
G36*
X49456Y31624D02*
Y31189D01*
X49417Y31163D01*
X48817D01*
X48763Y31152D01*
X48716Y31122D01*
X48716Y31122D01*
X48599Y31004D01*
X48568Y30958D01*
X48557Y30903D01*
X48557Y30903D01*
Y30573D01*
X48521Y30519D01*
X48511Y30470D01*
X47902D01*
Y30679D01*
X47922Y30693D01*
X48143Y30913D01*
X48276D01*
X48311Y30920D01*
X48341Y30940D01*
X48775Y31375D01*
X48795Y31404D01*
X48802Y31440D01*
Y31522D01*
X48938Y31658D01*
X49420D01*
X49456Y31624D01*
D02*
G37*
G36*
Y30852D02*
Y30418D01*
X49415Y30396D01*
X49395D01*
X49395Y30396D01*
X49340Y30385D01*
X49294Y30354D01*
X49294Y30354D01*
X49050Y30110D01*
X48855D01*
Y30018D01*
X48495D01*
Y30060D01*
X48098D01*
Y29640D01*
X48495D01*
Y29732D01*
X48855D01*
Y29690D01*
X49252D01*
Y29908D01*
X49402Y30058D01*
X49448Y30038D01*
Y29690D01*
X49493D01*
Y29267D01*
X49428D01*
Y28979D01*
X49415Y28960D01*
X49408Y28924D01*
Y28260D01*
X49406Y28259D01*
X49343Y28217D01*
X49301Y28154D01*
X49296Y28126D01*
X49241Y28110D01*
X47795Y29556D01*
Y29640D01*
X47902D01*
Y30060D01*
X47634D01*
X47556Y30138D01*
X47575Y30185D01*
X48583D01*
X48583Y30185D01*
X48637Y30196D01*
X48684Y30226D01*
X48710Y30253D01*
X48774Y30266D01*
X48837Y30308D01*
X48879Y30370D01*
X48894Y30445D01*
X48879Y30519D01*
X48843Y30573D01*
Y30844D01*
X48876Y30878D01*
X49417D01*
X49456Y30852D01*
D02*
G37*
G36*
X57614Y31738D02*
X57606Y31700D01*
X57621Y31626D01*
X57663Y31563D01*
X57726Y31521D01*
X57800Y31506D01*
X57874Y31521D01*
X57937Y31563D01*
X57958Y31595D01*
X58008Y31580D01*
Y30553D01*
X57416Y29960D01*
X57148D01*
Y29540D01*
X57427D01*
X57608Y29359D01*
Y28599D01*
X57151Y28142D01*
X53888D01*
X53542Y28488D01*
Y31372D01*
X53588Y31391D01*
X53594Y31385D01*
X53623Y31365D01*
X53659Y31358D01*
X53917D01*
Y31292D01*
X54784D01*
Y31525D01*
X54830Y31544D01*
X54989Y31385D01*
X54989Y31385D01*
X55036Y31354D01*
X55090Y31343D01*
X55124Y31310D01*
Y31191D01*
X55179D01*
Y30854D01*
X55124D01*
Y30567D01*
X55078Y30548D01*
X54786Y30841D01*
Y30882D01*
X54784Y30891D01*
Y31108D01*
X53917D01*
Y30792D01*
X54604D01*
X54609Y30767D01*
X54629Y30738D01*
X54713Y30654D01*
X54693Y30608D01*
X53917D01*
Y30292D01*
X54784D01*
Y30517D01*
X54830Y30537D01*
X55207Y30160D01*
X55205Y30144D01*
X55190Y30110D01*
X55055D01*
Y29690D01*
X55107D01*
Y29294D01*
X55107Y29294D01*
X55118Y29240D01*
X55127Y29226D01*
Y28983D01*
X55392D01*
X55590Y28785D01*
X55620Y28765D01*
X55655Y28758D01*
X56950D01*
X56985Y28765D01*
X57015Y28785D01*
X57097Y28867D01*
X57150Y28856D01*
X57224Y28871D01*
X57287Y28913D01*
X57329Y28976D01*
X57344Y29050D01*
X57329Y29124D01*
X57287Y29187D01*
X57224Y29229D01*
X57150Y29244D01*
X57076Y29229D01*
X57013Y29187D01*
X56971Y29124D01*
X56956Y29050D01*
X56967Y28997D01*
X56912Y28942D01*
X55693D01*
X55522Y29113D01*
Y29417D01*
X55393D01*
Y29690D01*
X55452D01*
Y30056D01*
X55502Y30076D01*
X55514Y30065D01*
X55544Y30045D01*
X55579Y30038D01*
X55590D01*
X55648Y29980D01*
Y29690D01*
X56045D01*
Y29757D01*
X56555D01*
Y29540D01*
X56952D01*
Y29960D01*
X56757D01*
X56716Y30001D01*
X56669Y30032D01*
X56615Y30043D01*
X56615Y30043D01*
X56045D01*
Y30110D01*
X55802D01*
X55789Y30127D01*
X55814Y30177D01*
X56088D01*
X56088Y30177D01*
X56143Y30188D01*
X56189Y30219D01*
X56401Y30430D01*
X56401Y30430D01*
X56432Y30477D01*
X56443Y30531D01*
X56443Y30531D01*
Y30772D01*
X56479Y30826D01*
X56494Y30900D01*
X56479Y30974D01*
X56437Y31037D01*
X56374Y31079D01*
X56300Y31094D01*
X56226Y31079D01*
X56163Y31037D01*
X56121Y30974D01*
X56106Y30900D01*
X56121Y30826D01*
X56157Y30772D01*
Y30591D01*
X56029Y30462D01*
X55718D01*
Y30551D01*
X55727Y30558D01*
X55790Y30554D01*
X55828Y30529D01*
X55873Y30520D01*
X55918Y30529D01*
X55956Y30554D01*
X55981Y30592D01*
X55990Y30637D01*
Y31409D01*
X55981Y31453D01*
X55956Y31492D01*
X55918Y31517D01*
X55873Y31526D01*
X55828Y31517D01*
X55790Y31492D01*
X55764Y31453D01*
X55756Y31409D01*
Y30999D01*
X55706Y30984D01*
X55698Y30995D01*
X55698Y30995D01*
X55569Y31124D01*
X55536Y31146D01*
X55519Y31191D01*
X55519Y31191D01*
X55519Y31191D01*
Y31626D01*
X55278D01*
X55264Y31629D01*
X55264Y31628D01*
X55149D01*
X55063Y31715D01*
X55088Y31761D01*
X55100Y31758D01*
X55855D01*
X56353Y31260D01*
X56383Y31240D01*
X56418Y31233D01*
X56555D01*
Y31115D01*
X56822D01*
X57160Y30777D01*
X57148Y30748D01*
X57148D01*
Y30327D01*
X57545D01*
Y30748D01*
X57380D01*
Y30779D01*
X57373Y30814D01*
X57353Y30844D01*
X57144Y31052D01*
X57144Y31068D01*
X57190Y31115D01*
X57196Y31115D01*
X57545D01*
Y31535D01*
X57439D01*
Y31848D01*
X57485Y31867D01*
X57614Y31738D01*
D02*
G37*
%LPC*%
G36*
X54130Y37656D02*
X53411D01*
X53351Y37644D01*
X53300Y37610D01*
X53267Y37560D01*
X53255Y37500D01*
X53267Y37440D01*
X53300Y37390D01*
X53351Y37356D01*
X53411Y37344D01*
X54130D01*
X54189Y37356D01*
X54240Y37390D01*
X54274Y37440D01*
X54286Y37500D01*
X54274Y37560D01*
X54240Y37610D01*
X54189Y37644D01*
X54130Y37656D01*
D02*
G37*
G36*
Y37156D02*
X53411D01*
X53351Y37144D01*
X53300Y37110D01*
X53267Y37060D01*
X53255Y37000D01*
X53267Y36940D01*
X53300Y36890D01*
X53351Y36856D01*
X53411Y36844D01*
X54130D01*
X54189Y36856D01*
X54240Y36890D01*
X54274Y36940D01*
X54286Y37000D01*
X54274Y37060D01*
X54240Y37110D01*
X54189Y37144D01*
X54130Y37156D01*
D02*
G37*
G36*
X51083Y30108D02*
X50216D01*
Y29792D01*
X51083D01*
Y30108D01*
D02*
G37*
G36*
Y29608D02*
X50216D01*
Y29292D01*
X51083D01*
Y29608D01*
D02*
G37*
G36*
X54784Y30108D02*
X53917D01*
Y29792D01*
X54784D01*
Y30108D01*
D02*
G37*
G36*
Y29608D02*
X53917D01*
Y29292D01*
X54784D01*
Y29608D01*
D02*
G37*
G36*
Y29108D02*
X53917D01*
Y28792D01*
X54784D01*
Y29108D01*
D02*
G37*
G36*
Y28608D02*
X53917D01*
Y28292D01*
X54784D01*
Y28608D01*
D02*
G37*
%LPD*%
D10*
X55007Y36543D02*
Y37850D01*
Y36543D02*
X58550Y33000D01*
Y24250D02*
Y33000D01*
X58410Y24308D02*
Y32942D01*
X53149Y36450D02*
X54902D01*
X58410Y32942D01*
X38130Y47864D02*
Y49820D01*
X28900Y51800D02*
X36150D01*
X36100Y51550D02*
X37342Y50308D01*
X36150Y51800D02*
X38130Y49820D01*
X28200Y51750D02*
X28400Y51550D01*
X37342Y47864D02*
Y50308D01*
X28400Y51550D02*
X36100D01*
X38565Y44255D02*
X39545Y45235D01*
X37600Y43903D02*
X38213D01*
X38565Y44255D01*
Y43265D02*
Y44255D01*
X43125Y52200D02*
X43176Y52251D01*
X39545Y49507D02*
X42238Y52200D01*
X39545Y45235D02*
Y49507D01*
X42238Y52200D02*
X43125D01*
X55275Y30221D02*
X55487D01*
X55628Y30130D02*
X55847Y29911D01*
X55487Y30221D02*
X55579Y30130D01*
X55628D01*
X35511Y33289D02*
Y36089D01*
X35050Y36550D02*
X35511Y36089D01*
X34350Y33100D02*
Y36146D01*
X34954Y32846D02*
X35050Y32750D01*
X34604Y32846D02*
X34954D01*
X34350Y33100D02*
X34604Y32846D01*
X34350Y36146D02*
X34700Y36496D01*
Y36550D01*
X35511Y33289D02*
X36050Y32750D01*
X27642Y41550D02*
X28950Y40242D01*
X24200Y41550D02*
X27642D01*
X28950Y38550D02*
Y40242D01*
X31745Y49405D02*
Y50161D01*
X31155Y49395D02*
Y50161D01*
X31361Y49730D02*
X31419Y49671D01*
X31678D01*
X31361Y49730D02*
Y50152D01*
X35584Y31490D02*
X43840D01*
X46540Y34190D01*
X44316Y33216D02*
X47750Y36650D01*
X43050Y32750D02*
X43516Y33216D01*
X48719Y37419D02*
Y38500D01*
X46540Y34190D02*
X51750D01*
X35526Y31630D02*
X43780D01*
X43516Y33216D02*
X44316D01*
X44050Y32750D02*
X48719Y37419D01*
X47750Y36650D02*
Y39450D01*
X43780Y31630D02*
X46500Y34350D01*
X47210Y33260D02*
X48048D01*
X47180Y33230D02*
X47210Y33260D01*
X51750Y34190D02*
X52640Y33300D01*
X46500Y34350D02*
X52930D01*
X47341Y31011D02*
Y31850D01*
X46860Y30685D02*
Y32145D01*
Y30685D02*
X47408Y30137D01*
X46860Y32145D02*
X47703Y32989D01*
X47341Y31850D02*
X47583Y32092D01*
X47341Y31011D02*
X47703Y30649D01*
X29265Y28710D02*
X29843D01*
X29903Y28650D02*
X30427D01*
X29843Y28710D02*
X29903Y28650D01*
X40550Y33622D02*
Y34000D01*
X41850Y35300D01*
X44450D01*
X40145Y33216D02*
X40550Y33622D01*
X36550Y32950D02*
X36850Y33250D01*
X37300D02*
X37684Y32866D01*
X36850Y33250D02*
X37300D01*
X37684Y32866D02*
X37934D01*
X36550Y32550D02*
Y32950D01*
X36200Y32200D02*
X36550Y32550D01*
X31988Y28888D02*
X35300Y32200D01*
X36200D01*
X31950Y28648D02*
X35352Y32050D01*
X35468Y31770D02*
X41070D01*
X40210Y31910D02*
X41050Y32750D01*
X41070Y31770D02*
X42050Y32750D01*
X35352Y32050D02*
X36350D01*
X33750Y29656D02*
X35584Y31490D01*
X33470Y29772D02*
X35468Y31770D01*
X33330Y29830D02*
X35410Y31910D01*
X36350Y32050D02*
X37050Y32750D01*
X33610Y29714D02*
X35526Y31630D01*
X35410Y31910D02*
X40210D01*
X38850Y32200D02*
X39500D01*
X38550Y32500D02*
X38850Y32200D01*
X40060Y32060D02*
X40606Y32606D01*
X37050Y32750D02*
X37740Y32060D01*
X39500Y32200D02*
X40050Y32750D01*
X37740Y32060D02*
X40060D01*
X38550Y32500D02*
Y35000D01*
X39100Y35550D01*
X44460D01*
X45750Y36840D01*
X23250Y42500D02*
X24200Y41550D01*
X23250Y42500D02*
Y46800D01*
X23651Y47201D01*
X25311D02*
X25750Y47639D01*
X23651Y47201D02*
X25311D01*
X30427Y28650D02*
X30665Y28888D01*
X31988D01*
X47703Y29518D02*
Y29861D01*
X47427Y30137D02*
X47703Y29861D01*
X47408Y30137D02*
X47427D01*
X48048Y33260D02*
X48300Y33008D01*
X43982Y34310D02*
X44260D01*
X42750Y34450D02*
X44196D01*
X46310Y36564D01*
Y46860D01*
X44260Y34310D02*
X46450Y36500D01*
Y40570D01*
X48300Y32650D02*
Y33008D01*
X33610Y24664D02*
Y29714D01*
X33750Y24606D02*
Y29656D01*
X33470Y27215D02*
Y29772D01*
X33330Y26030D02*
Y29830D01*
X37934Y32866D02*
X38050Y32750D01*
X32258Y24760D02*
X33470Y25972D01*
X31015Y24760D02*
X32258D01*
X24100Y24900D02*
X32200D01*
X33330Y26030D01*
X33470Y25972D02*
Y27215D01*
X23800Y24600D02*
X24100Y24900D01*
X23940Y24542D02*
X24158Y24760D01*
X31015D01*
X32691Y23745D02*
X33610Y24664D01*
X32749Y23605D02*
X33750Y24606D01*
X28205Y23745D02*
X32691D01*
X28664Y23605D02*
X32749D01*
X23800Y23102D02*
Y24600D01*
X23940Y23160D02*
Y24542D01*
X23800Y23102D02*
X25152Y21750D01*
X23940Y23160D02*
X25180Y21920D01*
X25152Y21750D02*
X28380D01*
X25180Y21920D02*
X27760D01*
X41050Y32750D02*
X41516Y33216D01*
X28380Y21750D02*
X29030Y22400D01*
X27760Y21920D02*
X28240Y22400D01*
X28340D01*
X29030D02*
X29130D01*
X26860D02*
X28205Y23745D01*
X27750Y22691D02*
X28664Y23605D01*
X48050Y39750D02*
X48900D01*
X47750Y39450D02*
X48050Y39750D01*
X42944Y33272D02*
X43200D01*
X43533Y33605D01*
Y33861D01*
X42538Y32866D02*
X42944Y33272D01*
X43533Y33861D02*
X43982Y34310D01*
X42050Y32750D02*
X42166Y32866D01*
X42538D01*
X46450Y40570D02*
X48685Y42805D01*
X45650Y44646D02*
Y44700D01*
Y44646D02*
X45750Y44546D01*
Y36840D02*
Y44546D01*
X52640Y33300D02*
X52670D01*
X50800Y33610D02*
X50840D01*
X51600Y32850D01*
X47703Y32989D02*
Y33000D01*
X49326Y27896D02*
X49326D01*
X49381Y27840D01*
X47703Y29518D02*
X49326Y27896D01*
X50250Y28700D02*
X51039D01*
X49950Y28211D02*
Y28400D01*
X50250Y28700D01*
X49580Y27840D02*
X49950Y28211D01*
X49381Y27840D02*
X49580D01*
X49480Y28080D02*
X49500Y28100D01*
Y28924D01*
X51039Y28700D02*
X51300Y28961D01*
Y32300D01*
X51150Y32450D02*
X51300Y32300D01*
X50650Y32450D02*
X51150D01*
X50250Y32200D02*
X51091D01*
X51150Y31577D02*
Y32141D01*
X51091Y32200D02*
X51150Y32141D01*
X51600Y29000D02*
X52655Y27945D01*
X51600Y29000D02*
Y32850D01*
X50650Y31450D02*
X50718Y31518D01*
X51091D01*
X51150Y31577D01*
X44298Y34750D02*
X46170Y36622D01*
X44350Y35000D02*
X46030Y36680D01*
X45890Y36740D02*
Y47790D01*
X46170Y36622D02*
Y47080D01*
X43000Y34750D02*
X44298D01*
X42672Y35000D02*
X44350D01*
X46030Y36680D02*
Y47730D01*
X44450Y35300D02*
X45890Y36740D01*
X48900Y39750D02*
X49390Y39260D01*
X51740D01*
X52750Y38250D02*
X53770D01*
X51740Y39260D02*
X52750Y38250D01*
X53770D02*
Y38500D01*
Y38000D02*
Y38250D01*
X51599Y38000D02*
X53149Y36450D01*
X50030Y38000D02*
X51599D01*
X53850Y28050D02*
X57189D01*
X57700Y28561D01*
X53450Y28450D02*
X53850Y28050D01*
X57467Y29630D02*
X57700Y29397D01*
Y28561D02*
Y29397D01*
X57347Y29739D02*
X57455Y29630D01*
X57347Y29739D02*
Y29761D01*
X57455Y29630D02*
X57467D01*
X57347Y29761D02*
X58100Y30515D01*
Y32135D01*
X57347Y32889D02*
Y32900D01*
Y32889D02*
X58100Y32135D01*
X53050Y28350D02*
X53700Y27700D01*
Y24127D02*
Y27700D01*
Y24127D02*
X54070Y23757D01*
X53450Y28450D02*
Y32300D01*
X55324Y29180D02*
X55655Y28850D01*
X56950D02*
X57150Y29050D01*
X55655Y28850D02*
X56950D01*
X53450Y32300D02*
X53600Y32450D01*
X53600Y32100D02*
X53700Y32200D01*
X53600Y31509D02*
X53659Y31450D01*
X53600Y31509D02*
Y32100D01*
X53659Y31450D02*
X54350D01*
X53600Y32450D02*
X54350D01*
X50650Y50240D02*
X50950D01*
X51200Y49990D01*
Y48822D02*
Y49990D01*
Y48822D02*
X51600Y48422D01*
Y47200D02*
Y48422D01*
X51050Y37650D02*
X51650D01*
X55350Y33950D01*
X47595Y32092D02*
X47703Y32201D01*
Y32213D01*
X47583Y32092D02*
X47595D01*
X40606Y32606D02*
Y32934D01*
X55100Y31850D02*
X55893D01*
X56418Y31325D01*
X53700Y32200D02*
X54750D01*
X55100Y31850D01*
X56350Y32900D02*
X56753D01*
X49800Y31750D02*
X50250Y32200D01*
X48900Y31750D02*
X49800D01*
X52655Y24172D02*
Y27945D01*
Y24172D02*
X53280Y23547D01*
Y22400D02*
Y23547D01*
X54070Y22400D02*
Y23757D01*
X56700Y22400D02*
X58550Y24250D01*
X56952Y22850D02*
X58410Y24308D01*
X55650Y22400D02*
X56700D01*
X55410Y22850D02*
X56952D01*
X54960Y22400D02*
X55410Y22850D01*
X54860Y22400D02*
X54960D01*
X57782Y31700D02*
X57800D01*
X57347Y32135D02*
X57782Y31700D01*
X45890Y47790D02*
X48730Y50630D01*
X46030Y47730D02*
X48540Y50240D01*
X46170Y47080D02*
X47600Y48510D01*
X46310Y46860D02*
X46750Y47300D01*
X52588Y47700D02*
X52875Y47987D01*
X52250Y47700D02*
X52588D01*
X52875Y47987D02*
Y48260D01*
X53125Y48510D01*
X53425D01*
X56250Y40264D02*
Y44150D01*
X55597Y38689D02*
Y38700D01*
X55597Y39592D02*
Y39611D01*
Y38701D02*
Y39592D01*
X55597Y38700D02*
X55597Y38701D01*
X48200Y31542D02*
X48276Y31467D01*
X48200Y31542D02*
Y31850D01*
Y32116D01*
X49500Y28924D02*
X49626Y29050D01*
X50750Y26300D02*
Y28050D01*
X47858Y30758D02*
X48105Y31005D01*
X48276D01*
X47812Y30758D02*
X47858D01*
X48276Y31005D02*
X48710Y31440D01*
X42494Y34194D02*
X42750Y34450D01*
X41516Y33216D02*
X42145D01*
X42494Y33566D01*
Y34194D01*
X40977Y33306D02*
X41234D01*
X40606Y32934D02*
X40977Y33306D01*
X41606Y33677D02*
Y33934D01*
X42672Y35000D01*
X41234Y33306D02*
X41606Y33677D01*
X39050Y32750D02*
X39516Y33216D01*
X40145D01*
X46750Y47300D02*
X49350D01*
X53377Y43300D02*
X53770D01*
X53321Y43356D02*
X53377Y43300D01*
X53294Y43356D02*
X53321D01*
X49350Y47300D02*
X53294Y43356D01*
X48870Y47840D02*
X50650D01*
X48200Y48510D02*
X48870Y47840D01*
X47600Y48510D02*
X47900D01*
X48200D01*
X48730Y50630D02*
X52624D01*
X48540Y50240D02*
X50650D01*
X52624Y50630D02*
X53014Y50240D01*
X56175D01*
Y47840D02*
X56300Y47715D01*
Y45700D02*
Y47715D01*
X55597Y39611D02*
X56250Y40264D01*
X48685Y42805D02*
X48764D01*
X27750Y22600D02*
Y22691D01*
X27707Y22557D02*
X27750Y22600D01*
X27707Y22539D02*
Y22557D01*
X27550Y22400D02*
X27569D01*
X27707Y22539D01*
X48710Y31440D02*
Y31560D01*
X47703Y30638D02*
Y30649D01*
X26760Y22400D02*
X26860D01*
X48200Y32116D02*
X48297Y32213D01*
X54350Y31450D02*
X54350Y31450D01*
X48719Y38500D02*
X50030D01*
Y38000D02*
Y38500D01*
X47703Y30649D02*
X47812Y30758D01*
X48710Y31560D02*
X48900Y31750D01*
X55324Y29180D02*
Y29200D01*
X57347Y31325D02*
Y32135D01*
Y32154D01*
X54395Y47840D02*
X56175D01*
X53725Y48510D02*
X54395Y47840D01*
X53425Y48510D02*
X53725D01*
X54287Y37850D02*
X55007D01*
X54137Y38000D02*
X54287Y37850D01*
X53770Y38000D02*
X54137D01*
X55847Y29900D02*
Y29911D01*
X54694Y30803D02*
X55275Y30221D01*
X54694Y30803D02*
Y30882D01*
X54626Y30950D02*
X54694Y30882D01*
X54350Y30950D02*
X54626D01*
X56418Y31325D02*
X56753D01*
Y31314D02*
Y31325D01*
Y31314D02*
X57288Y30779D01*
Y30596D02*
Y30779D01*
Y30596D02*
X57347Y30538D01*
Y31325D02*
X57347Y31325D01*
Y32154D02*
X57347Y32154D01*
X27542Y50631D02*
Y50751D01*
X27547Y50756D01*
X28129D01*
X28223Y50850D01*
X28250D01*
X27881Y50292D02*
X28292D01*
X28900Y50900D01*
X26582Y42700D02*
X26700D01*
X26093Y43189D02*
X26582Y42700D01*
X26093Y43189D02*
Y43200D01*
X26952Y50631D02*
X26957Y50636D01*
X27312Y51262D02*
X27350Y51300D01*
X26957Y50636D02*
Y50797D01*
X27312Y51152D01*
Y51262D01*
X24053Y51539D02*
X24492Y51100D01*
X25200D01*
X26750Y51200D02*
X26755Y51195D01*
X26450Y50815D02*
Y52200D01*
X26755Y50631D02*
Y51195D01*
X26450Y50815D02*
X26509Y50756D01*
X26300Y52350D02*
X26450Y52200D01*
X26509Y50756D02*
X26553D01*
X26558Y50631D02*
Y50751D01*
X26553Y50756D02*
X26558Y50751D01*
X27022Y43900D02*
Y44578D01*
X26700Y44900D02*
X27022Y44578D01*
X26755Y48644D02*
Y48969D01*
X25750Y47639D02*
X26755Y48644D01*
X24731Y49898D02*
X26219D01*
X24598Y50032D02*
X24731Y49898D01*
X26150Y50361D02*
Y51440D01*
X27000Y51450D02*
Y52350D01*
X25744Y49308D02*
X26219D01*
X25056Y48620D02*
X25744Y49308D01*
X24705Y48620D02*
X25056D01*
X24597Y48511D02*
X24705Y48620D01*
X24597Y48500D02*
Y48511D01*
X25275Y49250D02*
X25530Y49505D01*
X24597Y49250D02*
X25275D01*
X25530Y49505D02*
X26219D01*
X24593Y47800D02*
Y48497D01*
X24597Y48500D01*
X24216Y49650D02*
X24598Y50032D01*
X23600Y49303D02*
X23947Y49650D01*
X24216D01*
X24003Y48500D02*
Y48511D01*
X23600Y48915D02*
X24003Y48511D01*
X23600Y48915D02*
Y49303D01*
X24598Y50032D02*
Y50052D01*
X26219Y49702D02*
Y49898D01*
X24647Y50101D02*
Y50780D01*
X24598Y50052D02*
X24647Y50101D01*
X24053Y51539D02*
Y51550D01*
Y50780D02*
Y51539D01*
X26150Y50361D02*
X26219Y50292D01*
X31155Y50161D02*
X31164Y50170D01*
Y50619D01*
X31539Y50170D02*
Y50619D01*
X31164D02*
X31222Y50677D01*
X31481D02*
X31539Y50619D01*
X31222Y50677D02*
X31481D01*
X31539Y50170D02*
X31548Y50161D01*
X31678Y49671D02*
X31736Y49730D01*
Y50152D01*
X31745Y50161D01*
X31352D02*
X31361Y50152D01*
X25700Y50209D02*
Y51750D01*
X25813Y50095D02*
X26219D01*
X25700Y50209D02*
X25813Y50095D01*
D17*
X39160Y28041D02*
Y28180D01*
Y28041D02*
X39430Y27771D01*
Y27450D02*
Y27771D01*
X42460Y28180D02*
Y31160D01*
X42550Y31250D01*
X39150Y28329D02*
Y31200D01*
X40630Y22610D02*
Y24570D01*
X38860Y25250D02*
X39950D01*
X40630Y24570D01*
X37460Y26625D02*
X38158Y25926D01*
X38184D01*
X38860Y25250D01*
X37460Y26625D02*
Y26650D01*
X29961Y37989D02*
X31750Y36200D01*
X32076D01*
X27300Y37989D02*
X29961D01*
X32076Y36200D02*
X33776Y37900D01*
X35250D01*
X31850Y38240D02*
X35391D01*
X35250Y37900D02*
X35800Y37350D01*
X35391Y38240D02*
X36140Y37491D01*
X35800Y34111D02*
Y37350D01*
X36140Y34660D02*
Y37491D01*
X31850Y38240D02*
Y38677D01*
Y37303D02*
Y38240D01*
X37650Y36000D02*
Y38168D01*
X36750Y35100D02*
X37650Y36000D01*
Y38168D02*
X38612Y39130D01*
X35800Y34111D02*
X36050Y33861D01*
Y33750D02*
Y33861D01*
X36140Y34660D02*
X37050Y33750D01*
X33230Y39130D02*
X34175D01*
X26093Y43914D02*
X27650Y42357D01*
X26093Y43914D02*
Y43925D01*
X27650Y42357D02*
X28843D01*
X30350Y42350D02*
X31750D01*
X36150Y39176D02*
X37224D01*
X37250Y39150D01*
X26541Y38674D02*
X27300D01*
Y37989D02*
Y38674D01*
X38050Y33750D02*
Y35100D01*
X38900Y35950D02*
X41450D01*
X38050Y35100D02*
X38900Y35950D01*
X40750Y37303D02*
Y38677D01*
X41450Y35950D02*
X42018Y36518D01*
X27300Y37303D02*
Y37989D01*
X42018Y36518D02*
Y38098D01*
X43050Y38817D02*
Y39130D01*
X43004Y38770D02*
X43050Y38817D01*
X42690Y38770D02*
X43004D01*
X42018Y38098D02*
X42690Y38770D01*
X45200Y37303D02*
Y38677D01*
X44483D02*
X45200D01*
X44030Y39130D02*
X44483Y38677D01*
X44700Y39800D02*
Y40802D01*
X44030Y39130D02*
X44700Y39800D01*
X43050Y39130D02*
X44030D01*
X39189Y41882D02*
Y41882D01*
X40535Y43228D02*
Y44215D01*
X39189Y41882D02*
X40535Y43228D01*
X38907Y41600D02*
X39189Y41882D01*
X33826Y41600D02*
X38907D01*
X33825Y41599D02*
X33826Y41600D01*
X38364Y41057D02*
X38907Y41600D01*
X29388Y40956D02*
X30032Y41600D01*
X38263Y40956D02*
X38364Y41057D01*
X30032Y41600D02*
X33826D01*
X29388Y40798D02*
Y40956D01*
X40328Y38685D02*
X40743D01*
X39900Y39112D02*
X40328Y38685D01*
X38630Y39112D02*
X39900D01*
X40262Y40627D02*
Y40802D01*
X39900Y40264D02*
X40262Y40627D01*
X39900Y39112D02*
Y40264D01*
X38612Y39130D02*
X38630Y39112D01*
X40743Y38685D02*
X40750Y38677D01*
X38263Y40798D02*
Y40956D01*
X33825Y40798D02*
Y41599D01*
X35178Y39168D02*
X36143D01*
X34213D02*
X35178D01*
X35825Y39815D02*
Y40802D01*
X35178Y39168D02*
X35825Y39815D01*
X34175Y39130D02*
X34213Y39168D01*
X36143D02*
X36150Y39176D01*
X31163Y39087D02*
X31565Y38685D01*
X31150Y39087D02*
X31163D01*
X31843Y38685D02*
X31850Y38677D01*
X31565Y38685D02*
X31843D01*
X29780Y39087D02*
X31150D01*
X31388Y40534D02*
Y40802D01*
X31150Y40296D02*
X31388Y40534D01*
X31150Y39087D02*
Y40296D01*
X29738Y39130D02*
X29780Y39087D01*
X26950Y39995D02*
Y40802D01*
X26085Y39130D02*
X26950Y39995D01*
X25300Y39130D02*
X26085D01*
X26541Y38674D01*
X28843Y42357D02*
X30343D01*
X30350Y42350D01*
X31750D02*
X32000D01*
X32950Y43300D01*
X42181Y44215D02*
X42300Y44334D01*
X42048Y44082D02*
X42181Y44215D01*
X42048Y43126D02*
Y44082D01*
Y43126D02*
X43084D01*
X40535Y44215D02*
X42181D01*
D19*
X39530Y22610D02*
D03*
X42090D02*
D03*
X40630D02*
D03*
X39530Y27350D02*
D03*
X42090D02*
D03*
X40630D02*
D03*
D20*
X56175Y51660D02*
D03*
X53425Y51260D02*
D03*
X56175Y50240D02*
D03*
Y47840D02*
D03*
X53425Y48510D02*
D03*
X47900D02*
D03*
X50650Y47840D02*
D03*
Y50240D02*
D03*
X47900Y51260D02*
D03*
X50650Y51660D02*
D03*
D21*
X27832Y47623D02*
D03*
X26668D02*
D03*
D22*
X28650Y49676D02*
D03*
Y49124D02*
D03*
X40750Y38677D02*
D03*
Y39228D02*
D03*
X27300Y38674D02*
D03*
Y39226D02*
D03*
X45200Y38677D02*
D03*
Y39228D02*
D03*
X42048Y43126D02*
D03*
Y42574D02*
D03*
X43084Y43126D02*
D03*
Y42574D02*
D03*
X36150Y39176D02*
D03*
Y38624D02*
D03*
X27220Y46350D02*
D03*
Y45799D02*
D03*
X28080Y46350D02*
D03*
Y45799D02*
D03*
X28940Y46350D02*
D03*
Y45799D02*
D03*
X29800Y46350D02*
D03*
Y45799D02*
D03*
X33200Y45150D02*
D03*
Y44599D02*
D03*
X32450Y45150D02*
D03*
Y44599D02*
D03*
X40750Y37303D02*
D03*
Y36752D02*
D03*
X26360Y46350D02*
D03*
Y45799D02*
D03*
X25500Y46350D02*
D03*
Y45799D02*
D03*
X31850Y38677D02*
D03*
Y39228D02*
D03*
Y37303D02*
D03*
Y36752D02*
D03*
X42400Y51224D02*
D03*
Y51776D02*
D03*
X45250Y48176D02*
D03*
Y47624D02*
D03*
X27300Y37303D02*
D03*
Y36752D02*
D03*
X45200Y37303D02*
D03*
Y36752D02*
D03*
X45157Y43126D02*
D03*
Y42574D02*
D03*
X44121Y43126D02*
D03*
Y42574D02*
D03*
D23*
X29976Y49150D02*
D03*
X29424D02*
D03*
X29976Y48400D02*
D03*
X29424D02*
D03*
X24046Y50052D02*
D03*
X24598D02*
D03*
X55597Y39592D02*
D03*
X55046D02*
D03*
X55096Y44292D02*
D03*
X55647D02*
D03*
X48168Y39347D02*
D03*
X48719D02*
D03*
X48726Y40150D02*
D03*
X48174D02*
D03*
X48168Y43672D02*
D03*
X48719D02*
D03*
X48726Y44450D02*
D03*
X48174D02*
D03*
X29426Y31050D02*
D03*
X28874D02*
D03*
X49102Y31406D02*
D03*
X49654D02*
D03*
X49102Y30635D02*
D03*
X49654D02*
D03*
X55873Y31409D02*
D03*
X55322D02*
D03*
X55873Y30637D02*
D03*
X55322D02*
D03*
X55873Y32180D02*
D03*
X55322D02*
D03*
X55873Y32952D02*
D03*
X55322D02*
D03*
X49102Y32950D02*
D03*
X49654D02*
D03*
X49102Y32178D02*
D03*
X49654D02*
D03*
X55324Y29200D02*
D03*
X55876D02*
D03*
X57347Y32154D02*
D03*
X56796D02*
D03*
X49626Y29050D02*
D03*
X49074D02*
D03*
X48276Y31467D02*
D03*
X47724D02*
D03*
D24*
X24053Y51550D02*
D03*
X24647D02*
D03*
X24053Y50780D02*
D03*
X24647D02*
D03*
X24597Y49250D02*
D03*
X24003D02*
D03*
X55600Y37850D02*
D03*
X55007D02*
D03*
X55597Y38700D02*
D03*
X55003D02*
D03*
Y40400D02*
D03*
X55597D02*
D03*
X55053Y42750D02*
D03*
X55647D02*
D03*
Y43500D02*
D03*
X55053D02*
D03*
Y45000D02*
D03*
X55647D02*
D03*
X48125Y38500D02*
D03*
X48719D02*
D03*
X48125Y42850D02*
D03*
X48719D02*
D03*
X30947Y29450D02*
D03*
X30353D02*
D03*
X30947Y31050D02*
D03*
X30353D02*
D03*
X28853Y29400D02*
D03*
X29447D02*
D03*
X24597Y48500D02*
D03*
X24003D02*
D03*
X26093Y44650D02*
D03*
X25500D02*
D03*
X26093Y43925D02*
D03*
X25500D02*
D03*
X24000Y47800D02*
D03*
X24593D02*
D03*
X26093Y43200D02*
D03*
X25500D02*
D03*
X56753Y32900D02*
D03*
X57347D02*
D03*
X47703Y33000D02*
D03*
X48297D02*
D03*
X56753Y31325D02*
D03*
X57347D02*
D03*
X47703Y32213D02*
D03*
X48297D02*
D03*
X55847Y29900D02*
D03*
X55253D02*
D03*
X49053D02*
D03*
X49647D02*
D03*
X47703Y30638D02*
D03*
X48297D02*
D03*
X57347Y30538D02*
D03*
X56753D02*
D03*
X48297Y29850D02*
D03*
X47703D02*
D03*
X56753Y29750D02*
D03*
X57347D02*
D03*
D25*
X53770Y37000D02*
D03*
Y37500D02*
D03*
Y38000D02*
D03*
Y38500D02*
D03*
Y39000D02*
D03*
Y39500D02*
D03*
Y40000D02*
D03*
Y40500D02*
D03*
X50030Y37000D02*
D03*
Y37500D02*
D03*
Y38000D02*
D03*
Y38500D02*
D03*
Y39000D02*
D03*
Y39500D02*
D03*
Y40000D02*
D03*
Y40500D02*
D03*
X53770Y41800D02*
D03*
Y42300D02*
D03*
Y42800D02*
D03*
Y43300D02*
D03*
Y43800D02*
D03*
Y44300D02*
D03*
Y44800D02*
D03*
Y45300D02*
D03*
X50030Y41800D02*
D03*
Y42300D02*
D03*
Y42800D02*
D03*
Y43300D02*
D03*
Y43800D02*
D03*
Y44300D02*
D03*
Y44800D02*
D03*
Y45300D02*
D03*
D26*
X36358Y47865D02*
D03*
X37342Y47864D02*
D03*
X38130D02*
D03*
X39114D02*
D03*
D27*
X40687Y48888D02*
D03*
X34781Y48888D02*
D03*
D28*
X28850Y52350D02*
D03*
X28250D02*
D03*
X27000D02*
D03*
X27600D02*
D03*
X25700D02*
D03*
X26300D02*
D03*
X24400D02*
D03*
X25000D02*
D03*
D29*
X27600Y31066D02*
D03*
Y29334D02*
D03*
X42300Y46066D02*
D03*
Y44334D02*
D03*
X43607D02*
D03*
Y46066D02*
D03*
X44900D02*
D03*
Y44334D02*
D03*
D30*
X25300Y39130D02*
D03*
Y37070D02*
D03*
X34175D02*
D03*
Y39130D02*
D03*
X30650Y34680D02*
D03*
Y32620D02*
D03*
X26850Y34680D02*
D03*
Y32620D02*
D03*
X38612Y37070D02*
D03*
Y39130D02*
D03*
X29738Y37070D02*
D03*
Y39130D02*
D03*
X43050D02*
D03*
Y37070D02*
D03*
D31*
X27050Y49800D02*
D03*
D32*
X26558Y50631D02*
D03*
X26755D02*
D03*
X26952D02*
D03*
X27148D02*
D03*
X27345D02*
D03*
X27542D02*
D03*
Y48969D02*
D03*
X27345D02*
D03*
X27148D02*
D03*
X26952D02*
D03*
X26755D02*
D03*
X26558D02*
D03*
D33*
X27881Y50292D02*
D03*
Y50095D02*
D03*
Y49898D02*
D03*
Y49702D02*
D03*
Y49505D02*
D03*
Y49308D02*
D03*
X26219D02*
D03*
Y49505D02*
D03*
Y49702D02*
D03*
Y49898D02*
D03*
Y50095D02*
D03*
Y50292D02*
D03*
D34*
X32550Y34847D02*
D03*
Y34253D02*
D03*
X28700Y34793D02*
D03*
Y34200D02*
D03*
X31750Y44578D02*
D03*
Y45171D02*
D03*
X37600Y43903D02*
D03*
Y44497D02*
D03*
D35*
X31950Y48452D02*
D03*
Y46248D02*
D03*
X43250Y50152D02*
D03*
Y47948D02*
D03*
D36*
X32710Y50161D02*
D03*
X30190D02*
D03*
X32395D02*
D03*
X30505D02*
D03*
D37*
X32139D02*
D03*
X31942D02*
D03*
X31745D02*
D03*
X31155D02*
D03*
X30958D02*
D03*
X30761D02*
D03*
X31548D02*
D03*
X31352D02*
D03*
D38*
X36330Y45450D02*
D03*
X34270D02*
D03*
D39*
X27022Y43900D02*
D03*
X29778D02*
D03*
D40*
X43176Y51149D02*
D03*
X43550D02*
D03*
X43924D02*
D03*
Y52251D02*
D03*
X43550D02*
D03*
X43176D02*
D03*
D41*
X52500Y30700D02*
D03*
D42*
X54350Y32950D02*
D03*
Y32450D02*
D03*
Y31950D02*
D03*
Y31450D02*
D03*
Y30950D02*
D03*
Y30450D02*
D03*
Y29950D02*
D03*
Y29450D02*
D03*
Y28950D02*
D03*
Y28450D02*
D03*
X50650Y28450D02*
D03*
Y28950D02*
D03*
Y29450D02*
D03*
Y29950D02*
D03*
Y30450D02*
D03*
Y30950D02*
D03*
Y31450D02*
D03*
Y31950D02*
D03*
Y32450D02*
D03*
Y32950D02*
D03*
D87*
X42090Y22610D02*
X43539D01*
X44160Y23231D01*
Y23310D01*
X38081Y22610D02*
X39530D01*
X37460Y23231D02*
X38081Y22610D01*
X37460Y23231D02*
Y23310D01*
X42090Y27350D02*
X43539D01*
X44160Y26729D01*
Y26650D02*
Y26729D01*
X44649Y52251D02*
X45357D01*
X45650Y48576D02*
Y51958D01*
X45357Y52251D02*
X45650Y51958D01*
X45302Y48228D02*
X45650Y48576D01*
X45302Y48208D02*
Y48228D01*
X43510Y48208D02*
X45302D01*
X43250Y47948D02*
X43510Y48208D01*
X42994Y47948D02*
X43250D01*
X42300Y46950D02*
X42752Y47402D01*
Y47705D02*
X42994Y47948D01*
X42300Y46066D02*
Y46950D01*
X42752Y47402D02*
Y47705D01*
D88*
X40630Y27350D02*
X41180D01*
X41933Y28103D01*
X42383D01*
X42460Y28180D01*
X31950Y43300D02*
Y43408D01*
X31750Y43608D02*
Y44578D01*
Y43608D02*
X31950Y43408D01*
X34232Y45412D02*
X34270Y45450D01*
X33481Y45412D02*
X34232D01*
X33220Y45150D02*
X33481Y45412D01*
X33200Y45150D02*
X33220D01*
X32450D02*
X33200D01*
X31750Y45171D02*
X31761Y45161D01*
X32439D01*
X32450Y45150D01*
X31736Y45186D02*
X31750Y45171D01*
X30964Y45186D02*
X31736D01*
X30950Y45200D02*
X30964Y45186D01*
X29976Y48400D02*
Y49150D01*
X30487Y50143D02*
X30505Y50161D01*
X30487Y49681D02*
Y50143D01*
X29976Y49170D02*
X30487Y49681D01*
X29976Y49150D02*
Y49170D01*
X56088Y30320D02*
X56300Y30531D01*
Y30900D01*
X55575Y30402D02*
Y30872D01*
Y30402D02*
X55657Y30320D01*
X55575Y30872D02*
X55597Y30894D01*
X55657Y30320D02*
X56088D01*
X55468Y31023D02*
X55597Y30894D01*
X55322Y31023D02*
X55468D01*
X30742Y34847D02*
X32550D01*
X30650Y34680D02*
Y34754D01*
Y34280D02*
Y34680D01*
X34270Y44780D02*
Y45450D01*
Y44780D02*
X36500Y42550D01*
X44950Y32150D02*
X46500Y33700D01*
X49650D01*
X47100Y30714D02*
Y31450D01*
X24215Y29315D02*
Y30305D01*
X25195Y31285D01*
X27489Y33000D02*
X28689Y34200D01*
X26850Y32620D02*
Y32908D01*
X27400Y33000D02*
X27489D01*
X26850Y32908D02*
X26942Y33000D01*
X27400D01*
X30947Y29450D02*
Y31050D01*
Y29439D02*
Y29450D01*
X29723Y30092D02*
Y33781D01*
Y30092D02*
X30353Y29461D01*
Y29450D02*
Y29461D01*
X28711Y34793D02*
X29723Y33781D01*
X28700Y34793D02*
X28711D01*
X30450Y33450D02*
X30612Y33288D01*
Y32658D02*
X30650Y32620D01*
X30612Y32658D02*
Y33288D01*
X30650Y34754D02*
X30742Y34847D01*
X31883Y34253D02*
X32550D01*
X30650Y33020D02*
X31883Y34253D01*
X30650Y32620D02*
Y33020D01*
X30353Y31050D02*
Y31697D01*
X30100Y31950D02*
X30353Y31697D01*
X30100Y31950D02*
Y33730D01*
X30650Y34280D01*
X26942Y34793D02*
X28700D01*
X26850Y34701D02*
X26942Y34793D01*
X26850Y34680D02*
Y34701D01*
X28689Y34200D02*
X28700D01*
X28393Y29334D02*
X28727Y29000D01*
X30508D02*
X30947Y29439D01*
X28727Y29000D02*
X30508D01*
X27600Y29334D02*
X28393D01*
X28853Y29400D02*
Y29411D01*
X27835Y30430D02*
X28853Y29411D01*
X27835Y30430D02*
Y30832D01*
X27600Y31066D02*
X27835Y30832D01*
X26185Y29315D02*
X27581D01*
X27600Y29334D01*
X28874Y31050D02*
Y31070D01*
X28044Y31900D02*
X28874Y31070D01*
X27198Y31900D02*
X28044D01*
X25195Y31285D02*
X26583D01*
X27198Y31900D01*
X25195Y31285D02*
Y32255D01*
X24250Y33200D02*
X25195Y32255D01*
X47100Y30714D02*
X47487Y30327D01*
X48583D01*
X48700Y30903D02*
X48817Y31021D01*
X49654D01*
X48700Y30445D02*
Y30903D01*
X48583Y30327D02*
X48700Y30445D01*
X49654Y32950D02*
Y33696D01*
X49650Y33700D02*
X49654Y33696D01*
X49650Y33700D02*
X49850Y33900D01*
X51150D01*
X52100Y32950D01*
X54350D01*
X49654Y31021D02*
Y31406D01*
Y30635D02*
Y31021D01*
X49395Y30253D02*
X49804D01*
X49053Y29911D02*
X49395Y30253D01*
X55322Y31023D02*
Y31409D01*
Y30637D02*
Y31023D01*
X52581Y37850D02*
X52636D01*
X52250Y39500D02*
X52275Y39475D01*
X50389Y39500D02*
X52250D01*
X51431Y39000D02*
X52581Y37850D01*
X50030Y39000D02*
X51431D01*
X49047D02*
X50030D01*
X54626Y31950D02*
X55090Y31486D01*
X55264D01*
X55322Y31409D02*
Y31428D01*
X50059Y30635D02*
X50374Y30950D01*
X50059Y30507D02*
Y30635D01*
X49804Y30253D02*
X50059Y30507D01*
X50374Y30950D02*
X50650D01*
X49908Y31484D02*
X50374Y31950D01*
X49654Y31406D02*
Y31426D01*
X49711Y31484D01*
X49908D01*
X50374Y31950D02*
X50650D01*
X50030Y43800D02*
X51100D01*
X48750Y40174D02*
Y40950D01*
X48726Y40150D02*
X48750Y40174D01*
X51600Y40711D02*
Y44183D01*
X50030Y44300D02*
X51483D01*
X51600Y44183D01*
X49663Y44300D02*
X50030D01*
X54350Y31950D02*
X54626D01*
X55264Y31486D02*
X55322Y31428D01*
X49654Y32950D02*
X49654Y32950D01*
X50650D01*
X50650Y32950D01*
X56475Y50240D02*
X57050Y49665D01*
Y45714D02*
Y49665D01*
X55647Y44311D02*
X57050Y45714D01*
X55647Y44292D02*
Y44311D01*
X56175Y50240D02*
X56475D01*
X50030Y39500D02*
X50389D01*
X51600Y40711D01*
X49663Y43800D02*
X50030D01*
X55025Y39593D02*
X55046Y39572D01*
X55003Y40400D02*
X55025Y40379D01*
Y39593D02*
Y40379D01*
X53770Y39500D02*
X54974D01*
X55046Y39572D01*
X55058Y44296D02*
X55075Y44313D01*
X53770Y44300D02*
X53774Y44296D01*
X55058D01*
X55053Y45000D02*
X55075Y44979D01*
Y44313D02*
Y44979D01*
X55647Y43500D02*
X55647Y43500D01*
Y44291D01*
X55647Y44292D01*
X53770Y42800D02*
X53775Y42795D01*
X55008D01*
X55053Y42750D01*
X53770Y42800D02*
Y43300D01*
X48719Y39327D02*
X49047Y39000D01*
X48719Y39327D02*
Y39347D01*
X49670Y39500D02*
X50030D01*
X49097Y40073D02*
X49670Y39500D01*
X48783Y40073D02*
X49097D01*
X48726Y40130D02*
X48783Y40073D01*
X48726Y40130D02*
Y40150D01*
X50025Y42805D02*
X50030Y42800D01*
X48764Y42805D02*
X50025D01*
X50030Y42800D02*
Y43300D01*
X48719Y43672D02*
X49535D01*
X49663Y43800D01*
X48726Y44450D02*
X49513D01*
X49663Y44300D01*
X55847Y29900D02*
X56615D01*
X56753Y29761D01*
Y29750D02*
Y29761D01*
X55250Y29294D02*
Y29897D01*
Y29294D02*
X55324Y29220D01*
Y29200D02*
Y29220D01*
X55250Y29897D02*
X55253Y29900D01*
X55322Y32180D02*
Y32952D01*
X54350Y32950D02*
X54351Y32951D01*
X55321D01*
X55322Y32952D01*
X48297Y29850D02*
X48322Y29875D01*
X49028D01*
X49053Y29900D01*
X49626Y29050D02*
X49636Y29060D01*
Y29890D01*
X49647Y29900D01*
X49053D02*
Y29911D01*
X49654Y32178D02*
Y32950D01*
X27741Y51258D02*
X30376D01*
X27250Y50767D02*
X27741Y51258D01*
X30376D02*
X30684Y50950D01*
X27250Y50600D02*
Y50767D01*
X27600Y51750D02*
Y52350D01*
X44121Y43126D02*
X45157D01*
X43700Y43150D02*
Y44241D01*
Y40798D02*
Y43150D01*
X44096D02*
X44121Y43126D01*
X43700Y43150D02*
X44096D01*
X43607Y44334D02*
X43700Y44241D01*
X24300Y43000D02*
X25053D01*
X25163Y42890D01*
X25794D01*
X26093Y43189D01*
X39114Y47353D02*
Y47864D01*
X37861Y46100D02*
X39114Y47353D01*
X35750Y46100D02*
X37861D01*
X35100Y45450D02*
X35750Y46100D01*
X34270Y45450D02*
X35100D01*
X30400Y44900D02*
Y45200D01*
Y44900D02*
X30650Y44650D01*
X30400Y45200D02*
X30950D01*
X28650Y48200D02*
X29350Y47500D01*
X30742D01*
X31694Y48452D01*
X28650Y48200D02*
Y49124D01*
X25950Y45391D02*
X26093Y45248D01*
X25520Y46350D02*
X26360D01*
X25950Y45391D02*
Y45920D01*
X25520Y46350D02*
X25950Y45920D01*
X26360Y46350D02*
X27220D01*
X28080D01*
X26360D02*
Y47218D01*
X24300Y44000D02*
X24337Y43962D01*
X25463D01*
X25500Y43925D01*
Y44650D01*
Y46350D02*
X25520D01*
X26093Y44650D02*
Y45248D01*
X26360Y47218D02*
X26668Y47526D01*
Y47623D01*
Y48258D01*
X27050Y48640D01*
Y48969D01*
X24300Y46450D02*
X24350Y46400D01*
X25450D01*
X25500Y46350D01*
X30893Y50950D02*
X32007D01*
X30684D02*
X30893D01*
X31694Y48452D02*
X31950D01*
X32377Y50179D02*
X32395Y50161D01*
X32377Y50179D02*
Y50580D01*
X32007Y50950D02*
X32377Y50580D01*
X30505Y50161D02*
X30523Y50179D01*
Y50580D01*
X30893Y50950D01*
X25700Y51750D02*
Y52350D01*
X27000D02*
X27350Y52700D01*
X28500D01*
X28850Y52350D01*
X25000D02*
X25700D01*
X27600D02*
X28250D01*
X25950Y52700D02*
X26300Y52350D01*
X24750Y52700D02*
X25950D01*
X24400Y52350D02*
X24750Y52700D01*
D89*
X43363Y50265D02*
Y51149D01*
X43250Y50152D02*
X43363Y50265D01*
X44450Y49950D02*
X44950D01*
X43250Y50152D02*
X43452Y49950D01*
X44450D01*
X42400Y51224D02*
X42420D01*
X42427Y51217D01*
Y50975D02*
Y51217D01*
Y50975D02*
X42652Y50750D01*
Y50494D02*
Y50750D01*
Y50494D02*
X42994Y50152D01*
X43250D01*
D90*
X55873Y30637D02*
Y31409D01*
X46235Y30165D02*
Y32885D01*
X46500Y33150D01*
X46235Y30165D02*
X49250Y27150D01*
X23450Y28900D02*
Y38100D01*
X24450Y39100D01*
X23450Y28900D02*
X24329Y28021D01*
X29579D01*
X30450Y27150D01*
X28940Y46350D02*
X29800D01*
X28920D02*
X28940D01*
X27345Y48207D02*
Y48969D01*
Y48207D02*
X27832Y47720D01*
Y47623D02*
Y47720D01*
X28020Y47250D02*
X28920Y46350D01*
X28020Y47250D02*
Y47435D01*
X27832Y47623D02*
X28020Y47435D01*
X29902Y46248D02*
X31950D01*
X29800Y46350D02*
X29902Y46248D01*
D91*
X43924Y52251D02*
X44649D01*
X45250Y46512D02*
Y47624D01*
X44900Y46162D02*
X45250Y46512D01*
X44900Y46066D02*
Y46162D01*
X43607Y46066D02*
X44900D01*
D92*
X39160Y28980D02*
D03*
X42460D02*
D03*
D93*
X39160Y28180D02*
D03*
X42460D02*
D03*
X32100Y43300D02*
D03*
X31100D02*
D03*
X33100D02*
D03*
X24250Y33200D02*
D03*
X24300Y44000D02*
D03*
Y46450D02*
D03*
D94*
X37460Y23310D02*
D03*
X44160D02*
D03*
X37460Y26650D02*
D03*
X44160D02*
D03*
D95*
X24950Y40798D02*
D03*
X29388D02*
D03*
X33825D02*
D03*
X38263D02*
D03*
X42700D02*
D03*
D96*
X26950Y40802D02*
D03*
X25950Y40798D02*
D03*
X30387D02*
D03*
X31388Y40802D02*
D03*
X34825Y40798D02*
D03*
X35825Y40802D02*
D03*
X40262D02*
D03*
X39262Y40798D02*
D03*
X44700Y40802D02*
D03*
X43700Y40798D02*
D03*
D97*
X35050Y32750D02*
D03*
D98*
Y33750D02*
D03*
X36050Y32750D02*
D03*
Y33750D02*
D03*
X37050Y32750D02*
D03*
Y33750D02*
D03*
X38050Y32750D02*
D03*
Y33750D02*
D03*
X39050Y32750D02*
D03*
Y33750D02*
D03*
X40050Y32750D02*
D03*
Y33750D02*
D03*
X41050Y32750D02*
D03*
Y33750D02*
D03*
X42050Y32750D02*
D03*
Y33750D02*
D03*
X43050Y32750D02*
D03*
Y33750D02*
D03*
X44050Y32750D02*
D03*
Y33750D02*
D03*
D99*
X38719Y49400D02*
D03*
X36750D02*
D03*
D100*
X34100Y43300D02*
D03*
D101*
X57250Y27150D02*
D03*
X32450D02*
D03*
D102*
X56250D02*
D03*
X55250D02*
D03*
X54250D02*
D03*
X53250D02*
D03*
X52250D02*
D03*
X51250D02*
D03*
X50250D02*
D03*
X57250Y24150D02*
D03*
X56250D02*
D03*
X49250Y27150D02*
D03*
Y24150D02*
D03*
X50250D02*
D03*
X51250D02*
D03*
X52250D02*
D03*
X53250D02*
D03*
X54250D02*
D03*
X55250D02*
D03*
X31450Y27150D02*
D03*
X30450D02*
D03*
X29450D02*
D03*
X28450D02*
D03*
X27450D02*
D03*
X26450D02*
D03*
X25450D02*
D03*
X32450Y24150D02*
D03*
X31450D02*
D03*
X24450Y27150D02*
D03*
Y24150D02*
D03*
X25450D02*
D03*
X26450D02*
D03*
X27450D02*
D03*
X28450D02*
D03*
X29450D02*
D03*
X30450D02*
D03*
D103*
X24250Y34200D02*
D03*
X24300Y43000D02*
D03*
Y45450D02*
D03*
D104*
X28340Y22400D02*
D03*
X27550D02*
D03*
X26760D02*
D03*
X29130D02*
D03*
X55650D02*
D03*
X53280D02*
D03*
X54070D02*
D03*
X54860D02*
D03*
D105*
X25970D02*
D03*
X52490D02*
D03*
D106*
X25500Y18420D02*
D03*
X29600D02*
D03*
X56120D02*
D03*
X52020D02*
D03*
D107*
X25195Y31285D02*
D03*
X26185Y29315D02*
D03*
X32005Y21065D02*
D03*
X31015Y23035D02*
D03*
X49605Y21065D02*
D03*
X48615Y23035D02*
D03*
X39545Y45235D02*
D03*
X40535Y43265D02*
D03*
D108*
X24215Y29315D02*
D03*
X32985Y23035D02*
D03*
X50585D02*
D03*
X38565Y43265D02*
D03*
D109*
X32592Y50902D02*
D03*
X30308Y50898D02*
D03*
D110*
X33151Y50705D02*
D03*
X29749D02*
D03*
D111*
X33151Y52339D02*
D03*
X29749D02*
D03*
D112*
X28200Y51750D02*
D03*
X28900Y51800D02*
D03*
X44450Y49950D02*
D03*
X48200Y37650D02*
D03*
X48150Y30650D02*
D03*
X51500Y24850D02*
D03*
X49800D02*
D03*
X49050Y29300D02*
D03*
X56300Y30900D02*
D03*
X56000Y28450D02*
D03*
X55650D02*
D03*
X55300D02*
D03*
X54300Y33900D02*
D03*
X54000D02*
D03*
X53700D02*
D03*
X47300Y32200D02*
D03*
X47100Y31950D02*
D03*
X35050Y36550D02*
D03*
X34700D02*
D03*
X36750Y35100D02*
D03*
X28950Y38550D02*
D03*
X33230Y39130D02*
D03*
X27650Y42357D02*
D03*
X28843D02*
D03*
X30950Y45200D02*
D03*
X36500Y42550D02*
D03*
X31750Y42350D02*
D03*
X31745Y49405D02*
D03*
X31155Y49395D02*
D03*
X37250Y39150D02*
D03*
X47180Y33230D02*
D03*
X44950Y32150D02*
D03*
X47100Y31450D02*
D03*
X24450Y39100D02*
D03*
X29265Y28710D02*
D03*
X27400Y33000D02*
D03*
X30450Y33450D02*
D03*
X31950Y28648D02*
D03*
X48700Y30445D02*
D03*
X49650Y33700D02*
D03*
X52670Y33300D02*
D03*
X50800Y33610D02*
D03*
X49480Y28080D02*
D03*
X52930Y34350D02*
D03*
X52636Y37850D02*
D03*
X52275Y39475D02*
D03*
X53050Y28350D02*
D03*
X57150Y29050D02*
D03*
X51600Y47200D02*
D03*
X51050Y37650D02*
D03*
X55350Y33950D02*
D03*
X56350Y32900D02*
D03*
X57800Y31700D02*
D03*
X45650Y44700D02*
D03*
X52250Y47700D02*
D03*
X51100Y43800D02*
D03*
X48300Y32650D02*
D03*
X48200Y31850D02*
D03*
X50750Y28050D02*
D03*
Y26300D02*
D03*
X43000Y34750D02*
D03*
X48750Y40950D02*
D03*
X56300Y45700D02*
D03*
X56250Y44150D02*
D03*
X28250Y50850D02*
D03*
X28900Y50900D02*
D03*
X27600Y51750D02*
D03*
X30350Y42350D02*
D03*
X26700Y42700D02*
D03*
X44950Y49950D02*
D03*
X28650Y50050D02*
D03*
X28950D02*
D03*
X28350D02*
D03*
X27350Y51300D02*
D03*
X25200Y51100D02*
D03*
X26750Y51200D02*
D03*
X30400Y45200D02*
D03*
X30650Y44650D02*
D03*
X26700Y44900D02*
D03*
X25750Y47639D02*
D03*
X26150Y51440D02*
D03*
X27000Y51450D02*
D03*
X25700Y51750D02*
D03*
D113*
X46500Y33150D02*
D03*
M02*
