G04*
G04 #@! TF.GenerationSoftware,Altium Limited,Altium Designer,20.2.6 (244)*
G04*
G04 Layer_Color=16711935*
%FSLAX24Y24*%
%MOIN*%
G70*
G04*
G04 #@! TF.SameCoordinates,F8AEF4A7-C5AA-40DC-9DAC-891B57281ED6*
G04*
G04*
G04 #@! TF.FilePolarity,Positive*
G04*
G01*
G75*
G36*
X42557Y51697D02*
X42243D01*
Y51815D01*
X42557D01*
Y51697D01*
D02*
G37*
G36*
X24665Y51393D02*
X24547D01*
Y51707D01*
X24665D01*
Y51393D01*
D02*
G37*
G36*
X24153D02*
X24035D01*
Y51707D01*
X24153D01*
Y51393D01*
D02*
G37*
G36*
X42557Y51185D02*
X42243D01*
Y51303D01*
X42557D01*
Y51185D01*
D02*
G37*
G36*
X24665Y50623D02*
X24547D01*
Y50937D01*
X24665D01*
Y50623D01*
D02*
G37*
G36*
X24153D02*
X24035D01*
Y50937D01*
X24153D01*
Y50623D01*
D02*
G37*
G36*
X24637Y49894D02*
X24519D01*
Y50209D01*
X24637D01*
Y49894D01*
D02*
G37*
G36*
X24125D02*
X24007D01*
Y50209D01*
X24125D01*
Y49894D01*
D02*
G37*
G36*
X28807Y49597D02*
X28493D01*
Y49715D01*
X28807D01*
Y49597D01*
D02*
G37*
G36*
X24615Y49093D02*
X24497D01*
Y49407D01*
X24615D01*
Y49093D01*
D02*
G37*
G36*
X24103D02*
X23985D01*
Y49407D01*
X24103D01*
Y49093D01*
D02*
G37*
G36*
X28807Y49085D02*
X28493D01*
Y49203D01*
X28807D01*
Y49085D01*
D02*
G37*
G36*
X30015Y48993D02*
X29897D01*
Y49307D01*
X30015D01*
Y48993D01*
D02*
G37*
G36*
X29503D02*
X29385D01*
Y49307D01*
X29503D01*
Y48993D01*
D02*
G37*
G36*
X24615Y48343D02*
X24497D01*
Y48657D01*
X24615D01*
Y48343D01*
D02*
G37*
G36*
X24103D02*
X23985D01*
Y48657D01*
X24103D01*
Y48343D01*
D02*
G37*
G36*
X30015Y48243D02*
X29897D01*
Y48557D01*
X30015D01*
Y48243D01*
D02*
G37*
G36*
X29503D02*
X29385D01*
Y48557D01*
X29503D01*
Y48243D01*
D02*
G37*
G36*
X45407Y48097D02*
X45093D01*
Y48215D01*
X45407D01*
Y48097D01*
D02*
G37*
G36*
X24612Y47643D02*
X24493D01*
Y47957D01*
X24612D01*
Y47643D01*
D02*
G37*
G36*
X24100D02*
X23982D01*
Y47957D01*
X24100D01*
Y47643D01*
D02*
G37*
G36*
X45407Y47585D02*
X45093D01*
Y47703D01*
X45407D01*
Y47585D01*
D02*
G37*
G36*
X29957Y46271D02*
X29643D01*
Y46389D01*
X29957D01*
Y46271D01*
D02*
G37*
G36*
X29097D02*
X28783D01*
Y46389D01*
X29097D01*
Y46271D01*
D02*
G37*
G36*
X28237D02*
X27923D01*
Y46389D01*
X28237D01*
Y46271D01*
D02*
G37*
G36*
X27377D02*
X27063D01*
Y46389D01*
X27377D01*
Y46271D01*
D02*
G37*
G36*
X26517D02*
X26203D01*
Y46389D01*
X26517D01*
Y46271D01*
D02*
G37*
G36*
X25657D02*
X25343D01*
Y46389D01*
X25657D01*
Y46271D01*
D02*
G37*
G36*
X29957Y45759D02*
X29643D01*
Y45878D01*
X29957D01*
Y45759D01*
D02*
G37*
G36*
X29097D02*
X28783D01*
Y45878D01*
X29097D01*
Y45759D01*
D02*
G37*
G36*
X28237D02*
X27923D01*
Y45878D01*
X28237D01*
Y45759D01*
D02*
G37*
G36*
X27377D02*
X27063D01*
Y45878D01*
X27377D01*
Y45759D01*
D02*
G37*
G36*
X26517D02*
X26203D01*
Y45878D01*
X26517D01*
Y45759D01*
D02*
G37*
G36*
X25657D02*
X25343D01*
Y45878D01*
X25657D01*
Y45759D01*
D02*
G37*
G36*
X31907Y45071D02*
X31593D01*
Y45190D01*
X31907D01*
Y45071D01*
D02*
G37*
G36*
X33357Y45071D02*
X33043D01*
Y45189D01*
X33357D01*
Y45071D01*
D02*
G37*
G36*
X32607D02*
X32293D01*
Y45189D01*
X32607D01*
Y45071D01*
D02*
G37*
G36*
X55665Y44843D02*
X55547D01*
Y45157D01*
X55665D01*
Y44843D01*
D02*
G37*
G36*
X55153D02*
X55035D01*
Y45157D01*
X55153D01*
Y44843D01*
D02*
G37*
G36*
X31907Y44560D02*
X31593D01*
Y44678D01*
X31907D01*
Y44560D01*
D02*
G37*
G36*
X33357Y44559D02*
X33043D01*
Y44678D01*
X33357D01*
Y44559D01*
D02*
G37*
G36*
X32607D02*
X32293D01*
Y44678D01*
X32607D01*
Y44559D01*
D02*
G37*
G36*
X26112Y44493D02*
X25993D01*
Y44807D01*
X26112D01*
Y44493D01*
D02*
G37*
G36*
X25600D02*
X25482D01*
Y44807D01*
X25600D01*
Y44493D01*
D02*
G37*
G36*
X37757Y44397D02*
X37443D01*
Y44515D01*
X37757D01*
Y44397D01*
D02*
G37*
G36*
X48765Y44293D02*
X48647D01*
Y44607D01*
X48765D01*
Y44293D01*
D02*
G37*
G36*
X48253D02*
X48135D01*
Y44607D01*
X48253D01*
Y44293D01*
D02*
G37*
G36*
X55687Y44134D02*
X55569D01*
Y44449D01*
X55687D01*
Y44134D01*
D02*
G37*
G36*
X55175D02*
X55057D01*
Y44449D01*
X55175D01*
Y44134D01*
D02*
G37*
G36*
X37757Y43885D02*
X37443D01*
Y44003D01*
X37757D01*
Y43885D01*
D02*
G37*
G36*
X26112Y43768D02*
X25993D01*
Y44082D01*
X26112D01*
Y43768D01*
D02*
G37*
G36*
X25600D02*
X25482D01*
Y44082D01*
X25600D01*
Y43768D01*
D02*
G37*
G36*
X48759Y43514D02*
X48641D01*
Y43829D01*
X48759D01*
Y43514D01*
D02*
G37*
G36*
X48247D02*
X48129D01*
Y43829D01*
X48247D01*
Y43514D01*
D02*
G37*
G36*
X55665Y43343D02*
X55547D01*
Y43657D01*
X55665D01*
Y43343D01*
D02*
G37*
G36*
X55153D02*
X55035D01*
Y43657D01*
X55153D01*
Y43343D01*
D02*
G37*
G36*
X45315Y43047D02*
X45000D01*
Y43165D01*
X45315D01*
Y43047D01*
D02*
G37*
G36*
X44278D02*
X43963D01*
Y43165D01*
X44278D01*
Y43047D01*
D02*
G37*
G36*
X43242D02*
X42927D01*
Y43165D01*
X43242D01*
Y43047D01*
D02*
G37*
G36*
X42205D02*
X41890D01*
Y43165D01*
X42205D01*
Y43047D01*
D02*
G37*
G36*
X26112Y43043D02*
X25993D01*
Y43357D01*
X26112D01*
Y43043D01*
D02*
G37*
G36*
X25600D02*
X25482D01*
Y43357D01*
X25600D01*
Y43043D01*
D02*
G37*
G36*
X48737Y42693D02*
X48619D01*
Y43007D01*
X48737D01*
Y42693D01*
D02*
G37*
G36*
X48225D02*
X48107D01*
Y43007D01*
X48225D01*
Y42693D01*
D02*
G37*
G36*
X55665Y42593D02*
X55547D01*
Y42907D01*
X55665D01*
Y42593D01*
D02*
G37*
G36*
X55153D02*
X55035D01*
Y42907D01*
X55153D01*
Y42593D01*
D02*
G37*
G36*
X45315Y42535D02*
X45000D01*
Y42653D01*
X45315D01*
Y42535D01*
D02*
G37*
G36*
X44278D02*
X43963D01*
Y42653D01*
X44278D01*
Y42535D01*
D02*
G37*
G36*
X43242D02*
X42927D01*
Y42653D01*
X43242D01*
Y42535D01*
D02*
G37*
G36*
X42205D02*
X41890D01*
Y42653D01*
X42205D01*
Y42535D01*
D02*
G37*
G36*
X55615Y40243D02*
X55497D01*
Y40557D01*
X55615D01*
Y40243D01*
D02*
G37*
G36*
X55103D02*
X54985D01*
Y40557D01*
X55103D01*
Y40243D01*
D02*
G37*
G36*
X48765Y39993D02*
X48647D01*
Y40307D01*
X48765D01*
Y39993D01*
D02*
G37*
G36*
X48253D02*
X48135D01*
Y40307D01*
X48253D01*
Y39993D01*
D02*
G37*
G36*
X55637Y39434D02*
X55519D01*
Y39749D01*
X55637D01*
Y39434D01*
D02*
G37*
G36*
X55125D02*
X55007D01*
Y39749D01*
X55125D01*
Y39434D01*
D02*
G37*
G36*
X48759Y39189D02*
X48641D01*
Y39504D01*
X48759D01*
Y39189D01*
D02*
G37*
G36*
X48247D02*
X48129D01*
Y39504D01*
X48247D01*
Y39189D01*
D02*
G37*
G36*
X45357Y39150D02*
X45043D01*
Y39268D01*
X45357D01*
Y39150D01*
D02*
G37*
G36*
X40907D02*
X40593D01*
Y39268D01*
X40907D01*
Y39150D01*
D02*
G37*
G36*
X32007D02*
X31693D01*
Y39268D01*
X32007D01*
Y39150D01*
D02*
G37*
G36*
X27457Y39147D02*
X27143D01*
Y39265D01*
X27457D01*
Y39147D01*
D02*
G37*
G36*
X36307Y39097D02*
X35993D01*
Y39215D01*
X36307D01*
Y39097D01*
D02*
G37*
G36*
X45357Y38638D02*
X45043D01*
Y38756D01*
X45357D01*
Y38638D01*
D02*
G37*
G36*
X40907D02*
X40593D01*
Y38756D01*
X40907D01*
Y38638D01*
D02*
G37*
G36*
X32007D02*
X31693D01*
Y38756D01*
X32007D01*
Y38638D01*
D02*
G37*
G36*
X27457Y38635D02*
X27143D01*
Y38753D01*
X27457D01*
Y38635D01*
D02*
G37*
G36*
X36307Y38585D02*
X35993D01*
Y38703D01*
X36307D01*
Y38585D01*
D02*
G37*
G36*
X55615Y38543D02*
X55497D01*
Y38857D01*
X55615D01*
Y38543D01*
D02*
G37*
G36*
X55103D02*
X54985D01*
Y38857D01*
X55103D01*
Y38543D01*
D02*
G37*
G36*
X48737Y38343D02*
X48619D01*
Y38657D01*
X48737D01*
Y38343D01*
D02*
G37*
G36*
X48225D02*
X48107D01*
Y38657D01*
X48225D01*
Y38343D01*
D02*
G37*
G36*
X55618Y37693D02*
X55500D01*
Y38007D01*
X55618D01*
Y37693D01*
D02*
G37*
G36*
X55107D02*
X54988D01*
Y38007D01*
X55107D01*
Y37693D01*
D02*
G37*
G36*
X45357Y37224D02*
X45043D01*
Y37342D01*
X45357D01*
Y37224D01*
D02*
G37*
G36*
X40907D02*
X40593D01*
Y37342D01*
X40907D01*
Y37224D01*
D02*
G37*
G36*
X32007D02*
X31693D01*
Y37342D01*
X32007D01*
Y37224D01*
D02*
G37*
G36*
X27457D02*
X27143D01*
Y37342D01*
X27457D01*
Y37224D01*
D02*
G37*
G36*
X45357Y36712D02*
X45043D01*
Y36830D01*
X45357D01*
Y36712D01*
D02*
G37*
G36*
X40907D02*
X40593D01*
Y36830D01*
X40907D01*
Y36712D01*
D02*
G37*
G36*
X32007D02*
X31693D01*
Y36830D01*
X32007D01*
Y36712D01*
D02*
G37*
G36*
X27457D02*
X27143D01*
Y36830D01*
X27457D01*
Y36712D01*
D02*
G37*
G36*
X56807Y34890D02*
X56493D01*
Y35008D01*
X56807D01*
Y34890D01*
D02*
G37*
G36*
X55937D02*
X55622D01*
Y35008D01*
X55937D01*
Y34890D01*
D02*
G37*
G36*
X49512D02*
X49197D01*
Y35008D01*
X49512D01*
Y34890D01*
D02*
G37*
G36*
X48757D02*
X48443D01*
Y35008D01*
X48757D01*
Y34890D01*
D02*
G37*
G36*
X55105Y34868D02*
X54790D01*
Y34986D01*
X55105D01*
Y34868D01*
D02*
G37*
G36*
X50307Y34862D02*
X49993D01*
Y34980D01*
X50307D01*
Y34862D01*
D02*
G37*
G36*
X32707Y34747D02*
X32393D01*
Y34865D01*
X32707D01*
Y34747D01*
D02*
G37*
G36*
X28857Y34693D02*
X28543D01*
Y34812D01*
X28857D01*
Y34693D01*
D02*
G37*
G36*
X56807Y34378D02*
X56493D01*
Y34496D01*
X56807D01*
Y34378D01*
D02*
G37*
G36*
X55937D02*
X55622D01*
Y34496D01*
X55937D01*
Y34378D01*
D02*
G37*
G36*
X49512D02*
X49197D01*
Y34496D01*
X49512D01*
Y34378D01*
D02*
G37*
G36*
X48757D02*
X48443D01*
Y34496D01*
X48757D01*
Y34378D01*
D02*
G37*
G36*
X55105Y34356D02*
X54790D01*
Y34474D01*
X55105D01*
Y34356D01*
D02*
G37*
G36*
X50307Y34350D02*
X49993D01*
Y34468D01*
X50307D01*
Y34350D01*
D02*
G37*
G36*
X32707Y34235D02*
X32393D01*
Y34353D01*
X32707D01*
Y34235D01*
D02*
G37*
G36*
X28857Y34182D02*
X28543D01*
Y34300D01*
X28857D01*
Y34182D01*
D02*
G37*
G36*
X31057Y33803D02*
X30743D01*
Y33921D01*
X31057D01*
Y33803D01*
D02*
G37*
G36*
X28057D02*
X27743D01*
Y33921D01*
X28057D01*
Y33803D01*
D02*
G37*
G36*
X31807Y33797D02*
X31493D01*
Y33915D01*
X31807D01*
Y33797D01*
D02*
G37*
G36*
X28857D02*
X28543D01*
Y33915D01*
X28857D01*
Y33797D01*
D02*
G37*
G36*
X50307Y33447D02*
X49993D01*
Y33565D01*
X50307D01*
Y33447D01*
D02*
G37*
G36*
X55057Y33371D02*
X54743D01*
Y33489D01*
X55057D01*
Y33371D01*
D02*
G37*
G36*
X31057Y33291D02*
X30743D01*
Y33409D01*
X31057D01*
Y33291D01*
D02*
G37*
G36*
X28057D02*
X27743D01*
Y33409D01*
X28057D01*
Y33291D01*
D02*
G37*
G36*
X31807Y33285D02*
X31493D01*
Y33403D01*
X31807D01*
Y33285D01*
D02*
G37*
G36*
X28857D02*
X28543D01*
Y33403D01*
X28857D01*
Y33285D01*
D02*
G37*
G36*
X50307Y32935D02*
X49993D01*
Y33053D01*
X50307D01*
Y32935D01*
D02*
G37*
G36*
X55057Y32859D02*
X54743D01*
Y32978D01*
X55057D01*
Y32859D01*
D02*
G37*
G36*
X48315Y32843D02*
X48197D01*
Y33157D01*
X48315D01*
Y32843D01*
D02*
G37*
G36*
X47803D02*
X47685D01*
Y33157D01*
X47803D01*
Y32843D01*
D02*
G37*
G36*
X55912Y32795D02*
X55794D01*
Y33110D01*
X55912D01*
Y32795D01*
D02*
G37*
G36*
X55400D02*
X55282D01*
Y33110D01*
X55400D01*
Y32795D01*
D02*
G37*
G36*
X49693Y32793D02*
X49575D01*
Y33107D01*
X49693D01*
Y32793D01*
D02*
G37*
G36*
X49181D02*
X49063D01*
Y33107D01*
X49181D01*
Y32793D01*
D02*
G37*
G36*
X57365Y32743D02*
X57247D01*
Y33057D01*
X57365D01*
Y32743D01*
D02*
G37*
G36*
X56853D02*
X56735D01*
Y33057D01*
X56853D01*
Y32743D01*
D02*
G37*
G36*
X48315Y32055D02*
X48197D01*
Y32370D01*
X48315D01*
Y32055D01*
D02*
G37*
G36*
X47803D02*
X47685D01*
Y32370D01*
X47803D01*
Y32055D01*
D02*
G37*
G36*
X55912Y32023D02*
X55794D01*
Y32338D01*
X55912D01*
Y32023D01*
D02*
G37*
G36*
X55400D02*
X55282D01*
Y32338D01*
X55400D01*
Y32023D01*
D02*
G37*
G36*
X49693Y32021D02*
X49575D01*
Y32336D01*
X49693D01*
Y32021D01*
D02*
G37*
G36*
X49181D02*
X49063D01*
Y32336D01*
X49181D01*
Y32021D01*
D02*
G37*
G36*
X57387Y31997D02*
X57269D01*
Y32312D01*
X57387D01*
Y31997D01*
D02*
G37*
G36*
X56875D02*
X56757D01*
Y32312D01*
X56875D01*
Y31997D01*
D02*
G37*
G36*
X50307Y31947D02*
X49993D01*
Y32065D01*
X50307D01*
Y31947D01*
D02*
G37*
G36*
X49512D02*
X49197D01*
Y32065D01*
X49512D01*
Y31947D01*
D02*
G37*
G36*
X48757D02*
X48443D01*
Y32065D01*
X48757D01*
Y31947D01*
D02*
G37*
G36*
X55107Y31885D02*
X54793D01*
Y32003D01*
X55107D01*
Y31885D01*
D02*
G37*
G36*
X56807Y31863D02*
X56493D01*
Y31981D01*
X56807D01*
Y31863D01*
D02*
G37*
G36*
X55937D02*
X55622D01*
Y31981D01*
X55937D01*
Y31863D01*
D02*
G37*
G36*
X33057Y31447D02*
X32743D01*
Y31565D01*
X33057D01*
Y31447D01*
D02*
G37*
G36*
X29807D02*
X29493D01*
Y31565D01*
X29807D01*
Y31447D01*
D02*
G37*
G36*
X50307Y31435D02*
X49993D01*
Y31553D01*
X50307D01*
Y31435D01*
D02*
G37*
G36*
X49512D02*
X49197D01*
Y31553D01*
X49512D01*
Y31435D01*
D02*
G37*
G36*
X48757D02*
X48443D01*
Y31553D01*
X48757D01*
Y31435D01*
D02*
G37*
G36*
X55107Y31373D02*
X54793D01*
Y31492D01*
X55107D01*
Y31373D01*
D02*
G37*
G36*
X48315Y31309D02*
X48197D01*
Y31624D01*
X48315D01*
Y31309D01*
D02*
G37*
G36*
X47803D02*
X47685D01*
Y31624D01*
X47803D01*
Y31309D01*
D02*
G37*
G36*
X55912Y31470D02*
X55937D01*
Y31352D01*
X55912D01*
Y31251D01*
X55794D01*
Y31352D01*
X55622D01*
Y31470D01*
X55794D01*
Y31566D01*
X55912D01*
Y31470D01*
D02*
G37*
G36*
X55400Y31251D02*
X55282D01*
Y31566D01*
X55400D01*
Y31251D01*
D02*
G37*
G36*
X49693Y31249D02*
X49575D01*
Y31564D01*
X49693D01*
Y31249D01*
D02*
G37*
G36*
X49181D02*
X49063D01*
Y31564D01*
X49181D01*
Y31249D01*
D02*
G37*
G36*
X57365Y31168D02*
X57247D01*
Y31482D01*
X57365D01*
Y31168D01*
D02*
G37*
G36*
X56853D02*
X56735D01*
Y31352D01*
X56493D01*
Y31470D01*
X56735D01*
Y31482D01*
X56853D01*
Y31168D01*
D02*
G37*
G36*
X33057Y30935D02*
X32743D01*
Y31053D01*
X33057D01*
Y30935D01*
D02*
G37*
G36*
X29807D02*
X29493D01*
Y31053D01*
X29807D01*
Y30935D01*
D02*
G37*
G36*
X30965Y30893D02*
X30847D01*
Y31207D01*
X30965D01*
Y30893D01*
D02*
G37*
G36*
X30453D02*
X30335D01*
Y31207D01*
X30453D01*
Y30893D01*
D02*
G37*
G36*
X29465D02*
X29347D01*
Y31207D01*
X29465D01*
Y30893D01*
D02*
G37*
G36*
X28953D02*
X28835D01*
Y31207D01*
X28953D01*
Y30893D01*
D02*
G37*
G36*
X48315Y30480D02*
X48197D01*
Y30795D01*
X48315D01*
Y30480D01*
D02*
G37*
G36*
X47803D02*
X47685D01*
Y30795D01*
X47803D01*
Y30480D01*
D02*
G37*
G36*
X55912Y30479D02*
X55794D01*
Y30794D01*
X55912D01*
Y30479D01*
D02*
G37*
G36*
X55400D02*
X55282D01*
Y30794D01*
X55400D01*
Y30479D01*
D02*
G37*
G36*
X49693Y30477D02*
X49575D01*
Y30792D01*
X49693D01*
Y30477D01*
D02*
G37*
G36*
X49181D02*
X49063D01*
Y30792D01*
X49181D01*
Y30477D01*
D02*
G37*
G36*
X57365Y30380D02*
X57247D01*
Y30695D01*
X57365D01*
Y30380D01*
D02*
G37*
G36*
X56853D02*
X56735D01*
Y30695D01*
X56853D01*
Y30380D01*
D02*
G37*
G36*
X55865Y29743D02*
X55747D01*
Y30057D01*
X55865D01*
Y29743D01*
D02*
G37*
G36*
X55353D02*
X55235D01*
Y30057D01*
X55353D01*
Y29743D01*
D02*
G37*
G36*
X49665D02*
X49547D01*
Y30057D01*
X49665D01*
Y29743D01*
D02*
G37*
G36*
X49153D02*
X49035D01*
Y30057D01*
X49153D01*
Y29743D01*
D02*
G37*
G36*
X48315Y29693D02*
X48197D01*
Y30007D01*
X48315D01*
Y29693D01*
D02*
G37*
G36*
X47803D02*
X47685D01*
Y30007D01*
X47803D01*
Y29693D01*
D02*
G37*
G36*
X57365Y29593D02*
X57247D01*
Y29907D01*
X57365D01*
Y29593D01*
D02*
G37*
G36*
X56853D02*
X56735D01*
Y29907D01*
X56853D01*
Y29593D01*
D02*
G37*
G36*
X30453Y29293D02*
X30335D01*
Y29607D01*
X30453D01*
Y29293D01*
D02*
G37*
G36*
X29465Y29243D02*
X29347D01*
Y29557D01*
X29465D01*
Y29243D01*
D02*
G37*
G36*
X28953D02*
X28835D01*
Y29557D01*
X28953D01*
Y29243D01*
D02*
G37*
G36*
X30965Y29315D02*
X31157D01*
Y29197D01*
X30843D01*
Y29315D01*
X30847D01*
Y29607D01*
X30965D01*
Y29315D01*
D02*
G37*
G36*
X28057Y29197D02*
X27743D01*
Y29315D01*
X28057D01*
Y29197D01*
D02*
G37*
G36*
X55915Y29043D02*
X55797D01*
Y29357D01*
X55915D01*
Y29043D01*
D02*
G37*
G36*
X55403D02*
X55285D01*
Y29357D01*
X55403D01*
Y29043D01*
D02*
G37*
G36*
X49665Y28893D02*
X49547D01*
Y29207D01*
X49665D01*
Y28893D01*
D02*
G37*
G36*
X49153D02*
X49035D01*
Y29207D01*
X49153D01*
Y28893D01*
D02*
G37*
G36*
X31157Y28685D02*
X30843D01*
Y28803D01*
X31157D01*
Y28685D01*
D02*
G37*
G36*
X28057D02*
X27743D01*
Y28803D01*
X28057D01*
Y28685D01*
D02*
G37*
G36*
X55740Y25997D02*
X55425D01*
Y26115D01*
X55740D01*
Y25997D01*
D02*
G37*
G36*
X54678D02*
X54363D01*
Y26115D01*
X54678D01*
Y25997D01*
D02*
G37*
G36*
X53616D02*
X53301D01*
Y26115D01*
X53616D01*
Y25997D01*
D02*
G37*
G36*
X52553D02*
X52238D01*
Y26115D01*
X52553D01*
Y25997D01*
D02*
G37*
G36*
X51491D02*
X51176D01*
Y26115D01*
X51491D01*
Y25997D01*
D02*
G37*
G36*
X50428D02*
X50113D01*
Y26115D01*
X50428D01*
Y25997D01*
D02*
G37*
G36*
X49407Y25969D02*
X49093D01*
Y26087D01*
X49407D01*
Y25969D01*
D02*
G37*
G36*
X32657Y25947D02*
X32343D01*
Y26065D01*
X32657D01*
Y25947D01*
D02*
G37*
G36*
X31309D02*
X30994D01*
Y26065D01*
X31309D01*
Y25947D01*
D02*
G37*
G36*
X29960D02*
X29645D01*
Y26065D01*
X29960D01*
Y25947D01*
D02*
G37*
G36*
X28612D02*
X28297D01*
Y26065D01*
X28612D01*
Y25947D01*
D02*
G37*
G36*
X27263D02*
X26948D01*
Y26065D01*
X27263D01*
Y25947D01*
D02*
G37*
G36*
X25914D02*
X25600D01*
Y26065D01*
X25914D01*
Y25947D01*
D02*
G37*
G36*
X24607Y25919D02*
X24293D01*
Y26037D01*
X24607D01*
Y25919D01*
D02*
G37*
G36*
X55740Y25485D02*
X55425D01*
Y25603D01*
X55740D01*
Y25485D01*
D02*
G37*
G36*
X54678D02*
X54363D01*
Y25603D01*
X54678D01*
Y25485D01*
D02*
G37*
G36*
X53616D02*
X53301D01*
Y25603D01*
X53616D01*
Y25485D01*
D02*
G37*
G36*
X52553D02*
X52238D01*
Y25603D01*
X52553D01*
Y25485D01*
D02*
G37*
G36*
X51491D02*
X51176D01*
Y25603D01*
X51491D01*
Y25485D01*
D02*
G37*
G36*
X50428D02*
X50113D01*
Y25603D01*
X50428D01*
Y25485D01*
D02*
G37*
G36*
X49407Y25457D02*
X49093D01*
Y25575D01*
X49407D01*
Y25457D01*
D02*
G37*
G36*
X32657Y25435D02*
X32343D01*
Y25553D01*
X32657D01*
Y25435D01*
D02*
G37*
G36*
X31309D02*
X30994D01*
Y25553D01*
X31309D01*
Y25435D01*
D02*
G37*
G36*
X29960D02*
X29645D01*
Y25553D01*
X29960D01*
Y25435D01*
D02*
G37*
G36*
X28612D02*
X28297D01*
Y25553D01*
X28612D01*
Y25435D01*
D02*
G37*
G36*
X27263D02*
X26948D01*
Y25553D01*
X27263D01*
Y25435D01*
D02*
G37*
G36*
X25914D02*
X25600D01*
Y25553D01*
X25914D01*
Y25435D01*
D02*
G37*
G36*
X24607Y25407D02*
X24293D01*
Y25525D01*
X24607D01*
Y25407D01*
D02*
G37*
M02*
