M48
;Layer_Color=9474304
;FILE_FORMAT=2:4
INCH,LZ
;TYPE=PLATED
T2F00S00C0.0200
T3F00S00C0.0236
;TYPE=NON_PLATED
%
G90
G05
T02
G00X05202Y018545
M15
G01Y018295
M16
G00X05612Y018545
M15
G01Y018295
M16
G00X05575Y0224
M15
G01X05555
M16
G00X05496Y0224
M15
G01X05476
M16
G00X05417Y0224
M15
G01X05397
M16
G00X05338Y0224
M15
G01X05318
M16
G00X05259Y0224
M15
G01X05239
M16
G00X02923Y0224
M15
G01X02903
M16
G00X02844Y0224
M15
G01X02824
M16
G00X02765Y0224
M15
G01X02745
M16
G00X02686Y0224
M15
G01X02666
M16
G00X02607Y0224
M15
G01X02587
M16
G00X0255Y018545
M15
G01Y018295
M16
G00X0296Y018545
M15
G01Y018295
M16
T03
G00X033151Y050922
M15
G01Y050488
M16
G00X033151Y052496
M15
G01Y052181
M16
G00X029749Y052496
M15
G01Y052181
M16
G00X029749Y050922
M15
G01Y050488
M16
M17
M30
