G04*
G04 #@! TF.GenerationSoftware,Altium Limited,Altium Designer,20.2.6 (244)*
G04*
G04 Layer_Color=8421504*
%FSLAX24Y24*%
%MOIN*%
G70*
G04*
G04 #@! TF.SameCoordinates,939C5B67-7932-4E13-932B-422522EE1AF6*
G04*
G04*
G04 #@! TF.FilePolarity,Positive*
G04*
G01*
G75*
%ADD10C,0.0100*%
%ADD19R,0.1200X0.0600*%
%ADD20R,0.0500X0.0800*%
%ADD21R,0.0475X0.0670*%
%ADD22R,0.0354X0.0315*%
%ADD23R,0.0315X0.0354*%
%ADD24R,0.0318X0.0340*%
%ADD25O,0.0945X0.0226*%
%ADD26R,0.0472X0.1496*%
%ADD27R,0.1181X0.2087*%
%ADD28R,0.0320X0.0320*%
%ADD29R,0.0669X0.0860*%
%ADD30O,0.0400X0.1200*%
%ADD31R,0.1004X0.1004*%
%ADD32R,0.0110X0.0350*%
%ADD33R,0.0350X0.0110*%
%ADD34R,0.0340X0.0318*%
%ADD35R,0.1496X0.0984*%
%ADD36R,0.0236X0.0800*%
%ADD37R,0.0118X0.0800*%
%ADD38O,0.1200X0.0400*%
%ADD39R,0.0700X0.0400*%
%ADD40R,0.0217X0.0394*%
%ADD41R,0.1500X0.1701*%
%ADD42R,0.0787X0.0236*%
G36*
X28870Y34927D02*
Y34729D01*
X28754Y34621D01*
X28646D01*
X28530Y34729D01*
Y34927D01*
X28555Y34952D01*
X28845D01*
X28870Y34927D01*
D02*
G37*
G36*
Y34265D02*
Y34066D01*
X28845Y34041D01*
X28555D01*
X28530Y34066D01*
Y34265D01*
X28646Y34373D01*
X28754D01*
X28870Y34265D01*
D02*
G37*
G36*
X31105Y31195D02*
Y30905D01*
X31080Y30880D01*
X30882D01*
X30774Y30996D01*
Y31104D01*
X30882Y31220D01*
X31080D01*
X31105Y31195D01*
D02*
G37*
G36*
X30526Y31104D02*
Y30996D01*
X30418Y30880D01*
X30220D01*
X30195Y30905D01*
Y31195D01*
X30220Y31220D01*
X30418D01*
X30526Y31104D01*
D02*
G37*
G36*
X29574Y31195D02*
Y30905D01*
X29549Y30880D01*
X29433D01*
X29274Y30996D01*
Y31104D01*
X29433Y31220D01*
X29549D01*
X29574Y31195D01*
D02*
G37*
G36*
X29026Y31104D02*
Y30996D01*
X28867Y30880D01*
X28751D01*
X28726Y30905D01*
Y31195D01*
X28751Y31220D01*
X28867D01*
X29026Y31104D01*
D02*
G37*
G36*
X31105Y29595D02*
Y29305D01*
X31080Y29280D01*
X30882D01*
X30774Y29396D01*
Y29504D01*
X30882Y29620D01*
X31080D01*
X31105Y29595D01*
D02*
G37*
G36*
X30526Y29504D02*
Y29396D01*
X30418Y29280D01*
X30220D01*
X30195Y29305D01*
Y29595D01*
X30220Y29620D01*
X30418D01*
X30526Y29504D01*
D02*
G37*
G36*
X29605Y29545D02*
Y29255D01*
X29580Y29230D01*
X29382D01*
X29274Y29346D01*
Y29454D01*
X29382Y29570D01*
X29580D01*
X29605Y29545D01*
D02*
G37*
G36*
X29026Y29454D02*
Y29346D01*
X28918Y29230D01*
X28720D01*
X28695Y29255D01*
Y29545D01*
X28720Y29570D01*
X28918D01*
X29026Y29454D01*
D02*
G37*
G36*
X26252Y44795D02*
Y44505D01*
X26227Y44480D01*
X26029D01*
X25921Y44596D01*
Y44704D01*
X26029Y44820D01*
X26227D01*
X26252Y44795D01*
D02*
G37*
G36*
X25673Y44704D02*
Y44596D01*
X25565Y44480D01*
X25366D01*
X25341Y44505D01*
Y44795D01*
X25366Y44820D01*
X25565D01*
X25673Y44704D01*
D02*
G37*
G36*
X26252Y44070D02*
Y43780D01*
X26227Y43755D01*
X26029D01*
X25921Y43871D01*
Y43979D01*
X26029Y44095D01*
X26227D01*
X26252Y44070D01*
D02*
G37*
G36*
X25673Y43979D02*
Y43871D01*
X25565Y43755D01*
X25366D01*
X25341Y43780D01*
Y44070D01*
X25366Y44095D01*
X25565D01*
X25673Y43979D01*
D02*
G37*
G36*
X26252Y43345D02*
Y43055D01*
X26227Y43030D01*
X26029D01*
X25921Y43146D01*
Y43254D01*
X26029Y43370D01*
X26227D01*
X26252Y43345D01*
D02*
G37*
G36*
X25673Y43254D02*
Y43146D01*
X25565Y43030D01*
X25366D01*
X25341Y43055D01*
Y43345D01*
X25366Y43370D01*
X25565D01*
X25673Y43254D01*
D02*
G37*
G36*
X27470Y39349D02*
Y39233D01*
X27354Y39074D01*
X27246D01*
X27130Y39233D01*
Y39349D01*
X27155Y39374D01*
X27445D01*
X27470Y39349D01*
D02*
G37*
G36*
Y38667D02*
Y38551D01*
X27445Y38526D01*
X27155D01*
X27130Y38551D01*
Y38667D01*
X27246Y38826D01*
X27354D01*
X27470Y38667D01*
D02*
G37*
G36*
Y37426D02*
Y37310D01*
X27354Y37151D01*
X27246D01*
X27130Y37310D01*
Y37426D01*
X27155Y37452D01*
X27445D01*
X27470Y37426D01*
D02*
G37*
G36*
Y36745D02*
Y36628D01*
X27445Y36603D01*
X27155D01*
X27130Y36628D01*
Y36745D01*
X27246Y36903D01*
X27354D01*
X27470Y36745D01*
D02*
G37*
G36*
X32604Y34426D02*
X32496D01*
X32380Y34318D01*
Y34120D01*
X32405Y34095D01*
X32695D01*
X32720Y34120D01*
Y34318D01*
X32604Y34426D01*
D02*
G37*
G36*
Y34674D02*
X32496D01*
X32380Y34782D01*
Y34980D01*
X32405Y35005D01*
X32695D01*
X32720Y34980D01*
Y34782D01*
X32604Y34674D01*
D02*
G37*
G36*
X31796Y36903D02*
X31904D01*
X32020Y36745D01*
Y36628D01*
X31995Y36603D01*
X31705D01*
X31680Y36628D01*
Y36745D01*
X31796Y36903D01*
D02*
G37*
G36*
Y37151D02*
X31904D01*
X32020Y37310D01*
Y37426D01*
X31995Y37452D01*
X31705D01*
X31680Y37426D01*
Y37310D01*
X31796Y37151D01*
D02*
G37*
G36*
X31904Y38829D02*
X31796D01*
X31680Y38670D01*
Y38554D01*
X31705Y38528D01*
X31995D01*
X32020Y38554D01*
Y38670D01*
X31904Y38829D01*
D02*
G37*
G36*
X36096Y38776D02*
X36204D01*
X36320Y38617D01*
Y38501D01*
X36295Y38476D01*
X36005D01*
X35980Y38501D01*
Y38617D01*
X36096Y38776D01*
D02*
G37*
G36*
X33370Y44592D02*
Y44475D01*
X33345Y44450D01*
X33055D01*
X33030Y44475D01*
Y44592D01*
X33146Y44750D01*
X33254D01*
X33370Y44592D01*
D02*
G37*
G36*
X32620D02*
Y44475D01*
X32595Y44450D01*
X32305D01*
X32280Y44475D01*
Y44592D01*
X32396Y44750D01*
X32504D01*
X32620Y44592D01*
D02*
G37*
G36*
X31920Y44643D02*
Y44444D01*
X31895Y44419D01*
X31605D01*
X31580Y44444D01*
Y44643D01*
X31696Y44751D01*
X31804D01*
X31920Y44643D01*
D02*
G37*
G36*
X32020Y39352D02*
Y39235D01*
X31904Y39077D01*
X31796D01*
X31680Y39235D01*
Y39352D01*
X31705Y39377D01*
X31995D01*
X32020Y39352D01*
D02*
G37*
G36*
X36320Y39299D02*
Y39183D01*
X36204Y39024D01*
X36096D01*
X35980Y39183D01*
Y39299D01*
X36005Y39324D01*
X36295D01*
X36320Y39299D01*
D02*
G37*
G36*
X37770Y44630D02*
Y44432D01*
X37654Y44324D01*
X37546D01*
X37430Y44432D01*
Y44630D01*
X37455Y44655D01*
X37745D01*
X37770Y44630D01*
D02*
G37*
G36*
Y43968D02*
Y43770D01*
X37745Y43745D01*
X37455D01*
X37430Y43770D01*
Y43968D01*
X37546Y44076D01*
X37654D01*
X37770Y43968D01*
D02*
G37*
G36*
X43254Y43249D02*
Y43133D01*
X43139Y42974D01*
X43030D01*
X42914Y43133D01*
Y43249D01*
X42939Y43274D01*
X43229D01*
X43254Y43249D01*
D02*
G37*
G36*
X42218D02*
Y43133D01*
X42102Y42974D01*
X41993D01*
X41878Y43133D01*
Y43249D01*
X41903Y43274D01*
X42193D01*
X42218Y43249D01*
D02*
G37*
G36*
X43254Y42567D02*
Y42451D01*
X43229Y42426D01*
X42939D01*
X42914Y42451D01*
Y42567D01*
X43030Y42726D01*
X43139D01*
X43254Y42567D01*
D02*
G37*
G36*
X42218D02*
Y42451D01*
X42193Y42426D01*
X41903D01*
X41878Y42451D01*
Y42567D01*
X41993Y42726D01*
X42102D01*
X42218Y42567D01*
D02*
G37*
G36*
X40920Y39352D02*
Y39235D01*
X40804Y39077D01*
X40696D01*
X40580Y39235D01*
Y39352D01*
X40605Y39377D01*
X40895D01*
X40920Y39352D01*
D02*
G37*
G36*
Y38670D02*
Y38554D01*
X40895Y38528D01*
X40605D01*
X40580Y38554D01*
Y38670D01*
X40696Y38829D01*
X40804D01*
X40920Y38670D01*
D02*
G37*
G36*
Y37426D02*
Y37310D01*
X40804Y37151D01*
X40696D01*
X40580Y37310D01*
Y37426D01*
X40605Y37452D01*
X40895D01*
X40920Y37426D01*
D02*
G37*
G36*
Y36745D02*
Y36628D01*
X40895Y36603D01*
X40605D01*
X40580Y36628D01*
Y36745D01*
X40696Y36903D01*
X40804D01*
X40920Y36745D01*
D02*
G37*
G36*
X29859Y52660D02*
X29914Y52606D01*
X29945Y52535D01*
X29946Y52496D01*
Y52181D01*
X29945Y52143D01*
X29914Y52072D01*
X29859Y52017D01*
X29788Y51988D01*
X29710D01*
X29639Y52017D01*
X29583Y52072D01*
X29553Y52143D01*
X29552Y52181D01*
X29552D01*
X29552Y52496D01*
X29553Y52535D01*
X29583Y52606D01*
X29639Y52660D01*
X29710Y52690D01*
X29788D01*
X29859Y52660D01*
D02*
G37*
G36*
X33261Y52661D02*
X33316Y52606D01*
X33347Y52535D01*
X33347Y52496D01*
Y52181D01*
X33347Y52143D01*
X33316Y52071D01*
X33261Y52017D01*
X33189Y51987D01*
X33112D01*
X33040Y52017D01*
X32985Y52071D01*
X32954Y52143D01*
X32954Y52181D01*
X32954D01*
X32954Y52496D01*
X32954Y52535D01*
X32985Y52606D01*
X33040Y52661D01*
X33112Y52690D01*
X33189D01*
X33261Y52661D01*
D02*
G37*
G36*
X42570Y51899D02*
Y51783D01*
X42454Y51624D01*
X42346D01*
X42230Y51783D01*
Y51899D01*
X42255Y51924D01*
X42545D01*
X42570Y51899D01*
D02*
G37*
G36*
X24805Y51695D02*
Y51405D01*
X24780Y51380D01*
X24582D01*
X24474Y51496D01*
Y51604D01*
X24582Y51720D01*
X24780D01*
X24805Y51695D01*
D02*
G37*
G36*
X24226Y51604D02*
Y51496D01*
X24118Y51380D01*
X23920D01*
X23895Y51405D01*
Y51695D01*
X23920Y51720D01*
X24118D01*
X24226Y51604D01*
D02*
G37*
G36*
X42570Y51217D02*
Y51101D01*
X42545Y51076D01*
X42255D01*
X42230Y51101D01*
Y51217D01*
X42346Y51376D01*
X42454D01*
X42570Y51217D01*
D02*
G37*
G36*
X24805Y50925D02*
Y50635D01*
X24780Y50610D01*
X24582D01*
X24474Y50726D01*
Y50834D01*
X24582Y50950D01*
X24780D01*
X24805Y50925D01*
D02*
G37*
G36*
X24226Y50834D02*
Y50726D01*
X24118Y50610D01*
X23920D01*
X23895Y50635D01*
Y50925D01*
X23920Y50950D01*
X24118D01*
X24226Y50834D01*
D02*
G37*
G36*
X29859Y51086D02*
X29914Y51031D01*
X29945Y50960D01*
X29946Y50922D01*
Y50489D01*
X29945Y50450D01*
X29914Y50379D01*
X29859Y50324D01*
X29788Y50295D01*
X29710D01*
X29639Y50324D01*
X29583Y50379D01*
X29553Y50450D01*
X29552Y50489D01*
X29552D01*
X29552Y50922D01*
X29553Y50960D01*
X29583Y51031D01*
X29639Y51086D01*
X29710Y51115D01*
X29788D01*
X29859Y51086D01*
D02*
G37*
G36*
X33262Y51088D02*
X33317Y51033D01*
X33347Y50961D01*
Y50922D01*
Y50489D01*
Y50449D01*
X33317Y50377D01*
X33262Y50322D01*
X33190Y50292D01*
X33111D01*
X33039Y50322D01*
X32983Y50377D01*
X32954Y50449D01*
Y50489D01*
Y50922D01*
Y50961D01*
X32983Y51033D01*
X33039Y51088D01*
X33111Y51118D01*
X33190D01*
X33262Y51088D01*
D02*
G37*
G36*
X24746Y50196D02*
Y49907D01*
X24721Y49882D01*
X24605D01*
X24446Y49997D01*
Y50106D01*
X24605Y50222D01*
X24721D01*
X24746Y50196D01*
D02*
G37*
G36*
X24198Y50106D02*
Y49997D01*
X24039Y49882D01*
X23923D01*
X23898Y49907D01*
Y50196D01*
X23923Y50222D01*
X24039D01*
X24198Y50106D01*
D02*
G37*
G36*
X28820Y49799D02*
Y49683D01*
X28704Y49524D01*
X28596D01*
X28480Y49683D01*
Y49799D01*
X28505Y49824D01*
X28795D01*
X28820Y49799D01*
D02*
G37*
G36*
X24755Y49395D02*
Y49105D01*
X24730Y49080D01*
X24532D01*
X24424Y49196D01*
Y49304D01*
X24532Y49420D01*
X24730D01*
X24755Y49395D01*
D02*
G37*
G36*
X24176Y49304D02*
Y49196D01*
X24068Y49080D01*
X23870D01*
X23845Y49105D01*
Y49395D01*
X23870Y49420D01*
X24068D01*
X24176Y49304D01*
D02*
G37*
G36*
X30124Y49295D02*
Y49005D01*
X30099Y48980D01*
X29983D01*
X29824Y49096D01*
Y49204D01*
X29983Y49320D01*
X30099D01*
X30124Y49295D01*
D02*
G37*
G36*
X29576Y49204D02*
Y49096D01*
X29417Y48980D01*
X29301D01*
X29276Y49005D01*
Y49295D01*
X29301Y49320D01*
X29417D01*
X29576Y49204D01*
D02*
G37*
G36*
X28820Y49117D02*
Y49001D01*
X28795Y48976D01*
X28505D01*
X28480Y49001D01*
Y49117D01*
X28596Y49276D01*
X28704D01*
X28820Y49117D01*
D02*
G37*
G36*
X24755Y48645D02*
Y48355D01*
X24730Y48330D01*
X24532D01*
X24424Y48446D01*
Y48554D01*
X24532Y48670D01*
X24730D01*
X24755Y48645D01*
D02*
G37*
G36*
X24176Y48554D02*
Y48446D01*
X24068Y48330D01*
X23870D01*
X23845Y48355D01*
Y48645D01*
X23870Y48670D01*
X24068D01*
X24176Y48554D01*
D02*
G37*
G36*
X30124Y48545D02*
Y48255D01*
X30099Y48230D01*
X29983D01*
X29824Y48346D01*
Y48454D01*
X29983Y48570D01*
X30099D01*
X30124Y48545D01*
D02*
G37*
G36*
X29576Y48454D02*
Y48346D01*
X29417Y48230D01*
X29301D01*
X29276Y48255D01*
Y48545D01*
X29301Y48570D01*
X29417D01*
X29576Y48454D01*
D02*
G37*
G36*
X24752Y47945D02*
Y47655D01*
X24727Y47630D01*
X24529D01*
X24421Y47746D01*
Y47854D01*
X24529Y47970D01*
X24727D01*
X24752Y47945D01*
D02*
G37*
G36*
X24173Y47854D02*
Y47746D01*
X24065Y47630D01*
X23866D01*
X23841Y47655D01*
Y47945D01*
X23866Y47970D01*
X24065D01*
X24173Y47854D01*
D02*
G37*
G36*
X28070Y47919D02*
Y47328D01*
X28031Y47288D01*
X27634D01*
X27594Y47328D01*
Y47470D01*
X27634Y47509D01*
X27717D01*
X27756Y47549D01*
Y47698D01*
X27717Y47737D01*
X27634D01*
X27594Y47776D01*
Y47919D01*
X27634Y47958D01*
X28031D01*
X28070Y47919D01*
D02*
G37*
G36*
X26906D02*
Y47776D01*
X26866Y47737D01*
X26783D01*
X26744Y47698D01*
Y47549D01*
X26783Y47509D01*
X26866D01*
X26906Y47470D01*
Y47328D01*
X26866Y47288D01*
X26469D01*
X26430Y47328D01*
Y47919D01*
X26469Y47958D01*
X26866D01*
X26906Y47919D01*
D02*
G37*
G36*
X29970Y46474D02*
Y46357D01*
X29854Y46198D01*
X29746D01*
X29630Y46357D01*
Y46474D01*
X29655Y46499D01*
X29945D01*
X29970Y46474D01*
D02*
G37*
G36*
X29110D02*
Y46357D01*
X28994Y46198D01*
X28886D01*
X28770Y46357D01*
Y46474D01*
X28795Y46499D01*
X29085D01*
X29110Y46474D01*
D02*
G37*
G36*
X28250D02*
Y46357D01*
X28134Y46198D01*
X28026D01*
X27910Y46357D01*
Y46474D01*
X27935Y46499D01*
X28225D01*
X28250Y46474D01*
D02*
G37*
G36*
X27390D02*
Y46357D01*
X27274Y46198D01*
X27166D01*
X27050Y46357D01*
Y46474D01*
X27075Y46499D01*
X27365D01*
X27390Y46474D01*
D02*
G37*
G36*
X26530D02*
Y46357D01*
X26414Y46198D01*
X26306D01*
X26190Y46357D01*
Y46474D01*
X26215Y46499D01*
X26505D01*
X26530Y46474D01*
D02*
G37*
G36*
X25670D02*
Y46357D01*
X25554Y46198D01*
X25446D01*
X25330Y46357D01*
Y46474D01*
X25355Y46499D01*
X25645D01*
X25670Y46474D01*
D02*
G37*
G36*
X29970Y45792D02*
Y45675D01*
X29945Y45650D01*
X29655D01*
X29630Y45675D01*
Y45792D01*
X29746Y45950D01*
X29854D01*
X29970Y45792D01*
D02*
G37*
G36*
X29110D02*
Y45675D01*
X29085Y45650D01*
X28795D01*
X28770Y45675D01*
Y45792D01*
X28886Y45950D01*
X28994D01*
X29110Y45792D01*
D02*
G37*
G36*
X28250D02*
Y45675D01*
X28225Y45650D01*
X27935D01*
X27910Y45675D01*
Y45792D01*
X28026Y45950D01*
X28134D01*
X28250Y45792D01*
D02*
G37*
G36*
X27390D02*
Y45675D01*
X27365Y45650D01*
X27075D01*
X27050Y45675D01*
Y45792D01*
X27166Y45950D01*
X27274D01*
X27390Y45792D01*
D02*
G37*
G36*
X26530D02*
Y45675D01*
X26505Y45650D01*
X26215D01*
X26190Y45675D01*
Y45792D01*
X26306Y45950D01*
X26414D01*
X26530Y45792D01*
D02*
G37*
G36*
X25670D02*
Y45675D01*
X25645Y45650D01*
X25355D01*
X25330Y45675D01*
Y45792D01*
X25446Y45950D01*
X25554D01*
X25670Y45792D01*
D02*
G37*
G36*
X31920Y45305D02*
Y45107D01*
X31804Y44999D01*
X31696D01*
X31580Y45107D01*
Y45305D01*
X31605Y45330D01*
X31895D01*
X31920Y45305D01*
D02*
G37*
G36*
X33370Y45274D02*
Y45157D01*
X33254Y44998D01*
X33146D01*
X33030Y45157D01*
Y45274D01*
X33055Y45299D01*
X33345D01*
X33370Y45274D01*
D02*
G37*
G36*
X32620D02*
Y45157D01*
X32504Y44998D01*
X32396D01*
X32280Y45157D01*
Y45274D01*
X32305Y45299D01*
X32595D01*
X32620Y45274D01*
D02*
G37*
G36*
X45420Y48299D02*
Y48183D01*
X45304Y48024D01*
X45196D01*
X45080Y48183D01*
Y48299D01*
X45105Y48324D01*
X45395D01*
X45420Y48299D01*
D02*
G37*
G36*
Y47617D02*
Y47501D01*
X45395Y47476D01*
X45105D01*
X45080Y47501D01*
Y47617D01*
X45196Y47776D01*
X45304D01*
X45420Y47617D01*
D02*
G37*
G36*
X55805Y45145D02*
Y44855D01*
X55780Y44830D01*
X55582D01*
X55474Y44946D01*
Y45054D01*
X55582Y45170D01*
X55780D01*
X55805Y45145D01*
D02*
G37*
G36*
X55226Y45054D02*
Y44946D01*
X55118Y44830D01*
X54920D01*
X54895Y44855D01*
Y45145D01*
X54920Y45170D01*
X55118D01*
X55226Y45054D01*
D02*
G37*
G36*
X48874Y44595D02*
Y44305D01*
X48849Y44280D01*
X48733D01*
X48574Y44396D01*
Y44504D01*
X48733Y44620D01*
X48849D01*
X48874Y44595D01*
D02*
G37*
G36*
X48326Y44504D02*
Y44396D01*
X48167Y44280D01*
X48051D01*
X48026Y44305D01*
Y44595D01*
X48051Y44620D01*
X48167D01*
X48326Y44504D01*
D02*
G37*
G36*
X55796Y44436D02*
Y44147D01*
X55771Y44122D01*
X55655D01*
X55496Y44237D01*
Y44346D01*
X55655Y44462D01*
X55771D01*
X55796Y44436D01*
D02*
G37*
G36*
X55248Y44346D02*
Y44237D01*
X55089Y44122D01*
X54973D01*
X54948Y44147D01*
Y44436D01*
X54973Y44462D01*
X55089D01*
X55248Y44346D01*
D02*
G37*
G36*
X48868Y43817D02*
Y43527D01*
X48843Y43502D01*
X48727D01*
X48568Y43617D01*
Y43726D01*
X48727Y43842D01*
X48843D01*
X48868Y43817D01*
D02*
G37*
G36*
X48320Y43726D02*
Y43617D01*
X48161Y43502D01*
X48045D01*
X48020Y43527D01*
Y43817D01*
X48045Y43842D01*
X48161D01*
X48320Y43726D01*
D02*
G37*
G36*
X55805Y43645D02*
Y43355D01*
X55780Y43330D01*
X55582D01*
X55474Y43446D01*
Y43554D01*
X55582Y43670D01*
X55780D01*
X55805Y43645D01*
D02*
G37*
G36*
X55226Y43554D02*
Y43446D01*
X55118Y43330D01*
X54920D01*
X54895Y43355D01*
Y43645D01*
X54920Y43670D01*
X55118D01*
X55226Y43554D01*
D02*
G37*
G36*
X45327Y43249D02*
Y43133D01*
X45212Y42974D01*
X45103D01*
X44987Y43133D01*
Y43249D01*
X45012Y43274D01*
X45302D01*
X45327Y43249D01*
D02*
G37*
G36*
X44291D02*
Y43133D01*
X44175Y42974D01*
X44066D01*
X43951Y43133D01*
Y43249D01*
X43976Y43274D01*
X44266D01*
X44291Y43249D01*
D02*
G37*
G36*
X48877Y42995D02*
Y42705D01*
X48852Y42680D01*
X48654D01*
X48546Y42796D01*
Y42904D01*
X48654Y43020D01*
X48852D01*
X48877Y42995D01*
D02*
G37*
G36*
X48298Y42904D02*
Y42796D01*
X48190Y42680D01*
X47992D01*
X47967Y42705D01*
Y42995D01*
X47992Y43020D01*
X48190D01*
X48298Y42904D01*
D02*
G37*
G36*
X55805Y42895D02*
Y42605D01*
X55780Y42580D01*
X55582D01*
X55474Y42696D01*
Y42804D01*
X55582Y42920D01*
X55780D01*
X55805Y42895D01*
D02*
G37*
G36*
X55226Y42804D02*
Y42696D01*
X55118Y42580D01*
X54920D01*
X54895Y42605D01*
Y42895D01*
X54920Y42920D01*
X55118D01*
X55226Y42804D01*
D02*
G37*
G36*
X45327Y42567D02*
Y42451D01*
X45302Y42426D01*
X45012D01*
X44987Y42451D01*
Y42567D01*
X45103Y42726D01*
X45212D01*
X45327Y42567D01*
D02*
G37*
G36*
X44291D02*
Y42451D01*
X44266Y42426D01*
X43976D01*
X43951Y42451D01*
Y42567D01*
X44066Y42726D01*
X44175D01*
X44291Y42567D01*
D02*
G37*
G36*
X55755Y40545D02*
Y40255D01*
X55730Y40230D01*
X55532D01*
X55424Y40346D01*
Y40454D01*
X55532Y40570D01*
X55730D01*
X55755Y40545D01*
D02*
G37*
G36*
X55176Y40454D02*
Y40346D01*
X55068Y40230D01*
X54870D01*
X54845Y40255D01*
Y40545D01*
X54870Y40570D01*
X55068D01*
X55176Y40454D01*
D02*
G37*
G36*
X48874Y40295D02*
Y40005D01*
X48849Y39980D01*
X48733D01*
X48574Y40096D01*
Y40204D01*
X48733Y40320D01*
X48849D01*
X48874Y40295D01*
D02*
G37*
G36*
X48326Y40204D02*
Y40096D01*
X48167Y39980D01*
X48051D01*
X48026Y40005D01*
Y40295D01*
X48051Y40320D01*
X48167D01*
X48326Y40204D01*
D02*
G37*
G36*
X55746Y39736D02*
Y39447D01*
X55721Y39422D01*
X55605D01*
X55446Y39537D01*
Y39646D01*
X55605Y39762D01*
X55721D01*
X55746Y39736D01*
D02*
G37*
G36*
X55198Y39646D02*
Y39537D01*
X55039Y39422D01*
X54923D01*
X54898Y39447D01*
Y39736D01*
X54923Y39762D01*
X55039D01*
X55198Y39646D01*
D02*
G37*
G36*
X48868Y39492D02*
Y39202D01*
X48843Y39177D01*
X48727D01*
X48568Y39292D01*
Y39401D01*
X48727Y39517D01*
X48843D01*
X48868Y39492D01*
D02*
G37*
G36*
X48320Y39401D02*
Y39292D01*
X48161Y39177D01*
X48045D01*
X48020Y39202D01*
Y39492D01*
X48045Y39517D01*
X48161D01*
X48320Y39401D01*
D02*
G37*
G36*
X45370Y39352D02*
Y39235D01*
X45254Y39077D01*
X45146D01*
X45030Y39235D01*
Y39352D01*
X45055Y39377D01*
X45345D01*
X45370Y39352D01*
D02*
G37*
G36*
X55755Y38845D02*
Y38555D01*
X55730Y38530D01*
X55532D01*
X55424Y38646D01*
Y38754D01*
X55532Y38870D01*
X55730D01*
X55755Y38845D01*
D02*
G37*
G36*
X55176Y38754D02*
Y38646D01*
X55068Y38530D01*
X54870D01*
X54845Y38555D01*
Y38845D01*
X54870Y38870D01*
X55068D01*
X55176Y38754D01*
D02*
G37*
G36*
X45370Y38670D02*
Y38554D01*
X45345Y38528D01*
X45055D01*
X45030Y38554D01*
Y38670D01*
X45146Y38829D01*
X45254D01*
X45370Y38670D01*
D02*
G37*
G36*
X48877Y38645D02*
Y38355D01*
X48852Y38330D01*
X48654D01*
X48546Y38446D01*
Y38554D01*
X48654Y38670D01*
X48852D01*
X48877Y38645D01*
D02*
G37*
G36*
X48298Y38554D02*
Y38446D01*
X48190Y38330D01*
X47992D01*
X47967Y38355D01*
Y38645D01*
X47992Y38670D01*
X48190D01*
X48298Y38554D01*
D02*
G37*
G36*
X55759Y37995D02*
Y37705D01*
X55734Y37680D01*
X55535D01*
X55427Y37796D01*
Y37904D01*
X55535Y38020D01*
X55734D01*
X55759Y37995D01*
D02*
G37*
G36*
X55179Y37904D02*
Y37796D01*
X55071Y37680D01*
X54873D01*
X54848Y37705D01*
Y37995D01*
X54873Y38020D01*
X55071D01*
X55179Y37904D01*
D02*
G37*
G36*
X45370Y37426D02*
Y37310D01*
X45254Y37151D01*
X45146D01*
X45030Y37310D01*
Y37426D01*
X45055Y37452D01*
X45345D01*
X45370Y37426D01*
D02*
G37*
G36*
Y36745D02*
Y36628D01*
X45345Y36603D01*
X45055D01*
X45030Y36628D01*
Y36745D01*
X45146Y36903D01*
X45254D01*
X45370Y36745D01*
D02*
G37*
G36*
X48455Y33145D02*
Y32855D01*
X48430Y32830D01*
X48232D01*
X48124Y32946D01*
Y33054D01*
X48232Y33170D01*
X48430D01*
X48455Y33145D01*
D02*
G37*
G36*
X47876Y33054D02*
Y32946D01*
X47768Y32830D01*
X47570D01*
X47545Y32855D01*
Y33145D01*
X47570Y33170D01*
X47768D01*
X47876Y33054D01*
D02*
G37*
G36*
X56022Y33097D02*
Y32807D01*
X55996Y32782D01*
X55880D01*
X55721Y32898D01*
Y33007D01*
X55880Y33122D01*
X55996D01*
X56022Y33097D01*
D02*
G37*
G36*
X55473Y33007D02*
Y32898D01*
X55315Y32782D01*
X55198D01*
X55173Y32807D01*
Y33097D01*
X55198Y33122D01*
X55315D01*
X55473Y33007D01*
D02*
G37*
G36*
X49802Y33095D02*
Y32805D01*
X49777Y32780D01*
X49661D01*
X49502Y32896D01*
Y33004D01*
X49661Y33120D01*
X49777D01*
X49802Y33095D01*
D02*
G37*
G36*
X49254Y33004D02*
Y32896D01*
X49095Y32780D01*
X48979D01*
X48954Y32805D01*
Y33095D01*
X48979Y33120D01*
X49095D01*
X49254Y33004D01*
D02*
G37*
G36*
X57505Y33045D02*
Y32755D01*
X57480Y32730D01*
X57282D01*
X57174Y32846D01*
Y32954D01*
X57282Y33070D01*
X57480D01*
X57505Y33045D01*
D02*
G37*
G36*
X56926Y32954D02*
Y32846D01*
X56818Y32730D01*
X56620D01*
X56595Y32755D01*
Y33045D01*
X56620Y33070D01*
X56818D01*
X56926Y32954D01*
D02*
G37*
G36*
X48455Y32357D02*
Y32068D01*
X48430Y32042D01*
X48232D01*
X48124Y32158D01*
Y32267D01*
X48232Y32383D01*
X48430D01*
X48455Y32357D01*
D02*
G37*
G36*
X47876Y32267D02*
Y32158D01*
X47768Y32042D01*
X47570D01*
X47545Y32068D01*
Y32357D01*
X47570Y32383D01*
X47768D01*
X47876Y32267D01*
D02*
G37*
G36*
X56022Y32325D02*
Y32035D01*
X55996Y32010D01*
X55880D01*
X55721Y32126D01*
Y32235D01*
X55880Y32350D01*
X55996D01*
X56022Y32325D01*
D02*
G37*
G36*
X55473Y32235D02*
Y32126D01*
X55315Y32010D01*
X55198D01*
X55173Y32035D01*
Y32325D01*
X55198Y32350D01*
X55315D01*
X55473Y32235D01*
D02*
G37*
G36*
X49802Y32323D02*
Y32033D01*
X49777Y32008D01*
X49661D01*
X49502Y32124D01*
Y32233D01*
X49661Y32348D01*
X49777D01*
X49802Y32323D01*
D02*
G37*
G36*
X49254Y32233D02*
Y32124D01*
X49095Y32008D01*
X48979D01*
X48954Y32033D01*
Y32323D01*
X48979Y32348D01*
X49095D01*
X49254Y32233D01*
D02*
G37*
G36*
X57496Y32299D02*
Y32009D01*
X57471Y31984D01*
X57355D01*
X57196Y32100D01*
Y32209D01*
X57355Y32324D01*
X57471D01*
X57496Y32299D01*
D02*
G37*
G36*
X56948Y32209D02*
Y32100D01*
X56789Y31984D01*
X56673D01*
X56648Y32009D01*
Y32299D01*
X56673Y32324D01*
X56789D01*
X56948Y32209D01*
D02*
G37*
G36*
X48424Y31611D02*
Y31322D01*
X48399Y31297D01*
X48283D01*
X48124Y31412D01*
Y31521D01*
X48283Y31637D01*
X48399D01*
X48424Y31611D01*
D02*
G37*
G36*
X47876Y31521D02*
Y31412D01*
X47717Y31297D01*
X47601D01*
X47576Y31322D01*
Y31611D01*
X47601Y31637D01*
X47717D01*
X47876Y31521D01*
D02*
G37*
G36*
X56022Y31553D02*
Y31264D01*
X55996Y31239D01*
X55880D01*
X55721Y31354D01*
Y31463D01*
X55880Y31579D01*
X55996D01*
X56022Y31553D01*
D02*
G37*
G36*
X55473Y31463D02*
Y31354D01*
X55315Y31239D01*
X55198D01*
X55173Y31264D01*
Y31553D01*
X55198Y31579D01*
X55315D01*
X55473Y31463D01*
D02*
G37*
G36*
X49802Y31551D02*
Y31262D01*
X49777Y31236D01*
X49661D01*
X49502Y31352D01*
Y31461D01*
X49661Y31577D01*
X49777D01*
X49802Y31551D01*
D02*
G37*
G36*
X49254Y31461D02*
Y31352D01*
X49095Y31236D01*
X48979D01*
X48954Y31262D01*
Y31551D01*
X48979Y31577D01*
X49095D01*
X49254Y31461D01*
D02*
G37*
G36*
X57505Y31470D02*
Y31180D01*
X57480Y31155D01*
X57282D01*
X57174Y31271D01*
Y31379D01*
X57282Y31495D01*
X57480D01*
X57505Y31470D01*
D02*
G37*
G36*
X56926Y31379D02*
Y31271D01*
X56818Y31155D01*
X56620D01*
X56595Y31180D01*
Y31470D01*
X56620Y31495D01*
X56818D01*
X56926Y31379D01*
D02*
G37*
G36*
X48455Y30782D02*
Y30493D01*
X48430Y30467D01*
X48232D01*
X48124Y30583D01*
Y30692D01*
X48232Y30808D01*
X48430D01*
X48455Y30782D01*
D02*
G37*
G36*
X47876Y30692D02*
Y30583D01*
X47768Y30467D01*
X47570D01*
X47545Y30493D01*
Y30782D01*
X47570Y30808D01*
X47768D01*
X47876Y30692D01*
D02*
G37*
G36*
X56022Y30782D02*
Y30492D01*
X55996Y30467D01*
X55880D01*
X55721Y30582D01*
Y30691D01*
X55880Y30807D01*
X55996D01*
X56022Y30782D01*
D02*
G37*
G36*
X55473Y30691D02*
Y30582D01*
X55315Y30467D01*
X55198D01*
X55173Y30492D01*
Y30782D01*
X55198Y30807D01*
X55315D01*
X55473Y30691D01*
D02*
G37*
G36*
X49802Y30780D02*
Y30490D01*
X49777Y30465D01*
X49661D01*
X49502Y30580D01*
Y30689D01*
X49661Y30805D01*
X49777D01*
X49802Y30780D01*
D02*
G37*
G36*
X49254Y30689D02*
Y30580D01*
X49095Y30465D01*
X48979D01*
X48954Y30490D01*
Y30780D01*
X48979Y30805D01*
X49095D01*
X49254Y30689D01*
D02*
G37*
G36*
X57505Y30682D02*
Y30393D01*
X57480Y30367D01*
X57282D01*
X57174Y30483D01*
Y30592D01*
X57282Y30708D01*
X57480D01*
X57505Y30682D01*
D02*
G37*
G36*
X56926Y30592D02*
Y30483D01*
X56818Y30367D01*
X56620D01*
X56595Y30393D01*
Y30682D01*
X56620Y30708D01*
X56818D01*
X56926Y30592D01*
D02*
G37*
G36*
X56005Y30045D02*
Y29755D01*
X55980Y29730D01*
X55782D01*
X55674Y29846D01*
Y29954D01*
X55782Y30070D01*
X55980D01*
X56005Y30045D01*
D02*
G37*
G36*
X55426Y29954D02*
Y29846D01*
X55318Y29730D01*
X55120D01*
X55095Y29755D01*
Y30045D01*
X55120Y30070D01*
X55318D01*
X55426Y29954D01*
D02*
G37*
G36*
X49805Y30045D02*
Y29755D01*
X49780Y29730D01*
X49582D01*
X49474Y29846D01*
Y29954D01*
X49582Y30070D01*
X49780D01*
X49805Y30045D01*
D02*
G37*
G36*
X49226Y29954D02*
Y29846D01*
X49118Y29730D01*
X48920D01*
X48895Y29755D01*
Y30045D01*
X48920Y30070D01*
X49118D01*
X49226Y29954D01*
D02*
G37*
G36*
X48455Y29995D02*
Y29705D01*
X48430Y29680D01*
X48232D01*
X48124Y29796D01*
Y29904D01*
X48232Y30020D01*
X48430D01*
X48455Y29995D01*
D02*
G37*
G36*
X47876Y29904D02*
Y29796D01*
X47768Y29680D01*
X47570D01*
X47545Y29705D01*
Y29995D01*
X47570Y30020D01*
X47768D01*
X47876Y29904D01*
D02*
G37*
G36*
X57505Y29895D02*
Y29605D01*
X57480Y29580D01*
X57282D01*
X57174Y29696D01*
Y29804D01*
X57282Y29920D01*
X57480D01*
X57505Y29895D01*
D02*
G37*
G36*
X56926Y29804D02*
Y29696D01*
X56818Y29580D01*
X56620D01*
X56595Y29605D01*
Y29895D01*
X56620Y29920D01*
X56818D01*
X56926Y29804D01*
D02*
G37*
G36*
X56024Y29345D02*
Y29055D01*
X55999Y29030D01*
X55883D01*
X55724Y29146D01*
Y29254D01*
X55883Y29370D01*
X55999D01*
X56024Y29345D01*
D02*
G37*
G36*
X55476Y29254D02*
Y29146D01*
X55317Y29030D01*
X55201D01*
X55176Y29055D01*
Y29345D01*
X55201Y29370D01*
X55317D01*
X55476Y29254D01*
D02*
G37*
G36*
X49774Y29195D02*
Y28905D01*
X49749Y28880D01*
X49633D01*
X49474Y28996D01*
Y29104D01*
X49633Y29220D01*
X49749D01*
X49774Y29195D01*
D02*
G37*
G36*
X49226Y29104D02*
Y28996D01*
X49067Y28880D01*
X48951D01*
X48926Y28905D01*
Y29195D01*
X48951Y29220D01*
X49067D01*
X49226Y29104D01*
D02*
G37*
D10*
X55030Y51110D02*
G03*
X55030Y51110I-230J0D01*
G01*
Y48750D02*
G03*
X55030Y48750I-230J0D01*
G01*
X49505D02*
G03*
X49505Y48750I-230J0D01*
G01*
Y51110D02*
G03*
X49505Y51110I-230J0D01*
G01*
X38170Y13853D02*
X39303D01*
X38170Y19456D02*
X39170Y19460D01*
X39800Y30930D02*
X41800D01*
X39770Y21060D02*
Y23460D01*
X39110D02*
X39770D01*
X39170Y21060D02*
X39770D01*
X40770D02*
Y23460D01*
X44110Y21060D02*
Y21860D01*
X42510Y21060D02*
Y21860D01*
X40770Y23460D02*
X42510D01*
X43820Y30130D02*
Y31030D01*
X41800Y30130D02*
Y30930D01*
X39800Y30130D02*
Y30930D01*
X37800Y30130D02*
Y31030D01*
X36310Y30130D02*
X37800D01*
X43820Y31030D02*
X45820D01*
X43820Y30130D02*
X45310D01*
X39800D02*
X41800D01*
X35800Y31030D02*
X37800D01*
X39303Y13853D02*
X44910Y19460D01*
X36570Y13853D02*
X38170D01*
X36570D02*
Y15453D01*
Y17053D02*
Y18653D01*
Y15453D02*
X38170D01*
X36570Y17053D02*
X38170D01*
X36570Y18653D02*
X38170D01*
Y15453D02*
Y17053D01*
Y18653D02*
Y19453D01*
X39170Y19460D02*
Y21060D01*
X40770Y19460D02*
Y21060D01*
Y19460D02*
X42510D01*
X44110D02*
X44910D01*
X42510D02*
Y21060D01*
X44110Y19460D02*
Y21060D01*
X37510Y21860D02*
X39110D01*
X44110D02*
Y23460D01*
X42510Y21860D02*
Y23460D01*
X37510Y21860D02*
Y23460D01*
X39110Y21860D02*
Y23460D01*
X44110D02*
X45310D01*
X36310D02*
X37510D01*
X36310D02*
Y30130D01*
X45310Y23460D02*
Y30130D01*
X45820Y19220D02*
Y31030D01*
X35800Y19220D02*
Y31030D01*
X45820Y19220D02*
X47920D01*
X33700D02*
X35800D01*
X47920Y17620D02*
Y19220D01*
X33700Y17620D02*
Y19220D01*
X47920Y17620D02*
X59120D01*
X22500D02*
X33700D01*
X22500D02*
Y53120D01*
X59120D01*
Y17620D02*
Y53120D01*
D19*
X56175Y51660D02*
D03*
X53425Y51260D02*
D03*
X56175Y50240D02*
D03*
Y47840D02*
D03*
X53425Y48510D02*
D03*
X47900D02*
D03*
X50650Y47840D02*
D03*
Y50240D02*
D03*
X47900Y51260D02*
D03*
X50650Y51660D02*
D03*
D20*
X42060Y29300D02*
D03*
X39500D02*
D03*
X40960D02*
D03*
X42060Y24560D02*
D03*
X39500D02*
D03*
X40960D02*
D03*
D21*
X27832Y47623D02*
D03*
X26668D02*
D03*
D22*
X28650Y49676D02*
D03*
Y49124D02*
D03*
X40750Y38677D02*
D03*
Y39228D02*
D03*
X27300Y38674D02*
D03*
Y39226D02*
D03*
X45200Y38677D02*
D03*
Y39228D02*
D03*
X42048Y43126D02*
D03*
Y42574D02*
D03*
X43084Y43126D02*
D03*
Y42574D02*
D03*
X36150Y39176D02*
D03*
Y38624D02*
D03*
X27220Y46350D02*
D03*
Y45799D02*
D03*
X28080Y46350D02*
D03*
Y45799D02*
D03*
X28940Y46350D02*
D03*
Y45799D02*
D03*
X29800Y46350D02*
D03*
Y45799D02*
D03*
X33200Y45150D02*
D03*
Y44599D02*
D03*
X32450Y45150D02*
D03*
Y44599D02*
D03*
X40750Y37303D02*
D03*
Y36752D02*
D03*
X26360Y46350D02*
D03*
Y45799D02*
D03*
X25500Y46350D02*
D03*
Y45799D02*
D03*
X31850Y38677D02*
D03*
Y39228D02*
D03*
Y37303D02*
D03*
Y36752D02*
D03*
X42400Y51224D02*
D03*
Y51776D02*
D03*
X45250Y48176D02*
D03*
Y47624D02*
D03*
X27300Y37303D02*
D03*
Y36752D02*
D03*
X45200Y37303D02*
D03*
Y36752D02*
D03*
X45157Y43126D02*
D03*
Y42574D02*
D03*
X44121Y43126D02*
D03*
Y42574D02*
D03*
D23*
X29976Y49150D02*
D03*
X29424D02*
D03*
X29976Y48400D02*
D03*
X29424D02*
D03*
X24046Y50052D02*
D03*
X24598D02*
D03*
X55597Y39592D02*
D03*
X55046D02*
D03*
X55096Y44292D02*
D03*
X55647D02*
D03*
X48168Y39347D02*
D03*
X48719D02*
D03*
X48726Y40150D02*
D03*
X48174D02*
D03*
X48168Y43672D02*
D03*
X48719D02*
D03*
X48726Y44450D02*
D03*
X48174D02*
D03*
X29426Y31050D02*
D03*
X28874D02*
D03*
X49102Y31406D02*
D03*
X49654D02*
D03*
X49102Y30635D02*
D03*
X49654D02*
D03*
X55873Y31409D02*
D03*
X55322D02*
D03*
X55873Y30637D02*
D03*
X55322D02*
D03*
X55873Y32180D02*
D03*
X55322D02*
D03*
X55873Y32952D02*
D03*
X55322D02*
D03*
X49102Y32950D02*
D03*
X49654D02*
D03*
X49102Y32178D02*
D03*
X49654D02*
D03*
X55324Y29200D02*
D03*
X55876D02*
D03*
X57347Y32154D02*
D03*
X56796D02*
D03*
X49626Y29050D02*
D03*
X49074D02*
D03*
X48276Y31467D02*
D03*
X47724D02*
D03*
D24*
X24053Y51550D02*
D03*
X24647D02*
D03*
X24053Y50780D02*
D03*
X24647D02*
D03*
X24597Y49250D02*
D03*
X24003D02*
D03*
X55600Y37850D02*
D03*
X55007D02*
D03*
X55597Y38700D02*
D03*
X55003D02*
D03*
Y40400D02*
D03*
X55597D02*
D03*
X55053Y42750D02*
D03*
X55647D02*
D03*
Y43500D02*
D03*
X55053D02*
D03*
Y45000D02*
D03*
X55647D02*
D03*
X48125Y38500D02*
D03*
X48719D02*
D03*
X48125Y42850D02*
D03*
X48719D02*
D03*
X30947Y29450D02*
D03*
X30353D02*
D03*
X30947Y31050D02*
D03*
X30353D02*
D03*
X28853Y29400D02*
D03*
X29447D02*
D03*
X24597Y48500D02*
D03*
X24003D02*
D03*
X26093Y44650D02*
D03*
X25500D02*
D03*
X26093Y43925D02*
D03*
X25500D02*
D03*
X24000Y47800D02*
D03*
X24593D02*
D03*
X26093Y43200D02*
D03*
X25500D02*
D03*
X56753Y32900D02*
D03*
X57347D02*
D03*
X47703Y33000D02*
D03*
X48297D02*
D03*
X56753Y31325D02*
D03*
X57347D02*
D03*
X47703Y32213D02*
D03*
X48297D02*
D03*
X55847Y29900D02*
D03*
X55253D02*
D03*
X49053D02*
D03*
X49647D02*
D03*
X47703Y30638D02*
D03*
X48297D02*
D03*
X57347Y30538D02*
D03*
X56753D02*
D03*
X48297Y29850D02*
D03*
X47703D02*
D03*
X56753Y29750D02*
D03*
X57347D02*
D03*
D25*
X53770Y37000D02*
D03*
Y37500D02*
D03*
Y38000D02*
D03*
Y38500D02*
D03*
Y39000D02*
D03*
Y39500D02*
D03*
Y40000D02*
D03*
Y40500D02*
D03*
X50030Y37000D02*
D03*
Y37500D02*
D03*
Y38000D02*
D03*
Y38500D02*
D03*
Y39000D02*
D03*
Y39500D02*
D03*
Y40000D02*
D03*
Y40500D02*
D03*
X53770Y41800D02*
D03*
Y42300D02*
D03*
Y42800D02*
D03*
Y43300D02*
D03*
Y43800D02*
D03*
Y44300D02*
D03*
Y44800D02*
D03*
Y45300D02*
D03*
X50030Y41800D02*
D03*
Y42300D02*
D03*
Y42800D02*
D03*
Y43300D02*
D03*
Y43800D02*
D03*
Y44300D02*
D03*
Y44800D02*
D03*
Y45300D02*
D03*
D26*
X36358Y47865D02*
D03*
X37342Y47864D02*
D03*
X38130D02*
D03*
X39114D02*
D03*
D27*
X40687Y48888D02*
D03*
X34781Y48888D02*
D03*
D28*
X28850Y52350D02*
D03*
X28250D02*
D03*
X27000D02*
D03*
X27600D02*
D03*
X25700D02*
D03*
X26300D02*
D03*
X24400D02*
D03*
X25000D02*
D03*
D29*
X27600Y31066D02*
D03*
Y29334D02*
D03*
X42300Y46066D02*
D03*
Y44334D02*
D03*
X43607D02*
D03*
Y46066D02*
D03*
X44900D02*
D03*
Y44334D02*
D03*
D30*
X25300Y39130D02*
D03*
Y37070D02*
D03*
X34175D02*
D03*
Y39130D02*
D03*
X30650Y34680D02*
D03*
Y32620D02*
D03*
X26850Y34680D02*
D03*
Y32620D02*
D03*
X38612Y37070D02*
D03*
Y39130D02*
D03*
X29738Y37070D02*
D03*
Y39130D02*
D03*
X43050D02*
D03*
Y37070D02*
D03*
D31*
X27050Y49800D02*
D03*
D32*
X26558Y50631D02*
D03*
X26755D02*
D03*
X26952D02*
D03*
X27148D02*
D03*
X27345D02*
D03*
X27542D02*
D03*
Y48969D02*
D03*
X27345D02*
D03*
X27148D02*
D03*
X26952D02*
D03*
X26755D02*
D03*
X26558D02*
D03*
D33*
X27881Y50292D02*
D03*
Y50095D02*
D03*
Y49898D02*
D03*
Y49702D02*
D03*
Y49505D02*
D03*
Y49308D02*
D03*
X26219D02*
D03*
Y49505D02*
D03*
Y49702D02*
D03*
Y49898D02*
D03*
Y50095D02*
D03*
Y50292D02*
D03*
D34*
X32550Y34847D02*
D03*
Y34253D02*
D03*
X28700Y34793D02*
D03*
Y34200D02*
D03*
X31750Y44578D02*
D03*
Y45171D02*
D03*
X37600Y43903D02*
D03*
Y44497D02*
D03*
D35*
X31950Y48452D02*
D03*
Y46248D02*
D03*
X43250Y50152D02*
D03*
Y47948D02*
D03*
D36*
X32710Y50161D02*
D03*
X30190D02*
D03*
X32395D02*
D03*
X30505D02*
D03*
D37*
X32139D02*
D03*
X31942D02*
D03*
X31745D02*
D03*
X31155D02*
D03*
X30958D02*
D03*
X30761D02*
D03*
X31548D02*
D03*
X31352D02*
D03*
D38*
X36330Y45450D02*
D03*
X34270D02*
D03*
D39*
X27022Y43900D02*
D03*
X29778D02*
D03*
D40*
X43176Y51149D02*
D03*
X43550D02*
D03*
X43924D02*
D03*
Y52251D02*
D03*
X43550D02*
D03*
X43176D02*
D03*
D41*
X52500Y30700D02*
D03*
D42*
X54350Y32950D02*
D03*
Y32450D02*
D03*
Y31950D02*
D03*
Y31450D02*
D03*
Y30950D02*
D03*
Y30450D02*
D03*
Y29950D02*
D03*
Y29450D02*
D03*
Y28950D02*
D03*
Y28450D02*
D03*
X50650Y28450D02*
D03*
Y28950D02*
D03*
Y29450D02*
D03*
Y29950D02*
D03*
Y30450D02*
D03*
Y30950D02*
D03*
Y31450D02*
D03*
Y31950D02*
D03*
Y32450D02*
D03*
Y32950D02*
D03*
M02*
