G04*
G04 #@! TF.GenerationSoftware,Altium Limited,Altium Designer,20.2.6 (244)*
G04*
G04 Layer_Color=8388736*
%FSLAX24Y24*%
%MOIN*%
G70*
G04*
G04 #@! TF.SameCoordinates,F8AEF4A7-C5AA-40DC-9DAC-891B57281ED6*
G04*
G04*
G04 #@! TF.FilePolarity,Positive*
G04*
G01*
G75*
%ADD139C,0.0024*%
D139*
X28504Y49715D02*
G03*
X28504Y49715I-12J0D01*
G01*
X30027Y49307D02*
G03*
X30027Y49307I-12J0D01*
G01*
Y48558D02*
G03*
X30027Y48558I-12J0D01*
G01*
X24047Y51392D02*
G03*
X24047Y51392I-12J0D01*
G01*
Y50623D02*
G03*
X24047Y50623I-12J0D01*
G01*
X24649Y50209D02*
G03*
X24649Y50209I-12J0D01*
G01*
X24627Y49408D02*
G03*
X24627Y49408I-12J0D01*
G01*
X55000Y37692D02*
G03*
X55000Y37692I-12J0D01*
G01*
X54997Y38542D02*
G03*
X54997Y38542I-12J0D01*
G01*
X55649Y39749D02*
G03*
X55649Y39749I-12J0D01*
G01*
X55627Y40557D02*
G03*
X55627Y40557I-12J0D01*
G01*
X55047Y42593D02*
G03*
X55047Y42593I-12J0D01*
G01*
Y43342D02*
G03*
X55047Y43342I-12J0D01*
G01*
X55699Y44449D02*
G03*
X55699Y44449I-12J0D01*
G01*
X55677Y45157D02*
G03*
X55677Y45157I-12J0D01*
G01*
X48119Y38342D02*
G03*
X48119Y38342I-12J0D01*
G01*
X48771Y39504D02*
G03*
X48771Y39504I-12J0D01*
G01*
X48147Y39992D02*
G03*
X48147Y39992I-12J0D01*
G01*
X48119Y42692D02*
G03*
X48119Y42692I-12J0D01*
G01*
X48771Y43829D02*
G03*
X48771Y43829I-12J0D01*
G01*
X48147Y44292D02*
G03*
X48147Y44292I-12J0D01*
G01*
X28869Y33915D02*
G03*
X28869Y33915I-12J0D01*
G01*
X31819D02*
G03*
X31819Y33915I-12J0D01*
G01*
X29504Y30935D02*
G03*
X29504Y30935I-12J0D01*
G01*
X32754D02*
G03*
X32754Y30935I-12J0D01*
G01*
X28069Y29315D02*
G03*
X28069Y29315I-12J0D01*
G01*
X31169D02*
G03*
X31169Y29315I-12J0D01*
G01*
X24619Y26037D02*
G03*
X24619Y26037I-12J0D01*
G01*
X25926Y26065D02*
G03*
X25926Y26065I-12J0D01*
G01*
X27275D02*
G03*
X27275Y26065I-12J0D01*
G01*
X28623D02*
G03*
X28623Y26065I-12J0D01*
G01*
X29657Y25435D02*
G03*
X29657Y25435I-12J0D01*
G01*
X31006D02*
G03*
X31006Y25435I-12J0D01*
G01*
X32354D02*
G03*
X32354Y25435I-12J0D01*
G01*
X49419Y26087D02*
G03*
X49419Y26087I-12J0D01*
G01*
X50125Y25485D02*
G03*
X50125Y25485I-12J0D01*
G01*
X51503Y26115D02*
G03*
X51503Y26115I-12J0D01*
G01*
X52565D02*
G03*
X52565Y26115I-12J0D01*
G01*
X53627D02*
G03*
X53627Y26115I-12J0D01*
G01*
X54375Y25485D02*
G03*
X54375Y25485I-12J0D01*
G01*
X55437D02*
G03*
X55437Y25485I-12J0D01*
G01*
X48769Y32065D02*
G03*
X48769Y32065I-12J0D01*
G01*
X49208Y31435D02*
G03*
X49208Y31435I-12J0D01*
G01*
X50319Y32065D02*
G03*
X50319Y32065I-12J0D01*
G01*
Y33565D02*
G03*
X50319Y33565I-12J0D01*
G01*
X48769Y35008D02*
G03*
X48769Y35008I-12J0D01*
G01*
X49524D02*
G03*
X49524Y35008I-12J0D01*
G01*
X50319Y34980D02*
G03*
X50319Y34980I-12J0D01*
G01*
X55119Y32003D02*
G03*
X55119Y32003I-12J0D01*
G01*
X55949Y31981D02*
G03*
X55949Y31981I-12J0D01*
G01*
X56819D02*
G03*
X56819Y31981I-12J0D01*
G01*
X54754Y32859D02*
G03*
X54754Y32859I-12J0D01*
G01*
X54802Y34356D02*
G03*
X54802Y34356I-12J0D01*
G01*
X55949Y35008D02*
G03*
X55949Y35008I-12J0D01*
G01*
X56504Y34378D02*
G03*
X56504Y34378I-12J0D01*
G01*
X30754Y33291D02*
G03*
X30754Y33291I-12J0D01*
G01*
X28847Y30893D02*
G03*
X28847Y30893I-12J0D01*
G01*
X30977Y29608D02*
G03*
X30977Y29608I-12J0D01*
G01*
Y31207D02*
G03*
X30977Y31207I-12J0D01*
G01*
X28847Y29242D02*
G03*
X28847Y29242I-12J0D01*
G01*
X27754Y33291D02*
G03*
X27754Y33291I-12J0D01*
G01*
X40919Y38638D02*
G03*
X40919Y38638I-12J0D01*
G01*
X27469Y38635D02*
G03*
X27469Y38635I-12J0D01*
G01*
X45369Y38638D02*
G03*
X45369Y38638I-12J0D01*
G01*
X41902Y43165D02*
G03*
X41902Y43165I-12J0D01*
G01*
X42939D02*
G03*
X42939Y43165I-12J0D01*
G01*
X36004Y39215D02*
G03*
X36004Y39215I-12J0D01*
G01*
X32719Y34235D02*
G03*
X32719Y34235I-12J0D01*
G01*
X28869Y34182D02*
G03*
X28869Y34182I-12J0D01*
G01*
X27074Y46389D02*
G03*
X27074Y46389I-12J0D01*
G01*
X27934D02*
G03*
X27934Y46389I-12J0D01*
G01*
X28794D02*
G03*
X28794Y46389I-12J0D01*
G01*
X29654D02*
G03*
X29654Y46389I-12J0D01*
G01*
X23997Y48342D02*
G03*
X23997Y48342I-12J0D01*
G01*
X25493Y44493D02*
G03*
X25493Y44493I-12J0D01*
G01*
Y43767D02*
G03*
X25493Y43767I-12J0D01*
G01*
X33054Y45189D02*
G03*
X33054Y45189I-12J0D01*
G01*
X32304D02*
G03*
X32304Y45189I-12J0D01*
G01*
X24623Y47958D02*
G03*
X24623Y47958I-12J0D01*
G01*
X25493Y43042D02*
G03*
X25493Y43042I-12J0D01*
G01*
X40604Y37342D02*
G03*
X40604Y37342I-12J0D01*
G01*
X26214Y46389D02*
G03*
X26214Y46389I-12J0D01*
G01*
X25354D02*
G03*
X25354Y46389I-12J0D01*
G01*
X32019Y38638D02*
G03*
X32019Y38638I-12J0D01*
G01*
X31704Y37342D02*
G03*
X31704Y37342I-12J0D01*
G01*
X42569Y51185D02*
G03*
X42569Y51185I-12J0D01*
G01*
X45104Y48215D02*
G03*
X45104Y48215I-12J0D01*
G01*
X31604Y45190D02*
G03*
X31604Y45190I-12J0D01*
G01*
X27154Y37342D02*
G03*
X27154Y37342I-12J0D01*
G01*
X37454Y44515D02*
G03*
X37454Y44515I-12J0D01*
G01*
X45054Y37342D02*
G03*
X45054Y37342I-12J0D01*
G01*
X45011Y43165D02*
G03*
X45011Y43165I-12J0D01*
G01*
X43975D02*
G03*
X43975Y43165I-12J0D01*
G01*
X49075Y31249D02*
G03*
X49075Y31249I-12J0D01*
G01*
Y30477D02*
G03*
X49075Y30477I-12J0D01*
G01*
X55924Y31566D02*
G03*
X55924Y31566I-12J0D01*
G01*
Y30794D02*
G03*
X55924Y30794I-12J0D01*
G01*
Y32338D02*
G03*
X55924Y32338I-12J0D01*
G01*
Y33110D02*
G03*
X55924Y33110I-12J0D01*
G01*
X49075Y32792D02*
G03*
X49075Y32792I-12J0D01*
G01*
Y32021D02*
G03*
X49075Y32021I-12J0D01*
G01*
X57377Y33057D02*
G03*
X57377Y33057I-12J0D01*
G01*
X48327Y33157D02*
G03*
X48327Y33157I-12J0D01*
G01*
X57377Y31483D02*
G03*
X57377Y31483I-12J0D01*
G01*
X48327Y32370D02*
G03*
X48327Y32370I-12J0D01*
G01*
X55247Y29743D02*
G03*
X55247Y29743I-12J0D01*
G01*
X49677Y30057D02*
G03*
X49677Y30057I-12J0D01*
G01*
X48327Y30795D02*
G03*
X48327Y30795I-12J0D01*
G01*
X56747Y30380D02*
G03*
X56747Y30380I-12J0D01*
G01*
X47697Y29692D02*
G03*
X47697Y29692I-12J0D01*
G01*
X57377Y29908D02*
G03*
X57377Y29908I-12J0D01*
G01*
X55297Y29042D02*
G03*
X55297Y29042I-12J0D01*
G01*
X57399Y32312D02*
G03*
X57399Y32312I-12J0D01*
G01*
X49677Y29207D02*
G03*
X49677Y29207I-12J0D01*
G01*
X48327Y31624D02*
G03*
X48327Y31624I-12J0D01*
G01*
M02*
