G04*
G04 #@! TF.GenerationSoftware,Altium Limited,Altium Designer,20.2.6 (244)*
G04*
G04 Layer_Color=16711935*
%FSLAX24Y24*%
%MOIN*%
G70*
G04*
G04 #@! TF.SameCoordinates,F8AEF4A7-C5AA-40DC-9DAC-891B57281ED6*
G04*
G04*
G04 #@! TF.FilePolarity,Positive*
G04*
G01*
G75*
%ADD10C,0.0100*%
D10*
X55030Y51110D02*
G03*
X55030Y51110I-230J0D01*
G01*
Y48750D02*
G03*
X55030Y48750I-230J0D01*
G01*
X49505D02*
G03*
X49505Y48750I-230J0D01*
G01*
Y51110D02*
G03*
X49505Y51110I-230J0D01*
G01*
X39960Y31010D02*
X41650D01*
X41660Y31000D01*
Y29830D02*
Y31000D01*
X39960Y29830D02*
Y31010D01*
X43260Y29830D02*
Y31010D01*
X43280Y31030D01*
X43550D01*
X38250D02*
X38340D01*
X38360Y31010D01*
Y29830D02*
Y31010D01*
X43550Y31030D02*
X45820D01*
X35800D02*
X38250D01*
X41660Y28230D02*
Y29830D01*
X43260Y28230D02*
Y29830D01*
X36660Y21830D02*
Y28230D01*
X44960Y21830D02*
Y28230D01*
X36660D02*
X38360D01*
X39960D02*
X41660D01*
X43260D02*
X44960D01*
X38360D02*
Y29830D01*
X39960Y28230D02*
Y29830D01*
X36660Y21830D02*
X44960D01*
X45820Y19220D02*
Y31030D01*
X35800Y19220D02*
Y31030D01*
X45820Y19220D02*
X47920D01*
X33700D02*
X35800D01*
X47920Y17620D02*
Y19220D01*
X33700Y17620D02*
Y19220D01*
X47920Y17620D02*
X59120D01*
X22500D02*
X33700D01*
X22500D02*
Y53120D01*
X59120D01*
Y17620D02*
Y53120D01*
M02*
