G04*
G04 #@! TF.GenerationSoftware,Altium Limited,Altium Designer,20.2.6 (244)*
G04*
G04 Layer_Color=128*
%FSLAX24Y24*%
%MOIN*%
G70*
G04*
G04 #@! TF.SameCoordinates,939C5B67-7932-4E13-932B-422522EE1AF6*
G04*
G04*
G04 #@! TF.FilePolarity,Positive*
G04*
G01*
G75*
%ADD10C,0.0100*%
%ADD22R,0.0354X0.0315*%
%ADD28R,0.0320X0.0320*%
%ADD34R,0.0340X0.0318*%
%ADD136O,0.0248X0.0734*%
%ADD137O,0.0776X0.0237*%
G36*
X56820Y35123D02*
Y34925D01*
X56704Y34817D01*
X56596D01*
X56480Y34925D01*
Y35123D01*
X56505Y35148D01*
X56795D01*
X56820Y35123D01*
D02*
G37*
G36*
X55949D02*
Y34925D01*
X55834Y34817D01*
X55725D01*
X55609Y34925D01*
Y35123D01*
X55634Y35148D01*
X55924D01*
X55949Y35123D01*
D02*
G37*
G36*
X49524D02*
Y34925D01*
X49409Y34817D01*
X49300D01*
X49184Y34925D01*
Y35123D01*
X49209Y35148D01*
X49499D01*
X49524Y35123D01*
D02*
G37*
G36*
X48770D02*
Y34925D01*
X48654Y34817D01*
X48546D01*
X48430Y34925D01*
Y35123D01*
X48455Y35148D01*
X48745D01*
X48770Y35123D01*
D02*
G37*
G36*
X55118Y35070D02*
Y34954D01*
X55002Y34795D01*
X54893D01*
X54778Y34954D01*
Y35070D01*
X54803Y35095D01*
X55093D01*
X55118Y35070D01*
D02*
G37*
G36*
X50320Y35064D02*
Y34947D01*
X50204Y34789D01*
X50096D01*
X49980Y34947D01*
Y35064D01*
X50005Y35089D01*
X50295D01*
X50320Y35064D01*
D02*
G37*
G36*
X55118Y34388D02*
Y34272D01*
X55093Y34247D01*
X54803D01*
X54778Y34272D01*
Y34388D01*
X54893Y34547D01*
X55002D01*
X55118Y34388D01*
D02*
G37*
G36*
X50320Y34382D02*
Y34266D01*
X50295Y34240D01*
X50005D01*
X49980Y34266D01*
Y34382D01*
X50096Y34541D01*
X50204D01*
X50320Y34382D01*
D02*
G37*
G36*
X56820Y34461D02*
Y34263D01*
X56795Y34238D01*
X56505D01*
X56480Y34263D01*
Y34461D01*
X56596Y34569D01*
X56704D01*
X56820Y34461D01*
D02*
G37*
G36*
X55949D02*
Y34263D01*
X55924Y34238D01*
X55634D01*
X55609Y34263D01*
Y34461D01*
X55725Y34569D01*
X55834D01*
X55949Y34461D01*
D02*
G37*
G36*
X49524D02*
Y34263D01*
X49499Y34238D01*
X49209D01*
X49184Y34263D01*
Y34461D01*
X49300Y34569D01*
X49409D01*
X49524Y34461D01*
D02*
G37*
G36*
X48770D02*
Y34263D01*
X48745Y34238D01*
X48455D01*
X48430Y34263D01*
Y34461D01*
X48546Y34569D01*
X48654D01*
X48770Y34461D01*
D02*
G37*
G36*
X31070Y34005D02*
Y33889D01*
X30954Y33730D01*
X30846D01*
X30730Y33889D01*
Y34005D01*
X30755Y34030D01*
X31045D01*
X31070Y34005D01*
D02*
G37*
G36*
X28070D02*
Y33889D01*
X27954Y33730D01*
X27846D01*
X27730Y33889D01*
Y34005D01*
X27755Y34030D01*
X28045D01*
X28070Y34005D01*
D02*
G37*
G36*
X31820Y33999D02*
Y33883D01*
X31704Y33724D01*
X31596D01*
X31480Y33883D01*
Y33999D01*
X31505Y34024D01*
X31795D01*
X31820Y33999D01*
D02*
G37*
G36*
X28870D02*
Y33883D01*
X28754Y33724D01*
X28646D01*
X28530Y33883D01*
Y33999D01*
X28555Y34024D01*
X28845D01*
X28870Y33999D01*
D02*
G37*
G36*
X50320Y33649D02*
Y33533D01*
X50204Y33374D01*
X50096D01*
X49980Y33533D01*
Y33649D01*
X50005Y33674D01*
X50295D01*
X50320Y33649D01*
D02*
G37*
G36*
X55070Y33574D02*
Y33457D01*
X54954Y33298D01*
X54846D01*
X54730Y33457D01*
Y33574D01*
X54755Y33599D01*
X55045D01*
X55070Y33574D01*
D02*
G37*
G36*
X31070Y33323D02*
Y33207D01*
X31045Y33182D01*
X30755D01*
X30730Y33207D01*
Y33323D01*
X30846Y33482D01*
X30954D01*
X31070Y33323D01*
D02*
G37*
G36*
X28070D02*
Y33207D01*
X28045Y33182D01*
X27755D01*
X27730Y33207D01*
Y33323D01*
X27846Y33482D01*
X27954D01*
X28070Y33323D01*
D02*
G37*
G36*
X31820Y33317D02*
Y33201D01*
X31795Y33176D01*
X31505D01*
X31480Y33201D01*
Y33317D01*
X31596Y33476D01*
X31704D01*
X31820Y33317D01*
D02*
G37*
G36*
X28870D02*
Y33201D01*
X28845Y33176D01*
X28555D01*
X28530Y33201D01*
Y33317D01*
X28646Y33476D01*
X28754D01*
X28870Y33317D01*
D02*
G37*
G36*
X50320Y32967D02*
Y32851D01*
X50295Y32826D01*
X50005D01*
X49980Y32851D01*
Y32967D01*
X50096Y33126D01*
X50204D01*
X50320Y32967D01*
D02*
G37*
G36*
X55070Y32892D02*
Y32775D01*
X55045Y32750D01*
X54755D01*
X54730Y32775D01*
Y32892D01*
X54846Y33050D01*
X54954D01*
X55070Y32892D01*
D02*
G37*
G36*
X50320Y32149D02*
Y32033D01*
X50204Y31874D01*
X50096D01*
X49980Y32033D01*
Y32149D01*
X50005Y32174D01*
X50295D01*
X50320Y32149D01*
D02*
G37*
G36*
X49524Y32180D02*
Y31982D01*
X49409Y31874D01*
X49300D01*
X49184Y31982D01*
Y32180D01*
X49209Y32205D01*
X49499D01*
X49524Y32180D01*
D02*
G37*
G36*
X48770D02*
Y31982D01*
X48654Y31874D01*
X48546D01*
X48430Y31982D01*
Y32180D01*
X48455Y32205D01*
X48745D01*
X48770Y32180D01*
D02*
G37*
G36*
X55120Y32088D02*
Y31971D01*
X55004Y31812D01*
X54896D01*
X54780Y31971D01*
Y32088D01*
X54805Y32113D01*
X55095D01*
X55120Y32088D01*
D02*
G37*
G36*
X56820Y32097D02*
Y31898D01*
X56704Y31791D01*
X56596D01*
X56480Y31898D01*
Y32097D01*
X56505Y32122D01*
X56795D01*
X56820Y32097D01*
D02*
G37*
G36*
X55949D02*
Y31898D01*
X55834Y31791D01*
X55725D01*
X55609Y31898D01*
Y32097D01*
X55634Y32122D01*
X55924D01*
X55949Y32097D01*
D02*
G37*
G36*
X33070Y31649D02*
Y31533D01*
X32954Y31374D01*
X32846D01*
X32730Y31533D01*
Y31649D01*
X32755Y31674D01*
X33045D01*
X33070Y31649D01*
D02*
G37*
G36*
X29820D02*
Y31533D01*
X29704Y31374D01*
X29596D01*
X29480Y31533D01*
Y31649D01*
X29505Y31674D01*
X29795D01*
X29820Y31649D01*
D02*
G37*
G36*
X50320Y31467D02*
Y31351D01*
X50295Y31326D01*
X50005D01*
X49980Y31351D01*
Y31467D01*
X50096Y31626D01*
X50204D01*
X50320Y31467D01*
D02*
G37*
G36*
X49524Y31518D02*
Y31320D01*
X49499Y31295D01*
X49209D01*
X49184Y31320D01*
Y31518D01*
X49300Y31626D01*
X49409D01*
X49524Y31518D01*
D02*
G37*
G36*
X48770D02*
Y31320D01*
X48745Y31295D01*
X48455D01*
X48430Y31320D01*
Y31518D01*
X48546Y31626D01*
X48654D01*
X48770Y31518D01*
D02*
G37*
G36*
X55120Y31406D02*
Y31289D01*
X55095Y31264D01*
X54805D01*
X54780Y31289D01*
Y31406D01*
X54896Y31564D01*
X55004D01*
X55120Y31406D01*
D02*
G37*
G36*
X56820Y31435D02*
Y31236D01*
X56795Y31211D01*
X56505D01*
X56480Y31236D01*
Y31435D01*
X56596Y31542D01*
X56704D01*
X56820Y31435D01*
D02*
G37*
G36*
X55949D02*
Y31236D01*
X55924Y31211D01*
X55634D01*
X55609Y31236D01*
Y31435D01*
X55725Y31542D01*
X55834D01*
X55949Y31435D01*
D02*
G37*
G36*
X33070Y30967D02*
Y30851D01*
X33045Y30826D01*
X32755D01*
X32730Y30851D01*
Y30967D01*
X32846Y31126D01*
X32954D01*
X33070Y30967D01*
D02*
G37*
G36*
X29820D02*
Y30851D01*
X29795Y30826D01*
X29505D01*
X29480Y30851D01*
Y30967D01*
X29596Y31126D01*
X29704D01*
X29820Y30967D01*
D02*
G37*
G36*
X31170Y29430D02*
Y29232D01*
X31054Y29124D01*
X30946D01*
X30830Y29232D01*
Y29430D01*
X30855Y29455D01*
X31145D01*
X31170Y29430D01*
D02*
G37*
G36*
X28070D02*
Y29232D01*
X27954Y29124D01*
X27846D01*
X27730Y29232D01*
Y29430D01*
X27755Y29455D01*
X28045D01*
X28070Y29430D01*
D02*
G37*
G36*
X31170Y28768D02*
Y28570D01*
X31145Y28545D01*
X30855D01*
X30830Y28570D01*
Y28768D01*
X30946Y28876D01*
X31054D01*
X31170Y28768D01*
D02*
G37*
G36*
X28070D02*
Y28570D01*
X28045Y28545D01*
X27755D01*
X27730Y28570D01*
Y28768D01*
X27846Y28876D01*
X27954D01*
X28070Y28768D01*
D02*
G37*
G36*
X55753Y26230D02*
Y26032D01*
X55637Y25924D01*
X55528D01*
X55413Y26032D01*
Y26230D01*
X55438Y26255D01*
X55728D01*
X55753Y26230D01*
D02*
G37*
G36*
X54691D02*
Y26032D01*
X54575Y25924D01*
X54466D01*
X54350Y26032D01*
Y26230D01*
X54376Y26255D01*
X54665D01*
X54691Y26230D01*
D02*
G37*
G36*
X53628D02*
Y26032D01*
X53512Y25924D01*
X53404D01*
X53288Y26032D01*
Y26230D01*
X53313Y26255D01*
X53603D01*
X53628Y26230D01*
D02*
G37*
G36*
X52566D02*
Y26032D01*
X52450Y25924D01*
X52341D01*
X52226Y26032D01*
Y26230D01*
X52251Y26255D01*
X52541D01*
X52566Y26230D01*
D02*
G37*
G36*
X51503D02*
Y26032D01*
X51388Y25924D01*
X51279D01*
X51163Y26032D01*
Y26230D01*
X51188Y26255D01*
X51478D01*
X51503Y26230D01*
D02*
G37*
G36*
X50441D02*
Y26032D01*
X50325Y25924D01*
X50216D01*
X50101Y26032D01*
Y26230D01*
X50126Y26255D01*
X50416D01*
X50441Y26230D01*
D02*
G37*
G36*
X49420Y26171D02*
Y26055D01*
X49304Y25896D01*
X49196D01*
X49080Y26055D01*
Y26171D01*
X49105Y26196D01*
X49395D01*
X49420Y26171D01*
D02*
G37*
G36*
X32670Y26180D02*
Y25982D01*
X32554Y25874D01*
X32446D01*
X32330Y25982D01*
Y26180D01*
X32355Y26205D01*
X32645D01*
X32670Y26180D01*
D02*
G37*
G36*
X31321D02*
Y25982D01*
X31206Y25874D01*
X31097D01*
X30981Y25982D01*
Y26180D01*
X31007Y26205D01*
X31296D01*
X31321Y26180D01*
D02*
G37*
G36*
X29973D02*
Y25982D01*
X29857Y25874D01*
X29748D01*
X29633Y25982D01*
Y26180D01*
X29658Y26205D01*
X29948D01*
X29973Y26180D01*
D02*
G37*
G36*
X28624D02*
Y25982D01*
X28509Y25874D01*
X28400D01*
X28284Y25982D01*
Y26180D01*
X28309Y26205D01*
X28599D01*
X28624Y26180D01*
D02*
G37*
G36*
X27276D02*
Y25982D01*
X27160Y25874D01*
X27051D01*
X26936Y25982D01*
Y26180D01*
X26961Y26205D01*
X27250D01*
X27276Y26180D01*
D02*
G37*
G36*
X25927D02*
Y25982D01*
X25811Y25874D01*
X25703D01*
X25587Y25982D01*
Y26180D01*
X25612Y26205D01*
X25902D01*
X25927Y26180D01*
D02*
G37*
G36*
X24620Y26121D02*
Y26005D01*
X24504Y25846D01*
X24396D01*
X24280Y26005D01*
Y26121D01*
X24305Y26146D01*
X24595D01*
X24620Y26121D01*
D02*
G37*
G36*
X49420Y25489D02*
Y25373D01*
X49395Y25348D01*
X49105D01*
X49080Y25373D01*
Y25489D01*
X49196Y25648D01*
X49304D01*
X49420Y25489D01*
D02*
G37*
G36*
X55753Y25568D02*
Y25370D01*
X55728Y25345D01*
X55438D01*
X55413Y25370D01*
Y25568D01*
X55528Y25676D01*
X55637D01*
X55753Y25568D01*
D02*
G37*
G36*
X54691D02*
Y25370D01*
X54665Y25345D01*
X54376D01*
X54350Y25370D01*
Y25568D01*
X54466Y25676D01*
X54575D01*
X54691Y25568D01*
D02*
G37*
G36*
X53628D02*
Y25370D01*
X53603Y25345D01*
X53313D01*
X53288Y25370D01*
Y25568D01*
X53404Y25676D01*
X53512D01*
X53628Y25568D01*
D02*
G37*
G36*
X52566D02*
Y25370D01*
X52541Y25345D01*
X52251D01*
X52226Y25370D01*
Y25568D01*
X52341Y25676D01*
X52450D01*
X52566Y25568D01*
D02*
G37*
G36*
X51503D02*
Y25370D01*
X51478Y25345D01*
X51188D01*
X51163Y25370D01*
Y25568D01*
X51279Y25676D01*
X51388D01*
X51503Y25568D01*
D02*
G37*
G36*
X50441D02*
Y25370D01*
X50416Y25345D01*
X50126D01*
X50101Y25370D01*
Y25568D01*
X50216Y25676D01*
X50325D01*
X50441Y25568D01*
D02*
G37*
G36*
X24620Y25439D02*
Y25323D01*
X24595Y25298D01*
X24305D01*
X24280Y25323D01*
Y25439D01*
X24396Y25598D01*
X24504D01*
X24620Y25439D01*
D02*
G37*
G36*
X32670Y25518D02*
Y25320D01*
X32645Y25295D01*
X32355D01*
X32330Y25320D01*
Y25518D01*
X32446Y25626D01*
X32554D01*
X32670Y25518D01*
D02*
G37*
G36*
X31321D02*
Y25320D01*
X31296Y25295D01*
X31007D01*
X30981Y25320D01*
Y25518D01*
X31097Y25626D01*
X31206D01*
X31321Y25518D01*
D02*
G37*
G36*
X29973D02*
Y25320D01*
X29948Y25295D01*
X29658D01*
X29633Y25320D01*
Y25518D01*
X29748Y25626D01*
X29857D01*
X29973Y25518D01*
D02*
G37*
G36*
X28624D02*
Y25320D01*
X28599Y25295D01*
X28309D01*
X28284Y25320D01*
Y25518D01*
X28400Y25626D01*
X28509D01*
X28624Y25518D01*
D02*
G37*
G36*
X27276D02*
Y25320D01*
X27250Y25295D01*
X26961D01*
X26936Y25320D01*
Y25518D01*
X27051Y25626D01*
X27160D01*
X27276Y25518D01*
D02*
G37*
G36*
X25927D02*
Y25320D01*
X25902Y25295D01*
X25612D01*
X25587Y25320D01*
Y25518D01*
X25703Y25626D01*
X25811D01*
X25927Y25518D01*
D02*
G37*
D10*
X55030Y51110D02*
G03*
X55030Y51110I-230J0D01*
G01*
Y48750D02*
G03*
X55030Y48750I-230J0D01*
G01*
X49505D02*
G03*
X49505Y48750I-230J0D01*
G01*
Y51110D02*
G03*
X49505Y51110I-230J0D01*
G01*
X38170Y13853D02*
X39303D01*
X38170Y19456D02*
X39170Y19460D01*
X39800Y30930D02*
X41800D01*
X39770Y21060D02*
Y23460D01*
X39110D02*
X39770D01*
X39170Y21060D02*
X39770D01*
X40770D02*
Y23460D01*
X44110Y21060D02*
Y21860D01*
X42510Y21060D02*
Y21860D01*
X40770Y23460D02*
X42510D01*
X43820Y30130D02*
Y31030D01*
X41800Y30130D02*
Y30930D01*
X39800Y30130D02*
Y30930D01*
X37800Y30130D02*
Y31030D01*
X36310Y30130D02*
X37800D01*
X43820Y31030D02*
X45820D01*
X43820Y30130D02*
X45310D01*
X39800D02*
X41800D01*
X35800Y31030D02*
X37800D01*
X39303Y13853D02*
X44910Y19460D01*
X36570Y13853D02*
X38170D01*
X36570D02*
Y15453D01*
Y17053D02*
Y18653D01*
Y15453D02*
X38170D01*
X36570Y17053D02*
X38170D01*
X36570Y18653D02*
X38170D01*
Y15453D02*
Y17053D01*
Y18653D02*
Y19453D01*
X39170Y19460D02*
Y21060D01*
X40770Y19460D02*
Y21060D01*
Y19460D02*
X42510D01*
X44110D02*
X44910D01*
X42510D02*
Y21060D01*
X44110Y19460D02*
Y21060D01*
X37510Y21860D02*
X39110D01*
X44110D02*
Y23460D01*
X42510Y21860D02*
Y23460D01*
X37510Y21860D02*
Y23460D01*
X39110Y21860D02*
Y23460D01*
X44110D02*
X45310D01*
X36310D02*
X37510D01*
X36310D02*
Y30130D01*
X45310Y23460D02*
Y30130D01*
X45820Y19220D02*
Y31030D01*
X35800Y19220D02*
Y31030D01*
X45820Y19220D02*
X47920D01*
X33700D02*
X35800D01*
X47920Y17620D02*
Y19220D01*
X33700Y17620D02*
Y19220D01*
X47920Y17620D02*
X59120D01*
X22500D02*
X33700D01*
X22500D02*
Y53120D01*
X59120D01*
Y17620D02*
Y53120D01*
D22*
X28700Y33876D02*
D03*
Y33324D02*
D03*
X31650Y33876D02*
D03*
Y33324D02*
D03*
X29650Y30974D02*
D03*
Y31526D02*
D03*
X32900Y30974D02*
D03*
Y31526D02*
D03*
X24450Y25998D02*
D03*
Y25446D02*
D03*
X49250Y26048D02*
D03*
Y25496D02*
D03*
X50150Y32026D02*
D03*
Y31474D02*
D03*
Y33526D02*
D03*
Y32974D02*
D03*
Y34940D02*
D03*
Y34389D02*
D03*
X54950Y31964D02*
D03*
Y31413D02*
D03*
X54900Y32899D02*
D03*
Y33450D02*
D03*
X54948Y34395D02*
D03*
Y34946D02*
D03*
X30900Y33882D02*
D03*
Y33331D02*
D03*
X27900Y33882D02*
D03*
Y33331D02*
D03*
D28*
X23850Y19675D02*
D03*
X24450D02*
D03*
X25825D02*
D03*
X26425D02*
D03*
X27800D02*
D03*
X28400D02*
D03*
X28825Y20575D02*
D03*
X29425D02*
D03*
X29775Y19675D02*
D03*
X30375D02*
D03*
X31750D02*
D03*
X32350D02*
D03*
X48300Y20575D02*
D03*
X48900D02*
D03*
X49550Y19675D02*
D03*
X50150D02*
D03*
X51462D02*
D03*
X52063D02*
D03*
X53375D02*
D03*
X53975D02*
D03*
X55287D02*
D03*
X55887D02*
D03*
X57200D02*
D03*
X57800D02*
D03*
X56250Y20575D02*
D03*
X56850D02*
D03*
X25600D02*
D03*
X25000D02*
D03*
X27513D02*
D03*
X26913D02*
D03*
X31337D02*
D03*
X30738D02*
D03*
X33250D02*
D03*
X32650D02*
D03*
X50887D02*
D03*
X50287D02*
D03*
X54862D02*
D03*
X54262D02*
D03*
X52875D02*
D03*
X52275D02*
D03*
D34*
X27900Y28703D02*
D03*
Y29297D02*
D03*
X31000Y28703D02*
D03*
Y29297D02*
D03*
X25757Y25453D02*
D03*
Y26047D02*
D03*
X27106Y25453D02*
D03*
Y26047D02*
D03*
X28454Y25453D02*
D03*
Y26047D02*
D03*
X29803D02*
D03*
Y25453D02*
D03*
X31151Y26047D02*
D03*
Y25453D02*
D03*
X32500Y26047D02*
D03*
Y25453D02*
D03*
X50271Y26097D02*
D03*
Y25503D02*
D03*
X51333D02*
D03*
Y26097D02*
D03*
X52396Y25503D02*
D03*
Y26097D02*
D03*
X53458Y25503D02*
D03*
Y26097D02*
D03*
X54520D02*
D03*
Y25503D02*
D03*
X55583Y26097D02*
D03*
Y25503D02*
D03*
X48600Y31453D02*
D03*
Y32047D02*
D03*
X49354D02*
D03*
Y31453D02*
D03*
X48600Y34396D02*
D03*
Y34989D02*
D03*
X49354Y34396D02*
D03*
Y34989D02*
D03*
X55779Y31370D02*
D03*
Y31963D02*
D03*
X56650Y31370D02*
D03*
Y31963D02*
D03*
X55779Y34396D02*
D03*
Y34989D02*
D03*
X56650D02*
D03*
Y34396D02*
D03*
D136*
X28900Y30194D02*
D03*
X28400D02*
D03*
X27900D02*
D03*
X27400D02*
D03*
X28900Y32306D02*
D03*
X28400D02*
D03*
X27900D02*
D03*
X27400D02*
D03*
X32000Y30194D02*
D03*
X31500D02*
D03*
X31000D02*
D03*
X30500D02*
D03*
X32000Y32306D02*
D03*
X31500D02*
D03*
X31000D02*
D03*
X30500D02*
D03*
D137*
X51373Y31350D02*
D03*
Y31850D02*
D03*
Y32350D02*
D03*
Y32850D02*
D03*
Y33350D02*
D03*
Y33850D02*
D03*
Y34350D02*
D03*
Y34850D02*
D03*
X53527Y31350D02*
D03*
Y31850D02*
D03*
Y32350D02*
D03*
Y32850D02*
D03*
Y33350D02*
D03*
Y33850D02*
D03*
Y34350D02*
D03*
Y34850D02*
D03*
M02*
