G04*
G04 #@! TF.GenerationSoftware,Altium Limited,Altium Designer,20.2.6 (244)*
G04*
G04 Layer_Color=32896*
%FSLAX24Y24*%
%MOIN*%
G70*
G04*
G04 #@! TF.SameCoordinates,939C5B67-7932-4E13-932B-422522EE1AF6*
G04*
G04*
G04 #@! TF.FilePolarity,Positive*
G04*
G01*
G75*
%ADD10C,0.0100*%
%ADD11C,0.0118*%
%ADD15C,0.0060*%
%ADD16C,0.0050*%
%ADD18R,0.1000X3.5500*%
%ADD91C,0.0150*%
%ADD140C,0.0157*%
D10*
X28858Y33053D02*
G03*
X28980Y33175I0J122D01*
G01*
X28421D02*
G03*
X28543Y33053I122J0D01*
G01*
X28977Y34031D02*
G03*
X28855Y34153I-122J0D01*
G01*
X28540D02*
G03*
X28418Y34031I0J-122D01*
G01*
X31808Y33053D02*
G03*
X31930Y33175I0J122D01*
G01*
X31371D02*
G03*
X31493Y33053I122J0D01*
G01*
X31927Y34031D02*
G03*
X31805Y34153I-122J0D01*
G01*
X31490D02*
G03*
X31368Y34031I0J-122D01*
G01*
X29492Y31797D02*
G03*
X29370Y31675I0J-122D01*
G01*
X29929D02*
G03*
X29807Y31797I-122J0D01*
G01*
X29373Y30819D02*
G03*
X29495Y30697I122J0D01*
G01*
X29810D02*
G03*
X29932Y30819I0J122D01*
G01*
X32742Y31797D02*
G03*
X32620Y31675I0J-122D01*
G01*
X33179D02*
G03*
X33057Y31797I-122J0D01*
G01*
X32623Y30819D02*
G03*
X32745Y30697I122J0D01*
G01*
X33060D02*
G03*
X33182Y30819I0J122D01*
G01*
X24608Y25175D02*
G03*
X24730Y25297I0J122D01*
G01*
X24171D02*
G03*
X24293Y25175I122J0D01*
G01*
X24727Y26153D02*
G03*
X24605Y26275I-122J0D01*
G01*
X24290D02*
G03*
X24168Y26153I0J-122D01*
G01*
X49408Y25225D02*
G03*
X49530Y25347I0J122D01*
G01*
X48971D02*
G03*
X49093Y25225I122J0D01*
G01*
X49527Y26203D02*
G03*
X49405Y26325I-122J0D01*
G01*
X49090D02*
G03*
X48968Y26203I0J-122D01*
G01*
X50308Y31203D02*
G03*
X50430Y31325I0J122D01*
G01*
X49871D02*
G03*
X49993Y31203I122J0D01*
G01*
X50427Y32181D02*
G03*
X50305Y32303I-122J0D01*
G01*
X49990D02*
G03*
X49868Y32181I0J-122D01*
G01*
X50308Y32703D02*
G03*
X50430Y32825I0J122D01*
G01*
X49871D02*
G03*
X49993Y32703I122J0D01*
G01*
X50427Y33681D02*
G03*
X50305Y33803I-122J0D01*
G01*
X49990D02*
G03*
X49868Y33681I0J-122D01*
G01*
X50308Y34118D02*
G03*
X50430Y34240I0J122D01*
G01*
X49871D02*
G03*
X49993Y34118I122J0D01*
G01*
X50427Y35096D02*
G03*
X50305Y35218I-122J0D01*
G01*
X49990D02*
G03*
X49868Y35096I0J-122D01*
G01*
X55108Y31141D02*
G03*
X55230Y31263I0J122D01*
G01*
X54671D02*
G03*
X54793Y31141I122J0D01*
G01*
X55227Y32120D02*
G03*
X55105Y32242I-122J0D01*
G01*
X54790D02*
G03*
X54668Y32120I0J-122D01*
G01*
X54742Y33722D02*
G03*
X54620Y33600I0J-122D01*
G01*
X55179D02*
G03*
X55057Y33722I-122J0D01*
G01*
X54623Y32743D02*
G03*
X54745Y32621I122J0D01*
G01*
X55060D02*
G03*
X55182Y32743I0J122D01*
G01*
X54790Y35218D02*
G03*
X54668Y35096I0J-122D01*
G01*
X55227D02*
G03*
X55105Y35218I-122J0D01*
G01*
X54671Y34240D02*
G03*
X54793Y34118I122J0D01*
G01*
X55108D02*
G03*
X55230Y34240I0J122D01*
G01*
X26700Y47400D02*
G03*
X26700Y47400I-750J0D01*
G01*
X31137D02*
G03*
X31137Y47400I-750J0D01*
G01*
X35575D02*
G03*
X35575Y47400I-750J0D01*
G01*
X40012D02*
G03*
X40012Y47400I-750J0D01*
G01*
X44450D02*
G03*
X44450Y47400I-750J0D01*
G01*
X31060Y33053D02*
G03*
X31182Y33175I0J122D01*
G01*
X30623D02*
G03*
X30745Y33053I122J0D01*
G01*
X31179Y34031D02*
G03*
X31057Y34153I-122J0D01*
G01*
X30742D02*
G03*
X30620Y34031I0J-122D01*
G01*
X28060Y33053D02*
G03*
X28182Y33175I0J122D01*
G01*
X27623D02*
G03*
X27745Y33053I122J0D01*
G01*
X28179Y34031D02*
G03*
X28057Y34153I-122J0D01*
G01*
X27742D02*
G03*
X27620Y34031I0J-122D01*
G01*
X28977Y33716D02*
Y34031D01*
X28540Y34153D02*
X28855D01*
X28418Y33716D02*
Y34031D01*
X28980Y33175D02*
Y33490D01*
X28421Y33175D02*
Y33490D01*
X28543Y33053D02*
X28858D01*
X31927Y33716D02*
Y34031D01*
X31490Y34153D02*
X31805D01*
X31368Y33716D02*
Y34031D01*
X31930Y33175D02*
Y33490D01*
X31371Y33175D02*
Y33490D01*
X31493Y33053D02*
X31808D01*
X29373Y30819D02*
Y31134D01*
X29495Y30697D02*
X29810D01*
X29932Y30819D02*
Y31134D01*
X29370Y31360D02*
Y31675D01*
X29929Y31360D02*
Y31675D01*
X29492Y31797D02*
X29807D01*
X32623Y30819D02*
Y31134D01*
X32745Y30697D02*
X33060D01*
X33182Y30819D02*
Y31134D01*
X32620Y31360D02*
Y31675D01*
X33179Y31360D02*
Y31675D01*
X32742Y31797D02*
X33057D01*
X24727Y25838D02*
Y26153D01*
X24290Y26275D02*
X24605D01*
X24168Y25838D02*
Y26153D01*
X24730Y25297D02*
Y25612D01*
X24171Y25297D02*
Y25612D01*
X24293Y25175D02*
X24608D01*
X49527Y25888D02*
Y26203D01*
X49090Y26325D02*
X49405D01*
X48968Y25888D02*
Y26203D01*
X49530Y25347D02*
Y25662D01*
X48971Y25347D02*
Y25662D01*
X49093Y25225D02*
X49408D01*
X50427Y31866D02*
Y32181D01*
X49990Y32303D02*
X50305D01*
X49868Y31866D02*
Y32181D01*
X50430Y31325D02*
Y31640D01*
X49871Y31325D02*
Y31640D01*
X49993Y31203D02*
X50308D01*
X50427Y33366D02*
Y33681D01*
X49990Y33803D02*
X50305D01*
X49868Y33366D02*
Y33681D01*
X50430Y32825D02*
Y33140D01*
X49871Y32825D02*
Y33140D01*
X49993Y32703D02*
X50308D01*
X50427Y34781D02*
Y35096D01*
X49990Y35218D02*
X50305D01*
X49868Y34781D02*
Y35096D01*
X50430Y34240D02*
Y34554D01*
X49871Y34240D02*
Y34554D01*
X49993Y34118D02*
X50308D01*
X55227Y31805D02*
Y32120D01*
X54790Y32242D02*
X55105D01*
X54668Y31805D02*
Y32120D01*
X55230Y31263D02*
Y31578D01*
X54671Y31263D02*
Y31578D01*
X54793Y31141D02*
X55108D01*
X54623Y32743D02*
Y33058D01*
X54745Y32621D02*
X55060D01*
X55182Y32743D02*
Y33058D01*
X54620Y33285D02*
Y33600D01*
X55179Y33285D02*
Y33600D01*
X54742Y33722D02*
X55057D01*
X54671Y34240D02*
Y34555D01*
X54793Y34118D02*
X55108D01*
X55230Y34240D02*
Y34555D01*
X54668Y34781D02*
Y35096D01*
X55227Y34781D02*
Y35096D01*
X54790Y35218D02*
X55105D01*
X23863Y42368D02*
X28037D01*
X23863Y45918D02*
X28037D01*
X24741Y48641D02*
X27109D01*
X27167D01*
X28037Y47771D01*
X24733Y48641D02*
X24741D01*
X23863Y47771D02*
X24733Y48641D01*
X28037Y42368D02*
Y47771D01*
X27769Y42100D02*
X28037Y42368D01*
X24131Y42100D02*
X27769D01*
X23863Y42368D02*
X24131Y42100D01*
X23863Y42368D02*
Y47771D01*
X28300Y42368D02*
Y47771D01*
Y42368D02*
X28569Y42100D01*
X32206D01*
X32475Y42368D01*
Y47771D01*
X28300D02*
X29170Y48641D01*
X29178D01*
X31605D02*
X32475Y47771D01*
X31547Y48641D02*
X31605D01*
X29178D02*
X31547D01*
X28300Y45918D02*
X32475D01*
X28300Y42368D02*
X32475D01*
X32738D02*
Y47771D01*
Y42368D02*
X33006Y42100D01*
X36644D01*
X36912Y42368D01*
Y47771D01*
X32738D02*
X33608Y48641D01*
X33616D01*
X36042D02*
X36912Y47771D01*
X35984Y48641D02*
X36042D01*
X33616D02*
X35984D01*
X32738Y45918D02*
X36912D01*
X32738Y42368D02*
X36912D01*
X37175D02*
X41350D01*
X37175Y45918D02*
X41350D01*
X38053Y48641D02*
X40422D01*
X40480D01*
X41350Y47771D01*
X38045Y48641D02*
X38053D01*
X37175Y47771D02*
X38045Y48641D01*
X41350Y42368D02*
Y47771D01*
X41081Y42100D02*
X41350Y42368D01*
X37444Y42100D02*
X41081D01*
X37175Y42368D02*
X37444Y42100D01*
X37175Y42368D02*
Y47771D01*
X41613Y42368D02*
X45787D01*
X41613Y45918D02*
X45787D01*
X42491Y48641D02*
X44859D01*
X44917D01*
X45787Y47771D01*
X42483Y48641D02*
X42491D01*
X41613Y47771D02*
X42483Y48641D01*
X45787Y42368D02*
Y47771D01*
X45519Y42100D02*
X45787Y42368D01*
X41881Y42100D02*
X45519D01*
X41613Y42368D02*
X41881Y42100D01*
X41613Y42368D02*
Y47771D01*
X30742Y34153D02*
X31057D01*
X31179Y33716D02*
Y34031D01*
X30620Y33716D02*
Y34031D01*
X31182Y33175D02*
Y33490D01*
X30745Y33053D02*
X31060D01*
X30623Y33175D02*
Y33490D01*
X27742Y34153D02*
X28057D01*
X28179Y33716D02*
Y34031D01*
X27620Y33716D02*
Y34031D01*
X28182Y33175D02*
Y33490D01*
X27745Y33053D02*
X28060D01*
X27623Y33175D02*
Y33490D01*
X25150Y43800D02*
Y44400D01*
Y44100D01*
X25550D01*
Y43800D01*
Y44400D01*
X26050Y43800D02*
X25850D01*
X25750Y43900D01*
Y44300D01*
X25850Y44400D01*
X26050D01*
X26150Y44300D01*
Y43900D01*
X26050Y43800D01*
X26350D02*
X26749D01*
X26550D01*
Y44400D01*
X29588Y43800D02*
Y44400D01*
Y44100D01*
X29987D01*
Y43800D01*
Y44400D01*
X30487Y43800D02*
X30287D01*
X30187Y43900D01*
Y44300D01*
X30287Y44400D01*
X30487D01*
X30587Y44300D01*
Y43900D01*
X30487Y43800D01*
X30787D02*
X31187D01*
X30987D01*
Y44400D01*
X34025Y43800D02*
Y44400D01*
Y44100D01*
X34425D01*
Y43800D01*
Y44400D01*
X34925Y43800D02*
X34725D01*
X34625Y43900D01*
Y44300D01*
X34725Y44400D01*
X34925D01*
X35025Y44300D01*
Y43900D01*
X34925Y43800D01*
X35225D02*
X35624D01*
X35425D01*
Y44400D01*
X38463Y43800D02*
Y44400D01*
Y44100D01*
X38862D01*
Y43800D01*
Y44400D01*
X39362Y43800D02*
X39162D01*
X39062Y43900D01*
Y44300D01*
X39162Y44400D01*
X39362D01*
X39462Y44300D01*
Y43900D01*
X39362Y43800D01*
X39662D02*
X40062D01*
X39862D01*
Y44400D01*
X42900Y43800D02*
Y44400D01*
Y44100D01*
X43300D01*
Y43800D01*
Y44400D01*
X43800Y43800D02*
X43600D01*
X43500Y43900D01*
Y44300D01*
X43600Y44400D01*
X43800D01*
X43900Y44300D01*
Y43900D01*
X43800Y43800D01*
X44100D02*
X44499D01*
X44300D01*
Y44400D01*
X32450Y33525D02*
X32700D01*
X32750Y33475D01*
Y33375D01*
X32700Y33325D01*
X32450D01*
X32750Y33225D02*
Y33125D01*
Y33175D01*
X32450D01*
X32500Y33225D01*
Y32975D02*
X32450Y32925D01*
Y32825D01*
X32500Y32775D01*
X32550D01*
X32600Y32825D01*
Y32875D01*
Y32825D01*
X32650Y32775D01*
X32700D01*
X32750Y32825D01*
Y32925D01*
X32700Y32975D01*
X29250Y33725D02*
X29500D01*
X29550Y33675D01*
Y33575D01*
X29500Y33525D01*
X29250D01*
X29550Y33425D02*
Y33325D01*
Y33375D01*
X29250D01*
X29300Y33425D01*
X29550Y32975D02*
Y33175D01*
X29350Y32975D01*
X29300D01*
X29250Y33025D01*
Y33125D01*
X29300Y33175D01*
X35375Y49250D02*
Y49000D01*
X35325Y48950D01*
X35225D01*
X35175Y49000D01*
Y49250D01*
X35075Y48950D02*
X34975D01*
X35025D01*
Y49250D01*
X35075Y49200D01*
X34825Y48950D02*
X34725D01*
X34775D01*
Y49250D01*
X34825Y49200D01*
X53700Y35900D02*
Y35650D01*
X53650Y35600D01*
X53550D01*
X53500Y35650D01*
Y35900D01*
X53400D02*
X53200D01*
Y35850D01*
X53400Y35650D01*
Y35600D01*
X44050Y49200D02*
Y48950D01*
X44000Y48900D01*
X43900D01*
X43850Y48950D01*
Y49200D01*
X43550D02*
X43650Y49150D01*
X43750Y49050D01*
Y48950D01*
X43700Y48900D01*
X43600D01*
X43550Y48950D01*
Y49000D01*
X43600Y49050D01*
X43750D01*
X26450Y49300D02*
Y49050D01*
X26400Y49000D01*
X26300D01*
X26250Y49050D01*
Y49300D01*
X25950D02*
X26150D01*
Y49150D01*
X26050Y49200D01*
X26000D01*
X25950Y49150D01*
Y49050D01*
X26000Y49000D01*
X26100D01*
X26150Y49050D01*
X30750Y49300D02*
Y49050D01*
X30700Y49000D01*
X30600D01*
X30550Y49050D01*
Y49300D01*
X30450Y49250D02*
X30400Y49300D01*
X30300D01*
X30250Y49250D01*
Y49200D01*
X30300Y49150D01*
X30350D01*
X30300D01*
X30250Y49100D01*
Y49050D01*
X30300Y49000D01*
X30400D01*
X30450Y49050D01*
X39850Y49200D02*
Y48950D01*
X39800Y48900D01*
X39700D01*
X39650Y48950D01*
Y49200D01*
X39350Y48900D02*
X39550D01*
X39350Y49100D01*
Y49150D01*
X39400Y49200D01*
X39500D01*
X39550Y49150D01*
X26150Y24700D02*
Y25000D01*
X26000D01*
X25950Y24950D01*
Y24850D01*
X26000Y24800D01*
X26150D01*
X26050D02*
X25950Y24700D01*
X25650Y25000D02*
X25750Y24950D01*
X25850Y24850D01*
Y24750D01*
X25800Y24700D01*
X25700D01*
X25650Y24750D01*
Y24800D01*
X25700Y24850D01*
X25850D01*
X25350Y24700D02*
X25550D01*
X25350Y24900D01*
Y24950D01*
X25400Y25000D01*
X25500D01*
X25550Y24950D01*
X28800Y24650D02*
Y24950D01*
X28650D01*
X28600Y24900D01*
Y24800D01*
X28650Y24750D01*
X28800D01*
X28700D02*
X28600Y24650D01*
X28300Y24950D02*
X28400Y24900D01*
X28500Y24800D01*
Y24700D01*
X28450Y24650D01*
X28350D01*
X28300Y24700D01*
Y24750D01*
X28350Y24800D01*
X28500D01*
X28200Y24650D02*
X28100D01*
X28150D01*
Y24950D01*
X28200Y24900D01*
X27450Y24650D02*
Y24950D01*
X27300D01*
X27250Y24900D01*
Y24800D01*
X27300Y24750D01*
X27450D01*
X27350D02*
X27250Y24650D01*
X26950Y24950D02*
X27050Y24900D01*
X27150Y24800D01*
Y24700D01*
X27100Y24650D01*
X27000D01*
X26950Y24700D01*
Y24750D01*
X27000Y24800D01*
X27150D01*
X26850Y24900D02*
X26800Y24950D01*
X26700D01*
X26650Y24900D01*
Y24700D01*
X26700Y24650D01*
X26800D01*
X26850Y24700D01*
Y24900D01*
X51500Y24600D02*
Y24900D01*
X51350D01*
X51300Y24850D01*
Y24750D01*
X51350Y24700D01*
X51500D01*
X51400D02*
X51300Y24600D01*
X51000Y24900D02*
X51200D01*
Y24750D01*
X51100Y24800D01*
X51050D01*
X51000Y24750D01*
Y24650D01*
X51050Y24600D01*
X51150D01*
X51200Y24650D01*
X50900D02*
X50850Y24600D01*
X50750D01*
X50700Y24650D01*
Y24850D01*
X50750Y24900D01*
X50850D01*
X50900Y24850D01*
Y24800D01*
X50850Y24750D01*
X50700D01*
X53650Y24650D02*
Y24950D01*
X53500D01*
X53450Y24900D01*
Y24800D01*
X53500Y24750D01*
X53650D01*
X53550D02*
X53450Y24650D01*
X53150Y24950D02*
X53350D01*
Y24800D01*
X53250Y24850D01*
X53200D01*
X53150Y24800D01*
Y24700D01*
X53200Y24650D01*
X53300D01*
X53350Y24700D01*
X53050Y24900D02*
X53000Y24950D01*
X52900D01*
X52850Y24900D01*
Y24850D01*
X52900Y24800D01*
X52850Y24750D01*
Y24700D01*
X52900Y24650D01*
X53000D01*
X53050Y24700D01*
Y24750D01*
X53000Y24800D01*
X53050Y24850D01*
Y24900D01*
X53000Y24800D02*
X52900D01*
X52550Y24600D02*
Y24900D01*
X52400D01*
X52350Y24850D01*
Y24750D01*
X52400Y24700D01*
X52550D01*
X52450D02*
X52350Y24600D01*
X52050Y24900D02*
X52250D01*
Y24750D01*
X52150Y24800D01*
X52100D01*
X52050Y24750D01*
Y24650D01*
X52100Y24600D01*
X52200D01*
X52250Y24650D01*
X51950Y24900D02*
X51750D01*
Y24850D01*
X51950Y24650D01*
Y24600D01*
X32850Y24650D02*
Y24950D01*
X32700D01*
X32650Y24900D01*
Y24800D01*
X32700Y24750D01*
X32850D01*
X32750D02*
X32650Y24650D01*
X32350Y24950D02*
X32550D01*
Y24800D01*
X32450Y24850D01*
X32400D01*
X32350Y24800D01*
Y24700D01*
X32400Y24650D01*
X32500D01*
X32550Y24700D01*
X32100Y24650D02*
Y24950D01*
X32250Y24800D01*
X32050D01*
X50450Y24650D02*
Y24950D01*
X50300D01*
X50250Y24900D01*
Y24800D01*
X50300Y24750D01*
X50450D01*
X50350D02*
X50250Y24650D01*
X49950Y24950D02*
X50150D01*
Y24800D01*
X50050Y24850D01*
X50000D01*
X49950Y24800D01*
Y24700D01*
X50000Y24650D01*
X50100D01*
X50150Y24700D01*
X49850Y24900D02*
X49800Y24950D01*
X49700D01*
X49650Y24900D01*
Y24850D01*
X49700Y24800D01*
X49750D01*
X49700D01*
X49650Y24750D01*
Y24700D01*
X49700Y24650D01*
X49800D01*
X49850Y24700D01*
X31550Y24650D02*
Y24950D01*
X31400D01*
X31350Y24900D01*
Y24800D01*
X31400Y24750D01*
X31550D01*
X31450D02*
X31350Y24650D01*
X31050Y24950D02*
X31250D01*
Y24800D01*
X31150Y24850D01*
X31100D01*
X31050Y24800D01*
Y24700D01*
X31100Y24650D01*
X31200D01*
X31250Y24700D01*
X30750Y24650D02*
X30950D01*
X30750Y24850D01*
Y24900D01*
X30800Y24950D01*
X30900D01*
X30950Y24900D01*
X30150Y24650D02*
Y24950D01*
X30000D01*
X29950Y24900D01*
Y24800D01*
X30000Y24750D01*
X30150D01*
X30050D02*
X29950Y24650D01*
X29650Y24950D02*
X29850D01*
Y24800D01*
X29750Y24850D01*
X29700D01*
X29650Y24800D01*
Y24700D01*
X29700Y24650D01*
X29800D01*
X29850Y24700D01*
X29550Y24650D02*
X29450D01*
X29500D01*
Y24950D01*
X29550Y24900D01*
X56050Y24600D02*
Y24900D01*
X55900D01*
X55850Y24850D01*
Y24750D01*
X55900Y24700D01*
X56050D01*
X55950D02*
X55850Y24600D01*
X55550Y24900D02*
X55750D01*
Y24750D01*
X55650Y24800D01*
X55600D01*
X55550Y24750D01*
Y24650D01*
X55600Y24600D01*
X55700D01*
X55750Y24650D01*
X55450Y24850D02*
X55400Y24900D01*
X55300D01*
X55250Y24850D01*
Y24650D01*
X55300Y24600D01*
X55400D01*
X55450Y24650D01*
Y24850D01*
X54850Y24650D02*
Y24950D01*
X54700D01*
X54650Y24900D01*
Y24800D01*
X54700Y24750D01*
X54850D01*
X54750D02*
X54650Y24650D01*
X54400D02*
Y24950D01*
X54550Y24800D01*
X54350D01*
X54250Y24700D02*
X54200Y24650D01*
X54100D01*
X54050Y24700D01*
Y24900D01*
X54100Y24950D01*
X54200D01*
X54250Y24900D01*
Y24850D01*
X54200Y24800D01*
X54050D01*
X30500Y28800D02*
Y29100D01*
X30350D01*
X30300Y29050D01*
Y28950D01*
X30350Y28900D01*
X30500D01*
X30400D02*
X30300Y28800D01*
X30050D02*
Y29100D01*
X30200Y28950D01*
X30000D01*
X29700Y28800D02*
X29900D01*
X29700Y29000D01*
Y29050D01*
X29750Y29100D01*
X29850D01*
X29900Y29050D01*
X27300Y28800D02*
Y29100D01*
X27150D01*
X27100Y29050D01*
Y28950D01*
X27150Y28900D01*
X27300D01*
X27200D02*
X27100Y28800D01*
X26850D02*
Y29100D01*
X27000Y28950D01*
X26800D01*
X26700Y28800D02*
X26600D01*
X26650D01*
Y29100D01*
X26700Y29050D01*
X48200Y31150D02*
Y31450D01*
X48050D01*
X48000Y31400D01*
Y31300D01*
X48050Y31250D01*
X48200D01*
X48100D02*
X48000Y31150D01*
X47700D02*
X47900D01*
X47700Y31350D01*
Y31400D01*
X47750Y31450D01*
X47850D01*
X47900Y31400D01*
X47400Y31150D02*
X47600D01*
X47400Y31350D01*
Y31400D01*
X47450Y31450D01*
X47550D01*
X47600Y31400D01*
X57250Y30450D02*
Y30750D01*
X57100D01*
X57050Y30700D01*
Y30600D01*
X57100Y30550D01*
X57250D01*
X57150D02*
X57050Y30450D01*
X56750D02*
X56950D01*
X56750Y30650D01*
Y30700D01*
X56800Y30750D01*
X56900D01*
X56950Y30700D01*
X56650Y30450D02*
X56550D01*
X56600D01*
Y30750D01*
X56650Y30700D01*
X49550Y30600D02*
Y30900D01*
X49400D01*
X49350Y30850D01*
Y30750D01*
X49400Y30700D01*
X49550D01*
X49450D02*
X49350Y30600D01*
X49050D02*
X49250D01*
X49050Y30800D01*
Y30850D01*
X49100Y30900D01*
X49200D01*
X49250Y30850D01*
X48950D02*
X48900Y30900D01*
X48800D01*
X48750Y30850D01*
Y30650D01*
X48800Y30600D01*
X48900D01*
X48950Y30650D01*
Y30850D01*
X56175Y30450D02*
Y30750D01*
X56025D01*
X55975Y30700D01*
Y30600D01*
X56025Y30550D01*
X56175D01*
X56075D02*
X55975Y30450D01*
X55875D02*
X55775D01*
X55825D01*
Y30750D01*
X55875Y30700D01*
X55625Y30500D02*
X55575Y30450D01*
X55475D01*
X55425Y30500D01*
Y30700D01*
X55475Y30750D01*
X55575D01*
X55625Y30700D01*
Y30650D01*
X55575Y30600D01*
X55425D01*
X48675Y35550D02*
Y35850D01*
X48525D01*
X48475Y35800D01*
Y35700D01*
X48525Y35650D01*
X48675D01*
X48575D02*
X48475Y35550D01*
X48375D02*
X48275D01*
X48325D01*
Y35850D01*
X48375Y35800D01*
X48125Y35850D02*
X47925D01*
Y35800D01*
X48125Y35600D01*
Y35550D01*
X56175Y35600D02*
Y35900D01*
X56025D01*
X55975Y35850D01*
Y35750D01*
X56025Y35700D01*
X56175D01*
X56075D02*
X55975Y35600D01*
X55875D02*
X55775D01*
X55825D01*
Y35900D01*
X55875Y35850D01*
X55425Y35900D02*
X55525Y35850D01*
X55625Y35750D01*
Y35650D01*
X55575Y35600D01*
X55475D01*
X55425Y35650D01*
Y35700D01*
X55475Y35750D01*
X55625D01*
X49675Y35550D02*
Y35850D01*
X49525D01*
X49475Y35800D01*
Y35700D01*
X49525Y35650D01*
X49675D01*
X49575D02*
X49475Y35550D01*
X49375D02*
X49275D01*
X49325D01*
Y35850D01*
X49375Y35800D01*
X48975Y35550D02*
Y35850D01*
X49125Y35700D01*
X48925D01*
X57475Y35600D02*
Y35900D01*
X57325D01*
X57275Y35850D01*
Y35750D01*
X57325Y35700D01*
X57475D01*
X57375D02*
X57275Y35600D01*
X57175D02*
X57075D01*
X57125D01*
Y35900D01*
X57175Y35850D01*
X56925D02*
X56875Y35900D01*
X56775D01*
X56725Y35850D01*
Y35800D01*
X56775Y35750D01*
X56825D01*
X56775D01*
X56725Y35700D01*
Y35650D01*
X56775Y35600D01*
X56875D01*
X56925Y35650D01*
X24000Y20950D02*
X24300D01*
Y20800D01*
X24250Y20750D01*
X24050D01*
X24000Y20800D01*
Y20950D01*
X24300Y20450D02*
Y20650D01*
X24100Y20450D01*
X24050D01*
X24000Y20500D01*
Y20600D01*
X24050Y20650D01*
Y20350D02*
X24000Y20300D01*
Y20200D01*
X24050Y20150D01*
X24100D01*
X24150Y20200D01*
X24200Y20150D01*
X24250D01*
X24300Y20200D01*
Y20300D01*
X24250Y20350D01*
X24200D01*
X24150Y20300D01*
X24100Y20350D01*
X24050D01*
X24150Y20300D02*
Y20200D01*
X49050Y21450D02*
Y21150D01*
X48900D01*
X48850Y21200D01*
Y21400D01*
X48900Y21450D01*
X49050D01*
X48550Y21150D02*
X48750D01*
X48550Y21350D01*
Y21400D01*
X48600Y21450D01*
X48700D01*
X48750Y21400D01*
X48450Y21450D02*
X48250D01*
Y21400D01*
X48450Y21200D01*
Y21150D01*
X25780Y21450D02*
Y21150D01*
X25630D01*
X25580Y21200D01*
Y21400D01*
X25630Y21450D01*
X25780D01*
X25280Y21150D02*
X25480D01*
X25280Y21350D01*
Y21400D01*
X25330Y21450D01*
X25430D01*
X25480Y21400D01*
X24980Y21450D02*
X25080Y21400D01*
X25180Y21300D01*
Y21200D01*
X25130Y21150D01*
X25030D01*
X24980Y21200D01*
Y21250D01*
X25030Y21300D01*
X25180D01*
X50250Y18900D02*
Y18600D01*
X50100D01*
X50050Y18650D01*
Y18850D01*
X50100Y18900D01*
X50250D01*
X49750Y18600D02*
X49950D01*
X49750Y18800D01*
Y18850D01*
X49800Y18900D01*
X49900D01*
X49950Y18850D01*
X49450Y18900D02*
X49650D01*
Y18750D01*
X49550Y18800D01*
X49500D01*
X49450Y18750D01*
Y18650D01*
X49500Y18600D01*
X49600D01*
X49650Y18650D01*
X26150Y20900D02*
X26450D01*
Y20750D01*
X26400Y20700D01*
X26200D01*
X26150Y20750D01*
Y20900D01*
X26450Y20400D02*
Y20600D01*
X26250Y20400D01*
X26200D01*
X26150Y20450D01*
Y20550D01*
X26200Y20600D01*
X26450Y20150D02*
X26150D01*
X26300Y20300D01*
Y20100D01*
X51060Y21450D02*
Y21150D01*
X50910D01*
X50860Y21200D01*
Y21400D01*
X50910Y21450D01*
X51060D01*
X50560Y21150D02*
X50760D01*
X50560Y21350D01*
Y21400D01*
X50610Y21450D01*
X50710D01*
X50760Y21400D01*
X50460D02*
X50410Y21450D01*
X50310D01*
X50260Y21400D01*
Y21350D01*
X50310Y21300D01*
X50360D01*
X50310D01*
X50260Y21250D01*
Y21200D01*
X50310Y21150D01*
X50410D01*
X50460Y21200D01*
X27690Y21450D02*
Y21150D01*
X27540D01*
X27490Y21200D01*
Y21400D01*
X27540Y21450D01*
X27690D01*
X27190Y21150D02*
X27390D01*
X27190Y21350D01*
Y21400D01*
X27240Y21450D01*
X27340D01*
X27390Y21400D01*
X26890Y21150D02*
X27090D01*
X26890Y21350D01*
Y21400D01*
X26940Y21450D01*
X27040D01*
X27090Y21400D01*
X51500Y20800D02*
X51800D01*
Y20650D01*
X51750Y20600D01*
X51550D01*
X51500Y20650D01*
Y20800D01*
X51800Y20300D02*
Y20500D01*
X51600Y20300D01*
X51550D01*
X51500Y20350D01*
Y20450D01*
X51550Y20500D01*
X51800Y20200D02*
Y20100D01*
Y20150D01*
X51500D01*
X51550Y20200D01*
X28050Y20850D02*
X28350D01*
Y20700D01*
X28300Y20650D01*
X28100D01*
X28050Y20700D01*
Y20850D01*
X28350Y20350D02*
Y20550D01*
X28150Y20350D01*
X28100D01*
X28050Y20400D01*
Y20500D01*
X28100Y20550D01*
Y20250D02*
X28050Y20200D01*
Y20100D01*
X28100Y20050D01*
X28300D01*
X28350Y20100D01*
Y20200D01*
X28300Y20250D01*
X28100D01*
X53050Y21450D02*
Y21150D01*
X52900D01*
X52850Y21200D01*
Y21400D01*
X52900Y21450D01*
X53050D01*
X52750Y21150D02*
X52650D01*
X52700D01*
Y21450D01*
X52750Y21400D01*
X52500Y21200D02*
X52450Y21150D01*
X52350D01*
X52300Y21200D01*
Y21400D01*
X52350Y21450D01*
X52450D01*
X52500Y21400D01*
Y21350D01*
X52450Y21300D01*
X52300D01*
X29475Y21400D02*
Y21100D01*
X29325D01*
X29275Y21150D01*
Y21350D01*
X29325Y21400D01*
X29475D01*
X29175Y21100D02*
X29075D01*
X29125D01*
Y21400D01*
X29175Y21350D01*
X28925D02*
X28875Y21400D01*
X28775D01*
X28725Y21350D01*
Y21300D01*
X28775Y21250D01*
X28725Y21200D01*
Y21150D01*
X28775Y21100D01*
X28875D01*
X28925Y21150D01*
Y21200D01*
X28875Y21250D01*
X28925Y21300D01*
Y21350D01*
X28875Y21250D02*
X28775D01*
X53450Y20775D02*
X53750D01*
Y20625D01*
X53700Y20575D01*
X53500D01*
X53450Y20625D01*
Y20775D01*
X53750Y20475D02*
Y20375D01*
Y20425D01*
X53450D01*
X53500Y20475D01*
X53450Y20225D02*
Y20025D01*
X53500D01*
X53700Y20225D01*
X53750D01*
X29900Y20825D02*
X30200D01*
Y20675D01*
X30150Y20625D01*
X29950D01*
X29900Y20675D01*
Y20825D01*
X30200Y20525D02*
Y20425D01*
Y20475D01*
X29900D01*
X29950Y20525D01*
X29900Y20075D02*
X29950Y20175D01*
X30050Y20275D01*
X30150D01*
X30200Y20225D01*
Y20125D01*
X30150Y20075D01*
X30100D01*
X30050Y20125D01*
Y20275D01*
X55040Y21450D02*
Y21150D01*
X54890D01*
X54840Y21200D01*
Y21400D01*
X54890Y21450D01*
X55040D01*
X54740Y21150D02*
X54640D01*
X54690D01*
Y21450D01*
X54740Y21400D01*
X54290Y21450D02*
X54490D01*
Y21300D01*
X54390Y21350D01*
X54340D01*
X54290Y21300D01*
Y21200D01*
X54340Y21150D01*
X54440D01*
X54490Y21200D01*
X31510Y21450D02*
Y21150D01*
X31360D01*
X31310Y21200D01*
Y21400D01*
X31360Y21450D01*
X31510D01*
X31210Y21150D02*
X31110D01*
X31160D01*
Y21450D01*
X31210Y21400D01*
X30810Y21150D02*
Y21450D01*
X30960Y21300D01*
X30760D01*
X55450Y20875D02*
X55750D01*
Y20725D01*
X55700Y20675D01*
X55500D01*
X55450Y20725D01*
Y20875D01*
X55750Y20575D02*
Y20475D01*
Y20525D01*
X55450D01*
X55500Y20575D01*
Y20325D02*
X55450Y20275D01*
Y20175D01*
X55500Y20125D01*
X55550D01*
X55600Y20175D01*
Y20225D01*
Y20175D01*
X55650Y20125D01*
X55700D01*
X55750Y20175D01*
Y20275D01*
X55700Y20325D01*
X32425Y18850D02*
Y18550D01*
X32275D01*
X32225Y18600D01*
Y18800D01*
X32275Y18850D01*
X32425D01*
X32125Y18550D02*
X32025D01*
X32075D01*
Y18850D01*
X32125Y18800D01*
X31675Y18550D02*
X31875D01*
X31675Y18750D01*
Y18800D01*
X31725Y18850D01*
X31825D01*
X31875Y18800D01*
X56925Y21500D02*
Y21200D01*
X56775D01*
X56725Y21250D01*
Y21450D01*
X56775Y21500D01*
X56925D01*
X56625Y21200D02*
X56525D01*
X56575D01*
Y21500D01*
X56625Y21450D01*
X56375Y21200D02*
X56275D01*
X56325D01*
Y21500D01*
X56375Y21450D01*
X33420Y21450D02*
Y21150D01*
X33270D01*
X33220Y21200D01*
Y21400D01*
X33270Y21450D01*
X33420D01*
X33120Y21150D02*
X33020D01*
X33070D01*
Y21450D01*
X33120Y21400D01*
X32870D02*
X32820Y21450D01*
X32720D01*
X32670Y21400D01*
Y21200D01*
X32720Y21150D01*
X32820D01*
X32870Y21200D01*
Y21400D01*
X57400Y20700D02*
X57700D01*
Y20550D01*
X57650Y20500D01*
X57450D01*
X57400Y20550D01*
Y20700D01*
X57650Y20400D02*
X57700Y20350D01*
Y20250D01*
X57650Y20200D01*
X57450D01*
X57400Y20250D01*
Y20350D01*
X57450Y20400D01*
X57500D01*
X57550Y20350D01*
Y20200D01*
X24650Y24900D02*
X24700Y24950D01*
X24800D01*
X24850Y24900D01*
Y24700D01*
X24800Y24650D01*
X24700D01*
X24650Y24700D01*
X24350Y24950D02*
X24450Y24900D01*
X24550Y24800D01*
Y24700D01*
X24500Y24650D01*
X24400D01*
X24350Y24700D01*
Y24750D01*
X24400Y24800D01*
X24550D01*
X24250Y24900D02*
X24200Y24950D01*
X24100D01*
X24050Y24900D01*
Y24850D01*
X24100Y24800D01*
X24050Y24750D01*
Y24700D01*
X24100Y24650D01*
X24200D01*
X24250Y24700D01*
Y24750D01*
X24200Y24800D01*
X24250Y24850D01*
Y24900D01*
X24200Y24800D02*
X24100D01*
X49200Y24900D02*
X49250Y24950D01*
X49350D01*
X49400Y24900D01*
Y24700D01*
X49350Y24650D01*
X49250D01*
X49200Y24700D01*
X48900Y24950D02*
X49000Y24900D01*
X49100Y24800D01*
Y24700D01*
X49050Y24650D01*
X48950D01*
X48900Y24700D01*
Y24750D01*
X48950Y24800D01*
X49100D01*
X48800Y24950D02*
X48600D01*
Y24900D01*
X48800Y24700D01*
Y24650D01*
X30930Y34750D02*
X30980Y34800D01*
X31080D01*
X31130Y34750D01*
Y34550D01*
X31080Y34500D01*
X30980D01*
X30930Y34550D01*
X30630Y34800D02*
X30730Y34750D01*
X30830Y34650D01*
Y34550D01*
X30780Y34500D01*
X30680D01*
X30630Y34550D01*
Y34600D01*
X30680Y34650D01*
X30830D01*
X30530Y34750D02*
X30480Y34800D01*
X30380D01*
X30330Y34750D01*
Y34700D01*
X30380Y34650D01*
X30430D01*
X30380D01*
X30330Y34600D01*
Y34550D01*
X30380Y34500D01*
X30480D01*
X30530Y34550D01*
X27930Y34750D02*
X27980Y34800D01*
X28080D01*
X28130Y34750D01*
Y34550D01*
X28080Y34500D01*
X27980D01*
X27930Y34550D01*
X27630Y34800D02*
X27730Y34750D01*
X27830Y34650D01*
Y34550D01*
X27780Y34500D01*
X27680D01*
X27630Y34550D01*
Y34600D01*
X27680Y34650D01*
X27830D01*
X27330Y34500D02*
X27530D01*
X27330Y34700D01*
Y34750D01*
X27380Y34800D01*
X27480D01*
X27530Y34750D01*
X32200Y34750D02*
X32250Y34800D01*
X32350D01*
X32400Y34750D01*
Y34550D01*
X32350Y34500D01*
X32250D01*
X32200Y34550D01*
X31900Y34800D02*
X32100D01*
Y34650D01*
X32000Y34700D01*
X31950D01*
X31900Y34650D01*
Y34550D01*
X31950Y34500D01*
X32050D01*
X32100Y34550D01*
X31800D02*
X31750Y34500D01*
X31650D01*
X31600Y34550D01*
Y34750D01*
X31650Y34800D01*
X31750D01*
X31800Y34750D01*
Y34700D01*
X31750Y34650D01*
X31600D01*
X29050Y34750D02*
X29100Y34800D01*
X29200D01*
X29250Y34750D01*
Y34550D01*
X29200Y34500D01*
X29100D01*
X29050Y34550D01*
X28750Y34800D02*
X28950D01*
Y34650D01*
X28850Y34700D01*
X28800D01*
X28750Y34650D01*
Y34550D01*
X28800Y34500D01*
X28900D01*
X28950Y34550D01*
X28650Y34750D02*
X28600Y34800D01*
X28500D01*
X28450Y34750D01*
Y34700D01*
X28500Y34650D01*
X28450Y34600D01*
Y34550D01*
X28500Y34500D01*
X28600D01*
X28650Y34550D01*
Y34600D01*
X28600Y34650D01*
X28650Y34700D01*
Y34750D01*
X28600Y34650D02*
X28500D01*
X33550Y31400D02*
X33500Y31450D01*
Y31550D01*
X33550Y31600D01*
X33750D01*
X33800Y31550D01*
Y31450D01*
X33750Y31400D01*
X33500Y31100D02*
Y31300D01*
X33650D01*
X33600Y31200D01*
Y31150D01*
X33650Y31100D01*
X33750D01*
X33800Y31150D01*
Y31250D01*
X33750Y31300D01*
X33500Y31000D02*
Y30800D01*
X33550D01*
X33750Y31000D01*
X33800D01*
X29600Y30200D02*
X29550Y30250D01*
Y30350D01*
X29600Y30400D01*
X29800D01*
X29850Y30350D01*
Y30250D01*
X29800Y30200D01*
X29550Y29900D02*
Y30100D01*
X29700D01*
X29650Y30000D01*
Y29950D01*
X29700Y29900D01*
X29800D01*
X29850Y29950D01*
Y30050D01*
X29800Y30100D01*
X29550Y29600D02*
X29600Y29700D01*
X29700Y29800D01*
X29800D01*
X29850Y29750D01*
Y29650D01*
X29800Y29600D01*
X29750D01*
X29700Y29650D01*
Y29800D01*
X50300Y30850D02*
X50350Y30900D01*
X50450D01*
X50500Y30850D01*
Y30650D01*
X50450Y30600D01*
X50350D01*
X50300Y30650D01*
X50200Y30850D02*
X50150Y30900D01*
X50050D01*
X50000Y30850D01*
Y30800D01*
X50050Y30750D01*
X50100D01*
X50050D01*
X50000Y30700D01*
Y30650D01*
X50050Y30600D01*
X50150D01*
X50200Y30650D01*
X49900Y30900D02*
X49700D01*
Y30850D01*
X49900Y30650D01*
Y30600D01*
X54900Y30700D02*
X54950Y30750D01*
X55050D01*
X55100Y30700D01*
Y30500D01*
X55050Y30450D01*
X54950D01*
X54900Y30500D01*
X54800Y30700D02*
X54750Y30750D01*
X54650D01*
X54600Y30700D01*
Y30650D01*
X54650Y30600D01*
X54700D01*
X54650D01*
X54600Y30550D01*
Y30500D01*
X54650Y30450D01*
X54750D01*
X54800Y30500D01*
X54300Y30750D02*
X54400Y30700D01*
X54500Y30600D01*
Y30500D01*
X54450Y30450D01*
X54350D01*
X54300Y30500D01*
Y30550D01*
X54350Y30600D01*
X54500D01*
X49250Y33500D02*
X49300Y33550D01*
X49400D01*
X49450Y33500D01*
Y33300D01*
X49400Y33250D01*
X49300D01*
X49250Y33300D01*
X49150Y33500D02*
X49100Y33550D01*
X49000D01*
X48950Y33500D01*
Y33450D01*
X49000Y33400D01*
X49050D01*
X49000D01*
X48950Y33350D01*
Y33300D01*
X49000Y33250D01*
X49100D01*
X49150Y33300D01*
X48650Y33550D02*
X48850D01*
Y33400D01*
X48750Y33450D01*
X48700D01*
X48650Y33400D01*
Y33300D01*
X48700Y33250D01*
X48800D01*
X48850Y33300D01*
X55950Y33450D02*
X56000Y33500D01*
X56100D01*
X56150Y33450D01*
Y33250D01*
X56100Y33200D01*
X56000D01*
X55950Y33250D01*
X55850Y33450D02*
X55800Y33500D01*
X55700D01*
X55650Y33450D01*
Y33400D01*
X55700Y33350D01*
X55750D01*
X55700D01*
X55650Y33300D01*
Y33250D01*
X55700Y33200D01*
X55800D01*
X55850Y33250D01*
X55400Y33200D02*
Y33500D01*
X55550Y33350D01*
X55350D01*
X50600Y35800D02*
X50650Y35850D01*
X50750D01*
X50800Y35800D01*
Y35600D01*
X50750Y35550D01*
X50650D01*
X50600Y35600D01*
X50500Y35800D02*
X50450Y35850D01*
X50350D01*
X50300Y35800D01*
Y35750D01*
X50350Y35700D01*
X50400D01*
X50350D01*
X50300Y35650D01*
Y35600D01*
X50350Y35550D01*
X50450D01*
X50500Y35600D01*
X50200Y35800D02*
X50150Y35850D01*
X50050D01*
X50000Y35800D01*
Y35750D01*
X50050Y35700D01*
X50100D01*
X50050D01*
X50000Y35650D01*
Y35600D01*
X50050Y35550D01*
X50150D01*
X50200Y35600D01*
X54950Y35800D02*
X55000Y35850D01*
X55100D01*
X55150Y35800D01*
Y35600D01*
X55100Y35550D01*
X55000D01*
X54950Y35600D01*
X54850Y35800D02*
X54800Y35850D01*
X54700D01*
X54650Y35800D01*
Y35750D01*
X54700Y35700D01*
X54750D01*
X54700D01*
X54650Y35650D01*
Y35600D01*
X54700Y35550D01*
X54800D01*
X54850Y35600D01*
X54350Y35550D02*
X54550D01*
X54350Y35750D01*
Y35800D01*
X54400Y35850D01*
X54500D01*
X54550Y35800D01*
X55030Y51110D02*
G03*
X55030Y51110I-230J0D01*
G01*
Y48750D02*
G03*
X55030Y48750I-230J0D01*
G01*
X49505D02*
G03*
X49505Y48750I-230J0D01*
G01*
Y51110D02*
G03*
X49505Y51110I-230J0D01*
G01*
X38170Y13853D02*
X39303D01*
X38170Y19456D02*
X39170Y19460D01*
X39800Y30930D02*
X41800D01*
X39770Y21060D02*
Y23460D01*
X39110D02*
X39770D01*
X39170Y21060D02*
X39770D01*
X40770D02*
Y23460D01*
X44110Y21060D02*
Y21860D01*
X42510Y21060D02*
Y21860D01*
X40770Y23460D02*
X42510D01*
X43820Y30130D02*
Y31030D01*
X41800Y30130D02*
Y30930D01*
X39800Y30130D02*
Y30930D01*
X37800Y30130D02*
Y31030D01*
X36310Y30130D02*
X37800D01*
X43820Y31030D02*
X45820D01*
X43820Y30130D02*
X45310D01*
X39800D02*
X41800D01*
X35800Y31030D02*
X37800D01*
X39303Y13853D02*
X44910Y19460D01*
X36570Y13853D02*
X38170D01*
X36570D02*
Y15453D01*
Y17053D02*
Y18653D01*
Y15453D02*
X38170D01*
X36570Y17053D02*
X38170D01*
X36570Y18653D02*
X38170D01*
Y15453D02*
Y17053D01*
Y18653D02*
Y19453D01*
X39170Y19460D02*
Y21060D01*
X40770Y19460D02*
Y21060D01*
Y19460D02*
X42510D01*
X44110D02*
X44910D01*
X42510D02*
Y21060D01*
X44110Y19460D02*
Y21060D01*
X37510Y21860D02*
X39110D01*
X44110D02*
Y23460D01*
X42510Y21860D02*
Y23460D01*
X37510Y21860D02*
Y23460D01*
X39110Y21860D02*
Y23460D01*
X44110D02*
X45310D01*
X36310D02*
X37510D01*
X36310D02*
Y30130D01*
X45310Y23460D02*
Y30130D01*
X45820Y19220D02*
Y31030D01*
X35800Y19220D02*
Y31030D01*
X45820Y19220D02*
X47920D01*
X33700D02*
X35800D01*
X47920Y17620D02*
Y19220D01*
X33700Y17620D02*
Y19220D01*
X47920Y17620D02*
X59120D01*
X22500D02*
X33700D01*
X22500D02*
Y53120D01*
X59120D01*
Y17620D02*
Y53120D01*
D11*
X28959Y30947D02*
G03*
X28959Y30947I-59J0D01*
G01*
X29261Y30194D02*
G03*
X29261Y30194I-59J0D01*
G01*
X32059Y30947D02*
G03*
X32059Y30947I-59J0D01*
G01*
X32361Y30194D02*
G03*
X32361Y30194I-59J0D01*
G01*
X53559Y35150D02*
G03*
X53559Y35150I-59J0D01*
G01*
X52812Y34850D02*
G03*
X52812Y34850I-59J0D01*
G01*
D15*
X29164Y30651D02*
Y31849D01*
X27136D02*
X29164D01*
X27136Y30651D02*
Y31849D01*
Y30651D02*
X29164D01*
X32264D02*
Y31849D01*
X30236D02*
X32264D01*
X30236Y30651D02*
Y31849D01*
Y30651D02*
X32264D01*
X28160Y28455D02*
Y28832D01*
X27640Y28455D02*
X28160D01*
X27640D02*
Y28832D01*
X28160Y29168D02*
Y29545D01*
X27640D02*
X28160D01*
X27640Y29168D02*
Y29545D01*
X31260Y28455D02*
Y28832D01*
X30740Y28455D02*
X31260D01*
X30740D02*
Y28832D01*
X31260Y29168D02*
Y29545D01*
X30740D02*
X31260D01*
X30740Y29168D02*
Y29545D01*
X26017Y25205D02*
Y25582D01*
X25497Y25205D02*
X26017D01*
X25497D02*
Y25582D01*
X26017Y25918D02*
Y26295D01*
X25497D02*
X26017D01*
X25497Y25918D02*
Y26295D01*
X27366Y25205D02*
Y25582D01*
X26846Y25205D02*
X27366D01*
X26846D02*
Y25582D01*
X27366Y25918D02*
Y26295D01*
X26846D02*
X27366D01*
X26846Y25918D02*
Y26295D01*
X28714Y25205D02*
Y25582D01*
X28194Y25205D02*
X28714D01*
X28194D02*
Y25582D01*
X28714Y25918D02*
Y26295D01*
X28194D02*
X28714D01*
X28194Y25918D02*
Y26295D01*
X29543Y25918D02*
Y26295D01*
X30063D01*
Y25918D02*
Y26295D01*
X29543Y25205D02*
Y25582D01*
Y25205D02*
X30063D01*
Y25582D01*
X30891Y25918D02*
Y26295D01*
X31411D01*
Y25918D02*
Y26295D01*
X30891Y25205D02*
Y25582D01*
Y25205D02*
X31411D01*
Y25582D01*
X32240Y25918D02*
Y26295D01*
X32760D01*
Y25918D02*
Y26295D01*
X32240Y25205D02*
Y25582D01*
Y25205D02*
X32760D01*
Y25582D01*
X50011Y25968D02*
Y26345D01*
X50531D01*
Y25968D02*
Y26345D01*
X50011Y25255D02*
Y25632D01*
Y25255D02*
X50531D01*
Y25632D01*
X51593Y25255D02*
Y25632D01*
X51073Y25255D02*
X51593D01*
X51073D02*
Y25632D01*
X51593Y25968D02*
Y26345D01*
X51073D02*
X51593D01*
X51073Y25968D02*
Y26345D01*
X52656Y25255D02*
Y25632D01*
X52136Y25255D02*
X52656D01*
X52136D02*
Y25632D01*
X52656Y25968D02*
Y26345D01*
X52136D02*
X52656D01*
X52136Y25968D02*
Y26345D01*
X53718Y25255D02*
Y25632D01*
X53198Y25255D02*
X53718D01*
X53198D02*
Y25632D01*
X53718Y25968D02*
Y26345D01*
X53198D02*
X53718D01*
X53198Y25968D02*
Y26345D01*
X54260Y25968D02*
Y26345D01*
X54781D01*
Y25968D02*
Y26345D01*
X54260Y25255D02*
Y25632D01*
Y25255D02*
X54781D01*
Y25632D01*
X55323Y25968D02*
Y26345D01*
X55843D01*
Y25968D02*
Y26345D01*
X55323Y25255D02*
Y25632D01*
Y25255D02*
X55843D01*
Y25632D01*
X48860Y31205D02*
Y31582D01*
X48340Y31205D02*
X48860D01*
X48340D02*
Y31582D01*
X48860Y31918D02*
Y32295D01*
X48340D02*
X48860D01*
X48340Y31918D02*
Y32295D01*
X49094Y31918D02*
Y32295D01*
X49614D01*
Y31918D02*
Y32295D01*
X49094Y31205D02*
Y31582D01*
Y31205D02*
X49614D01*
Y31582D01*
X48860Y34148D02*
Y34525D01*
X48340Y34148D02*
X48860D01*
X48340D02*
Y34525D01*
X48860Y34861D02*
Y35238D01*
X48340D02*
X48860D01*
X48340Y34861D02*
Y35238D01*
X49614Y34148D02*
Y34525D01*
X49094Y34148D02*
X49614D01*
X49094D02*
Y34525D01*
X49614Y34861D02*
Y35238D01*
X49094D02*
X49614D01*
X49094Y34861D02*
Y35238D01*
X56039Y31121D02*
Y31499D01*
X55519Y31121D02*
X56039D01*
X55519D02*
Y31499D01*
X56039Y31834D02*
Y32212D01*
X55519D02*
X56039D01*
X55519Y31834D02*
Y32212D01*
X56910Y31121D02*
Y31499D01*
X56390Y31121D02*
X56910D01*
X56390D02*
Y31499D01*
X56910Y31834D02*
Y32212D01*
X56390D02*
X56910D01*
X56390Y31834D02*
Y32212D01*
X53049Y31121D02*
Y35079D01*
X51851Y31121D02*
X53049D01*
X51851D02*
Y35079D01*
X53049D01*
X56039Y34148D02*
Y34525D01*
X55519Y34148D02*
X56039D01*
X55519D02*
Y34525D01*
X56039Y34861D02*
Y35238D01*
X55519D02*
X56039D01*
X55519Y34861D02*
Y35238D01*
X56390Y34861D02*
Y35238D01*
X56910D01*
Y34861D02*
Y35238D01*
X56390Y34148D02*
Y34525D01*
Y34148D02*
X56910D01*
Y34525D01*
D16*
X24130Y19675D02*
X24180D01*
X24150Y19200D02*
X24250Y19300D01*
X24050D02*
X24150Y19200D01*
Y19450D01*
X23800Y19125D02*
X24500D01*
X23800D02*
Y19425D01*
X24500Y19125D02*
Y19425D01*
X23600D02*
X23800D01*
X24500D02*
X24700D01*
Y19925D01*
X23600Y19425D02*
Y19925D01*
X24700D01*
X24180Y19600D02*
Y19750D01*
X26105Y19675D02*
X26155D01*
X26125Y19200D02*
X26225Y19300D01*
X26025D02*
X26125Y19200D01*
Y19450D01*
X25775Y19125D02*
X26475D01*
X25775D02*
Y19425D01*
X26475Y19125D02*
Y19425D01*
X25575D02*
X25775D01*
X26475D02*
X26675D01*
Y19925D01*
X25575Y19425D02*
Y19925D01*
X26675D01*
X26155Y19600D02*
Y19750D01*
X28080Y19675D02*
X28130D01*
X28100Y19200D02*
X28200Y19300D01*
X28000D02*
X28100Y19200D01*
Y19450D01*
X27750Y19125D02*
X28450D01*
X27750D02*
Y19425D01*
X28450Y19125D02*
Y19425D01*
X27550D02*
X27750D01*
X28450D02*
X28650D01*
Y19925D01*
X27550Y19425D02*
Y19925D01*
X28650D01*
X28130Y19600D02*
Y19750D01*
X29105Y20575D02*
X29155D01*
X29125Y20100D02*
X29225Y20200D01*
X29025D02*
X29125Y20100D01*
Y20350D01*
X28775Y20025D02*
X29475D01*
X28775D02*
Y20325D01*
X29475Y20025D02*
Y20325D01*
X28575D02*
X28775D01*
X29475D02*
X29675D01*
Y20825D01*
X28575Y20325D02*
Y20825D01*
X29675D01*
X29155Y20500D02*
Y20650D01*
X30055Y19675D02*
X30105D01*
X30075Y19200D02*
X30175Y19300D01*
X29975D02*
X30075Y19200D01*
Y19450D01*
X29725Y19125D02*
X30425D01*
X29725D02*
Y19425D01*
X30425Y19125D02*
Y19425D01*
X29525D02*
X29725D01*
X30425D02*
X30625D01*
Y19925D01*
X29525Y19425D02*
Y19925D01*
X30625D01*
X30105Y19600D02*
Y19750D01*
X32030Y19675D02*
X32080D01*
X32050Y19200D02*
X32150Y19300D01*
X31950D02*
X32050Y19200D01*
Y19450D01*
X31700Y19125D02*
X32400D01*
X31700D02*
Y19425D01*
X32400Y19125D02*
Y19425D01*
X31500D02*
X31700D01*
X32400D02*
X32600D01*
Y19925D01*
X31500Y19425D02*
Y19925D01*
X32600D01*
X32080Y19600D02*
Y19750D01*
X48580Y20575D02*
X48630D01*
X48600Y20100D02*
X48700Y20200D01*
X48500D02*
X48600Y20100D01*
Y20350D01*
X48250Y20025D02*
X48950D01*
X48250D02*
Y20325D01*
X48950Y20025D02*
Y20325D01*
X48050D02*
X48250D01*
X48950D02*
X49150D01*
Y20825D01*
X48050Y20325D02*
Y20825D01*
X49150D01*
X48630Y20500D02*
Y20650D01*
X49830Y19675D02*
X49880D01*
X49850Y19200D02*
X49950Y19300D01*
X49750D02*
X49850Y19200D01*
Y19450D01*
X49500Y19125D02*
X50200D01*
X49500D02*
Y19425D01*
X50200Y19125D02*
Y19425D01*
X49300D02*
X49500D01*
X50200D02*
X50400D01*
Y19925D01*
X49300Y19425D02*
Y19925D01*
X50400D01*
X49880Y19600D02*
Y19750D01*
X51743Y19675D02*
X51792D01*
X51762Y19200D02*
X51863Y19300D01*
X51663D02*
X51762Y19200D01*
Y19450D01*
X51413Y19125D02*
X52112D01*
X51413D02*
Y19425D01*
X52112Y19125D02*
Y19425D01*
X51213D02*
X51413D01*
X52112D02*
X52312D01*
Y19925D01*
X51213Y19425D02*
Y19925D01*
X52312D01*
X51792Y19600D02*
Y19750D01*
X53655Y19675D02*
X53705D01*
X53675Y19200D02*
X53775Y19300D01*
X53575D02*
X53675Y19200D01*
Y19450D01*
X53325Y19125D02*
X54025D01*
X53325D02*
Y19425D01*
X54025Y19125D02*
Y19425D01*
X53125D02*
X53325D01*
X54025D02*
X54225D01*
Y19925D01*
X53125Y19425D02*
Y19925D01*
X54225D01*
X53705Y19600D02*
Y19750D01*
X55567Y19675D02*
X55617D01*
X55588Y19200D02*
X55687Y19300D01*
X55487D02*
X55588Y19200D01*
Y19450D01*
X55237Y19125D02*
X55938D01*
X55237D02*
Y19425D01*
X55938Y19125D02*
Y19425D01*
X55037D02*
X55237D01*
X55938D02*
X56137D01*
Y19925D01*
X55037Y19425D02*
Y19925D01*
X56137D01*
X55617Y19600D02*
Y19750D01*
X57480Y19675D02*
X57530D01*
X57500Y19200D02*
X57600Y19300D01*
X57400D02*
X57500Y19200D01*
Y19450D01*
X57150Y19125D02*
X57850D01*
X57150D02*
Y19425D01*
X57850Y19125D02*
Y19425D01*
X56950D02*
X57150D01*
X57850D02*
X58050D01*
Y19925D01*
X56950Y19425D02*
Y19925D01*
X58050D01*
X57530Y19600D02*
Y19750D01*
X56530Y20575D02*
X56580D01*
X56550Y20100D02*
X56650Y20200D01*
X56450D02*
X56550Y20100D01*
Y20350D01*
X56200Y20025D02*
X56900D01*
X56200D02*
Y20325D01*
X56900Y20025D02*
Y20325D01*
X56000D02*
X56200D01*
X56900D02*
X57100D01*
Y20825D01*
X56000Y20325D02*
Y20825D01*
X57100D01*
X56580Y20500D02*
Y20650D01*
X25330Y20500D02*
Y20650D01*
X24750Y20825D02*
X25850D01*
X24750Y20325D02*
Y20825D01*
X25850Y20325D02*
Y20825D01*
X25650Y20325D02*
X25850D01*
X24750D02*
X24950D01*
X25650Y20025D02*
Y20325D01*
X24950Y20025D02*
Y20325D01*
Y20025D02*
X25650D01*
X25300Y20100D02*
Y20350D01*
X25200Y20200D02*
X25300Y20100D01*
X25400Y20200D01*
X25280Y20575D02*
X25330D01*
X27243Y20500D02*
Y20650D01*
X26662Y20825D02*
X27762D01*
X26662Y20325D02*
Y20825D01*
X27762Y20325D02*
Y20825D01*
X27562Y20325D02*
X27762D01*
X26662D02*
X26862D01*
X27562Y20025D02*
Y20325D01*
X26862Y20025D02*
Y20325D01*
Y20025D02*
X27562D01*
X27213Y20100D02*
Y20350D01*
X27113Y20200D02*
X27213Y20100D01*
X27313Y20200D01*
X27192Y20575D02*
X27243D01*
X31068Y20500D02*
Y20650D01*
X30487Y20825D02*
X31588D01*
X30487Y20325D02*
Y20825D01*
X31588Y20325D02*
Y20825D01*
X31388Y20325D02*
X31588D01*
X30487D02*
X30687D01*
X31388Y20025D02*
Y20325D01*
X30687Y20025D02*
Y20325D01*
Y20025D02*
X31388D01*
X31037Y20100D02*
Y20350D01*
X30938Y20200D02*
X31037Y20100D01*
X31137Y20200D01*
X31017Y20575D02*
X31068D01*
X32980Y20500D02*
Y20650D01*
X32400Y20825D02*
X33500D01*
X32400Y20325D02*
Y20825D01*
X33500Y20325D02*
Y20825D01*
X33300Y20325D02*
X33500D01*
X32400D02*
X32600D01*
X33300Y20025D02*
Y20325D01*
X32600Y20025D02*
Y20325D01*
Y20025D02*
X33300D01*
X32950Y20100D02*
Y20350D01*
X32850Y20200D02*
X32950Y20100D01*
X33050Y20200D01*
X32930Y20575D02*
X32980D01*
X50617Y20500D02*
Y20650D01*
X50037Y20825D02*
X51137D01*
X50037Y20325D02*
Y20825D01*
X51137Y20325D02*
Y20825D01*
X50938Y20325D02*
X51137D01*
X50037D02*
X50237D01*
X50938Y20025D02*
Y20325D01*
X50237Y20025D02*
Y20325D01*
Y20025D02*
X50938D01*
X50588Y20100D02*
Y20350D01*
X50487Y20200D02*
X50588Y20100D01*
X50687Y20200D01*
X50567Y20575D02*
X50617D01*
X54592Y20500D02*
Y20650D01*
X54012Y20825D02*
X55113D01*
X54012Y20325D02*
Y20825D01*
X55113Y20325D02*
Y20825D01*
X54913Y20325D02*
X55113D01*
X54012D02*
X54212D01*
X54913Y20025D02*
Y20325D01*
X54212Y20025D02*
Y20325D01*
Y20025D02*
X54913D01*
X54563Y20100D02*
Y20350D01*
X54462Y20200D02*
X54563Y20100D01*
X54662Y20200D01*
X54542Y20575D02*
X54592D01*
X52605Y20500D02*
Y20650D01*
X52025Y20825D02*
X53125D01*
X52025Y20325D02*
Y20825D01*
X53125Y20325D02*
Y20825D01*
X52925Y20325D02*
X53125D01*
X52025D02*
X52225D01*
X52925Y20025D02*
Y20325D01*
X52225Y20025D02*
Y20325D01*
Y20025D02*
X52925D01*
X52575Y20100D02*
Y20350D01*
X52475Y20200D02*
X52575Y20100D01*
X52675Y20200D01*
X52555Y20575D02*
X52605D01*
D18*
X58620Y35370D02*
D03*
X23000D02*
D03*
D91*
X37850Y38159D02*
Y38559D01*
X38050Y38759D01*
X38250Y38559D01*
Y38159D01*
Y38459D01*
X37850D01*
X38450Y38559D02*
Y38259D01*
X38550Y38159D01*
X38850D01*
Y38559D01*
X39449Y38759D02*
Y38159D01*
X39150D01*
X39050Y38259D01*
Y38459D01*
X39150Y38559D01*
X39449D01*
X39649Y38159D02*
X39849D01*
X39749D01*
Y38559D01*
X39649D01*
X40249Y38159D02*
X40449D01*
X40549Y38259D01*
Y38459D01*
X40449Y38559D01*
X40249D01*
X40149Y38459D01*
Y38259D01*
X40249Y38159D01*
X40749Y38759D02*
Y38159D01*
X41049D01*
X41149Y38259D01*
Y38359D01*
X41049Y38459D01*
X40749D01*
X41049D01*
X41149Y38559D01*
Y38659D01*
X41049Y38759D01*
X40749D01*
X41449Y38159D02*
X41649D01*
X41749Y38259D01*
Y38459D01*
X41649Y38559D01*
X41449D01*
X41349Y38459D01*
Y38259D01*
X41449Y38159D01*
X41949Y38559D02*
X42349Y38159D01*
X42149Y38359D01*
X42349Y38559D01*
X41949Y38159D01*
X42548D02*
Y38559D01*
X42748Y38759D01*
X42948Y38559D01*
Y38159D01*
Y38459D01*
X42548D01*
X43148Y38159D02*
Y38559D01*
X43248D01*
X43348Y38459D01*
Y38159D01*
Y38459D01*
X43448Y38559D01*
X43548Y38459D01*
Y38159D01*
X43748Y37959D02*
Y38559D01*
X44048D01*
X44148Y38459D01*
Y38259D01*
X44048Y38159D01*
X43748D01*
X44348Y38059D02*
X44748D01*
X44948Y38759D02*
Y38359D01*
X45148Y38159D01*
X45348Y38359D01*
Y38759D01*
X45947Y38159D02*
X45548D01*
X45947Y38559D01*
Y38659D01*
X45847Y38759D01*
X45647D01*
X45548Y38659D01*
X46147Y38159D02*
Y38259D01*
X46247D01*
Y38159D01*
X46147D01*
X46647Y38659D02*
X46747Y38759D01*
X46947D01*
X47047Y38659D01*
Y38259D01*
X46947Y38159D01*
X46747D01*
X46647Y38259D01*
Y38659D01*
X37850Y37480D02*
Y36880D01*
X38150D01*
X38250Y36980D01*
Y37080D01*
X38150Y37180D01*
X37850D01*
X38150D01*
X38250Y37280D01*
Y37380D01*
X38150Y37480D01*
X37850D01*
X38450Y37280D02*
Y36980D01*
X38550Y36880D01*
X38850D01*
Y36780D01*
X38750Y36680D01*
X38650D01*
X38850Y36880D02*
Y37280D01*
X39649Y37480D02*
Y36880D01*
X40049D01*
X40549D02*
X40349D01*
X40249Y36980D01*
Y37180D01*
X40349Y37280D01*
X40549D01*
X40649Y37180D01*
Y37080D01*
X40249D01*
X40849Y37280D02*
X41049Y36880D01*
X41249Y37280D01*
X41749Y36880D02*
X41549D01*
X41449Y36980D01*
Y37180D01*
X41549Y37280D01*
X41749D01*
X41849Y37180D01*
Y37080D01*
X41449D01*
X42049Y36880D02*
Y37280D01*
X42349D01*
X42449Y37180D01*
Y36880D01*
X42748Y37380D02*
Y37280D01*
X42648D01*
X42848D01*
X42748D01*
Y36980D01*
X42848Y36880D01*
X38250Y35600D02*
X37850D01*
X38250Y36000D01*
Y36100D01*
X38150Y36200D01*
X37950D01*
X37850Y36100D01*
X38450D02*
X38550Y36200D01*
X38750D01*
X38850Y36100D01*
Y35700D01*
X38750Y35600D01*
X38550D01*
X38450Y35700D01*
Y36100D01*
X39449Y35600D02*
X39050D01*
X39449Y36000D01*
Y36100D01*
X39350Y36200D01*
X39150D01*
X39050Y36100D01*
X40049Y35600D02*
X39649D01*
X40049Y36000D01*
Y36100D01*
X39949Y36200D01*
X39749D01*
X39649Y36100D01*
X40249Y35900D02*
X40649D01*
X40849Y36100D02*
X40949Y36200D01*
X41149D01*
X41249Y36100D01*
Y35700D01*
X41149Y35600D01*
X40949D01*
X40849Y35700D01*
Y36100D01*
X41849Y36200D02*
X41449D01*
Y35900D01*
X41649Y36000D01*
X41749D01*
X41849Y35900D01*
Y35700D01*
X41749Y35600D01*
X41549D01*
X41449Y35700D01*
X42049Y35900D02*
X42449D01*
X43048Y35600D02*
X42648D01*
X43048Y36000D01*
Y36100D01*
X42948Y36200D01*
X42748D01*
X42648Y36100D01*
X43248Y36200D02*
X43648D01*
Y36100D01*
X43248Y35700D01*
Y35600D01*
D140*
X24200Y40771D02*
G03*
X24200Y40771I-0J79D01*
G01*
X28638D02*
G03*
X28637Y40771I-0J79D01*
G01*
X33075D02*
G03*
X33075Y40771I-0J79D01*
G01*
X37513D02*
G03*
X37512Y40771I-0J79D01*
G01*
X41950D02*
G03*
X41950Y40771I-0J79D01*
G01*
M02*
