G04*
G04 #@! TF.GenerationSoftware,Altium Limited,Altium Designer,20.2.6 (244)*
G04*
G04 Layer_Color=32768*
%FSLAX24Y24*%
%MOIN*%
G70*
G04*
G04 #@! TF.SameCoordinates,939C5B67-7932-4E13-932B-422522EE1AF6*
G04*
G04*
G04 #@! TF.FilePolarity,Positive*
G04*
G01*
G75*
%ADD10C,0.0100*%
%ADD11C,0.0118*%
%ADD13C,0.0236*%
%ADD14C,0.0059*%
%ADD140C,0.0157*%
%ADD142C,0.0197*%
%ADD143C,0.0079*%
G36*
X32631Y51587D02*
X30269D01*
Y53358D01*
X30387D01*
Y51666D01*
X32513D01*
Y53358D01*
X32631D01*
Y51587D01*
D02*
G37*
G36*
X44939Y46048D02*
X45161D01*
Y45969D01*
X44939D01*
Y45852D01*
X44861D01*
Y45969D01*
X44639D01*
Y46048D01*
X44861D01*
Y46165D01*
X44939D01*
Y46048D01*
D02*
G37*
G36*
X43646Y45852D02*
X43568D01*
Y46165D01*
X43646D01*
Y45852D01*
D02*
G37*
G36*
X42339Y46048D02*
X42561D01*
Y45969D01*
X42339D01*
Y45852D01*
X42261D01*
Y45969D01*
X42039D01*
Y46048D01*
X42261D01*
Y46165D01*
X42339D01*
Y46048D01*
D02*
G37*
G36*
X44939Y44235D02*
X44861D01*
Y44548D01*
X44939D01*
Y44235D01*
D02*
G37*
G36*
X43646Y44431D02*
X43868D01*
Y44352D01*
X43646D01*
Y44235D01*
X43568D01*
Y44352D01*
X43346D01*
Y44431D01*
X43568D01*
Y44548D01*
X43646D01*
Y44431D01*
D02*
G37*
G36*
X42339Y44235D02*
X42261D01*
Y44548D01*
X42339D01*
Y44235D01*
D02*
G37*
G36*
X27639Y30852D02*
X27561D01*
Y31165D01*
X27639D01*
Y30852D01*
D02*
G37*
G36*
Y29431D02*
X27861D01*
Y29352D01*
X27639D01*
Y29235D01*
X27561D01*
Y29352D01*
X27339D01*
Y29431D01*
X27561D01*
Y29548D01*
X27639D01*
Y29431D01*
D02*
G37*
D10*
X55030Y51110D02*
G03*
X55030Y51110I-230J0D01*
G01*
Y48750D02*
G03*
X55030Y48750I-230J0D01*
G01*
X49505D02*
G03*
X49505Y48750I-230J0D01*
G01*
Y51110D02*
G03*
X49505Y51110I-230J0D01*
G01*
X38170Y13853D02*
X39303D01*
X38170Y19456D02*
X39170Y19460D01*
X39800Y30930D02*
X41800D01*
X39770Y21060D02*
Y23460D01*
X39110D02*
X39770D01*
X39170Y21060D02*
X39770D01*
X40770D02*
Y23460D01*
X44110Y21060D02*
Y21860D01*
X42510Y21060D02*
Y21860D01*
X40770Y23460D02*
X42510D01*
X43820Y30130D02*
Y31030D01*
X41800Y30130D02*
Y30930D01*
X39800Y30130D02*
Y30930D01*
X37800Y30130D02*
Y31030D01*
X36310Y30130D02*
X37800D01*
X43820Y31030D02*
X45820D01*
X43820Y30130D02*
X45310D01*
X39800D02*
X41800D01*
X35800Y31030D02*
X37800D01*
X39303Y13853D02*
X44910Y19460D01*
X36570Y13853D02*
X38170D01*
X36570D02*
Y15453D01*
Y17053D02*
Y18653D01*
Y15453D02*
X38170D01*
X36570Y17053D02*
X38170D01*
X36570Y18653D02*
X38170D01*
Y15453D02*
Y17053D01*
Y18653D02*
Y19453D01*
X39170Y19460D02*
Y21060D01*
X40770Y19460D02*
Y21060D01*
Y19460D02*
X42510D01*
X44110D02*
X44910D01*
X42510D02*
Y21060D01*
X44110Y19460D02*
Y21060D01*
X37510Y21860D02*
X39110D01*
X44110D02*
Y23460D01*
X42510Y21860D02*
Y23460D01*
X37510Y21860D02*
Y23460D01*
X39110Y21860D02*
Y23460D01*
X44110D02*
X45310D01*
X36310D02*
X37510D01*
X36310D02*
Y30130D01*
X45310Y23460D02*
Y30130D01*
X45820Y19220D02*
Y31030D01*
X35800Y19220D02*
Y31030D01*
X45820Y19220D02*
X47920D01*
X33700D02*
X35800D01*
X47920Y17620D02*
Y19220D01*
X33700Y17620D02*
Y19220D01*
X47920Y17620D02*
X59120D01*
X22500D02*
X33700D01*
X22500D02*
Y53120D01*
X59120D01*
Y17620D02*
Y53120D01*
D11*
X54149Y37000D02*
G03*
X54149Y37000I-59J0D01*
G01*
Y41800D02*
G03*
X54149Y41800I-59J0D01*
G01*
X28959Y29911D02*
G03*
X28959Y29911I-59J0D01*
G01*
X32059D02*
G03*
X32059Y29911I-59J0D01*
G01*
X32769Y50343D02*
G03*
X32769Y50343I-59J0D01*
G01*
D13*
X24318Y40850D02*
G03*
X24318Y40850I-118J0D01*
G01*
X28756D02*
G03*
X28756Y40850I-118J0D01*
G01*
X33193D02*
G03*
X33193Y40850I-118J0D01*
G01*
X37631D02*
G03*
X37631Y40850I-118J0D01*
G01*
X42068D02*
G03*
X42068Y40850I-118J0D01*
G01*
D14*
X26079Y50292D02*
G03*
X26079Y50292I-30J0D01*
G01*
D140*
X57817Y27343D02*
G03*
X57817Y27343I-79J0D01*
G01*
X33017D02*
G03*
X33017Y27343I-79J0D01*
G01*
D142*
X53887Y34850D02*
G03*
X53887Y34850I-98J0D01*
G01*
D143*
X30352Y50902D02*
G03*
X30352Y50902I-39J0D01*
G01*
X32627D02*
G03*
X32627Y50902I-39J0D01*
G01*
X43963Y52251D02*
G03*
X43963Y52251I-39J0D01*
G01*
M02*
