M48
;Layer_Color=9474304
;FILE_FORMAT=2:4
INCH,LZ
;TYPE=PLATED
T1F00S00C0.0160
T4F00S00C0.0300
T5F00S00C0.0394
T6F00S00C0.0400
T7F00S00C0.0472
;TYPE=NON_PLATED
T9F00S00C0.0256
T10F00S00C0.0512
%
T01
X0498Y02485
X0515
X05075Y0263
Y02805
X04948Y02808
X04905Y0293
X0487Y030445
X04815Y03065
X05305Y02835
X0553Y02845
X05565
X056
X05715Y02905
X0563Y0309
X03195Y028648
X029265Y02871
X03045Y03345
X0274Y033
X02895Y03855
X028843Y042357
X02765
X0267Y0427
Y0449
X0304Y0452
X03095
X03065Y04465
X03035Y04235
X02445Y0391
X03323Y03913
X03725Y03915
X0365Y04255
X03175Y04235
X0347Y03655
X03505
X03675Y0351
X043Y03475
X04495Y03215
X0465Y03315
X04565Y0447
X0511Y0438
X04875Y04095
X0482Y03765
X05105
X052636Y03785
X052275Y039475
X05293Y03435
X0537Y0339
X054
X0543
X05535Y03395
X05635Y0329
X0578Y0317
X05267Y0333
X0508Y03361
X04965Y0337
X0483Y03265
X0482Y03185
X0471Y03195
X0473Y0322
X0471Y03145
X04718Y03323
X05625Y04415
X0563Y0457
X05225Y0477
X0516Y0472
X04495Y04995
X04445
X031745Y049405
X031155Y049395
X02895Y05005
X02865
X02835
X02825Y05085
X0289Y0509
Y0518
X0282Y05175
X0276
X02735Y0513
X027Y05145
X02675Y0512
X02615Y05144
X0257Y05175
X0252Y0511
X02575Y047639
T04
X03916Y02818
X04246
X02425Y0332
Y0342
X0243Y043
Y044
Y04545
Y04645
X0311Y0433
X0321
X0331
X0341
T05
X04925Y02415
X05025
X05125
X05225
X05325
X05425
X05525
X05625
X05725
Y02715
X05625
X05525
X05425
X05325
X05225
X05125
X05025
X04925
X03245
X03145
Y02415
X03245
X03045
X02945
X02845
X02745
X02645
X02545
X02445
Y02715
X02545
X02645
X02745
X02845
X02945
X03045
T06
X049605Y021065
X050585Y023035
X048615
X032985
X032005Y021065
X031015Y023035
X026185Y029315
X024215
X025195Y031285
X038565Y043265
X040535
X039545Y045235
T07
X02495Y040798
X02595
X02695Y040802
X029388Y040798
X030387
X031388Y040802
X033825Y040798
X034825
X035825Y040802
X038263Y040798
X039262
X040262Y040802
X0427Y040798
X0437
X0447Y040802
X04405Y03375
X04305
X04205
X04105
X04005
X03905
X03805
X03705
X03605
X03505
Y03275
X03605
X03705
X03805
X03905
X04005
X04105
X04205
X04305
X04405
T09
X032592Y050902
X030308Y050898
T10
X03675Y0494
X038719
M30
