G04*
G04 #@! TF.GenerationSoftware,Altium Limited,Altium Designer,20.2.6 (244)*
G04*
G04 Layer_Color=255*
%FSLAX24Y24*%
%MOIN*%
G70*
G04*
G04 #@! TF.SameCoordinates,F8AEF4A7-C5AA-40DC-9DAC-891B57281ED6*
G04*
G04*
G04 #@! TF.FilePolarity,Positive*
G04*
G01*
G75*
%ADD22R,0.0354X0.0315*%
%ADD28R,0.0320X0.0320*%
%ADD34R,0.0340X0.0318*%
%ADD93C,0.0600*%
%ADD94O,0.1500X0.2200*%
%ADD95R,0.0709X0.1024*%
%ADD96O,0.0709X0.1024*%
%ADD97R,0.0709X0.0709*%
%ADD98C,0.0709*%
%ADD99C,0.0512*%
%ADD100R,0.0600X0.0600*%
%ADD101R,0.0630X0.0630*%
%ADD102C,0.0630*%
%ADD103R,0.0600X0.0600*%
%ADD104O,0.0600X0.0400*%
%ADD105R,0.0600X0.0400*%
%ADD106O,0.0600X0.1000*%
%ADD107C,0.0700*%
%ADD108R,0.0700X0.0700*%
%ADD109C,0.0256*%
%ADD110O,0.0394X0.0827*%
%ADD111O,0.0394X0.0709*%
%ADD134O,0.0248X0.0734*%
%ADD135O,0.0776X0.0237*%
D22*
X28700Y33876D02*
D03*
Y33324D02*
D03*
X31650Y33876D02*
D03*
Y33324D02*
D03*
X29650Y30974D02*
D03*
Y31526D02*
D03*
X32900Y30974D02*
D03*
Y31526D02*
D03*
X24450Y25998D02*
D03*
Y25446D02*
D03*
X49250Y26048D02*
D03*
Y25496D02*
D03*
X50150Y32026D02*
D03*
Y31474D02*
D03*
Y33526D02*
D03*
Y32974D02*
D03*
Y34940D02*
D03*
Y34389D02*
D03*
X54950Y31964D02*
D03*
Y31413D02*
D03*
X54900Y32899D02*
D03*
Y33450D02*
D03*
X54948Y34395D02*
D03*
Y34946D02*
D03*
X30900Y33882D02*
D03*
Y33331D02*
D03*
X27900Y33882D02*
D03*
Y33331D02*
D03*
D28*
X23850Y19675D02*
D03*
X24450D02*
D03*
X25825D02*
D03*
X26425D02*
D03*
X27800D02*
D03*
X28400D02*
D03*
X28825Y20575D02*
D03*
X29425D02*
D03*
X29775Y19675D02*
D03*
X30375D02*
D03*
X31750D02*
D03*
X32350D02*
D03*
X48300Y20575D02*
D03*
X48900D02*
D03*
X49550Y19675D02*
D03*
X50150D02*
D03*
X51462D02*
D03*
X52063D02*
D03*
X53375D02*
D03*
X53975D02*
D03*
X55287D02*
D03*
X55887D02*
D03*
X57200D02*
D03*
X57800D02*
D03*
X56250Y20575D02*
D03*
X56850D02*
D03*
X25600D02*
D03*
X25000D02*
D03*
X27513D02*
D03*
X26913D02*
D03*
X31337D02*
D03*
X30738D02*
D03*
X33250D02*
D03*
X32650D02*
D03*
X50887D02*
D03*
X50287D02*
D03*
X54862D02*
D03*
X54262D02*
D03*
X52875D02*
D03*
X52275D02*
D03*
D34*
X27900Y28703D02*
D03*
Y29297D02*
D03*
X31000Y28703D02*
D03*
Y29297D02*
D03*
X25757Y25453D02*
D03*
Y26047D02*
D03*
X27106Y25453D02*
D03*
Y26047D02*
D03*
X28454Y25453D02*
D03*
Y26047D02*
D03*
X29803D02*
D03*
Y25453D02*
D03*
X31151Y26047D02*
D03*
Y25453D02*
D03*
X32500Y26047D02*
D03*
Y25453D02*
D03*
X50271Y26097D02*
D03*
Y25503D02*
D03*
X51333D02*
D03*
Y26097D02*
D03*
X52396Y25503D02*
D03*
Y26097D02*
D03*
X53458Y25503D02*
D03*
Y26097D02*
D03*
X54520D02*
D03*
Y25503D02*
D03*
X55583Y26097D02*
D03*
Y25503D02*
D03*
X48600Y31453D02*
D03*
Y32047D02*
D03*
X49354D02*
D03*
Y31453D02*
D03*
X48600Y34396D02*
D03*
Y34989D02*
D03*
X49354Y34396D02*
D03*
Y34989D02*
D03*
X55779Y31370D02*
D03*
Y31963D02*
D03*
X56650Y31370D02*
D03*
Y31963D02*
D03*
X55779Y34396D02*
D03*
Y34989D02*
D03*
X56650D02*
D03*
Y34396D02*
D03*
D93*
X39160Y28180D02*
D03*
X42460D02*
D03*
X32100Y43300D02*
D03*
X31100D02*
D03*
X33100D02*
D03*
X24250Y33200D02*
D03*
X24300Y44000D02*
D03*
Y46450D02*
D03*
D94*
X37460Y23310D02*
D03*
X44160D02*
D03*
X37460Y26650D02*
D03*
X44160D02*
D03*
D95*
X24950Y40798D02*
D03*
X29388D02*
D03*
X33825D02*
D03*
X38263D02*
D03*
X42700D02*
D03*
D96*
X26950Y40802D02*
D03*
X25950Y40798D02*
D03*
X30387D02*
D03*
X31388Y40802D02*
D03*
X34825Y40798D02*
D03*
X35825Y40802D02*
D03*
X40262D02*
D03*
X39262Y40798D02*
D03*
X44700Y40802D02*
D03*
X43700Y40798D02*
D03*
D97*
X35050Y32750D02*
D03*
D98*
Y33750D02*
D03*
X36050Y32750D02*
D03*
Y33750D02*
D03*
X37050Y32750D02*
D03*
Y33750D02*
D03*
X38050Y32750D02*
D03*
Y33750D02*
D03*
X39050Y32750D02*
D03*
Y33750D02*
D03*
X40050Y32750D02*
D03*
Y33750D02*
D03*
X41050Y32750D02*
D03*
Y33750D02*
D03*
X42050Y32750D02*
D03*
Y33750D02*
D03*
X43050Y32750D02*
D03*
Y33750D02*
D03*
X44050Y32750D02*
D03*
Y33750D02*
D03*
D99*
X38719Y49400D02*
D03*
X36750D02*
D03*
D100*
X34100Y43300D02*
D03*
D101*
X57250Y27150D02*
D03*
X32450D02*
D03*
D102*
X56250D02*
D03*
X55250D02*
D03*
X54250D02*
D03*
X53250D02*
D03*
X52250D02*
D03*
X51250D02*
D03*
X50250D02*
D03*
X57250Y24150D02*
D03*
X56250D02*
D03*
X49250Y27150D02*
D03*
Y24150D02*
D03*
X50250D02*
D03*
X51250D02*
D03*
X52250D02*
D03*
X53250D02*
D03*
X54250D02*
D03*
X55250D02*
D03*
X31450Y27150D02*
D03*
X30450D02*
D03*
X29450D02*
D03*
X28450D02*
D03*
X27450D02*
D03*
X26450D02*
D03*
X25450D02*
D03*
X32450Y24150D02*
D03*
X31450D02*
D03*
X24450Y27150D02*
D03*
Y24150D02*
D03*
X25450D02*
D03*
X26450D02*
D03*
X27450D02*
D03*
X28450D02*
D03*
X29450D02*
D03*
X30450D02*
D03*
D103*
X24250Y34200D02*
D03*
X24300Y43000D02*
D03*
Y45450D02*
D03*
D104*
X28340Y22400D02*
D03*
X27550D02*
D03*
X26760D02*
D03*
X29130D02*
D03*
X55650D02*
D03*
X53280D02*
D03*
X54070D02*
D03*
X54860D02*
D03*
D105*
X25970D02*
D03*
X52490D02*
D03*
D106*
X25500Y18420D02*
D03*
X29600D02*
D03*
X56120D02*
D03*
X52020D02*
D03*
D107*
X25195Y31285D02*
D03*
X26185Y29315D02*
D03*
X32005Y21065D02*
D03*
X31015Y23035D02*
D03*
X49605Y21065D02*
D03*
X48615Y23035D02*
D03*
X39545Y45235D02*
D03*
X40535Y43265D02*
D03*
D108*
X24215Y29315D02*
D03*
X32985Y23035D02*
D03*
X50585D02*
D03*
X38565Y43265D02*
D03*
D109*
X32592Y50902D02*
D03*
X30308Y50898D02*
D03*
D110*
X33151Y50705D02*
D03*
X29749D02*
D03*
D111*
X33151Y52339D02*
D03*
X29749D02*
D03*
D134*
X28900Y30194D02*
D03*
X28400D02*
D03*
X27900D02*
D03*
X27400D02*
D03*
X28900Y32306D02*
D03*
X28400D02*
D03*
X27900D02*
D03*
X27400D02*
D03*
X32000Y30194D02*
D03*
X31500D02*
D03*
X31000D02*
D03*
X30500D02*
D03*
X32000Y32306D02*
D03*
X31500D02*
D03*
X31000D02*
D03*
X30500D02*
D03*
D135*
X51373Y31350D02*
D03*
Y31850D02*
D03*
Y32350D02*
D03*
Y32850D02*
D03*
Y33350D02*
D03*
Y33850D02*
D03*
Y34350D02*
D03*
Y34850D02*
D03*
X53527Y31350D02*
D03*
Y31850D02*
D03*
Y32350D02*
D03*
Y32850D02*
D03*
Y33350D02*
D03*
Y33850D02*
D03*
Y34350D02*
D03*
Y34850D02*
D03*
M02*
