G04*
G04 #@! TF.GenerationSoftware,Altium Limited,Altium Designer,20.2.6 (244)*
G04*
G04 Layer_Physical_Order=1*
G04 Layer_Color=255*
%FSLAX24Y24*%
%MOIN*%
G70*
G04*
G04 #@! TF.SameCoordinates,B6A14326-B2C9-468C-B45E-93355CF85A49*
G04*
G04*
G04 #@! TF.FilePolarity,Positive*
G04*
G01*
G75*
%ADD10C,0.0100*%
%ADD17C,0.0300*%
%ADD19R,0.0874X0.0580*%
%ADD20R,0.0340X0.0318*%
%ADD21R,0.0984X0.1496*%
%ADD22R,0.0669X0.0860*%
%ADD23R,0.0315X0.0354*%
%ADD24R,0.0318X0.0340*%
%ADD25R,0.0787X0.0236*%
%ADD26R,0.1500X0.1701*%
%ADD27O,0.0226X0.0802*%
%ADD28O,0.0400X0.1200*%
%ADD29R,0.0354X0.0315*%
%ADD30R,0.0315X0.0315*%
%ADD31R,0.0421X0.0209*%
%ADD32O,0.0138X0.0500*%
%ADD33O,0.0500X0.0138*%
%ADD34R,0.0866X0.0866*%
%ADD35R,0.0472X0.0551*%
%ADD36R,0.1361X0.0505*%
%ADD37R,0.0394X0.0217*%
%ADD38R,0.0800X0.0500*%
%ADD39R,0.0315X0.0315*%
%ADD40R,0.1200X0.0600*%
%ADD41O,0.0945X0.0226*%
%ADD42R,0.0580X0.0874*%
%ADD86C,0.0150*%
%ADD87C,0.0200*%
%ADD88C,0.0240*%
%ADD89C,0.0709*%
%ADD90R,0.0709X0.0709*%
%ADD91C,0.0700*%
%ADD92R,0.0700X0.0700*%
%ADD93R,0.0709X0.1024*%
%ADD94O,0.0709X0.1024*%
%ADD95O,0.0394X0.0709*%
%ADD96O,0.0394X0.0827*%
%ADD97C,0.0256*%
%ADD98R,0.0600X0.0600*%
%ADD99C,0.0600*%
%ADD100O,0.0600X0.0400*%
%ADD101R,0.0600X0.0400*%
%ADD102O,0.0600X0.1000*%
%ADD103C,0.0630*%
%ADD104R,0.0630X0.0630*%
%ADD105R,0.0630X0.0630*%
%ADD106R,0.0709X0.0709*%
%ADD107C,0.0240*%
%ADD108C,0.0500*%
%ADD109C,0.0280*%
G36*
X35850Y48252D02*
X35378D01*
Y48362D01*
X34938D01*
Y47945D01*
X35378D01*
Y48048D01*
X35850D01*
Y47371D01*
X35315Y46836D01*
X35207D01*
X35188Y46832D01*
X34973D01*
Y46417D01*
X34996D01*
Y45755D01*
X34974Y45732D01*
X34852D01*
Y45416D01*
X34807Y45404D01*
X34544D01*
Y46098D01*
X33460D01*
Y44502D01*
X34544D01*
Y44996D01*
X34807D01*
X34852Y44984D01*
X34852Y44946D01*
Y44668D01*
X35346D01*
Y44984D01*
X35280D01*
X35255Y45034D01*
X35261Y45042D01*
X35346D01*
Y45358D01*
X35303D01*
Y45416D01*
X35346D01*
Y45528D01*
X35388Y45592D01*
X35404Y45670D01*
Y46417D01*
X35427D01*
Y46434D01*
X35477Y46444D01*
X35543Y46488D01*
X35804Y46748D01*
X35850Y46729D01*
Y44896D01*
X35137Y44183D01*
X34971D01*
Y44179D01*
X33207D01*
X32540Y44846D01*
X32474Y44890D01*
X32396Y44906D01*
X32340D01*
Y46098D01*
X31255D01*
Y44790D01*
X31006Y44541D01*
X30962Y44475D01*
X30946Y44396D01*
Y43496D01*
X30765D01*
Y42536D01*
X31535D01*
Y43496D01*
X31354D01*
Y44312D01*
X31544Y44502D01*
X32120D01*
X32140Y44498D01*
X32311D01*
X32978Y43831D01*
X33044Y43787D01*
X33122Y43772D01*
X34971D01*
Y43768D01*
X35425D01*
Y43895D01*
X35577Y44047D01*
X35627Y44026D01*
Y43465D01*
X35471Y43310D01*
X35425Y43329D01*
Y43632D01*
X34971D01*
Y43628D01*
X34213D01*
X34135Y43613D01*
X34069Y43569D01*
X33996Y43496D01*
X33515D01*
Y43220D01*
X32906D01*
Y43496D01*
X32137D01*
Y42578D01*
X32120Y42574D01*
X32054Y42530D01*
X31288Y41764D01*
X31054D01*
X30998Y41820D01*
X30932Y41864D01*
X30854Y41879D01*
X30277D01*
Y41883D01*
X30255D01*
Y42367D01*
X30279D01*
Y42782D01*
X29825D01*
Y42367D01*
X29847D01*
Y41883D01*
X29823D01*
Y41468D01*
X30277D01*
Y41472D01*
X30765D01*
Y40804D01*
X30946D01*
Y39854D01*
X29200D01*
X29122Y39838D01*
X29056Y39794D01*
X29012Y39728D01*
X28996Y39650D01*
X29012Y39572D01*
X29056Y39506D01*
X29122Y39462D01*
X29200Y39446D01*
X31764D01*
X31842Y39462D01*
X31891Y39494D01*
X32448D01*
X32526Y39510D01*
X32592Y39554D01*
X32637Y39620D01*
X32652Y39698D01*
X32637Y39776D01*
X32592Y39842D01*
X32526Y39887D01*
X32448Y39902D01*
X31798D01*
X31720Y39887D01*
X31671Y39854D01*
X31354D01*
Y40804D01*
X31535D01*
Y41434D01*
X32283Y42182D01*
X34719D01*
X34767Y42177D01*
Y41723D01*
X34771D01*
Y41488D01*
X34285D01*
Y41764D01*
X33515D01*
Y40804D01*
X33696D01*
Y39890D01*
X33156Y39349D01*
X33050Y39363D01*
X32944Y39349D01*
X32846Y39309D01*
X32762Y39244D01*
X32697Y39159D01*
X32656Y39061D01*
X32642Y38956D01*
Y38641D01*
X32656Y38535D01*
X32697Y38437D01*
X32762Y38352D01*
X32846Y38287D01*
X32944Y38247D01*
X33050Y38233D01*
X33156Y38247D01*
X33254Y38287D01*
X33338Y38352D01*
X33403Y38437D01*
X33444Y38535D01*
X33458Y38641D01*
Y38956D01*
X33444Y39061D01*
X33984Y39602D01*
X35850D01*
Y39450D01*
X41367D01*
X41756Y39061D01*
X41742Y38956D01*
Y38641D01*
X41756Y38535D01*
X41797Y38437D01*
X41862Y38352D01*
X41946Y38287D01*
X42044Y38247D01*
X42150Y38233D01*
X42256Y38247D01*
X42354Y38287D01*
X42438Y38352D01*
X42503Y38437D01*
X42544Y38535D01*
X42558Y38641D01*
Y38956D01*
X42544Y39061D01*
X42503Y39159D01*
X42438Y39244D01*
X42354Y39309D01*
X42256Y39349D01*
X42150Y39363D01*
X42044Y39349D01*
X41990Y39404D01*
X42009Y39450D01*
X42966D01*
Y39321D01*
X42946Y39313D01*
X42862Y39248D01*
X42797Y39163D01*
X42756Y39065D01*
X42742Y38959D01*
Y38644D01*
X42756Y38539D01*
X41801Y37584D01*
X41505D01*
Y37780D01*
X41486Y37878D01*
X41430Y37960D01*
X41348Y38015D01*
X41250Y38035D01*
X41152Y38015D01*
X41070Y37960D01*
X41014Y37878D01*
X40995Y37780D01*
Y37584D01*
X40328D01*
X40250Y37568D01*
X40184Y37524D01*
X40011Y37351D01*
X39427D01*
Y37355D01*
X38973D01*
Y37228D01*
X37336Y35591D01*
X37292Y35525D01*
X37276Y35447D01*
Y33638D01*
X37212Y33588D01*
X37147Y33504D01*
X37106Y33406D01*
X37092Y33300D01*
X37106Y33194D01*
X37147Y33096D01*
X37212Y33012D01*
X37296Y32947D01*
X37394Y32906D01*
X37500Y32892D01*
X37606Y32906D01*
X37704Y32947D01*
X37788Y33012D01*
X37853Y33096D01*
X37894Y33194D01*
X37908Y33300D01*
X37894Y33406D01*
X37853Y33504D01*
X37788Y33588D01*
X37704Y33653D01*
X37684Y33661D01*
Y33745D01*
X37730Y33764D01*
X37804Y33690D01*
X37837Y33668D01*
X37876Y33661D01*
X38224D01*
X38241Y33611D01*
X38212Y33588D01*
X38147Y33504D01*
X38106Y33406D01*
X38092Y33300D01*
X38106Y33194D01*
X38147Y33096D01*
X38212Y33012D01*
X38296Y32947D01*
X38394Y32906D01*
X38500Y32892D01*
X38606Y32906D01*
X38682Y32938D01*
X38893Y32727D01*
Y32533D01*
X38843Y32517D01*
X38788Y32588D01*
X38704Y32653D01*
X38606Y32694D01*
X38500Y32708D01*
X38394Y32694D01*
X38296Y32653D01*
X38212Y32588D01*
X38147Y32504D01*
X38106Y32406D01*
X38092Y32300D01*
X38106Y32194D01*
X38147Y32096D01*
X38212Y32012D01*
X38296Y31947D01*
X38394Y31906D01*
X38500Y31892D01*
X38606Y31906D01*
X38704Y31947D01*
X38788Y32012D01*
X38845Y32086D01*
X38883Y32083D01*
X38898Y32076D01*
X38903Y32053D01*
X38931Y32011D01*
X39211Y31731D01*
X39227Y31720D01*
X40145Y30801D01*
X40126Y30755D01*
X40035D01*
X39870Y30920D01*
X39829Y30948D01*
X39780Y30958D01*
X34690D01*
X34642Y30948D01*
X34600Y30920D01*
X34174Y30494D01*
X34099Y30525D01*
X33995Y30538D01*
X33891Y30525D01*
X33793Y30484D01*
X33710Y30420D01*
X33646Y30337D01*
X33615Y30262D01*
X32885D01*
X32836Y30253D01*
X32795Y30225D01*
X31597Y29027D01*
X31000D01*
Y29800D01*
X30702D01*
Y30753D01*
X30694Y30792D01*
X30672Y30825D01*
X28658Y32839D01*
Y32861D01*
X29006Y33209D01*
X29320D01*
Y33627D01*
X28880D01*
Y33371D01*
X28513Y33005D01*
X28136D01*
Y32695D01*
X28513D01*
X30498Y30711D01*
Y29800D01*
X30200D01*
Y29034D01*
X30150Y29030D01*
X29959Y29221D01*
X29990Y29296D01*
X30003Y29400D01*
X29990Y29504D01*
X29949Y29602D01*
X29885Y29685D01*
X29802Y29749D01*
X29704Y29790D01*
X29600Y29803D01*
X29496Y29790D01*
X29398Y29749D01*
X29315Y29685D01*
X29251Y29602D01*
X29210Y29504D01*
X29197Y29400D01*
X29210Y29296D01*
X29251Y29198D01*
X29315Y29115D01*
X29398Y29051D01*
X29496Y29010D01*
X29600Y28997D01*
X29704Y29010D01*
X29779Y29041D01*
X30010Y28810D01*
X30051Y28782D01*
X30100Y28773D01*
X31650D01*
X31699Y28782D01*
X31740Y28810D01*
X32938Y30008D01*
X33615D01*
X33646Y29933D01*
X33710Y29850D01*
X33793Y29786D01*
X33891Y29745D01*
X33995Y29732D01*
X34099Y29745D01*
X34174Y29776D01*
X34858Y29092D01*
Y28545D01*
X34783Y28514D01*
X34700Y28450D01*
X34636Y28367D01*
X34595Y28269D01*
X34582Y28165D01*
X34595Y28061D01*
X34636Y27963D01*
X34700Y27880D01*
X34768Y27827D01*
X34751Y27777D01*
X28603D01*
X27935Y28445D01*
X27931Y28448D01*
X27946Y28498D01*
X32609D01*
X32648Y28506D01*
X32658Y28513D01*
X33372D01*
X33382Y28506D01*
X33421Y28498D01*
X33714D01*
X33727Y28477D01*
X33784Y28440D01*
X33850Y28427D01*
X33916Y28440D01*
X33973Y28477D01*
X34010Y28534D01*
X34023Y28600D01*
X34010Y28666D01*
X33973Y28723D01*
X33916Y28760D01*
X33850Y28773D01*
X33784Y28760D01*
X33727Y28723D01*
X33714Y28702D01*
X33456D01*
X33445Y28709D01*
X33406Y28717D01*
X32624D01*
X32585Y28709D01*
X32574Y28702D01*
X27389D01*
X27375Y28723D01*
X27319Y28760D01*
X27253Y28773D01*
X27186Y28760D01*
X27130Y28723D01*
X27092Y28666D01*
X27079Y28600D01*
X27092Y28534D01*
X27097Y28527D01*
X27074Y28482D01*
X25698D01*
X24959Y29221D01*
X24990Y29296D01*
X25003Y29400D01*
X24990Y29504D01*
X24949Y29602D01*
X24885Y29685D01*
X24802Y29749D01*
X24704Y29790D01*
X24600Y29803D01*
X24496Y29790D01*
X24398Y29749D01*
X24315Y29685D01*
X24251Y29602D01*
X24210Y29504D01*
X24197Y29400D01*
X24210Y29296D01*
X24251Y29198D01*
X24315Y29115D01*
X24398Y29051D01*
X24496Y29010D01*
X24600Y28997D01*
X24704Y29010D01*
X24779Y29041D01*
X25555Y28265D01*
X25596Y28237D01*
X25645Y28228D01*
X27792D01*
X28460Y27560D01*
X28501Y27532D01*
X28550Y27523D01*
X37870D01*
X37919Y27532D01*
X37960Y27560D01*
X38206Y27806D01*
X38281Y27775D01*
X38385Y27762D01*
X38489Y27775D01*
X38587Y27816D01*
X38670Y27880D01*
X38734Y27963D01*
X38775Y28061D01*
X38788Y28165D01*
X38775Y28269D01*
X38734Y28367D01*
X38670Y28450D01*
X38587Y28514D01*
X38489Y28555D01*
X38385Y28568D01*
X38281Y28555D01*
X38206Y28524D01*
X37522Y29208D01*
Y29755D01*
X37597Y29786D01*
X37680Y29850D01*
X37744Y29933D01*
X37785Y30031D01*
X37798Y30135D01*
X37785Y30239D01*
X37754Y30314D01*
X37813Y30373D01*
X39180D01*
Y30338D01*
X39620D01*
Y30703D01*
X39727D01*
X39855Y30575D01*
Y30338D01*
X40295D01*
Y30581D01*
X40341Y30601D01*
X40402Y30540D01*
X40443Y30513D01*
X40492Y30503D01*
X40530D01*
Y30338D01*
X40970D01*
Y30755D01*
X40679D01*
X40666Y30758D01*
X40545D01*
X40470Y30832D01*
X40460Y30847D01*
X40273Y31034D01*
X40290Y31089D01*
X40321Y31095D01*
X40378Y31132D01*
X40400Y31166D01*
X43800D01*
Y28850D01*
X43750Y28800D01*
X43800Y28750D01*
X43948D01*
Y20600D01*
X43956Y20561D01*
X43978Y20528D01*
X46048Y18458D01*
X46081Y18436D01*
X46120Y18428D01*
X48287D01*
X48340Y18350D01*
X48422Y18295D01*
X48520Y18275D01*
X48720D01*
X48818Y18295D01*
X48900Y18350D01*
X48955Y18432D01*
X48975Y18530D01*
X48955Y18628D01*
X48931Y18664D01*
X48954Y18720D01*
X48971Y18724D01*
X49073Y18622D01*
X49055Y18530D01*
X49075Y18432D01*
X49130Y18350D01*
X49212Y18295D01*
X49310Y18275D01*
X49510D01*
X49608Y18295D01*
X49690Y18350D01*
X49745Y18432D01*
X49765Y18530D01*
X49745Y18628D01*
X49690Y18710D01*
X49608Y18765D01*
X49510Y18785D01*
X49310D01*
X49218Y18767D01*
X49062Y18922D01*
X49029Y18944D01*
X48990Y18952D01*
X46292D01*
X44492Y20752D01*
Y28750D01*
X46548D01*
Y28686D01*
X46527Y28673D01*
X46490Y28616D01*
X46477Y28550D01*
X46490Y28484D01*
X46527Y28427D01*
X46584Y28390D01*
X46650Y28377D01*
X46716Y28390D01*
X46773Y28427D01*
X46810Y28484D01*
X46823Y28550D01*
X46810Y28616D01*
X46773Y28673D01*
X46752Y28686D01*
Y28750D01*
X56550D01*
Y13980D01*
X56520Y13950D01*
X45120D01*
Y15550D01*
X43620D01*
Y27360D01*
X39210D01*
Y26360D01*
X42935D01*
Y16520D01*
X39210D01*
Y15720D01*
X43130D01*
Y12520D01*
X33290D01*
Y15720D01*
X33370Y15800D01*
X37200D01*
Y16510D01*
X37210Y16520D01*
X33485D01*
Y26360D01*
X37210D01*
Y27360D01*
X32800D01*
Y15550D01*
X31300D01*
Y13950D01*
X19900D01*
Y49450D01*
X35850D01*
Y48252D01*
D02*
G37*
G36*
X37100Y45550D02*
X36650Y45100D01*
X36000D01*
Y45300D01*
X36550Y45350D01*
X36600Y45800D01*
X36800Y46000D01*
X37100D01*
Y45550D01*
D02*
G37*
G36*
X34971Y43217D02*
X35313D01*
X35332Y43171D01*
X34752Y42590D01*
X34285D01*
Y43208D01*
X34297Y43221D01*
X34971D01*
Y43217D01*
D02*
G37*
G36*
X35850Y43046D02*
Y40009D01*
X34104D01*
Y40804D01*
X34285D01*
Y41080D01*
X34767D01*
Y40923D01*
X35182D01*
Y41377D01*
X35178D01*
Y41723D01*
X35182D01*
Y42177D01*
X34973D01*
X34958Y42227D01*
X34980Y42242D01*
X35804Y43065D01*
X35850Y43046D01*
D02*
G37*
G36*
X43502Y38362D02*
Y38247D01*
X42038Y36782D01*
X41478D01*
X41452Y36832D01*
X41486Y36882D01*
X41505Y36980D01*
Y37176D01*
X41886D01*
X41964Y37192D01*
X42030Y37236D01*
X43044Y38251D01*
X43150Y38237D01*
X43256Y38251D01*
X43354Y38291D01*
X43438Y38356D01*
X43455Y38378D01*
X43502Y38362D01*
D02*
G37*
G36*
X40995Y36980D02*
X41014Y36882D01*
X41048Y36832D01*
X41022Y36782D01*
X40656D01*
X40617Y36774D01*
X40584Y36752D01*
X38403Y34572D01*
X37859D01*
X37820Y34564D01*
X37787Y34542D01*
X37730Y34485D01*
X37684Y34505D01*
Y35362D01*
X38949Y36627D01*
X38995Y36608D01*
Y36560D01*
X38971D01*
Y36145D01*
X39425D01*
Y36560D01*
X39403D01*
Y36940D01*
X39427D01*
Y36943D01*
X40095D01*
X40173Y36959D01*
X40240Y37003D01*
X40413Y37176D01*
X40995D01*
Y36980D01*
D02*
G37*
G36*
X43800Y37766D02*
Y36544D01*
X42860Y35604D01*
X42858Y35602D01*
X42857Y35601D01*
X41091Y33677D01*
X41090Y33677D01*
X41090D01*
X41016Y33580D01*
X40998Y33538D01*
X40995Y33532D01*
X40820Y33153D01*
X40820Y33153D01*
X40818Y33154D01*
X40812Y33140D01*
X40814Y33140D01*
X40814Y33140D01*
X40588Y32696D01*
X40500Y32708D01*
X40394Y32694D01*
X40296Y32653D01*
X40212Y32588D01*
X40147Y32504D01*
X40106Y32406D01*
X40092Y32300D01*
X40106Y32194D01*
X40147Y32096D01*
X40212Y32012D01*
X40296Y31947D01*
X40394Y31906D01*
X40500Y31892D01*
X40606Y31906D01*
X40704Y31947D01*
X40788Y32012D01*
X40853Y32096D01*
X40894Y32194D01*
X40908Y32300D01*
X40894Y32406D01*
X40853Y32504D01*
X40788Y32588D01*
X40769Y32603D01*
X40995Y33047D01*
X40996Y33048D01*
X41002Y33063D01*
X41006Y33068D01*
X41180Y33447D01*
X41182Y33446D01*
X41195Y33476D01*
X41242Y33537D01*
X41241Y33538D01*
X41241Y33539D01*
X42935Y35384D01*
X42976Y35355D01*
X42034Y33608D01*
X42010Y33564D01*
X41995Y33532D01*
X41989Y33520D01*
X41820Y33153D01*
X41820Y33153D01*
X41818Y33154D01*
X41812Y33140D01*
X41814Y33140D01*
X41814Y33140D01*
X41588Y32696D01*
X41500Y32708D01*
X41394Y32694D01*
X41296Y32653D01*
X41212Y32588D01*
X41147Y32504D01*
X41106Y32406D01*
X41092Y32300D01*
X41106Y32194D01*
X41147Y32096D01*
X41212Y32012D01*
X41296Y31947D01*
X41394Y31906D01*
X41500Y31892D01*
X41606Y31906D01*
X41704Y31947D01*
X41788Y32012D01*
X41853Y32096D01*
X41894Y32194D01*
X41908Y32300D01*
X41894Y32406D01*
X41853Y32504D01*
X41788Y32588D01*
X41769Y32603D01*
X41995Y33047D01*
X41996Y33048D01*
X42002Y33063D01*
X42006Y33068D01*
X42180Y33447D01*
X42182Y33446D01*
X42191Y33467D01*
X42190Y33467D01*
X43306Y35538D01*
X43754Y35986D01*
X43800Y35967D01*
Y32642D01*
X43750Y32618D01*
X43704Y32653D01*
X43606Y32694D01*
X43500Y32708D01*
X43394Y32694D01*
X43296Y32653D01*
X43212Y32588D01*
X43147Y32504D01*
X43106Y32406D01*
X43092Y32300D01*
X43106Y32194D01*
X43147Y32096D01*
X43212Y32012D01*
X43296Y31947D01*
X43394Y31906D01*
X43500Y31892D01*
X43606Y31906D01*
X43704Y31947D01*
X43750Y31982D01*
X43800Y31958D01*
Y31369D01*
X42168D01*
X42144Y31414D01*
X42149Y31421D01*
X42163Y31488D01*
X42149Y31554D01*
X42112Y31610D01*
X42056Y31648D01*
X41989Y31661D01*
X41923Y31648D01*
X41875Y31616D01*
X40386Y31627D01*
X40336Y31628D01*
X40321Y31635D01*
X40310Y31666D01*
X40310Y31666D01*
X40303Y31677D01*
X40273Y31723D01*
X40216Y31760D01*
X40150Y31773D01*
X40084Y31760D01*
X40027Y31723D01*
X39990Y31666D01*
X39977Y31600D01*
X39990Y31534D01*
X40027Y31477D01*
X40084Y31440D01*
X40124Y31432D01*
X40134Y31379D01*
X40132Y31378D01*
X40095Y31321D01*
X40089Y31290D01*
X40034Y31273D01*
X39457Y31850D01*
X39479Y31895D01*
X39500Y31892D01*
X39606Y31906D01*
X39704Y31947D01*
X39788Y32012D01*
X39853Y32096D01*
X39894Y32194D01*
X39908Y32300D01*
X39894Y32406D01*
X39853Y32504D01*
X39788Y32588D01*
X39704Y32653D01*
X39606Y32694D01*
X39500Y32708D01*
X39394Y32694D01*
X39366Y32682D01*
X39298Y32751D01*
Y32854D01*
X39290Y32893D01*
X39288Y32896D01*
X39321Y32936D01*
X39394Y32906D01*
X39500Y32892D01*
X39606Y32906D01*
X39704Y32947D01*
X39788Y33012D01*
X39853Y33096D01*
X39894Y33194D01*
X39908Y33300D01*
X39894Y33406D01*
X39853Y33504D01*
X39788Y33588D01*
X39704Y33653D01*
X39606Y33694D01*
X39500Y33708D01*
X39394Y33694D01*
X39296Y33653D01*
X39212Y33588D01*
X39152Y33511D01*
X39127Y33513D01*
X39102Y33524D01*
Y33600D01*
X39094Y33639D01*
X39072Y33672D01*
X38910Y33835D01*
X38876Y33857D01*
X38837Y33865D01*
X38479D01*
X38459Y33915D01*
X40822Y36278D01*
X42204D01*
X42243Y36286D01*
X42276Y36308D01*
X43754Y37785D01*
X43800Y37766D01*
D02*
G37*
G36*
X39180Y30627D02*
X37760D01*
X37711Y30618D01*
X37670Y30590D01*
X37574Y30494D01*
X37499Y30525D01*
X37395Y30538D01*
X37291Y30525D01*
X37193Y30484D01*
X37110Y30420D01*
X37046Y30337D01*
X37005Y30239D01*
X36992Y30135D01*
X37005Y30031D01*
X37046Y29933D01*
X37110Y29850D01*
X37193Y29786D01*
X37268Y29755D01*
Y29155D01*
X37277Y29106D01*
X37305Y29065D01*
X38026Y28344D01*
X37995Y28269D01*
X37982Y28165D01*
X37995Y28061D01*
X38026Y27986D01*
X37817Y27777D01*
X35219D01*
X35202Y27827D01*
X35270Y27880D01*
X35334Y27963D01*
X35375Y28061D01*
X35388Y28165D01*
X35375Y28269D01*
X35334Y28367D01*
X35270Y28450D01*
X35187Y28514D01*
X35112Y28545D01*
Y29145D01*
X35103Y29194D01*
X35075Y29235D01*
X34354Y29956D01*
X34385Y30031D01*
X34398Y30135D01*
X34385Y30239D01*
X34354Y30314D01*
X34743Y30703D01*
X39180D01*
Y30627D01*
D02*
G37*
G36*
X44288Y20710D02*
X44296Y20671D01*
X44318Y20638D01*
X46178Y18778D01*
X46211Y18756D01*
X46250Y18748D01*
X48313D01*
X48332Y18698D01*
X48287Y18632D01*
X46162D01*
X44152Y20642D01*
Y28750D01*
X44288D01*
Y20710D01*
D02*
G37*
%LPC*%
G36*
X30550Y49273D02*
X30484Y49260D01*
X30427Y49223D01*
X30390Y49166D01*
X30377Y49100D01*
X30390Y49034D01*
X30427Y48977D01*
X30484Y48940D01*
X30550Y48927D01*
X30616Y48940D01*
X30673Y48977D01*
X30710Y49034D01*
X30723Y49100D01*
X30710Y49166D01*
X30673Y49223D01*
X30616Y49260D01*
X30550Y49273D01*
D02*
G37*
G36*
X28771Y48872D02*
X27180D01*
X27131Y48863D01*
X27090Y48835D01*
X26946Y48691D01*
X26905Y48699D01*
X26831Y48684D01*
X26768Y48642D01*
X26726Y48579D01*
X26711Y48505D01*
X26726Y48431D01*
X26768Y48368D01*
X26831Y48326D01*
X26905Y48311D01*
X26979Y48326D01*
X27042Y48368D01*
X27084Y48431D01*
X27087Y48444D01*
X27138D01*
X27140Y48434D01*
X27177Y48377D01*
X27234Y48340D01*
X27300Y48327D01*
X27366Y48340D01*
X27420Y48376D01*
X27430Y48374D01*
X27467Y48354D01*
X27456Y48300D01*
X27471Y48226D01*
X27513Y48163D01*
X27576Y48121D01*
X27650Y48106D01*
X27724Y48121D01*
X27732Y48116D01*
X27732Y48115D01*
X27741Y48051D01*
X27706Y48005D01*
X27670Y47916D01*
X27657Y47821D01*
X27670Y47726D01*
X27704Y47643D01*
X26362Y46302D01*
X23387D01*
X23348Y46294D01*
X23315Y46272D01*
X23037Y45995D01*
X23020Y45991D01*
X22980Y45965D01*
X22966Y45943D01*
X22965Y45943D01*
X22911D01*
X22910Y45943D01*
X22896Y45965D01*
X22883Y45974D01*
X22873Y46035D01*
X23294Y46456D01*
X23294Y46456D01*
X23338Y46522D01*
X23354Y46600D01*
X23354Y46600D01*
Y47628D01*
X23364Y47636D01*
X23412Y47699D01*
X23442Y47772D01*
X23453Y47850D01*
X23442Y47928D01*
X23412Y48001D01*
X23364Y48064D01*
X23301Y48112D01*
X23228Y48142D01*
X23150Y48153D01*
X23072Y48142D01*
X22999Y48112D01*
X22936Y48064D01*
X22888Y48001D01*
X22858Y47928D01*
X22847Y47850D01*
X22858Y47772D01*
X22888Y47699D01*
X22936Y47636D01*
X22946Y47628D01*
Y46684D01*
X22313Y46051D01*
X22300Y46053D01*
X22222Y46042D01*
X22149Y46012D01*
X22086Y45964D01*
X22038Y45901D01*
X22008Y45828D01*
X21997Y45750D01*
X22008Y45672D01*
X22038Y45599D01*
X22086Y45536D01*
X22122Y45508D01*
Y45340D01*
X22085Y45316D01*
X22059Y45276D01*
X22050Y45230D01*
X22059Y45184D01*
X22085Y45144D01*
X22108Y45129D01*
Y45075D01*
X22085Y45060D01*
X22059Y45020D01*
X22050Y44974D01*
X22059Y44928D01*
X22085Y44888D01*
X22087Y44887D01*
X22091Y44830D01*
X22063Y44804D01*
X21600D01*
X21562Y44788D01*
X21546Y44750D01*
Y41800D01*
X21546Y41800D01*
X21562Y41762D01*
X21562Y41762D01*
X21612Y41712D01*
X21650Y41696D01*
X21650Y41696D01*
X22806D01*
Y41102D01*
X23890D01*
Y41716D01*
X23904Y41750D01*
Y42650D01*
X23903Y42652D01*
X23904Y42653D01*
X23896Y42671D01*
X23890Y42684D01*
Y42698D01*
X23877D01*
X23037Y43439D01*
X22954Y43522D01*
Y44200D01*
X22954Y44200D01*
X22938Y44238D01*
X22938Y44238D01*
X22771Y44405D01*
X22760Y44410D01*
X22755Y44421D01*
X22755Y44421D01*
X22704Y44472D01*
Y44700D01*
X22704Y44700D01*
X22688Y44738D01*
X22688Y44738D01*
X22638Y44788D01*
X22626Y44794D01*
X22619Y44804D01*
X22597Y44818D01*
X22597Y44819D01*
Y44873D01*
X22597Y44874D01*
X22619Y44888D01*
X22645Y44928D01*
X22654Y44974D01*
X22645Y45020D01*
X22619Y45060D01*
X22597Y45074D01*
X22597Y45075D01*
Y45129D01*
X22597Y45130D01*
X22619Y45144D01*
X22645Y45184D01*
X22654Y45230D01*
X22645Y45276D01*
X22619Y45316D01*
X22579Y45342D01*
X22533Y45351D01*
X22530D01*
Y45520D01*
X22689D01*
Y45517D01*
X22698Y45471D01*
X22724Y45431D01*
X22764Y45405D01*
X22810Y45396D01*
X22856Y45405D01*
X22896Y45431D01*
X22910Y45453D01*
X22911Y45453D01*
X22965D01*
X22966Y45453D01*
X22980Y45431D01*
X23020Y45405D01*
X23066Y45396D01*
X23112Y45405D01*
X23152Y45431D01*
X23166Y45453D01*
X23167Y45453D01*
X23221D01*
X23222Y45453D01*
X23236Y45431D01*
X23276Y45405D01*
X23322Y45396D01*
X23368Y45405D01*
X23408Y45431D01*
X23422Y45453D01*
X23423Y45453D01*
X23477D01*
X23478Y45453D01*
X23492Y45431D01*
X23532Y45405D01*
X23578Y45396D01*
X23624Y45405D01*
X23664Y45431D01*
X23690Y45471D01*
X23699Y45517D01*
Y45572D01*
X23858D01*
X23905Y45540D01*
X23972Y45527D01*
X24038Y45540D01*
X24094Y45577D01*
X24132Y45634D01*
X24145Y45700D01*
X24132Y45766D01*
X24094Y45823D01*
X24038Y45860D01*
X23972Y45873D01*
X23905Y45860D01*
X23855Y45826D01*
X23699D01*
Y45879D01*
X23695Y45898D01*
X23731Y45948D01*
X26564D01*
X26577Y45927D01*
X26634Y45890D01*
X26700Y45877D01*
X26766Y45890D01*
X26823Y45927D01*
X26860Y45984D01*
X26873Y46050D01*
X26860Y46116D01*
X26823Y46173D01*
X26766Y46210D01*
X26700Y46223D01*
X26634Y46210D01*
X26621Y46201D01*
X26589Y46240D01*
X27848Y47499D01*
X27930Y47465D01*
X28025Y47453D01*
X28120Y47465D01*
X28209Y47502D01*
X28285Y47561D01*
X28344Y47637D01*
X28381Y47726D01*
X28393Y47821D01*
X28381Y47916D01*
X28344Y48005D01*
X28285Y48081D01*
X28279Y48087D01*
X28295Y48134D01*
X29886D01*
X29925Y48142D01*
X29958Y48164D01*
X30209Y48414D01*
X30250Y48406D01*
X30324Y48421D01*
X30387Y48463D01*
X30429Y48526D01*
X30444Y48600D01*
X30429Y48674D01*
X30387Y48737D01*
X30324Y48779D01*
X30250Y48794D01*
X30176Y48779D01*
X30113Y48737D01*
X30071Y48674D01*
X30056Y48600D01*
X30064Y48559D01*
X29844Y48338D01*
X29251D01*
X29224Y48388D01*
X29234Y48402D01*
X29248Y48476D01*
X29234Y48550D01*
X29192Y48613D01*
X29129Y48655D01*
X29055Y48670D01*
X29031Y48665D01*
X28861Y48835D01*
X28820Y48863D01*
X28771Y48872D01*
D02*
G37*
G36*
X24550Y48926D02*
X23978D01*
Y48274D01*
X24136D01*
Y48100D01*
X24146Y48051D01*
X24174Y48009D01*
X24221Y47962D01*
X24208Y47928D01*
X24197Y47850D01*
X24208Y47772D01*
X24238Y47699D01*
X24286Y47636D01*
X24349Y47588D01*
X24422Y47558D01*
X24500Y47547D01*
X24578Y47558D01*
X24651Y47588D01*
X24714Y47636D01*
X24762Y47699D01*
X24792Y47772D01*
X24803Y47850D01*
X24792Y47928D01*
X24762Y48001D01*
X24714Y48064D01*
X24651Y48112D01*
X24578Y48142D01*
X24500Y48153D01*
X24438Y48144D01*
X24400Y48172D01*
X24391Y48184D01*
Y48274D01*
X24550D01*
Y48926D01*
D02*
G37*
G36*
X23825Y48153D02*
X23747Y48142D01*
X23674Y48112D01*
X23611Y48064D01*
X23563Y48001D01*
X23533Y47928D01*
X23522Y47850D01*
X23533Y47772D01*
X23563Y47699D01*
X23611Y47636D01*
X23674Y47588D01*
X23747Y47558D01*
X23825Y47547D01*
X23903Y47558D01*
X23976Y47588D01*
X24039Y47636D01*
X24087Y47699D01*
X24117Y47772D01*
X24128Y47850D01*
X24117Y47928D01*
X24087Y48001D01*
X24039Y48064D01*
X23976Y48112D01*
X23903Y48142D01*
X23825Y48153D01*
D02*
G37*
G36*
X33094Y48189D02*
X32998Y48176D01*
X32910Y48140D01*
X32833Y48081D01*
X32775Y48005D01*
X32738Y47916D01*
X32726Y47821D01*
X32738Y47726D01*
X32775Y47637D01*
X32833Y47561D01*
X32910Y47502D01*
X32998Y47465D01*
X33094Y47453D01*
X33189Y47465D01*
X33278Y47502D01*
X33354Y47561D01*
X33412Y47637D01*
X33449Y47726D01*
X33462Y47821D01*
X33449Y47916D01*
X33412Y48005D01*
X33354Y48081D01*
X33278Y48140D01*
X33189Y48176D01*
X33094Y48189D01*
D02*
G37*
G36*
X32306D02*
X32211Y48176D01*
X32122Y48140D01*
X32046Y48081D01*
X31988Y48005D01*
X31951Y47916D01*
X31938Y47821D01*
X31951Y47726D01*
X31988Y47637D01*
X32046Y47561D01*
X32122Y47502D01*
X32211Y47465D01*
X32306Y47453D01*
X32402Y47465D01*
X32490Y47502D01*
X32567Y47561D01*
X32625Y47637D01*
X32662Y47726D01*
X32674Y47821D01*
X32662Y47916D01*
X32625Y48005D01*
X32567Y48081D01*
X32490Y48140D01*
X32402Y48176D01*
X32306Y48189D01*
D02*
G37*
G36*
X31519D02*
X31424Y48176D01*
X31335Y48140D01*
X31259Y48081D01*
X31200Y48005D01*
X31163Y47916D01*
X31151Y47821D01*
X31160Y47750D01*
X30364Y46954D01*
X29650D01*
X29572Y46938D01*
X29506Y46894D01*
X29040Y46429D01*
X28996Y46363D01*
X28983Y46296D01*
X28615D01*
Y45336D01*
X28981D01*
Y45199D01*
X28996Y45121D01*
X29040Y45055D01*
X29876Y44220D01*
X29915Y44193D01*
Y43604D01*
X30685D01*
Y44564D01*
X30403D01*
X30393Y44614D01*
X30451Y44638D01*
X30514Y44686D01*
X30562Y44749D01*
X30592Y44822D01*
X30603Y44900D01*
X30592Y44978D01*
X30562Y45051D01*
X30514Y45114D01*
X30504Y45122D01*
Y45336D01*
X30685D01*
Y46296D01*
X29915D01*
Y45336D01*
X30096D01*
Y45122D01*
X30086Y45114D01*
X30038Y45051D01*
X30008Y44978D01*
X29997Y44900D01*
X30008Y44822D01*
X30038Y44749D01*
X30086Y44686D01*
X30149Y44638D01*
X30207Y44614D01*
X30197Y44564D01*
X30135D01*
X30115Y44568D01*
X30104D01*
X29389Y45284D01*
Y45631D01*
X29385Y45651D01*
Y45981D01*
X29389Y46001D01*
Y46200D01*
X29734Y46546D01*
X30448D01*
X30526Y46562D01*
X30592Y46606D01*
X31448Y47462D01*
X31519Y47453D01*
X31614Y47465D01*
X31703Y47502D01*
X31779Y47561D01*
X31838Y47637D01*
X31874Y47726D01*
X31887Y47821D01*
X31874Y47916D01*
X31838Y48005D01*
X31779Y48081D01*
X31703Y48140D01*
X31614Y48176D01*
X31519Y48189D01*
D02*
G37*
G36*
X27238D02*
X27143Y48176D01*
X27054Y48140D01*
X26978Y48081D01*
X26919Y48005D01*
X26882Y47916D01*
X26870Y47821D01*
X26882Y47726D01*
X26919Y47637D01*
X26978Y47561D01*
X27054Y47502D01*
X27143Y47465D01*
X27238Y47453D01*
X27333Y47465D01*
X27422Y47502D01*
X27498Y47561D01*
X27557Y47637D01*
X27593Y47726D01*
X27606Y47821D01*
X27593Y47916D01*
X27557Y48005D01*
X27498Y48081D01*
X27422Y48140D01*
X27333Y48176D01*
X27238Y48189D01*
D02*
G37*
G36*
X22708Y47683D02*
X22639Y47669D01*
X22580Y47630D01*
X22541Y47571D01*
X22527Y47502D01*
X22541Y47432D01*
X22580Y47374D01*
X22639Y47334D01*
X22708Y47320D01*
X22778Y47334D01*
X22837Y47374D01*
X22876Y47432D01*
X22890Y47502D01*
X22876Y47571D01*
X22837Y47630D01*
X22778Y47669D01*
X22708Y47683D01*
D02*
G37*
G36*
X24992Y47679D02*
X24922Y47665D01*
X24863Y47626D01*
X24824Y47567D01*
X24810Y47498D01*
X24824Y47428D01*
X24863Y47370D01*
X24922Y47330D01*
X24992Y47316D01*
X25061Y47330D01*
X25120Y47370D01*
X25159Y47428D01*
X25173Y47498D01*
X25159Y47567D01*
X25120Y47626D01*
X25061Y47665D01*
X24992Y47679D01*
D02*
G37*
G36*
X25112Y45470D02*
X24695D01*
Y45362D01*
X24054D01*
X24005Y45352D01*
X24001Y45349D01*
X23867D01*
X23821Y45340D01*
X23781Y45314D01*
X23755Y45274D01*
X23746Y45228D01*
X23755Y45182D01*
X23781Y45142D01*
X23821Y45116D01*
X23867Y45107D01*
X24017D01*
X24048Y45101D01*
X24079Y45107D01*
X24695D01*
Y45030D01*
X25112D01*
Y45470D01*
D02*
G37*
G36*
X27350Y45058D02*
X27244Y45044D01*
X27146Y45003D01*
X27062Y44938D01*
X26997Y44854D01*
X26956Y44756D01*
X26942Y44650D01*
X26956Y44544D01*
X26997Y44446D01*
X27062Y44362D01*
X27146Y44297D01*
X27197Y44276D01*
Y43310D01*
X26320D01*
Y43160D01*
X25683D01*
X24342Y44501D01*
X24341Y44506D01*
X24320Y44539D01*
X24328Y44567D01*
X24341Y44589D01*
X24675D01*
X24717Y44547D01*
Y44273D01*
X25132D01*
Y44727D01*
X24897D01*
X24818Y44806D01*
X24777Y44834D01*
X24728Y44843D01*
X24048D01*
X24017Y44837D01*
X23867D01*
X23821Y44828D01*
X23781Y44802D01*
X23755Y44762D01*
X23746Y44716D01*
X23755Y44670D01*
X23781Y44630D01*
X23803Y44616D01*
X23803Y44615D01*
Y44561D01*
X23803Y44560D01*
X23781Y44546D01*
X23755Y44506D01*
X23746Y44460D01*
X23755Y44414D01*
X23781Y44374D01*
X23821Y44348D01*
X23867Y44339D01*
X23959D01*
X23990Y44319D01*
X24048Y44307D01*
X24104D01*
X25512Y42899D01*
X25561Y42866D01*
X25620Y42854D01*
X26320D01*
Y42705D01*
X27780D01*
Y42851D01*
X28167D01*
Y42773D01*
X28582D01*
Y43227D01*
X28167D01*
Y43157D01*
X27780D01*
Y43310D01*
X27503D01*
Y44276D01*
X27554Y44297D01*
X27638Y44362D01*
X27703Y44446D01*
X27724Y44497D01*
X28466D01*
X28615Y44348D01*
Y43604D01*
X29385D01*
Y44564D01*
X28832D01*
X28637Y44758D01*
X28588Y44791D01*
X28529Y44803D01*
X27724D01*
X27703Y44854D01*
X27638Y44938D01*
X27554Y45003D01*
X27456Y45044D01*
X27350Y45058D01*
D02*
G37*
G36*
X23578Y44304D02*
X23532Y44295D01*
X23492Y44269D01*
X23466Y44229D01*
X23457Y44183D01*
Y44091D01*
X23437Y44061D01*
X23425Y44002D01*
Y43883D01*
X23437Y43825D01*
X23464Y43783D01*
X23466Y43775D01*
X23492Y43735D01*
X23532Y43709D01*
X23578Y43700D01*
X23592Y43702D01*
X23609Y43699D01*
X23793D01*
X25010Y42482D01*
Y41102D01*
X25878D01*
X26320Y40661D01*
Y40290D01*
X27780D01*
Y40443D01*
X28167D01*
Y40373D01*
X28582D01*
Y40827D01*
X28167D01*
Y40749D01*
X27780D01*
Y40895D01*
X26912D01*
X26898Y40898D01*
X26515D01*
X26095Y41318D01*
Y42698D01*
X25227D01*
X23964Y43960D01*
X23915Y43993D01*
X23856Y44005D01*
X23730D01*
X23719Y44061D01*
X23699Y44091D01*
Y44183D01*
X23690Y44229D01*
X23664Y44269D01*
X23624Y44295D01*
X23578Y44304D01*
D02*
G37*
G36*
X38600Y39367D02*
X38494Y39353D01*
X38396Y39313D01*
X38312Y39248D01*
X38247Y39163D01*
X38206Y39065D01*
X38192Y38959D01*
Y38644D01*
X38206Y38539D01*
X37516Y37848D01*
X37191D01*
X37185Y37878D01*
X37130Y37960D01*
X37048Y38015D01*
X36950Y38035D01*
X36852Y38015D01*
X36770Y37960D01*
X36714Y37878D01*
X36695Y37780D01*
Y37584D01*
X36003D01*
X35925Y37568D01*
X35859Y37524D01*
X35686Y37351D01*
X35077D01*
Y37355D01*
X34623D01*
Y36940D01*
X34645D01*
Y36560D01*
X34621D01*
Y36145D01*
X35075D01*
Y36560D01*
X35053D01*
Y36940D01*
X35077D01*
Y36943D01*
X35770D01*
X35848Y36959D01*
X35915Y37003D01*
X36088Y37176D01*
X36695D01*
Y36994D01*
X36356Y36655D01*
X36312Y36589D01*
X36296Y36511D01*
Y33653D01*
X36212Y33588D01*
X36147Y33504D01*
X36106Y33406D01*
X36092Y33300D01*
X36106Y33194D01*
X36147Y33096D01*
X36212Y33012D01*
X36296Y32947D01*
X36394Y32906D01*
X36500Y32892D01*
X36606Y32906D01*
X36704Y32947D01*
X36788Y33012D01*
X36853Y33096D01*
X36894Y33194D01*
X36908Y33300D01*
X36894Y33406D01*
X36853Y33504D01*
X36788Y33588D01*
X36704Y33653D01*
Y36426D01*
X37016Y36738D01*
X37048Y36744D01*
X37130Y36800D01*
X37185Y36882D01*
X37205Y36980D01*
Y37441D01*
X37600D01*
X37678Y37456D01*
X37744Y37500D01*
X38494Y38251D01*
X38600Y38237D01*
X38706Y38251D01*
X38804Y38291D01*
X38888Y38356D01*
X38953Y38441D01*
X38994Y38539D01*
X39008Y38644D01*
Y38959D01*
X38994Y39065D01*
X38953Y39163D01*
X38888Y39248D01*
X38804Y39313D01*
X38706Y39353D01*
X38600Y39367D01*
D02*
G37*
G36*
X37004Y39360D02*
X36196D01*
Y38236D01*
X37004D01*
Y39360D01*
D02*
G37*
G36*
X27904D02*
X27096D01*
Y38236D01*
X27904D01*
Y39360D01*
D02*
G37*
G36*
X23354D02*
X22546D01*
Y38236D01*
X23354D01*
Y39360D01*
D02*
G37*
G36*
X34050Y39367D02*
X33944Y39353D01*
X33846Y39313D01*
X33762Y39248D01*
X33697Y39163D01*
X33656Y39065D01*
X33642Y38959D01*
Y38644D01*
X33656Y38539D01*
X33697Y38441D01*
X33762Y38356D01*
X33810Y38319D01*
X33814Y38253D01*
X33066Y37504D01*
X32905D01*
Y37780D01*
X32885Y37878D01*
X32830Y37960D01*
X32748Y38015D01*
X32650Y38035D01*
X32552Y38015D01*
X32470Y37960D01*
X32415Y37878D01*
X32395Y37780D01*
Y37351D01*
X30677D01*
Y37355D01*
X30223D01*
Y36940D01*
X30245D01*
Y36560D01*
X30221D01*
Y36145D01*
X30675D01*
Y36560D01*
X30653D01*
Y36940D01*
X30677D01*
Y36943D01*
X32402D01*
X32415Y36882D01*
X32470Y36800D01*
X32552Y36744D01*
X32650Y36725D01*
X32748Y36744D01*
X32830Y36800D01*
X32885Y36882D01*
X32905Y36980D01*
Y37096D01*
X33150D01*
X33228Y37112D01*
X33294Y37156D01*
X33800Y37661D01*
X33846Y37642D01*
Y35750D01*
X33862Y35672D01*
X33906Y35606D01*
X35296Y34216D01*
Y33653D01*
X35212Y33588D01*
X35147Y33504D01*
X35106Y33406D01*
X35092Y33300D01*
X35106Y33194D01*
X35147Y33096D01*
X35212Y33012D01*
X35296Y32947D01*
X35394Y32906D01*
X35500Y32892D01*
X35606Y32906D01*
X35704Y32947D01*
X35788Y33012D01*
X35853Y33096D01*
X35894Y33194D01*
X35908Y33300D01*
X35894Y33406D01*
X35853Y33504D01*
X35788Y33588D01*
X35704Y33653D01*
Y34300D01*
X35704Y34300D01*
X35688Y34378D01*
X35644Y34444D01*
X34254Y35834D01*
Y38291D01*
X34338Y38356D01*
X34403Y38441D01*
X34444Y38539D01*
X34445Y38546D01*
X35116D01*
X35399Y38263D01*
X35397Y38250D01*
X35408Y38172D01*
X35438Y38099D01*
X35486Y38036D01*
X35549Y37988D01*
X35622Y37958D01*
X35700Y37947D01*
X35778Y37958D01*
X35851Y37988D01*
X35914Y38036D01*
X35962Y38099D01*
X35992Y38172D01*
X36003Y38250D01*
X35992Y38328D01*
X35962Y38401D01*
X35914Y38464D01*
X35851Y38512D01*
X35778Y38542D01*
X35700Y38553D01*
X35687Y38551D01*
X35344Y38894D01*
X35278Y38938D01*
X35200Y38954D01*
X34458D01*
Y38959D01*
X34444Y39065D01*
X34403Y39163D01*
X34338Y39248D01*
X34254Y39313D01*
X34156Y39353D01*
X34050Y39367D01*
D02*
G37*
G36*
X29500D02*
X29394Y39353D01*
X29296Y39313D01*
X29212Y39248D01*
X29147Y39163D01*
X29106Y39065D01*
X29092Y38959D01*
Y38644D01*
X29106Y38539D01*
X29147Y38441D01*
X29212Y38356D01*
X29246Y38330D01*
Y37984D01*
X28916Y37654D01*
X28605D01*
Y37780D01*
X28586Y37878D01*
X28530Y37960D01*
X28448Y38015D01*
X28350Y38035D01*
X28252Y38015D01*
X28170Y37960D01*
X28115Y37878D01*
X28095Y37780D01*
Y37584D01*
X27428D01*
X27350Y37568D01*
X27284Y37524D01*
X27111Y37351D01*
X26527D01*
Y37355D01*
X26073D01*
Y36940D01*
X26095D01*
Y36560D01*
X26071D01*
Y36145D01*
X26525D01*
Y36560D01*
X26503D01*
Y36940D01*
X26527D01*
Y36943D01*
X27195D01*
X27273Y36959D01*
X27340Y37003D01*
X27513Y37176D01*
X28095D01*
Y36980D01*
X28115Y36882D01*
X28170Y36800D01*
X28252Y36744D01*
X28333Y36728D01*
X30686Y34376D01*
X30752Y34332D01*
X30830Y34316D01*
X30830Y34316D01*
X33196D01*
X34106Y33406D01*
X34092Y33300D01*
X34106Y33194D01*
X34147Y33096D01*
X34212Y33012D01*
X34296Y32947D01*
X34394Y32906D01*
X34500Y32892D01*
X34606Y32906D01*
X34704Y32947D01*
X34788Y33012D01*
X34853Y33096D01*
X34894Y33194D01*
X34908Y33300D01*
X34894Y33406D01*
X34853Y33504D01*
X34788Y33588D01*
X34704Y33653D01*
X34606Y33694D01*
X34500Y33708D01*
X34394Y33694D01*
X33504Y34584D01*
Y35997D01*
X33535Y36001D01*
X33608Y36031D01*
X33671Y36079D01*
X33719Y36142D01*
X33749Y36215D01*
X33759Y36293D01*
X33749Y36372D01*
X33719Y36445D01*
X33671Y36507D01*
X33608Y36555D01*
X33535Y36586D01*
X33457Y36596D01*
X33378Y36586D01*
X33305Y36555D01*
X33243Y36507D01*
X33195Y36445D01*
X33164Y36372D01*
X33154Y36293D01*
X33160Y36245D01*
X33156Y36240D01*
X33112Y36174D01*
X33096Y36096D01*
Y34724D01*
X30914D01*
X28605Y37033D01*
Y37246D01*
X29000D01*
X29078Y37262D01*
X29144Y37306D01*
X29594Y37756D01*
X29638Y37822D01*
X29654Y37900D01*
Y38271D01*
X29704Y38291D01*
X29788Y38356D01*
X29853Y38441D01*
X29894Y38539D01*
X29908Y38644D01*
Y38959D01*
X29894Y39065D01*
X29853Y39163D01*
X29788Y39248D01*
X29704Y39313D01*
X29606Y39353D01*
X29500Y39367D01*
D02*
G37*
G36*
X39200Y37826D02*
X38702D01*
X38653Y37816D01*
X38612Y37788D01*
X38584Y37747D01*
X38574Y37698D01*
X38584Y37650D01*
X38612Y37608D01*
X38653Y37581D01*
X38702Y37571D01*
X39200D01*
X39249Y37581D01*
X39290Y37608D01*
X39318Y37650D01*
X39327Y37698D01*
X39318Y37747D01*
X39290Y37788D01*
X39249Y37816D01*
X39200Y37826D01*
D02*
G37*
G36*
X26400Y35073D02*
X26334Y35060D01*
X26285Y35027D01*
X24650D01*
X24601Y35018D01*
X24560Y34990D01*
X20760Y31190D01*
X20732Y31149D01*
X20723Y31100D01*
Y23500D01*
X20732Y23451D01*
X20760Y23410D01*
X22010Y22160D01*
X22051Y22132D01*
X22100Y22123D01*
X24585D01*
X24634Y22090D01*
X24700Y22077D01*
X24766Y22090D01*
X24823Y22127D01*
X24860Y22184D01*
X24873Y22250D01*
X24860Y22316D01*
X24823Y22373D01*
X24766Y22410D01*
X24700Y22423D01*
X24634Y22410D01*
X24585Y22377D01*
X22153D01*
X20977Y23553D01*
Y31047D01*
X24703Y34773D01*
X26285D01*
X26334Y34740D01*
X26400Y34727D01*
X26466Y34740D01*
X26523Y34777D01*
X26560Y34834D01*
X26573Y34900D01*
X26560Y34966D01*
X26523Y35023D01*
X26466Y35060D01*
X26400Y35073D01*
D02*
G37*
G36*
X24950Y39367D02*
X24844Y39353D01*
X24746Y39313D01*
X24662Y39248D01*
X24597Y39163D01*
X24556Y39065D01*
X24542Y38959D01*
Y38644D01*
X24554Y38555D01*
X24030Y38031D01*
X23952Y38015D01*
X23870Y37960D01*
X23827Y37896D01*
X22377D01*
Y37900D01*
X21923D01*
Y37485D01*
X22377D01*
Y37488D01*
X23795D01*
Y36980D01*
X23814Y36882D01*
X23870Y36800D01*
X23952Y36744D01*
X24050Y36725D01*
X24148Y36744D01*
X24230Y36800D01*
X24286Y36882D01*
X24305Y36980D01*
Y37729D01*
X24776Y38200D01*
X24823Y38181D01*
Y36250D01*
X24832Y36201D01*
X24860Y36160D01*
X25860Y35160D01*
X25901Y35132D01*
X25950Y35123D01*
X26859D01*
X27715Y34266D01*
X27696Y34220D01*
X27348D01*
Y33780D01*
X27429D01*
Y33432D01*
X27415Y33419D01*
X27379Y33400D01*
X27341Y33407D01*
X25955D01*
Y33680D01*
X25935Y33778D01*
X25880Y33860D01*
X25798Y33916D01*
X25700Y33935D01*
X25602Y33916D01*
X25520Y33860D01*
X25464Y33778D01*
X25445Y33680D01*
Y32880D01*
X25464Y32782D01*
X25520Y32700D01*
X25602Y32645D01*
X25700Y32625D01*
X25798Y32645D01*
X25880Y32700D01*
X25935Y32782D01*
X25955Y32880D01*
Y33153D01*
X27243D01*
Y33069D01*
X27764D01*
Y33379D01*
X27684D01*
Y33780D01*
X27766D01*
Y34150D01*
X27812Y34169D01*
X27941Y34040D01*
Y33780D01*
X28359D01*
Y33878D01*
X28880D01*
Y33803D01*
X29320D01*
Y34220D01*
X28927D01*
X28912Y34270D01*
X28923Y34277D01*
X28960Y34334D01*
X28973Y34400D01*
X28960Y34466D01*
X28923Y34523D01*
X28866Y34560D01*
X28800Y34573D01*
X28734Y34560D01*
X28677Y34523D01*
X28640Y34466D01*
X28627Y34400D01*
X28640Y34334D01*
X28677Y34277D01*
X28734Y34240D01*
X28800Y34227D01*
X28836Y34234D01*
X28880Y34193D01*
Y34133D01*
X28359D01*
Y34220D01*
X28121D01*
X27001Y35340D01*
X26960Y35368D01*
X26911Y35377D01*
X26003D01*
X25077Y36303D01*
Y38260D01*
X25154Y38291D01*
X25238Y38356D01*
X25303Y38441D01*
X25344Y38539D01*
X25358Y38644D01*
Y38959D01*
X25344Y39065D01*
X25303Y39163D01*
X25238Y39248D01*
X25154Y39313D01*
X25056Y39353D01*
X24950Y39367D01*
D02*
G37*
G36*
X34904Y32704D02*
X34096D01*
Y31896D01*
X34904D01*
Y32704D01*
D02*
G37*
G36*
X37500Y32708D02*
X37394Y32694D01*
X37296Y32653D01*
X37212Y32588D01*
X37147Y32504D01*
X37106Y32406D01*
X37092Y32300D01*
X37106Y32194D01*
X37147Y32096D01*
X37212Y32012D01*
X37296Y31947D01*
X37394Y31906D01*
X37500Y31892D01*
X37606Y31906D01*
X37704Y31947D01*
X37788Y32012D01*
X37853Y32096D01*
X37894Y32194D01*
X37908Y32300D01*
X37894Y32406D01*
X37853Y32504D01*
X37788Y32588D01*
X37704Y32653D01*
X37606Y32694D01*
X37500Y32708D01*
D02*
G37*
G36*
X36500D02*
X36394Y32694D01*
X36296Y32653D01*
X36212Y32588D01*
X36147Y32504D01*
X36106Y32406D01*
X36092Y32300D01*
X36106Y32194D01*
X36147Y32096D01*
X36212Y32012D01*
X36296Y31947D01*
X36394Y31906D01*
X36500Y31892D01*
X36606Y31906D01*
X36704Y31947D01*
X36788Y32012D01*
X36853Y32096D01*
X36894Y32194D01*
X36908Y32300D01*
X36894Y32406D01*
X36853Y32504D01*
X36788Y32588D01*
X36704Y32653D01*
X36606Y32694D01*
X36500Y32708D01*
D02*
G37*
G36*
X35500D02*
X35394Y32694D01*
X35296Y32653D01*
X35212Y32588D01*
X35147Y32504D01*
X35106Y32406D01*
X35092Y32300D01*
X35106Y32194D01*
X35147Y32096D01*
X35212Y32012D01*
X35296Y31947D01*
X35394Y31906D01*
X35500Y31892D01*
X35606Y31906D01*
X35704Y31947D01*
X35788Y32012D01*
X35853Y32096D01*
X35894Y32194D01*
X35908Y32300D01*
X35894Y32406D01*
X35853Y32504D01*
X35788Y32588D01*
X35704Y32653D01*
X35606Y32694D01*
X35500Y32708D01*
D02*
G37*
G36*
X28020Y31066D02*
X27580D01*
Y30648D01*
X28020D01*
Y30726D01*
X28373D01*
Y30643D01*
X28473D01*
Y30515D01*
X28440Y30466D01*
X28427Y30400D01*
X28440Y30334D01*
X28477Y30277D01*
X28534Y30240D01*
X28600Y30227D01*
X28666Y30240D01*
X28723Y30277D01*
X28760Y30334D01*
X28773Y30400D01*
X28760Y30466D01*
X28727Y30515D01*
Y30643D01*
X28827D01*
Y31057D01*
X28373D01*
Y30981D01*
X28020D01*
Y31066D01*
D02*
G37*
G36*
X40295Y30162D02*
X39855D01*
Y30055D01*
X39620D01*
Y30162D01*
X39180D01*
Y29745D01*
X39620D01*
Y29851D01*
X39855D01*
Y29745D01*
X39867D01*
Y28674D01*
X39785Y28640D01*
X39709Y28582D01*
X39650Y28505D01*
X39613Y28417D01*
X39601Y28321D01*
X39613Y28226D01*
X39650Y28137D01*
X39709Y28061D01*
X39785Y28002D01*
X39874Y27966D01*
X39969Y27953D01*
X40064Y27966D01*
X40153Y28002D01*
X40229Y28061D01*
X40288Y28137D01*
X40324Y28226D01*
X40337Y28321D01*
X40324Y28417D01*
X40288Y28505D01*
X40229Y28582D01*
X40153Y28640D01*
X40071Y28674D01*
Y29745D01*
X40295D01*
Y30162D01*
D02*
G37*
G36*
X28600Y29803D02*
X28496Y29790D01*
X28398Y29749D01*
X28315Y29685D01*
X28251Y29602D01*
X28210Y29504D01*
X28197Y29400D01*
X28210Y29296D01*
X28251Y29198D01*
X28315Y29115D01*
X28398Y29051D01*
X28496Y29010D01*
X28600Y28997D01*
X28704Y29010D01*
X28802Y29051D01*
X28885Y29115D01*
X28949Y29198D01*
X28990Y29296D01*
X29003Y29400D01*
X28990Y29504D01*
X28949Y29602D01*
X28885Y29685D01*
X28802Y29749D01*
X28704Y29790D01*
X28600Y29803D01*
D02*
G37*
G36*
X27600D02*
X27496Y29790D01*
X27398Y29749D01*
X27315Y29685D01*
X27251Y29602D01*
X27210Y29504D01*
X27197Y29400D01*
X27210Y29296D01*
X27251Y29198D01*
X27315Y29115D01*
X27398Y29051D01*
X27496Y29010D01*
X27600Y28997D01*
X27704Y29010D01*
X27802Y29051D01*
X27885Y29115D01*
X27949Y29198D01*
X27990Y29296D01*
X28003Y29400D01*
X27990Y29504D01*
X27949Y29602D01*
X27885Y29685D01*
X27802Y29749D01*
X27704Y29790D01*
X27600Y29803D01*
D02*
G37*
G36*
X25600D02*
X25496Y29790D01*
X25398Y29749D01*
X25315Y29685D01*
X25251Y29602D01*
X25210Y29504D01*
X25197Y29400D01*
X25210Y29296D01*
X25251Y29198D01*
X25315Y29115D01*
X25398Y29051D01*
X25496Y29010D01*
X25600Y28997D01*
X25704Y29010D01*
X25802Y29051D01*
X25885Y29115D01*
X25949Y29198D01*
X25990Y29296D01*
X26003Y29400D01*
X25990Y29504D01*
X25949Y29602D01*
X25885Y29685D01*
X25802Y29749D01*
X25704Y29790D01*
X25600Y29803D01*
D02*
G37*
G36*
X22970Y31066D02*
X22530D01*
Y30648D01*
X22970D01*
Y30650D01*
X23323D01*
Y30643D01*
X23371D01*
Y29729D01*
X23315Y29685D01*
X23251Y29602D01*
X23210Y29504D01*
X23197Y29400D01*
X23210Y29296D01*
X23251Y29198D01*
X23315Y29115D01*
X23398Y29051D01*
X23496Y29010D01*
X23600Y28997D01*
X23704Y29010D01*
X23802Y29051D01*
X23885Y29115D01*
X23949Y29198D01*
X23990Y29296D01*
X24003Y29400D01*
X23990Y29504D01*
X23949Y29602D01*
X23885Y29685D01*
X23802Y29749D01*
X23779Y29759D01*
Y30843D01*
X23777Y30851D01*
Y31057D01*
X23323D01*
Y31057D01*
X22970D01*
Y31066D01*
D02*
G37*
G36*
X22600Y29803D02*
X22496Y29790D01*
X22398Y29749D01*
X22315Y29685D01*
X22251Y29602D01*
X22210Y29504D01*
X22197Y29400D01*
X22210Y29296D01*
X22251Y29198D01*
X22315Y29115D01*
X22398Y29051D01*
X22496Y29010D01*
X22600Y28997D01*
X22704Y29010D01*
X22802Y29051D01*
X22885Y29115D01*
X22949Y29198D01*
X22990Y29296D01*
X23003Y29400D01*
X22990Y29504D01*
X22949Y29602D01*
X22885Y29685D01*
X22802Y29749D01*
X22704Y29790D01*
X22600Y29803D01*
D02*
G37*
G36*
X40970Y30162D02*
X40530D01*
Y29745D01*
X40654D01*
Y28674D01*
X40572Y28640D01*
X40496Y28582D01*
X40438Y28505D01*
X40401Y28417D01*
X40388Y28321D01*
X40401Y28226D01*
X40438Y28137D01*
X40496Y28061D01*
X40572Y28002D01*
X40661Y27966D01*
X40756Y27953D01*
X40852Y27966D01*
X40940Y28002D01*
X41017Y28061D01*
X41075Y28137D01*
X41112Y28226D01*
X41124Y28321D01*
X41112Y28417D01*
X41075Y28505D01*
X41017Y28582D01*
X40940Y28640D01*
X40858Y28674D01*
Y29745D01*
X40970D01*
Y30162D01*
D02*
G37*
G36*
X38420Y27355D02*
X37980D01*
Y26938D01*
X38420D01*
Y27355D01*
D02*
G37*
G36*
X38697Y26856D02*
X38618Y26846D01*
X38545Y26816D01*
X38483Y26767D01*
X38470Y26751D01*
X38420Y26762D01*
Y26762D01*
X37980D01*
Y26345D01*
X38420D01*
Y26345D01*
X38470Y26356D01*
X38483Y26339D01*
X38545Y26291D01*
X38618Y26261D01*
X38697Y26251D01*
X38775Y26261D01*
X38848Y26291D01*
X38911Y26339D01*
X38959Y26402D01*
X38989Y26475D01*
X38999Y26553D01*
X38989Y26632D01*
X38959Y26705D01*
X38911Y26767D01*
X38848Y26816D01*
X38775Y26846D01*
X38697Y26856D01*
D02*
G37*
G36*
X39900Y26123D02*
X39834Y26110D01*
X39777Y26073D01*
X39740Y26016D01*
X39727Y25950D01*
X39740Y25884D01*
X39762Y25851D01*
X39735Y25801D01*
X38043D01*
X37994Y25791D01*
X37953Y25764D01*
X37010Y24820D01*
X36982Y24779D01*
X36973Y24730D01*
Y22291D01*
X36959Y22277D01*
X36580D01*
Y22870D01*
X35680D01*
Y22697D01*
X34720D01*
X34671Y22688D01*
X34630Y22660D01*
X34274Y22304D01*
X34227Y22323D01*
Y22897D01*
X35233Y23903D01*
X35680D01*
Y23730D01*
X36580D01*
Y24330D01*
X35680D01*
Y24157D01*
X35180D01*
X35131Y24148D01*
X35090Y24120D01*
X34074Y23104D01*
X34027Y23123D01*
Y23547D01*
X35483Y25003D01*
X35680D01*
Y24830D01*
X36580D01*
Y25430D01*
X35680D01*
Y25257D01*
X35430D01*
X35381Y25248D01*
X35340Y25220D01*
X33810Y23690D01*
X33782Y23649D01*
X33773Y23600D01*
Y18850D01*
X33782Y18801D01*
X33810Y18760D01*
X34628Y17941D01*
X34640Y17884D01*
X34677Y17827D01*
X34734Y17790D01*
X34800Y17777D01*
X34866Y17790D01*
X34923Y17827D01*
X34960Y17884D01*
X34973Y17950D01*
X34960Y18016D01*
X34923Y18073D01*
X34866Y18110D01*
X34809Y18122D01*
X34027Y18903D01*
Y19227D01*
X34074Y19246D01*
X34628Y18691D01*
X34640Y18634D01*
X34677Y18577D01*
X34734Y18540D01*
X34800Y18527D01*
X34866Y18540D01*
X34923Y18577D01*
X34960Y18634D01*
X34973Y18700D01*
X34960Y18766D01*
X34923Y18823D01*
X34866Y18860D01*
X34809Y18872D01*
X34227Y19453D01*
Y20553D01*
X34274Y20572D01*
X34584Y20261D01*
X34590Y20234D01*
X34627Y20177D01*
X34684Y20140D01*
X34750Y20127D01*
X34816Y20140D01*
X34873Y20177D01*
X34910Y20234D01*
X34923Y20300D01*
X34910Y20366D01*
X34873Y20423D01*
X34816Y20460D01*
X34750Y20473D01*
X34735Y20470D01*
X34427Y20778D01*
Y21172D01*
X34477Y21192D01*
X34584Y21086D01*
X34577Y21050D01*
X34590Y20984D01*
X34627Y20927D01*
X34684Y20890D01*
X34750Y20877D01*
X34816Y20890D01*
X34873Y20927D01*
X34910Y20984D01*
X34923Y21050D01*
X34910Y21116D01*
X34873Y21173D01*
X34816Y21210D01*
X34811Y21211D01*
X34795Y21235D01*
X34677Y21353D01*
Y21671D01*
X34722Y21695D01*
X34729Y21690D01*
X34795Y21677D01*
X34861Y21690D01*
X34918Y21727D01*
X34948Y21773D01*
X36724D01*
X36748Y21728D01*
X36740Y21716D01*
X36728Y21659D01*
X36040Y20970D01*
X36012Y20929D01*
X36003Y20880D01*
Y20580D01*
X35680D01*
Y19980D01*
X36580D01*
Y20123D01*
X36624Y20146D01*
X36634Y20140D01*
X36691Y20128D01*
X37375Y19445D01*
X37416Y19417D01*
X37465Y19408D01*
X39505D01*
X39554Y19417D01*
X39595Y19445D01*
X39823Y19673D01*
X40127D01*
X40147Y19623D01*
X39641Y19117D01*
X39584Y19105D01*
X39527Y19068D01*
X39490Y19011D01*
X39477Y18945D01*
X39490Y18879D01*
X39495Y18872D01*
X39471Y18827D01*
X36865D01*
X36816Y18860D01*
X36750Y18873D01*
X36684Y18860D01*
X36630Y18824D01*
X36616Y18827D01*
X36580Y18842D01*
Y18940D01*
X36823Y19183D01*
X36851Y19224D01*
X36860Y19273D01*
Y19369D01*
X36873Y19377D01*
X36910Y19434D01*
X36923Y19500D01*
X36910Y19566D01*
X36873Y19623D01*
X36816Y19660D01*
X36750Y19673D01*
X36684Y19660D01*
X36627Y19623D01*
X36590Y19566D01*
X36577Y19500D01*
X36590Y19434D01*
X36605Y19411D01*
Y19326D01*
X36400Y19120D01*
X35680D01*
Y18520D01*
X36580D01*
Y18558D01*
X36616Y18573D01*
X36630Y18576D01*
X36684Y18540D01*
X36750Y18527D01*
X36816Y18540D01*
X36865Y18573D01*
X40420D01*
Y18520D01*
X40429D01*
X40449Y18474D01*
X39641Y17667D01*
X39584Y17655D01*
X39527Y17618D01*
X39490Y17561D01*
X39477Y17495D01*
X39490Y17429D01*
X39495Y17422D01*
X39471Y17377D01*
X37453D01*
X36922Y17909D01*
X36910Y17966D01*
X36873Y18023D01*
X36816Y18060D01*
X36750Y18073D01*
X36684Y18060D01*
X36627Y18023D01*
X36580Y18020D01*
X36580Y18020D01*
X36580Y18020D01*
X35680D01*
Y17420D01*
X36023D01*
Y17265D01*
X35990Y17216D01*
X35977Y17150D01*
X35990Y17084D01*
X36027Y17027D01*
X36084Y16990D01*
X36150Y16977D01*
X36216Y16990D01*
X36273Y17027D01*
X36310Y17084D01*
X36323Y17150D01*
X36310Y17216D01*
X36277Y17265D01*
Y17420D01*
X36580D01*
Y17758D01*
X36616Y17773D01*
X36630Y17776D01*
X36684Y17740D01*
X36741Y17728D01*
X37310Y17160D01*
X37351Y17132D01*
X37400Y17123D01*
X39512D01*
X39527Y17073D01*
X39490Y17016D01*
X39477Y16950D01*
X39490Y16884D01*
X39527Y16827D01*
X39584Y16790D01*
X39650Y16777D01*
X39716Y16790D01*
X39765Y16823D01*
X40600D01*
X40649Y16832D01*
X40690Y16860D01*
X41003Y17173D01*
X41062D01*
X41077Y17123D01*
X41040Y17066D01*
X41027Y17000D01*
X41040Y16934D01*
X41077Y16877D01*
X41134Y16840D01*
X41200Y16827D01*
X41266Y16840D01*
X41315Y16873D01*
X41468D01*
Y16774D01*
X41883D01*
Y17173D01*
X42095D01*
Y17067D01*
X42097Y17055D01*
Y16777D01*
X42512D01*
Y17192D01*
X42350D01*
Y17228D01*
X42340Y17276D01*
X42312Y17318D01*
X42240Y17390D01*
X42199Y17418D01*
X42150Y17427D01*
X41320D01*
Y18005D01*
X41459D01*
X41468Y17997D01*
Y17762D01*
X41883D01*
Y18143D01*
X41933Y18164D01*
X42097Y18000D01*
Y17765D01*
X42512D01*
Y18180D01*
X42278D01*
X41917Y18540D01*
X41876Y18568D01*
X41827Y18577D01*
X41327D01*
X41320Y18583D01*
Y19120D01*
X40420D01*
Y18827D01*
X39829D01*
X39805Y18872D01*
X39810Y18879D01*
X39822Y18936D01*
X40308Y19423D01*
X41474D01*
X41498Y19378D01*
X41490Y19366D01*
X41477Y19300D01*
X41490Y19234D01*
X41503Y19215D01*
X41476Y19165D01*
X41468D01*
Y18750D01*
X41883D01*
Y19165D01*
X41815D01*
X41797Y19215D01*
X41810Y19234D01*
X41823Y19300D01*
X41810Y19366D01*
X41802Y19378D01*
X41826Y19423D01*
X42147D01*
X42177Y19392D01*
Y19167D01*
X42097D01*
Y18753D01*
X42512D01*
Y19167D01*
X42432D01*
Y19445D01*
X42423Y19494D01*
X42395Y19535D01*
X42290Y19640D01*
X42249Y19668D01*
X42200Y19677D01*
X40368D01*
X40348Y19727D01*
X40600Y19980D01*
X41320D01*
Y20517D01*
X41327Y20523D01*
X41550D01*
X41612Y20461D01*
X41597Y20413D01*
X41584Y20410D01*
X41527Y20373D01*
X41490Y20316D01*
X41477Y20250D01*
X41486Y20202D01*
X41468Y20152D01*
X41468D01*
Y19737D01*
X41883D01*
Y20119D01*
X41933Y20140D01*
X42097Y19975D01*
Y19740D01*
X42512D01*
Y20155D01*
X42278D01*
X41754Y20679D01*
X41773Y20725D01*
X41883D01*
Y21107D01*
X41933Y21127D01*
X42097Y20963D01*
Y20728D01*
X42512D01*
Y21143D01*
X42278D01*
X42040Y21380D01*
X41999Y21408D01*
X41950Y21418D01*
X39898D01*
X39849Y21408D01*
X39808Y21380D01*
X39651Y21223D01*
X39650Y21223D01*
X39584Y21210D01*
X39527Y21173D01*
X39490Y21116D01*
X39477Y21050D01*
X39490Y20984D01*
X39527Y20927D01*
X39584Y20890D01*
X39650Y20877D01*
X39716Y20890D01*
X39773Y20927D01*
X39810Y20984D01*
X39820Y21032D01*
X39951Y21163D01*
X41142D01*
X41147Y21113D01*
X41134Y21110D01*
X41077Y21073D01*
X41040Y21016D01*
X41027Y20950D01*
X41040Y20884D01*
X41074Y20832D01*
X41068Y20809D01*
X41055Y20782D01*
X40418D01*
X40369Y20773D01*
X40328Y20745D01*
X40160Y20577D01*
X39765D01*
X39716Y20610D01*
X39650Y20623D01*
X39584Y20610D01*
X39527Y20573D01*
X39490Y20516D01*
X39477Y20450D01*
X39490Y20384D01*
X39527Y20327D01*
X39584Y20290D01*
X39650Y20277D01*
X39716Y20290D01*
X39765Y20323D01*
X40213D01*
X40262Y20332D01*
X40303Y20360D01*
X40374Y20430D01*
X40420Y20411D01*
Y20160D01*
X40187Y19927D01*
X39770D01*
X39722Y19918D01*
X39702Y19905D01*
X39692Y19906D01*
X39650Y19928D01*
X39642Y19988D01*
X39612Y20061D01*
X39564Y20124D01*
X39501Y20172D01*
X39428Y20202D01*
X39350Y20213D01*
X39272Y20202D01*
X39199Y20172D01*
X39136Y20124D01*
X39088Y20061D01*
X39058Y19988D01*
X39047Y19910D01*
X39058Y19832D01*
X39088Y19759D01*
X39123Y19712D01*
X39102Y19662D01*
X37908D01*
X37887Y19712D01*
X37922Y19759D01*
X37952Y19832D01*
X37963Y19910D01*
X37952Y19988D01*
X37922Y20061D01*
X37874Y20124D01*
X37811Y20172D01*
X37738Y20202D01*
X37660Y20213D01*
X37582Y20202D01*
X37509Y20172D01*
X37446Y20124D01*
X37398Y20061D01*
X37368Y19988D01*
X37357Y19910D01*
X37360Y19891D01*
X37313Y19868D01*
X36872Y20309D01*
X36860Y20366D01*
X36823Y20423D01*
X36766Y20460D01*
X36700Y20473D01*
X36634Y20460D01*
X36624Y20454D01*
X36580Y20477D01*
Y20580D01*
X36257D01*
Y20827D01*
X36479Y21049D01*
X36531Y21030D01*
X36540Y20984D01*
X36577Y20927D01*
X36634Y20890D01*
X36700Y20877D01*
X36766Y20890D01*
X36823Y20927D01*
X36860Y20984D01*
X36873Y21050D01*
X36860Y21116D01*
X36823Y21173D01*
X36766Y21210D01*
X36720Y21219D01*
X36701Y21271D01*
X36909Y21478D01*
X36966Y21490D01*
X37023Y21527D01*
X37060Y21584D01*
X37073Y21650D01*
X37060Y21716D01*
X37052Y21728D01*
X37076Y21773D01*
X38830D01*
X38879Y21782D01*
X38920Y21810D01*
X39428Y22318D01*
X39482Y22300D01*
X39490Y22259D01*
X39527Y22202D01*
X39584Y22165D01*
X39650Y22152D01*
X39685Y22159D01*
X39739Y22105D01*
X39781Y22077D01*
X39829Y22068D01*
X41009D01*
X41033Y22023D01*
X41028Y22016D01*
X41015Y21950D01*
X41028Y21884D01*
X41066Y21827D01*
X41084Y21815D01*
X41069Y21765D01*
X39810D01*
X39810Y21766D01*
X39773Y21823D01*
X39716Y21860D01*
X39650Y21873D01*
X39584Y21860D01*
X39527Y21823D01*
X39490Y21766D01*
X39477Y21700D01*
X39490Y21634D01*
X39527Y21577D01*
X39584Y21540D01*
X39650Y21527D01*
X39672Y21531D01*
X39688Y21520D01*
X39736Y21510D01*
X42020D01*
X42068Y21520D01*
X42110Y21548D01*
X42278Y21716D01*
X42512D01*
Y22131D01*
X42097D01*
Y21896D01*
X41967Y21765D01*
X41883D01*
Y22128D01*
X41767D01*
X41748Y22174D01*
X42278Y22703D01*
X42512D01*
Y23118D01*
X42097D01*
Y22884D01*
X41933Y22719D01*
X41883Y22740D01*
Y23116D01*
X41842D01*
X41815Y23166D01*
X41827Y23184D01*
X41840Y23250D01*
X41827Y23316D01*
X41790Y23373D01*
X41733Y23410D01*
X41667Y23423D01*
X41601Y23410D01*
X41544Y23373D01*
X41507Y23316D01*
X41494Y23250D01*
X41507Y23184D01*
X41519Y23166D01*
X41492Y23116D01*
X41468D01*
Y22701D01*
X41844D01*
X41864Y22651D01*
X41544Y22330D01*
X41330D01*
X41320Y22338D01*
Y22870D01*
X40420D01*
Y22697D01*
X39595D01*
X39570Y22747D01*
X39602Y22789D01*
X39632Y22862D01*
X39643Y22940D01*
X39632Y23018D01*
X39602Y23091D01*
X39554Y23154D01*
X39491Y23202D01*
X39418Y23232D01*
X39340Y23243D01*
X39262Y23232D01*
X39189Y23202D01*
X39126Y23154D01*
X39078Y23091D01*
X39048Y23018D01*
X39037Y22940D01*
X39048Y22862D01*
X39078Y22789D01*
X39126Y22726D01*
X39189Y22678D01*
X39262Y22648D01*
X39319Y22640D01*
X39340Y22589D01*
X38778Y22027D01*
X37141D01*
X37120Y22077D01*
X37190Y22148D01*
X37218Y22189D01*
X37227Y22238D01*
Y24678D01*
X37309Y24760D01*
X37360Y24739D01*
X37368Y24682D01*
X37398Y24609D01*
X37446Y24546D01*
X37509Y24498D01*
X37582Y24468D01*
X37660Y24457D01*
X37738Y24468D01*
X37811Y24498D01*
X37874Y24546D01*
X37922Y24609D01*
X37952Y24682D01*
X37963Y24760D01*
X37952Y24838D01*
X37922Y24911D01*
X37874Y24974D01*
X37811Y25022D01*
X37738Y25052D01*
X37681Y25060D01*
X37660Y25111D01*
X38096Y25546D01*
X39566D01*
X39589Y25502D01*
X39585Y25495D01*
X39571Y25428D01*
X39583Y25372D01*
X39562Y25341D01*
X39548Y25327D01*
X38987D01*
X38938Y25318D01*
X38897Y25290D01*
X38884Y25277D01*
X38465D01*
X38416Y25310D01*
X38350Y25323D01*
X38284Y25310D01*
X38227Y25273D01*
X38190Y25216D01*
X38177Y25150D01*
X38190Y25084D01*
X38227Y25027D01*
X38284Y24990D01*
X38350Y24977D01*
X38416Y24990D01*
X38465Y25023D01*
X38937D01*
X38986Y25032D01*
X39027Y25060D01*
X39040Y25073D01*
X39190D01*
X39200Y25023D01*
X39199Y25022D01*
X39136Y24974D01*
X39088Y24911D01*
X39058Y24838D01*
X39047Y24760D01*
X39058Y24682D01*
X39088Y24609D01*
X39136Y24546D01*
X39199Y24498D01*
X39272Y24468D01*
X39350Y24457D01*
X39428Y24468D01*
X39501Y24498D01*
X39564Y24546D01*
X39612Y24609D01*
X39642Y24682D01*
X39653Y24760D01*
X39642Y24838D01*
X39629Y24870D01*
X39672Y24898D01*
X40420Y24150D01*
Y23741D01*
X39954D01*
X39809Y23885D01*
X39801Y23925D01*
X39764Y23982D01*
X39708Y24019D01*
X39641Y24032D01*
X39575Y24019D01*
X39519Y23982D01*
X39481Y23925D01*
X39468Y23859D01*
X39481Y23793D01*
X39519Y23736D01*
X39575Y23699D01*
X39641Y23686D01*
X39647Y23687D01*
X39811Y23523D01*
X39852Y23496D01*
X39901Y23486D01*
X42020D01*
X42068Y23496D01*
X42110Y23523D01*
X42278Y23691D01*
X42512D01*
Y24106D01*
X42097D01*
Y23871D01*
X41967Y23741D01*
X41883D01*
Y24103D01*
X41825D01*
X41807Y24153D01*
X41827Y24184D01*
X41840Y24250D01*
X41827Y24316D01*
X41790Y24373D01*
X41733Y24410D01*
X41667Y24423D01*
X41601Y24410D01*
X41544Y24373D01*
X41507Y24316D01*
X41494Y24250D01*
X41507Y24184D01*
X41527Y24153D01*
X41500Y24103D01*
X41468D01*
Y23741D01*
X41320D01*
Y24330D01*
X40600D01*
X40474Y24456D01*
X40506Y24495D01*
X40523Y24483D01*
X40572Y24474D01*
X42020D01*
X42068Y24483D01*
X42110Y24511D01*
X42278Y24679D01*
X42512D01*
Y25094D01*
X42097D01*
Y24859D01*
X41967Y24728D01*
X41883D01*
Y25091D01*
X41790D01*
Y25204D01*
X41810Y25234D01*
X41823Y25300D01*
X41810Y25366D01*
X41802Y25378D01*
X41826Y25423D01*
X41981D01*
X42030Y25432D01*
X42071Y25460D01*
X42278Y25667D01*
X42512D01*
Y26081D01*
X42097D01*
Y25847D01*
X41933Y25682D01*
X41883Y25689D01*
Y26079D01*
X41468D01*
Y26013D01*
X41379D01*
X41373Y26023D01*
X41316Y26060D01*
X41250Y26073D01*
X41184Y26060D01*
X41127Y26023D01*
X41090Y25966D01*
X41077Y25900D01*
X41090Y25834D01*
X41127Y25777D01*
X41184Y25740D01*
X41250Y25727D01*
X41316Y25740D01*
X41344Y25758D01*
X41468D01*
Y25677D01*
X41153D01*
X40790Y26040D01*
X40749Y26068D01*
X40700Y26077D01*
X40015D01*
X39966Y26110D01*
X39900Y26123D01*
D02*
G37*
G36*
X50295Y28138D02*
X50191Y28125D01*
X50093Y28084D01*
X50010Y28020D01*
X49946Y27937D01*
X49905Y27839D01*
X49892Y27735D01*
X49905Y27631D01*
X49946Y27533D01*
X50010Y27450D01*
X50064Y27408D01*
Y24813D01*
X50005Y24806D01*
X49916Y24769D01*
X49840Y24710D01*
X49785Y24639D01*
X49777Y24634D01*
X49725Y24628D01*
X49442Y24910D01*
Y25365D01*
X49715D01*
Y26165D01*
X48915D01*
Y25365D01*
X49188D01*
Y24857D01*
X49188Y24857D01*
X49146Y24812D01*
X49100Y24818D01*
X49005Y24806D01*
X48916Y24769D01*
X48840Y24710D01*
X48781Y24634D01*
X48744Y24545D01*
X48732Y24450D01*
X48744Y24355D01*
X48781Y24266D01*
X48840Y24190D01*
X48916Y24131D01*
X49005Y24094D01*
X49100Y24082D01*
X49195Y24094D01*
X49284Y24131D01*
X49360Y24190D01*
X49419Y24266D01*
X49456Y24355D01*
X49464Y24421D01*
X49517Y24445D01*
X49533Y24434D01*
Y24190D01*
X49542Y24141D01*
X49570Y24100D01*
X50215Y23454D01*
X50191Y23417D01*
X50177Y23351D01*
X50191Y23284D01*
X50228Y23228D01*
X50284Y23191D01*
X50351Y23177D01*
X50417Y23191D01*
X50473Y23228D01*
X50511Y23284D01*
X50524Y23351D01*
X50511Y23417D01*
X50478Y23466D01*
Y23499D01*
X50468Y23548D01*
X50441Y23589D01*
X49980Y24051D01*
X50003Y24091D01*
X50007Y24094D01*
X50100Y24082D01*
X50195Y24094D01*
X50284Y24131D01*
X50360Y24190D01*
X50419Y24266D01*
X50456Y24355D01*
X50468Y24450D01*
X50456Y24545D01*
X50419Y24634D01*
X50360Y24710D01*
X50319Y24742D01*
Y27335D01*
X50399Y27345D01*
X50497Y27386D01*
X50580Y27450D01*
X50644Y27533D01*
X50685Y27631D01*
X50698Y27735D01*
X50685Y27839D01*
X50644Y27937D01*
X50580Y28020D01*
X50497Y28084D01*
X50399Y28125D01*
X50295Y28138D01*
D02*
G37*
G36*
X52100Y24818D02*
X52005Y24806D01*
X51916Y24769D01*
X51840Y24710D01*
X51781Y24634D01*
X51744Y24545D01*
X51732Y24450D01*
X51744Y24355D01*
X51781Y24266D01*
X51840Y24190D01*
X51916Y24131D01*
X52005Y24094D01*
X52100Y24082D01*
X52195Y24094D01*
X52284Y24131D01*
X52360Y24190D01*
X52419Y24266D01*
X52456Y24355D01*
X52468Y24450D01*
X52456Y24545D01*
X52419Y24634D01*
X52360Y24710D01*
X52284Y24769D01*
X52195Y24806D01*
X52100Y24818D01*
D02*
G37*
G36*
X48100D02*
X48005Y24806D01*
X47916Y24769D01*
X47840Y24710D01*
X47781Y24634D01*
X47744Y24545D01*
X47732Y24450D01*
X47744Y24355D01*
X47781Y24266D01*
X47840Y24190D01*
X47916Y24131D01*
X48005Y24094D01*
X48100Y24082D01*
X48195Y24094D01*
X48284Y24131D01*
X48360Y24190D01*
X48419Y24266D01*
X48456Y24355D01*
X48468Y24450D01*
X48456Y24545D01*
X48419Y24634D01*
X48360Y24710D01*
X48284Y24769D01*
X48195Y24806D01*
X48100Y24818D01*
D02*
G37*
G36*
X46100D02*
X46005Y24806D01*
X45916Y24769D01*
X45840Y24710D01*
X45781Y24634D01*
X45744Y24545D01*
X45732Y24450D01*
X45744Y24355D01*
X45781Y24266D01*
X45840Y24190D01*
X45916Y24131D01*
X46005Y24094D01*
X46100Y24082D01*
X46195Y24094D01*
X46284Y24131D01*
X46360Y24190D01*
X46419Y24266D01*
X46456Y24355D01*
X46468Y24450D01*
X46456Y24545D01*
X46419Y24634D01*
X46360Y24710D01*
X46284Y24769D01*
X46195Y24806D01*
X46100Y24818D01*
D02*
G37*
G36*
X28250D02*
X28155Y24806D01*
X28066Y24769D01*
X27990Y24710D01*
X27931Y24634D01*
X27894Y24545D01*
X27882Y24450D01*
X27894Y24355D01*
X27931Y24266D01*
X27990Y24190D01*
X28066Y24131D01*
X28155Y24094D01*
X28250Y24082D01*
X28345Y24094D01*
X28434Y24131D01*
X28510Y24190D01*
X28569Y24266D01*
X28606Y24355D01*
X28618Y24450D01*
X28606Y24545D01*
X28569Y24634D01*
X28510Y24710D01*
X28434Y24769D01*
X28345Y24806D01*
X28250Y24818D01*
D02*
G37*
G36*
X26195Y28138D02*
X26091Y28125D01*
X25993Y28084D01*
X25910Y28020D01*
X25846Y27937D01*
X25805Y27839D01*
X25792Y27735D01*
X25805Y27631D01*
X25846Y27533D01*
X25910Y27450D01*
X25993Y27386D01*
X26091Y27345D01*
X26095Y27345D01*
Y24781D01*
X26066Y24769D01*
X25990Y24710D01*
X25931Y24634D01*
X25894Y24545D01*
X25882Y24450D01*
X25894Y24355D01*
X25931Y24266D01*
X25990Y24190D01*
X26066Y24131D01*
X26155Y24094D01*
X26250Y24082D01*
X26345Y24094D01*
X26434Y24131D01*
X26510Y24190D01*
X26569Y24266D01*
X26606Y24355D01*
X26618Y24450D01*
X26606Y24545D01*
X26569Y24634D01*
X26510Y24710D01*
X26434Y24769D01*
X26350Y24804D01*
Y27366D01*
X26397Y27386D01*
X26480Y27450D01*
X26544Y27533D01*
X26585Y27631D01*
X26598Y27735D01*
X26585Y27839D01*
X26544Y27937D01*
X26480Y28020D01*
X26397Y28084D01*
X26299Y28125D01*
X26195Y28138D01*
D02*
G37*
G36*
X25615Y26165D02*
X24815D01*
Y25365D01*
X25088D01*
Y25134D01*
X24720Y24767D01*
X24692Y24725D01*
X24683Y24676D01*
Y23490D01*
X24692Y23441D01*
X24720Y23400D01*
X25178Y22941D01*
X25190Y22884D01*
X25227Y22827D01*
X25284Y22790D01*
X25350Y22777D01*
X25416Y22790D01*
X25473Y22827D01*
X25510Y22884D01*
X25523Y22950D01*
X25510Y23016D01*
X25473Y23073D01*
X25416Y23110D01*
X25359Y23122D01*
X24937Y23543D01*
Y24180D01*
X24985Y24196D01*
X24990Y24190D01*
X25066Y24131D01*
X25155Y24094D01*
X25250Y24082D01*
X25345Y24094D01*
X25434Y24131D01*
X25510Y24190D01*
X25569Y24266D01*
X25606Y24355D01*
X25618Y24450D01*
X25606Y24545D01*
X25569Y24634D01*
X25510Y24710D01*
X25434Y24769D01*
X25345Y24806D01*
X25250Y24818D01*
X25196Y24811D01*
X25172Y24858D01*
X25305Y24991D01*
X25333Y25033D01*
X25342Y25081D01*
Y25365D01*
X25615D01*
Y26165D01*
D02*
G37*
G36*
X24250Y24818D02*
X24155Y24806D01*
X24066Y24769D01*
X23990Y24710D01*
X23931Y24634D01*
X23894Y24545D01*
X23882Y24450D01*
X23894Y24355D01*
X23931Y24266D01*
X23990Y24190D01*
X24066Y24131D01*
X24155Y24094D01*
X24250Y24082D01*
X24345Y24094D01*
X24434Y24131D01*
X24510Y24190D01*
X24569Y24266D01*
X24606Y24355D01*
X24618Y24450D01*
X24606Y24545D01*
X24569Y24634D01*
X24510Y24710D01*
X24434Y24769D01*
X24345Y24806D01*
X24250Y24818D01*
D02*
G37*
G36*
X22250D02*
X22155Y24806D01*
X22066Y24769D01*
X21990Y24710D01*
X21931Y24634D01*
X21894Y24545D01*
X21882Y24450D01*
X21894Y24355D01*
X21931Y24266D01*
X21990Y24190D01*
X22066Y24131D01*
X22155Y24094D01*
X22250Y24082D01*
X22345Y24094D01*
X22434Y24131D01*
X22510Y24190D01*
X22569Y24266D01*
X22606Y24355D01*
X22618Y24450D01*
X22606Y24545D01*
X22569Y24634D01*
X22510Y24710D01*
X22434Y24769D01*
X22345Y24806D01*
X22250Y24818D01*
D02*
G37*
G36*
X37650Y23243D02*
X37572Y23232D01*
X37499Y23202D01*
X37436Y23154D01*
X37388Y23091D01*
X37358Y23018D01*
X37347Y22940D01*
X37358Y22862D01*
X37388Y22789D01*
X37436Y22726D01*
X37499Y22678D01*
X37572Y22648D01*
X37650Y22637D01*
X37728Y22648D01*
X37801Y22678D01*
X37864Y22726D01*
X37912Y22789D01*
X37942Y22862D01*
X37953Y22940D01*
X37942Y23018D01*
X37912Y23091D01*
X37864Y23154D01*
X37801Y23202D01*
X37728Y23232D01*
X37650Y23243D01*
D02*
G37*
G36*
X54465Y24815D02*
X53735D01*
Y24085D01*
X54285D01*
X54473Y23897D01*
Y21635D01*
X54423Y21625D01*
X54419Y21634D01*
X54360Y21710D01*
X54284Y21769D01*
X54195Y21806D01*
X54100Y21818D01*
X54005Y21806D01*
X53916Y21769D01*
X53840Y21710D01*
X53781Y21634D01*
X53744Y21545D01*
X53732Y21450D01*
X53742Y21370D01*
X52994Y20622D01*
X52968Y20643D01*
X52883Y20678D01*
X52791Y20690D01*
X52700Y20678D01*
X52615Y20643D01*
X52542Y20587D01*
X52486Y20514D01*
X52450Y20428D01*
X52438Y20337D01*
X52450Y20246D01*
X52486Y20160D01*
X52542Y20087D01*
X52615Y20031D01*
X52700Y19996D01*
X52791Y19984D01*
X52883Y19996D01*
X52968Y20031D01*
X53041Y20087D01*
X53097Y20160D01*
X53132Y20246D01*
X53144Y20337D01*
X53136Y20403D01*
X53199Y20467D01*
X53241Y20438D01*
X53237Y20428D01*
X53225Y20337D01*
X53237Y20246D01*
X53273Y20160D01*
X53329Y20087D01*
X53402Y20031D01*
X53487Y19996D01*
X53578Y19984D01*
X53670Y19996D01*
X53755Y20031D01*
X53828Y20087D01*
X53884Y20160D01*
X53919Y20246D01*
X53923Y20276D01*
X53954D01*
X54003Y20286D01*
X54044Y20314D01*
X54690Y20960D01*
X54718Y21001D01*
X54727Y21050D01*
Y23950D01*
X54718Y23999D01*
X54690Y24040D01*
X54465Y24265D01*
Y24815D01*
D02*
G37*
G36*
X53100Y21818D02*
X53005Y21806D01*
X52916Y21769D01*
X52840Y21710D01*
X52781Y21634D01*
X52744Y21545D01*
X52732Y21450D01*
X52744Y21355D01*
X52770Y21292D01*
X52139Y20660D01*
X52096Y20678D01*
X52004Y20690D01*
X51913Y20678D01*
X51828Y20643D01*
X51755Y20587D01*
X51699Y20514D01*
X51663Y20428D01*
X51651Y20337D01*
X51663Y20246D01*
X51699Y20160D01*
X51755Y20087D01*
X51828Y20031D01*
X51913Y19996D01*
X52004Y19984D01*
X52096Y19996D01*
X52181Y20031D01*
X52254Y20087D01*
X52310Y20160D01*
X52345Y20246D01*
X52357Y20337D01*
X52345Y20428D01*
X52322Y20484D01*
X52954Y21115D01*
X53005Y21094D01*
X53100Y21082D01*
X53195Y21094D01*
X53284Y21131D01*
X53360Y21190D01*
X53419Y21266D01*
X53456Y21355D01*
X53468Y21450D01*
X53456Y21545D01*
X53419Y21634D01*
X53360Y21710D01*
X53284Y21769D01*
X53195Y21806D01*
X53100Y21818D01*
D02*
G37*
G36*
X52100D02*
X52005Y21806D01*
X51916Y21769D01*
X51840Y21710D01*
X51781Y21634D01*
X51744Y21545D01*
X51732Y21450D01*
X51744Y21355D01*
X51781Y21266D01*
X51811Y21227D01*
X51268Y20683D01*
X51217Y20690D01*
X51126Y20678D01*
X51041Y20643D01*
X50968Y20587D01*
X50912Y20514D01*
X50876Y20428D01*
X50864Y20337D01*
X50876Y20246D01*
X50912Y20160D01*
X50968Y20087D01*
X51041Y20031D01*
X51126Y19996D01*
X51217Y19984D01*
X51309Y19996D01*
X51394Y20031D01*
X51467Y20087D01*
X51523Y20160D01*
X51558Y20246D01*
X51570Y20337D01*
X51558Y20428D01*
X51523Y20514D01*
X51495Y20550D01*
X52036Y21090D01*
X52100Y21082D01*
X52195Y21094D01*
X52284Y21131D01*
X52360Y21190D01*
X52419Y21266D01*
X52456Y21355D01*
X52468Y21450D01*
X52456Y21545D01*
X52419Y21634D01*
X52360Y21710D01*
X52284Y21769D01*
X52195Y21806D01*
X52100Y21818D01*
D02*
G37*
G36*
X51100D02*
X51005Y21806D01*
X50916Y21769D01*
X50840Y21710D01*
X50781Y21634D01*
X50744Y21545D01*
X50732Y21450D01*
X50744Y21355D01*
X50768Y21298D01*
X50422Y20952D01*
X50394Y20911D01*
X50385Y20862D01*
Y20684D01*
X50339Y20678D01*
X50254Y20643D01*
X50181Y20587D01*
X50125Y20514D01*
X50089Y20428D01*
X50077Y20337D01*
X50089Y20246D01*
X50125Y20160D01*
X50181Y20087D01*
X50254Y20031D01*
X50339Y19996D01*
X50430Y19984D01*
X50522Y19996D01*
X50607Y20031D01*
X50680Y20087D01*
X50736Y20160D01*
X50771Y20246D01*
X50783Y20337D01*
X50771Y20428D01*
X50736Y20514D01*
X50680Y20587D01*
X50639Y20618D01*
Y20809D01*
X50948Y21118D01*
X51005Y21094D01*
X51100Y21082D01*
X51195Y21094D01*
X51284Y21131D01*
X51360Y21190D01*
X51419Y21266D01*
X51456Y21355D01*
X51468Y21450D01*
X51456Y21545D01*
X51419Y21634D01*
X51360Y21710D01*
X51284Y21769D01*
X51195Y21806D01*
X51100Y21818D01*
D02*
G37*
G36*
X30250D02*
X30155Y21806D01*
X30066Y21769D01*
X29990Y21710D01*
X29931Y21634D01*
X29894Y21545D01*
X29882Y21450D01*
X29894Y21355D01*
X29918Y21299D01*
X29276Y20657D01*
X29226Y20678D01*
X29135Y20690D01*
X29043Y20678D01*
X28958Y20643D01*
X28885Y20587D01*
X28829Y20514D01*
X28794Y20428D01*
X28781Y20337D01*
X28794Y20246D01*
X28829Y20160D01*
X28885Y20087D01*
X28958Y20031D01*
X29043Y19996D01*
X29135Y19984D01*
X29226Y19996D01*
X29311Y20031D01*
X29384Y20087D01*
X29440Y20160D01*
X29475Y20246D01*
X29488Y20337D01*
X29475Y20428D01*
X29456Y20477D01*
X30097Y21118D01*
X30155Y21094D01*
X30250Y21082D01*
X30345Y21094D01*
X30434Y21131D01*
X30510Y21190D01*
X30569Y21266D01*
X30606Y21355D01*
X30618Y21450D01*
X30606Y21545D01*
X30569Y21634D01*
X30510Y21710D01*
X30434Y21769D01*
X30345Y21806D01*
X30250Y21818D01*
D02*
G37*
G36*
X29250D02*
X29155Y21806D01*
X29066Y21769D01*
X28990Y21710D01*
X28931Y21634D01*
X28894Y21545D01*
X28882Y21450D01*
X28894Y21355D01*
X28931Y21266D01*
X28957Y21232D01*
X28407Y20682D01*
X28347Y20690D01*
X28256Y20678D01*
X28171Y20643D01*
X28098Y20587D01*
X28042Y20514D01*
X28007Y20428D01*
X27994Y20337D01*
X28007Y20246D01*
X28042Y20160D01*
X28098Y20087D01*
X28171Y20031D01*
X28256Y19996D01*
X28347Y19984D01*
X28439Y19996D01*
X28524Y20031D01*
X28597Y20087D01*
X28653Y20160D01*
X28688Y20246D01*
X28701Y20337D01*
X28688Y20428D01*
X28653Y20514D01*
X28630Y20544D01*
X29177Y21091D01*
X29250Y21082D01*
X29345Y21094D01*
X29434Y21131D01*
X29510Y21190D01*
X29569Y21266D01*
X29606Y21355D01*
X29618Y21450D01*
X29606Y21545D01*
X29569Y21634D01*
X29510Y21710D01*
X29434Y21769D01*
X29345Y21806D01*
X29250Y21818D01*
D02*
G37*
G36*
X27250D02*
X27155Y21806D01*
X27066Y21769D01*
X26990Y21710D01*
X26931Y21634D01*
X26894Y21545D01*
X26882Y21450D01*
X26894Y21355D01*
X26918Y21298D01*
X26702Y21082D01*
X26674Y21041D01*
X26664Y20992D01*
Y20671D01*
X26597Y20643D01*
X26524Y20587D01*
X26468Y20514D01*
X26433Y20428D01*
X26420Y20337D01*
X26433Y20246D01*
X26468Y20160D01*
X26524Y20087D01*
X26597Y20031D01*
X26682Y19996D01*
X26774Y19984D01*
X26865Y19996D01*
X26950Y20031D01*
X27023Y20087D01*
X27079Y20160D01*
X27114Y20246D01*
X27127Y20337D01*
X27114Y20428D01*
X27079Y20514D01*
X27023Y20587D01*
X26950Y20643D01*
X26919Y20655D01*
Y20939D01*
X27098Y21118D01*
X27155Y21094D01*
X27250Y21082D01*
X27345Y21094D01*
X27434Y21131D01*
X27510Y21190D01*
X27569Y21266D01*
X27606Y21355D01*
X27618Y21450D01*
X27606Y21545D01*
X27569Y21634D01*
X27510Y21710D01*
X27434Y21769D01*
X27345Y21806D01*
X27250Y21818D01*
D02*
G37*
G36*
X26250D02*
X26155Y21806D01*
X26066Y21769D01*
X25990Y21710D01*
X25931Y21634D01*
X25894Y21545D01*
X25882Y21450D01*
X25894Y21355D01*
X25931Y21266D01*
X25968Y21218D01*
X25896Y21147D01*
X25869Y21105D01*
X25859Y21057D01*
Y20663D01*
X25810Y20643D01*
X25737Y20587D01*
X25681Y20514D01*
X25646Y20428D01*
X25633Y20337D01*
X25646Y20246D01*
X25681Y20160D01*
X25737Y20087D01*
X25810Y20031D01*
X25895Y19996D01*
X25986Y19984D01*
X26078Y19996D01*
X26163Y20031D01*
X26236Y20087D01*
X26292Y20160D01*
X26327Y20246D01*
X26340Y20337D01*
X26327Y20428D01*
X26292Y20514D01*
X26236Y20587D01*
X26163Y20643D01*
X26114Y20663D01*
Y21004D01*
X26199Y21089D01*
X26250Y21082D01*
X26345Y21094D01*
X26434Y21131D01*
X26510Y21190D01*
X26569Y21266D01*
X26606Y21355D01*
X26618Y21450D01*
X26606Y21545D01*
X26569Y21634D01*
X26510Y21710D01*
X26434Y21769D01*
X26345Y21806D01*
X26250Y21818D01*
D02*
G37*
G36*
X49100D02*
X49005Y21806D01*
X48916Y21769D01*
X48840Y21710D01*
X48781Y21634D01*
X48744Y21545D01*
X48732Y21450D01*
X48744Y21355D01*
X48781Y21266D01*
X48840Y21190D01*
X48916Y21131D01*
X48973Y21108D01*
Y20755D01*
X48901Y20684D01*
X48856Y20690D01*
X48765Y20678D01*
X48680Y20643D01*
X48607Y20587D01*
X48551Y20514D01*
X48515Y20428D01*
X48503Y20337D01*
X48515Y20246D01*
X48551Y20160D01*
X48607Y20087D01*
X48680Y20031D01*
X48765Y19996D01*
X48856Y19984D01*
X48948Y19996D01*
X49033Y20031D01*
X49106Y20087D01*
X49162Y20160D01*
X49197Y20246D01*
X49209Y20337D01*
X49197Y20428D01*
X49162Y20514D01*
X49131Y20554D01*
X49190Y20612D01*
X49218Y20654D01*
X49227Y20702D01*
Y21108D01*
X49284Y21131D01*
X49360Y21190D01*
X49419Y21266D01*
X49456Y21355D01*
X49468Y21450D01*
X49456Y21545D01*
X49419Y21634D01*
X49360Y21710D01*
X49284Y21769D01*
X49195Y21806D01*
X49100Y21818D01*
D02*
G37*
G36*
X50100D02*
X50005Y21806D01*
X49916Y21769D01*
X49840Y21710D01*
X49781Y21634D01*
X49744Y21545D01*
X49732Y21450D01*
X49744Y21355D01*
X49781Y21266D01*
X49840Y21190D01*
X49916Y21131D01*
X49967Y21110D01*
Y20841D01*
X49784Y20658D01*
X49735Y20678D01*
X49643Y20690D01*
X49552Y20678D01*
X49467Y20643D01*
X49394Y20587D01*
X49338Y20514D01*
X49302Y20428D01*
X49290Y20337D01*
X49302Y20246D01*
X49338Y20160D01*
X49394Y20087D01*
X49467Y20031D01*
X49552Y19996D01*
X49643Y19984D01*
X49735Y19996D01*
X49820Y20031D01*
X49893Y20087D01*
X49949Y20160D01*
X49984Y20246D01*
X49996Y20337D01*
X49984Y20428D01*
X49964Y20477D01*
X50185Y20698D01*
X50212Y20740D01*
X50222Y20788D01*
Y21106D01*
X50284Y21131D01*
X50360Y21190D01*
X50419Y21266D01*
X50456Y21355D01*
X50468Y21450D01*
X50456Y21545D01*
X50419Y21634D01*
X50360Y21710D01*
X50284Y21769D01*
X50195Y21806D01*
X50100Y21818D01*
D02*
G37*
G36*
X30615Y24815D02*
X29885D01*
Y24085D01*
X30435D01*
X30673Y23847D01*
Y21268D01*
X30062Y20658D01*
X30013Y20678D01*
X29922Y20690D01*
X29830Y20678D01*
X29745Y20643D01*
X29672Y20587D01*
X29616Y20514D01*
X29581Y20428D01*
X29568Y20337D01*
X29581Y20246D01*
X29616Y20160D01*
X29672Y20087D01*
X29745Y20031D01*
X29830Y19996D01*
X29922Y19984D01*
X30013Y19996D01*
X30098Y20031D01*
X30171Y20087D01*
X30227Y20160D01*
X30262Y20246D01*
X30275Y20337D01*
X30262Y20428D01*
X30242Y20477D01*
X30890Y21125D01*
X30918Y21167D01*
X30927Y21216D01*
Y23900D01*
X30918Y23949D01*
X30890Y23990D01*
X30615Y24265D01*
Y24815D01*
D02*
G37*
G36*
X28250Y21818D02*
X28155Y21806D01*
X28066Y21769D01*
X27990Y21710D01*
X27931Y21634D01*
X27894Y21545D01*
X27882Y21450D01*
X27894Y21355D01*
X27931Y21266D01*
X27990Y21190D01*
X28031Y21158D01*
Y20987D01*
X27701Y20658D01*
X27652Y20678D01*
X27561Y20690D01*
X27469Y20678D01*
X27384Y20643D01*
X27311Y20587D01*
X27255Y20514D01*
X27220Y20428D01*
X27207Y20337D01*
X27220Y20246D01*
X27255Y20160D01*
X27311Y20087D01*
X27384Y20031D01*
X27469Y19996D01*
X27561Y19984D01*
X27652Y19996D01*
X27737Y20031D01*
X27810Y20087D01*
X27866Y20160D01*
X27901Y20246D01*
X27914Y20337D01*
X27901Y20428D01*
X27881Y20477D01*
X28248Y20845D01*
X28276Y20886D01*
X28286Y20935D01*
Y21087D01*
X28345Y21094D01*
X28434Y21131D01*
X28510Y21190D01*
X28569Y21266D01*
X28606Y21355D01*
X28618Y21450D01*
X28606Y21545D01*
X28569Y21634D01*
X28510Y21710D01*
X28434Y21769D01*
X28345Y21806D01*
X28250Y21818D01*
D02*
G37*
G36*
X46100D02*
X46005Y21806D01*
X45916Y21769D01*
X45840Y21710D01*
X45781Y21634D01*
X45744Y21545D01*
X45732Y21450D01*
X45744Y21355D01*
X45781Y21266D01*
X45840Y21190D01*
X45916Y21131D01*
X45973Y21108D01*
Y20732D01*
X45982Y20684D01*
X46010Y20642D01*
X46145Y20507D01*
Y19987D01*
X46845D01*
Y20687D01*
X46326D01*
X46227Y20785D01*
Y21108D01*
X46284Y21131D01*
X46360Y21190D01*
X46419Y21266D01*
X46456Y21355D01*
X46468Y21450D01*
X46456Y21545D01*
X46419Y21634D01*
X46360Y21710D01*
X46284Y21769D01*
X46195Y21806D01*
X46100Y21818D01*
D02*
G37*
G36*
X22250D02*
X22155Y21806D01*
X22066Y21769D01*
X21990Y21710D01*
X21931Y21634D01*
X21894Y21545D01*
X21882Y21450D01*
X21894Y21355D01*
X21931Y21266D01*
X21990Y21190D01*
X22066Y21131D01*
X22155Y21094D01*
X22250Y21082D01*
X22345Y21094D01*
X22402Y21118D01*
X22711Y20809D01*
Y20687D01*
X22489D01*
Y19987D01*
X23189D01*
Y20687D01*
X22966D01*
Y20861D01*
X22956Y20910D01*
X22929Y20952D01*
X22582Y21298D01*
X22606Y21355D01*
X22618Y21450D01*
X22606Y21545D01*
X22569Y21634D01*
X22510Y21710D01*
X22434Y21769D01*
X22345Y21806D01*
X22250Y21818D01*
D02*
G37*
G36*
X48100D02*
X48005Y21806D01*
X47916Y21769D01*
X47840Y21710D01*
X47781Y21634D01*
X47744Y21545D01*
X47732Y21450D01*
X47744Y21355D01*
X47781Y21266D01*
X47840Y21190D01*
X47916Y21131D01*
X47957Y21114D01*
Y20669D01*
X47893Y20643D01*
X47820Y20587D01*
X47764Y20514D01*
X47728Y20428D01*
X47716Y20337D01*
X47728Y20246D01*
X47764Y20160D01*
X47820Y20087D01*
X47893Y20031D01*
X47978Y19996D01*
X48069Y19984D01*
X48161Y19996D01*
X48246Y20031D01*
X48319Y20087D01*
X48375Y20160D01*
X48410Y20246D01*
X48422Y20337D01*
X48410Y20428D01*
X48375Y20514D01*
X48319Y20587D01*
X48246Y20643D01*
X48212Y20657D01*
Y21101D01*
X48284Y21131D01*
X48360Y21190D01*
X48419Y21266D01*
X48456Y21355D01*
X48468Y21450D01*
X48456Y21545D01*
X48419Y21634D01*
X48360Y21710D01*
X48284Y21769D01*
X48195Y21806D01*
X48100Y21818D01*
D02*
G37*
G36*
X47100D02*
X47005Y21806D01*
X46916Y21769D01*
X46840Y21710D01*
X46781Y21634D01*
X46744Y21545D01*
X46732Y21450D01*
X46744Y21355D01*
X46781Y21266D01*
X46840Y21190D01*
X46916Y21131D01*
X46973Y21108D01*
Y20641D01*
X46982Y20592D01*
X47008Y20554D01*
X46977Y20514D01*
X46941Y20428D01*
X46929Y20337D01*
X46941Y20246D01*
X46977Y20160D01*
X47033Y20087D01*
X47106Y20031D01*
X47191Y19996D01*
X47282Y19984D01*
X47374Y19996D01*
X47459Y20031D01*
X47532Y20087D01*
X47588Y20160D01*
X47623Y20246D01*
X47635Y20337D01*
X47623Y20428D01*
X47588Y20514D01*
X47532Y20587D01*
X47459Y20643D01*
X47374Y20678D01*
X47282Y20690D01*
X47275Y20689D01*
X47227Y20732D01*
Y21108D01*
X47284Y21131D01*
X47360Y21190D01*
X47419Y21266D01*
X47456Y21355D01*
X47468Y21450D01*
X47456Y21545D01*
X47419Y21634D01*
X47360Y21710D01*
X47284Y21769D01*
X47195Y21806D01*
X47100Y21818D01*
D02*
G37*
G36*
X25250D02*
X25155Y21806D01*
X25066Y21769D01*
X24990Y21710D01*
X24931Y21634D01*
X24894Y21545D01*
X24882Y21450D01*
X24894Y21355D01*
X24931Y21266D01*
X24990Y21190D01*
X25066Y21131D01*
X25097Y21118D01*
Y20674D01*
X25023Y20643D01*
X24950Y20587D01*
X24894Y20514D01*
X24859Y20428D01*
X24846Y20337D01*
X24859Y20246D01*
X24894Y20160D01*
X24950Y20087D01*
X25023Y20031D01*
X25108Y19996D01*
X25199Y19984D01*
X25291Y19996D01*
X25376Y20031D01*
X25449Y20087D01*
X25505Y20160D01*
X25540Y20246D01*
X25553Y20337D01*
X25540Y20428D01*
X25505Y20514D01*
X25449Y20587D01*
X25376Y20643D01*
X25352Y20653D01*
Y21097D01*
X25434Y21131D01*
X25510Y21190D01*
X25569Y21266D01*
X25606Y21355D01*
X25618Y21450D01*
X25606Y21545D01*
X25569Y21634D01*
X25510Y21710D01*
X25434Y21769D01*
X25345Y21806D01*
X25250Y21818D01*
D02*
G37*
G36*
X24250D02*
X24155Y21806D01*
X24066Y21769D01*
X23990Y21710D01*
X23931Y21634D01*
X23894Y21545D01*
X23882Y21450D01*
X23894Y21355D01*
X23931Y21266D01*
X23990Y21190D01*
X24066Y21131D01*
X24155Y21094D01*
X24204Y21088D01*
Y20618D01*
X24163Y20587D01*
X24107Y20514D01*
X24072Y20428D01*
X24059Y20337D01*
X24072Y20246D01*
X24107Y20160D01*
X24163Y20087D01*
X24236Y20031D01*
X24321Y19996D01*
X24413Y19984D01*
X24504Y19996D01*
X24589Y20031D01*
X24662Y20087D01*
X24718Y20160D01*
X24753Y20246D01*
X24766Y20337D01*
X24753Y20428D01*
X24718Y20514D01*
X24662Y20587D01*
X24589Y20643D01*
X24504Y20678D01*
X24459Y20684D01*
Y21150D01*
X24510Y21190D01*
X24569Y21266D01*
X24606Y21355D01*
X24618Y21450D01*
X24606Y21545D01*
X24569Y21634D01*
X24510Y21710D01*
X24434Y21769D01*
X24345Y21806D01*
X24250Y21818D01*
D02*
G37*
G36*
X23250D02*
X23155Y21806D01*
X23066Y21769D01*
X22990Y21710D01*
X22931Y21634D01*
X22894Y21545D01*
X22882Y21450D01*
X22894Y21355D01*
X22931Y21266D01*
X22990Y21190D01*
X23066Y21131D01*
X23155Y21094D01*
X23250Y21082D01*
X23345Y21094D01*
X23393Y21114D01*
X23498Y21009D01*
Y20663D01*
X23449Y20643D01*
X23376Y20587D01*
X23320Y20514D01*
X23285Y20428D01*
X23272Y20337D01*
X23285Y20246D01*
X23320Y20160D01*
X23376Y20087D01*
X23449Y20031D01*
X23534Y19996D01*
X23626Y19984D01*
X23717Y19996D01*
X23802Y20031D01*
X23875Y20087D01*
X23931Y20160D01*
X23966Y20246D01*
X23979Y20337D01*
X23966Y20428D01*
X23931Y20514D01*
X23875Y20587D01*
X23802Y20643D01*
X23753Y20663D01*
Y21062D01*
X23743Y21111D01*
X23716Y21152D01*
X23578Y21289D01*
X23606Y21355D01*
X23618Y21450D01*
X23606Y21545D01*
X23569Y21634D01*
X23510Y21710D01*
X23434Y21769D01*
X23345Y21806D01*
X23250Y21818D01*
D02*
G37*
G36*
X34800Y19673D02*
X34734Y19660D01*
X34677Y19623D01*
X34640Y19566D01*
X34627Y19500D01*
X34640Y19434D01*
X34677Y19377D01*
X34734Y19340D01*
X34800Y19327D01*
X34866Y19340D01*
X34923Y19377D01*
X34960Y19434D01*
X34973Y19500D01*
X34960Y19566D01*
X34923Y19623D01*
X34866Y19660D01*
X34800Y19673D01*
D02*
G37*
G36*
X53578Y19903D02*
X53487Y19891D01*
X53402Y19856D01*
X53329Y19800D01*
X53273Y19727D01*
X53237Y19641D01*
X53225Y19550D01*
X53237Y19459D01*
X53273Y19373D01*
X53329Y19300D01*
X53402Y19244D01*
X53487Y19209D01*
X53578Y19197D01*
X53670Y19209D01*
X53755Y19244D01*
X53828Y19300D01*
X53884Y19373D01*
X53919Y19459D01*
X53931Y19550D01*
X53919Y19641D01*
X53884Y19727D01*
X53828Y19800D01*
X53755Y19856D01*
X53670Y19891D01*
X53578Y19903D01*
D02*
G37*
G36*
X52791D02*
X52700Y19891D01*
X52615Y19856D01*
X52542Y19800D01*
X52486Y19727D01*
X52450Y19641D01*
X52438Y19550D01*
X52450Y19459D01*
X52486Y19373D01*
X52542Y19300D01*
X52615Y19244D01*
X52700Y19209D01*
X52791Y19197D01*
X52883Y19209D01*
X52968Y19244D01*
X53041Y19300D01*
X53097Y19373D01*
X53132Y19459D01*
X53144Y19550D01*
X53132Y19641D01*
X53097Y19727D01*
X53041Y19800D01*
X52968Y19856D01*
X52883Y19891D01*
X52791Y19903D01*
D02*
G37*
G36*
X52004D02*
X51913Y19891D01*
X51828Y19856D01*
X51755Y19800D01*
X51699Y19727D01*
X51663Y19641D01*
X51651Y19550D01*
X51663Y19459D01*
X51699Y19373D01*
X51755Y19300D01*
X51828Y19244D01*
X51913Y19209D01*
X52004Y19197D01*
X52096Y19209D01*
X52181Y19244D01*
X52254Y19300D01*
X52310Y19373D01*
X52345Y19459D01*
X52357Y19550D01*
X52345Y19641D01*
X52310Y19727D01*
X52254Y19800D01*
X52181Y19856D01*
X52096Y19891D01*
X52004Y19903D01*
D02*
G37*
G36*
X29922D02*
X29830Y19891D01*
X29745Y19856D01*
X29672Y19800D01*
X29616Y19727D01*
X29581Y19641D01*
X29568Y19550D01*
X29581Y19459D01*
X29616Y19373D01*
X29672Y19300D01*
X29745Y19244D01*
X29830Y19209D01*
X29922Y19197D01*
X30013Y19209D01*
X30098Y19244D01*
X30171Y19300D01*
X30227Y19373D01*
X30262Y19459D01*
X30275Y19550D01*
X30262Y19641D01*
X30227Y19727D01*
X30171Y19800D01*
X30098Y19856D01*
X30013Y19891D01*
X29922Y19903D01*
D02*
G37*
G36*
X29135D02*
X29043Y19891D01*
X28958Y19856D01*
X28885Y19800D01*
X28829Y19727D01*
X28794Y19641D01*
X28781Y19550D01*
X28794Y19459D01*
X28829Y19373D01*
X28885Y19300D01*
X28958Y19244D01*
X29043Y19209D01*
X29135Y19197D01*
X29226Y19209D01*
X29311Y19244D01*
X29384Y19300D01*
X29440Y19373D01*
X29475Y19459D01*
X29488Y19550D01*
X29475Y19641D01*
X29440Y19727D01*
X29384Y19800D01*
X29311Y19856D01*
X29226Y19891D01*
X29135Y19903D01*
D02*
G37*
G36*
X28347D02*
X28256Y19891D01*
X28171Y19856D01*
X28098Y19800D01*
X28042Y19727D01*
X28007Y19641D01*
X27994Y19550D01*
X28007Y19459D01*
X28042Y19373D01*
X28098Y19300D01*
X28171Y19244D01*
X28256Y19209D01*
X28347Y19197D01*
X28439Y19209D01*
X28524Y19244D01*
X28597Y19300D01*
X28653Y19373D01*
X28688Y19459D01*
X28701Y19550D01*
X28688Y19641D01*
X28653Y19727D01*
X28597Y19800D01*
X28524Y19856D01*
X28439Y19891D01*
X28347Y19903D01*
D02*
G37*
G36*
X51090Y18785D02*
X50890D01*
X50792Y18765D01*
X50710Y18710D01*
X50655Y18628D01*
X50635Y18530D01*
X50655Y18432D01*
X50710Y18350D01*
X50792Y18295D01*
X50890Y18275D01*
X51090D01*
X51188Y18295D01*
X51270Y18350D01*
X51325Y18432D01*
X51345Y18530D01*
X51325Y18628D01*
X51270Y18710D01*
X51188Y18765D01*
X51090Y18785D01*
D02*
G37*
G36*
X50300D02*
X50100D01*
X50002Y18765D01*
X49920Y18710D01*
X49865Y18628D01*
X49845Y18530D01*
X49865Y18432D01*
X49920Y18350D01*
X50002Y18295D01*
X50100Y18275D01*
X50300D01*
X50398Y18295D01*
X50480Y18350D01*
X50535Y18432D01*
X50555Y18530D01*
X50535Y18628D01*
X50480Y18710D01*
X50398Y18765D01*
X50300Y18785D01*
D02*
G37*
G36*
X27270D02*
X27070D01*
X26972Y18765D01*
X26890Y18710D01*
X26834Y18628D01*
X26815Y18530D01*
X26834Y18432D01*
X26890Y18350D01*
X26972Y18295D01*
X27070Y18275D01*
X27270D01*
X27368Y18295D01*
X27450Y18350D01*
X27506Y18432D01*
X27525Y18530D01*
X27506Y18628D01*
X27450Y18710D01*
X27368Y18765D01*
X27270Y18785D01*
D02*
G37*
G36*
X26480D02*
X26280D01*
X26182Y18765D01*
X26100Y18710D01*
X26044Y18628D01*
X26025Y18530D01*
X26044Y18432D01*
X26100Y18350D01*
X26182Y18295D01*
X26280Y18275D01*
X26480D01*
X26578Y18295D01*
X26660Y18350D01*
X26716Y18432D01*
X26735Y18530D01*
X26716Y18628D01*
X26660Y18710D01*
X26578Y18765D01*
X26480Y18785D01*
D02*
G37*
G36*
X25690D02*
X25490D01*
X25392Y18765D01*
X25310Y18710D01*
X25254Y18628D01*
X25235Y18530D01*
X25254Y18432D01*
X25310Y18350D01*
X25392Y18295D01*
X25490Y18275D01*
X25690D01*
X25788Y18295D01*
X25870Y18350D01*
X25926Y18432D01*
X25945Y18530D01*
X25926Y18628D01*
X25870Y18710D01*
X25788Y18765D01*
X25690Y18785D01*
D02*
G37*
G36*
X24900D02*
X24700D01*
X24602Y18765D01*
X24520Y18710D01*
X24464Y18628D01*
X24445Y18530D01*
X24464Y18432D01*
X24520Y18350D01*
X24602Y18295D01*
X24700Y18275D01*
X24900D01*
X24998Y18295D01*
X25080Y18350D01*
X25136Y18432D01*
X25155Y18530D01*
X25136Y18628D01*
X25080Y18710D01*
X24998Y18765D01*
X24900Y18785D01*
D02*
G37*
G36*
X39340Y18393D02*
X39262Y18382D01*
X39189Y18352D01*
X39126Y18304D01*
X39078Y18241D01*
X39048Y18168D01*
X39037Y18090D01*
X39048Y18012D01*
X39078Y17939D01*
X39126Y17876D01*
X39189Y17828D01*
X39262Y17798D01*
X39340Y17787D01*
X39418Y17798D01*
X39491Y17828D01*
X39554Y17876D01*
X39602Y17939D01*
X39632Y18012D01*
X39643Y18090D01*
X39632Y18168D01*
X39602Y18241D01*
X39554Y18304D01*
X39491Y18352D01*
X39418Y18382D01*
X39340Y18393D01*
D02*
G37*
G36*
X37650D02*
X37572Y18382D01*
X37499Y18352D01*
X37436Y18304D01*
X37388Y18241D01*
X37358Y18168D01*
X37347Y18090D01*
X37358Y18012D01*
X37388Y17939D01*
X37436Y17876D01*
X37499Y17828D01*
X37572Y17798D01*
X37650Y17787D01*
X37728Y17798D01*
X37801Y17828D01*
X37864Y17876D01*
X37912Y17939D01*
X37942Y18012D01*
X37953Y18090D01*
X37942Y18168D01*
X37912Y18241D01*
X37864Y18304D01*
X37801Y18352D01*
X37728Y18382D01*
X37650Y18393D01*
D02*
G37*
G36*
X34250Y15273D02*
X34184Y15260D01*
X34127Y15223D01*
X34090Y15166D01*
X34077Y15100D01*
X34090Y15034D01*
X34127Y14977D01*
X34173Y14947D01*
Y14893D01*
X34126Y14874D01*
X33973Y15027D01*
Y15262D01*
X33559D01*
Y14847D01*
X33793D01*
X33958Y14682D01*
X33937Y14632D01*
X33561D01*
Y14217D01*
X33648D01*
Y14136D01*
X33627Y14123D01*
X33590Y14066D01*
X33577Y14000D01*
X33590Y13934D01*
X33627Y13877D01*
X33684Y13840D01*
X33750Y13827D01*
X33813Y13839D01*
X33816Y13837D01*
X33833Y13788D01*
X33770Y13725D01*
X33510D01*
Y13308D01*
X33880D01*
X33899Y13262D01*
X33770Y13132D01*
X33510D01*
Y12715D01*
X33950D01*
Y12796D01*
X34506D01*
Y12715D01*
X34946D01*
Y12796D01*
X35501D01*
Y12715D01*
X35941D01*
Y12796D01*
X36497D01*
Y12715D01*
X36937D01*
Y12796D01*
X37492D01*
Y12715D01*
X37932D01*
Y12796D01*
X38488D01*
Y12715D01*
X38928D01*
Y12796D01*
X39483D01*
Y12715D01*
X39923D01*
Y12796D01*
X40479D01*
Y12715D01*
X40919D01*
Y12796D01*
X41474D01*
Y12715D01*
X41914D01*
Y12796D01*
X42470D01*
Y12715D01*
X42910D01*
Y13132D01*
X42470D01*
Y13051D01*
X41914D01*
Y13132D01*
X41474D01*
Y13051D01*
X40919D01*
Y13132D01*
X40479D01*
Y13051D01*
X39923D01*
Y13132D01*
X39483D01*
Y13051D01*
X38928D01*
Y13132D01*
X38488D01*
Y13051D01*
X37932D01*
Y13132D01*
X37492D01*
Y13051D01*
X36937D01*
Y13132D01*
X36497D01*
Y13051D01*
X35941D01*
Y13132D01*
X35501D01*
Y13051D01*
X34946D01*
Y13132D01*
X34506D01*
Y13051D01*
X34114D01*
X34095Y13097D01*
X34390Y13392D01*
X34418Y13433D01*
X34427Y13482D01*
Y15026D01*
X34418Y15073D01*
X34423Y15100D01*
X34410Y15166D01*
X34373Y15223D01*
X34316Y15260D01*
X34250Y15273D01*
D02*
G37*
G36*
X42863Y15262D02*
X42448D01*
Y15027D01*
X42210Y14789D01*
X42200Y14773D01*
X42138Y14764D01*
X41875Y15027D01*
Y15262D01*
X41460D01*
Y14847D01*
X41695D01*
X41860Y14682D01*
X41839Y14632D01*
X41463D01*
Y14217D01*
X41548D01*
Y14086D01*
X41527Y14073D01*
X41490Y14016D01*
X41477Y13950D01*
X41490Y13884D01*
X41527Y13827D01*
X41584Y13790D01*
X41650Y13777D01*
X41713Y13789D01*
X41716Y13790D01*
X41755Y13810D01*
X41755Y13810D01*
X41784Y13775D01*
X41734Y13725D01*
X41474D01*
Y13308D01*
X41914D01*
Y13545D01*
X42160Y13790D01*
X42208Y13805D01*
X42226Y13789D01*
X42470Y13545D01*
Y13308D01*
X42910D01*
Y13725D01*
X42650D01*
X42427Y13948D01*
Y14177D01*
X42451Y14217D01*
X42477Y14217D01*
X42598D01*
Y14136D01*
X42577Y14123D01*
X42540Y14066D01*
X42527Y14000D01*
X42540Y13934D01*
X42577Y13877D01*
X42634Y13840D01*
X42700Y13827D01*
X42766Y13840D01*
X42823Y13877D01*
X42860Y13934D01*
X42873Y14000D01*
X42860Y14066D01*
X42823Y14123D01*
X42802Y14136D01*
Y14217D01*
X42866D01*
Y14632D01*
X42484D01*
X42464Y14682D01*
X42628Y14847D01*
X42863D01*
Y15262D01*
D02*
G37*
G36*
X40887D02*
X40473D01*
Y14847D01*
X40707D01*
X40872Y14682D01*
X40851Y14632D01*
X40475D01*
Y14217D01*
X40598D01*
Y14136D01*
X40577Y14123D01*
X40540Y14066D01*
X40527Y14000D01*
X40540Y13934D01*
X40577Y13877D01*
X40634Y13840D01*
X40700Y13827D01*
X40766Y13840D01*
X40785Y13852D01*
X40823Y13870D01*
X40828Y13863D01*
X40834Y13821D01*
X40739Y13725D01*
X40479D01*
Y13308D01*
X40919D01*
Y13545D01*
X41015Y13641D01*
X41034Y13654D01*
X41140Y13760D01*
X41168Y13801D01*
X41177Y13850D01*
Y14684D01*
X41168Y14733D01*
X41140Y14774D01*
X40887Y15027D01*
Y15262D01*
D02*
G37*
G36*
X39900D02*
X39485D01*
Y14847D01*
X39720D01*
X39884Y14682D01*
X39863Y14632D01*
X39488D01*
Y14217D01*
X39598D01*
Y14136D01*
X39577Y14123D01*
X39540Y14066D01*
X39527Y14000D01*
X39540Y13934D01*
X39577Y13877D01*
X39634Y13840D01*
X39700Y13827D01*
X39766Y13840D01*
X39823Y13877D01*
X39860Y13934D01*
X39873Y14000D01*
X39860Y14066D01*
X39823Y14123D01*
X39806Y14134D01*
X39803Y14183D01*
X39837Y14217D01*
X39903Y14217D01*
X39923Y14176D01*
Y13905D01*
X39743Y13725D01*
X39483D01*
Y13308D01*
X39923D01*
Y13545D01*
X40140Y13762D01*
X40168Y13803D01*
X40177Y13852D01*
Y14697D01*
X40168Y14745D01*
X40140Y14787D01*
X39900Y15027D01*
Y15262D01*
D02*
G37*
G36*
X38912D02*
X38497D01*
Y14847D01*
X38732D01*
X38896Y14682D01*
X38876Y14632D01*
X38500D01*
Y14217D01*
X38598D01*
Y14136D01*
X38577Y14123D01*
X38540Y14066D01*
X38527Y14000D01*
X38540Y13934D01*
X38577Y13877D01*
X38634Y13840D01*
X38700Y13827D01*
X38766Y13840D01*
X38823Y13877D01*
X38860Y13934D01*
X38873Y14000D01*
X38860Y14066D01*
X38823Y14123D01*
X38802Y14136D01*
Y14217D01*
X38915D01*
Y14593D01*
X38965Y14614D01*
X39023Y14556D01*
Y14000D01*
X38748Y13725D01*
X38488D01*
Y13308D01*
X38928D01*
Y13545D01*
X39240Y13857D01*
X39268Y13899D01*
X39277Y13947D01*
Y14609D01*
X39268Y14658D01*
X39240Y14699D01*
X38912Y15027D01*
Y15262D01*
D02*
G37*
G36*
X38420Y16012D02*
X37980D01*
Y15595D01*
X38023D01*
Y15540D01*
X37744Y15262D01*
X37509D01*
Y14847D01*
X37744D01*
X37909Y14682D01*
X37888Y14632D01*
X37512D01*
Y14217D01*
X37648D01*
Y14136D01*
X37627Y14123D01*
X37590Y14066D01*
X37577Y14000D01*
X37590Y13934D01*
X37627Y13877D01*
X37684Y13840D01*
X37750Y13827D01*
X37791Y13835D01*
X37815Y13789D01*
X37752Y13725D01*
X37492D01*
Y13308D01*
X37932D01*
Y13545D01*
X38190Y13803D01*
X38218Y13844D01*
X38227Y13893D01*
Y14671D01*
X38218Y14720D01*
X38190Y14761D01*
X37924Y15027D01*
Y15082D01*
X38240Y15397D01*
X38268Y15439D01*
X38277Y15487D01*
Y15595D01*
X38420D01*
Y16012D01*
D02*
G37*
G36*
X36937Y15262D02*
X36522D01*
Y14847D01*
X36756D01*
X36921Y14682D01*
X36900Y14632D01*
X36524D01*
Y14217D01*
X36648D01*
Y14136D01*
X36627Y14123D01*
X36590Y14066D01*
X36577Y14000D01*
X36590Y13934D01*
X36627Y13877D01*
X36684Y13840D01*
X36750Y13827D01*
X36796Y13836D01*
X36821Y13790D01*
X36757Y13725D01*
X36497D01*
Y13308D01*
X36937D01*
Y13545D01*
X37190Y13798D01*
X37218Y13840D01*
X37227Y13889D01*
Y14683D01*
X37218Y14732D01*
X37190Y14774D01*
X36937Y15027D01*
Y15262D01*
D02*
G37*
G36*
X35949D02*
X35534D01*
Y14847D01*
X35769D01*
X35923Y14693D01*
Y14632D01*
X35537D01*
Y14217D01*
X35648D01*
Y14136D01*
X35627Y14123D01*
X35590Y14066D01*
X35577Y14000D01*
X35590Y13934D01*
X35627Y13877D01*
X35684Y13840D01*
X35750Y13827D01*
X35802Y13837D01*
X35827Y13792D01*
X35761Y13725D01*
X35501D01*
Y13308D01*
X35941D01*
Y13545D01*
X36140Y13744D01*
X36168Y13785D01*
X36177Y13834D01*
Y14746D01*
X36168Y14794D01*
X36140Y14836D01*
X35949Y15027D01*
Y15262D01*
D02*
G37*
G36*
X34961D02*
X34546D01*
Y14847D01*
X34781D01*
X34946Y14682D01*
X34925Y14632D01*
X34549D01*
Y14217D01*
X34648D01*
Y14136D01*
X34627Y14123D01*
X34590Y14066D01*
X34577Y14000D01*
X34590Y13934D01*
X34627Y13877D01*
X34684Y13840D01*
X34750Y13827D01*
X34808Y13838D01*
X34829Y13814D01*
X34837Y13797D01*
X34765Y13725D01*
X34506D01*
Y13308D01*
X34946D01*
Y13545D01*
X35190Y13789D01*
X35218Y13831D01*
X35227Y13880D01*
Y14708D01*
X35218Y14757D01*
X35190Y14798D01*
X34961Y15027D01*
Y15262D01*
D02*
G37*
%LPD*%
G36*
X22650Y44700D02*
Y44450D01*
X22717Y44383D01*
Y44367D01*
X22733D01*
X22900Y44200D01*
Y43500D01*
X23000Y43400D01*
X23850Y42650D01*
Y41750D01*
X21650D01*
X21600Y41800D01*
Y44750D01*
X22600D01*
X22650Y44700D01*
D02*
G37*
G36*
X40990Y25480D02*
X40969Y25430D01*
X40420D01*
Y25363D01*
X40374Y25344D01*
X39977Y25741D01*
X39975Y25750D01*
X39984Y25801D01*
X39984Y25802D01*
X40015Y25823D01*
X40647D01*
X40990Y25480D01*
D02*
G37*
G36*
X54473Y21265D02*
Y21103D01*
X53915Y20545D01*
X53858Y20548D01*
X53828Y20587D01*
X53755Y20643D01*
X53670Y20678D01*
X53578Y20690D01*
X53487Y20678D01*
X53477Y20674D01*
X53449Y20716D01*
X53886Y21154D01*
X53916Y21131D01*
X54005Y21094D01*
X54100Y21082D01*
X54195Y21094D01*
X54284Y21131D01*
X54360Y21190D01*
X54419Y21266D01*
X54423Y21275D01*
X54473Y21265D01*
D02*
G37*
%LPC*%
G36*
X42500Y32708D02*
X42394Y32694D01*
X42296Y32653D01*
X42212Y32588D01*
X42147Y32504D01*
X42106Y32406D01*
X42092Y32300D01*
X42106Y32194D01*
X42147Y32096D01*
X42212Y32012D01*
X42296Y31947D01*
X42394Y31906D01*
X42500Y31892D01*
X42606Y31906D01*
X42704Y31947D01*
X42788Y32012D01*
X42853Y32096D01*
X42894Y32194D01*
X42908Y32300D01*
X42894Y32406D01*
X42853Y32504D01*
X42788Y32588D01*
X42704Y32653D01*
X42606Y32694D01*
X42500Y32708D01*
D02*
G37*
%LPD*%
D10*
X37150Y42515D02*
G03*
X36857Y43222I-1000J0D01*
G01*
Y41157D02*
G03*
X37150Y41864I-707J707D01*
G01*
X41905Y33093D02*
G03*
X41913Y33111I-405J207D01*
G01*
X42100Y33516D02*
G03*
X42087Y33490I400J-216D01*
G01*
X41166Y33607D02*
G03*
X41087Y33490I334J-307D01*
G01*
X40905Y33093D02*
G03*
X40913Y33111I-405J207D01*
G01*
X38749Y42250D02*
G03*
X38150Y41651I0J-599D01*
G01*
Y41300D02*
G03*
X39150Y40300I1000J0D01*
G01*
X45076Y40200D02*
G03*
X45500Y40624I0J424D01*
G01*
X45076Y40200D02*
G03*
X44800Y39924I0J-276D01*
G01*
X46150Y39800D02*
G03*
X45650Y40300I-500J0D01*
G01*
X45776Y40900D02*
G03*
X45500Y40624I0J-276D01*
G01*
X36550Y40850D02*
X36857Y41157D01*
X36430Y43650D02*
X36857Y43222D01*
X37150Y41864D02*
Y42515D01*
X43224Y35600D02*
X46003Y38380D01*
X41913Y33111D02*
X42087Y33490D01*
X42100Y33516D02*
X43224Y35600D01*
X41500Y32300D02*
X41905Y33093D01*
X46003Y38380D02*
X46150D01*
X41166Y33607D02*
X42932Y35532D01*
X44800Y37400D01*
X40913Y33111D02*
X41087Y33490D01*
X40500Y32300D02*
X40905Y33093D01*
X44800Y37400D02*
Y38380D01*
X39150Y40300D02*
X42850D01*
X38150Y41300D02*
Y41651D01*
X44800Y39720D02*
Y39924D01*
X46150Y39720D02*
Y39800D01*
X47350Y39738D02*
Y39890D01*
X46724Y38900D02*
X47500Y39676D01*
X46572Y38900D02*
X46724D01*
X46662Y39050D02*
X47350Y39738D01*
X44126Y39200D02*
X46600D01*
X47200Y39800D02*
Y42224D01*
X46600Y39200D02*
X47200Y39800D01*
X46510Y39050D02*
X46662D01*
X47500Y39676D02*
Y39828D01*
Y42100D01*
X47350Y39890D02*
Y42162D01*
X44250Y38900D02*
X46572D01*
X44188Y39050D02*
X46510D01*
X43904Y38080D02*
Y38554D01*
X44250Y38900D01*
X42204Y36380D02*
X43904Y38080D01*
X40780Y36380D02*
X42204D01*
X43604Y38204D02*
Y38679D01*
X43754Y38616D02*
X44188Y39050D01*
X43604Y38679D02*
X44126Y39200D01*
X43754Y38142D02*
Y38616D01*
X40718Y36530D02*
X42142D01*
X38438Y34250D02*
X40718Y36530D01*
X40656Y36680D02*
X42080D01*
X42142Y36530D02*
X43754Y38142D01*
X38446Y34470D02*
X40656Y36680D01*
X42080D02*
X43604Y38204D01*
X40268Y31267D02*
X45817D01*
X40255Y31255D02*
X40268Y31267D01*
X38086Y33983D02*
X38104Y33964D01*
X38364D01*
X37950Y34239D02*
X37961Y34250D01*
X38438D01*
X36200Y40850D02*
Y42120D01*
X36430Y42350D01*
X45817Y31267D02*
X45830Y31280D01*
X46650Y28550D02*
Y29595D01*
X46624Y29620D02*
X46650Y29595D01*
X39954Y28321D02*
X39969D01*
X27340Y48540D02*
X28378D01*
X27300Y48500D02*
X27340Y48540D01*
X28462Y48456D02*
X28500D01*
X28378Y48540D02*
X28462Y48456D01*
X27714Y48236D02*
X29886D01*
X27650Y48300D02*
X27714Y48236D01*
X23493Y46050D02*
X26700D01*
X23322Y45879D02*
X23493Y46050D01*
X23322Y45698D02*
Y45879D01*
X29886Y48236D02*
X30250Y48600D01*
X44390Y20710D02*
Y29750D01*
X44050Y29700D02*
X44100Y29750D01*
X44050Y20600D02*
Y29700D01*
X39196Y32709D02*
X39500Y32405D01*
Y32300D02*
Y32405D01*
X39000Y33050D02*
Y33600D01*
Y33050D02*
X39196Y32854D01*
Y32709D02*
Y32854D01*
X38837Y33763D02*
X39000Y33600D01*
X38364Y33964D02*
X40780Y36380D01*
X37876Y33763D02*
X38837D01*
X37730Y33909D02*
Y34341D01*
Y33909D02*
X37876Y33763D01*
X37859Y34470D02*
X38446D01*
X37730Y34341D02*
X37859Y34470D01*
X47200Y42224D02*
X48850Y43874D01*
Y44830D02*
X49100Y45080D01*
X48850Y43874D02*
Y44830D01*
X49100Y45080D02*
X49400D01*
X48538Y43350D02*
X49700D01*
X48600Y43200D02*
X49800D01*
X47500Y42100D02*
X48600Y43200D01*
X47350Y42162D02*
X48538Y43350D01*
X49800Y43200D02*
X51200Y44600D01*
X49700Y43350D02*
X50300Y43950D01*
X51200Y44600D02*
Y45750D01*
X50300Y43950D02*
Y46250D01*
X51530Y47480D01*
X53950D01*
X44390Y20710D02*
X46250Y18850D01*
X48990D01*
X49310Y18530D02*
X49410D01*
X48990Y18850D02*
X49310Y18530D01*
X46120D02*
X48620D01*
X44050Y20600D02*
X46120Y18530D01*
X48450Y47400D02*
X49320D01*
X49400Y47480D01*
X33406Y28615D02*
X33421Y28600D01*
X32624Y28615D02*
X33406D01*
X33421Y28600D02*
X33850D01*
X27253D02*
X32609D01*
X32624Y28615D01*
X55725Y29384D02*
Y38713D01*
X55491Y29150D02*
X55725Y29384D01*
X55612Y29000D02*
X55875Y29263D01*
X54100Y40550D02*
X55875Y38775D01*
Y29263D02*
Y38775D01*
X53520Y40918D02*
X55725Y38713D01*
X54100Y40550D02*
Y42053D01*
X53520Y40918D02*
Y41945D01*
X53411Y42053D02*
X53520Y41945D01*
X53400Y42053D02*
X53411D01*
X54604Y29000D02*
X55612D01*
X53815Y29150D02*
X55491D01*
X53509Y29243D02*
X53753Y29000D01*
X54604D01*
X30600Y29400D02*
Y30753D01*
X28503Y32850D02*
X30600Y30753D01*
X39400Y29953D02*
X40075D01*
X40756Y28321D02*
Y29947D01*
X40750Y29953D02*
X40756Y29947D01*
X39969Y28321D02*
Y29847D01*
X40075Y29953D01*
X28397Y32850D02*
X28503D01*
X28962Y33309D01*
X28991D01*
X29100Y33418D01*
X53698Y30000D02*
X53756Y29941D01*
X52300Y29050D02*
X53250Y30000D01*
X53756Y29209D02*
Y29941D01*
X53250Y30000D02*
X53698D01*
X53509Y29243D02*
Y29592D01*
X53756Y29209D02*
X53815Y29150D01*
X47746Y29050D02*
X52300D01*
X47176Y29601D02*
Y29620D01*
X47303Y29493D02*
X47746Y29050D01*
X47176Y29601D02*
X47283Y29493D01*
X47303D01*
X53481Y29620D02*
X53509Y29592D01*
X53950Y43185D02*
Y45080D01*
X53411Y42647D02*
X53950Y43185D01*
X53400Y42647D02*
X53411D01*
X52170Y45080D02*
X53950D01*
X51500Y45750D02*
X52170Y45080D01*
X51200Y45750D02*
X51500D01*
X54675Y43275D02*
Y47055D01*
X54100Y42647D02*
X54111D01*
X54195Y42730D01*
Y42795D01*
X54675Y43275D01*
X54250Y47480D02*
X54675Y47055D01*
X53950Y47480D02*
X54250D01*
X34750Y14000D02*
Y14418D01*
X34756Y14425D01*
X38700Y14000D02*
Y14417D01*
X38707Y14425D01*
X41650Y14404D02*
X41670Y14425D01*
X41650Y13950D02*
Y14404D01*
X42658Y14425D02*
X42700Y14383D01*
Y14000D02*
Y14383D01*
X40683Y14425D02*
X40700Y14408D01*
Y14000D02*
Y14408D01*
X39695Y14425D02*
X39700Y14420D01*
Y14000D02*
Y14420D01*
X37720Y14425D02*
X37750Y14394D01*
Y14000D02*
Y14394D01*
X36732Y14425D02*
X36750Y14407D01*
Y14000D02*
Y14407D01*
X35744Y14425D02*
X35750Y14419D01*
Y14000D02*
Y14419D01*
X33750Y14406D02*
X33769Y14425D01*
X33750Y14000D02*
Y14406D01*
X23066Y45879D02*
X23387Y46200D01*
X26404D02*
X28025Y47821D01*
X23387Y46200D02*
X26404D01*
X23066Y45698D02*
Y45879D01*
X36201Y45574D02*
Y46451D01*
X36265Y46515D01*
X36873Y47123D01*
Y48150D01*
X35158Y48153D02*
X35162Y48150D01*
X37208Y48485D02*
X37245D01*
X36873Y48150D02*
X37208Y48485D01*
X35162Y48150D02*
X36873D01*
D17*
X50466Y37593D02*
X50472Y37587D01*
X50107Y37593D02*
X50466D01*
X49950Y37750D02*
X50107Y37593D01*
X50472Y37587D02*
X50492D01*
X50472Y41786D02*
X50492D01*
X50499Y41779D01*
Y41759D02*
Y41779D01*
Y41759D02*
X50522Y41736D01*
Y40802D02*
Y41736D01*
X50472Y41786D02*
X50480Y41794D01*
X50794D01*
X50800Y41800D01*
X34050Y35750D02*
Y38709D01*
X41300Y39806D02*
X42150Y38956D01*
X33900Y39806D02*
X41300D01*
X34974Y41170D02*
Y41950D01*
X45400Y36850D02*
X46500D01*
X47176Y36174D01*
X42500Y41800D02*
X43170Y41130D01*
Y38822D02*
Y41130D01*
X43150Y38802D02*
X43170Y38822D01*
X40380Y43200D02*
X40417Y43163D01*
X41137D02*
X42500Y41800D01*
X39303Y43773D02*
X39876Y43200D01*
X40380D01*
X40417Y43163D02*
X41137D01*
X41550Y42000D02*
Y42200D01*
X41050Y42700D02*
X41550Y42200D01*
X39276Y43030D02*
Y43050D01*
X39606Y42700D02*
X41050D01*
X39276Y43030D02*
X39606Y42700D01*
X33300Y36096D02*
X33457Y36252D01*
Y36293D01*
X32198Y42386D02*
X34836D01*
X35831Y43381D02*
Y44061D01*
X34836Y42386D02*
X35831Y43381D01*
X31150Y41284D02*
Y41379D01*
X31335Y41564D02*
X31376D01*
X31150Y41379D02*
X31335Y41564D01*
X31376D02*
X32198Y42386D01*
X30555Y39650D02*
X30600D01*
X29950D02*
X30555D01*
X31245D02*
X31764D01*
X31150D02*
X31245D01*
X34050Y38755D02*
X34055Y38750D01*
X35200D02*
X35700Y38250D01*
X34055Y38750D02*
X35200D01*
X34050Y38755D02*
Y38802D01*
X22326Y45000D02*
Y45724D01*
X23150Y46600D02*
Y47850D01*
X22300Y45750D02*
X23150Y46600D01*
X22326Y45724D02*
X22326Y45724D01*
X22300Y45750D02*
X22326Y45724D01*
X22326Y45724D02*
X22784D01*
X30300Y44900D02*
Y45816D01*
X35099Y45200D02*
Y45574D01*
X47176Y34335D02*
Y36174D01*
Y34315D02*
Y34335D01*
X33300Y34540D02*
Y36096D01*
X33280Y34520D02*
X33300Y34540D01*
X37480Y35447D02*
X39180Y37147D01*
X37480Y33320D02*
Y35447D01*
Y33320D02*
X37500Y33300D01*
X31750Y39650D02*
X31798Y39698D01*
X32448D01*
X38700Y47300D02*
X38724Y47276D01*
X39350D02*
X39370D01*
X38724D02*
X39350D01*
X38726Y48074D02*
X39400D01*
X38700Y48100D02*
X38726Y48074D01*
X48500Y34150D02*
X52200D01*
X47341D02*
X48500D01*
X22750Y30857D02*
X22754Y30854D01*
X23546D01*
X23550Y30850D01*
X23575Y29425D02*
X23600Y29400D01*
X23575Y29425D02*
Y30843D01*
X23568Y30850D02*
X23575Y30843D01*
X23550Y30850D02*
X23568D01*
X47176Y32783D02*
X47183Y32791D01*
X47388D01*
X47747Y33150D01*
X49200D01*
X47176Y31978D02*
Y32783D01*
X49200Y33150D02*
X49200Y33150D01*
X47176Y33549D02*
Y34315D01*
X47341Y34150D01*
X50522Y37617D02*
Y38621D01*
X50492Y37587D02*
X50522Y37617D01*
X39283Y43773D02*
X39303D01*
X39276Y43780D02*
X39283Y43773D01*
X39276Y43780D02*
Y43800D01*
X39394Y47300D02*
X40430D01*
X39370Y47276D02*
X39394Y47300D01*
X39674Y47800D02*
X40430D01*
X39427Y48047D02*
X39674Y47800D01*
X39427Y48047D02*
Y48067D01*
X39420Y48074D02*
X39427Y48067D01*
X39400Y48074D02*
X39420D01*
X37320Y45600D02*
X38235Y46515D01*
X35831Y44061D02*
X36204Y44434D01*
X35225Y43983D02*
X36026Y44784D01*
X36397Y44434D02*
X37320Y45357D01*
X35198Y43976D02*
X35205Y43983D01*
X36026Y44784D02*
X36154D01*
X36204Y44434D02*
X36397D01*
X35205Y43983D02*
X35225D01*
X37320Y45357D02*
Y45600D01*
X30830Y34520D02*
X33280D01*
X28350Y37000D02*
X30830Y34520D01*
X28350Y37000D02*
Y37380D01*
X33280Y34520D02*
X34500Y33300D01*
X34050Y35750D02*
X35500Y34300D01*
Y33300D02*
Y34300D01*
X39180Y37147D02*
X39200D01*
X36500Y33300D02*
Y36511D01*
X36950Y36961D01*
Y37380D01*
X41886D02*
X43150Y38644D01*
X41250Y37380D02*
X41886D01*
X39200Y37147D02*
X40095D01*
X40328Y37380D01*
X41250D01*
X39199Y37146D02*
X39200Y37147D01*
X39199Y36354D02*
Y37146D01*
X39198Y36353D02*
X39199Y36354D01*
X38600Y38644D02*
Y38802D01*
X37600Y37644D02*
X38600Y38644D01*
X36996Y37644D02*
X37600D01*
X36950Y37598D02*
X36996Y37644D01*
X36950Y37380D02*
Y37598D01*
X34850Y37147D02*
X35770D01*
X36003Y37380D01*
X36950D01*
X34848Y36353D02*
X34849Y36354D01*
Y37146D01*
X34850Y37147D01*
X33150Y37300D02*
X34004Y38154D01*
X32696Y37300D02*
X33150D01*
X32696D02*
Y37334D01*
X32650Y37380D02*
X32696Y37334D01*
X30450Y37147D02*
X32604D01*
X32650Y37193D01*
X30448Y36353D02*
X30449Y36354D01*
Y37146D01*
X30450Y37147D01*
X26299Y37146D02*
X26300Y37147D01*
X26299Y36354D02*
Y37146D01*
X26298Y36353D02*
X26299Y36354D01*
X27428Y37380D02*
X28350D01*
X27195Y37147D02*
X27428Y37380D01*
X26300Y37147D02*
X27195D01*
X29450Y38752D02*
X29500Y38802D01*
X29450Y37900D02*
Y38752D01*
X28350Y37380D02*
Y37404D01*
X28396Y37450D01*
X29000D01*
X29450Y37900D01*
X24050Y37646D02*
Y37762D01*
X22150Y37692D02*
X24004D01*
X24050Y37646D01*
Y37380D02*
Y37646D01*
Y37762D02*
X24950Y38662D01*
X42150Y38798D02*
Y38956D01*
X33900Y39806D02*
Y41284D01*
X33050Y38956D02*
X33900Y39806D01*
X33050Y38798D02*
Y38956D01*
X29200Y39650D02*
X29950D01*
X30600D02*
X31150D01*
Y41284D01*
X29650Y46750D02*
X30448D01*
X29000Y45816D02*
X29185Y46001D01*
Y46285D02*
X29650Y46750D01*
X29185Y46001D02*
Y46285D01*
Y45199D02*
Y45631D01*
Y45199D02*
X30020Y44364D01*
X29000Y45816D02*
X29185Y45631D01*
X30020Y44364D02*
X30115D01*
X30300Y44084D02*
Y44179D01*
X30115Y44364D02*
X30300Y44179D01*
X30050Y41676D02*
X30854D01*
X31150Y41379D01*
X30050Y41676D02*
X30051Y41677D01*
Y42573D01*
X30052Y42574D01*
X33900Y41284D02*
X34860D01*
X34974Y41170D01*
Y41150D02*
Y41170D01*
X34213Y43424D02*
X35198D01*
X33900Y43112D02*
X34213Y43424D01*
X33900Y43016D02*
Y43112D01*
X32521Y43016D02*
X33900D01*
X31150D02*
Y44396D01*
X31798Y45044D01*
Y45300D01*
Y45044D02*
X32140Y44702D01*
X32396D01*
X33122Y43976D01*
X35198D01*
X34102Y45200D02*
X35099D01*
X34002Y45300D02*
X34102Y45200D01*
X35399Y46632D02*
X36250Y47483D01*
X35207Y46632D02*
X35399D01*
X36250Y47483D02*
Y47700D01*
X35200Y46624D02*
X35207Y46632D01*
X35200Y45670D02*
Y46624D01*
X35104Y45574D02*
X35200Y45670D01*
X35099Y45574D02*
X35104D01*
X30448Y46750D02*
X31519Y47821D01*
D19*
X46150Y38380D02*
D03*
Y39720D02*
D03*
X44800Y38380D02*
D03*
Y39720D02*
D03*
D20*
X38200Y15803D02*
D03*
Y16397D02*
D03*
Y26553D02*
D03*
Y27147D02*
D03*
X40075Y29953D02*
D03*
Y30547D02*
D03*
X39400Y29953D02*
D03*
Y30547D02*
D03*
X42690Y12923D02*
D03*
Y13517D02*
D03*
X39703Y12923D02*
D03*
Y13517D02*
D03*
X38708Y12923D02*
D03*
Y13517D02*
D03*
X41694Y12923D02*
D03*
Y13517D02*
D03*
X40699Y12923D02*
D03*
Y13517D02*
D03*
X34726Y12923D02*
D03*
Y13517D02*
D03*
X33730Y12923D02*
D03*
Y13517D02*
D03*
X35721Y12923D02*
D03*
Y13517D02*
D03*
X37712Y12923D02*
D03*
Y13517D02*
D03*
X36717Y12923D02*
D03*
Y13517D02*
D03*
X29100Y34011D02*
D03*
Y33418D02*
D03*
X27800Y30857D02*
D03*
Y31450D02*
D03*
X22750Y30857D02*
D03*
Y31450D02*
D03*
X40750Y29953D02*
D03*
Y30547D02*
D03*
X35158Y48153D02*
D03*
Y48747D02*
D03*
X48072Y40371D02*
D03*
Y40964D02*
D03*
Y38459D02*
D03*
Y39052D02*
D03*
X53072Y40964D02*
D03*
Y40371D02*
D03*
Y39052D02*
D03*
Y38459D02*
D03*
X45150Y43203D02*
D03*
Y43797D02*
D03*
X45750Y43203D02*
D03*
Y43797D02*
D03*
X54100Y42647D02*
D03*
Y42053D02*
D03*
X53400D02*
D03*
Y42647D02*
D03*
X52330Y35307D02*
D03*
Y35900D02*
D03*
X50770Y35307D02*
D03*
Y35900D02*
D03*
X47650Y35307D02*
D03*
Y35900D02*
D03*
X49210Y35307D02*
D03*
Y35900D02*
D03*
X45250Y45053D02*
D03*
Y45647D02*
D03*
X45200Y48500D02*
D03*
Y49093D02*
D03*
D21*
X25552Y41900D02*
D03*
X23348D02*
D03*
X31798Y45300D02*
D03*
X34002D02*
D03*
D22*
X29000Y44084D02*
D03*
Y45816D02*
D03*
X30300Y44084D02*
D03*
Y45816D02*
D03*
X22150Y41034D02*
D03*
Y42766D02*
D03*
X31150Y43016D02*
D03*
Y41284D02*
D03*
X33900D02*
D03*
Y43016D02*
D03*
X32521D02*
D03*
Y41284D02*
D03*
D23*
X54032Y29620D02*
D03*
X53481D02*
D03*
X53474Y31980D02*
D03*
X54026D02*
D03*
X53474Y32766D02*
D03*
X54026D02*
D03*
X53474Y33551D02*
D03*
X54026D02*
D03*
X53474Y34337D02*
D03*
X54026D02*
D03*
X24924Y44500D02*
D03*
X25476D02*
D03*
X28374Y40600D02*
D03*
X28926D02*
D03*
X28374Y43000D02*
D03*
X28926D02*
D03*
X34974Y41950D02*
D03*
X35526D02*
D03*
X34974Y41150D02*
D03*
X35526D02*
D03*
X48941Y41818D02*
D03*
X49492D02*
D03*
X49486Y37612D02*
D03*
X48935D02*
D03*
X51957Y41820D02*
D03*
X51406D02*
D03*
X51412Y37609D02*
D03*
X51963D02*
D03*
X39300Y42250D02*
D03*
X38749D02*
D03*
X45224Y40900D02*
D03*
X45776D02*
D03*
X46624Y32763D02*
D03*
X47176D02*
D03*
X46624Y31978D02*
D03*
X47176D02*
D03*
X46624Y33549D02*
D03*
X47176D02*
D03*
X46624Y34335D02*
D03*
X47176D02*
D03*
X39276Y43050D02*
D03*
X38724D02*
D03*
X45776Y42450D02*
D03*
X45224D02*
D03*
X38724Y43800D02*
D03*
X39276D02*
D03*
X46624Y29620D02*
D03*
X47176D02*
D03*
X39376Y45400D02*
D03*
X38824D02*
D03*
X45224Y46450D02*
D03*
X45776D02*
D03*
X45769Y47800D02*
D03*
X45218D02*
D03*
D24*
X54025Y31152D02*
D03*
X53432D02*
D03*
X54025Y30367D02*
D03*
X53432D02*
D03*
X48926Y42562D02*
D03*
X49519D02*
D03*
X51969D02*
D03*
X51376D02*
D03*
X27557Y34000D02*
D03*
X28150D02*
D03*
X25497Y45250D02*
D03*
X24903D02*
D03*
X48892Y36862D02*
D03*
X49485D02*
D03*
X52006D02*
D03*
X51413D02*
D03*
X45797Y41700D02*
D03*
X45203D02*
D03*
X39297Y41500D02*
D03*
X38703D02*
D03*
X47169Y31152D02*
D03*
X46575D02*
D03*
X47169Y30367D02*
D03*
X46575D02*
D03*
X39397Y44750D02*
D03*
X38803D02*
D03*
X45797Y47100D02*
D03*
X45203D02*
D03*
D25*
X48500Y34150D02*
D03*
Y33650D02*
D03*
Y33150D02*
D03*
Y32650D02*
D03*
Y32150D02*
D03*
Y31650D02*
D03*
Y31150D02*
D03*
Y30650D02*
D03*
Y30150D02*
D03*
Y29650D02*
D03*
X52200Y29650D02*
D03*
Y30150D02*
D03*
Y30650D02*
D03*
Y31150D02*
D03*
Y31650D02*
D03*
Y32150D02*
D03*
Y32650D02*
D03*
Y33150D02*
D03*
Y33650D02*
D03*
Y34150D02*
D03*
D26*
X50350Y31900D02*
D03*
D27*
X49022Y38621D02*
D03*
X49522D02*
D03*
X50022D02*
D03*
X50522D02*
D03*
X51022D02*
D03*
X51522D02*
D03*
X52022D02*
D03*
X49022Y40802D02*
D03*
X49522D02*
D03*
X50022D02*
D03*
X50522D02*
D03*
X51022D02*
D03*
X51522D02*
D03*
X52022D02*
D03*
D28*
X28350Y35320D02*
D03*
Y37380D02*
D03*
X25700Y33280D02*
D03*
Y31220D02*
D03*
X24050Y37380D02*
D03*
Y35320D02*
D03*
X36950Y37380D02*
D03*
Y35320D02*
D03*
X32650D02*
D03*
Y37380D02*
D03*
X41250Y35320D02*
D03*
Y37380D02*
D03*
D29*
X26300Y37698D02*
D03*
Y37147D02*
D03*
X26298Y35802D02*
D03*
Y36353D02*
D03*
X28600Y31401D02*
D03*
Y30850D02*
D03*
X22150Y37692D02*
D03*
Y37141D02*
D03*
X23550Y31401D02*
D03*
Y30850D02*
D03*
X34848Y36353D02*
D03*
Y35802D02*
D03*
X34850Y37147D02*
D03*
Y37698D02*
D03*
X35200Y46624D02*
D03*
Y47176D02*
D03*
X35198Y43976D02*
D03*
Y43424D02*
D03*
X30050Y41676D02*
D03*
Y41124D02*
D03*
X30052Y42574D02*
D03*
Y43126D02*
D03*
X30450Y37147D02*
D03*
Y37698D02*
D03*
X30448Y36353D02*
D03*
Y35802D02*
D03*
X39198Y36353D02*
D03*
Y35802D02*
D03*
X39200Y37147D02*
D03*
Y37698D02*
D03*
X50472Y42337D02*
D03*
Y41786D02*
D03*
Y37036D02*
D03*
Y37587D02*
D03*
X39350Y47276D02*
D03*
Y46724D02*
D03*
X48470Y35851D02*
D03*
Y35300D02*
D03*
X53150Y35851D02*
D03*
Y35300D02*
D03*
X50030Y35851D02*
D03*
Y35300D02*
D03*
X51590Y35851D02*
D03*
Y35300D02*
D03*
X39400Y48626D02*
D03*
Y48074D02*
D03*
D30*
X41675Y25871D02*
D03*
X42305Y25874D02*
D03*
X41675Y24884D02*
D03*
X42305Y24886D02*
D03*
X41675Y23896D02*
D03*
X42305Y23899D02*
D03*
X41675Y22908D02*
D03*
X42305Y22911D02*
D03*
X41675Y21920D02*
D03*
X42305Y21923D02*
D03*
X41675Y20933D02*
D03*
X42305Y20935D02*
D03*
X41675Y19945D02*
D03*
X42305Y19948D02*
D03*
X41675Y18957D02*
D03*
X42305Y18960D02*
D03*
X41675Y17970D02*
D03*
X42305Y17972D02*
D03*
X41675Y16982D02*
D03*
X42305Y16985D02*
D03*
D31*
X28397Y32850D02*
D03*
X27503Y32476D02*
D03*
Y33224D02*
D03*
D32*
X23066Y44002D02*
D03*
X22810D02*
D03*
X23578D02*
D03*
X23322D02*
D03*
X23066Y45698D02*
D03*
X22810D02*
D03*
X23578D02*
D03*
X23322D02*
D03*
D33*
X22352Y45230D02*
D03*
Y44974D02*
D03*
Y44718D02*
D03*
Y44462D02*
D03*
X24048Y44460D02*
D03*
Y44716D02*
D03*
Y44972D02*
D03*
Y45228D02*
D03*
D34*
X23200Y44850D02*
D03*
D35*
X23201Y48600D02*
D03*
X24264D02*
D03*
D36*
X27050Y40593D02*
D03*
Y43007D02*
D03*
D37*
X35099Y45574D02*
D03*
Y45200D02*
D03*
Y44826D02*
D03*
X36201D02*
D03*
Y45200D02*
D03*
Y45574D02*
D03*
D38*
X40870Y24030D02*
D03*
Y22570D02*
D03*
Y25130D02*
D03*
X36130Y24030D02*
D03*
Y22570D02*
D03*
Y25130D02*
D03*
Y18820D02*
D03*
Y20280D02*
D03*
Y17720D02*
D03*
X40870Y18820D02*
D03*
Y20280D02*
D03*
Y17720D02*
D03*
D39*
X33769Y14425D02*
D03*
X33766Y15054D02*
D03*
X34756Y14425D02*
D03*
X34754Y15054D02*
D03*
X35744Y14425D02*
D03*
X35741Y15054D02*
D03*
X36732Y14425D02*
D03*
X36729Y15054D02*
D03*
X37720Y14425D02*
D03*
X37717Y15054D02*
D03*
X38707Y14425D02*
D03*
X38705Y15054D02*
D03*
X39695Y14425D02*
D03*
X39692Y15054D02*
D03*
X40683Y14425D02*
D03*
X40680Y15054D02*
D03*
X41670Y14425D02*
D03*
X41668Y15054D02*
D03*
X42658Y14425D02*
D03*
X42655Y15054D02*
D03*
D40*
X46650Y45750D02*
D03*
X49400Y45080D02*
D03*
Y47480D02*
D03*
X46650Y48500D02*
D03*
X49400Y48900D02*
D03*
X51200Y45750D02*
D03*
X53950Y45080D02*
D03*
Y47480D02*
D03*
X51200Y48500D02*
D03*
X53950Y48900D02*
D03*
D41*
X40380Y44200D02*
D03*
Y43700D02*
D03*
Y43200D02*
D03*
Y42700D02*
D03*
Y42200D02*
D03*
Y41700D02*
D03*
Y41200D02*
D03*
Y40700D02*
D03*
X44120Y44200D02*
D03*
Y43700D02*
D03*
Y43200D02*
D03*
Y42700D02*
D03*
Y42200D02*
D03*
Y41700D02*
D03*
Y41200D02*
D03*
Y40700D02*
D03*
X40430Y48800D02*
D03*
Y48300D02*
D03*
Y47800D02*
D03*
Y47300D02*
D03*
Y46800D02*
D03*
Y46300D02*
D03*
Y45800D02*
D03*
Y45300D02*
D03*
X44170Y48800D02*
D03*
Y48300D02*
D03*
Y47800D02*
D03*
Y47300D02*
D03*
Y46800D02*
D03*
Y46300D02*
D03*
Y45800D02*
D03*
Y45300D02*
D03*
D42*
X36430Y43650D02*
D03*
X37770D02*
D03*
Y42350D02*
D03*
X36430D02*
D03*
D86*
X40231Y31544D02*
G03*
X40335Y31500I106J106D01*
G01*
X54026Y31980D02*
X54580D01*
X54026Y33551D02*
X54599D01*
X48470Y34830D02*
Y34870D01*
X48150Y34550D02*
X48470Y34870D01*
Y35300D01*
Y34830D02*
X48700Y34600D01*
X49700D01*
X50030Y34930D01*
X54026Y31980D02*
Y32766D01*
X54025Y31152D02*
X54025Y31153D01*
Y31979D01*
X54026Y31980D01*
Y32766D02*
Y33551D01*
Y34337D01*
X53150Y35300D02*
X53170D01*
X53943Y34527D01*
Y34419D02*
Y34527D01*
Y34419D02*
X54026Y34337D01*
X51250Y34600D02*
X51590Y34940D01*
X50030Y34920D02*
X50350Y34600D01*
X51250D01*
X51590Y34960D02*
Y35300D01*
Y34940D02*
Y34960D01*
X53150Y34950D02*
Y35300D01*
X52800Y34600D02*
X53150Y34950D01*
X51950Y34600D02*
X52800D01*
X51590Y34960D02*
X51950Y34600D01*
X50350Y30700D02*
Y31900D01*
X46600Y31188D02*
X46939Y31527D01*
X46575Y31164D02*
X46600Y31188D01*
Y31953D01*
X46939Y31527D02*
X46950D01*
X46575Y31152D02*
Y31164D01*
X45665Y34335D02*
X46624D01*
Y33549D02*
Y34335D01*
Y31978D02*
Y32763D01*
X46600Y31953D02*
X46624Y31978D01*
X50030Y34920D02*
Y34930D01*
Y35300D01*
X50472Y36472D02*
Y37036D01*
X51022Y37566D02*
Y38621D01*
X50492Y37036D02*
X51022Y37566D01*
X50472Y37036D02*
X50492D01*
X50744Y39188D02*
X51022Y38910D01*
X50022Y38621D02*
Y38910D01*
X50301Y39188D01*
X50744D01*
X51022Y38621D02*
Y38910D01*
X50472Y42337D02*
Y42828D01*
X50350Y40150D02*
X50700D01*
X51022Y40493D02*
Y40802D01*
X50984Y40455D02*
X51022Y40493D01*
X50984Y40434D02*
Y40455D01*
X50700Y40150D02*
X50984Y40434D01*
X50060Y40440D02*
Y40455D01*
X50022Y40493D02*
X50060Y40455D01*
Y40440D02*
X50350Y40150D01*
X50022Y40493D02*
Y41907D01*
X50453Y42337D02*
X50472D01*
X50022Y41907D02*
X50453Y42337D01*
X44750Y47100D02*
X45203D01*
X44550Y47300D02*
X44750Y47100D01*
X44170Y47300D02*
X44550D01*
X44853Y45053D02*
X45250D01*
X46189Y41297D02*
X46200D01*
X45797Y41689D02*
X46189Y41297D01*
X45797Y41689D02*
Y41700D01*
X45750Y43797D02*
Y44250D01*
X45150Y43797D02*
X45750D01*
X43100Y42700D02*
X44120D01*
X38774Y48626D02*
X39400D01*
X38950Y46324D02*
Y46344D01*
X39330Y46724D01*
X39350D01*
X38503Y44450D02*
X38515D01*
X38803Y44739D01*
Y44750D01*
X38724Y43050D02*
Y43800D01*
X38750Y42600D02*
Y43024D01*
X38724Y43050D02*
X38750Y43024D01*
X38703Y41047D02*
Y41500D01*
X38702Y37698D02*
X39200D01*
X46600Y40250D02*
X46601Y40249D01*
X46200Y42450D02*
X46600Y42050D01*
Y40250D02*
Y42050D01*
X40335Y31500D02*
X41989Y31488D01*
X40174Y31600D02*
X40230Y31544D01*
X40231Y31544D01*
X40150Y31600D02*
X40174D01*
X38250Y43837D02*
X38613Y44200D01*
X38250Y42977D02*
Y43837D01*
X37770Y42497D02*
X38250Y42977D01*
X37770Y42350D02*
Y42497D01*
X38613Y44200D02*
X39684D01*
X40034Y44550D02*
X45300D01*
X39684Y44200D02*
X40034Y44550D01*
X45300D02*
X45776Y45026D01*
Y46450D01*
X37717Y15054D02*
X38150Y15487D01*
Y15753D01*
X38185Y15789D01*
X38200Y15803D01*
X40250Y17250D02*
X40720Y17720D01*
X37400Y17250D02*
X40250D01*
X36750Y17900D02*
X37400Y17250D01*
X37395Y30135D02*
X37760Y30500D01*
X39353D02*
X39400Y30547D01*
X37760Y30500D02*
X39353D01*
X38200Y26553D02*
X38697D01*
X37870Y27650D02*
X38385Y28165D01*
X27845Y28355D02*
X28550Y27650D01*
X37870D01*
X38043Y25673D02*
X39864D01*
X37100Y22238D02*
Y24730D01*
X38987Y25200D02*
X39550D01*
X40408Y25130D02*
X40870D01*
X37100Y24730D02*
X38043Y25673D01*
X38937Y25150D02*
X38987Y25200D01*
X38350Y25150D02*
X38937D01*
X39864Y25673D02*
X40408Y25130D01*
X37012Y22150D02*
X37100Y22238D01*
X24600Y29400D02*
X25645Y28355D01*
X27845D01*
X39650Y22325D02*
X39699D01*
X39829Y22195D01*
X41322D01*
X39650Y21700D02*
X39674D01*
X39736Y21638D01*
X42020D01*
X39650Y21050D02*
X39658D01*
X39898Y21290D01*
X41950D01*
X42305Y20935D01*
X39745Y25428D02*
X40572Y24601D01*
X40700Y25950D02*
X41100Y25550D01*
X39900Y25950D02*
X40700D01*
X28771Y48745D02*
X29040Y48476D01*
X27180Y48745D02*
X28771D01*
X26940Y48505D02*
X27180Y48745D01*
X41657Y17000D02*
X41675Y16982D01*
X41200Y17000D02*
X41657D01*
X41646Y21950D02*
X41675Y21920D01*
X41188Y21950D02*
X41646D01*
X41188D02*
X41250D01*
X41658Y20950D02*
X41675Y20933D01*
X41200Y20950D02*
X41658D01*
X29040Y48476D02*
X29055D01*
X26905Y48505D02*
X26940D01*
X45776Y42450D02*
X46200D01*
X48086Y39864D02*
Y40357D01*
Y39864D02*
X48100Y39850D01*
X48072Y40371D02*
X48086Y40357D01*
X40492Y30630D02*
X40666D01*
X40370Y30752D02*
X40492Y30630D01*
X40370Y30752D02*
Y30757D01*
X39306Y31821D02*
X40370Y30757D01*
X39301Y31821D02*
X39306D01*
X39021Y32101D02*
X39301Y31821D01*
X39021Y32101D02*
Y32779D01*
X40666Y30630D02*
X40750Y30547D01*
X38500Y33300D02*
X39021Y32779D01*
X45752Y43202D02*
X45763Y43191D01*
X45750Y43203D02*
X45752Y43202D01*
X46198D01*
X46200Y43200D01*
X27341Y33280D02*
X27397Y33224D01*
X27503D01*
X25700Y33280D02*
X27341D01*
X27503Y33224D02*
X27527D01*
X32885Y30135D02*
X33995D01*
X30100Y28900D02*
X31650D01*
X32885Y30135D01*
X29600Y29400D02*
X30100Y28900D01*
X55330Y29674D02*
X55550Y29894D01*
X55329Y29674D02*
X55330D01*
X55305Y29650D02*
X55329Y29674D01*
X34100Y19400D02*
X34800Y18700D01*
X36750D02*
X40750D01*
X36733Y19483D02*
X36750Y19500D01*
X36733Y19273D02*
Y19483D01*
X55150Y30000D02*
X55350Y30200D01*
Y38558D01*
X54655Y39536D02*
X55550Y38640D01*
Y29894D02*
Y38640D01*
X51949Y39336D02*
X54572D01*
X50149Y39536D02*
X54655D01*
X54572Y39336D02*
X55350Y38558D01*
X49547Y38646D02*
Y38934D01*
X50149Y39536D01*
X49522Y38621D02*
X49547Y38646D01*
X53000Y39805D02*
X53072Y39878D01*
X53000Y39781D02*
Y39805D01*
X53072Y39878D02*
Y40371D01*
X51511Y39811D02*
Y40791D01*
X51500Y39800D02*
X51511Y39811D01*
X51522Y38910D02*
X51949Y39336D01*
X51522Y38621D02*
Y38910D01*
X23971Y45699D02*
X23972Y45700D01*
X23579Y45699D02*
X23971D01*
X25950Y35250D02*
X26911D01*
X24950Y36250D02*
Y38662D01*
Y36250D02*
X25950Y35250D01*
X26911D02*
X28150Y34011D01*
Y34000D02*
Y34011D01*
X33995Y30135D02*
X34985Y29145D01*
Y28165D02*
Y29145D01*
X20850Y23500D02*
Y31100D01*
X24650Y34900D02*
X26400D01*
X20850Y31100D02*
X24650Y34900D01*
X22100Y22250D02*
X24700D01*
X20850Y23500D02*
X22100Y22250D01*
X33995Y30135D02*
X34690Y30830D01*
X39780D02*
X40064Y30547D01*
X34690Y30830D02*
X39780D01*
X40064Y30547D02*
X40075D01*
X37395Y29155D02*
X38385Y28165D01*
X37395Y29155D02*
Y30135D01*
X24810Y23490D02*
X25350Y22950D01*
X24810Y23490D02*
Y24676D01*
X28596Y30854D02*
X28600Y30850D01*
Y30400D02*
Y30850D01*
X27800Y30857D02*
X27804Y30854D01*
X28596D01*
X27557Y33254D02*
Y34000D01*
X27527Y33224D02*
X27557Y33254D01*
X28150Y34000D02*
X28156Y34006D01*
X29094D01*
X29100Y34011D01*
X50351Y23351D02*
Y23499D01*
X49660Y24190D02*
X50351Y23499D01*
X49660Y24190D02*
Y24512D01*
X51511Y40791D02*
X51522Y40802D01*
X49511Y40791D02*
X49522Y40802D01*
X49511Y39861D02*
Y40791D01*
X49500Y39850D02*
X49511Y39861D01*
X49315Y24857D02*
Y25765D01*
Y24857D02*
X49660Y24512D01*
X50192Y27632D02*
X50295Y27735D01*
X50192Y24542D02*
Y27632D01*
X50100Y24450D02*
X50192Y24542D01*
X26195Y27735D02*
X26223Y27708D01*
Y24478D02*
Y27708D01*
Y24478D02*
X26250Y24450D01*
X25215Y25081D02*
Y25765D01*
X24810Y24676D02*
X25215Y25081D01*
X49199Y35900D02*
X49210D01*
X48350Y36749D02*
X49199Y35900D01*
X48350Y36749D02*
Y37550D01*
X47675Y35876D02*
X48425D01*
X48072Y36229D02*
Y38459D01*
Y36229D02*
X48425Y35876D01*
X48445D01*
X51590Y35851D02*
X51610D01*
X52750Y36992D01*
Y37650D01*
X53125Y35876D02*
X53150Y35851D01*
X53111Y35890D02*
X53125Y35876D01*
X53111Y35890D02*
Y38420D01*
X53072Y38459D02*
X53111Y38420D01*
X52330Y35900D02*
X52355Y35876D01*
X53125D01*
X48445D02*
X48470Y35851D01*
X47650Y35900D02*
X47675Y35876D01*
X50005D02*
X50030Y35851D01*
X49235Y35876D02*
X50005D01*
X49210Y35900D02*
X49235Y35876D01*
X50770Y35900D02*
X50795Y35876D01*
X51565D01*
X51590Y35851D01*
X48246Y40802D02*
X49022D01*
X48084Y40964D02*
X48246Y40802D01*
X48072Y40964D02*
X48084D01*
X48514Y38621D02*
X49022D01*
X48084Y39052D02*
X48514Y38621D01*
X48072Y39052D02*
X48084D01*
X48935Y37612D02*
Y38225D01*
X49022Y38313D01*
Y38621D01*
X48892Y36862D02*
X48913Y36883D01*
Y37590D01*
X48935Y37612D01*
X49485Y37611D02*
X49486Y37612D01*
X49485Y36862D02*
Y37611D01*
X49485Y36862D02*
X49485Y36862D01*
X49486Y37612D02*
Y38276D01*
X49522Y38313D01*
Y38621D01*
X51522Y37739D02*
Y38621D01*
X51412Y37629D02*
X51522Y37739D01*
X51412Y37609D02*
Y37629D01*
X51413Y36862D02*
X51413Y36862D01*
X51413Y36862D02*
Y37609D01*
X51412Y37609D02*
X51413Y37609D01*
X51957Y41176D02*
Y41801D01*
X53061Y40964D02*
X53072D01*
X52307Y41718D02*
X53061Y40964D01*
X52040Y41718D02*
X52307D01*
X51957Y41801D02*
X52040Y41718D01*
X51957Y41801D02*
Y41820D01*
X52022Y38621D02*
Y38800D01*
X52057Y38835D01*
X52364D01*
X52581Y39052D01*
X53072D01*
X51963Y37609D02*
Y38254D01*
X52022Y38313D01*
Y38621D01*
X51963Y37609D02*
X51985Y37588D01*
Y36883D02*
Y37588D01*
Y36883D02*
X52006Y36862D01*
X51957Y41176D02*
X52022Y41110D01*
Y40802D02*
Y41110D01*
X51406Y41227D02*
Y41820D01*
Y41227D02*
X51522Y41110D01*
Y40802D02*
Y41110D01*
X51963Y42556D02*
X51969Y42562D01*
X51963Y41826D02*
Y42556D01*
X51957Y41820D02*
X51963Y41826D01*
X51376Y42562D02*
X51391Y42546D01*
Y41836D02*
Y42546D01*
Y41836D02*
X51406Y41820D01*
X49492Y41818D02*
X49508Y41803D01*
Y40816D02*
Y41803D01*
Y40816D02*
X49522Y40802D01*
X48941Y41818D02*
X49008Y41751D01*
Y40816D02*
Y41751D01*
Y40816D02*
X49022Y40802D01*
X48933Y41826D02*
X48941Y41818D01*
X48933Y41826D02*
Y42554D01*
X48926Y42562D02*
X48933Y42554D01*
X49505Y42548D02*
X49519Y42562D01*
X49505Y41832D02*
Y42548D01*
X49492Y41818D02*
X49505Y41832D01*
X45203Y41700D02*
X45214Y41690D01*
Y40911D02*
Y41690D01*
Y40911D02*
X45224Y40900D01*
X45200Y48500D02*
X45209Y48491D01*
Y47809D02*
Y48491D01*
Y47809D02*
X45218Y47800D01*
X44170D02*
X45218D01*
X45783Y47102D02*
X45880Y47005D01*
X45769Y47800D02*
X45783Y47786D01*
Y47102D02*
Y47786D01*
X46650Y45750D02*
Y46247D01*
X45892Y47005D02*
X46650Y46247D01*
X45880Y47005D02*
X45892D01*
X44170Y46300D02*
X45094D01*
X45224Y46430D01*
Y46450D01*
X44170Y46300D02*
Y46800D01*
X45237Y45659D02*
X45250Y45647D01*
X45237Y45659D02*
Y46437D01*
X45224Y46450D02*
X45237Y46437D01*
X45150Y43203D02*
X45187Y43166D01*
Y42487D02*
Y43166D01*
Y42487D02*
X45224Y42450D01*
X45763Y42463D02*
X45776Y42450D01*
X45763Y42463D02*
Y43191D01*
X44120Y41700D02*
X45203D01*
X44100Y42200D02*
X44120Y42180D01*
Y41700D02*
Y42180D01*
X44100Y42200D02*
X44120D01*
Y43200D02*
X44122Y43202D01*
X45148D01*
X45150Y43203D01*
X38824Y45380D02*
Y45400D01*
X37986Y44541D02*
X38824Y45380D01*
X37986Y43865D02*
Y44541D01*
X37770Y43650D02*
X37986Y43865D01*
X39297Y41500D02*
X39298Y41502D01*
Y42248D01*
X39300Y42250D01*
X40380Y41700D02*
Y42200D01*
X40365Y42215D02*
X40380Y42200D01*
X39335Y42215D02*
X40365D01*
X39300Y42250D02*
X39335Y42215D01*
X39386Y44760D02*
X39397Y44750D01*
X39386Y44760D02*
Y45389D01*
X39376Y45400D02*
X39386Y45389D01*
X40070Y46300D02*
X40430D01*
X39458Y45688D02*
X40070Y46300D01*
X39458Y45482D02*
Y45688D01*
X39376Y45400D02*
X39458Y45482D01*
X40430Y46300D02*
Y46800D01*
X46650Y45750D02*
X47692D01*
X48137Y45305D01*
X49175D01*
X49400Y45080D01*
X54600Y21050D02*
Y23950D01*
X53578Y20337D02*
X53645Y20404D01*
X53954D01*
X54600Y21050D01*
X54100Y24450D02*
X54600Y23950D01*
X54002Y21450D02*
X54100D01*
X52889Y20337D02*
X54002Y21450D01*
X52791Y20337D02*
X52889D01*
X53100Y21441D02*
Y21450D01*
X52004Y20346D02*
X53100Y21441D01*
X52004Y20337D02*
Y20346D01*
X52100Y21335D02*
Y21450D01*
X51217Y20452D02*
X52100Y21335D01*
X51217Y20337D02*
Y20452D01*
X50512Y20862D02*
X51100Y21450D01*
X50512Y20419D02*
Y20862D01*
X50430Y20337D02*
X50512Y20419D01*
X50095Y21445D02*
X50100Y21450D01*
X50095Y20788D02*
Y21445D01*
X49643Y20337D02*
X50095Y20788D01*
X49100Y20702D02*
Y21450D01*
X48856Y20459D02*
X49100Y20702D01*
X48856Y20337D02*
Y20459D01*
X48085Y21435D02*
X48100Y21450D01*
X48085Y20352D02*
Y21435D01*
X48069Y20337D02*
X48085Y20352D01*
X47100Y20641D02*
Y21450D01*
Y20641D02*
X47282Y20459D01*
Y20337D02*
Y20459D01*
X46100Y20732D02*
Y21450D01*
Y20732D02*
X46495Y20337D01*
X30250Y24450D02*
X30800Y23900D01*
Y21216D02*
Y23900D01*
X29922Y20337D02*
X30800Y21216D01*
X29135Y20337D02*
X29136D01*
X30249Y21450D01*
X30250D01*
X28347Y20337D02*
Y20442D01*
X29250Y21345D01*
Y21450D01*
X27561Y20337D02*
X28158Y20935D01*
Y21358D01*
X28250Y21450D01*
X26774Y20337D02*
X26792Y20355D01*
Y20992D01*
X27250Y21450D01*
X25986Y20337D02*
Y21057D01*
X26250Y21320D01*
Y21450D01*
X25199Y20337D02*
X25225Y20362D01*
Y21425D01*
X25250Y21450D01*
X24331Y20418D02*
X24413Y20337D01*
X24331Y20418D02*
Y21369D01*
X24250Y21450D02*
X24331Y21369D01*
X23626Y20337D02*
Y21062D01*
X23250Y21437D02*
X23626Y21062D01*
X23250Y21437D02*
Y21450D01*
X22838Y20337D02*
Y20861D01*
X22250Y21450D02*
X22838Y20861D01*
X34750Y21050D02*
Y21074D01*
X34705Y21119D02*
X34750Y21074D01*
X34705Y21119D02*
Y21145D01*
X34550Y21300D02*
X34705Y21145D01*
X34550Y21300D02*
Y22062D01*
X33900Y18850D02*
Y23600D01*
X34300Y20726D02*
Y22150D01*
X34100Y19400D02*
Y22950D01*
X34300Y22150D02*
X34720Y22570D01*
X34100Y22950D02*
X35180Y24030D01*
X33900Y23600D02*
X35430Y25130D01*
X33900Y18850D02*
X34800Y17950D01*
X34300Y20726D02*
X34726Y20300D01*
X34750D01*
X34720Y22570D02*
X36130D01*
X34638Y22150D02*
X37012D01*
X34550Y22062D02*
X34638Y22150D01*
X34795Y21850D02*
X34845Y21900D01*
X38830D01*
X35180Y24030D02*
X36130D01*
X35430Y25130D02*
X36130D01*
X39550Y25200D02*
X40720Y24030D01*
X38830Y21900D02*
X39500Y22570D01*
X36130Y20880D02*
X36900Y21650D01*
X36130Y20280D02*
Y20880D01*
X39500Y22570D02*
X40870D01*
X40720Y24030D02*
X40870D01*
X39655Y23859D02*
X39901Y23613D01*
X39641Y23859D02*
X39655D01*
X40572Y24601D02*
X42020D01*
X41100Y25550D02*
X41981D01*
X36130Y17720D02*
X36150Y17700D01*
Y17150D02*
Y17700D01*
X36130Y18820D02*
X36280D01*
X36733Y19273D01*
X40600Y18445D02*
X41322D01*
X39650Y17495D02*
X40600Y18445D01*
X40720Y17720D02*
X40870D01*
X39650Y18945D02*
X40255Y19550D01*
X40750Y18700D02*
X40870Y18820D01*
X40255Y19550D02*
X42200D01*
X37465Y19535D02*
X39505D01*
X36700Y20300D02*
X37465Y19535D01*
X39505D02*
X39770Y19800D01*
X40240D01*
X40720Y20280D02*
X40870D01*
X40240Y19800D02*
X40720Y20280D01*
X39650Y20450D02*
X40213D01*
X40418Y20655D01*
X41667Y24250D02*
X41671Y24246D01*
Y23900D02*
Y24246D01*
Y23900D02*
X41675Y23896D01*
X42222Y17067D02*
X42305Y16985D01*
X42222Y17067D02*
Y17228D01*
X42150Y17300D02*
X42222Y17228D01*
X40950Y17300D02*
X42150D01*
X40600Y16950D02*
X40950Y17300D01*
X39650Y16950D02*
X40600D01*
X41327Y18450D02*
X41827D01*
X41322Y18445D02*
X41327Y18450D01*
X41827D02*
X42305Y17972D01*
X41200Y18150D02*
X41217Y18133D01*
X41512D02*
X41675Y17970D01*
X41217Y18133D02*
X41512D01*
X40418Y20655D02*
X41322D01*
X41327Y20650D01*
X41602D01*
X42305Y19948D01*
Y18960D02*
Y19445D01*
X42200Y19550D02*
X42305Y19445D01*
X41663Y18970D02*
Y19287D01*
X41650Y19300D02*
X41663Y19287D01*
Y18970D02*
X41675Y18957D01*
X42020Y21638D02*
X42305Y21923D01*
X41597Y22203D02*
X42305Y22911D01*
X41330Y22203D02*
X41597D01*
X41322Y22195D02*
X41330Y22203D01*
X39901Y23613D02*
X42020D01*
X42305Y23899D01*
X42020Y24601D02*
X42305Y24886D01*
X41981Y25550D02*
X42305Y25874D01*
X41663Y24896D02*
Y25287D01*
X41650Y25300D02*
X41663Y25287D01*
Y24896D02*
X41675Y24884D01*
X41250Y25900D02*
X41264Y25886D01*
X41661D01*
X41675Y25871D01*
X41650Y20250D02*
X41663Y20237D01*
Y19958D02*
Y20237D01*
Y19958D02*
X41675Y19945D01*
X41667Y23250D02*
X41671Y23246D01*
Y22912D02*
Y23246D01*
Y22912D02*
X41675Y22908D01*
X33741Y12923D02*
X34726D01*
X33730D02*
X33741D01*
X34300Y13482D01*
Y15026D01*
X34250Y15076D02*
X34300Y15026D01*
X34250Y15076D02*
Y15100D01*
X34737Y13517D02*
X35100Y13880D01*
X34754Y15054D02*
X35100Y14708D01*
Y13880D02*
Y14708D01*
X33730Y13517D02*
X33741D01*
X34100Y13875D01*
X33766Y15054D02*
X34100Y14720D01*
Y13875D02*
Y14720D01*
X34726Y13517D02*
X34737D01*
X35721D02*
X35732D01*
X36050Y13834D01*
X35741Y15054D02*
X36050Y14746D01*
Y13834D02*
Y14746D01*
X36717Y13517D02*
X36728D01*
X37100Y13889D01*
X36729Y15054D02*
X37100Y14683D01*
Y13889D02*
Y14683D01*
X37712Y13517D02*
X37724D01*
X38100Y13893D01*
X37717Y15054D02*
X38100Y14671D01*
Y13893D02*
Y14671D01*
X38708Y13517D02*
X38719D01*
X39150Y13947D01*
X38705Y15054D02*
X39150Y14609D01*
Y13947D02*
Y14609D01*
X39703Y13517D02*
X39715D01*
X40050Y13852D01*
X39692Y15054D02*
X40050Y14697D01*
Y13852D02*
Y14697D01*
X40699Y13517D02*
X40710D01*
X40938Y13744D01*
X40944D01*
X41050Y13850D01*
Y14684D01*
X40680Y15054D02*
X41050Y14684D01*
X42300Y13895D02*
Y14699D01*
X42679Y13517D02*
X42690D01*
X42300Y13895D02*
X42679Y13517D01*
X42300Y14699D02*
X42655Y15054D01*
X41706Y13517D02*
X42100Y13911D01*
Y14622D01*
X41668Y15054D02*
X42100Y14622D01*
X41694Y13517D02*
X41706D01*
X41694Y12923D02*
X42690D01*
X40699D02*
X41694D01*
X39703D02*
X40699D01*
X38708D02*
X39703D01*
X37712D02*
X38708D01*
X36717D02*
X37712D01*
X35721D02*
X36717D01*
X34726D02*
X35721D01*
X23578Y45698D02*
X23579Y45699D01*
X24264Y48100D02*
Y48600D01*
Y48100D02*
X24500Y47863D01*
Y47850D02*
Y47863D01*
X24048Y44716D02*
X24728D01*
X24924Y44520D01*
Y44500D02*
Y44520D01*
X24048Y45228D02*
X24054Y45234D01*
X24888D01*
X24903Y45250D01*
D87*
X49205Y34905D02*
Y35302D01*
X49200Y34900D02*
X49205Y34905D01*
X47169Y30378D02*
X47900Y31110D01*
Y32033D01*
X49205Y35302D02*
X49210Y35307D01*
X50750Y34900D02*
Y34911D01*
X50770Y34931D01*
Y35307D01*
X54028Y30363D02*
X54034Y30358D01*
X54025Y30367D02*
X54028Y30363D01*
X54372Y30358D02*
X54380Y30350D01*
X54034Y30358D02*
X54372D01*
X46150Y32836D02*
X46464Y33150D01*
X47323D01*
X47823Y33650D01*
X46150Y30803D02*
Y32836D01*
X47823Y33650D02*
X48500D01*
X46575Y30367D02*
Y30378D01*
X46150Y30803D02*
X46575Y30378D01*
X52200Y33650D02*
X52200Y33650D01*
X52900D01*
X52900Y33650D01*
X51500Y33150D02*
X51500Y33150D01*
X52200D01*
X52330Y34880D02*
Y35307D01*
Y34880D02*
X52350Y34861D01*
Y34850D02*
Y34861D01*
X48500Y32150D02*
X49250D01*
X48500Y32150D02*
X48500Y32150D01*
X48500Y32650D02*
X48500Y32650D01*
X49200D01*
X49200Y32650D01*
X52200Y32650D02*
X52200Y32650D01*
X51500Y32650D02*
X52200D01*
X51500Y32650D02*
X51500Y32650D01*
X52200Y32150D02*
X52200Y32150D01*
X51500Y32150D02*
X52200D01*
X51500Y32150D02*
X51500Y32150D01*
X53432Y31152D02*
Y31164D01*
X53150Y31445D02*
X53432Y31164D01*
X53150Y31445D02*
Y32136D01*
X52655Y32632D02*
X53150Y32136D01*
X52218Y32632D02*
X52655D01*
X52200Y32650D02*
X52218Y32632D01*
X52783Y32150D02*
X52900Y32033D01*
Y30910D02*
Y32033D01*
X52200Y32150D02*
X52783D01*
X47650Y34900D02*
Y35307D01*
X52200Y33150D02*
X52200Y33150D01*
X52900Y30910D02*
X53432Y30378D01*
Y30367D02*
Y30378D01*
X48481Y32132D02*
X48500Y32150D01*
X47999Y32132D02*
X48481D01*
X47900Y32033D02*
X47999Y32132D01*
X47169Y30367D02*
Y30378D01*
Y31164D02*
X47600Y31595D01*
Y32533D01*
X47717Y32650D01*
X48500D01*
X47169Y31152D02*
Y31164D01*
X46575Y30367D02*
X46600Y30342D01*
Y29645D02*
Y30342D01*
Y29645D02*
X46624Y29620D01*
X54028Y29624D02*
X54032Y29620D01*
X54028Y29624D02*
Y30363D01*
X53474Y31980D02*
Y32766D01*
Y32785D01*
X53110Y33150D02*
X53474Y32785D01*
X52200Y33150D02*
X53110D01*
X53474Y33551D02*
Y34337D01*
X52200Y34150D02*
X52232Y34182D01*
X52712D01*
X52867Y34337D01*
X53474D01*
X27350Y44650D02*
X28529D01*
X29000Y44179D01*
Y44084D02*
Y44179D01*
X28371Y40596D02*
X28374Y40600D01*
X27054Y40596D02*
X28371D01*
X27050Y40593D02*
X27054Y40596D01*
X24048Y44460D02*
X24167D01*
X25620Y43007D01*
X27050D01*
X27350Y43160D02*
Y44650D01*
X27198Y43007D02*
X27350Y43160D01*
X27050Y43007D02*
X27198D01*
X27050D02*
X27054Y43004D01*
X28371D01*
X28374Y43000D01*
X25552Y41644D02*
Y41900D01*
Y41644D02*
X26451Y40745D01*
X26898D01*
X27050Y40593D01*
X25552Y41900D02*
Y42156D01*
X23856Y43852D02*
X25552Y42156D01*
X23609Y43852D02*
X23856D01*
X23578Y43883D02*
X23609Y43852D01*
X23578Y43883D02*
Y44002D01*
D88*
X53950Y48900D02*
X55250D01*
X51200Y48500D02*
X52089D01*
X52489Y48900D01*
X53950D01*
X42800Y47300D02*
X44170D01*
X46650Y48500D02*
X47539D01*
X47939Y48900D01*
X49400D01*
X49700D01*
X50100Y48500D01*
X51200D01*
X46650Y47900D02*
Y48500D01*
X45200Y49093D02*
X45757D01*
X46350Y48500D01*
X46650D01*
D89*
X43500Y33300D02*
D03*
Y32300D02*
D03*
X42500Y33300D02*
D03*
Y32300D02*
D03*
X41500Y33300D02*
D03*
Y32300D02*
D03*
X40500Y33300D02*
D03*
Y32300D02*
D03*
X39500Y33300D02*
D03*
Y32300D02*
D03*
X38500Y33300D02*
D03*
Y32300D02*
D03*
X37500Y33300D02*
D03*
Y32300D02*
D03*
X36500Y33300D02*
D03*
Y32300D02*
D03*
X35500Y33300D02*
D03*
Y32300D02*
D03*
X34500Y33300D02*
D03*
X27350Y44650D02*
D03*
D90*
X34500Y32300D02*
D03*
D91*
X33995Y30135D02*
D03*
X34985Y28165D02*
D03*
X29600Y29400D02*
D03*
X28600D02*
D03*
X27600D02*
D03*
X26600D02*
D03*
X25600D02*
D03*
X24600D02*
D03*
X23600D02*
D03*
X22600D02*
D03*
X38385Y28165D02*
D03*
X37395Y30135D02*
D03*
X50295Y27735D02*
D03*
X51285Y25765D02*
D03*
X26195Y27735D02*
D03*
X27185Y25765D02*
D03*
X37245Y48485D02*
D03*
X38235Y46515D02*
D03*
D92*
X33015Y28165D02*
D03*
X30600Y29400D02*
D03*
X36415Y28165D02*
D03*
X49315Y25765D02*
D03*
X25215D02*
D03*
X36265Y46515D02*
D03*
D93*
X22950Y38798D02*
D03*
X41150D02*
D03*
X36600D02*
D03*
X32050D02*
D03*
X27500D02*
D03*
D94*
X24950Y38802D02*
D03*
X23950Y38798D02*
D03*
X43150Y38802D02*
D03*
X42150Y38798D02*
D03*
X38600Y38802D02*
D03*
X37600Y38798D02*
D03*
X34050Y38802D02*
D03*
X33050Y38798D02*
D03*
X29500Y38802D02*
D03*
X28500Y38798D02*
D03*
D95*
X25551Y48939D02*
D03*
X22149D02*
D03*
D96*
X25551Y47305D02*
D03*
X22149D02*
D03*
D97*
X24992Y47498D02*
D03*
X22708Y47502D02*
D03*
D98*
X46495Y20337D02*
D03*
X22838D02*
D03*
D99*
X47282D02*
D03*
X48069D02*
D03*
X48856D02*
D03*
X49643D02*
D03*
X50430D02*
D03*
X51217D02*
D03*
X52004D02*
D03*
X53578D02*
D03*
X52791D02*
D03*
X46495Y19550D02*
D03*
X47282D02*
D03*
X48069D02*
D03*
X48856D02*
D03*
X49643D02*
D03*
X50430D02*
D03*
X51217D02*
D03*
X52004D02*
D03*
X53578D02*
D03*
X52791D02*
D03*
X29135D02*
D03*
X29922D02*
D03*
X28347D02*
D03*
X27561D02*
D03*
X26774D02*
D03*
X25986D02*
D03*
X25199D02*
D03*
X24413D02*
D03*
X23626D02*
D03*
X22838D02*
D03*
X29135Y20337D02*
D03*
X29922D02*
D03*
X28347D02*
D03*
X27561D02*
D03*
X26774D02*
D03*
X25986D02*
D03*
X25199D02*
D03*
X24413D02*
D03*
X23626D02*
D03*
D100*
X49410Y18530D02*
D03*
X50200D02*
D03*
X50990D02*
D03*
X48620D02*
D03*
X24800D02*
D03*
X27170D02*
D03*
X26380D02*
D03*
X25590D02*
D03*
D101*
X51780D02*
D03*
X27960D02*
D03*
D102*
X52250Y14550D02*
D03*
X48150D02*
D03*
X24330D02*
D03*
X28430D02*
D03*
D103*
X52100Y21450D02*
D03*
X51100D02*
D03*
X50100D02*
D03*
X49100D02*
D03*
X48100D02*
D03*
X47100D02*
D03*
X46100D02*
D03*
Y24450D02*
D03*
X53100Y21450D02*
D03*
X54100D02*
D03*
X47100Y24450D02*
D03*
X48100D02*
D03*
X49100D02*
D03*
X50100D02*
D03*
X51100D02*
D03*
X52100D02*
D03*
X53100D02*
D03*
X39969Y28321D02*
D03*
X40756D02*
D03*
X41544D02*
D03*
X28250Y21450D02*
D03*
X27250D02*
D03*
X26250D02*
D03*
X25250D02*
D03*
X24250D02*
D03*
X23250D02*
D03*
X22250D02*
D03*
Y24450D02*
D03*
X29250Y21450D02*
D03*
X30250D02*
D03*
X23250Y24450D02*
D03*
X24250D02*
D03*
X25250D02*
D03*
X26250D02*
D03*
X27250D02*
D03*
X28250D02*
D03*
X29250D02*
D03*
X27238Y47821D02*
D03*
X28025D02*
D03*
X28813D02*
D03*
X31519D02*
D03*
X32306D02*
D03*
X33094D02*
D03*
D104*
X54100Y24450D02*
D03*
X30250D02*
D03*
D105*
X42331Y28317D02*
D03*
X29600Y47817D02*
D03*
X33881D02*
D03*
D106*
X27350Y45650D02*
D03*
D107*
X54580Y31980D02*
D03*
X54599Y33551D02*
D03*
X48150Y34550D02*
D03*
X49200Y34900D02*
D03*
X50350Y30700D02*
D03*
X46950Y31527D02*
D03*
X50750Y34900D02*
D03*
X49950Y37750D02*
D03*
X50800Y41800D02*
D03*
X44853Y45053D02*
D03*
X46200Y41297D02*
D03*
X45750Y44250D02*
D03*
X43100Y42700D02*
D03*
X38774Y48626D02*
D03*
X38950Y46324D02*
D03*
X38503Y44450D02*
D03*
X38750Y42600D02*
D03*
X38703Y41047D02*
D03*
X36550Y40850D02*
D03*
X38702Y37698D02*
D03*
X45650Y40300D02*
D03*
X46601Y40249D02*
D03*
X42850Y40300D02*
D03*
X41989Y31488D02*
D03*
X40255Y31255D02*
D03*
X40150Y31600D02*
D03*
X37950Y34239D02*
D03*
X38086Y33983D02*
D03*
X36200Y40850D02*
D03*
X45830Y31280D02*
D03*
X38350Y25150D02*
D03*
X39650Y22325D02*
D03*
Y21700D02*
D03*
Y21050D02*
D03*
X39900Y25950D02*
D03*
X39745Y25428D02*
D03*
X27300Y48500D02*
D03*
X41200Y17000D02*
D03*
X41188Y21950D02*
D03*
X41200Y20950D02*
D03*
X26700Y46050D02*
D03*
X28500Y48456D02*
D03*
X44100Y29750D02*
D03*
X44390D02*
D03*
X46200Y42450D02*
D03*
X48100Y39850D02*
D03*
X30555Y39650D02*
D03*
X31245D02*
D03*
X31764D02*
D03*
X32448Y39698D02*
D03*
X42500Y41800D02*
D03*
X38700Y47300D02*
D03*
X41550Y42000D02*
D03*
X38700Y48100D02*
D03*
X46200Y43200D02*
D03*
X48450Y47400D02*
D03*
X27253Y28600D02*
D03*
X33850D02*
D03*
X55305Y29650D02*
D03*
X36750Y18700D02*
D03*
X34800D02*
D03*
X36750Y19500D02*
D03*
X34800D02*
D03*
X46650Y28550D02*
D03*
X55150Y30000D02*
D03*
X53000Y39781D02*
D03*
X51500Y39800D02*
D03*
X23972Y45700D02*
D03*
X26400Y34900D02*
D03*
X25350Y22950D02*
D03*
X28800Y34400D02*
D03*
X28600Y30400D02*
D03*
X50351Y23351D02*
D03*
X54380Y30350D02*
D03*
X49500Y39850D02*
D03*
X52900Y33650D02*
D03*
X51500Y33150D02*
D03*
X24700Y22250D02*
D03*
X48350Y37550D02*
D03*
X52750Y37650D02*
D03*
X49250Y32150D02*
D03*
X49200Y32650D02*
D03*
X51500D02*
D03*
Y32150D02*
D03*
X52350Y34850D02*
D03*
X47650Y34900D02*
D03*
X49200Y33150D02*
D03*
X34795Y21850D02*
D03*
X36900Y21650D02*
D03*
X34750Y20300D02*
D03*
Y21050D02*
D03*
X39641Y23859D02*
D03*
X36150Y17150D02*
D03*
X39650Y17495D02*
D03*
Y18945D02*
D03*
Y20450D02*
D03*
X36750Y17900D02*
D03*
X36700Y20300D02*
D03*
Y21050D02*
D03*
X34800Y17950D02*
D03*
X41667Y24250D02*
D03*
X41200Y18150D02*
D03*
X41650Y19300D02*
D03*
Y25300D02*
D03*
X41250Y25900D02*
D03*
X39650Y16950D02*
D03*
X41650Y20250D02*
D03*
X41667Y23250D02*
D03*
X34250Y15100D02*
D03*
X34750Y14000D02*
D03*
X38700D02*
D03*
X41650Y13950D02*
D03*
X42700Y14000D02*
D03*
X40700D02*
D03*
X39700D02*
D03*
X37750D02*
D03*
X36750D02*
D03*
X35750D02*
D03*
X33750D02*
D03*
X29200Y39650D02*
D03*
X29950D02*
D03*
X30550Y49100D02*
D03*
X36250Y48600D02*
D03*
Y47700D02*
D03*
D108*
X45665Y34335D02*
D03*
X50472Y36472D02*
D03*
Y42828D02*
D03*
X55250Y48900D02*
D03*
X42800Y47300D02*
D03*
X46650Y47900D02*
D03*
X36900Y45850D02*
D03*
X35500Y40450D02*
D03*
X38550Y35500D02*
D03*
X45400Y36850D02*
D03*
X33457Y36293D02*
D03*
X35700Y38250D02*
D03*
X38697Y26553D02*
D03*
X30300Y44900D02*
D03*
X45500Y35750D02*
D03*
X22300Y45750D02*
D03*
X23825Y47850D02*
D03*
X24500D02*
D03*
X23150D02*
D03*
D109*
X27650Y48300D02*
D03*
X29055Y48476D02*
D03*
X30250Y48600D02*
D03*
X26905Y48505D02*
D03*
M02*
