G04*
G04 #@! TF.GenerationSoftware,Altium Limited,Altium Designer,20.2.6 (244)*
G04*
G04 Layer_Color=32896*
%FSLAX24Y24*%
%MOIN*%
G70*
G04*
G04 #@! TF.SameCoordinates,B6A14326-B2C9-468C-B45E-93355CF85A49*
G04*
G04*
G04 #@! TF.FilePolarity,Positive*
G04*
G01*
G75*
%ADD10C,0.0100*%
%ADD16C,0.0060*%
%ADD146C,0.0157*%
%ADD147C,0.0050*%
G36*
X21460Y13950D02*
X19900D01*
Y49450D01*
X21460D01*
Y13950D01*
D02*
G37*
G36*
X56500D02*
X54940D01*
Y49450D01*
X56500D01*
Y13950D01*
D02*
G37*
G36*
X38547Y16578D02*
Y16572D01*
X38546Y16565D01*
Y16559D01*
X38546Y16554D01*
Y16549D01*
Y16544D01*
X38546Y16540D01*
Y16536D01*
Y16533D01*
Y16530D01*
Y16528D01*
Y16526D01*
Y16525D01*
Y16525D01*
X38636D01*
X38618Y16501D01*
X38610Y16503D01*
X38602Y16504D01*
X38595Y16505D01*
X38589Y16506D01*
X38583Y16506D01*
X38581Y16506D01*
X38559D01*
X38565Y16496D01*
X38571Y16485D01*
X38578Y16474D01*
X38585Y16465D01*
X38591Y16455D01*
X38598Y16446D01*
X38605Y16438D01*
X38611Y16430D01*
X38618Y16423D01*
X38623Y16416D01*
X38628Y16411D01*
X38633Y16406D01*
X38636Y16402D01*
X38639Y16399D01*
X38641Y16398D01*
X38641Y16397D01*
X38638Y16384D01*
X38627Y16391D01*
X38617Y16399D01*
X38607Y16407D01*
X38598Y16415D01*
X38590Y16423D01*
X38582Y16431D01*
X38575Y16439D01*
X38569Y16447D01*
X38564Y16454D01*
X38559Y16460D01*
X38555Y16466D01*
X38551Y16472D01*
X38549Y16476D01*
X38547Y16479D01*
X38546Y16481D01*
X38546Y16482D01*
Y16470D01*
Y16458D01*
Y16447D01*
X38546Y16438D01*
Y16429D01*
X38546Y16421D01*
Y16414D01*
Y16407D01*
X38547Y16402D01*
Y16397D01*
X38547Y16393D01*
Y16390D01*
X38547Y16388D01*
Y16386D01*
Y16385D01*
Y16384D01*
X38513Y16394D01*
X38513Y16410D01*
X38514Y16425D01*
X38514Y16440D01*
Y16446D01*
Y16453D01*
X38514Y16459D01*
Y16464D01*
Y16468D01*
Y16473D01*
Y16476D01*
Y16478D01*
Y16480D01*
Y16480D01*
X38509Y16474D01*
X38504Y16467D01*
X38499Y16460D01*
X38496Y16455D01*
X38492Y16449D01*
X38491Y16447D01*
X38490Y16445D01*
X38490Y16444D01*
X38489Y16443D01*
X38489Y16442D01*
Y16442D01*
X38488Y16439D01*
X38486Y16436D01*
X38485Y16433D01*
X38484Y16431D01*
X38481Y16428D01*
X38479Y16426D01*
X38477Y16425D01*
X38475Y16424D01*
X38474Y16424D01*
X38474D01*
X38472Y16424D01*
X38471Y16425D01*
X38469Y16427D01*
X38467Y16429D01*
X38466Y16430D01*
X38465Y16432D01*
X38464Y16433D01*
X38464Y16433D01*
X38462Y16437D01*
X38461Y16440D01*
X38459Y16443D01*
X38458Y16446D01*
X38458Y16449D01*
X38458Y16450D01*
Y16452D01*
Y16452D01*
X38458Y16457D01*
X38460Y16461D01*
X38462Y16465D01*
X38464Y16468D01*
X38466Y16471D01*
X38468Y16473D01*
X38470Y16474D01*
X38470Y16475D01*
X38473Y16477D01*
X38475Y16479D01*
X38482Y16482D01*
X38490Y16486D01*
X38497Y16489D01*
X38504Y16491D01*
X38507Y16492D01*
X38509Y16493D01*
X38511Y16494D01*
X38513Y16494D01*
X38514Y16495D01*
X38514D01*
Y16506D01*
X38440D01*
X38472Y16544D01*
X38493Y16525D01*
X38514D01*
Y16558D01*
X38502Y16574D01*
X38547Y16592D01*
X38547Y16578D01*
D02*
G37*
G36*
X38379Y16584D02*
X38379Y16576D01*
Y16569D01*
X38378Y16562D01*
Y16557D01*
X38378Y16551D01*
Y16546D01*
Y16542D01*
X38378Y16538D01*
Y16534D01*
Y16531D01*
Y16529D01*
Y16527D01*
Y16526D01*
Y16525D01*
Y16525D01*
X38445D01*
X38426Y16501D01*
X38418Y16503D01*
X38411Y16504D01*
X38405Y16505D01*
X38399Y16506D01*
X38395Y16506D01*
X38391Y16506D01*
X38388D01*
X38394Y16496D01*
X38400Y16486D01*
X38406Y16476D01*
X38413Y16466D01*
X38420Y16457D01*
X38427Y16448D01*
X38434Y16440D01*
X38441Y16432D01*
X38447Y16425D01*
X38453Y16419D01*
X38458Y16413D01*
X38463Y16409D01*
X38467Y16405D01*
X38470Y16402D01*
X38471Y16400D01*
X38472Y16400D01*
X38465Y16389D01*
X38455Y16396D01*
X38445Y16403D01*
X38436Y16410D01*
X38427Y16418D01*
X38419Y16425D01*
X38412Y16432D01*
X38406Y16440D01*
X38400Y16447D01*
X38395Y16453D01*
X38390Y16459D01*
X38386Y16465D01*
X38383Y16470D01*
X38381Y16473D01*
X38379Y16476D01*
X38378Y16478D01*
X38378Y16479D01*
Y16463D01*
X38378Y16447D01*
X38378Y16432D01*
Y16424D01*
Y16417D01*
X38379Y16411D01*
Y16405D01*
X38379Y16400D01*
Y16395D01*
X38379Y16391D01*
Y16389D01*
Y16387D01*
Y16386D01*
X38345Y16398D01*
X38345Y16402D01*
X38345Y16407D01*
Y16413D01*
X38346Y16420D01*
Y16428D01*
X38346Y16436D01*
Y16452D01*
X38346Y16460D01*
Y16467D01*
Y16474D01*
Y16480D01*
Y16485D01*
Y16487D01*
Y16489D01*
Y16491D01*
Y16492D01*
Y16492D01*
Y16492D01*
X38344Y16482D01*
X38340Y16473D01*
X38336Y16465D01*
X38332Y16457D01*
X38330Y16454D01*
X38329Y16451D01*
X38327Y16449D01*
X38326Y16447D01*
X38325Y16445D01*
X38323Y16444D01*
X38323Y16443D01*
X38323Y16443D01*
X38315Y16435D01*
X38307Y16427D01*
X38298Y16420D01*
X38291Y16413D01*
X38287Y16411D01*
X38283Y16408D01*
X38280Y16406D01*
X38277Y16404D01*
X38275Y16402D01*
X38274Y16401D01*
X38272Y16400D01*
X38272Y16400D01*
X38270Y16403D01*
X38268Y16406D01*
X38263Y16410D01*
X38258Y16413D01*
X38252Y16416D01*
X38248Y16417D01*
X38244Y16418D01*
X38242Y16418D01*
X38241Y16419D01*
X38240D01*
Y16431D01*
X38253Y16436D01*
X38265Y16440D01*
X38271Y16443D01*
X38276Y16446D01*
X38281Y16448D01*
X38285Y16451D01*
X38289Y16453D01*
X38293Y16456D01*
X38295Y16458D01*
X38298Y16459D01*
X38300Y16461D01*
X38302Y16462D01*
X38302Y16463D01*
X38303Y16463D01*
X38312Y16472D01*
X38320Y16480D01*
X38327Y16487D01*
X38334Y16493D01*
X38338Y16499D01*
X38340Y16501D01*
X38342Y16503D01*
X38343Y16504D01*
X38344Y16505D01*
X38344Y16506D01*
X38345Y16506D01*
X38247D01*
X38280Y16546D01*
X38303Y16525D01*
X38346D01*
Y16560D01*
X38334Y16573D01*
X38379Y16592D01*
X38379Y16584D01*
D02*
G37*
G36*
X37998Y16580D02*
X37998Y16570D01*
Y16559D01*
X37998Y16547D01*
Y16535D01*
Y16522D01*
X37997Y16509D01*
Y16495D01*
Y16481D01*
Y16466D01*
X37997Y16437D01*
Y16407D01*
Y16378D01*
X37997Y16364D01*
Y16350D01*
Y16337D01*
Y16324D01*
Y16312D01*
Y16300D01*
Y16289D01*
Y16279D01*
Y16270D01*
Y16262D01*
Y16254D01*
Y16248D01*
Y16244D01*
Y16240D01*
Y16239D01*
Y16238D01*
Y16237D01*
Y16237D01*
X38082D01*
Y16445D01*
X38065Y16462D01*
X38116Y16486D01*
Y16480D01*
X38116Y16472D01*
Y16465D01*
X38116Y16457D01*
Y16448D01*
Y16439D01*
X38115Y16430D01*
Y16420D01*
Y16399D01*
X38115Y16379D01*
Y16358D01*
Y16337D01*
X38115Y16318D01*
Y16308D01*
Y16299D01*
Y16290D01*
Y16282D01*
Y16274D01*
Y16267D01*
Y16260D01*
Y16254D01*
Y16250D01*
Y16245D01*
Y16242D01*
Y16239D01*
Y16238D01*
Y16237D01*
X38200D01*
X38182Y16213D01*
X38174Y16215D01*
X38166Y16216D01*
X38159Y16217D01*
X38153Y16218D01*
X38147Y16218D01*
X38145Y16218D01*
X37792D01*
X37834Y16265D01*
X37864Y16237D01*
X37963D01*
Y16424D01*
X37814D01*
X37853Y16467D01*
X37879Y16443D01*
X37963D01*
Y16551D01*
X37945Y16566D01*
X37998Y16589D01*
Y16580D01*
D02*
G37*
G36*
X38353Y16379D02*
X38583D01*
X38565Y16355D01*
X38557Y16357D01*
X38549Y16358D01*
X38542Y16359D01*
X38535Y16360D01*
X38530Y16360D01*
X38528Y16361D01*
X38297D01*
X38330Y16400D01*
X38353Y16379D01*
D02*
G37*
G36*
X38298Y16333D02*
X38650D01*
X38632Y16309D01*
X38624Y16311D01*
X38616Y16312D01*
X38609Y16313D01*
X38602Y16314D01*
X38597Y16314D01*
X38594Y16314D01*
X38456D01*
Y16230D01*
X38457Y16228D01*
X38458Y16226D01*
X38459Y16226D01*
X38459Y16225D01*
X38466D01*
X38470Y16226D01*
X38475Y16226D01*
X38480Y16227D01*
X38491Y16228D01*
X38497Y16229D01*
X38503Y16230D01*
X38508Y16230D01*
X38512Y16231D01*
X38516Y16232D01*
X38519Y16232D01*
X38521Y16233D01*
X38522D01*
Y16218D01*
X38514Y16215D01*
X38507Y16213D01*
X38501Y16210D01*
X38495Y16207D01*
X38490Y16204D01*
X38486Y16200D01*
X38482Y16197D01*
X38479Y16194D01*
X38476Y16191D01*
X38474Y16188D01*
X38472Y16186D01*
X38471Y16184D01*
X38470Y16181D01*
X38469Y16180D01*
X38468Y16179D01*
Y16179D01*
X38463Y16181D01*
X38458Y16183D01*
X38454Y16184D01*
X38450Y16186D01*
X38447Y16188D01*
X38444Y16189D01*
X38441Y16191D01*
X38439Y16193D01*
X38435Y16195D01*
X38433Y16197D01*
X38432Y16199D01*
X38431Y16199D01*
X38429Y16203D01*
X38427Y16208D01*
X38425Y16213D01*
X38424Y16218D01*
X38424Y16222D01*
X38423Y16225D01*
Y16226D01*
Y16227D01*
Y16228D01*
Y16228D01*
Y16314D01*
X38238D01*
X38274Y16356D01*
X38298Y16333D01*
D02*
G37*
G36*
X38527Y16301D02*
X38535Y16291D01*
X38544Y16281D01*
X38553Y16272D01*
X38562Y16263D01*
X38570Y16255D01*
X38579Y16247D01*
X38587Y16240D01*
X38595Y16234D01*
X38602Y16228D01*
X38608Y16223D01*
X38614Y16219D01*
X38618Y16215D01*
X38622Y16213D01*
X38624Y16211D01*
X38624Y16211D01*
X38624D01*
X38621Y16198D01*
X38610Y16203D01*
X38600Y16209D01*
X38589Y16214D01*
X38579Y16220D01*
X38568Y16226D01*
X38559Y16232D01*
X38550Y16238D01*
X38541Y16244D01*
X38533Y16250D01*
X38525Y16255D01*
X38519Y16260D01*
X38514Y16264D01*
X38509Y16267D01*
X38506Y16270D01*
X38504Y16271D01*
X38503Y16272D01*
X38483Y16277D01*
X38520Y16311D01*
X38527Y16301D01*
D02*
G37*
G36*
X38393Y16289D02*
X38382Y16281D01*
X38372Y16273D01*
X38364Y16267D01*
X38360Y16263D01*
X38357Y16260D01*
X38354Y16257D01*
X38351Y16255D01*
X38349Y16253D01*
X38347Y16251D01*
X38345Y16249D01*
X38344Y16248D01*
X38344Y16247D01*
X38343Y16247D01*
X38336Y16240D01*
X38330Y16233D01*
X38325Y16227D01*
X38320Y16221D01*
X38317Y16217D01*
X38314Y16214D01*
X38312Y16212D01*
X38312Y16211D01*
Y16211D01*
X38309Y16207D01*
X38306Y16204D01*
X38304Y16201D01*
X38302Y16200D01*
X38300Y16199D01*
X38299Y16199D01*
X38298Y16198D01*
X38298D01*
X38296Y16199D01*
X38294Y16200D01*
X38292Y16201D01*
X38290Y16203D01*
X38289Y16205D01*
X38288Y16206D01*
X38288Y16208D01*
X38287Y16208D01*
X38286Y16211D01*
X38285Y16214D01*
X38284Y16217D01*
X38284Y16219D01*
X38283Y16221D01*
X38283Y16222D01*
Y16223D01*
Y16223D01*
X38284Y16228D01*
X38285Y16233D01*
X38287Y16238D01*
X38290Y16243D01*
X38293Y16247D01*
X38295Y16250D01*
X38297Y16252D01*
X38297Y16252D01*
X38297Y16253D01*
X38299Y16254D01*
X38301Y16256D01*
X38305Y16260D01*
X38311Y16263D01*
X38318Y16267D01*
X38326Y16271D01*
X38333Y16276D01*
X38349Y16284D01*
X38357Y16288D01*
X38365Y16291D01*
X38372Y16294D01*
X38378Y16297D01*
X38383Y16299D01*
X38385Y16300D01*
X38387Y16301D01*
X38388Y16302D01*
X38389Y16302D01*
X38390Y16303D01*
X38390D01*
X38393Y16289D01*
D02*
G37*
G36*
X38338Y16107D02*
X38346Y16104D01*
X38354Y16100D01*
X38363Y16098D01*
X38373Y16095D01*
X38382Y16092D01*
X38392Y16090D01*
X38401Y16088D01*
X38410Y16086D01*
X38419Y16084D01*
X38426Y16083D01*
X38433Y16082D01*
X38439Y16081D01*
X38441Y16080D01*
X38443Y16080D01*
X38444Y16080D01*
X38445Y16079D01*
X38446D01*
X38477Y16075D01*
X38492Y16073D01*
X38506Y16071D01*
X38520Y16069D01*
X38534Y16068D01*
X38547Y16066D01*
X38558Y16065D01*
X38569Y16064D01*
X38579Y16063D01*
X38588Y16063D01*
X38592Y16062D01*
X38595Y16062D01*
X38598Y16062D01*
X38601D01*
X38603Y16061D01*
X38605D01*
X38607Y16061D01*
X38609D01*
Y16046D01*
X38591Y16046D01*
X38574Y16047D01*
X38558Y16047D01*
X38542Y16048D01*
X38528Y16048D01*
X38515Y16049D01*
X38503Y16050D01*
X38491Y16051D01*
X38481Y16052D01*
X38472Y16052D01*
X38464Y16053D01*
X38458Y16053D01*
X38453Y16054D01*
X38451Y16054D01*
X38449D01*
X38448Y16054D01*
X38446D01*
X38434Y16055D01*
X38422Y16056D01*
X38397Y16058D01*
X38385Y16059D01*
X38372Y16061D01*
X38361Y16062D01*
X38349Y16063D01*
X38339Y16064D01*
X38330Y16064D01*
X38321Y16065D01*
X38314Y16066D01*
X38311Y16066D01*
X38308Y16066D01*
X38306Y16067D01*
X38302D01*
X38301Y16067D01*
X38300D01*
X38331Y16110D01*
X38338Y16107D01*
D02*
G37*
G36*
X38024D02*
Y16098D01*
X38023Y16088D01*
Y16078D01*
X38024Y16058D01*
X38024Y16048D01*
Y16039D01*
X38024Y16030D01*
Y16022D01*
X38025Y16014D01*
X38025Y16007D01*
Y16002D01*
Y16000D01*
X38025Y15998D01*
Y15997D01*
Y15996D01*
Y15995D01*
Y15995D01*
X38170D01*
X38151Y15971D01*
X38143Y15972D01*
X38136Y15974D01*
X38128Y15974D01*
X38122Y15975D01*
X38117Y15976D01*
X38114Y15976D01*
X38027D01*
X38030Y15961D01*
X38033Y15946D01*
X38037Y15931D01*
X38039Y15924D01*
X38041Y15918D01*
X38043Y15911D01*
X38044Y15906D01*
X38046Y15901D01*
X38048Y15897D01*
X38049Y15893D01*
X38050Y15891D01*
X38050Y15889D01*
X38050Y15889D01*
X38054Y15880D01*
X38058Y15871D01*
X38067Y15854D01*
X38071Y15846D01*
X38076Y15838D01*
X38081Y15831D01*
X38085Y15824D01*
X38089Y15818D01*
X38093Y15812D01*
X38097Y15807D01*
X38100Y15803D01*
X38102Y15800D01*
X38105Y15797D01*
X38106Y15796D01*
X38106Y15795D01*
X38114Y15786D01*
X38121Y15778D01*
X38129Y15770D01*
X38137Y15763D01*
X38145Y15756D01*
X38154Y15749D01*
X38162Y15743D01*
X38169Y15737D01*
X38176Y15732D01*
X38183Y15727D01*
X38189Y15723D01*
X38194Y15720D01*
X38198Y15717D01*
X38201Y15715D01*
X38203Y15714D01*
X38203Y15714D01*
X38204D01*
X38201Y15700D01*
X38187Y15706D01*
X38174Y15713D01*
X38162Y15719D01*
X38151Y15726D01*
X38140Y15732D01*
X38131Y15739D01*
X38122Y15745D01*
X38115Y15750D01*
X38108Y15756D01*
X38102Y15760D01*
X38097Y15765D01*
X38092Y15768D01*
X38089Y15771D01*
X38087Y15774D01*
X38085Y15775D01*
X38085Y15776D01*
X38078Y15784D01*
X38071Y15792D01*
X38064Y15800D01*
X38058Y15808D01*
X38053Y15816D01*
X38048Y15824D01*
X38043Y15831D01*
X38039Y15838D01*
X38035Y15844D01*
X38032Y15850D01*
X38030Y15855D01*
X38027Y15859D01*
X38025Y15863D01*
X38024Y15866D01*
X38024Y15867D01*
X38023Y15868D01*
X38016Y15886D01*
X38009Y15905D01*
X38007Y15915D01*
X38004Y15924D01*
X38002Y15932D01*
X38000Y15940D01*
X37998Y15948D01*
X37997Y15955D01*
X37996Y15961D01*
X37995Y15966D01*
X37994Y15970D01*
X37993Y15973D01*
X37993Y15975D01*
Y15976D01*
X37870D01*
X37871Y15961D01*
X37872Y15947D01*
X37873Y15933D01*
X37874Y15921D01*
X37875Y15909D01*
X37877Y15897D01*
X37878Y15887D01*
X37879Y15877D01*
X37880Y15867D01*
X37881Y15859D01*
X37881Y15851D01*
X37882Y15843D01*
X37883Y15836D01*
X37884Y15830D01*
X37885Y15824D01*
X37886Y15819D01*
X37887Y15814D01*
X37888Y15809D01*
X37888Y15805D01*
X37889Y15802D01*
X37890Y15799D01*
X37890Y15796D01*
X37891Y15793D01*
X37891Y15791D01*
X37892Y15788D01*
X37892Y15786D01*
X37893Y15785D01*
Y15784D01*
X37895Y15779D01*
X37898Y15775D01*
X37900Y15772D01*
X37902Y15769D01*
X37905Y15766D01*
X37907Y15764D01*
X37909Y15763D01*
X37911Y15761D01*
X37915Y15760D01*
X37919Y15759D01*
X37921D01*
X37925Y15760D01*
X37929Y15760D01*
X37933Y15761D01*
X37938Y15762D01*
X37949Y15765D01*
X37959Y15767D01*
X37965Y15769D01*
X37969Y15770D01*
X37974Y15771D01*
X37978Y15772D01*
X37981Y15773D01*
X37983Y15773D01*
X37984Y15774D01*
X37985D01*
X37988Y15758D01*
X37983Y15756D01*
X37978Y15753D01*
X37970Y15749D01*
X37962Y15744D01*
X37956Y15740D01*
X37950Y15735D01*
X37946Y15731D01*
X37943Y15727D01*
X37940Y15723D01*
X37938Y15719D01*
X37937Y15716D01*
X37936Y15714D01*
X37935Y15711D01*
X37935Y15709D01*
Y15708D01*
Y15707D01*
Y15707D01*
X37928Y15708D01*
X37921Y15710D01*
X37914Y15712D01*
X37908Y15714D01*
X37903Y15716D01*
X37898Y15719D01*
X37894Y15721D01*
X37890Y15723D01*
X37887Y15725D01*
X37884Y15727D01*
X37882Y15729D01*
X37880Y15731D01*
X37878Y15732D01*
X37877Y15733D01*
X37877Y15734D01*
X37877Y15734D01*
X37873Y15738D01*
X37871Y15742D01*
X37868Y15747D01*
X37865Y15752D01*
X37861Y15763D01*
X37857Y15773D01*
X37856Y15778D01*
X37855Y15783D01*
X37854Y15787D01*
X37853Y15791D01*
X37852Y15794D01*
X37852Y15796D01*
X37852Y15798D01*
Y15798D01*
X37851Y15802D01*
X37850Y15807D01*
X37849Y15812D01*
X37849Y15818D01*
X37847Y15830D01*
X37846Y15843D01*
X37844Y15857D01*
X37843Y15871D01*
X37842Y15886D01*
X37840Y15900D01*
X37839Y15914D01*
X37838Y15927D01*
X37838Y15933D01*
X37837Y15938D01*
X37837Y15944D01*
X37837Y15949D01*
X37836Y15953D01*
X37836Y15957D01*
Y15961D01*
X37836Y15964D01*
Y15966D01*
X37835Y15968D01*
Y15969D01*
Y15969D01*
X37818Y15985D01*
X37854Y16014D01*
X37869Y15995D01*
X37991D01*
X37991Y16001D01*
X37990Y16007D01*
X37990Y16021D01*
X37989Y16035D01*
X37988Y16041D01*
X37988Y16047D01*
X37988Y16053D01*
X37987Y16058D01*
X37987Y16063D01*
X37987Y16067D01*
Y16071D01*
X37986Y16073D01*
Y16075D01*
Y16075D01*
X37971Y16092D01*
X38024Y16115D01*
X38024Y16107D01*
D02*
G37*
G36*
X38362Y16049D02*
X38366Y16039D01*
X38369Y16029D01*
X38373Y16021D01*
X38376Y16012D01*
X38379Y16004D01*
X38382Y15997D01*
X38386Y15991D01*
X38388Y15985D01*
X38390Y15980D01*
X38393Y15976D01*
X38395Y15972D01*
X38396Y15969D01*
X38397Y15967D01*
X38398Y15965D01*
X38398Y15965D01*
X38449D01*
X38446Y15967D01*
X38444Y15968D01*
X38440Y15972D01*
X38438Y15976D01*
X38436Y15980D01*
X38435Y15983D01*
X38434Y15986D01*
X38434Y15988D01*
Y15988D01*
X38435Y15993D01*
X38436Y15998D01*
X38438Y16002D01*
X38440Y16007D01*
X38443Y16011D01*
X38445Y16013D01*
X38447Y16015D01*
X38447Y16016D01*
X38453Y16022D01*
X38459Y16028D01*
X38466Y16033D01*
X38472Y16038D01*
X38478Y16042D01*
X38480Y16044D01*
X38482Y16045D01*
X38484Y16046D01*
X38486Y16047D01*
X38486Y16048D01*
X38487D01*
X38496Y16041D01*
X38491Y16031D01*
X38487Y16023D01*
X38484Y16016D01*
X38481Y16010D01*
X38480Y16005D01*
X38478Y16002D01*
X38478Y16000D01*
X38477Y15999D01*
Y15999D01*
X38475Y15993D01*
X38474Y15988D01*
X38472Y15982D01*
X38471Y15977D01*
X38470Y15972D01*
X38469Y15968D01*
X38469Y15967D01*
X38469Y15966D01*
Y15965D01*
Y15965D01*
X38538D01*
X38534Y15968D01*
X38530Y15972D01*
X38528Y15975D01*
X38526Y15979D01*
X38525Y15982D01*
X38525Y15984D01*
X38525Y15986D01*
Y15987D01*
X38525Y15990D01*
X38527Y15995D01*
X38529Y15999D01*
X38532Y16003D01*
X38534Y16006D01*
X38537Y16009D01*
X38538Y16011D01*
X38539Y16011D01*
X38541Y16014D01*
X38544Y16017D01*
X38551Y16022D01*
X38558Y16027D01*
X38565Y16031D01*
X38571Y16035D01*
X38574Y16037D01*
X38576Y16038D01*
X38578Y16039D01*
X38580Y16040D01*
X38581Y16041D01*
X38581D01*
X38590Y16034D01*
X38584Y16024D01*
X38578Y16015D01*
X38574Y16007D01*
X38571Y16000D01*
X38570Y15997D01*
X38568Y15995D01*
X38568Y15993D01*
X38567Y15991D01*
X38567Y15990D01*
X38566Y15989D01*
X38566Y15988D01*
Y15988D01*
X38564Y15982D01*
X38563Y15977D01*
X38562Y15973D01*
X38561Y15970D01*
X38560Y15968D01*
X38560Y15966D01*
X38559Y15965D01*
Y15965D01*
X38590D01*
X38592Y15987D01*
X38607D01*
X38608Y15979D01*
X38610Y15972D01*
X38611Y15965D01*
X38614Y15959D01*
X38616Y15953D01*
X38617Y15948D01*
X38619Y15943D01*
X38622Y15939D01*
X38623Y15935D01*
X38625Y15932D01*
X38627Y15929D01*
X38628Y15927D01*
X38629Y15926D01*
X38630Y15925D01*
X38631Y15924D01*
X38631Y15923D01*
X38634Y15919D01*
X38637Y15915D01*
X38639Y15912D01*
X38640Y15909D01*
X38641Y15907D01*
X38641Y15906D01*
X38642Y15905D01*
Y15904D01*
X38641Y15903D01*
X38641Y15901D01*
X38639Y15899D01*
X38636Y15897D01*
X38634Y15895D01*
X38631Y15894D01*
X38628Y15893D01*
X38626Y15893D01*
X38626D01*
X38620Y15892D01*
X38615Y15893D01*
X38610Y15894D01*
X38606Y15896D01*
X38602Y15898D01*
X38600Y15900D01*
X38599Y15901D01*
X38598Y15901D01*
X38596Y15904D01*
X38594Y15906D01*
X38592Y15913D01*
X38590Y15921D01*
X38589Y15928D01*
Y15935D01*
Y15938D01*
Y15941D01*
Y15943D01*
X38590Y15945D01*
Y15946D01*
Y15946D01*
X38309D01*
X38331Y15897D01*
X38321Y15892D01*
X38314Y15900D01*
X38308Y15907D01*
X38301Y15913D01*
X38295Y15919D01*
X38289Y15924D01*
X38283Y15928D01*
X38278Y15931D01*
X38273Y15934D01*
X38269Y15937D01*
X38264Y15938D01*
X38261Y15940D01*
X38258Y15941D01*
X38255Y15942D01*
X38254Y15942D01*
X38253Y15942D01*
X38252D01*
X38291Y15984D01*
X38309Y15965D01*
X38379D01*
X38376Y15969D01*
X38372Y15973D01*
X38364Y15981D01*
X38356Y15990D01*
X38349Y15999D01*
X38346Y16003D01*
X38343Y16007D01*
X38340Y16010D01*
X38338Y16013D01*
X38336Y16015D01*
X38334Y16018D01*
X38333Y16019D01*
X38333Y16019D01*
X38312Y16028D01*
X38359Y16060D01*
X38362Y16049D01*
D02*
G37*
G36*
X38391Y15902D02*
X38589D01*
X38572Y15880D01*
X38554Y15883D01*
X38534D01*
X38530Y15874D01*
X38526Y15864D01*
X38521Y15856D01*
X38517Y15847D01*
X38512Y15839D01*
X38507Y15832D01*
X38502Y15825D01*
X38497Y15818D01*
X38493Y15812D01*
X38489Y15807D01*
X38485Y15803D01*
X38482Y15799D01*
X38479Y15796D01*
X38477Y15794D01*
X38476Y15792D01*
X38475Y15792D01*
X38488Y15783D01*
X38501Y15775D01*
X38515Y15767D01*
X38530Y15760D01*
X38545Y15754D01*
X38559Y15748D01*
X38573Y15743D01*
X38587Y15738D01*
X38600Y15733D01*
X38612Y15730D01*
X38617Y15728D01*
X38623Y15727D01*
X38627Y15725D01*
X38632Y15724D01*
X38636Y15723D01*
X38639Y15722D01*
X38642Y15721D01*
X38645Y15720D01*
X38647Y15720D01*
X38649Y15720D01*
X38650Y15719D01*
X38650D01*
X38647Y15705D01*
X38626Y15708D01*
X38607Y15712D01*
X38588Y15716D01*
X38570Y15722D01*
X38552Y15727D01*
X38537Y15733D01*
X38522Y15739D01*
X38508Y15744D01*
X38502Y15747D01*
X38496Y15750D01*
X38491Y15753D01*
X38486Y15755D01*
X38481Y15758D01*
X38476Y15760D01*
X38472Y15762D01*
X38468Y15765D01*
X38465Y15766D01*
X38462Y15768D01*
X38459Y15770D01*
X38458Y15771D01*
X38456Y15772D01*
X38455Y15773D01*
X38454Y15773D01*
X38454D01*
X38440Y15764D01*
X38426Y15756D01*
X38412Y15748D01*
X38397Y15741D01*
X38383Y15735D01*
X38369Y15730D01*
X38355Y15726D01*
X38343Y15722D01*
X38331Y15719D01*
X38320Y15716D01*
X38310Y15714D01*
X38306Y15713D01*
X38302Y15712D01*
X38298Y15712D01*
X38295Y15711D01*
X38292Y15711D01*
X38290Y15711D01*
X38288Y15710D01*
X38287Y15710D01*
X38286D01*
X38285Y15714D01*
X38283Y15717D01*
X38281Y15720D01*
X38278Y15723D01*
X38272Y15728D01*
X38265Y15732D01*
X38258Y15735D01*
X38255Y15736D01*
X38253Y15737D01*
X38250Y15737D01*
X38249Y15738D01*
X38247Y15739D01*
X38247D01*
Y15753D01*
X38268Y15752D01*
X38287Y15753D01*
X38306Y15754D01*
X38323Y15756D01*
X38339Y15759D01*
X38355Y15762D01*
X38369Y15765D01*
X38381Y15769D01*
X38392Y15773D01*
X38397Y15775D01*
X38402Y15777D01*
X38406Y15778D01*
X38411Y15780D01*
X38414Y15782D01*
X38418Y15784D01*
X38421Y15785D01*
X38423Y15786D01*
X38425Y15787D01*
X38427Y15788D01*
X38429Y15789D01*
X38430Y15790D01*
X38430Y15790D01*
X38430D01*
X38415Y15804D01*
X38408Y15811D01*
X38402Y15818D01*
X38395Y15825D01*
X38389Y15832D01*
X38384Y15839D01*
X38379Y15845D01*
X38374Y15851D01*
X38370Y15856D01*
X38366Y15861D01*
X38364Y15866D01*
X38361Y15869D01*
X38360Y15871D01*
X38359Y15873D01*
X38358Y15874D01*
X38336Y15884D01*
X38372Y15920D01*
X38391Y15902D01*
D02*
G37*
G36*
X38547Y27378D02*
Y27372D01*
X38546Y27365D01*
Y27359D01*
X38546Y27354D01*
Y27349D01*
Y27344D01*
X38546Y27340D01*
Y27336D01*
Y27333D01*
Y27330D01*
Y27328D01*
Y27326D01*
Y27325D01*
Y27325D01*
X38636D01*
X38618Y27301D01*
X38610Y27303D01*
X38602Y27304D01*
X38595Y27305D01*
X38589Y27306D01*
X38583Y27306D01*
X38581Y27306D01*
X38559D01*
X38565Y27296D01*
X38571Y27285D01*
X38578Y27274D01*
X38585Y27265D01*
X38591Y27255D01*
X38598Y27246D01*
X38605Y27238D01*
X38611Y27230D01*
X38618Y27223D01*
X38623Y27216D01*
X38628Y27211D01*
X38633Y27206D01*
X38636Y27202D01*
X38639Y27199D01*
X38641Y27198D01*
X38641Y27197D01*
X38638Y27184D01*
X38627Y27191D01*
X38617Y27199D01*
X38607Y27207D01*
X38598Y27215D01*
X38590Y27223D01*
X38582Y27231D01*
X38575Y27239D01*
X38569Y27247D01*
X38564Y27254D01*
X38559Y27260D01*
X38555Y27266D01*
X38551Y27272D01*
X38549Y27276D01*
X38547Y27279D01*
X38546Y27281D01*
X38546Y27282D01*
Y27270D01*
Y27258D01*
Y27247D01*
X38546Y27238D01*
Y27229D01*
X38546Y27221D01*
Y27214D01*
Y27207D01*
X38547Y27202D01*
Y27197D01*
X38547Y27193D01*
Y27190D01*
X38547Y27188D01*
Y27186D01*
Y27185D01*
Y27184D01*
X38513Y27194D01*
X38513Y27210D01*
X38514Y27225D01*
X38514Y27240D01*
Y27246D01*
Y27253D01*
X38514Y27259D01*
Y27264D01*
Y27268D01*
Y27273D01*
Y27276D01*
Y27278D01*
Y27280D01*
Y27280D01*
X38509Y27274D01*
X38504Y27267D01*
X38499Y27260D01*
X38496Y27255D01*
X38492Y27249D01*
X38491Y27247D01*
X38490Y27245D01*
X38490Y27244D01*
X38489Y27243D01*
X38489Y27242D01*
Y27242D01*
X38488Y27239D01*
X38486Y27236D01*
X38485Y27233D01*
X38484Y27231D01*
X38481Y27228D01*
X38479Y27226D01*
X38477Y27225D01*
X38475Y27224D01*
X38474Y27224D01*
X38474D01*
X38472Y27224D01*
X38471Y27225D01*
X38469Y27227D01*
X38467Y27229D01*
X38466Y27230D01*
X38465Y27232D01*
X38464Y27233D01*
X38464Y27233D01*
X38462Y27237D01*
X38461Y27240D01*
X38459Y27243D01*
X38458Y27246D01*
X38458Y27249D01*
X38458Y27250D01*
Y27252D01*
Y27252D01*
X38458Y27257D01*
X38460Y27261D01*
X38462Y27265D01*
X38464Y27268D01*
X38466Y27271D01*
X38468Y27273D01*
X38470Y27274D01*
X38470Y27275D01*
X38473Y27277D01*
X38475Y27279D01*
X38482Y27282D01*
X38490Y27286D01*
X38497Y27289D01*
X38504Y27291D01*
X38507Y27292D01*
X38509Y27293D01*
X38511Y27294D01*
X38513Y27294D01*
X38514Y27295D01*
X38514D01*
Y27306D01*
X38440D01*
X38472Y27344D01*
X38493Y27325D01*
X38514D01*
Y27358D01*
X38502Y27374D01*
X38547Y27392D01*
X38547Y27378D01*
D02*
G37*
G36*
X38379Y27384D02*
X38379Y27376D01*
Y27369D01*
X38378Y27362D01*
Y27357D01*
X38378Y27351D01*
Y27346D01*
Y27342D01*
X38378Y27338D01*
Y27334D01*
Y27331D01*
Y27329D01*
Y27327D01*
Y27326D01*
Y27325D01*
Y27325D01*
X38445D01*
X38426Y27301D01*
X38418Y27303D01*
X38411Y27304D01*
X38405Y27305D01*
X38399Y27306D01*
X38395Y27306D01*
X38391Y27306D01*
X38388D01*
X38394Y27296D01*
X38400Y27286D01*
X38406Y27276D01*
X38413Y27266D01*
X38420Y27257D01*
X38427Y27248D01*
X38434Y27240D01*
X38441Y27232D01*
X38447Y27225D01*
X38453Y27219D01*
X38458Y27213D01*
X38463Y27209D01*
X38467Y27205D01*
X38470Y27202D01*
X38471Y27200D01*
X38472Y27200D01*
X38465Y27189D01*
X38455Y27196D01*
X38445Y27203D01*
X38436Y27210D01*
X38427Y27218D01*
X38419Y27225D01*
X38412Y27232D01*
X38406Y27240D01*
X38400Y27247D01*
X38395Y27253D01*
X38390Y27259D01*
X38386Y27265D01*
X38383Y27270D01*
X38381Y27273D01*
X38379Y27276D01*
X38378Y27278D01*
X38378Y27279D01*
Y27263D01*
X38378Y27247D01*
X38378Y27232D01*
Y27224D01*
Y27217D01*
X38379Y27211D01*
Y27205D01*
X38379Y27200D01*
Y27195D01*
X38379Y27191D01*
Y27189D01*
Y27187D01*
Y27186D01*
X38345Y27198D01*
X38345Y27202D01*
X38345Y27207D01*
Y27213D01*
X38346Y27220D01*
Y27228D01*
X38346Y27236D01*
Y27252D01*
X38346Y27260D01*
Y27267D01*
Y27274D01*
Y27280D01*
Y27285D01*
Y27287D01*
Y27289D01*
Y27291D01*
Y27292D01*
Y27292D01*
Y27292D01*
X38344Y27282D01*
X38340Y27273D01*
X38336Y27265D01*
X38332Y27257D01*
X38330Y27254D01*
X38329Y27251D01*
X38327Y27249D01*
X38326Y27247D01*
X38325Y27245D01*
X38323Y27244D01*
X38323Y27243D01*
X38323Y27243D01*
X38315Y27235D01*
X38307Y27227D01*
X38298Y27220D01*
X38291Y27213D01*
X38287Y27211D01*
X38283Y27208D01*
X38280Y27206D01*
X38277Y27204D01*
X38275Y27202D01*
X38274Y27201D01*
X38272Y27200D01*
X38272Y27200D01*
X38270Y27203D01*
X38268Y27206D01*
X38263Y27210D01*
X38258Y27213D01*
X38252Y27216D01*
X38248Y27217D01*
X38244Y27218D01*
X38242Y27218D01*
X38241Y27219D01*
X38240D01*
Y27231D01*
X38253Y27236D01*
X38265Y27240D01*
X38271Y27243D01*
X38276Y27246D01*
X38281Y27248D01*
X38285Y27251D01*
X38289Y27253D01*
X38293Y27256D01*
X38295Y27258D01*
X38298Y27259D01*
X38300Y27261D01*
X38302Y27262D01*
X38302Y27263D01*
X38303Y27263D01*
X38312Y27272D01*
X38320Y27280D01*
X38327Y27287D01*
X38334Y27293D01*
X38338Y27299D01*
X38340Y27301D01*
X38342Y27303D01*
X38343Y27304D01*
X38344Y27305D01*
X38344Y27306D01*
X38345Y27306D01*
X38247D01*
X38280Y27346D01*
X38303Y27325D01*
X38346D01*
Y27360D01*
X38334Y27373D01*
X38379Y27392D01*
X38379Y27384D01*
D02*
G37*
G36*
X37998Y27380D02*
X37998Y27370D01*
Y27359D01*
X37998Y27347D01*
Y27335D01*
Y27322D01*
X37997Y27309D01*
Y27295D01*
Y27281D01*
Y27266D01*
X37997Y27237D01*
Y27207D01*
Y27178D01*
X37997Y27164D01*
Y27150D01*
Y27137D01*
Y27124D01*
Y27112D01*
Y27100D01*
Y27089D01*
Y27079D01*
Y27070D01*
Y27062D01*
Y27054D01*
Y27048D01*
Y27044D01*
Y27040D01*
Y27039D01*
Y27038D01*
Y27037D01*
Y27037D01*
X38082D01*
Y27245D01*
X38065Y27262D01*
X38116Y27286D01*
Y27280D01*
X38116Y27272D01*
Y27265D01*
X38116Y27257D01*
Y27248D01*
Y27239D01*
X38115Y27230D01*
Y27220D01*
Y27199D01*
X38115Y27179D01*
Y27158D01*
Y27137D01*
X38115Y27118D01*
Y27108D01*
Y27099D01*
Y27090D01*
Y27082D01*
Y27074D01*
Y27067D01*
Y27060D01*
Y27054D01*
Y27050D01*
Y27045D01*
Y27042D01*
Y27039D01*
Y27038D01*
Y27037D01*
X38200D01*
X38182Y27013D01*
X38174Y27015D01*
X38166Y27016D01*
X38159Y27017D01*
X38153Y27018D01*
X38147Y27018D01*
X38145Y27018D01*
X37792D01*
X37834Y27065D01*
X37864Y27037D01*
X37963D01*
Y27224D01*
X37814D01*
X37853Y27267D01*
X37879Y27243D01*
X37963D01*
Y27351D01*
X37945Y27366D01*
X37998Y27389D01*
Y27380D01*
D02*
G37*
G36*
X38353Y27179D02*
X38583D01*
X38565Y27155D01*
X38557Y27157D01*
X38549Y27158D01*
X38542Y27159D01*
X38535Y27160D01*
X38530Y27160D01*
X38528Y27161D01*
X38297D01*
X38330Y27200D01*
X38353Y27179D01*
D02*
G37*
G36*
X38298Y27133D02*
X38650D01*
X38632Y27109D01*
X38624Y27111D01*
X38616Y27112D01*
X38609Y27113D01*
X38602Y27114D01*
X38597Y27114D01*
X38594Y27114D01*
X38456D01*
Y27030D01*
X38457Y27028D01*
X38458Y27026D01*
X38459Y27026D01*
X38459Y27025D01*
X38466D01*
X38470Y27026D01*
X38475Y27026D01*
X38480Y27027D01*
X38491Y27028D01*
X38497Y27029D01*
X38503Y27030D01*
X38508Y27030D01*
X38512Y27031D01*
X38516Y27032D01*
X38519Y27032D01*
X38521Y27033D01*
X38522D01*
Y27018D01*
X38514Y27016D01*
X38507Y27013D01*
X38501Y27010D01*
X38495Y27007D01*
X38490Y27004D01*
X38486Y27000D01*
X38482Y26997D01*
X38479Y26994D01*
X38476Y26991D01*
X38474Y26988D01*
X38472Y26986D01*
X38471Y26984D01*
X38470Y26981D01*
X38469Y26980D01*
X38468Y26979D01*
Y26979D01*
X38463Y26981D01*
X38458Y26983D01*
X38454Y26984D01*
X38450Y26986D01*
X38447Y26988D01*
X38444Y26989D01*
X38441Y26991D01*
X38439Y26993D01*
X38435Y26995D01*
X38433Y26997D01*
X38432Y26999D01*
X38431Y26999D01*
X38429Y27003D01*
X38427Y27008D01*
X38425Y27013D01*
X38424Y27018D01*
X38424Y27022D01*
X38423Y27025D01*
Y27026D01*
Y27027D01*
Y27028D01*
Y27028D01*
Y27114D01*
X38238D01*
X38274Y27156D01*
X38298Y27133D01*
D02*
G37*
G36*
X38527Y27101D02*
X38535Y27091D01*
X38544Y27081D01*
X38553Y27072D01*
X38562Y27063D01*
X38570Y27055D01*
X38579Y27047D01*
X38587Y27040D01*
X38595Y27034D01*
X38602Y27028D01*
X38608Y27023D01*
X38614Y27019D01*
X38618Y27016D01*
X38622Y27013D01*
X38624Y27011D01*
X38624Y27011D01*
X38624D01*
X38621Y26998D01*
X38610Y27003D01*
X38600Y27009D01*
X38589Y27014D01*
X38579Y27020D01*
X38568Y27026D01*
X38559Y27032D01*
X38550Y27038D01*
X38541Y27044D01*
X38533Y27050D01*
X38525Y27055D01*
X38519Y27060D01*
X38514Y27064D01*
X38509Y27067D01*
X38506Y27070D01*
X38504Y27071D01*
X38503Y27072D01*
X38483Y27077D01*
X38520Y27111D01*
X38527Y27101D01*
D02*
G37*
G36*
X38393Y27089D02*
X38382Y27081D01*
X38372Y27073D01*
X38364Y27067D01*
X38360Y27063D01*
X38357Y27060D01*
X38354Y27057D01*
X38351Y27055D01*
X38349Y27053D01*
X38347Y27051D01*
X38345Y27049D01*
X38344Y27048D01*
X38344Y27047D01*
X38343Y27047D01*
X38336Y27040D01*
X38330Y27033D01*
X38325Y27027D01*
X38320Y27021D01*
X38317Y27017D01*
X38314Y27014D01*
X38312Y27012D01*
X38312Y27011D01*
Y27011D01*
X38309Y27007D01*
X38306Y27004D01*
X38304Y27001D01*
X38302Y27000D01*
X38300Y26999D01*
X38299Y26999D01*
X38298Y26998D01*
X38298D01*
X38296Y26999D01*
X38294Y27000D01*
X38292Y27001D01*
X38290Y27003D01*
X38289Y27005D01*
X38288Y27006D01*
X38288Y27008D01*
X38287Y27008D01*
X38286Y27011D01*
X38285Y27014D01*
X38284Y27017D01*
X38284Y27019D01*
X38283Y27021D01*
X38283Y27022D01*
Y27023D01*
Y27023D01*
X38284Y27028D01*
X38285Y27033D01*
X38287Y27038D01*
X38290Y27043D01*
X38293Y27047D01*
X38295Y27050D01*
X38297Y27052D01*
X38297Y27052D01*
X38297Y27053D01*
X38299Y27054D01*
X38301Y27056D01*
X38305Y27060D01*
X38311Y27063D01*
X38318Y27067D01*
X38326Y27071D01*
X38333Y27076D01*
X38349Y27084D01*
X38357Y27088D01*
X38365Y27091D01*
X38372Y27094D01*
X38378Y27097D01*
X38383Y27099D01*
X38385Y27100D01*
X38387Y27101D01*
X38388Y27102D01*
X38389Y27102D01*
X38390Y27103D01*
X38390D01*
X38393Y27089D01*
D02*
G37*
G36*
X38338Y26907D02*
X38346Y26904D01*
X38354Y26900D01*
X38363Y26898D01*
X38373Y26895D01*
X38382Y26892D01*
X38392Y26890D01*
X38401Y26888D01*
X38410Y26886D01*
X38419Y26884D01*
X38426Y26883D01*
X38433Y26882D01*
X38439Y26881D01*
X38441Y26880D01*
X38443Y26880D01*
X38444Y26880D01*
X38445Y26879D01*
X38446D01*
X38477Y26875D01*
X38492Y26873D01*
X38506Y26871D01*
X38520Y26869D01*
X38534Y26868D01*
X38547Y26866D01*
X38558Y26865D01*
X38569Y26864D01*
X38579Y26863D01*
X38588Y26863D01*
X38592Y26862D01*
X38595Y26862D01*
X38598Y26862D01*
X38601D01*
X38603Y26861D01*
X38605D01*
X38607Y26861D01*
X38609D01*
Y26846D01*
X38591Y26846D01*
X38574Y26847D01*
X38558Y26847D01*
X38542Y26848D01*
X38528Y26848D01*
X38515Y26849D01*
X38503Y26850D01*
X38491Y26851D01*
X38481Y26852D01*
X38472Y26852D01*
X38464Y26853D01*
X38458Y26853D01*
X38453Y26854D01*
X38451Y26854D01*
X38449D01*
X38448Y26854D01*
X38446D01*
X38434Y26855D01*
X38422Y26856D01*
X38397Y26858D01*
X38385Y26859D01*
X38372Y26861D01*
X38361Y26862D01*
X38349Y26863D01*
X38339Y26864D01*
X38330Y26864D01*
X38321Y26865D01*
X38314Y26866D01*
X38311Y26866D01*
X38308Y26866D01*
X38306Y26867D01*
X38302D01*
X38301Y26867D01*
X38300D01*
X38331Y26910D01*
X38338Y26907D01*
D02*
G37*
G36*
X38024D02*
Y26898D01*
X38023Y26888D01*
Y26878D01*
X38024Y26858D01*
X38024Y26848D01*
Y26839D01*
X38024Y26830D01*
Y26822D01*
X38025Y26814D01*
X38025Y26807D01*
Y26802D01*
Y26800D01*
X38025Y26798D01*
Y26797D01*
Y26796D01*
Y26795D01*
Y26795D01*
X38170D01*
X38151Y26771D01*
X38143Y26772D01*
X38136Y26774D01*
X38128Y26774D01*
X38122Y26775D01*
X38117Y26776D01*
X38114Y26776D01*
X38027D01*
X38030Y26761D01*
X38033Y26746D01*
X38037Y26731D01*
X38039Y26724D01*
X38041Y26718D01*
X38043Y26711D01*
X38044Y26706D01*
X38046Y26701D01*
X38048Y26697D01*
X38049Y26693D01*
X38050Y26691D01*
X38050Y26689D01*
X38050Y26689D01*
X38054Y26680D01*
X38058Y26671D01*
X38067Y26654D01*
X38071Y26646D01*
X38076Y26638D01*
X38081Y26631D01*
X38085Y26624D01*
X38089Y26618D01*
X38093Y26612D01*
X38097Y26607D01*
X38100Y26603D01*
X38102Y26600D01*
X38105Y26597D01*
X38106Y26596D01*
X38106Y26595D01*
X38114Y26586D01*
X38121Y26578D01*
X38129Y26570D01*
X38137Y26563D01*
X38145Y26556D01*
X38154Y26549D01*
X38162Y26543D01*
X38169Y26537D01*
X38176Y26532D01*
X38183Y26527D01*
X38189Y26523D01*
X38194Y26520D01*
X38198Y26517D01*
X38201Y26515D01*
X38203Y26514D01*
X38203Y26514D01*
X38204D01*
X38201Y26500D01*
X38187Y26506D01*
X38174Y26513D01*
X38162Y26519D01*
X38151Y26526D01*
X38140Y26532D01*
X38131Y26539D01*
X38122Y26545D01*
X38115Y26550D01*
X38108Y26556D01*
X38102Y26560D01*
X38097Y26565D01*
X38092Y26568D01*
X38089Y26571D01*
X38087Y26574D01*
X38085Y26575D01*
X38085Y26576D01*
X38078Y26584D01*
X38071Y26592D01*
X38064Y26600D01*
X38058Y26608D01*
X38053Y26616D01*
X38048Y26624D01*
X38043Y26631D01*
X38039Y26638D01*
X38035Y26644D01*
X38032Y26650D01*
X38030Y26655D01*
X38027Y26659D01*
X38025Y26663D01*
X38024Y26666D01*
X38024Y26667D01*
X38023Y26668D01*
X38016Y26686D01*
X38009Y26705D01*
X38007Y26715D01*
X38004Y26724D01*
X38002Y26732D01*
X38000Y26740D01*
X37998Y26748D01*
X37997Y26755D01*
X37996Y26761D01*
X37995Y26766D01*
X37994Y26770D01*
X37993Y26773D01*
X37993Y26775D01*
Y26776D01*
X37870D01*
X37871Y26761D01*
X37872Y26747D01*
X37873Y26733D01*
X37874Y26721D01*
X37875Y26709D01*
X37877Y26697D01*
X37878Y26687D01*
X37879Y26677D01*
X37880Y26667D01*
X37881Y26659D01*
X37881Y26651D01*
X37882Y26643D01*
X37883Y26636D01*
X37884Y26630D01*
X37885Y26624D01*
X37886Y26619D01*
X37887Y26614D01*
X37888Y26609D01*
X37888Y26605D01*
X37889Y26602D01*
X37890Y26599D01*
X37890Y26596D01*
X37891Y26593D01*
X37891Y26591D01*
X37892Y26588D01*
X37892Y26586D01*
X37893Y26585D01*
Y26584D01*
X37895Y26579D01*
X37898Y26575D01*
X37900Y26572D01*
X37902Y26569D01*
X37905Y26566D01*
X37907Y26564D01*
X37909Y26563D01*
X37911Y26561D01*
X37915Y26560D01*
X37919Y26559D01*
X37921D01*
X37925Y26560D01*
X37929Y26560D01*
X37933Y26561D01*
X37938Y26562D01*
X37949Y26565D01*
X37959Y26567D01*
X37965Y26569D01*
X37969Y26570D01*
X37974Y26571D01*
X37978Y26572D01*
X37981Y26573D01*
X37983Y26573D01*
X37984Y26574D01*
X37985D01*
X37988Y26558D01*
X37983Y26556D01*
X37978Y26553D01*
X37970Y26549D01*
X37962Y26544D01*
X37956Y26540D01*
X37950Y26535D01*
X37946Y26531D01*
X37943Y26527D01*
X37940Y26523D01*
X37938Y26519D01*
X37937Y26516D01*
X37936Y26514D01*
X37935Y26511D01*
X37935Y26509D01*
Y26508D01*
Y26507D01*
Y26507D01*
X37928Y26508D01*
X37921Y26510D01*
X37914Y26512D01*
X37908Y26514D01*
X37903Y26516D01*
X37898Y26519D01*
X37894Y26521D01*
X37890Y26523D01*
X37887Y26525D01*
X37884Y26527D01*
X37882Y26529D01*
X37880Y26531D01*
X37878Y26532D01*
X37877Y26533D01*
X37877Y26534D01*
X37877Y26534D01*
X37873Y26538D01*
X37871Y26542D01*
X37868Y26547D01*
X37865Y26552D01*
X37861Y26563D01*
X37857Y26573D01*
X37856Y26578D01*
X37855Y26583D01*
X37854Y26587D01*
X37853Y26591D01*
X37852Y26594D01*
X37852Y26596D01*
X37852Y26598D01*
Y26598D01*
X37851Y26602D01*
X37850Y26607D01*
X37849Y26612D01*
X37849Y26618D01*
X37847Y26630D01*
X37846Y26643D01*
X37844Y26657D01*
X37843Y26671D01*
X37842Y26686D01*
X37840Y26700D01*
X37839Y26714D01*
X37838Y26727D01*
X37838Y26733D01*
X37837Y26738D01*
X37837Y26744D01*
X37837Y26749D01*
X37836Y26753D01*
X37836Y26757D01*
Y26761D01*
X37836Y26764D01*
Y26766D01*
X37835Y26768D01*
Y26769D01*
Y26769D01*
X37818Y26785D01*
X37854Y26814D01*
X37869Y26795D01*
X37991D01*
X37991Y26801D01*
X37990Y26807D01*
X37990Y26821D01*
X37989Y26835D01*
X37988Y26841D01*
X37988Y26847D01*
X37988Y26853D01*
X37987Y26858D01*
X37987Y26863D01*
X37987Y26867D01*
Y26871D01*
X37986Y26873D01*
Y26875D01*
Y26875D01*
X37971Y26892D01*
X38024Y26915D01*
X38024Y26907D01*
D02*
G37*
G36*
X38362Y26849D02*
X38366Y26839D01*
X38369Y26829D01*
X38373Y26821D01*
X38376Y26812D01*
X38379Y26804D01*
X38382Y26797D01*
X38386Y26791D01*
X38388Y26785D01*
X38390Y26780D01*
X38393Y26776D01*
X38395Y26772D01*
X38396Y26769D01*
X38397Y26767D01*
X38398Y26765D01*
X38398Y26765D01*
X38449D01*
X38446Y26767D01*
X38444Y26768D01*
X38440Y26772D01*
X38438Y26776D01*
X38436Y26780D01*
X38435Y26783D01*
X38434Y26786D01*
X38434Y26788D01*
Y26788D01*
X38435Y26793D01*
X38436Y26798D01*
X38438Y26802D01*
X38440Y26807D01*
X38443Y26811D01*
X38445Y26813D01*
X38447Y26815D01*
X38447Y26816D01*
X38453Y26822D01*
X38459Y26828D01*
X38466Y26833D01*
X38472Y26838D01*
X38478Y26842D01*
X38480Y26844D01*
X38482Y26845D01*
X38484Y26846D01*
X38486Y26847D01*
X38486Y26848D01*
X38487D01*
X38496Y26841D01*
X38491Y26831D01*
X38487Y26823D01*
X38484Y26816D01*
X38481Y26810D01*
X38480Y26805D01*
X38478Y26802D01*
X38478Y26800D01*
X38477Y26799D01*
Y26799D01*
X38475Y26793D01*
X38474Y26788D01*
X38472Y26782D01*
X38471Y26777D01*
X38470Y26772D01*
X38469Y26768D01*
X38469Y26767D01*
X38469Y26766D01*
Y26765D01*
Y26765D01*
X38538D01*
X38534Y26768D01*
X38530Y26772D01*
X38528Y26775D01*
X38526Y26779D01*
X38525Y26782D01*
X38525Y26784D01*
X38525Y26786D01*
Y26787D01*
X38525Y26790D01*
X38527Y26795D01*
X38529Y26799D01*
X38532Y26803D01*
X38534Y26806D01*
X38537Y26809D01*
X38538Y26811D01*
X38539Y26811D01*
X38541Y26814D01*
X38544Y26817D01*
X38551Y26822D01*
X38558Y26827D01*
X38565Y26831D01*
X38571Y26835D01*
X38574Y26837D01*
X38576Y26838D01*
X38578Y26839D01*
X38580Y26840D01*
X38581Y26841D01*
X38581D01*
X38590Y26834D01*
X38584Y26824D01*
X38578Y26815D01*
X38574Y26807D01*
X38571Y26800D01*
X38570Y26797D01*
X38568Y26795D01*
X38568Y26793D01*
X38567Y26791D01*
X38567Y26790D01*
X38566Y26789D01*
X38566Y26788D01*
Y26788D01*
X38564Y26782D01*
X38563Y26777D01*
X38562Y26773D01*
X38561Y26770D01*
X38560Y26768D01*
X38560Y26766D01*
X38559Y26765D01*
Y26765D01*
X38590D01*
X38592Y26787D01*
X38607D01*
X38608Y26779D01*
X38610Y26772D01*
X38611Y26765D01*
X38614Y26759D01*
X38616Y26753D01*
X38617Y26748D01*
X38619Y26743D01*
X38622Y26739D01*
X38623Y26735D01*
X38625Y26732D01*
X38627Y26729D01*
X38628Y26727D01*
X38629Y26726D01*
X38630Y26725D01*
X38631Y26724D01*
X38631Y26723D01*
X38634Y26719D01*
X38637Y26715D01*
X38639Y26712D01*
X38640Y26709D01*
X38641Y26707D01*
X38641Y26706D01*
X38642Y26705D01*
Y26704D01*
X38641Y26703D01*
X38641Y26701D01*
X38639Y26699D01*
X38636Y26697D01*
X38634Y26695D01*
X38631Y26694D01*
X38628Y26693D01*
X38626Y26693D01*
X38626D01*
X38620Y26692D01*
X38615Y26693D01*
X38610Y26694D01*
X38606Y26696D01*
X38602Y26698D01*
X38600Y26700D01*
X38599Y26701D01*
X38598Y26701D01*
X38596Y26704D01*
X38594Y26706D01*
X38592Y26713D01*
X38590Y26721D01*
X38589Y26728D01*
Y26735D01*
Y26738D01*
Y26741D01*
Y26743D01*
X38590Y26745D01*
Y26746D01*
Y26746D01*
X38309D01*
X38331Y26697D01*
X38321Y26692D01*
X38314Y26700D01*
X38308Y26707D01*
X38301Y26713D01*
X38295Y26719D01*
X38289Y26724D01*
X38283Y26728D01*
X38278Y26731D01*
X38273Y26734D01*
X38269Y26737D01*
X38264Y26738D01*
X38261Y26740D01*
X38258Y26741D01*
X38255Y26742D01*
X38254Y26742D01*
X38253Y26742D01*
X38252D01*
X38291Y26784D01*
X38309Y26765D01*
X38379D01*
X38376Y26769D01*
X38372Y26773D01*
X38364Y26781D01*
X38356Y26790D01*
X38349Y26799D01*
X38346Y26803D01*
X38343Y26807D01*
X38340Y26810D01*
X38338Y26813D01*
X38336Y26815D01*
X38334Y26818D01*
X38333Y26819D01*
X38333Y26819D01*
X38312Y26828D01*
X38359Y26860D01*
X38362Y26849D01*
D02*
G37*
G36*
X38391Y26702D02*
X38589D01*
X38572Y26680D01*
X38554Y26683D01*
X38534D01*
X38530Y26674D01*
X38526Y26664D01*
X38521Y26656D01*
X38517Y26647D01*
X38512Y26639D01*
X38507Y26632D01*
X38502Y26625D01*
X38497Y26618D01*
X38493Y26612D01*
X38489Y26607D01*
X38485Y26603D01*
X38482Y26599D01*
X38479Y26596D01*
X38477Y26594D01*
X38476Y26592D01*
X38475Y26592D01*
X38488Y26583D01*
X38501Y26575D01*
X38515Y26567D01*
X38530Y26560D01*
X38545Y26554D01*
X38559Y26548D01*
X38573Y26543D01*
X38587Y26538D01*
X38600Y26533D01*
X38612Y26530D01*
X38617Y26528D01*
X38623Y26527D01*
X38627Y26525D01*
X38632Y26524D01*
X38636Y26523D01*
X38639Y26522D01*
X38642Y26521D01*
X38645Y26520D01*
X38647Y26520D01*
X38649Y26520D01*
X38650Y26519D01*
X38650D01*
X38647Y26505D01*
X38626Y26508D01*
X38607Y26512D01*
X38588Y26516D01*
X38570Y26522D01*
X38552Y26527D01*
X38537Y26533D01*
X38522Y26539D01*
X38508Y26544D01*
X38502Y26547D01*
X38496Y26550D01*
X38491Y26553D01*
X38486Y26555D01*
X38481Y26558D01*
X38476Y26560D01*
X38472Y26562D01*
X38468Y26565D01*
X38465Y26566D01*
X38462Y26568D01*
X38459Y26570D01*
X38458Y26571D01*
X38456Y26572D01*
X38455Y26573D01*
X38454Y26573D01*
X38454D01*
X38440Y26564D01*
X38426Y26556D01*
X38412Y26548D01*
X38397Y26541D01*
X38383Y26535D01*
X38369Y26530D01*
X38355Y26526D01*
X38343Y26522D01*
X38331Y26519D01*
X38320Y26516D01*
X38310Y26514D01*
X38306Y26513D01*
X38302Y26512D01*
X38298Y26512D01*
X38295Y26511D01*
X38292Y26511D01*
X38290Y26511D01*
X38288Y26510D01*
X38287Y26510D01*
X38286D01*
X38285Y26514D01*
X38283Y26517D01*
X38281Y26520D01*
X38278Y26523D01*
X38272Y26528D01*
X38265Y26532D01*
X38258Y26535D01*
X38255Y26536D01*
X38253Y26537D01*
X38250Y26537D01*
X38249Y26538D01*
X38247Y26539D01*
X38247D01*
Y26553D01*
X38268Y26552D01*
X38287Y26553D01*
X38306Y26554D01*
X38323Y26556D01*
X38339Y26559D01*
X38355Y26562D01*
X38369Y26565D01*
X38381Y26569D01*
X38392Y26573D01*
X38397Y26575D01*
X38402Y26577D01*
X38406Y26578D01*
X38411Y26580D01*
X38414Y26582D01*
X38418Y26584D01*
X38421Y26585D01*
X38423Y26586D01*
X38425Y26587D01*
X38427Y26588D01*
X38429Y26589D01*
X38430Y26590D01*
X38430Y26590D01*
X38430D01*
X38415Y26604D01*
X38408Y26611D01*
X38402Y26618D01*
X38395Y26625D01*
X38389Y26632D01*
X38384Y26639D01*
X38379Y26645D01*
X38374Y26651D01*
X38370Y26656D01*
X38366Y26661D01*
X38364Y26666D01*
X38361Y26669D01*
X38360Y26671D01*
X38359Y26673D01*
X38358Y26674D01*
X38336Y26684D01*
X38372Y26720D01*
X38391Y26702D01*
D02*
G37*
G36*
X54141Y46961D02*
X54802D01*
Y46879D01*
X54125Y46454D01*
X54078D01*
Y46839D01*
X53903D01*
X53891Y46838D01*
X53882Y46837D01*
X53874Y46834D01*
X53867Y46831D01*
X53862Y46828D01*
X53859Y46825D01*
X53857Y46824D01*
X53856Y46823D01*
X53852Y46816D01*
X53849Y46808D01*
X53845Y46789D01*
X53844Y46780D01*
X53843Y46773D01*
Y46689D01*
X53780D01*
Y47098D01*
X53843D01*
Y47031D01*
X53844Y47019D01*
X53845Y47008D01*
X53847Y46999D01*
X53850Y46992D01*
X53852Y46986D01*
X53854Y46981D01*
X53856Y46979D01*
Y46978D01*
X53862Y46972D01*
X53869Y46968D01*
X53877Y46965D01*
X53884Y46963D01*
X53891Y46962D01*
X53897Y46961D01*
X53902D01*
X53903D01*
X54078D01*
Y47116D01*
X54141D01*
Y46961D01*
D02*
G37*
G36*
X53878Y45951D02*
X53891Y45947D01*
X53903Y45942D01*
X53913Y45936D01*
X53921Y45931D01*
X53928Y45926D01*
X53932Y45922D01*
X53933Y45921D01*
X53943Y45909D01*
X53951Y45897D01*
X53957Y45885D01*
X53960Y45874D01*
X53962Y45864D01*
X53964Y45857D01*
Y45850D01*
X53963Y45835D01*
X53960Y45823D01*
X53956Y45810D01*
X53951Y45800D01*
X53945Y45792D01*
X53941Y45785D01*
X53938Y45781D01*
X53937Y45780D01*
X53927Y45770D01*
X53914Y45762D01*
X53902Y45757D01*
X53890Y45754D01*
X53880Y45752D01*
X53870Y45750D01*
X53865D01*
X53864D01*
X53863D01*
X53846Y45751D01*
X53832Y45755D01*
X53819Y45759D01*
X53809Y45765D01*
X53801Y45771D01*
X53794Y45776D01*
X53790Y45779D01*
X53789Y45780D01*
X53781Y45792D01*
X53775Y45804D01*
X53769Y45815D01*
X53766Y45826D01*
X53764Y45835D01*
X53763Y45844D01*
Y45850D01*
X53764Y45864D01*
X53767Y45878D01*
X53771Y45890D01*
X53777Y45901D01*
X53782Y45909D01*
X53786Y45915D01*
X53789Y45920D01*
X53790Y45921D01*
X53802Y45931D01*
X53813Y45938D01*
X53826Y45945D01*
X53837Y45948D01*
X53847Y45950D01*
X53856Y45952D01*
X53861D01*
X53863D01*
X53878Y45951D01*
D02*
G37*
G36*
X54332Y45591D02*
X54373Y45587D01*
X54412Y45583D01*
X54448Y45578D01*
X54481Y45572D01*
X54513Y45564D01*
X54541Y45556D01*
X54566Y45548D01*
X54589Y45540D01*
X54608Y45532D01*
X54625Y45525D01*
X54640Y45518D01*
X54650Y45513D01*
X54658Y45508D01*
X54663Y45505D01*
X54665Y45504D01*
X54689Y45488D01*
X54710Y45470D01*
X54728Y45452D01*
X54744Y45433D01*
X54757Y45415D01*
X54769Y45396D01*
X54778Y45378D01*
X54785Y45361D01*
X54791Y45345D01*
X54795Y45330D01*
X54798Y45317D01*
X54800Y45305D01*
X54801Y45296D01*
X54802Y45289D01*
Y45282D01*
X54800Y45256D01*
X54796Y45232D01*
X54789Y45210D01*
X54779Y45188D01*
X54769Y45168D01*
X54756Y45149D01*
X54744Y45132D01*
X54730Y45116D01*
X54717Y45102D01*
X54704Y45090D01*
X54692Y45079D01*
X54681Y45071D01*
X54672Y45065D01*
X54665Y45060D01*
X54661Y45057D01*
X54658Y45056D01*
X54630Y45041D01*
X54601Y45027D01*
X54571Y45016D01*
X54541Y45007D01*
X54510Y44998D01*
X54478Y44991D01*
X54448Y44986D01*
X54420Y44981D01*
X54393Y44977D01*
X54368Y44974D01*
X54345Y44973D01*
X54325Y44971D01*
X54310D01*
X54303Y44970D01*
X54298D01*
X54294D01*
X54291D01*
X54289D01*
X54288D01*
X54243Y44971D01*
X54200Y44974D01*
X54161Y44978D01*
X54124Y44984D01*
X54090Y44991D01*
X54059Y44998D01*
X54030Y45007D01*
X54005Y45015D01*
X53981Y45022D01*
X53961Y45031D01*
X53944Y45038D01*
X53930Y45045D01*
X53919Y45050D01*
X53911Y45054D01*
X53907Y45058D01*
X53905Y45059D01*
X53881Y45076D01*
X53860Y45094D01*
X53841Y45113D01*
X53826Y45132D01*
X53813Y45150D01*
X53802Y45169D01*
X53792Y45187D01*
X53785Y45204D01*
X53780Y45220D01*
X53776Y45236D01*
X53773Y45248D01*
X53770Y45261D01*
X53769Y45270D01*
X53768Y45276D01*
Y45282D01*
X53770Y45307D01*
X53775Y45331D01*
X53781Y45353D01*
X53790Y45374D01*
X53801Y45394D01*
X53812Y45413D01*
X53826Y45429D01*
X53838Y45444D01*
X53852Y45457D01*
X53864Y45470D01*
X53876Y45480D01*
X53886Y45489D01*
X53895Y45496D01*
X53902Y45500D01*
X53907Y45503D01*
X53908Y45504D01*
X53935Y45520D01*
X53964Y45533D01*
X53995Y45545D01*
X54027Y45555D01*
X54059Y45564D01*
X54090Y45571D01*
X54121Y45576D01*
X54150Y45581D01*
X54179Y45584D01*
X54205Y45587D01*
X54228Y45589D01*
X54248Y45591D01*
X54265D01*
X54271Y45592D01*
X54277D01*
X54282D01*
X54285D01*
X54287D01*
X54288D01*
X54332Y45591D01*
D02*
G37*
G36*
X54791Y44638D02*
X54727D01*
Y44669D01*
X54726Y44679D01*
X54725Y44686D01*
X54723Y44691D01*
X54720Y44696D01*
X54717Y44700D01*
X54715Y44702D01*
X54714Y44704D01*
X54713D01*
X54707Y44706D01*
X54700Y44707D01*
X54687D01*
X54680Y44705D01*
X54675Y44704D01*
X54671Y44703D01*
X54670D01*
X54060Y44535D01*
X54683Y44386D01*
X54697Y44385D01*
X54707D01*
X54714Y44386D01*
X54716Y44387D01*
X54720Y44390D01*
X54722Y44393D01*
X54726Y44402D01*
X54727Y44409D01*
Y44451D01*
X54791D01*
Y44174D01*
X54727D01*
Y44216D01*
X54726Y44224D01*
X54725Y44230D01*
X54719Y44240D01*
X54714Y44247D01*
X54712Y44249D01*
X54710D01*
X54704Y44253D01*
X54696Y44256D01*
X54678Y44261D01*
X54670Y44263D01*
X54664Y44264D01*
X54659Y44265D01*
X54657D01*
X53780Y44480D01*
Y44538D01*
X54665Y44778D01*
X54676Y44782D01*
X54687Y44786D01*
X54695Y44790D01*
X54701Y44793D01*
X54706Y44797D01*
X54709Y44800D01*
X54712Y44802D01*
X54713Y44803D01*
X54718Y44809D01*
X54721Y44815D01*
X54725Y44825D01*
X54726Y44830D01*
X54727Y44833D01*
Y44875D01*
X54791D01*
Y44638D01*
D02*
G37*
G36*
X53878Y43319D02*
X53879Y43309D01*
X53881Y43301D01*
X53883Y43296D01*
X53884Y43295D01*
X53887Y43293D01*
X53892Y43292D01*
X53902Y43290D01*
X53907Y43289D01*
X53910D01*
X53913D01*
X53914D01*
X54836D01*
X54828Y43270D01*
X54821Y43255D01*
X54815Y43241D01*
X54809Y43230D01*
X54805Y43221D01*
X54803Y43215D01*
X54802Y43211D01*
X54801Y43210D01*
X54795Y43191D01*
X54793Y43182D01*
X54792Y43174D01*
Y43167D01*
X54791Y43162D01*
Y43081D01*
X54727D01*
Y43148D01*
X54725Y43155D01*
X54723Y43160D01*
X54721Y43164D01*
X54717Y43168D01*
X54716Y43170D01*
X54715D01*
X54709Y43173D01*
X54703Y43175D01*
X54689Y43178D01*
X54682Y43179D01*
X54677D01*
X54673D01*
X54672D01*
X54376D01*
X54384Y43178D01*
X54390Y43175D01*
X54401Y43168D01*
X54412Y43159D01*
X54420Y43148D01*
X54426Y43138D01*
X54431Y43130D01*
X54435Y43123D01*
X54436Y43122D01*
Y43121D01*
X54443Y43103D01*
X54448Y43084D01*
X54452Y43066D01*
X54454Y43052D01*
X54456Y43039D01*
X54458Y43029D01*
Y43020D01*
X54456Y43000D01*
X54453Y42979D01*
X54449Y42959D01*
X54443Y42940D01*
X54436Y42923D01*
X54428Y42907D01*
X54419Y42891D01*
X54411Y42877D01*
X54402Y42864D01*
X54394Y42854D01*
X54386Y42843D01*
X54378Y42835D01*
X54372Y42829D01*
X54368Y42825D01*
X54365Y42822D01*
X54364Y42820D01*
X54346Y42806D01*
X54326Y42792D01*
X54307Y42781D01*
X54286Y42772D01*
X54265Y42763D01*
X54244Y42757D01*
X54224Y42751D01*
X54205Y42747D01*
X54187Y42743D01*
X54170Y42740D01*
X54155Y42739D01*
X54142Y42737D01*
X54131D01*
X54123Y42736D01*
X54118D01*
X54116D01*
X54086Y42737D01*
X54058Y42739D01*
X54031Y42743D01*
X54006Y42749D01*
X53984Y42754D01*
X53963Y42761D01*
X53943Y42768D01*
X53927Y42776D01*
X53912Y42783D01*
X53899Y42789D01*
X53887Y42797D01*
X53879Y42802D01*
X53871Y42807D01*
X53866Y42811D01*
X53863Y42813D01*
X53862Y42814D01*
X53846Y42830D01*
X53833Y42845D01*
X53821Y42861D01*
X53811Y42877D01*
X53803Y42893D01*
X53796Y42909D01*
X53790Y42924D01*
X53786Y42938D01*
X53782Y42952D01*
X53779Y42964D01*
X53778Y42975D01*
X53776Y42984D01*
Y42992D01*
X53775Y42997D01*
Y43003D01*
X53776Y43028D01*
X53780Y43051D01*
X53785Y43071D01*
X53791Y43089D01*
X53798Y43104D01*
X53803Y43114D01*
X53805Y43118D01*
X53807Y43121D01*
X53808Y43122D01*
Y43123D01*
X53814Y43133D01*
X53821Y43141D01*
X53835Y43154D01*
X53849Y43164D01*
X53861Y43170D01*
X53872Y43174D01*
X53881Y43178D01*
X53887Y43179D01*
X53780D01*
Y43208D01*
X53786Y43221D01*
X53791Y43234D01*
X53795Y43245D01*
X53800Y43256D01*
X53803Y43263D01*
X53805Y43269D01*
X53806Y43273D01*
Y43274D01*
X53809Y43285D01*
X53811Y43294D01*
X53812Y43304D01*
X53813Y43311D01*
X53814Y43316D01*
Y43375D01*
X53878D01*
Y43319D01*
D02*
G37*
G36*
X54377Y42599D02*
X54391Y42595D01*
X54403Y42589D01*
X54414Y42582D01*
X54422Y42575D01*
X54428Y42570D01*
X54433Y42565D01*
X54434Y42563D01*
X54444Y42549D01*
X54451Y42532D01*
X54456Y42517D01*
X54460Y42500D01*
X54463Y42486D01*
X54464Y42475D01*
Y42464D01*
X54463Y42451D01*
X54462Y42437D01*
X54455Y42411D01*
X54447Y42386D01*
X54438Y42365D01*
X54433Y42355D01*
X54428Y42347D01*
X54424Y42340D01*
X54420Y42333D01*
X54417Y42328D01*
X54414Y42324D01*
X54413Y42322D01*
X54412Y42321D01*
X54391Y42297D01*
X54369Y42276D01*
X54345Y42259D01*
X54323Y42246D01*
X54303Y42235D01*
X54295Y42231D01*
X54288Y42228D01*
X54282Y42225D01*
X54277Y42223D01*
X54274Y42222D01*
X54481D01*
Y42185D01*
X54477Y42173D01*
X54473Y42159D01*
X54469Y42145D01*
X54467Y42131D01*
X54464Y42119D01*
X54462Y42109D01*
Y42105D01*
X54461Y42102D01*
Y42100D01*
X54458Y42080D01*
X54455Y42063D01*
X54454Y42047D01*
X54453Y42034D01*
X54452Y42022D01*
Y41945D01*
X54389D01*
Y42080D01*
X54387Y42087D01*
X54386Y42092D01*
X54384Y42096D01*
X54382Y42099D01*
X54380Y42101D01*
X54378Y42103D01*
X54370Y42108D01*
X54362Y42111D01*
X54358Y42112D01*
X54354D01*
X54352D01*
X54351D01*
X53875D01*
X53863Y42111D01*
X53856Y42108D01*
X53851Y42105D01*
X53850Y42104D01*
X53847Y42101D01*
X53846Y42097D01*
X53844Y42087D01*
X53843Y42081D01*
Y41945D01*
X53780D01*
Y42400D01*
X53843D01*
Y42257D01*
X53844Y42246D01*
X53847Y42238D01*
X53850Y42232D01*
X53851Y42230D01*
X53858Y42225D01*
X53865Y42223D01*
X53871Y42222D01*
X53874D01*
X53875D01*
X54182D01*
X54216Y42241D01*
X54232Y42250D01*
X54246Y42259D01*
X54260Y42269D01*
X54272Y42278D01*
X54284Y42286D01*
X54294Y42295D01*
X54303Y42303D01*
X54311Y42310D01*
X54318Y42317D01*
X54323Y42322D01*
X54328Y42326D01*
X54332Y42329D01*
X54333Y42331D01*
X54334Y42332D01*
X54343Y42344D01*
X54352Y42355D01*
X54360Y42366D01*
X54366Y42375D01*
X54375Y42393D01*
X54382Y42407D01*
X54386Y42420D01*
X54388Y42428D01*
X54389Y42433D01*
Y42442D01*
X54388Y42447D01*
X54387Y42451D01*
X54386Y42454D01*
X54384Y42457D01*
X54383Y42458D01*
X54377Y42460D01*
X54371Y42461D01*
X54367D01*
X54366D01*
X54365D01*
X54352Y42460D01*
X54341D01*
X54332Y42462D01*
X54323Y42464D01*
X54316Y42468D01*
X54312Y42470D01*
X54309Y42472D01*
X54308Y42473D01*
X54300Y42480D01*
X54295Y42489D01*
X54291Y42498D01*
X54289Y42507D01*
X54287Y42514D01*
X54286Y42521D01*
Y42527D01*
X54287Y42539D01*
X54289Y42551D01*
X54293Y42560D01*
X54297Y42569D01*
X54300Y42574D01*
X54304Y42579D01*
X54307Y42581D01*
X54308Y42582D01*
X54316Y42588D01*
X54325Y42593D01*
X54335Y42597D01*
X54343Y42599D01*
X54351Y42600D01*
X54358Y42601D01*
X54362D01*
X54363D01*
X54377Y42599D01*
D02*
G37*
G36*
X53953Y41826D02*
X53933D01*
X53916Y41825D01*
X53903Y41823D01*
X53892Y41822D01*
X53884Y41820D01*
X53879Y41818D01*
X53876Y41817D01*
X53875D01*
X53868Y41813D01*
X53863Y41809D01*
X53860Y41804D01*
X53857Y41799D01*
X53856Y41795D01*
X53855Y41792D01*
Y41784D01*
X53856Y41778D01*
X53857Y41772D01*
X53858Y41769D01*
Y41768D01*
X53861Y41767D01*
X53866Y41766D01*
X53874D01*
X53882Y41765D01*
X53889D01*
X53896D01*
X53901D01*
X53903D01*
X54282D01*
X54297Y41764D01*
X54313Y41762D01*
X54326Y41759D01*
X54340Y41756D01*
X54363Y41745D01*
X54382Y41734D01*
X54390Y41727D01*
X54396Y41721D01*
X54402Y41716D01*
X54408Y41712D01*
X54411Y41708D01*
X54414Y41705D01*
X54416Y41702D01*
Y41701D01*
X54424Y41689D01*
X54431Y41675D01*
X54444Y41646D01*
X54452Y41616D01*
X54458Y41587D01*
X54460Y41573D01*
X54462Y41561D01*
X54463Y41549D01*
Y41539D01*
X54464Y41531D01*
Y41519D01*
X54463Y41498D01*
X54462Y41479D01*
X54460Y41459D01*
X54456Y41441D01*
X54452Y41425D01*
X54448Y41408D01*
X54444Y41393D01*
X54439Y41380D01*
X54435Y41367D01*
X54429Y41357D01*
X54425Y41347D01*
X54422Y41340D01*
X54418Y41334D01*
X54416Y41330D01*
X54415Y41327D01*
X54414Y41326D01*
X54404Y41312D01*
X54395Y41300D01*
X54386Y41289D01*
X54376Y41280D01*
X54367Y41273D01*
X54358Y41266D01*
X54349Y41261D01*
X54341Y41257D01*
X54327Y41251D01*
X54316Y41248D01*
X54312D01*
X54309Y41247D01*
X54307D01*
X54306D01*
X54293Y41248D01*
X54283Y41250D01*
X54273Y41252D01*
X54265Y41256D01*
X54260Y41259D01*
X54255Y41261D01*
X54252Y41263D01*
X54251Y41264D01*
X54245Y41271D01*
X54241Y41280D01*
X54238Y41287D01*
X54236Y41295D01*
X54235Y41302D01*
X54234Y41307D01*
Y41312D01*
X54235Y41328D01*
X54239Y41340D01*
X54243Y41351D01*
X54249Y41359D01*
X54255Y41364D01*
X54260Y41368D01*
X54263Y41370D01*
X54264Y41371D01*
X54275Y41376D01*
X54286Y41378D01*
X54295Y41379D01*
X54304Y41378D01*
X54312Y41376D01*
X54317Y41375D01*
X54321Y41374D01*
X54322Y41372D01*
X54326Y41371D01*
X54332Y41370D01*
X54340Y41372D01*
X54349Y41376D01*
X54357Y41381D01*
X54364Y41387D01*
X54369Y41392D01*
X54372Y41396D01*
X54373Y41397D01*
X54378Y41405D01*
X54383Y41413D01*
X54389Y41433D01*
X54394Y41454D01*
X54397Y41474D01*
X54399Y41494D01*
Y41503D01*
X54400Y41511D01*
Y41540D01*
X54399Y41554D01*
X54397Y41566D01*
X54395Y41578D01*
X54393Y41587D01*
X54390Y41595D01*
X54387Y41604D01*
X54384Y41610D01*
X54377Y41620D01*
X54372Y41626D01*
X54368Y41631D01*
X54367Y41632D01*
X54354Y41639D01*
X54340Y41645D01*
X54326Y41649D01*
X54313Y41651D01*
X54300Y41654D01*
X54291Y41655D01*
X54285D01*
X54284D01*
X54283D01*
X54226D01*
X54221Y41609D01*
X54214Y41566D01*
X54207Y41528D01*
X54199Y41492D01*
X54191Y41460D01*
X54183Y41432D01*
X54175Y41406D01*
X54167Y41384D01*
X54160Y41364D01*
X54152Y41347D01*
X54145Y41334D01*
X54140Y41324D01*
X54135Y41315D01*
X54132Y41309D01*
X54130Y41306D01*
X54129Y41305D01*
X54115Y41288D01*
X54101Y41275D01*
X54087Y41262D01*
X54071Y41252D01*
X54057Y41242D01*
X54042Y41235D01*
X54028Y41229D01*
X54013Y41224D01*
X54001Y41219D01*
X53988Y41217D01*
X53978Y41215D01*
X53968Y41213D01*
X53960D01*
X53955Y41212D01*
X53951D01*
X53949D01*
X53937Y41213D01*
X53925Y41215D01*
X53912Y41217D01*
X53901Y41222D01*
X53880Y41232D01*
X53862Y41243D01*
X53847Y41254D01*
X53836Y41264D01*
X53832Y41268D01*
X53829Y41270D01*
X53828Y41273D01*
X53827Y41274D01*
X53817Y41286D01*
X53810Y41299D01*
X53803Y41312D01*
X53796Y41327D01*
X53787Y41355D01*
X53781Y41383D01*
X53779Y41395D01*
X53778Y41407D01*
X53777Y41417D01*
X53776Y41427D01*
X53775Y41434D01*
Y41444D01*
X53776Y41470D01*
X53778Y41494D01*
X53781Y41515D01*
X53785Y41533D01*
X53789Y41547D01*
X53792Y41558D01*
X53793Y41562D01*
X53794Y41565D01*
X53795Y41566D01*
Y41567D01*
X53804Y41586D01*
X53813Y41604D01*
X53824Y41619D01*
X53833Y41633D01*
X53841Y41644D01*
X53849Y41652D01*
X53853Y41658D01*
X53855Y41660D01*
X53842Y41663D01*
X53831Y41668D01*
X53821Y41674D01*
X53814Y41680D01*
X53808Y41685D01*
X53804Y41690D01*
X53801Y41693D01*
X53800Y41694D01*
X53793Y41705D01*
X53788Y41717D01*
X53785Y41728D01*
X53782Y41740D01*
X53781Y41750D01*
X53780Y41759D01*
Y41766D01*
X53781Y41785D01*
X53785Y41802D01*
X53791Y41817D01*
X53798Y41829D01*
X53804Y41839D01*
X53810Y41846D01*
X53814Y41851D01*
X53815Y41852D01*
X53822Y41859D01*
X53832Y41864D01*
X53852Y41872D01*
X53875Y41877D01*
X53897Y41882D01*
X53918Y41884D01*
X53928Y41885D01*
X53936Y41886D01*
X53943D01*
X53948D01*
X53952D01*
X53953D01*
Y41826D01*
D02*
G37*
G36*
X54140Y41092D02*
X54164Y41090D01*
X54187Y41086D01*
X54209Y41080D01*
X54230Y41074D01*
X54248Y41066D01*
X54267Y41059D01*
X54284Y41052D01*
X54299Y41044D01*
X54314Y41036D01*
X54325Y41029D01*
X54336Y41023D01*
X54344Y41017D01*
X54349Y41013D01*
X54353Y41010D01*
X54354Y41009D01*
X54374Y40992D01*
X54391Y40975D01*
X54405Y40957D01*
X54418Y40937D01*
X54428Y40919D01*
X54437Y40900D01*
X54444Y40881D01*
X54450Y40862D01*
X54454Y40846D01*
X54458Y40830D01*
X54461Y40816D01*
X54462Y40803D01*
X54463Y40793D01*
X54464Y40785D01*
Y40779D01*
X54463Y40754D01*
X54460Y40730D01*
X54453Y40707D01*
X54447Y40685D01*
X54439Y40666D01*
X54429Y40647D01*
X54420Y40630D01*
X54410Y40615D01*
X54399Y40600D01*
X54390Y40589D01*
X54380Y40578D01*
X54372Y40569D01*
X54366Y40563D01*
X54361Y40557D01*
X54357Y40554D01*
X54356Y40553D01*
X54335Y40538D01*
X54314Y40525D01*
X54293Y40514D01*
X54272Y40503D01*
X54252Y40495D01*
X54233Y40488D01*
X54213Y40482D01*
X54195Y40477D01*
X54179Y40474D01*
X54163Y40471D01*
X54149Y40470D01*
X54138Y40468D01*
X54129D01*
X54122Y40467D01*
X54117D01*
X54116D01*
X54090Y40468D01*
X54064Y40471D01*
X54040Y40475D01*
X54017Y40480D01*
X53995Y40487D01*
X53976Y40494D01*
X53957Y40502D01*
X53939Y40511D01*
X53923Y40518D01*
X53910Y40526D01*
X53899Y40533D01*
X53889Y40540D01*
X53881Y40545D01*
X53876Y40549D01*
X53871Y40552D01*
X53870Y40553D01*
X53853Y40570D01*
X53837Y40588D01*
X53824Y40606D01*
X53811Y40625D01*
X53802Y40645D01*
X53793Y40664D01*
X53786Y40681D01*
X53781Y40699D01*
X53777Y40716D01*
X53774Y40731D01*
X53771Y40745D01*
X53770Y40756D01*
X53769Y40766D01*
X53768Y40773D01*
Y40779D01*
X53769Y40804D01*
X53773Y40827D01*
X53778Y40849D01*
X53784Y40871D01*
X53791Y40890D01*
X53800Y40908D01*
X53809Y40926D01*
X53818Y40941D01*
X53827Y40955D01*
X53836Y40968D01*
X53844Y40978D01*
X53852Y40986D01*
X53858Y40994D01*
X53863Y40999D01*
X53866Y41002D01*
X53867Y41003D01*
X53886Y41019D01*
X53907Y41033D01*
X53927Y41045D01*
X53947Y41055D01*
X53969Y41064D01*
X53989Y41072D01*
X54010Y41078D01*
X54029Y41082D01*
X54047Y41086D01*
X54063Y41088D01*
X54079Y41090D01*
X54091Y41092D01*
X54101D01*
X54110Y41093D01*
X54114D01*
X54116D01*
X54140Y41092D01*
D02*
G37*
G36*
X54082Y40360D02*
X54114Y40354D01*
X54144Y40346D01*
X54158Y40342D01*
X54170Y40338D01*
X54181Y40332D01*
X54191Y40328D01*
X54200Y40324D01*
X54208Y40320D01*
X54213Y40317D01*
X54218Y40315D01*
X54220Y40314D01*
X54221Y40313D01*
X54236Y40302D01*
X54248Y40291D01*
X54261Y40278D01*
X54271Y40265D01*
X54282Y40250D01*
X54290Y40236D01*
X54306Y40207D01*
X54311Y40193D01*
X54316Y40179D01*
X54320Y40168D01*
X54323Y40158D01*
X54326Y40149D01*
X54328Y40142D01*
X54329Y40138D01*
Y40137D01*
X54335Y40156D01*
X54341Y40173D01*
X54347Y40189D01*
X54353Y40202D01*
X54361Y40216D01*
X54367Y40227D01*
X54374Y40238D01*
X54380Y40247D01*
X54387Y40254D01*
X54393Y40261D01*
X54398Y40267D01*
X54402Y40271D01*
X54406Y40274D01*
X54410Y40276D01*
X54411Y40278D01*
X54412D01*
X54434Y40291D01*
X54456Y40300D01*
X54480Y40306D01*
X54502Y40312D01*
X54522Y40314D01*
X54530Y40315D01*
X54538D01*
X54544Y40316D01*
X54548D01*
X54551D01*
X54552D01*
X54574Y40315D01*
X54595Y40313D01*
X54614Y40310D01*
X54631Y40304D01*
X54647Y40299D01*
X54662Y40293D01*
X54675Y40287D01*
X54688Y40279D01*
X54698Y40273D01*
X54706Y40266D01*
X54715Y40260D01*
X54720Y40254D01*
X54725Y40249D01*
X54728Y40246D01*
X54730Y40244D01*
X54731Y40243D01*
X54742Y40228D01*
X54751Y40213D01*
X54758Y40196D01*
X54766Y40178D01*
X54772Y40160D01*
X54776Y40142D01*
X54783Y40107D01*
X54785Y40090D01*
X54788Y40074D01*
X54789Y40061D01*
X54790Y40048D01*
X54791Y40038D01*
Y39670D01*
X54727D01*
Y39733D01*
X54726Y39740D01*
X54725Y39746D01*
X54723Y39752D01*
X54722Y39755D01*
X54720Y39757D01*
X54719Y39759D01*
X54712Y39764D01*
X54704Y39767D01*
X54698Y39768D01*
X54696D01*
X54695D01*
X53875D01*
X53863Y39767D01*
X53856Y39764D01*
X53851Y39761D01*
X53850Y39760D01*
X53847Y39757D01*
X53846Y39753D01*
X53844Y39742D01*
X53843Y39738D01*
Y39670D01*
X53780D01*
Y40046D01*
X53781Y40072D01*
X53783Y40097D01*
X53786Y40121D01*
X53791Y40143D01*
X53796Y40164D01*
X53803Y40183D01*
X53810Y40200D01*
X53816Y40216D01*
X53824Y40229D01*
X53830Y40242D01*
X53836Y40252D01*
X53841Y40261D01*
X53846Y40268D01*
X53850Y40272D01*
X53852Y40275D01*
X53853Y40276D01*
X53867Y40291D01*
X53882Y40304D01*
X53897Y40316D01*
X53914Y40325D01*
X53930Y40334D01*
X53946Y40341D01*
X53962Y40346D01*
X53977Y40351D01*
X53991Y40354D01*
X54005Y40357D01*
X54016Y40360D01*
X54027Y40361D01*
X54035D01*
X54041Y40362D01*
X54045D01*
X54046D01*
X54064D01*
X54082Y40360D01*
D02*
G37*
G36*
X53843Y39570D02*
X53844Y39559D01*
X53847Y39551D01*
X53850Y39546D01*
X53851Y39543D01*
X53858Y39538D01*
X53865Y39536D01*
X53871Y39535D01*
X53874D01*
X53875D01*
X54242D01*
X54262Y39534D01*
X54281Y39533D01*
X54297Y39531D01*
X54314Y39527D01*
X54328Y39524D01*
X54342Y39519D01*
X54353Y39514D01*
X54365Y39510D01*
X54374Y39505D01*
X54383Y39501D01*
X54390Y39496D01*
X54396Y39492D01*
X54400Y39489D01*
X54404Y39486D01*
X54405Y39485D01*
X54406Y39484D01*
X54417Y39474D01*
X54425Y39463D01*
X54434Y39452D01*
X54440Y39439D01*
X54450Y39413D01*
X54456Y39388D01*
X54459Y39377D01*
X54461Y39365D01*
X54462Y39356D01*
X54463Y39347D01*
X54464Y39340D01*
Y39330D01*
X54463Y39307D01*
X54459Y39286D01*
X54454Y39267D01*
X54448Y39249D01*
X54443Y39234D01*
X54438Y39223D01*
X54436Y39219D01*
X54434Y39216D01*
X54433Y39214D01*
Y39213D01*
X54420Y39195D01*
X54406Y39178D01*
X54393Y39165D01*
X54379Y39153D01*
X54367Y39145D01*
X54358Y39138D01*
X54350Y39134D01*
X54349Y39133D01*
X54481D01*
Y39101D01*
X54475Y39092D01*
X54470Y39082D01*
X54466Y39074D01*
X54463Y39067D01*
X54461Y39060D01*
X54459Y39055D01*
X54458Y39052D01*
Y39051D01*
X54454Y39032D01*
X54453Y39024D01*
Y39016D01*
X54452Y39008D01*
Y38943D01*
X54389D01*
Y39006D01*
X54388Y39013D01*
X54387Y39017D01*
X54386Y39019D01*
X54385Y39020D01*
X54380Y39022D01*
X54375Y39023D01*
X54370D01*
X54369D01*
X54368D01*
X53875D01*
X53863Y39022D01*
X53856Y39020D01*
X53851Y39017D01*
X53850Y39016D01*
X53847Y39013D01*
X53846Y39008D01*
X53844Y38998D01*
X53843Y38993D01*
Y38943D01*
X53780D01*
Y39213D01*
X53843D01*
Y39169D01*
X53844Y39157D01*
X53847Y39149D01*
X53850Y39144D01*
X53851Y39142D01*
X53858Y39136D01*
X53865Y39134D01*
X53871Y39133D01*
X53874D01*
X53875D01*
X54266D01*
X54287Y39149D01*
X54304Y39165D01*
X54319Y39180D01*
X54333Y39195D01*
X54342Y39206D01*
X54349Y39217D01*
X54354Y39223D01*
X54356Y39224D01*
Y39225D01*
X54367Y39244D01*
X54375Y39262D01*
X54380Y39279D01*
X54385Y39294D01*
X54387Y39306D01*
X54389Y39315D01*
Y39324D01*
X54388Y39341D01*
X54384Y39357D01*
X54378Y39370D01*
X54372Y39380D01*
X54366Y39388D01*
X54361Y39395D01*
X54357Y39398D01*
X54356Y39399D01*
X54342Y39407D01*
X54327Y39413D01*
X54311Y39419D01*
X54295Y39422D01*
X54282Y39424D01*
X54270Y39425D01*
X54266D01*
X54263D01*
X54261D01*
X54260D01*
X53875D01*
X53863Y39424D01*
X53856Y39422D01*
X53851Y39419D01*
X53850Y39417D01*
X53847Y39414D01*
X53846Y39410D01*
X53844Y39400D01*
X53843Y39395D01*
Y39345D01*
X53780D01*
Y39615D01*
X53843D01*
Y39570D01*
D02*
G37*
G36*
X54730Y38623D02*
X54742Y38620D01*
X54752Y38615D01*
X54760Y38611D01*
X54768Y38605D01*
X54773Y38600D01*
X54776Y38597D01*
X54777Y38596D01*
X54785Y38586D01*
X54792Y38574D01*
X54796Y38564D01*
X54799Y38554D01*
X54801Y38546D01*
X54802Y38540D01*
Y38534D01*
X54801Y38521D01*
X54798Y38510D01*
X54794Y38499D01*
X54790Y38490D01*
X54785Y38483D01*
X54781Y38477D01*
X54778Y38473D01*
X54777Y38472D01*
X54768Y38463D01*
X54757Y38457D01*
X54748Y38451D01*
X54739Y38448D01*
X54730Y38446D01*
X54724Y38445D01*
X54720D01*
X54718D01*
X54705Y38446D01*
X54694Y38449D01*
X54683Y38454D01*
X54674Y38459D01*
X54667Y38463D01*
X54662Y38467D01*
X54657Y38470D01*
X54656Y38471D01*
X54647Y38482D01*
X54641Y38492D01*
X54636Y38502D01*
X54632Y38513D01*
X54630Y38521D01*
X54629Y38527D01*
Y38534D01*
X54630Y38546D01*
X54633Y38559D01*
X54638Y38569D01*
X54643Y38578D01*
X54648Y38586D01*
X54652Y38591D01*
X54655Y38595D01*
X54656Y38596D01*
X54667Y38605D01*
X54677Y38613D01*
X54688Y38617D01*
X54697Y38621D01*
X54705Y38623D01*
X54712Y38624D01*
X54717D01*
X54718D01*
X54730Y38623D01*
D02*
G37*
G36*
X53843Y38619D02*
X53844Y38608D01*
X53847Y38599D01*
X53850Y38594D01*
X53851Y38592D01*
X53858Y38587D01*
X53865Y38585D01*
X53871Y38584D01*
X53874D01*
X53875D01*
X54493D01*
Y38552D01*
X54485Y38537D01*
X54477Y38521D01*
X54471Y38507D01*
X54467Y38494D01*
X54464Y38483D01*
X54462Y38474D01*
X54460Y38469D01*
Y38467D01*
X54455Y38435D01*
X54454Y38419D01*
X54453Y38405D01*
X54452Y38392D01*
Y38302D01*
X54389D01*
Y38443D01*
X54387Y38449D01*
X54386Y38455D01*
X54384Y38459D01*
X54380Y38464D01*
X54378Y38465D01*
X54370Y38470D01*
X54362Y38472D01*
X54358Y38473D01*
X54354D01*
X54352D01*
X54351D01*
X53875D01*
X53863Y38472D01*
X53856Y38470D01*
X53851Y38467D01*
X53850Y38466D01*
X53847Y38463D01*
X53846Y38459D01*
X53844Y38448D01*
X53843Y38443D01*
Y38302D01*
X53780D01*
Y38755D01*
X53843D01*
Y38619D01*
D02*
G37*
G36*
X52574Y38723D02*
X52547Y38717D01*
X52524Y38711D01*
X52505Y38703D01*
X52490Y38696D01*
X52478Y38689D01*
X52470Y38684D01*
X52466Y38679D01*
X52464Y38678D01*
X52452Y38666D01*
X52445Y38653D01*
X52439Y38640D01*
X52435Y38626D01*
X52433Y38615D01*
X52432Y38605D01*
X52430Y38599D01*
Y38597D01*
X52432Y38579D01*
X52435Y38564D01*
X52438Y38551D01*
X52443Y38541D01*
X52447Y38533D01*
X52450Y38526D01*
X52453Y38523D01*
X52454Y38522D01*
X52460Y38518D01*
X52466Y38514D01*
X52480Y38509D01*
X52496Y38505D01*
X52513Y38501D01*
X52528Y38499D01*
X52541Y38498D01*
X52546D01*
X52550D01*
X52552D01*
X52553D01*
X52963D01*
Y38728D01*
X53027D01*
Y38498D01*
X53251D01*
Y38435D01*
X53191Y38427D01*
X53176Y38425D01*
X53161Y38422D01*
X53148Y38419D01*
X53135Y38415D01*
X53124Y38411D01*
X53113Y38407D01*
X53096Y38398D01*
X53082Y38391D01*
X53073Y38384D01*
X53068Y38380D01*
X53065Y38378D01*
X53053Y38362D01*
X53044Y38345D01*
X53036Y38329D01*
X53032Y38313D01*
X53029Y38298D01*
X53028Y38287D01*
X53027Y38283D01*
Y38216D01*
X52963D01*
Y38388D01*
X52576D01*
X52555Y38389D01*
X52536Y38390D01*
X52518Y38392D01*
X52500Y38395D01*
X52486Y38398D01*
X52471Y38402D01*
X52459Y38407D01*
X52447Y38411D01*
X52437Y38415D01*
X52428Y38419D01*
X52421Y38423D01*
X52415Y38426D01*
X52411Y38430D01*
X52408Y38432D01*
X52405Y38434D01*
X52404D01*
X52395Y38443D01*
X52387Y38454D01*
X52378Y38464D01*
X52372Y38475D01*
X52363Y38499D01*
X52357Y38521D01*
X52352Y38542D01*
X52351Y38551D01*
X52350Y38559D01*
X52349Y38565D01*
Y38574D01*
X52350Y38590D01*
X52351Y38605D01*
X52358Y38633D01*
X52367Y38656D01*
X52377Y38677D01*
X52382Y38686D01*
X52387Y38693D01*
X52392Y38699D01*
X52396Y38704D01*
X52399Y38709D01*
X52402Y38712D01*
X52403Y38713D01*
X52404Y38714D01*
X52427Y38731D01*
X52452Y38746D01*
X52477Y38757D01*
X52501Y38767D01*
X52513Y38770D01*
X52523Y38773D01*
X52533Y38775D01*
X52541Y38776D01*
X52547Y38778D01*
X52552D01*
X52555Y38779D01*
X52556D01*
X52574Y38723D01*
D02*
G37*
G36*
X53953Y38074D02*
X53933D01*
X53916Y38072D01*
X53903Y38070D01*
X53892Y38069D01*
X53884Y38067D01*
X53879Y38065D01*
X53876Y38064D01*
X53875D01*
X53868Y38060D01*
X53863Y38056D01*
X53860Y38052D01*
X53857Y38046D01*
X53856Y38042D01*
X53855Y38039D01*
Y38031D01*
X53856Y38026D01*
X53857Y38019D01*
X53858Y38016D01*
Y38015D01*
X53861Y38014D01*
X53866Y38013D01*
X53874D01*
X53882Y38012D01*
X53889D01*
X53896D01*
X53901D01*
X53903D01*
X54282D01*
X54297Y38011D01*
X54313Y38009D01*
X54326Y38006D01*
X54340Y38003D01*
X54363Y37992D01*
X54382Y37981D01*
X54390Y37975D01*
X54396Y37968D01*
X54402Y37963D01*
X54408Y37959D01*
X54411Y37955D01*
X54414Y37952D01*
X54416Y37950D01*
Y37949D01*
X54424Y37936D01*
X54431Y37923D01*
X54444Y37893D01*
X54452Y37863D01*
X54458Y37834D01*
X54460Y37821D01*
X54462Y37808D01*
X54463Y37797D01*
Y37786D01*
X54464Y37778D01*
Y37766D01*
X54463Y37746D01*
X54462Y37726D01*
X54460Y37706D01*
X54456Y37688D01*
X54452Y37672D01*
X54448Y37655D01*
X54444Y37640D01*
X54439Y37627D01*
X54435Y37614D01*
X54429Y37604D01*
X54425Y37595D01*
X54422Y37587D01*
X54418Y37581D01*
X54416Y37577D01*
X54415Y37574D01*
X54414Y37573D01*
X54404Y37559D01*
X54395Y37547D01*
X54386Y37536D01*
X54376Y37527D01*
X54367Y37520D01*
X54358Y37513D01*
X54349Y37508D01*
X54341Y37504D01*
X54327Y37498D01*
X54316Y37495D01*
X54312D01*
X54309Y37494D01*
X54307D01*
X54306D01*
X54293Y37495D01*
X54283Y37497D01*
X54273Y37499D01*
X54265Y37503D01*
X54260Y37506D01*
X54255Y37508D01*
X54252Y37510D01*
X54251Y37511D01*
X54245Y37519D01*
X54241Y37527D01*
X54238Y37534D01*
X54236Y37543D01*
X54235Y37549D01*
X54234Y37554D01*
Y37559D01*
X54235Y37575D01*
X54239Y37587D01*
X54243Y37598D01*
X54249Y37606D01*
X54255Y37611D01*
X54260Y37615D01*
X54263Y37618D01*
X54264Y37619D01*
X54275Y37623D01*
X54286Y37625D01*
X54295Y37626D01*
X54304Y37625D01*
X54312Y37623D01*
X54317Y37622D01*
X54321Y37621D01*
X54322Y37620D01*
X54326Y37619D01*
X54332Y37618D01*
X54340Y37620D01*
X54349Y37623D01*
X54357Y37628D01*
X54364Y37634D01*
X54369Y37639D01*
X54372Y37644D01*
X54373Y37645D01*
X54378Y37652D01*
X54383Y37660D01*
X54389Y37680D01*
X54394Y37701D01*
X54397Y37722D01*
X54399Y37741D01*
Y37750D01*
X54400Y37758D01*
Y37787D01*
X54399Y37801D01*
X54397Y37813D01*
X54395Y37825D01*
X54393Y37834D01*
X54390Y37842D01*
X54387Y37851D01*
X54384Y37857D01*
X54377Y37867D01*
X54372Y37874D01*
X54368Y37878D01*
X54367Y37879D01*
X54354Y37886D01*
X54340Y37892D01*
X54326Y37897D01*
X54313Y37899D01*
X54300Y37901D01*
X54291Y37902D01*
X54285D01*
X54284D01*
X54283D01*
X54226D01*
X54221Y37856D01*
X54214Y37813D01*
X54207Y37775D01*
X54199Y37739D01*
X54191Y37707D01*
X54183Y37679D01*
X54175Y37653D01*
X54167Y37631D01*
X54160Y37611D01*
X54152Y37595D01*
X54145Y37581D01*
X54140Y37571D01*
X54135Y37562D01*
X54132Y37556D01*
X54130Y37553D01*
X54129Y37552D01*
X54115Y37535D01*
X54101Y37522D01*
X54087Y37509D01*
X54071Y37499D01*
X54057Y37490D01*
X54042Y37482D01*
X54028Y37476D01*
X54013Y37471D01*
X54001Y37467D01*
X53988Y37465D01*
X53978Y37462D01*
X53968Y37460D01*
X53960D01*
X53955Y37459D01*
X53951D01*
X53949D01*
X53937Y37460D01*
X53925Y37462D01*
X53912Y37465D01*
X53901Y37469D01*
X53880Y37479D01*
X53862Y37491D01*
X53847Y37501D01*
X53836Y37511D01*
X53832Y37516D01*
X53829Y37518D01*
X53828Y37520D01*
X53827Y37521D01*
X53817Y37533D01*
X53810Y37546D01*
X53803Y37559D01*
X53796Y37574D01*
X53787Y37602D01*
X53781Y37630D01*
X53779Y37643D01*
X53778Y37654D01*
X53777Y37664D01*
X53776Y37674D01*
X53775Y37681D01*
Y37691D01*
X53776Y37718D01*
X53778Y37741D01*
X53781Y37762D01*
X53785Y37780D01*
X53789Y37795D01*
X53792Y37805D01*
X53793Y37809D01*
X53794Y37812D01*
X53795Y37813D01*
Y37814D01*
X53804Y37833D01*
X53813Y37851D01*
X53824Y37866D01*
X53833Y37880D01*
X53841Y37891D01*
X53849Y37900D01*
X53853Y37905D01*
X53855Y37907D01*
X53842Y37910D01*
X53831Y37915D01*
X53821Y37922D01*
X53814Y37927D01*
X53808Y37932D01*
X53804Y37937D01*
X53801Y37940D01*
X53800Y37941D01*
X53793Y37952D01*
X53788Y37964D01*
X53785Y37976D01*
X53782Y37987D01*
X53781Y37998D01*
X53780Y38006D01*
Y38013D01*
X53781Y38032D01*
X53785Y38050D01*
X53791Y38064D01*
X53798Y38077D01*
X53804Y38086D01*
X53810Y38093D01*
X53814Y38099D01*
X53815Y38100D01*
X53822Y38106D01*
X53832Y38111D01*
X53852Y38119D01*
X53875Y38125D01*
X53897Y38129D01*
X53918Y38131D01*
X53928Y38132D01*
X53936Y38133D01*
X53943D01*
X53948D01*
X53952D01*
X53953D01*
Y38074D01*
D02*
G37*
G36*
X52418Y38046D02*
X52419Y38035D01*
X52422Y38027D01*
X52424Y38021D01*
X52425Y38019D01*
X52433Y38014D01*
X52440Y38012D01*
X52446Y38011D01*
X52448D01*
X52449D01*
X52817D01*
X52836Y38010D01*
X52855Y38009D01*
X52872Y38007D01*
X52889Y38003D01*
X52903Y38000D01*
X52917Y37995D01*
X52928Y37990D01*
X52940Y37986D01*
X52949Y37981D01*
X52957Y37977D01*
X52965Y37972D01*
X52971Y37968D01*
X52975Y37965D01*
X52979Y37962D01*
X52980Y37961D01*
X52981Y37960D01*
X52992Y37950D01*
X53000Y37939D01*
X53008Y37928D01*
X53014Y37915D01*
X53025Y37889D01*
X53031Y37864D01*
X53033Y37853D01*
X53035Y37841D01*
X53036Y37832D01*
X53037Y37823D01*
X53038Y37816D01*
Y37806D01*
X53037Y37783D01*
X53033Y37762D01*
X53029Y37742D01*
X53023Y37725D01*
X53018Y37710D01*
X53012Y37699D01*
X53010Y37695D01*
X53008Y37691D01*
X53007Y37690D01*
Y37689D01*
X52995Y37671D01*
X52981Y37654D01*
X52968Y37640D01*
X52954Y37629D01*
X52942Y37621D01*
X52932Y37614D01*
X52925Y37610D01*
X52924Y37609D01*
X53056D01*
Y37577D01*
X53050Y37568D01*
X53045Y37558D01*
X53040Y37550D01*
X53037Y37543D01*
X53035Y37536D01*
X53033Y37531D01*
X53032Y37528D01*
Y37527D01*
X53029Y37508D01*
X53028Y37500D01*
Y37492D01*
X53027Y37484D01*
Y37419D01*
X52963D01*
Y37482D01*
X52962Y37488D01*
X52961Y37493D01*
X52960Y37495D01*
X52959Y37496D01*
X52955Y37498D01*
X52950Y37499D01*
X52945D01*
X52944D01*
X52943D01*
X52449D01*
X52438Y37498D01*
X52430Y37496D01*
X52425Y37493D01*
X52424Y37492D01*
X52422Y37488D01*
X52421Y37484D01*
X52419Y37474D01*
X52418Y37469D01*
Y37419D01*
X52354D01*
Y37689D01*
X52418D01*
Y37645D01*
X52419Y37633D01*
X52422Y37625D01*
X52424Y37620D01*
X52425Y37618D01*
X52433Y37612D01*
X52440Y37610D01*
X52446Y37609D01*
X52448D01*
X52449D01*
X52841D01*
X52861Y37625D01*
X52879Y37640D01*
X52894Y37656D01*
X52907Y37671D01*
X52917Y37682D01*
X52924Y37693D01*
X52929Y37699D01*
X52930Y37700D01*
Y37701D01*
X52942Y37720D01*
X52950Y37738D01*
X52955Y37755D01*
X52959Y37770D01*
X52961Y37782D01*
X52963Y37791D01*
Y37800D01*
X52962Y37817D01*
X52958Y37833D01*
X52953Y37846D01*
X52947Y37856D01*
X52941Y37864D01*
X52935Y37871D01*
X52931Y37874D01*
X52930Y37875D01*
X52917Y37883D01*
X52902Y37889D01*
X52885Y37894D01*
X52870Y37898D01*
X52856Y37900D01*
X52845Y37901D01*
X52841D01*
X52838D01*
X52835D01*
X52834D01*
X52449D01*
X52438Y37900D01*
X52430Y37898D01*
X52425Y37894D01*
X52424Y37893D01*
X52422Y37890D01*
X52421Y37886D01*
X52419Y37876D01*
X52418Y37871D01*
Y37821D01*
X52354D01*
Y38091D01*
X52418D01*
Y38046D01*
D02*
G37*
G36*
X54791Y37182D02*
X54069Y37007D01*
X54791Y36850D01*
Y36663D01*
X54727D01*
Y36706D01*
X54726Y36711D01*
X54725Y36715D01*
X54724Y36719D01*
X54721Y36723D01*
X54720Y36724D01*
X54713Y36729D01*
X54704Y36731D01*
X54698Y36732D01*
X54696D01*
X54695D01*
X53875D01*
X53863Y36731D01*
X53856Y36729D01*
X53851Y36725D01*
X53850Y36724D01*
X53847Y36721D01*
X53846Y36717D01*
X53844Y36707D01*
X53843Y36701D01*
Y36663D01*
X53780D01*
Y36865D01*
X53843D01*
Y36832D01*
X53844Y36820D01*
X53847Y36812D01*
X53850Y36807D01*
X53851Y36805D01*
X53858Y36799D01*
X53865Y36797D01*
X53871Y36796D01*
X53874D01*
X53875D01*
X54519D01*
X53780Y36958D01*
Y37017D01*
X54549Y37197D01*
X53875D01*
X53863Y37196D01*
X53856Y37194D01*
X53851Y37191D01*
X53850Y37190D01*
X53847Y37187D01*
X53846Y37182D01*
X53844Y37172D01*
X53843Y37167D01*
Y37117D01*
X53780D01*
Y37394D01*
X53843D01*
Y37354D01*
X53844Y37343D01*
X53847Y37334D01*
X53850Y37329D01*
X53851Y37327D01*
X53858Y37322D01*
X53865Y37320D01*
X53871Y37319D01*
X53874D01*
X53875D01*
X54695D01*
X54705Y37320D01*
X54714Y37324D01*
X54718Y37327D01*
X54719Y37328D01*
X54724Y37337D01*
X54726Y37345D01*
X54727Y37351D01*
Y37394D01*
X54791D01*
Y37182D01*
D02*
G37*
G36*
X52713Y37300D02*
X52747Y37298D01*
X52778Y37293D01*
X52806Y37288D01*
X52832Y37281D01*
X52855Y37274D01*
X52876Y37267D01*
X52895Y37258D01*
X52910Y37250D01*
X52924Y37243D01*
X52934Y37236D01*
X52944Y37229D01*
X52951Y37224D01*
X52955Y37220D01*
X52958Y37217D01*
X52959Y37216D01*
X52973Y37199D01*
X52985Y37182D01*
X52996Y37166D01*
X53005Y37148D01*
X53012Y37131D01*
X53019Y37115D01*
X53025Y37098D01*
X53029Y37084D01*
X53032Y37069D01*
X53034Y37055D01*
X53036Y37044D01*
X53037Y37035D01*
X53038Y37026D01*
Y37015D01*
X53037Y36992D01*
X53034Y36969D01*
X53029Y36948D01*
X53023Y36927D01*
X53016Y36909D01*
X53007Y36891D01*
X52998Y36875D01*
X52988Y36860D01*
X52979Y36846D01*
X52970Y36835D01*
X52961Y36824D01*
X52954Y36816D01*
X52948Y36810D01*
X52943Y36805D01*
X52940Y36801D01*
X52938Y36800D01*
X52920Y36785D01*
X52900Y36772D01*
X52879Y36761D01*
X52858Y36750D01*
X52838Y36742D01*
X52817Y36735D01*
X52797Y36730D01*
X52777Y36724D01*
X52759Y36721D01*
X52743Y36718D01*
X52728Y36717D01*
X52716Y36715D01*
X52705D01*
X52697Y36714D01*
X52693D01*
X52691D01*
X52661Y36715D01*
X52631Y36718D01*
X52604Y36722D01*
X52579Y36728D01*
X52556Y36734D01*
X52536Y36741D01*
X52516Y36749D01*
X52499Y36758D01*
X52484Y36765D01*
X52470Y36773D01*
X52459Y36781D01*
X52449Y36787D01*
X52442Y36792D01*
X52437Y36796D01*
X52434Y36799D01*
X52433Y36800D01*
X52417Y36817D01*
X52403Y36835D01*
X52391Y36853D01*
X52381Y36872D01*
X52372Y36892D01*
X52365Y36911D01*
X52359Y36928D01*
X52354Y36946D01*
X52350Y36963D01*
X52348Y36978D01*
X52346Y36992D01*
X52344Y37003D01*
Y37013D01*
X52343Y37020D01*
Y37026D01*
X52344Y37046D01*
X52346Y37066D01*
X52349Y37084D01*
X52353Y37100D01*
X52358Y37116D01*
X52363Y37129D01*
X52369Y37143D01*
X52375Y37154D01*
X52381Y37165D01*
X52387Y37174D01*
X52392Y37182D01*
X52397Y37189D01*
X52400Y37194D01*
X52403Y37197D01*
X52405Y37199D01*
X52407Y37200D01*
X52430Y37222D01*
X52455Y37240D01*
X52479Y37254D01*
X52501Y37266D01*
X52521Y37274D01*
X52529Y37277D01*
X52536Y37279D01*
X52542Y37281D01*
X52546Y37282D01*
X52548Y37283D01*
X52549D01*
X52568Y37230D01*
X52543Y37219D01*
X52521Y37207D01*
X52502Y37195D01*
X52487Y37182D01*
X52474Y37171D01*
X52465Y37163D01*
X52460Y37156D01*
X52458Y37155D01*
Y37154D01*
X52444Y37136D01*
X52435Y37116D01*
X52427Y37096D01*
X52423Y37078D01*
X52420Y37062D01*
X52419Y37055D01*
Y37049D01*
X52418Y37044D01*
Y37038D01*
X52419Y37021D01*
X52421Y37005D01*
X52423Y36991D01*
X52427Y36976D01*
X52437Y36951D01*
X52443Y36941D01*
X52448Y36931D01*
X52453Y36921D01*
X52460Y36914D01*
X52465Y36907D01*
X52469Y36901D01*
X52473Y36897D01*
X52476Y36894D01*
X52477Y36892D01*
X52478Y36891D01*
X52491Y36882D01*
X52504Y36873D01*
X52519Y36865D01*
X52536Y36859D01*
X52568Y36849D01*
X52600Y36843D01*
X52616Y36840D01*
X52629Y36839D01*
X52643Y36838D01*
X52654Y36837D01*
X52664Y36836D01*
X52670D01*
X52675D01*
X52676D01*
Y37301D01*
X52713Y37300D01*
D02*
G37*
G36*
X53027Y36337D02*
X52963D01*
Y36363D01*
X52962Y36373D01*
X52961Y36381D01*
X52959Y36387D01*
X52956Y36392D01*
X52953Y36395D01*
X52951Y36399D01*
X52950Y36401D01*
X52949D01*
X52943Y36404D01*
X52936Y36405D01*
X52928D01*
X52921Y36403D01*
X52915Y36401D01*
X52908Y36399D01*
X52904Y36398D01*
X52903Y36396D01*
X52544Y36262D01*
X52906Y36137D01*
X52919Y36134D01*
X52928Y36132D01*
X52936Y36131D01*
X52943D01*
X52947D01*
X52950D01*
X52952Y36132D01*
X52956Y36135D01*
X52958Y36139D01*
X52962Y36150D01*
Y36155D01*
X52963Y36159D01*
Y36202D01*
X53027D01*
Y35924D01*
X52963D01*
Y35973D01*
X52961Y35979D01*
X52958Y35988D01*
X52956Y35993D01*
X52954Y35996D01*
X52953Y35997D01*
X52952Y35998D01*
X52943Y36006D01*
X52933Y36011D01*
X52929Y36013D01*
X52926Y36014D01*
X52924Y36015D01*
X52923D01*
X52349Y36214D01*
Y36271D01*
X52894Y36470D01*
X52906Y36476D01*
X52917Y36482D01*
X52926Y36487D01*
X52933Y36491D01*
X52938Y36495D01*
X52943Y36498D01*
X52945Y36501D01*
X52946Y36502D01*
X52952Y36509D01*
X52956Y36516D01*
X52959Y36523D01*
X52961Y36531D01*
X52962Y36537D01*
X52963Y36542D01*
Y36574D01*
X53027D01*
Y36337D01*
D02*
G37*
G36*
X54152Y35839D02*
X54182Y35836D01*
X54209Y35832D01*
X54234Y35827D01*
X54257Y35821D01*
X54277Y35815D01*
X54296Y35807D01*
X54313Y35800D01*
X54327Y35793D01*
X54340Y35785D01*
X54351Y35779D01*
X54360Y35773D01*
X54367Y35768D01*
X54371Y35764D01*
X54374Y35761D01*
X54375Y35760D01*
X54390Y35745D01*
X54402Y35729D01*
X54414Y35713D01*
X54423Y35696D01*
X54430Y35679D01*
X54438Y35663D01*
X54443Y35646D01*
X54447Y35630D01*
X54450Y35616D01*
X54453Y35602D01*
X54455Y35590D01*
X54456Y35580D01*
X54458Y35571D01*
Y35560D01*
X54456Y35537D01*
X54452Y35516D01*
X54448Y35497D01*
X54442Y35479D01*
X54437Y35466D01*
X54431Y35455D01*
X54429Y35451D01*
X54427Y35448D01*
X54426Y35447D01*
Y35446D01*
X54414Y35428D01*
X54400Y35414D01*
X54387Y35402D01*
X54373Y35394D01*
X54361Y35388D01*
X54351Y35384D01*
X54344Y35382D01*
X54343Y35380D01*
X54475D01*
Y35348D01*
X54469Y35339D01*
X54464Y35331D01*
X54460Y35322D01*
X54456Y35315D01*
X54454Y35310D01*
X54452Y35304D01*
X54451Y35301D01*
Y35300D01*
X54448Y35283D01*
X54447Y35273D01*
Y35266D01*
X54446Y35259D01*
Y35184D01*
X54383D01*
Y35240D01*
X54380Y35246D01*
X54379Y35251D01*
X54377Y35256D01*
X54374Y35260D01*
X54372Y35262D01*
X54364Y35267D01*
X54356Y35269D01*
X54351Y35270D01*
X54348D01*
X54346D01*
X54345D01*
X53668D01*
X53660D01*
X53654Y35269D01*
X53649Y35268D01*
X53644Y35266D01*
X53641Y35265D01*
X53639Y35263D01*
X53638Y35262D01*
X53636Y35259D01*
X53634Y35254D01*
X53632Y35244D01*
X53631Y35240D01*
Y35184D01*
X53567D01*
Y35478D01*
X53631D01*
Y35422D01*
X53632Y35410D01*
X53635Y35400D01*
X53638Y35394D01*
X53639Y35393D01*
Y35392D01*
X53643Y35388D01*
X53648Y35386D01*
X53657Y35382D01*
X53661D01*
X53665Y35380D01*
X53667D01*
X53668D01*
X53855D01*
X53841Y35388D01*
X53830Y35396D01*
X53819Y35406D01*
X53811Y35417D01*
X53804Y35426D01*
X53800Y35434D01*
X53796Y35439D01*
X53795Y35441D01*
X53788Y35459D01*
X53783Y35477D01*
X53780Y35497D01*
X53778Y35515D01*
X53776Y35529D01*
Y35537D01*
X53775Y35542D01*
Y35553D01*
X53776Y35575D01*
X53779Y35595D01*
X53783Y35615D01*
X53789Y35633D01*
X53795Y35651D01*
X53804Y35668D01*
X53811Y35683D01*
X53820Y35698D01*
X53829Y35710D01*
X53837Y35721D01*
X53844Y35731D01*
X53851Y35740D01*
X53857Y35746D01*
X53861Y35750D01*
X53864Y35753D01*
X53865Y35754D01*
X53883Y35769D01*
X53903Y35782D01*
X53922Y35794D01*
X53943Y35803D01*
X53965Y35811D01*
X53986Y35819D01*
X54007Y35824D01*
X54028Y35829D01*
X54046Y35832D01*
X54064Y35835D01*
X54080Y35837D01*
X54094Y35839D01*
X54106D01*
X54114Y35840D01*
X54119D01*
X54121D01*
X54152Y35839D01*
D02*
G37*
G36*
X52713Y35799D02*
X52747Y35797D01*
X52778Y35792D01*
X52806Y35786D01*
X52832Y35780D01*
X52855Y35773D01*
X52876Y35766D01*
X52895Y35757D01*
X52910Y35749D01*
X52924Y35742D01*
X52934Y35734D01*
X52944Y35728D01*
X52951Y35723D01*
X52955Y35719D01*
X52958Y35716D01*
X52959Y35715D01*
X52973Y35698D01*
X52985Y35681D01*
X52996Y35665D01*
X53005Y35647D01*
X53012Y35630D01*
X53019Y35614D01*
X53025Y35597D01*
X53029Y35582D01*
X53032Y35568D01*
X53034Y35554D01*
X53036Y35543D01*
X53037Y35533D01*
X53038Y35525D01*
Y35514D01*
X53037Y35491D01*
X53034Y35468D01*
X53029Y35447D01*
X53023Y35426D01*
X53016Y35408D01*
X53007Y35390D01*
X52998Y35374D01*
X52988Y35359D01*
X52979Y35345D01*
X52970Y35334D01*
X52961Y35323D01*
X52954Y35315D01*
X52948Y35309D01*
X52943Y35303D01*
X52940Y35300D01*
X52938Y35299D01*
X52920Y35284D01*
X52900Y35271D01*
X52879Y35260D01*
X52858Y35249D01*
X52838Y35241D01*
X52817Y35234D01*
X52797Y35228D01*
X52777Y35223D01*
X52759Y35220D01*
X52743Y35217D01*
X52728Y35216D01*
X52716Y35214D01*
X52705D01*
X52697Y35213D01*
X52693D01*
X52691D01*
X52661Y35214D01*
X52631Y35217D01*
X52604Y35221D01*
X52579Y35226D01*
X52556Y35233D01*
X52536Y35240D01*
X52516Y35248D01*
X52499Y35257D01*
X52484Y35264D01*
X52470Y35272D01*
X52459Y35279D01*
X52449Y35286D01*
X52442Y35291D01*
X52437Y35295D01*
X52434Y35298D01*
X52433Y35299D01*
X52417Y35316D01*
X52403Y35334D01*
X52391Y35352D01*
X52381Y35371D01*
X52372Y35391D01*
X52365Y35410D01*
X52359Y35427D01*
X52354Y35445D01*
X52350Y35462D01*
X52348Y35477D01*
X52346Y35491D01*
X52344Y35502D01*
Y35512D01*
X52343Y35519D01*
Y35525D01*
X52344Y35545D01*
X52346Y35565D01*
X52349Y35582D01*
X52353Y35599D01*
X52358Y35615D01*
X52363Y35628D01*
X52369Y35642D01*
X52375Y35653D01*
X52381Y35664D01*
X52387Y35673D01*
X52392Y35681D01*
X52397Y35688D01*
X52400Y35693D01*
X52403Y35696D01*
X52405Y35698D01*
X52407Y35699D01*
X52430Y35721D01*
X52455Y35739D01*
X52479Y35753D01*
X52501Y35765D01*
X52521Y35773D01*
X52529Y35776D01*
X52536Y35778D01*
X52542Y35780D01*
X52546Y35781D01*
X52548Y35782D01*
X52549D01*
X52568Y35729D01*
X52543Y35718D01*
X52521Y35706D01*
X52502Y35694D01*
X52487Y35681D01*
X52474Y35670D01*
X52465Y35662D01*
X52460Y35655D01*
X52458Y35654D01*
Y35653D01*
X52444Y35634D01*
X52435Y35615D01*
X52427Y35595D01*
X52423Y35577D01*
X52420Y35561D01*
X52419Y35554D01*
Y35548D01*
X52418Y35543D01*
Y35537D01*
X52419Y35520D01*
X52421Y35504D01*
X52423Y35490D01*
X52427Y35475D01*
X52437Y35450D01*
X52443Y35440D01*
X52448Y35429D01*
X52453Y35420D01*
X52460Y35413D01*
X52465Y35405D01*
X52469Y35400D01*
X52473Y35396D01*
X52476Y35393D01*
X52477Y35391D01*
X52478Y35390D01*
X52491Y35380D01*
X52504Y35372D01*
X52519Y35364D01*
X52536Y35358D01*
X52568Y35348D01*
X52600Y35342D01*
X52616Y35339D01*
X52629Y35338D01*
X52643Y35337D01*
X52654Y35336D01*
X52664Y35335D01*
X52670D01*
X52675D01*
X52676D01*
Y35800D01*
X52713Y35799D01*
D02*
G37*
G36*
X51284Y34888D02*
X51945D01*
Y34807D01*
X51269Y34381D01*
X51221D01*
Y34766D01*
X51046D01*
X51034Y34765D01*
X51025Y34764D01*
X51017Y34761D01*
X51010Y34759D01*
X51005Y34756D01*
X51002Y34753D01*
X51000Y34752D01*
X50999Y34751D01*
X50995Y34743D01*
X50992Y34735D01*
X50988Y34716D01*
X50987Y34708D01*
X50986Y34701D01*
Y34616D01*
X50923D01*
Y35025D01*
X50986D01*
Y34959D01*
X50987Y34946D01*
X50988Y34936D01*
X50991Y34927D01*
X50993Y34919D01*
X50995Y34913D01*
X50997Y34909D01*
X50999Y34907D01*
Y34906D01*
X51005Y34900D01*
X51012Y34895D01*
X51020Y34892D01*
X51027Y34890D01*
X51034Y34889D01*
X51041Y34888D01*
X51045D01*
X51046D01*
X51221D01*
Y35043D01*
X51284D01*
Y34888D01*
D02*
G37*
G36*
X53843Y35119D02*
X53844Y35114D01*
X53845Y35107D01*
X53846Y35103D01*
X53847Y35101D01*
X53853Y35098D01*
X53860Y35096D01*
X53866Y35095D01*
X53867D01*
X53868D01*
X54306D01*
X54329Y35094D01*
X54351Y35091D01*
X54370Y35086D01*
X54387Y35081D01*
X54400Y35074D01*
X54410Y35070D01*
X54416Y35066D01*
X54418Y35065D01*
X54426Y35059D01*
X54434Y35053D01*
X54444Y35036D01*
X54452Y35018D01*
X54459Y35002D01*
X54462Y34985D01*
X54463Y34978D01*
Y34971D01*
X54464Y34966D01*
Y34959D01*
X54463Y34942D01*
X54461Y34928D01*
X54456Y34913D01*
X54452Y34901D01*
X54448Y34890D01*
X54444Y34882D01*
X54442Y34877D01*
X54441Y34875D01*
X54431Y34861D01*
X54422Y34850D01*
X54412Y34841D01*
X54401Y34835D01*
X54392Y34831D01*
X54385Y34828D01*
X54379Y34826D01*
X54377D01*
X54391Y34824D01*
X54403Y34819D01*
X54414Y34814D01*
X54423Y34808D01*
X54430Y34802D01*
X54436Y34795D01*
X54439Y34791D01*
X54440Y34790D01*
X54448Y34777D01*
X54453Y34762D01*
X54458Y34748D01*
X54461Y34733D01*
X54463Y34720D01*
X54464Y34710D01*
Y34701D01*
X54463Y34684D01*
X54461Y34669D01*
X54456Y34655D01*
X54452Y34642D01*
X54448Y34633D01*
X54444Y34625D01*
X54442Y34621D01*
X54441Y34618D01*
X54431Y34606D01*
X54422Y34597D01*
X54412Y34589D01*
X54401Y34585D01*
X54392Y34582D01*
X54385Y34580D01*
X54379Y34579D01*
X54475D01*
Y34547D01*
X54467Y34531D01*
X54462Y34515D01*
X54460Y34509D01*
X54459Y34504D01*
X54458Y34501D01*
Y34500D01*
X54454Y34480D01*
X54453Y34471D01*
Y34461D01*
X54452Y34454D01*
Y34411D01*
X54389D01*
Y34451D01*
X54388Y34458D01*
X54387Y34462D01*
X54386Y34464D01*
X54385Y34465D01*
X54380Y34468D01*
X54375Y34469D01*
X54370D01*
X54369D01*
X54368D01*
X53868D01*
X53859Y34468D01*
X53852Y34465D01*
X53849Y34462D01*
X53847Y34461D01*
X53846Y34458D01*
X53845Y34455D01*
X53844Y34447D01*
X53843Y34440D01*
Y34411D01*
X53780D01*
Y34636D01*
X53843D01*
Y34603D01*
X53844Y34598D01*
X53845Y34590D01*
X53846Y34586D01*
X53847Y34585D01*
X53853Y34582D01*
X53860Y34580D01*
X53866Y34579D01*
X53867D01*
X53868D01*
X54286D01*
X54304Y34585D01*
X54320Y34591D01*
X54333Y34599D01*
X54344Y34606D01*
X54352Y34612D01*
X54359Y34617D01*
X54362Y34621D01*
X54363Y34622D01*
X54371Y34632D01*
X54377Y34643D01*
X54383Y34654D01*
X54386Y34663D01*
X54388Y34671D01*
X54389Y34678D01*
Y34683D01*
X54388Y34691D01*
X54386Y34699D01*
X54383Y34705D01*
X54378Y34710D01*
X54374Y34713D01*
X54371Y34715D01*
X54369Y34717D01*
X54368D01*
X54360Y34720D01*
X54349Y34723D01*
X54326Y34726D01*
X54316Y34727D01*
X54308D01*
X54301D01*
X54300D01*
X54299D01*
X53868D01*
X53859Y34726D01*
X53852Y34724D01*
X53849Y34720D01*
X53847Y34719D01*
X53846Y34716D01*
X53845Y34713D01*
X53844Y34705D01*
X53843Y34699D01*
Y34669D01*
X53780D01*
Y34894D01*
X53843D01*
Y34861D01*
X53844Y34856D01*
X53845Y34849D01*
X53846Y34844D01*
X53847Y34843D01*
X53853Y34840D01*
X53860Y34838D01*
X53866Y34837D01*
X53867D01*
X53868D01*
X54292D01*
X54308Y34843D01*
X54322Y34850D01*
X54334Y34857D01*
X54344Y34864D01*
X54352Y34870D01*
X54358Y34876D01*
X54362Y34879D01*
X54363Y34880D01*
X54371Y34890D01*
X54377Y34902D01*
X54383Y34912D01*
X54386Y34921D01*
X54388Y34929D01*
X54389Y34936D01*
Y34941D01*
X54388Y34948D01*
X54387Y34955D01*
X54382Y34965D01*
X54375Y34971D01*
X54374Y34973D01*
X54373D01*
X54366Y34978D01*
X54356Y34980D01*
X54343Y34982D01*
X54331Y34984D01*
X54319D01*
X54309Y34985D01*
X54304D01*
X54301D01*
X54300D01*
X54299D01*
X53868D01*
X53859Y34984D01*
X53852Y34982D01*
X53849Y34979D01*
X53847Y34978D01*
X53846Y34974D01*
X53845Y34971D01*
X53844Y34963D01*
X53843Y34957D01*
Y34928D01*
X53780D01*
Y35152D01*
X53843D01*
Y35119D01*
D02*
G37*
G36*
X52619Y35036D02*
X52599Y35030D01*
X52580Y35023D01*
X52564Y35016D01*
X52548Y35009D01*
X52534Y35002D01*
X52521Y34994D01*
X52510Y34987D01*
X52499Y34981D01*
X52491Y34974D01*
X52484Y34968D01*
X52476Y34963D01*
X52472Y34959D01*
X52468Y34955D01*
X52465Y34952D01*
X52464Y34951D01*
X52463Y34949D01*
X52454Y34939D01*
X52448Y34929D01*
X52437Y34907D01*
X52429Y34885D01*
X52423Y34865D01*
X52420Y34847D01*
X52419Y34840D01*
Y34833D01*
X52418Y34828D01*
Y34665D01*
X52419Y34654D01*
X52422Y34646D01*
X52424Y34640D01*
X52425Y34638D01*
X52433Y34633D01*
X52440Y34631D01*
X52446Y34630D01*
X52448D01*
X52449D01*
X53270D01*
X53280Y34631D01*
X53288Y34635D01*
X53292Y34638D01*
X53293Y34639D01*
X53299Y34648D01*
X53301Y34656D01*
X53302Y34662D01*
Y34722D01*
X53365D01*
Y34416D01*
X53302D01*
Y34476D01*
X53301Y34483D01*
X53300Y34488D01*
X53298Y34492D01*
X53297Y34496D01*
X53295Y34498D01*
X53293Y34500D01*
X53286Y34505D01*
X53279Y34507D01*
X53273Y34508D01*
X53271D01*
X53270D01*
X52449D01*
X52438Y34507D01*
X52430Y34505D01*
X52425Y34502D01*
X52424Y34501D01*
X52422Y34498D01*
X52421Y34494D01*
X52419Y34483D01*
X52418Y34478D01*
Y34416D01*
X52354D01*
Y35035D01*
X52601Y35090D01*
X52619Y35036D01*
D02*
G37*
G36*
X53843Y34346D02*
X53845Y34334D01*
X53849Y34325D01*
X53852Y34318D01*
X53854Y34317D01*
Y34316D01*
X53859Y34310D01*
X53865Y34306D01*
X53879Y34299D01*
X53885Y34296D01*
X53889Y34294D01*
X53893Y34292D01*
X53894D01*
X54815Y34070D01*
X54781Y33960D01*
X53894Y33735D01*
X53884Y33733D01*
X53876Y33729D01*
X53868Y33726D01*
X53863Y33723D01*
X53859Y33720D01*
X53856Y33718D01*
X53855Y33717D01*
X53854Y33716D01*
X53847Y33705D01*
X53844Y33696D01*
Y33692D01*
X53843Y33689D01*
Y33654D01*
X53780D01*
Y33897D01*
X53843D01*
Y33864D01*
X53844Y33853D01*
X53847Y33845D01*
X53851Y33839D01*
X53856Y33834D01*
X53860Y33829D01*
X53863Y33827D01*
X53866Y33825D01*
X53867D01*
X53878Y33823D01*
X53888Y33822D01*
X53900D01*
X53911Y33823D01*
X53920Y33824D01*
X53929Y33825D01*
X53934Y33826D01*
X53936D01*
X54147Y33880D01*
Y34106D01*
X53906Y34164D01*
X53893Y34167D01*
X53883Y34169D01*
X53874Y34170D01*
X53867Y34171D01*
X53862Y34170D01*
X53859D01*
X53857Y34169D01*
X53856D01*
X53852Y34166D01*
X53849Y34161D01*
X53845Y34152D01*
X53844Y34147D01*
X53843Y34143D01*
Y34101D01*
X53780D01*
Y34379D01*
X53843D01*
Y34346D01*
D02*
G37*
G36*
X51475Y34269D02*
X51516Y34266D01*
X51555Y34261D01*
X51591Y34256D01*
X51625Y34250D01*
X51656Y34242D01*
X51684Y34234D01*
X51709Y34226D01*
X51732Y34218D01*
X51752Y34210D01*
X51768Y34203D01*
X51783Y34196D01*
X51793Y34191D01*
X51802Y34186D01*
X51806Y34183D01*
X51808Y34182D01*
X51832Y34166D01*
X51854Y34148D01*
X51871Y34130D01*
X51887Y34111D01*
X51900Y34093D01*
X51912Y34074D01*
X51921Y34056D01*
X51929Y34039D01*
X51934Y34023D01*
X51938Y34008D01*
X51941Y33995D01*
X51943Y33983D01*
X51944Y33974D01*
X51945Y33967D01*
Y33961D01*
X51943Y33935D01*
X51939Y33911D01*
X51932Y33888D01*
X51922Y33866D01*
X51912Y33846D01*
X51899Y33827D01*
X51887Y33810D01*
X51873Y33794D01*
X51860Y33780D01*
X51847Y33768D01*
X51835Y33758D01*
X51824Y33749D01*
X51815Y33743D01*
X51808Y33738D01*
X51804Y33735D01*
X51802Y33734D01*
X51773Y33719D01*
X51744Y33705D01*
X51714Y33694D01*
X51684Y33685D01*
X51653Y33676D01*
X51621Y33669D01*
X51591Y33664D01*
X51563Y33659D01*
X51536Y33656D01*
X51511Y33652D01*
X51488Y33651D01*
X51468Y33649D01*
X51453D01*
X51447Y33648D01*
X51441D01*
X51437D01*
X51434D01*
X51432D01*
X51431D01*
X51386Y33649D01*
X51343Y33652D01*
X51304Y33657D01*
X51267Y33662D01*
X51233Y33669D01*
X51202Y33676D01*
X51173Y33685D01*
X51148Y33693D01*
X51124Y33700D01*
X51104Y33709D01*
X51087Y33716D01*
X51073Y33723D01*
X51062Y33728D01*
X51054Y33733D01*
X51050Y33736D01*
X51048Y33737D01*
X51024Y33754D01*
X51003Y33772D01*
X50984Y33791D01*
X50969Y33810D01*
X50956Y33828D01*
X50945Y33847D01*
X50935Y33865D01*
X50928Y33882D01*
X50923Y33898D01*
X50919Y33914D01*
X50916Y33926D01*
X50914Y33939D01*
X50912Y33948D01*
X50911Y33954D01*
Y33961D01*
X50914Y33986D01*
X50918Y34009D01*
X50924Y34031D01*
X50933Y34052D01*
X50944Y34072D01*
X50955Y34091D01*
X50969Y34107D01*
X50981Y34122D01*
X50995Y34135D01*
X51007Y34148D01*
X51019Y34158D01*
X51029Y34167D01*
X51038Y34174D01*
X51045Y34178D01*
X51050Y34181D01*
X51051Y34182D01*
X51078Y34198D01*
X51107Y34211D01*
X51138Y34223D01*
X51170Y34233D01*
X51202Y34242D01*
X51233Y34249D01*
X51264Y34254D01*
X51294Y34259D01*
X51322Y34262D01*
X51348Y34266D01*
X51372Y34267D01*
X51391Y34269D01*
X51408D01*
X51414Y34270D01*
X51420D01*
X51425D01*
X51428D01*
X51430D01*
X51431D01*
X51475Y34269D01*
D02*
G37*
G36*
X53843Y33555D02*
X53844Y33551D01*
X53845Y33547D01*
X53850Y33537D01*
X53852Y33533D01*
X53853Y33529D01*
X53855Y33526D01*
Y33525D01*
X53860Y33517D01*
X53866Y33511D01*
X53879Y33498D01*
X53884Y33494D01*
X53889Y33491D01*
X53892Y33489D01*
X53893Y33488D01*
X54149Y33331D01*
X54372Y33482D01*
X54379Y33489D01*
X54384Y33496D01*
X54386Y33501D01*
Y33504D01*
X54388Y33513D01*
X54389Y33520D01*
Y33571D01*
X54452D01*
Y33313D01*
X54389D01*
Y33371D01*
X54388Y33379D01*
X54387Y33384D01*
X54385Y33387D01*
X54384Y33389D01*
X54382Y33390D01*
X54380Y33391D01*
X54377D01*
X54372Y33390D01*
X54363Y33385D01*
X54359Y33383D01*
X54354Y33380D01*
X54352Y33379D01*
X54351Y33378D01*
X54208Y33289D01*
X54351Y33210D01*
X54358Y33207D01*
X54363Y33205D01*
X54371Y33203D01*
X54376D01*
X54378D01*
X54382Y33205D01*
X54385Y33208D01*
X54388Y33215D01*
X54389Y33221D01*
Y33258D01*
X54452D01*
Y32979D01*
X54389D01*
Y33030D01*
X54387Y33037D01*
X54385Y33043D01*
X54383Y33049D01*
X54380Y33053D01*
X54378Y33056D01*
X54377Y33057D01*
X54376Y33058D01*
X54368Y33067D01*
X54362Y33074D01*
X54358Y33077D01*
X54356Y33078D01*
X54122Y33227D01*
X53905Y33078D01*
X53893Y33072D01*
X53884Y33065D01*
X53876Y33058D01*
X53869Y33052D01*
X53864Y33045D01*
X53861Y33041D01*
X53859Y33038D01*
X53858Y33037D01*
X53853Y33028D01*
X53850Y33019D01*
X53846Y33012D01*
X53845Y33006D01*
X53844Y33001D01*
X53843Y32997D01*
Y32945D01*
X53780D01*
Y33202D01*
X53843D01*
Y33168D01*
X53844Y33159D01*
X53846Y33153D01*
X53847Y33150D01*
X53849Y33149D01*
X53852Y33148D01*
X53855Y33146D01*
X53864Y33148D01*
X53868D01*
X53871D01*
X53874Y33149D01*
X53875D01*
X54064Y33267D01*
X53879Y33375D01*
X53872Y33379D01*
X53866Y33381D01*
X53858Y33383D01*
X53854D01*
X53852D01*
X53849Y33382D01*
X53846Y33379D01*
X53844Y33371D01*
X53843Y33367D01*
Y33311D01*
X53780D01*
Y33594D01*
X53843D01*
Y33555D01*
D02*
G37*
G36*
X53027Y33311D02*
X52963D01*
Y33365D01*
X52961Y33370D01*
X52958Y33379D01*
X52954Y33384D01*
X52953Y33386D01*
X52952D01*
X52948Y33389D01*
X52943Y33391D01*
X52936D01*
X52931D01*
X52927Y33390D01*
X52923Y33388D01*
X52921Y33387D01*
X52920D01*
X52547Y33262D01*
X52924Y33139D01*
X52931Y33138D01*
X52937D01*
X52943D01*
X52947Y33139D01*
X52952Y33141D01*
X52954Y33142D01*
X52959Y33149D01*
X52962Y33157D01*
X52963Y33163D01*
Y33204D01*
X53027D01*
Y32933D01*
X52963D01*
Y32977D01*
X52961Y32983D01*
X52957Y32993D01*
X52955Y32998D01*
X52953Y33001D01*
X52952Y33003D01*
X52951Y33004D01*
X52947Y33009D01*
X52942Y33014D01*
X52932Y33021D01*
X52928Y33023D01*
X52925Y33024D01*
X52923Y33025D01*
X52922D01*
X52419Y33219D01*
X52387Y33211D01*
X52372Y33207D01*
X52359Y33203D01*
X52347Y33199D01*
X52338Y33196D01*
X52333Y33194D01*
X52332Y33193D01*
X52331D01*
X52315Y33188D01*
X52300Y33182D01*
X52288Y33178D01*
X52278Y33174D01*
X52271Y33170D01*
X52265Y33167D01*
X52262Y33166D01*
X52261Y33165D01*
X52255Y33160D01*
X52250Y33156D01*
X52249Y33152D01*
X52248Y33151D01*
X52246Y33144D01*
X52245Y33136D01*
Y33128D01*
X52246Y33125D01*
X52248Y33122D01*
X52256Y33111D01*
X52260Y33107D01*
X52263Y33103D01*
X52265Y33100D01*
X52266Y33099D01*
X52272Y33090D01*
X52277Y33081D01*
X52281Y33073D01*
X52284Y33064D01*
X52285Y33057D01*
X52286Y33052D01*
Y33047D01*
X52285Y33034D01*
X52283Y33023D01*
X52278Y33013D01*
X52275Y33005D01*
X52271Y33000D01*
X52267Y32994D01*
X52265Y32992D01*
X52264Y32991D01*
X52256Y32985D01*
X52248Y32981D01*
X52241Y32978D01*
X52234Y32976D01*
X52229Y32975D01*
X52224Y32974D01*
X52221D01*
X52220D01*
X52207Y32975D01*
X52196Y32978D01*
X52186Y32982D01*
X52179Y32987D01*
X52172Y32992D01*
X52168Y32997D01*
X52166Y33000D01*
X52165Y33001D01*
X52159Y33012D01*
X52155Y33024D01*
X52151Y33036D01*
X52149Y33048D01*
X52148Y33058D01*
X52147Y33066D01*
Y33074D01*
X52148Y33087D01*
X52149Y33101D01*
X52156Y33125D01*
X52164Y33145D01*
X52174Y33163D01*
X52184Y33177D01*
X52192Y33187D01*
X52198Y33193D01*
X52199Y33195D01*
X52200D01*
X52221Y33212D01*
X52244Y33227D01*
X52268Y33240D01*
X52290Y33251D01*
X52311Y33260D01*
X52319Y33263D01*
X52326Y33266D01*
X52333Y33268D01*
X52337Y33270D01*
X52340Y33271D01*
X52341D01*
X52909Y33466D01*
X52919Y33470D01*
X52926Y33475D01*
X52933Y33480D01*
X52938Y33485D01*
X52943Y33489D01*
X52946Y33492D01*
X52948Y33494D01*
X52949Y33495D01*
X52954Y33503D01*
X52957Y33510D01*
X52961Y33521D01*
X52962Y33525D01*
X52963Y33529D01*
Y33583D01*
X53027D01*
Y33311D01*
D02*
G37*
G36*
X51021Y33128D02*
X51034Y33124D01*
X51046Y33119D01*
X51056Y33113D01*
X51064Y33108D01*
X51071Y33103D01*
X51075Y33099D01*
X51076Y33098D01*
X51086Y33086D01*
X51094Y33074D01*
X51100Y33062D01*
X51103Y33051D01*
X51105Y33041D01*
X51107Y33034D01*
Y33027D01*
X51106Y33012D01*
X51103Y33000D01*
X51099Y32987D01*
X51094Y32977D01*
X51088Y32968D01*
X51084Y32962D01*
X51081Y32958D01*
X51080Y32957D01*
X51070Y32947D01*
X51057Y32939D01*
X51045Y32934D01*
X51033Y32931D01*
X51023Y32929D01*
X51013Y32927D01*
X51008D01*
X51007D01*
X51006D01*
X50990Y32928D01*
X50975Y32932D01*
X50962Y32936D01*
X50952Y32942D01*
X50944Y32948D01*
X50937Y32953D01*
X50933Y32956D01*
X50932Y32957D01*
X50924Y32968D01*
X50918Y32981D01*
X50912Y32992D01*
X50909Y33003D01*
X50907Y33012D01*
X50906Y33021D01*
Y33027D01*
X50907Y33041D01*
X50910Y33055D01*
X50915Y33067D01*
X50920Y33078D01*
X50925Y33086D01*
X50929Y33092D01*
X50932Y33097D01*
X50933Y33098D01*
X50945Y33108D01*
X50956Y33115D01*
X50969Y33122D01*
X50980Y33125D01*
X50991Y33127D01*
X50999Y33129D01*
X51004D01*
X51006D01*
X51021Y33128D01*
D02*
G37*
G36*
X54140Y32836D02*
X54164Y32834D01*
X54187Y32830D01*
X54209Y32824D01*
X54230Y32818D01*
X54248Y32810D01*
X54267Y32803D01*
X54284Y32796D01*
X54299Y32787D01*
X54314Y32780D01*
X54325Y32773D01*
X54336Y32767D01*
X54344Y32761D01*
X54349Y32757D01*
X54353Y32754D01*
X54354Y32753D01*
X54374Y32736D01*
X54391Y32719D01*
X54405Y32701D01*
X54418Y32681D01*
X54428Y32662D01*
X54437Y32644D01*
X54444Y32625D01*
X54450Y32606D01*
X54454Y32590D01*
X54458Y32574D01*
X54461Y32559D01*
X54462Y32547D01*
X54463Y32536D01*
X54464Y32529D01*
Y32523D01*
X54463Y32498D01*
X54460Y32474D01*
X54453Y32451D01*
X54447Y32429D01*
X54439Y32409D01*
X54429Y32391D01*
X54420Y32374D01*
X54410Y32358D01*
X54399Y32344D01*
X54390Y32332D01*
X54380Y32322D01*
X54372Y32313D01*
X54366Y32306D01*
X54361Y32301D01*
X54357Y32298D01*
X54356Y32297D01*
X54335Y32281D01*
X54314Y32269D01*
X54293Y32257D01*
X54272Y32247D01*
X54252Y32239D01*
X54233Y32231D01*
X54213Y32226D01*
X54195Y32221D01*
X54179Y32218D01*
X54163Y32215D01*
X54149Y32214D01*
X54138Y32212D01*
X54129D01*
X54122Y32211D01*
X54117D01*
X54116D01*
X54090Y32212D01*
X54064Y32215D01*
X54040Y32219D01*
X54017Y32224D01*
X53995Y32230D01*
X53976Y32238D01*
X53957Y32246D01*
X53939Y32254D01*
X53923Y32262D01*
X53910Y32270D01*
X53899Y32277D01*
X53889Y32283D01*
X53881Y32289D01*
X53876Y32293D01*
X53871Y32296D01*
X53870Y32297D01*
X53853Y32314D01*
X53837Y32331D01*
X53824Y32350D01*
X53811Y32369D01*
X53802Y32389D01*
X53793Y32407D01*
X53786Y32425D01*
X53781Y32443D01*
X53777Y32459D01*
X53774Y32475D01*
X53771Y32489D01*
X53770Y32500D01*
X53769Y32509D01*
X53768Y32517D01*
Y32523D01*
X53769Y32548D01*
X53773Y32571D01*
X53778Y32593D01*
X53784Y32615D01*
X53791Y32634D01*
X53800Y32652D01*
X53809Y32670D01*
X53818Y32685D01*
X53827Y32699D01*
X53836Y32711D01*
X53844Y32722D01*
X53852Y32730D01*
X53858Y32737D01*
X53863Y32743D01*
X53866Y32746D01*
X53867Y32747D01*
X53886Y32762D01*
X53907Y32777D01*
X53927Y32788D01*
X53947Y32799D01*
X53969Y32808D01*
X53989Y32815D01*
X54010Y32822D01*
X54029Y32826D01*
X54047Y32830D01*
X54063Y32832D01*
X54079Y32834D01*
X54091Y32836D01*
X54101D01*
X54110Y32837D01*
X54114D01*
X54116D01*
X54140Y32836D01*
D02*
G37*
G36*
X51934Y32212D02*
X51665Y32170D01*
X51658Y32230D01*
X51673Y32235D01*
X51688Y32239D01*
X51702Y32243D01*
X51714Y32247D01*
X51726Y32251D01*
X51736Y32256D01*
X51744Y32261D01*
X51753Y32265D01*
X51766Y32272D01*
X51774Y32278D01*
X51780Y32282D01*
X51782Y32283D01*
X51794Y32297D01*
X51803Y32313D01*
X51809Y32327D01*
X51814Y32342D01*
X51816Y32354D01*
X51817Y32365D01*
X51818Y32369D01*
Y32646D01*
X51785Y32626D01*
X51753Y32608D01*
X51721Y32591D01*
X51691Y32574D01*
X51662Y32558D01*
X51634Y32544D01*
X51608Y32529D01*
X51582Y32516D01*
X51558Y32503D01*
X51535Y32492D01*
X51512Y32481D01*
X51491Y32471D01*
X51472Y32462D01*
X51453Y32452D01*
X51435Y32444D01*
X51418Y32437D01*
X51403Y32429D01*
X51388Y32423D01*
X51375Y32418D01*
X51362Y32413D01*
X51340Y32403D01*
X51323Y32397D01*
X51309Y32392D01*
X51299Y32388D01*
X51294Y32387D01*
X51291Y32386D01*
X51261Y32377D01*
X51233Y32370D01*
X51206Y32363D01*
X51180Y32357D01*
X51156Y32352D01*
X51133Y32349D01*
X51112Y32345D01*
X51094Y32343D01*
X51077Y32341D01*
X51061Y32340D01*
X51049Y32338D01*
X51037D01*
X51029Y32337D01*
X51023D01*
X51019D01*
X51018D01*
X50998Y32338D01*
X50980Y32341D01*
X50966Y32344D01*
X50955Y32349D01*
X50946Y32353D01*
X50941Y32356D01*
X50936Y32359D01*
X50935Y32361D01*
X50927Y32370D01*
X50922Y32380D01*
X50918Y32390D01*
X50915Y32399D01*
X50912Y32407D01*
X50911Y32414D01*
Y32420D01*
X50912Y32434D01*
X50915Y32447D01*
X50919Y32457D01*
X50923Y32466D01*
X50926Y32472D01*
X50930Y32477D01*
X50932Y32479D01*
X50933Y32480D01*
X50943Y32486D01*
X50954Y32491D01*
X50966Y32495D01*
X50978Y32497D01*
X50988Y32498D01*
X50998Y32499D01*
X51004D01*
X51005D01*
X51006D01*
X51026D01*
X51045D01*
X51060Y32498D01*
X51075D01*
X51086Y32497D01*
X51096D01*
X51101Y32496D01*
X51103D01*
X51119Y32495D01*
X51132Y32494D01*
X51145D01*
X51154Y32493D01*
X51162D01*
X51168D01*
X51172D01*
X51173D01*
X51199Y32494D01*
X51226Y32496D01*
X51253Y32499D01*
X51280Y32504D01*
X51333Y32516D01*
X51359Y32522D01*
X51383Y32528D01*
X51406Y32534D01*
X51427Y32542D01*
X51445Y32547D01*
X51461Y32552D01*
X51475Y32557D01*
X51484Y32560D01*
X51490Y32562D01*
X51492Y32564D01*
X51527Y32577D01*
X51562Y32593D01*
X51630Y32624D01*
X51663Y32640D01*
X51694Y32656D01*
X51724Y32672D01*
X51753Y32687D01*
X51779Y32701D01*
X51803Y32714D01*
X51823Y32727D01*
X51841Y32737D01*
X51855Y32746D01*
X51866Y32752D01*
X51869Y32754D01*
X51872Y32756D01*
X51873Y32757D01*
X51874D01*
X51934D01*
Y32212D01*
D02*
G37*
G36*
X52656Y32831D02*
X52689Y32826D01*
X52719Y32818D01*
X52732Y32813D01*
X52745Y32809D01*
X52755Y32804D01*
X52766Y32800D01*
X52775Y32796D01*
X52782Y32792D01*
X52788Y32788D01*
X52793Y32786D01*
X52795Y32785D01*
X52796Y32784D01*
X52810Y32774D01*
X52823Y32762D01*
X52835Y32750D01*
X52846Y32736D01*
X52856Y32722D01*
X52865Y32707D01*
X52880Y32678D01*
X52885Y32664D01*
X52891Y32651D01*
X52895Y32640D01*
X52898Y32629D01*
X52901Y32621D01*
X52903Y32613D01*
X52904Y32609D01*
Y32608D01*
X52909Y32627D01*
X52916Y32645D01*
X52922Y32660D01*
X52928Y32674D01*
X52935Y32687D01*
X52942Y32699D01*
X52949Y32709D01*
X52955Y32719D01*
X52961Y32726D01*
X52968Y32732D01*
X52973Y32738D01*
X52977Y32743D01*
X52981Y32746D01*
X52984Y32748D01*
X52985Y32750D01*
X52986D01*
X53008Y32762D01*
X53031Y32772D01*
X53055Y32778D01*
X53077Y32783D01*
X53097Y32785D01*
X53105Y32786D01*
X53112D01*
X53119Y32787D01*
X53123D01*
X53126D01*
X53127D01*
X53149Y32786D01*
X53170Y32784D01*
X53188Y32781D01*
X53206Y32776D01*
X53222Y32771D01*
X53236Y32764D01*
X53250Y32758D01*
X53262Y32751D01*
X53273Y32745D01*
X53281Y32737D01*
X53289Y32731D01*
X53295Y32726D01*
X53300Y32721D01*
X53303Y32718D01*
X53305Y32716D01*
X53306Y32714D01*
X53316Y32700D01*
X53326Y32684D01*
X53333Y32668D01*
X53340Y32650D01*
X53347Y32631D01*
X53351Y32613D01*
X53358Y32578D01*
X53360Y32561D01*
X53362Y32546D01*
X53363Y32532D01*
X53364Y32520D01*
X53365Y32509D01*
Y32142D01*
X53302D01*
Y32204D01*
X53301Y32212D01*
X53300Y32218D01*
X53298Y32223D01*
X53297Y32226D01*
X53295Y32228D01*
X53293Y32230D01*
X53286Y32236D01*
X53279Y32239D01*
X53273Y32240D01*
X53271D01*
X53270D01*
X52449D01*
X52438Y32239D01*
X52430Y32236D01*
X52425Y32232D01*
X52424Y32231D01*
X52422Y32228D01*
X52421Y32224D01*
X52419Y32214D01*
X52418Y32210D01*
Y32142D01*
X52354D01*
Y32518D01*
X52356Y32544D01*
X52358Y32569D01*
X52361Y32593D01*
X52366Y32615D01*
X52371Y32635D01*
X52377Y32654D01*
X52385Y32672D01*
X52391Y32687D01*
X52398Y32701D01*
X52404Y32713D01*
X52411Y32724D01*
X52416Y32732D01*
X52421Y32739D01*
X52424Y32744D01*
X52426Y32747D01*
X52427Y32748D01*
X52442Y32762D01*
X52456Y32776D01*
X52472Y32787D01*
X52489Y32797D01*
X52504Y32805D01*
X52521Y32812D01*
X52537Y32818D01*
X52551Y32823D01*
X52566Y32826D01*
X52579Y32829D01*
X52591Y32831D01*
X52601Y32832D01*
X52610D01*
X52616Y32833D01*
X52620D01*
X52621D01*
X52639D01*
X52656Y32831D01*
D02*
G37*
G36*
X54082Y32103D02*
X54114Y32098D01*
X54144Y32090D01*
X54158Y32086D01*
X54170Y32082D01*
X54181Y32076D01*
X54191Y32072D01*
X54200Y32068D01*
X54208Y32064D01*
X54213Y32061D01*
X54218Y32059D01*
X54220Y32058D01*
X54221Y32057D01*
X54236Y32046D01*
X54248Y32035D01*
X54261Y32022D01*
X54271Y32009D01*
X54282Y31994D01*
X54290Y31980D01*
X54306Y31950D01*
X54311Y31937D01*
X54316Y31923D01*
X54320Y31912D01*
X54323Y31901D01*
X54326Y31893D01*
X54328Y31886D01*
X54329Y31882D01*
Y31881D01*
X54335Y31899D01*
X54341Y31917D01*
X54347Y31933D01*
X54353Y31946D01*
X54361Y31960D01*
X54367Y31971D01*
X54374Y31982D01*
X54380Y31991D01*
X54387Y31998D01*
X54393Y32004D01*
X54398Y32011D01*
X54402Y32015D01*
X54406Y32018D01*
X54410Y32020D01*
X54411Y32022D01*
X54412D01*
X54434Y32035D01*
X54456Y32044D01*
X54480Y32050D01*
X54502Y32056D01*
X54522Y32058D01*
X54530Y32059D01*
X54538D01*
X54544Y32060D01*
X54548D01*
X54551D01*
X54552D01*
X54574Y32059D01*
X54595Y32057D01*
X54614Y32053D01*
X54631Y32048D01*
X54647Y32043D01*
X54662Y32037D01*
X54675Y32031D01*
X54688Y32023D01*
X54698Y32017D01*
X54706Y32010D01*
X54715Y32003D01*
X54720Y31998D01*
X54725Y31993D01*
X54728Y31990D01*
X54730Y31988D01*
X54731Y31987D01*
X54742Y31972D01*
X54751Y31957D01*
X54758Y31940D01*
X54766Y31922D01*
X54772Y31904D01*
X54776Y31886D01*
X54783Y31850D01*
X54785Y31834D01*
X54788Y31818D01*
X54789Y31805D01*
X54790Y31792D01*
X54791Y31782D01*
Y31414D01*
X54727D01*
Y31477D01*
X54726Y31484D01*
X54725Y31490D01*
X54723Y31495D01*
X54722Y31499D01*
X54720Y31501D01*
X54719Y31503D01*
X54712Y31508D01*
X54704Y31511D01*
X54698Y31512D01*
X54696D01*
X54695D01*
X53875D01*
X53863Y31511D01*
X53856Y31508D01*
X53851Y31505D01*
X53850Y31504D01*
X53847Y31501D01*
X53846Y31496D01*
X53844Y31486D01*
X53843Y31482D01*
Y31414D01*
X53780D01*
Y31790D01*
X53781Y31816D01*
X53783Y31841D01*
X53786Y31865D01*
X53791Y31887D01*
X53796Y31908D01*
X53803Y31926D01*
X53810Y31944D01*
X53816Y31960D01*
X53824Y31973D01*
X53830Y31986D01*
X53836Y31996D01*
X53841Y32004D01*
X53846Y32012D01*
X53850Y32016D01*
X53852Y32019D01*
X53853Y32020D01*
X53867Y32035D01*
X53882Y32048D01*
X53897Y32060D01*
X53914Y32069D01*
X53930Y32077D01*
X53946Y32085D01*
X53962Y32090D01*
X53977Y32095D01*
X53991Y32098D01*
X54005Y32101D01*
X54016Y32103D01*
X54027Y32104D01*
X54035D01*
X54041Y32105D01*
X54045D01*
X54046D01*
X54064D01*
X54082Y32103D01*
D02*
G37*
G36*
X51475Y32017D02*
X51516Y32014D01*
X51555Y32010D01*
X51591Y32004D01*
X51625Y31998D01*
X51656Y31990D01*
X51684Y31983D01*
X51709Y31974D01*
X51732Y31966D01*
X51752Y31959D01*
X51768Y31951D01*
X51783Y31944D01*
X51793Y31939D01*
X51802Y31935D01*
X51806Y31932D01*
X51808Y31931D01*
X51832Y31914D01*
X51854Y31896D01*
X51871Y31879D01*
X51887Y31860D01*
X51900Y31841D01*
X51912Y31822D01*
X51921Y31805D01*
X51929Y31787D01*
X51934Y31771D01*
X51938Y31757D01*
X51941Y31743D01*
X51943Y31732D01*
X51944Y31722D01*
X51945Y31715D01*
Y31709D01*
X51943Y31683D01*
X51939Y31659D01*
X51932Y31636D01*
X51922Y31614D01*
X51912Y31594D01*
X51899Y31576D01*
X51887Y31558D01*
X51873Y31542D01*
X51860Y31529D01*
X51847Y31516D01*
X51835Y31506D01*
X51824Y31498D01*
X51815Y31491D01*
X51808Y31486D01*
X51804Y31483D01*
X51802Y31482D01*
X51773Y31467D01*
X51744Y31454D01*
X51714Y31442D01*
X51684Y31433D01*
X51653Y31425D01*
X51621Y31417D01*
X51591Y31412D01*
X51563Y31407D01*
X51536Y31404D01*
X51511Y31401D01*
X51488Y31400D01*
X51468Y31398D01*
X51453D01*
X51447Y31397D01*
X51441D01*
X51437D01*
X51434D01*
X51432D01*
X51431D01*
X51386Y31398D01*
X51343Y31401D01*
X51304Y31405D01*
X51267Y31410D01*
X51233Y31417D01*
X51202Y31425D01*
X51173Y31433D01*
X51148Y31441D01*
X51124Y31449D01*
X51104Y31457D01*
X51087Y31464D01*
X51073Y31472D01*
X51062Y31477D01*
X51054Y31481D01*
X51050Y31484D01*
X51048Y31485D01*
X51024Y31503D01*
X51003Y31520D01*
X50984Y31539D01*
X50969Y31558D01*
X50956Y31577D01*
X50945Y31595D01*
X50935Y31613D01*
X50928Y31631D01*
X50923Y31646D01*
X50919Y31662D01*
X50916Y31675D01*
X50914Y31687D01*
X50912Y31696D01*
X50911Y31703D01*
Y31709D01*
X50914Y31734D01*
X50918Y31758D01*
X50924Y31780D01*
X50933Y31800D01*
X50944Y31820D01*
X50955Y31839D01*
X50969Y31856D01*
X50981Y31870D01*
X50995Y31884D01*
X51007Y31896D01*
X51019Y31907D01*
X51029Y31915D01*
X51038Y31922D01*
X51045Y31926D01*
X51050Y31930D01*
X51051Y31931D01*
X51078Y31946D01*
X51107Y31960D01*
X51138Y31971D01*
X51170Y31982D01*
X51202Y31990D01*
X51233Y31997D01*
X51264Y32002D01*
X51294Y32008D01*
X51322Y32011D01*
X51348Y32014D01*
X51372Y32015D01*
X51391Y32017D01*
X51408D01*
X51414Y32018D01*
X51420D01*
X51425D01*
X51428D01*
X51430D01*
X51431D01*
X51475Y32017D01*
D02*
G37*
G36*
X52952Y31317D02*
X52966Y31313D01*
X52978Y31308D01*
X52988Y31301D01*
X52997Y31293D01*
X53003Y31288D01*
X53007Y31284D01*
X53008Y31282D01*
X53019Y31267D01*
X53026Y31251D01*
X53031Y31235D01*
X53034Y31219D01*
X53037Y31205D01*
X53038Y31194D01*
Y31183D01*
X53037Y31170D01*
X53036Y31156D01*
X53030Y31130D01*
X53022Y31105D01*
X53012Y31083D01*
X53007Y31074D01*
X53003Y31066D01*
X52999Y31058D01*
X52995Y31052D01*
X52992Y31047D01*
X52988Y31043D01*
X52987Y31041D01*
X52986Y31040D01*
X52966Y31016D01*
X52944Y30995D01*
X52920Y30978D01*
X52898Y30965D01*
X52878Y30954D01*
X52870Y30950D01*
X52862Y30947D01*
X52856Y30944D01*
X52852Y30942D01*
X52849Y30941D01*
X53056D01*
Y30904D01*
X53052Y30892D01*
X53048Y30878D01*
X53044Y30864D01*
X53042Y30850D01*
X53038Y30838D01*
X53036Y30828D01*
Y30824D01*
X53035Y30821D01*
Y30819D01*
X53032Y30799D01*
X53030Y30781D01*
X53029Y30766D01*
X53028Y30752D01*
X53027Y30741D01*
Y30664D01*
X52963D01*
Y30799D01*
X52961Y30805D01*
X52960Y30810D01*
X52958Y30815D01*
X52956Y30818D01*
X52955Y30820D01*
X52953Y30822D01*
X52945Y30827D01*
X52936Y30829D01*
X52932Y30830D01*
X52929D01*
X52927D01*
X52926D01*
X52449D01*
X52438Y30829D01*
X52430Y30827D01*
X52425Y30824D01*
X52424Y30823D01*
X52422Y30820D01*
X52421Y30816D01*
X52419Y30805D01*
X52418Y30800D01*
Y30664D01*
X52354D01*
Y31119D01*
X52418D01*
Y30976D01*
X52419Y30965D01*
X52422Y30956D01*
X52424Y30951D01*
X52425Y30949D01*
X52433Y30944D01*
X52440Y30942D01*
X52446Y30941D01*
X52448D01*
X52449D01*
X52756D01*
X52791Y30959D01*
X52806Y30969D01*
X52821Y30978D01*
X52834Y30987D01*
X52847Y30997D01*
X52858Y31005D01*
X52869Y31013D01*
X52878Y31022D01*
X52885Y31029D01*
X52893Y31035D01*
X52898Y31041D01*
X52903Y31045D01*
X52906Y31048D01*
X52907Y31050D01*
X52908Y31051D01*
X52918Y31062D01*
X52927Y31074D01*
X52934Y31084D01*
X52941Y31094D01*
X52950Y31111D01*
X52956Y31126D01*
X52960Y31138D01*
X52962Y31147D01*
X52963Y31152D01*
Y31160D01*
X52962Y31165D01*
X52961Y31170D01*
X52960Y31173D01*
X52958Y31176D01*
X52957Y31177D01*
X52952Y31179D01*
X52946Y31180D01*
X52942D01*
X52941D01*
X52940D01*
X52927Y31179D01*
X52916D01*
X52906Y31181D01*
X52898Y31183D01*
X52891Y31186D01*
X52886Y31188D01*
X52883Y31190D01*
X52882Y31191D01*
X52875Y31199D01*
X52870Y31208D01*
X52866Y31216D01*
X52864Y31226D01*
X52861Y31233D01*
X52860Y31239D01*
Y31246D01*
X52861Y31258D01*
X52864Y31270D01*
X52868Y31279D01*
X52872Y31287D01*
X52875Y31292D01*
X52879Y31298D01*
X52881Y31300D01*
X52882Y31301D01*
X52891Y31307D01*
X52900Y31311D01*
X52909Y31315D01*
X52918Y31317D01*
X52926Y31318D01*
X52932Y31320D01*
X52936D01*
X52937D01*
X52952Y31317D01*
D02*
G37*
G36*
X54140Y31335D02*
X54164Y31333D01*
X54187Y31329D01*
X54209Y31323D01*
X54230Y31316D01*
X54248Y31309D01*
X54267Y31302D01*
X54284Y31295D01*
X54299Y31286D01*
X54314Y31279D01*
X54325Y31272D01*
X54336Y31265D01*
X54344Y31260D01*
X54349Y31256D01*
X54353Y31253D01*
X54354Y31252D01*
X54374Y31235D01*
X54391Y31218D01*
X54405Y31200D01*
X54418Y31180D01*
X54428Y31161D01*
X54437Y31143D01*
X54444Y31124D01*
X54450Y31105D01*
X54454Y31088D01*
X54458Y31073D01*
X54461Y31058D01*
X54462Y31046D01*
X54463Y31035D01*
X54464Y31028D01*
Y31022D01*
X54463Y30997D01*
X54460Y30973D01*
X54453Y30950D01*
X54447Y30928D01*
X54439Y30908D01*
X54429Y30890D01*
X54420Y30873D01*
X54410Y30857D01*
X54399Y30843D01*
X54390Y30831D01*
X54380Y30821D01*
X54372Y30812D01*
X54366Y30805D01*
X54361Y30800D01*
X54357Y30797D01*
X54356Y30796D01*
X54335Y30780D01*
X54314Y30768D01*
X54293Y30756D01*
X54272Y30746D01*
X54252Y30738D01*
X54233Y30730D01*
X54213Y30725D01*
X54195Y30720D01*
X54179Y30717D01*
X54163Y30714D01*
X54149Y30713D01*
X54138Y30711D01*
X54129D01*
X54122Y30710D01*
X54117D01*
X54116D01*
X54090Y30711D01*
X54064Y30714D01*
X54040Y30718D01*
X54017Y30723D01*
X53995Y30729D01*
X53976Y30737D01*
X53957Y30745D01*
X53939Y30753D01*
X53923Y30761D01*
X53910Y30769D01*
X53899Y30776D01*
X53889Y30782D01*
X53881Y30788D01*
X53876Y30792D01*
X53871Y30795D01*
X53870Y30796D01*
X53853Y30813D01*
X53837Y30830D01*
X53824Y30849D01*
X53811Y30868D01*
X53802Y30888D01*
X53793Y30906D01*
X53786Y30924D01*
X53781Y30942D01*
X53777Y30958D01*
X53774Y30974D01*
X53771Y30987D01*
X53770Y30999D01*
X53769Y31008D01*
X53768Y31016D01*
Y31022D01*
X53769Y31047D01*
X53773Y31070D01*
X53778Y31092D01*
X53784Y31113D01*
X53791Y31133D01*
X53800Y31151D01*
X53809Y31169D01*
X53818Y31184D01*
X53827Y31198D01*
X53836Y31210D01*
X53844Y31221D01*
X53852Y31229D01*
X53858Y31236D01*
X53863Y31241D01*
X53866Y31245D01*
X53867Y31246D01*
X53886Y31261D01*
X53907Y31276D01*
X53927Y31287D01*
X53947Y31298D01*
X53969Y31307D01*
X53989Y31314D01*
X54010Y31321D01*
X54029Y31325D01*
X54047Y31329D01*
X54063Y31331D01*
X54079Y31333D01*
X54091Y31335D01*
X54101D01*
X54110Y31336D01*
X54114D01*
X54116D01*
X54140Y31335D01*
D02*
G37*
G36*
X51492Y30623D02*
X51411D01*
Y31290D01*
X51492D01*
Y30623D01*
D02*
G37*
G36*
X54730Y30367D02*
X54742Y30364D01*
X54752Y30359D01*
X54760Y30355D01*
X54768Y30349D01*
X54773Y30344D01*
X54776Y30341D01*
X54777Y30340D01*
X54785Y30330D01*
X54792Y30318D01*
X54796Y30308D01*
X54799Y30298D01*
X54801Y30290D01*
X54802Y30284D01*
Y30277D01*
X54801Y30265D01*
X54798Y30254D01*
X54794Y30243D01*
X54790Y30234D01*
X54785Y30226D01*
X54781Y30221D01*
X54778Y30217D01*
X54777Y30216D01*
X54768Y30207D01*
X54757Y30200D01*
X54748Y30195D01*
X54739Y30192D01*
X54730Y30190D01*
X54724Y30189D01*
X54720D01*
X54718D01*
X54705Y30190D01*
X54694Y30193D01*
X54683Y30197D01*
X54674Y30203D01*
X54667Y30207D01*
X54662Y30211D01*
X54657Y30214D01*
X54656Y30215D01*
X54647Y30225D01*
X54641Y30236D01*
X54636Y30246D01*
X54632Y30257D01*
X54630Y30265D01*
X54629Y30271D01*
Y30277D01*
X54630Y30290D01*
X54633Y30302D01*
X54638Y30313D01*
X54643Y30322D01*
X54648Y30330D01*
X54652Y30335D01*
X54655Y30339D01*
X54656Y30340D01*
X54667Y30349D01*
X54677Y30357D01*
X54688Y30361D01*
X54697Y30365D01*
X54705Y30367D01*
X54712Y30368D01*
X54717D01*
X54718D01*
X54730Y30367D01*
D02*
G37*
G36*
X52713Y30545D02*
X52747Y30543D01*
X52778Y30538D01*
X52806Y30533D01*
X52832Y30526D01*
X52855Y30519D01*
X52876Y30512D01*
X52895Y30503D01*
X52910Y30495D01*
X52924Y30488D01*
X52934Y30480D01*
X52944Y30474D01*
X52951Y30469D01*
X52955Y30465D01*
X52958Y30462D01*
X52959Y30461D01*
X52973Y30444D01*
X52985Y30427D01*
X52996Y30411D01*
X53005Y30393D01*
X53012Y30376D01*
X53019Y30360D01*
X53025Y30343D01*
X53029Y30328D01*
X53032Y30314D01*
X53034Y30300D01*
X53036Y30289D01*
X53037Y30280D01*
X53038Y30271D01*
Y30260D01*
X53037Y30237D01*
X53034Y30214D01*
X53029Y30193D01*
X53023Y30172D01*
X53016Y30154D01*
X53007Y30136D01*
X52998Y30120D01*
X52988Y30105D01*
X52979Y30091D01*
X52970Y30080D01*
X52961Y30069D01*
X52954Y30061D01*
X52948Y30055D01*
X52943Y30050D01*
X52940Y30046D01*
X52938Y30045D01*
X52920Y30030D01*
X52900Y30017D01*
X52879Y30006D01*
X52858Y29995D01*
X52838Y29987D01*
X52817Y29980D01*
X52797Y29975D01*
X52777Y29969D01*
X52759Y29966D01*
X52743Y29963D01*
X52728Y29962D01*
X52716Y29960D01*
X52705D01*
X52697Y29959D01*
X52693D01*
X52691D01*
X52661Y29960D01*
X52631Y29963D01*
X52604Y29967D01*
X52579Y29972D01*
X52556Y29979D01*
X52536Y29986D01*
X52516Y29994D01*
X52499Y30003D01*
X52484Y30010D01*
X52470Y30018D01*
X52459Y30026D01*
X52449Y30032D01*
X52442Y30037D01*
X52437Y30041D01*
X52434Y30044D01*
X52433Y30045D01*
X52417Y30062D01*
X52403Y30080D01*
X52391Y30098D01*
X52381Y30117D01*
X52372Y30137D01*
X52365Y30156D01*
X52359Y30173D01*
X52354Y30191D01*
X52350Y30208D01*
X52348Y30223D01*
X52346Y30237D01*
X52344Y30248D01*
Y30258D01*
X52343Y30265D01*
Y30271D01*
X52344Y30291D01*
X52346Y30311D01*
X52349Y30328D01*
X52353Y30345D01*
X52358Y30361D01*
X52363Y30374D01*
X52369Y30388D01*
X52375Y30399D01*
X52381Y30410D01*
X52387Y30419D01*
X52392Y30427D01*
X52397Y30434D01*
X52400Y30439D01*
X52403Y30442D01*
X52405Y30444D01*
X52407Y30445D01*
X52430Y30467D01*
X52455Y30485D01*
X52479Y30499D01*
X52501Y30511D01*
X52521Y30519D01*
X52529Y30522D01*
X52536Y30524D01*
X52542Y30526D01*
X52546Y30527D01*
X52548Y30528D01*
X52549D01*
X52568Y30475D01*
X52543Y30464D01*
X52521Y30452D01*
X52502Y30440D01*
X52487Y30427D01*
X52474Y30416D01*
X52465Y30408D01*
X52460Y30401D01*
X52458Y30400D01*
Y30399D01*
X52444Y30381D01*
X52435Y30361D01*
X52427Y30341D01*
X52423Y30323D01*
X52420Y30307D01*
X52419Y30300D01*
Y30294D01*
X52418Y30289D01*
Y30283D01*
X52419Y30266D01*
X52421Y30250D01*
X52423Y30236D01*
X52427Y30221D01*
X52437Y30196D01*
X52443Y30186D01*
X52448Y30175D01*
X52453Y30166D01*
X52460Y30159D01*
X52465Y30152D01*
X52469Y30146D01*
X52473Y30142D01*
X52476Y30139D01*
X52477Y30137D01*
X52478Y30136D01*
X52491Y30127D01*
X52504Y30118D01*
X52519Y30110D01*
X52536Y30104D01*
X52568Y30094D01*
X52600Y30088D01*
X52616Y30085D01*
X52629Y30084D01*
X52643Y30083D01*
X52654Y30082D01*
X52664Y30081D01*
X52670D01*
X52675D01*
X52676D01*
Y30546D01*
X52713Y30545D01*
D02*
G37*
G36*
X53843Y30363D02*
X53844Y30351D01*
X53847Y30343D01*
X53850Y30338D01*
X53851Y30336D01*
X53858Y30331D01*
X53865Y30328D01*
X53871Y30327D01*
X53874D01*
X53875D01*
X54493D01*
Y30296D01*
X54485Y30281D01*
X54477Y30265D01*
X54471Y30250D01*
X54467Y30238D01*
X54464Y30226D01*
X54462Y30218D01*
X54460Y30213D01*
Y30211D01*
X54455Y30179D01*
X54454Y30163D01*
X54453Y30148D01*
X54452Y30136D01*
Y30045D01*
X54389D01*
Y30187D01*
X54387Y30193D01*
X54386Y30198D01*
X54384Y30203D01*
X54380Y30208D01*
X54378Y30209D01*
X54370Y30214D01*
X54362Y30216D01*
X54358Y30217D01*
X54354D01*
X54352D01*
X54351D01*
X53875D01*
X53863Y30216D01*
X53856Y30214D01*
X53851Y30211D01*
X53850Y30210D01*
X53847Y30207D01*
X53846Y30203D01*
X53844Y30192D01*
X53843Y30187D01*
Y30045D01*
X53780D01*
Y30499D01*
X53843D01*
Y30363D01*
D02*
G37*
G36*
X51199Y30437D02*
X51183Y30435D01*
X51168Y30432D01*
X51154Y30428D01*
X51142Y30424D01*
X51130Y30421D01*
X51120Y30417D01*
X51111Y30414D01*
X51103Y30411D01*
X51096Y30407D01*
X51089Y30403D01*
X51081Y30398D01*
X51076Y30394D01*
X51074Y30393D01*
X51062Y30382D01*
X51053Y30369D01*
X51047Y30357D01*
X51043Y30344D01*
X51041Y30334D01*
X51039Y30325D01*
X51038Y30320D01*
Y29995D01*
X51042Y29999D01*
X51047Y30004D01*
X51053Y30010D01*
X51060Y30017D01*
X51078Y30034D01*
X51098Y30052D01*
X51117Y30069D01*
X51126Y30077D01*
X51133Y30084D01*
X51139Y30089D01*
X51145Y30093D01*
X51148Y30096D01*
X51149Y30097D01*
X51168Y30115D01*
X51188Y30134D01*
X51209Y30154D01*
X51231Y30174D01*
X51275Y30216D01*
X51296Y30237D01*
X51315Y30258D01*
X51334Y30276D01*
X51352Y30294D01*
X51367Y30310D01*
X51381Y30324D01*
X51392Y30336D01*
X51401Y30344D01*
X51406Y30349D01*
X51408Y30351D01*
X51433Y30376D01*
X51457Y30397D01*
X51480Y30416D01*
X51502Y30431D01*
X51519Y30441D01*
X51527Y30446D01*
X51533Y30449D01*
X51538Y30452D01*
X51542Y30454D01*
X51544Y30456D01*
X51545D01*
X51572Y30467D01*
X51599Y30475D01*
X51622Y30480D01*
X51644Y30485D01*
X51654Y30486D01*
X51663Y30487D01*
X51670Y30488D01*
X51677Y30489D01*
X51682D01*
X51686D01*
X51688D01*
X51689D01*
X51709Y30488D01*
X51728Y30486D01*
X51746Y30483D01*
X51763Y30477D01*
X51780Y30472D01*
X51794Y30467D01*
X51808Y30460D01*
X51821Y30453D01*
X51832Y30447D01*
X51842Y30441D01*
X51850Y30435D01*
X51858Y30429D01*
X51864Y30424D01*
X51868Y30421D01*
X51870Y30419D01*
X51871Y30418D01*
X51885Y30404D01*
X51895Y30389D01*
X51906Y30372D01*
X51914Y30355D01*
X51921Y30337D01*
X51927Y30319D01*
X51932Y30301D01*
X51936Y30285D01*
X51939Y30268D01*
X51941Y30252D01*
X51943Y30239D01*
X51944Y30228D01*
X51945Y30217D01*
Y30204D01*
X51944Y30185D01*
X51942Y30166D01*
X51939Y30147D01*
X51935Y30130D01*
X51923Y30097D01*
X51918Y30082D01*
X51912Y30068D01*
X51905Y30056D01*
X51899Y30044D01*
X51893Y30034D01*
X51888Y30026D01*
X51884Y30019D01*
X51881Y30014D01*
X51879Y30011D01*
X51877Y30010D01*
X51864Y29994D01*
X51850Y29980D01*
X51835Y29968D01*
X51819Y29958D01*
X51803Y29949D01*
X51787Y29941D01*
X51770Y29936D01*
X51756Y29931D01*
X51740Y29927D01*
X51727Y29925D01*
X51715Y29922D01*
X51704Y29920D01*
X51695D01*
X51688Y29919D01*
X51684D01*
X51683D01*
X51665Y29920D01*
X51650Y29924D01*
X51636Y29927D01*
X51626Y29932D01*
X51617Y29936D01*
X51611Y29939D01*
X51608Y29942D01*
X51607Y29943D01*
X51599Y29953D01*
X51593Y29963D01*
X51589Y29975D01*
X51586Y29985D01*
X51584Y29993D01*
X51583Y30002D01*
Y30008D01*
X51584Y30020D01*
X51586Y30032D01*
X51588Y30040D01*
X51592Y30048D01*
X51595Y30055D01*
X51597Y30059D01*
X51600Y30061D01*
X51601Y30062D01*
X51608Y30068D01*
X51617Y30073D01*
X51626Y30077D01*
X51635Y30080D01*
X51642Y30081D01*
X51648Y30082D01*
X51654D01*
X51655D01*
X51665Y30081D01*
X51674Y30079D01*
X51683Y30076D01*
X51691Y30071D01*
X51697Y30067D01*
X51702Y30064D01*
X51705Y30062D01*
X51706Y30061D01*
X51714Y30055D01*
X51723Y30050D01*
X51733Y30046D01*
X51740Y30043D01*
X51747Y30042D01*
X51753Y30041D01*
X51757D01*
X51758D01*
X51775Y30043D01*
X51792Y30048D01*
X51806Y30055D01*
X51818Y30063D01*
X51828Y30071D01*
X51835Y30078D01*
X51840Y30083D01*
X51841Y30085D01*
X51853Y30103D01*
X51861Y30120D01*
X51867Y30138D01*
X51871Y30155D01*
X51873Y30170D01*
X51875Y30182D01*
Y30192D01*
X51874Y30208D01*
X51873Y30221D01*
X51868Y30247D01*
X51860Y30269D01*
X51850Y30287D01*
X51841Y30300D01*
X51834Y30311D01*
X51828Y30316D01*
X51826Y30318D01*
X51825D01*
X51816Y30325D01*
X51805Y30333D01*
X51782Y30343D01*
X51757Y30350D01*
X51733Y30356D01*
X51711Y30359D01*
X51702Y30360D01*
X51693D01*
X51687Y30361D01*
X51682D01*
X51679D01*
X51678D01*
X51664D01*
X51651Y30359D01*
X51624Y30353D01*
X51597Y30346D01*
X51574Y30339D01*
X51563Y30335D01*
X51553Y30331D01*
X51544Y30326D01*
X51537Y30323D01*
X51531Y30320D01*
X51527Y30318D01*
X51524Y30317D01*
X51523Y30316D01*
X51507Y30307D01*
X51491Y30297D01*
X51459Y30275D01*
X51429Y30251D01*
X51402Y30229D01*
X51389Y30218D01*
X51378Y30208D01*
X51368Y30199D01*
X51360Y30191D01*
X51353Y30185D01*
X51348Y30180D01*
X51345Y30177D01*
X51343Y30175D01*
X51324Y30156D01*
X51304Y30137D01*
X51285Y30118D01*
X51267Y30102D01*
X51251Y30086D01*
X51235Y30071D01*
X51221Y30058D01*
X51207Y30046D01*
X51196Y30035D01*
X51184Y30026D01*
X51175Y30017D01*
X51168Y30011D01*
X51161Y30006D01*
X51157Y30002D01*
X51154Y30000D01*
X51153Y29999D01*
X51124Y29976D01*
X51098Y29956D01*
X51074Y29938D01*
X51054Y29926D01*
X51046Y29919D01*
X51037Y29915D01*
X51031Y29911D01*
X51026Y29908D01*
X51022Y29905D01*
X51019Y29903D01*
X51017Y29902D01*
X51016D01*
X50923D01*
Y30463D01*
X51199Y30500D01*
Y30437D01*
D02*
G37*
G36*
X53027Y29651D02*
X52963D01*
Y29693D01*
X52962Y29704D01*
X52960Y29712D01*
X52957Y29716D01*
X52956Y29717D01*
X52953Y29720D01*
X52950Y29722D01*
X52944D01*
X52937Y29721D01*
X52936Y29720D01*
X52935D01*
X52583Y29634D01*
X52904Y29560D01*
X52916Y29559D01*
X52925Y29558D01*
X52933Y29557D01*
X52940D01*
X52944D01*
X52948Y29558D01*
X52949D01*
X52950D01*
X52954Y29560D01*
X52958Y29562D01*
X52961Y29568D01*
X52963Y29572D01*
Y29606D01*
X53027D01*
Y29381D01*
X52963D01*
Y29412D01*
X52962Y29418D01*
X52960Y29423D01*
X52953Y29432D01*
X52945Y29439D01*
X52943Y29441D01*
X52942Y29442D01*
X52933Y29447D01*
X52923Y29451D01*
X52901Y29457D01*
X52892Y29459D01*
X52883Y29460D01*
X52878Y29461D01*
X52877D01*
X52876D01*
X52573Y29385D01*
X52904Y29307D01*
X52916Y29306D01*
X52925Y29305D01*
X52933Y29304D01*
X52940D01*
X52944D01*
X52948Y29305D01*
X52949D01*
X52950D01*
X52954Y29307D01*
X52958Y29309D01*
X52961Y29315D01*
X52963Y29319D01*
Y29359D01*
X53027D01*
Y29123D01*
X52963D01*
Y29160D01*
X52962Y29165D01*
X52960Y29168D01*
X52954Y29175D01*
X52948Y29181D01*
X52946Y29182D01*
X52945Y29183D01*
X52937Y29189D01*
X52928Y29193D01*
X52909Y29199D01*
X52901Y29201D01*
X52895Y29202D01*
X52891Y29203D01*
X52889D01*
X52349Y29337D01*
Y29396D01*
X52785Y29494D01*
X52349Y29584D01*
Y29642D01*
X52903Y29784D01*
X52915Y29788D01*
X52924Y29792D01*
X52932Y29797D01*
X52938Y29800D01*
X52943Y29803D01*
X52947Y29806D01*
X52948Y29807D01*
X52949Y29808D01*
X52954Y29813D01*
X52957Y29818D01*
X52961Y29828D01*
X52962Y29832D01*
X52963Y29834D01*
Y29877D01*
X53027D01*
Y29651D01*
D02*
G37*
G36*
X53878Y29809D02*
X53879Y29799D01*
X53881Y29791D01*
X53883Y29786D01*
X53884Y29785D01*
X53887Y29783D01*
X53892Y29782D01*
X53902Y29780D01*
X53907Y29779D01*
X53910D01*
X53913D01*
X53914D01*
X54836D01*
X54828Y29760D01*
X54821Y29744D01*
X54815Y29731D01*
X54809Y29720D01*
X54805Y29711D01*
X54803Y29705D01*
X54802Y29701D01*
X54801Y29700D01*
X54795Y29681D01*
X54793Y29672D01*
X54792Y29664D01*
Y29657D01*
X54791Y29652D01*
Y29571D01*
X54727D01*
Y29638D01*
X54725Y29645D01*
X54723Y29650D01*
X54721Y29654D01*
X54717Y29658D01*
X54716Y29660D01*
X54715D01*
X54709Y29663D01*
X54703Y29665D01*
X54689Y29667D01*
X54682Y29669D01*
X54677D01*
X54673D01*
X54672D01*
X54376D01*
X54384Y29667D01*
X54390Y29665D01*
X54401Y29658D01*
X54412Y29649D01*
X54420Y29638D01*
X54426Y29628D01*
X54431Y29620D01*
X54435Y29613D01*
X54436Y29612D01*
Y29611D01*
X54443Y29593D01*
X54448Y29574D01*
X54452Y29556D01*
X54454Y29541D01*
X54456Y29529D01*
X54458Y29519D01*
Y29510D01*
X54456Y29489D01*
X54453Y29469D01*
X54449Y29449D01*
X54443Y29430D01*
X54436Y29412D01*
X54428Y29397D01*
X54419Y29381D01*
X54411Y29367D01*
X54402Y29354D01*
X54394Y29344D01*
X54386Y29333D01*
X54378Y29325D01*
X54372Y29319D01*
X54368Y29315D01*
X54365Y29311D01*
X54364Y29310D01*
X54346Y29296D01*
X54326Y29282D01*
X54307Y29271D01*
X54286Y29261D01*
X54265Y29253D01*
X54244Y29247D01*
X54224Y29241D01*
X54205Y29236D01*
X54187Y29233D01*
X54170Y29230D01*
X54155Y29229D01*
X54142Y29227D01*
X54131D01*
X54123Y29226D01*
X54118D01*
X54116D01*
X54086Y29227D01*
X54058Y29229D01*
X54031Y29233D01*
X54006Y29239D01*
X53984Y29244D01*
X53963Y29251D01*
X53943Y29258D01*
X53927Y29266D01*
X53912Y29273D01*
X53899Y29279D01*
X53887Y29286D01*
X53879Y29292D01*
X53871Y29297D01*
X53866Y29301D01*
X53863Y29303D01*
X53862Y29304D01*
X53846Y29320D01*
X53833Y29335D01*
X53821Y29351D01*
X53811Y29367D01*
X53803Y29383D01*
X53796Y29399D01*
X53790Y29413D01*
X53786Y29428D01*
X53782Y29442D01*
X53779Y29454D01*
X53778Y29464D01*
X53776Y29474D01*
Y29482D01*
X53775Y29487D01*
Y29493D01*
X53776Y29518D01*
X53780Y29540D01*
X53785Y29561D01*
X53791Y29579D01*
X53798Y29594D01*
X53803Y29604D01*
X53805Y29608D01*
X53807Y29611D01*
X53808Y29612D01*
Y29613D01*
X53814Y29623D01*
X53821Y29631D01*
X53835Y29644D01*
X53849Y29654D01*
X53861Y29660D01*
X53872Y29664D01*
X53881Y29667D01*
X53887Y29669D01*
X53780D01*
Y29698D01*
X53786Y29711D01*
X53791Y29724D01*
X53795Y29735D01*
X53800Y29746D01*
X53803Y29753D01*
X53805Y29759D01*
X53806Y29763D01*
Y29764D01*
X53809Y29775D01*
X53811Y29784D01*
X53812Y29793D01*
X53813Y29801D01*
X53814Y29806D01*
Y29865D01*
X53878D01*
Y29809D01*
D02*
G37*
G36*
X51199Y29686D02*
X51183Y29684D01*
X51168Y29681D01*
X51154Y29678D01*
X51142Y29674D01*
X51130Y29671D01*
X51120Y29666D01*
X51111Y29663D01*
X51103Y29660D01*
X51096Y29656D01*
X51089Y29653D01*
X51081Y29648D01*
X51076Y29644D01*
X51074Y29642D01*
X51062Y29631D01*
X51053Y29619D01*
X51047Y29606D01*
X51043Y29594D01*
X51041Y29583D01*
X51039Y29575D01*
X51038Y29570D01*
Y29245D01*
X51042Y29248D01*
X51047Y29253D01*
X51053Y29259D01*
X51060Y29267D01*
X51078Y29283D01*
X51098Y29301D01*
X51117Y29319D01*
X51126Y29326D01*
X51133Y29333D01*
X51139Y29339D01*
X51145Y29343D01*
X51148Y29346D01*
X51149Y29347D01*
X51168Y29365D01*
X51188Y29383D01*
X51209Y29403D01*
X51231Y29424D01*
X51275Y29465D01*
X51296Y29486D01*
X51315Y29507D01*
X51334Y29526D01*
X51352Y29544D01*
X51367Y29559D01*
X51381Y29574D01*
X51392Y29585D01*
X51401Y29594D01*
X51406Y29599D01*
X51408Y29601D01*
X51433Y29626D01*
X51457Y29647D01*
X51480Y29665D01*
X51502Y29680D01*
X51519Y29690D01*
X51527Y29696D01*
X51533Y29699D01*
X51538Y29702D01*
X51542Y29704D01*
X51544Y29705D01*
X51545D01*
X51572Y29716D01*
X51599Y29725D01*
X51622Y29730D01*
X51644Y29734D01*
X51654Y29735D01*
X51663Y29736D01*
X51670Y29737D01*
X51677Y29738D01*
X51682D01*
X51686D01*
X51688D01*
X51689D01*
X51709Y29737D01*
X51728Y29735D01*
X51746Y29732D01*
X51763Y29727D01*
X51780Y29722D01*
X51794Y29716D01*
X51808Y29709D01*
X51821Y29703D01*
X51832Y29697D01*
X51842Y29690D01*
X51850Y29684D01*
X51858Y29679D01*
X51864Y29674D01*
X51868Y29671D01*
X51870Y29669D01*
X51871Y29667D01*
X51885Y29654D01*
X51895Y29638D01*
X51906Y29622D01*
X51914Y29604D01*
X51921Y29586D01*
X51927Y29569D01*
X51932Y29551D01*
X51936Y29534D01*
X51939Y29518D01*
X51941Y29502D01*
X51943Y29488D01*
X51944Y29477D01*
X51945Y29467D01*
Y29453D01*
X51944Y29434D01*
X51942Y29416D01*
X51939Y29397D01*
X51935Y29379D01*
X51923Y29347D01*
X51918Y29331D01*
X51912Y29318D01*
X51905Y29305D01*
X51899Y29294D01*
X51893Y29283D01*
X51888Y29275D01*
X51884Y29269D01*
X51881Y29264D01*
X51879Y29260D01*
X51877Y29259D01*
X51864Y29244D01*
X51850Y29229D01*
X51835Y29218D01*
X51819Y29207D01*
X51803Y29198D01*
X51787Y29191D01*
X51770Y29185D01*
X51756Y29180D01*
X51740Y29176D01*
X51727Y29174D01*
X51715Y29172D01*
X51704Y29170D01*
X51695D01*
X51688Y29169D01*
X51684D01*
X51683D01*
X51665Y29170D01*
X51650Y29173D01*
X51636Y29176D01*
X51626Y29181D01*
X51617Y29185D01*
X51611Y29189D01*
X51608Y29192D01*
X51607Y29193D01*
X51599Y29202D01*
X51593Y29213D01*
X51589Y29224D01*
X51586Y29234D01*
X51584Y29243D01*
X51583Y29251D01*
Y29257D01*
X51584Y29270D01*
X51586Y29281D01*
X51588Y29290D01*
X51592Y29298D01*
X51595Y29304D01*
X51597Y29308D01*
X51600Y29310D01*
X51601Y29311D01*
X51608Y29318D01*
X51617Y29323D01*
X51626Y29326D01*
X51635Y29329D01*
X51642Y29330D01*
X51648Y29331D01*
X51654D01*
X51655D01*
X51665Y29330D01*
X51674Y29328D01*
X51683Y29325D01*
X51691Y29321D01*
X51697Y29317D01*
X51702Y29314D01*
X51705Y29311D01*
X51706Y29310D01*
X51714Y29304D01*
X51723Y29299D01*
X51733Y29296D01*
X51740Y29293D01*
X51747Y29292D01*
X51753Y29291D01*
X51757D01*
X51758D01*
X51775Y29293D01*
X51792Y29298D01*
X51806Y29304D01*
X51818Y29312D01*
X51828Y29321D01*
X51835Y29327D01*
X51840Y29332D01*
X51841Y29334D01*
X51853Y29352D01*
X51861Y29370D01*
X51867Y29387D01*
X51871Y29404D01*
X51873Y29420D01*
X51875Y29431D01*
Y29442D01*
X51874Y29457D01*
X51873Y29471D01*
X51868Y29497D01*
X51860Y29519D01*
X51850Y29536D01*
X51841Y29550D01*
X51834Y29560D01*
X51828Y29565D01*
X51826Y29568D01*
X51825D01*
X51816Y29575D01*
X51805Y29582D01*
X51782Y29593D01*
X51757Y29600D01*
X51733Y29605D01*
X51711Y29608D01*
X51702Y29609D01*
X51693D01*
X51687Y29610D01*
X51682D01*
X51679D01*
X51678D01*
X51664D01*
X51651Y29608D01*
X51624Y29603D01*
X51597Y29596D01*
X51574Y29588D01*
X51563Y29584D01*
X51553Y29580D01*
X51544Y29576D01*
X51537Y29573D01*
X51531Y29570D01*
X51527Y29568D01*
X51524Y29566D01*
X51523Y29565D01*
X51507Y29556D01*
X51491Y29547D01*
X51459Y29525D01*
X51429Y29501D01*
X51402Y29478D01*
X51389Y29468D01*
X51378Y29457D01*
X51368Y29449D01*
X51360Y29441D01*
X51353Y29434D01*
X51348Y29429D01*
X51345Y29426D01*
X51343Y29425D01*
X51324Y29405D01*
X51304Y29386D01*
X51285Y29368D01*
X51267Y29351D01*
X51251Y29335D01*
X51235Y29321D01*
X51221Y29307D01*
X51207Y29296D01*
X51196Y29284D01*
X51184Y29275D01*
X51175Y29267D01*
X51168Y29260D01*
X51161Y29255D01*
X51157Y29251D01*
X51154Y29249D01*
X51153Y29248D01*
X51124Y29225D01*
X51098Y29205D01*
X51074Y29188D01*
X51054Y29175D01*
X51046Y29169D01*
X51037Y29165D01*
X51031Y29160D01*
X51026Y29157D01*
X51022Y29154D01*
X51019Y29152D01*
X51017Y29151D01*
X51016D01*
X50923D01*
Y29712D01*
X51199Y29750D01*
Y29686D01*
D02*
G37*
G36*
X53878Y29057D02*
X53879Y29046D01*
X53882Y29038D01*
X53884Y29032D01*
X53885Y29030D01*
X53892Y29025D01*
X53900Y29023D01*
X53906Y29022D01*
X53908D01*
X53909D01*
X54487D01*
Y28990D01*
X54478Y28978D01*
X54471Y28968D01*
X54466Y28959D01*
X54463Y28950D01*
X54460Y28943D01*
X54458Y28938D01*
X54456Y28935D01*
Y28934D01*
X54454Y28914D01*
X54453Y28903D01*
Y28894D01*
X54452Y28886D01*
Y28825D01*
X54389D01*
Y28881D01*
X54387Y28888D01*
X54386Y28893D01*
X54384Y28897D01*
X54380Y28901D01*
X54378Y28903D01*
X54370Y28909D01*
X54362Y28911D01*
X54358Y28912D01*
X54354D01*
X54352D01*
X54351D01*
X53992D01*
X53968Y28902D01*
X53947Y28892D01*
X53931Y28881D01*
X53916Y28870D01*
X53906Y28861D01*
X53899Y28852D01*
X53893Y28847D01*
X53892Y28846D01*
Y28845D01*
X53882Y28827D01*
X53875Y28809D01*
X53868Y28791D01*
X53865Y28773D01*
X53863Y28759D01*
X53862Y28746D01*
X53861Y28742D01*
Y28736D01*
X53862Y28716D01*
X53865Y28698D01*
X53870Y28684D01*
X53876Y28671D01*
X53881Y28662D01*
X53886Y28655D01*
X53889Y28650D01*
X53890Y28649D01*
X53896Y28644D01*
X53904Y28640D01*
X53919Y28633D01*
X53937Y28628D01*
X53954Y28624D01*
X53970Y28622D01*
X53977Y28621D01*
X53983Y28620D01*
X53988D01*
X53992D01*
X53994D01*
X53995D01*
X54487D01*
Y28588D01*
X54478Y28576D01*
X54471Y28566D01*
X54466Y28557D01*
X54463Y28548D01*
X54460Y28541D01*
X54458Y28536D01*
X54456Y28533D01*
Y28532D01*
X54454Y28512D01*
X54453Y28502D01*
Y28492D01*
X54452Y28484D01*
Y28423D01*
X54389D01*
Y28480D01*
X54387Y28486D01*
X54386Y28491D01*
X54384Y28495D01*
X54380Y28499D01*
X54378Y28502D01*
X54370Y28507D01*
X54362Y28509D01*
X54358Y28510D01*
X54354D01*
X54352D01*
X54351D01*
X54007D01*
X53985Y28511D01*
X53964Y28512D01*
X53945Y28514D01*
X53929Y28517D01*
X53912Y28521D01*
X53897Y28525D01*
X53885Y28530D01*
X53874Y28535D01*
X53863Y28539D01*
X53854Y28543D01*
X53846Y28547D01*
X53840Y28552D01*
X53836Y28555D01*
X53833Y28557D01*
X53831Y28559D01*
X53830D01*
X53820Y28569D01*
X53812Y28580D01*
X53804Y28591D01*
X53798Y28604D01*
X53788Y28628D01*
X53782Y28652D01*
X53778Y28673D01*
X53777Y28684D01*
X53776Y28691D01*
X53775Y28698D01*
Y28708D01*
X53776Y28737D01*
X53780Y28763D01*
X53785Y28787D01*
X53791Y28808D01*
X53794Y28817D01*
X53798Y28824D01*
X53801Y28832D01*
X53803Y28838D01*
X53805Y28842D01*
X53807Y28845D01*
X53808Y28847D01*
Y28848D01*
X53814Y28859D01*
X53821Y28869D01*
X53829Y28877D01*
X53836Y28884D01*
X53844Y28890D01*
X53852Y28895D01*
X53867Y28903D01*
X53880Y28908D01*
X53891Y28911D01*
X53895D01*
X53899Y28912D01*
X53780D01*
Y28941D01*
X53786Y28954D01*
X53791Y28966D01*
X53795Y28977D01*
X53800Y28987D01*
X53803Y28994D01*
X53805Y28999D01*
X53806Y29003D01*
Y29004D01*
X53811Y29024D01*
X53812Y29033D01*
X53813Y29042D01*
X53814Y29048D01*
Y29108D01*
X53878D01*
Y29057D01*
D02*
G37*
G36*
X52715Y29061D02*
X52739Y29058D01*
X52762Y29054D01*
X52783Y29048D01*
X52804Y29042D01*
X52823Y29035D01*
X52842Y29027D01*
X52858Y29020D01*
X52874Y29012D01*
X52889Y29004D01*
X52900Y28997D01*
X52910Y28991D01*
X52919Y28986D01*
X52924Y28981D01*
X52928Y28978D01*
X52929Y28977D01*
X52949Y28961D01*
X52966Y28943D01*
X52980Y28925D01*
X52993Y28905D01*
X53003Y28887D01*
X53011Y28868D01*
X53019Y28849D01*
X53025Y28830D01*
X53029Y28814D01*
X53032Y28798D01*
X53035Y28784D01*
X53036Y28771D01*
X53037Y28761D01*
X53038Y28753D01*
Y28747D01*
X53037Y28722D01*
X53034Y28698D01*
X53028Y28675D01*
X53022Y28654D01*
X53013Y28634D01*
X53004Y28615D01*
X52995Y28598D01*
X52984Y28583D01*
X52974Y28568D01*
X52965Y28557D01*
X52955Y28546D01*
X52947Y28537D01*
X52941Y28531D01*
X52935Y28525D01*
X52931Y28522D01*
X52930Y28521D01*
X52909Y28506D01*
X52889Y28493D01*
X52868Y28482D01*
X52847Y28471D01*
X52827Y28463D01*
X52807Y28456D01*
X52788Y28451D01*
X52770Y28445D01*
X52753Y28442D01*
X52738Y28439D01*
X52724Y28438D01*
X52713Y28436D01*
X52703D01*
X52697Y28435D01*
X52692D01*
X52691D01*
X52665Y28436D01*
X52639Y28439D01*
X52615Y28443D01*
X52592Y28448D01*
X52570Y28455D01*
X52550Y28462D01*
X52531Y28470D01*
X52514Y28479D01*
X52498Y28486D01*
X52485Y28494D01*
X52473Y28502D01*
X52464Y28508D01*
X52455Y28513D01*
X52450Y28517D01*
X52446Y28520D01*
X52445Y28521D01*
X52427Y28538D01*
X52412Y28556D01*
X52398Y28574D01*
X52386Y28593D01*
X52376Y28613D01*
X52368Y28632D01*
X52361Y28649D01*
X52356Y28667D01*
X52351Y28684D01*
X52348Y28699D01*
X52346Y28713D01*
X52345Y28724D01*
X52344Y28734D01*
X52343Y28741D01*
Y28747D01*
X52344Y28772D01*
X52347Y28795D01*
X52352Y28817D01*
X52359Y28839D01*
X52366Y28859D01*
X52374Y28876D01*
X52384Y28894D01*
X52393Y28910D01*
X52401Y28923D01*
X52411Y28936D01*
X52419Y28946D01*
X52426Y28954D01*
X52433Y28962D01*
X52438Y28967D01*
X52441Y28970D01*
X52442Y28971D01*
X52461Y28987D01*
X52481Y29001D01*
X52501Y29013D01*
X52522Y29023D01*
X52544Y29032D01*
X52564Y29040D01*
X52585Y29046D01*
X52603Y29050D01*
X52622Y29054D01*
X52638Y29056D01*
X52653Y29058D01*
X52666Y29061D01*
X52676D01*
X52684Y29062D01*
X52689D01*
X52691D01*
X52715Y29061D01*
D02*
G37*
G36*
X51475Y29015D02*
X51516Y29012D01*
X51555Y29007D01*
X51591Y29002D01*
X51625Y28996D01*
X51656Y28988D01*
X51684Y28980D01*
X51709Y28972D01*
X51732Y28964D01*
X51752Y28956D01*
X51768Y28949D01*
X51783Y28942D01*
X51793Y28937D01*
X51802Y28933D01*
X51806Y28929D01*
X51808Y28928D01*
X51832Y28912D01*
X51854Y28894D01*
X51871Y28876D01*
X51887Y28858D01*
X51900Y28839D01*
X51912Y28820D01*
X51921Y28802D01*
X51929Y28785D01*
X51934Y28769D01*
X51938Y28754D01*
X51941Y28741D01*
X51943Y28730D01*
X51944Y28720D01*
X51945Y28713D01*
Y28707D01*
X51943Y28681D01*
X51939Y28657D01*
X51932Y28634D01*
X51922Y28612D01*
X51912Y28592D01*
X51899Y28573D01*
X51887Y28556D01*
X51873Y28540D01*
X51860Y28527D01*
X51847Y28514D01*
X51835Y28504D01*
X51824Y28495D01*
X51815Y28489D01*
X51808Y28484D01*
X51804Y28481D01*
X51802Y28480D01*
X51773Y28465D01*
X51744Y28452D01*
X51714Y28440D01*
X51684Y28431D01*
X51653Y28422D01*
X51621Y28415D01*
X51591Y28410D01*
X51563Y28405D01*
X51536Y28402D01*
X51511Y28398D01*
X51488Y28397D01*
X51468Y28395D01*
X51453D01*
X51447Y28394D01*
X51441D01*
X51437D01*
X51434D01*
X51432D01*
X51431D01*
X51386Y28395D01*
X51343Y28398D01*
X51304Y28403D01*
X51267Y28408D01*
X51233Y28415D01*
X51202Y28422D01*
X51173Y28431D01*
X51148Y28439D01*
X51124Y28446D01*
X51104Y28455D01*
X51087Y28462D01*
X51073Y28469D01*
X51062Y28474D01*
X51054Y28479D01*
X51050Y28482D01*
X51048Y28483D01*
X51024Y28500D01*
X51003Y28518D01*
X50984Y28537D01*
X50969Y28556D01*
X50956Y28574D01*
X50945Y28593D01*
X50935Y28611D01*
X50928Y28629D01*
X50923Y28644D01*
X50919Y28660D01*
X50916Y28672D01*
X50914Y28685D01*
X50912Y28694D01*
X50911Y28700D01*
Y28707D01*
X50914Y28732D01*
X50918Y28756D01*
X50924Y28777D01*
X50933Y28798D01*
X50944Y28818D01*
X50955Y28837D01*
X50969Y28853D01*
X50981Y28868D01*
X50995Y28881D01*
X51007Y28894D01*
X51019Y28904D01*
X51029Y28913D01*
X51038Y28920D01*
X51045Y28924D01*
X51050Y28927D01*
X51051Y28928D01*
X51078Y28944D01*
X51107Y28958D01*
X51138Y28969D01*
X51170Y28979D01*
X51202Y28988D01*
X51233Y28995D01*
X51264Y29000D01*
X51294Y29005D01*
X51322Y29009D01*
X51348Y29012D01*
X51372Y29013D01*
X51391Y29015D01*
X51408D01*
X51414Y29016D01*
X51420D01*
X51425D01*
X51428D01*
X51430D01*
X51431D01*
X51475Y29015D01*
D02*
G37*
G36*
X53119Y28322D02*
X53138Y28320D01*
X53158Y28316D01*
X53176Y28311D01*
X53192Y28304D01*
X53208Y28298D01*
X53223Y28289D01*
X53236Y28282D01*
X53248Y28275D01*
X53258Y28266D01*
X53267Y28260D01*
X53275Y28254D01*
X53281Y28248D01*
X53285Y28243D01*
X53287Y28241D01*
X53288Y28240D01*
X53302Y28224D01*
X53313Y28206D01*
X53324Y28188D01*
X53333Y28168D01*
X53340Y28149D01*
X53347Y28130D01*
X53352Y28110D01*
X53356Y28092D01*
X53359Y28075D01*
X53361Y28058D01*
X53363Y28043D01*
X53364Y28031D01*
X53365Y28021D01*
Y27650D01*
X53302D01*
Y27709D01*
X53301Y27717D01*
X53300Y27722D01*
X53298Y27726D01*
X53297Y27729D01*
X53295Y27731D01*
X53293Y27733D01*
X53286Y27738D01*
X53279Y27741D01*
X53273Y27742D01*
X53271D01*
X53270D01*
X52449D01*
X52438Y27741D01*
X52430Y27738D01*
X52425Y27735D01*
X52424Y27734D01*
X52422Y27731D01*
X52421Y27727D01*
X52419Y27717D01*
X52418Y27711D01*
Y27650D01*
X52354D01*
Y27955D01*
X52418D01*
Y27899D01*
X52419Y27887D01*
X52422Y27879D01*
X52424Y27874D01*
X52425Y27872D01*
X52433Y27867D01*
X52440Y27864D01*
X52446Y27863D01*
X52448D01*
X52449D01*
X52814D01*
Y28026D01*
X52815Y28048D01*
X52817Y28070D01*
X52820Y28090D01*
X52825Y28109D01*
X52830Y28128D01*
X52836Y28146D01*
X52844Y28161D01*
X52850Y28176D01*
X52857Y28189D01*
X52864Y28201D01*
X52870Y28211D01*
X52875Y28219D01*
X52880Y28226D01*
X52883Y28231D01*
X52885Y28234D01*
X52886Y28235D01*
X52901Y28251D01*
X52917Y28264D01*
X52933Y28276D01*
X52950Y28286D01*
X52968Y28294D01*
X52985Y28302D01*
X53003Y28308D01*
X53020Y28312D01*
X53035Y28316D01*
X53050Y28319D01*
X53063Y28320D01*
X53075Y28322D01*
X53084D01*
X53092Y28324D01*
X53097D01*
X53098D01*
X53119Y28322D01*
D02*
G37*
G36*
X53843Y28341D02*
X53845Y28330D01*
X53849Y28320D01*
X53852Y28313D01*
X53854Y28312D01*
Y28311D01*
X53859Y28306D01*
X53865Y28302D01*
X53879Y28294D01*
X53885Y28291D01*
X53889Y28289D01*
X53893Y28287D01*
X53894D01*
X54815Y28065D01*
X54781Y27955D01*
X53894Y27730D01*
X53884Y27728D01*
X53876Y27725D01*
X53868Y27722D01*
X53863Y27719D01*
X53859Y27716D01*
X53856Y27713D01*
X53855Y27712D01*
X53854Y27711D01*
X53847Y27701D01*
X53844Y27692D01*
Y27687D01*
X53843Y27684D01*
Y27650D01*
X53780D01*
Y27893D01*
X53843D01*
Y27859D01*
X53844Y27849D01*
X53847Y27840D01*
X53851Y27834D01*
X53856Y27829D01*
X53860Y27825D01*
X53863Y27823D01*
X53866Y27821D01*
X53867D01*
X53878Y27819D01*
X53888Y27818D01*
X53900D01*
X53911Y27819D01*
X53920Y27820D01*
X53929Y27821D01*
X53934Y27822D01*
X53936D01*
X54147Y27876D01*
Y28102D01*
X53906Y28159D01*
X53893Y28162D01*
X53883Y28164D01*
X53874Y28165D01*
X53867Y28166D01*
X53862Y28165D01*
X53859D01*
X53857Y28164D01*
X53856D01*
X53852Y28161D01*
X53849Y28157D01*
X53845Y28148D01*
X53844Y28142D01*
X53843Y28138D01*
Y28097D01*
X53780D01*
Y28375D01*
X53843D01*
Y28341D01*
D02*
G37*
G36*
X51199Y28185D02*
X51183Y28183D01*
X51168Y28180D01*
X51154Y28177D01*
X51142Y28173D01*
X51130Y28169D01*
X51120Y28165D01*
X51111Y28162D01*
X51103Y28159D01*
X51096Y28155D01*
X51089Y28152D01*
X51081Y28147D01*
X51076Y28142D01*
X51074Y28141D01*
X51062Y28130D01*
X51053Y28117D01*
X51047Y28105D01*
X51043Y28092D01*
X51041Y28082D01*
X51039Y28074D01*
X51038Y28068D01*
Y27744D01*
X51042Y27747D01*
X51047Y27752D01*
X51053Y27758D01*
X51060Y27766D01*
X51078Y27782D01*
X51098Y27800D01*
X51117Y27818D01*
X51126Y27825D01*
X51133Y27832D01*
X51139Y27837D01*
X51145Y27842D01*
X51148Y27845D01*
X51149Y27846D01*
X51168Y27863D01*
X51188Y27882D01*
X51209Y27902D01*
X51231Y27923D01*
X51275Y27964D01*
X51296Y27985D01*
X51315Y28006D01*
X51334Y28025D01*
X51352Y28042D01*
X51367Y28058D01*
X51381Y28073D01*
X51392Y28084D01*
X51401Y28092D01*
X51406Y28098D01*
X51408Y28100D01*
X51433Y28125D01*
X51457Y28146D01*
X51480Y28164D01*
X51502Y28179D01*
X51519Y28189D01*
X51527Y28194D01*
X51533Y28198D01*
X51538Y28201D01*
X51542Y28203D01*
X51544Y28204D01*
X51545D01*
X51572Y28215D01*
X51599Y28224D01*
X51622Y28229D01*
X51644Y28233D01*
X51654Y28234D01*
X51663Y28235D01*
X51670Y28236D01*
X51677Y28237D01*
X51682D01*
X51686D01*
X51688D01*
X51689D01*
X51709Y28236D01*
X51728Y28234D01*
X51746Y28231D01*
X51763Y28226D01*
X51780Y28220D01*
X51794Y28215D01*
X51808Y28208D01*
X51821Y28202D01*
X51832Y28195D01*
X51842Y28189D01*
X51850Y28183D01*
X51858Y28178D01*
X51864Y28173D01*
X51868Y28169D01*
X51870Y28167D01*
X51871Y28166D01*
X51885Y28153D01*
X51895Y28137D01*
X51906Y28121D01*
X51914Y28103D01*
X51921Y28085D01*
X51927Y28067D01*
X51932Y28050D01*
X51936Y28033D01*
X51939Y28016D01*
X51941Y28001D01*
X51943Y27987D01*
X51944Y27976D01*
X51945Y27965D01*
Y27952D01*
X51944Y27933D01*
X51942Y27914D01*
X51939Y27896D01*
X51935Y27878D01*
X51923Y27846D01*
X51918Y27830D01*
X51912Y27817D01*
X51905Y27804D01*
X51899Y27793D01*
X51893Y27782D01*
X51888Y27774D01*
X51884Y27768D01*
X51881Y27762D01*
X51879Y27759D01*
X51877Y27758D01*
X51864Y27743D01*
X51850Y27728D01*
X51835Y27717D01*
X51819Y27706D01*
X51803Y27697D01*
X51787Y27690D01*
X51770Y27684D01*
X51756Y27679D01*
X51740Y27675D01*
X51727Y27673D01*
X51715Y27671D01*
X51704Y27669D01*
X51695D01*
X51688Y27668D01*
X51684D01*
X51683D01*
X51665Y27669D01*
X51650Y27672D01*
X51636Y27675D01*
X51626Y27680D01*
X51617Y27684D01*
X51611Y27687D01*
X51608Y27691D01*
X51607Y27692D01*
X51599Y27701D01*
X51593Y27711D01*
X51589Y27723D01*
X51586Y27733D01*
X51584Y27742D01*
X51583Y27750D01*
Y27756D01*
X51584Y27769D01*
X51586Y27780D01*
X51588Y27788D01*
X51592Y27797D01*
X51595Y27803D01*
X51597Y27807D01*
X51600Y27809D01*
X51601Y27810D01*
X51608Y27817D01*
X51617Y27822D01*
X51626Y27825D01*
X51635Y27828D01*
X51642Y27829D01*
X51648Y27830D01*
X51654D01*
X51655D01*
X51665Y27829D01*
X51674Y27827D01*
X51683Y27824D01*
X51691Y27820D01*
X51697Y27816D01*
X51702Y27812D01*
X51705Y27810D01*
X51706Y27809D01*
X51714Y27803D01*
X51723Y27798D01*
X51733Y27795D01*
X51740Y27792D01*
X51747Y27791D01*
X51753Y27789D01*
X51757D01*
X51758D01*
X51775Y27792D01*
X51792Y27797D01*
X51806Y27803D01*
X51818Y27811D01*
X51828Y27820D01*
X51835Y27826D01*
X51840Y27831D01*
X51841Y27833D01*
X51853Y27851D01*
X51861Y27869D01*
X51867Y27886D01*
X51871Y27903D01*
X51873Y27919D01*
X51875Y27930D01*
Y27940D01*
X51874Y27956D01*
X51873Y27970D01*
X51868Y27996D01*
X51860Y28017D01*
X51850Y28035D01*
X51841Y28049D01*
X51834Y28059D01*
X51828Y28064D01*
X51826Y28066D01*
X51825D01*
X51816Y28074D01*
X51805Y28081D01*
X51782Y28091D01*
X51757Y28099D01*
X51733Y28104D01*
X51711Y28107D01*
X51702Y28108D01*
X51693D01*
X51687Y28109D01*
X51682D01*
X51679D01*
X51678D01*
X51664D01*
X51651Y28107D01*
X51624Y28102D01*
X51597Y28095D01*
X51574Y28087D01*
X51563Y28083D01*
X51553Y28079D01*
X51544Y28075D01*
X51537Y28072D01*
X51531Y28068D01*
X51527Y28066D01*
X51524Y28065D01*
X51523Y28064D01*
X51507Y28055D01*
X51491Y28046D01*
X51459Y28024D01*
X51429Y28000D01*
X51402Y27977D01*
X51389Y27966D01*
X51378Y27956D01*
X51368Y27948D01*
X51360Y27939D01*
X51353Y27933D01*
X51348Y27928D01*
X51345Y27925D01*
X51343Y27924D01*
X51324Y27904D01*
X51304Y27885D01*
X51285Y27867D01*
X51267Y27850D01*
X51251Y27834D01*
X51235Y27820D01*
X51221Y27806D01*
X51207Y27795D01*
X51196Y27783D01*
X51184Y27774D01*
X51175Y27766D01*
X51168Y27759D01*
X51161Y27754D01*
X51157Y27750D01*
X51154Y27748D01*
X51153Y27747D01*
X51124Y27724D01*
X51098Y27704D01*
X51074Y27686D01*
X51054Y27674D01*
X51046Y27668D01*
X51037Y27664D01*
X51031Y27659D01*
X51026Y27656D01*
X51022Y27653D01*
X51019Y27651D01*
X51017Y27650D01*
X51016D01*
X50923D01*
Y28211D01*
X51199Y28249D01*
Y28185D01*
D02*
G37*
%LPC*%
G36*
X38518Y15883D02*
X38391D01*
X38396Y15876D01*
X38401Y15869D01*
X38411Y15855D01*
X38416Y15849D01*
X38421Y15842D01*
X38427Y15836D01*
X38431Y15831D01*
X38436Y15826D01*
X38440Y15822D01*
X38444Y15818D01*
X38447Y15815D01*
X38450Y15812D01*
X38452Y15810D01*
X38454Y15809D01*
X38454Y15808D01*
X38467Y15821D01*
X38474Y15828D01*
X38480Y15834D01*
X38486Y15841D01*
X38491Y15847D01*
X38496Y15853D01*
X38500Y15859D01*
X38504Y15864D01*
X38507Y15869D01*
X38511Y15873D01*
X38513Y15876D01*
X38515Y15879D01*
X38516Y15881D01*
X38517Y15883D01*
X38518Y15883D01*
D02*
G37*
G36*
Y26683D02*
X38391D01*
X38396Y26676D01*
X38401Y26669D01*
X38411Y26655D01*
X38416Y26649D01*
X38421Y26642D01*
X38427Y26636D01*
X38431Y26631D01*
X38436Y26626D01*
X38440Y26622D01*
X38444Y26618D01*
X38447Y26615D01*
X38450Y26612D01*
X38452Y26610D01*
X38454Y26609D01*
X38454Y26608D01*
X38467Y26621D01*
X38474Y26628D01*
X38480Y26634D01*
X38486Y26641D01*
X38491Y26647D01*
X38496Y26653D01*
X38500Y26659D01*
X38504Y26664D01*
X38507Y26669D01*
X38511Y26673D01*
X38513Y26676D01*
X38515Y26679D01*
X38516Y26681D01*
X38517Y26683D01*
X38518Y26683D01*
D02*
G37*
G36*
X54602Y46839D02*
X54141D01*
Y46536D01*
X54602Y46839D01*
D02*
G37*
G36*
X54308Y45452D02*
X54297D01*
X54293D01*
X54290D01*
X54289D01*
X54288D01*
X54248D01*
X54212Y45450D01*
X54177Y45448D01*
X54145Y45445D01*
X54116Y45442D01*
X54089Y45438D01*
X54064Y45433D01*
X54042Y45429D01*
X54022Y45424D01*
X54006Y45420D01*
X53991Y45416D01*
X53979Y45413D01*
X53970Y45409D01*
X53963Y45407D01*
X53959Y45406D01*
X53958Y45405D01*
X53938Y45396D01*
X53920Y45387D01*
X53905Y45376D01*
X53891Y45367D01*
X53881Y45356D01*
X53871Y45346D01*
X53864Y45336D01*
X53858Y45326D01*
X53853Y45317D01*
X53850Y45310D01*
X53846Y45301D01*
X53845Y45295D01*
X53844Y45290D01*
X53843Y45286D01*
Y45282D01*
X53844Y45270D01*
X53849Y45257D01*
X53854Y45245D01*
X53861Y45234D01*
X53870Y45223D01*
X53880Y45214D01*
X53901Y45195D01*
X53921Y45180D01*
X53932Y45175D01*
X53940Y45170D01*
X53947Y45166D01*
X53953Y45163D01*
X53957Y45162D01*
X53958Y45161D01*
X53981Y45151D01*
X54005Y45144D01*
X54031Y45137D01*
X54058Y45132D01*
X54113Y45122D01*
X54140Y45119D01*
X54166Y45116D01*
X54191Y45114D01*
X54214Y45113D01*
X54235Y45112D01*
X54252Y45111D01*
X54267Y45110D01*
X54278D01*
X54283D01*
X54286D01*
X54287D01*
X54288D01*
X54325Y45111D01*
X54361Y45112D01*
X54393Y45115D01*
X54424Y45118D01*
X54453Y45121D01*
X54479Y45126D01*
X54503Y45130D01*
X54525Y45136D01*
X54545Y45140D01*
X54562Y45145D01*
X54576Y45149D01*
X54588Y45152D01*
X54597Y45156D01*
X54604Y45159D01*
X54608Y45160D01*
X54609Y45161D01*
X54630Y45171D01*
X54648Y45180D01*
X54664Y45191D01*
X54677Y45201D01*
X54689Y45212D01*
X54698Y45222D01*
X54706Y45231D01*
X54713Y45241D01*
X54718Y45250D01*
X54721Y45257D01*
X54724Y45265D01*
X54725Y45271D01*
X54726Y45276D01*
X54727Y45279D01*
Y45282D01*
X54726Y45297D01*
X54722Y45312D01*
X54717Y45325D01*
X54708Y45337D01*
X54700Y45348D01*
X54690Y45358D01*
X54669Y45376D01*
X54647Y45391D01*
X54637Y45396D01*
X54628Y45400D01*
X54620Y45404D01*
X54615Y45406D01*
X54611Y45408D01*
X54609D01*
X54587Y45416D01*
X54562Y45423D01*
X54537Y45429D01*
X54510Y45433D01*
X54456Y45442D01*
X54429Y45445D01*
X54404Y45447D01*
X54380Y45449D01*
X54359Y45450D01*
X54339Y45451D01*
X54321D01*
X54308Y45452D01*
D02*
G37*
G36*
X54307Y43179D02*
X53997D01*
X53971Y43169D01*
X53948Y43160D01*
X53930Y43149D01*
X53914Y43140D01*
X53902Y43131D01*
X53893Y43123D01*
X53888Y43119D01*
X53886Y43117D01*
X53874Y43102D01*
X53865Y43085D01*
X53859Y43069D01*
X53854Y43054D01*
X53852Y43040D01*
X53851Y43030D01*
X53850Y43026D01*
Y43020D01*
X53851Y43006D01*
X53853Y42993D01*
X53855Y42980D01*
X53859Y42968D01*
X53868Y42947D01*
X53880Y42931D01*
X53891Y42917D01*
X53901Y42908D01*
X53905Y42904D01*
X53908Y42902D01*
X53909Y42901D01*
X53910Y42900D01*
X53922Y42892D01*
X53936Y42886D01*
X53951Y42880D01*
X53966Y42876D01*
X53997Y42868D01*
X54030Y42863D01*
X54044Y42861D01*
X54058Y42860D01*
X54071Y42859D01*
X54082D01*
X54091Y42858D01*
X54097D01*
X54103D01*
X54104D01*
X54128Y42859D01*
X54149Y42860D01*
X54170Y42862D01*
X54190Y42865D01*
X54208Y42868D01*
X54225Y42873D01*
X54240Y42877D01*
X54255Y42881D01*
X54266Y42885D01*
X54277Y42888D01*
X54287Y42892D01*
X54294Y42895D01*
X54300Y42899D01*
X54304Y42901D01*
X54307Y42903D01*
X54308D01*
X54321Y42912D01*
X54333Y42921D01*
X54342Y42931D01*
X54351Y42941D01*
X54359Y42952D01*
X54364Y42962D01*
X54369Y42971D01*
X54373Y42982D01*
X54378Y42998D01*
X54380Y43007D01*
X54382Y43013D01*
X54383Y43018D01*
Y43026D01*
X54382Y43041D01*
X54379Y43057D01*
X54376Y43071D01*
X54373Y43084D01*
X54370Y43095D01*
X54367Y43104D01*
X54365Y43109D01*
X54364Y43111D01*
X54357Y43127D01*
X54347Y43139D01*
X54338Y43152D01*
X54328Y43161D01*
X54320Y43168D01*
X54313Y43174D01*
X54309Y43178D01*
X54307Y43179D01*
D02*
G37*
G36*
X54165Y41655D02*
X53917D01*
X53905Y41636D01*
X53894Y41618D01*
X53885Y41601D01*
X53877Y41586D01*
X53871Y41573D01*
X53866Y41563D01*
X53864Y41557D01*
X53863Y41556D01*
Y41555D01*
X53857Y41536D01*
X53853Y41518D01*
X53849Y41502D01*
X53846Y41487D01*
X53845Y41474D01*
X53844Y41464D01*
Y41456D01*
X53846Y41435D01*
X53851Y41416D01*
X53856Y41402D01*
X53863Y41389D01*
X53870Y41380D01*
X53876Y41372D01*
X53880Y41368D01*
X53882Y41367D01*
X53896Y41358D01*
X53911Y41352D01*
X53926Y41346D01*
X53939Y41343D01*
X53951Y41341D01*
X53959Y41340D01*
X53965D01*
X53967D01*
X53981Y41341D01*
X53993Y41343D01*
X54006Y41346D01*
X54017Y41352D01*
X54038Y41362D01*
X54057Y41376D01*
X54071Y41388D01*
X54082Y41400D01*
X54086Y41404D01*
X54089Y41407D01*
X54090Y41409D01*
X54091Y41410D01*
X54100Y41425D01*
X54109Y41440D01*
X54117Y41459D01*
X54124Y41478D01*
X54137Y41518D01*
X54147Y41559D01*
X54151Y41578D01*
X54155Y41595D01*
X54158Y41612D01*
X54161Y41626D01*
X54163Y41638D01*
X54164Y41647D01*
X54165Y41652D01*
Y41655D01*
D02*
G37*
G36*
X54123Y40972D02*
X54116D01*
X54112D01*
X54110D01*
X54086Y40971D01*
X54063Y40970D01*
X54041Y40966D01*
X54021Y40963D01*
X54003Y40959D01*
X53986Y40955D01*
X53970Y40951D01*
X53957Y40946D01*
X53944Y40940D01*
X53934Y40936D01*
X53925Y40932D01*
X53917Y40928D01*
X53911Y40925D01*
X53907Y40922D01*
X53905Y40921D01*
X53904Y40920D01*
X53891Y40909D01*
X53880Y40899D01*
X53870Y40887D01*
X53862Y40876D01*
X53855Y40864D01*
X53850Y40853D01*
X53844Y40842D01*
X53841Y40830D01*
X53836Y40810D01*
X53834Y40801D01*
X53833Y40794D01*
X53832Y40787D01*
Y40779D01*
X53833Y40765D01*
X53835Y40751D01*
X53838Y40737D01*
X53842Y40725D01*
X53853Y40702D01*
X53865Y40682D01*
X53878Y40667D01*
X53883Y40660D01*
X53888Y40655D01*
X53892Y40651D01*
X53895Y40647D01*
X53897Y40646D01*
X53899Y40645D01*
X53912Y40635D01*
X53927Y40626D01*
X53943Y40619D01*
X53960Y40613D01*
X53994Y40602D01*
X54030Y40596D01*
X54045Y40594D01*
X54061Y40592D01*
X54074Y40591D01*
X54086Y40590D01*
X54096Y40589D01*
X54104D01*
X54108D01*
X54110D01*
X54136Y40590D01*
X54161Y40591D01*
X54184Y40594D01*
X54205Y40598D01*
X54224Y40602D01*
X54242Y40607D01*
X54259Y40613D01*
X54273Y40618D01*
X54286Y40623D01*
X54297Y40628D01*
X54307Y40633D01*
X54314Y40638D01*
X54320Y40642D01*
X54324Y40645D01*
X54326Y40646D01*
X54327Y40647D01*
X54340Y40658D01*
X54351Y40670D01*
X54361Y40681D01*
X54370Y40693D01*
X54376Y40704D01*
X54383Y40715D01*
X54388Y40725D01*
X54391Y40735D01*
X54396Y40753D01*
X54398Y40760D01*
X54399Y40767D01*
X54400Y40772D01*
Y40779D01*
X54399Y40794D01*
X54397Y40807D01*
X54393Y40821D01*
X54389Y40833D01*
X54377Y40857D01*
X54364Y40877D01*
X54349Y40893D01*
X54343Y40899D01*
X54338Y40904D01*
X54334Y40909D01*
X54329Y40912D01*
X54327Y40913D01*
X54326Y40914D01*
X54312Y40925D01*
X54296Y40933D01*
X54279Y40941D01*
X54262Y40948D01*
X54225Y40958D01*
X54191Y40964D01*
X54174Y40966D01*
X54159Y40969D01*
X54145Y40970D01*
X54134Y40971D01*
X54123Y40972D01*
D02*
G37*
G36*
X54562Y40188D02*
X54556D01*
X54553D01*
X54552D01*
X54534Y40187D01*
X54516Y40186D01*
X54500Y40183D01*
X54486Y40179D01*
X54472Y40175D01*
X54460Y40171D01*
X54448Y40166D01*
X54438Y40162D01*
X54429Y40157D01*
X54422Y40151D01*
X54416Y40147D01*
X54411Y40143D01*
X54406Y40140D01*
X54403Y40137D01*
X54402Y40136D01*
X54401Y40135D01*
X54393Y40124D01*
X54386Y40115D01*
X54374Y40095D01*
X54366Y40076D01*
X54361Y40059D01*
X54357Y40044D01*
X54356Y40034D01*
X54354Y40030D01*
Y39890D01*
X54695D01*
X54705Y39891D01*
X54714Y39895D01*
X54718Y39898D01*
X54719Y39899D01*
X54724Y39908D01*
X54726Y39916D01*
X54727Y39922D01*
Y39995D01*
X54725Y40026D01*
X54721Y40054D01*
X54715Y40077D01*
X54707Y40097D01*
X54703Y40106D01*
X54700Y40114D01*
X54697Y40120D01*
X54694Y40125D01*
X54692Y40130D01*
X54690Y40133D01*
X54688Y40134D01*
Y40135D01*
X54679Y40144D01*
X54671Y40152D01*
X54661Y40160D01*
X54650Y40166D01*
X54627Y40175D01*
X54605Y40182D01*
X54585Y40185D01*
X54576Y40186D01*
X54568Y40187D01*
X54562Y40188D01*
D02*
G37*
G36*
X54069Y40222D02*
X54063D01*
X54059D01*
X54058D01*
X54039Y40221D01*
X54021Y40220D01*
X54005Y40218D01*
X53989Y40214D01*
X53976Y40211D01*
X53962Y40207D01*
X53951Y40201D01*
X53939Y40197D01*
X53930Y40192D01*
X53921Y40188D01*
X53915Y40183D01*
X53909Y40179D01*
X53905Y40176D01*
X53902Y40173D01*
X53900Y40172D01*
X53899Y40171D01*
X53889Y40161D01*
X53881Y40150D01*
X53872Y40139D01*
X53866Y40127D01*
X53857Y40103D01*
X53851Y40082D01*
X53846Y40061D01*
X53845Y40052D01*
X53844Y40044D01*
X53843Y40038D01*
Y39925D01*
X53844Y39914D01*
X53847Y39906D01*
X53850Y39900D01*
X53851Y39898D01*
X53858Y39893D01*
X53865Y39891D01*
X53871Y39890D01*
X53874D01*
X53875D01*
X54291D01*
Y40007D01*
X54290Y40026D01*
X54289Y40045D01*
X54286Y40062D01*
X54283Y40077D01*
X54278Y40092D01*
X54273Y40106D01*
X54268Y40117D01*
X54263Y40128D01*
X54258Y40138D01*
X54252Y40145D01*
X54248Y40152D01*
X54243Y40158D01*
X54240Y40163D01*
X54237Y40166D01*
X54236Y40167D01*
X54235Y40168D01*
X54223Y40177D01*
X54211Y40186D01*
X54197Y40193D01*
X54184Y40199D01*
X54155Y40209D01*
X54125Y40216D01*
X54112Y40218D01*
X54099Y40219D01*
X54088Y40220D01*
X54078Y40221D01*
X54069Y40222D01*
D02*
G37*
G36*
X54165Y37902D02*
X53917D01*
X53905Y37883D01*
X53894Y37865D01*
X53885Y37849D01*
X53877Y37833D01*
X53871Y37821D01*
X53866Y37810D01*
X53864Y37804D01*
X53863Y37803D01*
Y37802D01*
X53857Y37783D01*
X53853Y37765D01*
X53849Y37749D01*
X53846Y37734D01*
X53845Y37722D01*
X53844Y37711D01*
Y37703D01*
X53846Y37682D01*
X53851Y37663D01*
X53856Y37649D01*
X53863Y37636D01*
X53870Y37627D01*
X53876Y37620D01*
X53880Y37615D01*
X53882Y37614D01*
X53896Y37605D01*
X53911Y37599D01*
X53926Y37594D01*
X53939Y37591D01*
X53951Y37588D01*
X53959Y37587D01*
X53965D01*
X53967D01*
X53981Y37588D01*
X53993Y37591D01*
X54006Y37594D01*
X54017Y37599D01*
X54038Y37609D01*
X54057Y37623D01*
X54071Y37635D01*
X54082Y37647D01*
X54086Y37651D01*
X54089Y37654D01*
X54090Y37656D01*
X54091Y37657D01*
X54100Y37672D01*
X54109Y37687D01*
X54117Y37706D01*
X54124Y37725D01*
X54137Y37765D01*
X54147Y37806D01*
X54151Y37825D01*
X54155Y37842D01*
X54158Y37859D01*
X54161Y37874D01*
X54163Y37885D01*
X54164Y37894D01*
X54165Y37900D01*
Y37902D01*
D02*
G37*
G36*
X52766Y37173D02*
X52757D01*
X52750D01*
X52745D01*
X52741D01*
X52740D01*
Y36836D01*
X52758Y36837D01*
X52776Y36838D01*
X52808Y36844D01*
X52823Y36847D01*
X52836Y36851D01*
X52849Y36857D01*
X52859Y36861D01*
X52870Y36866D01*
X52879Y36870D01*
X52886Y36874D01*
X52893Y36878D01*
X52898Y36882D01*
X52901Y36884D01*
X52903Y36885D01*
X52904Y36886D01*
X52916Y36895D01*
X52925Y36906D01*
X52934Y36917D01*
X52942Y36927D01*
X52948Y36939D01*
X52953Y36949D01*
X52960Y36969D01*
X52966Y36988D01*
X52967Y36995D01*
X52968Y37002D01*
X52969Y37008D01*
Y37015D01*
X52968Y37028D01*
X52966Y37041D01*
X52963Y37052D01*
X52959Y37064D01*
X52949Y37085D01*
X52938Y37101D01*
X52927Y37115D01*
X52917Y37124D01*
X52912Y37128D01*
X52910Y37130D01*
X52908Y37132D01*
X52907D01*
X52896Y37141D01*
X52882Y37147D01*
X52855Y37158D01*
X52827Y37166D01*
X52800Y37170D01*
X52788Y37171D01*
X52776Y37172D01*
X52766Y37173D01*
D02*
G37*
G36*
X54134Y35718D02*
X54128D01*
X54122D01*
X54121D01*
X54095Y35717D01*
X54071Y35716D01*
X54048Y35713D01*
X54028Y35709D01*
X54009Y35705D01*
X53991Y35701D01*
X53977Y35696D01*
X53962Y35691D01*
X53951Y35685D01*
X53940Y35680D01*
X53931Y35676D01*
X53923Y35672D01*
X53918Y35669D01*
X53914Y35666D01*
X53912Y35665D01*
X53911Y35664D01*
X53900Y35653D01*
X53889Y35643D01*
X53880Y35631D01*
X53872Y35621D01*
X53866Y35611D01*
X53861Y35600D01*
X53853Y35580D01*
X53847Y35563D01*
X53846Y35555D01*
X53845Y35549D01*
X53844Y35544D01*
Y35537D01*
X53845Y35518D01*
X53849Y35500D01*
X53853Y35484D01*
X53858Y35470D01*
X53862Y35460D01*
X53866Y35451D01*
X53869Y35446D01*
X53870Y35444D01*
X53881Y35430D01*
X53893Y35418D01*
X53906Y35406D01*
X53918Y35398D01*
X53930Y35391D01*
X53938Y35385D01*
X53944Y35382D01*
X53945Y35380D01*
X53946D01*
X54261D01*
X54283Y35394D01*
X54301Y35409D01*
X54317Y35422D01*
X54331Y35436D01*
X54340Y35447D01*
X54347Y35455D01*
X54351Y35462D01*
X54352Y35464D01*
X54363Y35481D01*
X54370Y35499D01*
X54375Y35516D01*
X54378Y35530D01*
X54382Y35542D01*
X54383Y35551D01*
Y35560D01*
X54382Y35574D01*
X54379Y35587D01*
X54376Y35599D01*
X54372Y35611D01*
X54362Y35631D01*
X54350Y35648D01*
X54339Y35661D01*
X54328Y35670D01*
X54324Y35673D01*
X54321Y35675D01*
X54319Y35677D01*
X54318D01*
X54306Y35684D01*
X54291Y35691D01*
X54261Y35701D01*
X54227Y35708D01*
X54196Y35713D01*
X54181Y35715D01*
X54167Y35716D01*
X54155Y35717D01*
X54143D01*
X54134Y35718D01*
D02*
G37*
G36*
X52766Y35672D02*
X52757D01*
X52750D01*
X52745D01*
X52741D01*
X52740D01*
Y35335D01*
X52758Y35336D01*
X52776Y35337D01*
X52808Y35343D01*
X52823Y35346D01*
X52836Y35350D01*
X52849Y35355D01*
X52859Y35360D01*
X52870Y35365D01*
X52879Y35369D01*
X52886Y35373D01*
X52893Y35377D01*
X52898Y35380D01*
X52901Y35383D01*
X52903Y35384D01*
X52904Y35385D01*
X52916Y35394D01*
X52925Y35404D01*
X52934Y35416D01*
X52942Y35426D01*
X52948Y35438D01*
X52953Y35448D01*
X52960Y35468D01*
X52966Y35487D01*
X52967Y35494D01*
X52968Y35501D01*
X52969Y35506D01*
Y35514D01*
X52968Y35527D01*
X52966Y35540D01*
X52963Y35551D01*
X52959Y35563D01*
X52949Y35583D01*
X52938Y35600D01*
X52927Y35614D01*
X52917Y35623D01*
X52912Y35627D01*
X52910Y35629D01*
X52908Y35631D01*
X52907D01*
X52896Y35640D01*
X52882Y35646D01*
X52855Y35657D01*
X52827Y35665D01*
X52800Y35669D01*
X52788Y35670D01*
X52776Y35671D01*
X52766Y35672D01*
D02*
G37*
G36*
X51745Y34766D02*
X51284D01*
Y34463D01*
X51745Y34766D01*
D02*
G37*
G36*
X54211Y34101D02*
Y33892D01*
X54620Y33999D01*
X54211Y34101D01*
D02*
G37*
G36*
X51451Y34130D02*
X51440D01*
X51436D01*
X51433D01*
X51432D01*
X51431D01*
X51391D01*
X51355Y34128D01*
X51321Y34126D01*
X51288Y34123D01*
X51259Y34120D01*
X51232Y34116D01*
X51207Y34111D01*
X51185Y34107D01*
X51165Y34102D01*
X51149Y34098D01*
X51134Y34094D01*
X51122Y34091D01*
X51113Y34088D01*
X51106Y34085D01*
X51102Y34084D01*
X51101Y34083D01*
X51081Y34074D01*
X51063Y34065D01*
X51048Y34054D01*
X51034Y34045D01*
X51024Y34034D01*
X51015Y34024D01*
X51007Y34014D01*
X51001Y34004D01*
X50996Y33995D01*
X50993Y33988D01*
X50990Y33979D01*
X50988Y33973D01*
X50987Y33968D01*
X50986Y33964D01*
Y33961D01*
X50987Y33948D01*
X50992Y33936D01*
X50997Y33923D01*
X51004Y33912D01*
X51013Y33901D01*
X51023Y33892D01*
X51044Y33873D01*
X51064Y33859D01*
X51075Y33853D01*
X51083Y33848D01*
X51090Y33844D01*
X51096Y33841D01*
X51100Y33840D01*
X51101Y33839D01*
X51124Y33829D01*
X51148Y33822D01*
X51174Y33815D01*
X51201Y33810D01*
X51256Y33800D01*
X51283Y33797D01*
X51309Y33794D01*
X51334Y33792D01*
X51357Y33791D01*
X51378Y33790D01*
X51396Y33789D01*
X51410Y33788D01*
X51422D01*
X51426D01*
X51429D01*
X51430D01*
X51431D01*
X51468Y33789D01*
X51504Y33790D01*
X51536Y33793D01*
X51567Y33796D01*
X51596Y33799D01*
X51622Y33804D01*
X51646Y33809D01*
X51668Y33814D01*
X51688Y33818D01*
X51705Y33823D01*
X51719Y33827D01*
X51731Y33830D01*
X51740Y33835D01*
X51747Y33837D01*
X51752Y33838D01*
X51753Y33839D01*
X51773Y33849D01*
X51791Y33859D01*
X51807Y33869D01*
X51820Y33879D01*
X51832Y33890D01*
X51841Y33900D01*
X51849Y33910D01*
X51856Y33919D01*
X51861Y33928D01*
X51864Y33936D01*
X51867Y33943D01*
X51868Y33949D01*
X51869Y33954D01*
X51870Y33957D01*
Y33961D01*
X51869Y33975D01*
X51865Y33990D01*
X51860Y34003D01*
X51851Y34015D01*
X51843Y34026D01*
X51833Y34037D01*
X51812Y34054D01*
X51790Y34069D01*
X51780Y34074D01*
X51771Y34078D01*
X51763Y34082D01*
X51758Y34084D01*
X51754Y34086D01*
X51753D01*
X51730Y34094D01*
X51705Y34101D01*
X51680Y34107D01*
X51653Y34111D01*
X51600Y34120D01*
X51572Y34123D01*
X51547Y34125D01*
X51524Y34127D01*
X51502Y34128D01*
X51482Y34129D01*
X51464D01*
X51451Y34130D01*
D02*
G37*
G36*
X54123Y32716D02*
X54116D01*
X54112D01*
X54110D01*
X54086Y32714D01*
X54063Y32713D01*
X54041Y32710D01*
X54021Y32707D01*
X54003Y32703D01*
X53986Y32699D01*
X53970Y32695D01*
X53957Y32689D01*
X53944Y32684D01*
X53934Y32680D01*
X53925Y32676D01*
X53917Y32672D01*
X53911Y32669D01*
X53907Y32666D01*
X53905Y32664D01*
X53904Y32663D01*
X53891Y32653D01*
X53880Y32643D01*
X53870Y32631D01*
X53862Y32620D01*
X53855Y32608D01*
X53850Y32597D01*
X53844Y32585D01*
X53841Y32574D01*
X53836Y32554D01*
X53834Y32545D01*
X53833Y32537D01*
X53832Y32531D01*
Y32523D01*
X53833Y32508D01*
X53835Y32495D01*
X53838Y32481D01*
X53842Y32469D01*
X53853Y32446D01*
X53865Y32426D01*
X53878Y32410D01*
X53883Y32404D01*
X53888Y32399D01*
X53892Y32395D01*
X53895Y32391D01*
X53897Y32390D01*
X53899Y32389D01*
X53912Y32379D01*
X53927Y32370D01*
X53943Y32363D01*
X53960Y32356D01*
X53994Y32346D01*
X54030Y32340D01*
X54045Y32338D01*
X54061Y32336D01*
X54074Y32334D01*
X54086Y32333D01*
X54096Y32332D01*
X54104D01*
X54108D01*
X54110D01*
X54136Y32333D01*
X54161Y32334D01*
X54184Y32338D01*
X54205Y32342D01*
X54224Y32346D01*
X54242Y32351D01*
X54259Y32356D01*
X54273Y32362D01*
X54286Y32367D01*
X54297Y32372D01*
X54307Y32377D01*
X54314Y32381D01*
X54320Y32386D01*
X54324Y32389D01*
X54326Y32390D01*
X54327Y32391D01*
X54340Y32402D01*
X54351Y32414D01*
X54361Y32425D01*
X54370Y32437D01*
X54376Y32448D01*
X54383Y32458D01*
X54388Y32469D01*
X54391Y32479D01*
X54396Y32497D01*
X54398Y32504D01*
X54399Y32510D01*
X54400Y32516D01*
Y32523D01*
X54399Y32537D01*
X54397Y32551D01*
X54393Y32565D01*
X54389Y32577D01*
X54377Y32601D01*
X54364Y32621D01*
X54349Y32636D01*
X54343Y32643D01*
X54338Y32648D01*
X54334Y32653D01*
X54329Y32656D01*
X54327Y32657D01*
X54326Y32658D01*
X54312Y32669D01*
X54296Y32677D01*
X54279Y32685D01*
X54262Y32692D01*
X54225Y32702D01*
X54191Y32708D01*
X54174Y32710D01*
X54159Y32712D01*
X54145Y32713D01*
X54134Y32714D01*
X54123Y32716D01*
D02*
G37*
G36*
X53136Y32659D02*
X53131D01*
X53128D01*
X53127D01*
X53108Y32658D01*
X53090Y32657D01*
X53075Y32654D01*
X53060Y32651D01*
X53047Y32647D01*
X53034Y32643D01*
X53023Y32637D01*
X53012Y32633D01*
X53004Y32628D01*
X52997Y32623D01*
X52991Y32619D01*
X52985Y32615D01*
X52981Y32611D01*
X52978Y32608D01*
X52977Y32607D01*
X52976Y32606D01*
X52968Y32596D01*
X52960Y32586D01*
X52949Y32567D01*
X52941Y32548D01*
X52935Y32530D01*
X52931Y32516D01*
X52930Y32505D01*
X52929Y32501D01*
Y32362D01*
X53270D01*
X53280Y32363D01*
X53288Y32367D01*
X53292Y32370D01*
X53293Y32371D01*
X53299Y32379D01*
X53301Y32388D01*
X53302Y32394D01*
Y32467D01*
X53300Y32498D01*
X53296Y32525D01*
X53289Y32549D01*
X53282Y32569D01*
X53278Y32577D01*
X53275Y32585D01*
X53272Y32592D01*
X53268Y32597D01*
X53266Y32601D01*
X53264Y32604D01*
X53262Y32605D01*
Y32606D01*
X53254Y32616D01*
X53246Y32624D01*
X53235Y32631D01*
X53225Y32637D01*
X53202Y32647D01*
X53180Y32653D01*
X53159Y32656D01*
X53151Y32657D01*
X53143Y32658D01*
X53136Y32659D01*
D02*
G37*
G36*
X52644Y32694D02*
X52638D01*
X52633D01*
X52632D01*
X52614Y32693D01*
X52596Y32692D01*
X52579Y32689D01*
X52564Y32685D01*
X52550Y32682D01*
X52537Y32678D01*
X52525Y32673D01*
X52514Y32669D01*
X52504Y32663D01*
X52496Y32659D01*
X52490Y32654D01*
X52484Y32651D01*
X52479Y32648D01*
X52476Y32645D01*
X52474Y32644D01*
X52473Y32643D01*
X52464Y32632D01*
X52455Y32622D01*
X52447Y32610D01*
X52441Y32599D01*
X52432Y32575D01*
X52425Y32553D01*
X52421Y32532D01*
X52420Y32524D01*
X52419Y32516D01*
X52418Y32509D01*
Y32397D01*
X52419Y32386D01*
X52422Y32377D01*
X52424Y32372D01*
X52425Y32370D01*
X52433Y32365D01*
X52440Y32363D01*
X52446Y32362D01*
X52448D01*
X52449D01*
X52866D01*
Y32478D01*
X52865Y32498D01*
X52864Y32517D01*
X52860Y32533D01*
X52857Y32549D01*
X52853Y32564D01*
X52848Y32577D01*
X52843Y32589D01*
X52838Y32600D01*
X52832Y32609D01*
X52827Y32617D01*
X52823Y32624D01*
X52818Y32629D01*
X52815Y32634D01*
X52811Y32637D01*
X52810Y32638D01*
X52809Y32640D01*
X52798Y32649D01*
X52785Y32657D01*
X52772Y32664D01*
X52758Y32671D01*
X52729Y32680D01*
X52700Y32687D01*
X52687Y32689D01*
X52674Y32691D01*
X52663Y32692D01*
X52652Y32693D01*
X52644Y32694D01*
D02*
G37*
G36*
X54562Y31932D02*
X54556D01*
X54553D01*
X54552D01*
X54534Y31931D01*
X54516Y31930D01*
X54500Y31926D01*
X54486Y31923D01*
X54472Y31919D01*
X54460Y31915D01*
X54448Y31910D01*
X54438Y31906D01*
X54429Y31900D01*
X54422Y31895D01*
X54416Y31891D01*
X54411Y31887D01*
X54406Y31884D01*
X54403Y31881D01*
X54402Y31880D01*
X54401Y31879D01*
X54393Y31868D01*
X54386Y31859D01*
X54374Y31839D01*
X54366Y31820D01*
X54361Y31803D01*
X54357Y31788D01*
X54356Y31778D01*
X54354Y31773D01*
Y31634D01*
X54695D01*
X54705Y31635D01*
X54714Y31639D01*
X54718Y31642D01*
X54719Y31643D01*
X54724Y31652D01*
X54726Y31660D01*
X54727Y31666D01*
Y31739D01*
X54725Y31770D01*
X54721Y31797D01*
X54715Y31821D01*
X54707Y31841D01*
X54703Y31849D01*
X54700Y31858D01*
X54697Y31864D01*
X54694Y31869D01*
X54692Y31873D01*
X54690Y31876D01*
X54688Y31878D01*
Y31879D01*
X54679Y31888D01*
X54671Y31896D01*
X54661Y31904D01*
X54650Y31910D01*
X54627Y31919D01*
X54605Y31925D01*
X54585Y31929D01*
X54576Y31930D01*
X54568Y31931D01*
X54562Y31932D01*
D02*
G37*
G36*
X54069Y31966D02*
X54063D01*
X54059D01*
X54058D01*
X54039Y31965D01*
X54021Y31964D01*
X54005Y31962D01*
X53989Y31958D01*
X53976Y31955D01*
X53962Y31950D01*
X53951Y31945D01*
X53939Y31941D01*
X53930Y31936D01*
X53921Y31932D01*
X53915Y31926D01*
X53909Y31923D01*
X53905Y31920D01*
X53902Y31917D01*
X53900Y31916D01*
X53899Y31915D01*
X53889Y31905D01*
X53881Y31894D01*
X53872Y31883D01*
X53866Y31871D01*
X53857Y31847D01*
X53851Y31825D01*
X53846Y31805D01*
X53845Y31796D01*
X53844Y31788D01*
X53843Y31782D01*
Y31669D01*
X53844Y31658D01*
X53847Y31650D01*
X53850Y31644D01*
X53851Y31642D01*
X53858Y31637D01*
X53865Y31635D01*
X53871Y31634D01*
X53874D01*
X53875D01*
X54291D01*
Y31751D01*
X54290Y31770D01*
X54289Y31789D01*
X54286Y31806D01*
X54283Y31821D01*
X54278Y31836D01*
X54273Y31849D01*
X54268Y31861D01*
X54263Y31872D01*
X54258Y31882D01*
X54252Y31889D01*
X54248Y31896D01*
X54243Y31901D01*
X54240Y31907D01*
X54237Y31910D01*
X54236Y31911D01*
X54235Y31912D01*
X54223Y31921D01*
X54211Y31930D01*
X54197Y31937D01*
X54184Y31943D01*
X54155Y31952D01*
X54125Y31960D01*
X54112Y31962D01*
X54099Y31963D01*
X54088Y31964D01*
X54078Y31965D01*
X54069Y31966D01*
D02*
G37*
G36*
X51451Y31879D02*
X51440D01*
X51436D01*
X51433D01*
X51432D01*
X51431D01*
X51391D01*
X51355Y31876D01*
X51321Y31874D01*
X51288Y31871D01*
X51259Y31868D01*
X51232Y31864D01*
X51207Y31860D01*
X51185Y31856D01*
X51165Y31850D01*
X51149Y31846D01*
X51134Y31842D01*
X51122Y31839D01*
X51113Y31836D01*
X51106Y31834D01*
X51102Y31833D01*
X51101Y31832D01*
X51081Y31822D01*
X51063Y31813D01*
X51048Y31803D01*
X51034Y31793D01*
X51024Y31783D01*
X51015Y31772D01*
X51007Y31762D01*
X51001Y31753D01*
X50996Y31743D01*
X50993Y31736D01*
X50990Y31728D01*
X50988Y31721D01*
X50987Y31716D01*
X50986Y31712D01*
Y31709D01*
X50987Y31696D01*
X50992Y31684D01*
X50997Y31671D01*
X51004Y31660D01*
X51013Y31650D01*
X51023Y31640D01*
X51044Y31621D01*
X51064Y31607D01*
X51075Y31602D01*
X51083Y31596D01*
X51090Y31592D01*
X51096Y31589D01*
X51100Y31588D01*
X51101Y31587D01*
X51124Y31578D01*
X51148Y31570D01*
X51174Y31563D01*
X51201Y31558D01*
X51256Y31549D01*
X51283Y31545D01*
X51309Y31542D01*
X51334Y31540D01*
X51357Y31539D01*
X51378Y31538D01*
X51396Y31537D01*
X51410Y31536D01*
X51422D01*
X51426D01*
X51429D01*
X51430D01*
X51431D01*
X51468Y31537D01*
X51504Y31538D01*
X51536Y31541D01*
X51567Y31544D01*
X51596Y31548D01*
X51622Y31553D01*
X51646Y31557D01*
X51668Y31562D01*
X51688Y31566D01*
X51705Y31571D01*
X51719Y31576D01*
X51731Y31579D01*
X51740Y31583D01*
X51747Y31585D01*
X51752Y31586D01*
X51753Y31587D01*
X51773Y31597D01*
X51791Y31607D01*
X51807Y31617D01*
X51820Y31628D01*
X51832Y31638D01*
X51841Y31648D01*
X51849Y31658D01*
X51856Y31667D01*
X51861Y31677D01*
X51864Y31684D01*
X51867Y31691D01*
X51868Y31697D01*
X51869Y31703D01*
X51870Y31706D01*
Y31709D01*
X51869Y31723D01*
X51865Y31738D01*
X51860Y31752D01*
X51851Y31763D01*
X51843Y31774D01*
X51833Y31785D01*
X51812Y31803D01*
X51790Y31817D01*
X51780Y31822D01*
X51771Y31826D01*
X51763Y31831D01*
X51758Y31833D01*
X51754Y31835D01*
X51753D01*
X51730Y31842D01*
X51705Y31849D01*
X51680Y31856D01*
X51653Y31860D01*
X51600Y31868D01*
X51572Y31871D01*
X51547Y31873D01*
X51524Y31875D01*
X51502Y31876D01*
X51482Y31878D01*
X51464D01*
X51451Y31879D01*
D02*
G37*
G36*
X54123Y31214D02*
X54116D01*
X54112D01*
X54110D01*
X54086Y31213D01*
X54063Y31212D01*
X54041Y31209D01*
X54021Y31206D01*
X54003Y31202D01*
X53986Y31198D01*
X53970Y31194D01*
X53957Y31188D01*
X53944Y31183D01*
X53934Y31179D01*
X53925Y31175D01*
X53917Y31171D01*
X53911Y31168D01*
X53907Y31164D01*
X53905Y31163D01*
X53904Y31162D01*
X53891Y31152D01*
X53880Y31142D01*
X53870Y31130D01*
X53862Y31119D01*
X53855Y31107D01*
X53850Y31096D01*
X53844Y31084D01*
X53841Y31073D01*
X53836Y31053D01*
X53834Y31044D01*
X53833Y31036D01*
X53832Y31030D01*
Y31022D01*
X53833Y31007D01*
X53835Y30994D01*
X53838Y30980D01*
X53842Y30968D01*
X53853Y30945D01*
X53865Y30925D01*
X53878Y30909D01*
X53883Y30903D01*
X53888Y30898D01*
X53892Y30894D01*
X53895Y30890D01*
X53897Y30889D01*
X53899Y30888D01*
X53912Y30878D01*
X53927Y30869D01*
X53943Y30861D01*
X53960Y30855D01*
X53994Y30845D01*
X54030Y30839D01*
X54045Y30837D01*
X54061Y30834D01*
X54074Y30833D01*
X54086Y30832D01*
X54096Y30831D01*
X54104D01*
X54108D01*
X54110D01*
X54136Y30832D01*
X54161Y30833D01*
X54184Y30837D01*
X54205Y30841D01*
X54224Y30845D01*
X54242Y30850D01*
X54259Y30855D01*
X54273Y30860D01*
X54286Y30866D01*
X54297Y30871D01*
X54307Y30876D01*
X54314Y30880D01*
X54320Y30884D01*
X54324Y30888D01*
X54326Y30889D01*
X54327Y30890D01*
X54340Y30901D01*
X54351Y30912D01*
X54361Y30924D01*
X54370Y30935D01*
X54376Y30947D01*
X54383Y30957D01*
X54388Y30968D01*
X54391Y30978D01*
X54396Y30996D01*
X54398Y31003D01*
X54399Y31009D01*
X54400Y31015D01*
Y31022D01*
X54399Y31036D01*
X54397Y31050D01*
X54393Y31063D01*
X54389Y31076D01*
X54377Y31100D01*
X54364Y31120D01*
X54349Y31135D01*
X54343Y31142D01*
X54338Y31147D01*
X54334Y31152D01*
X54329Y31155D01*
X54327Y31156D01*
X54326Y31157D01*
X54312Y31168D01*
X54296Y31176D01*
X54279Y31184D01*
X54262Y31190D01*
X54225Y31201D01*
X54191Y31207D01*
X54174Y31209D01*
X54159Y31211D01*
X54145Y31212D01*
X54134Y31213D01*
X54123Y31214D01*
D02*
G37*
G36*
X52766Y30418D02*
X52757D01*
X52750D01*
X52745D01*
X52741D01*
X52740D01*
Y30081D01*
X52758Y30082D01*
X52776Y30083D01*
X52808Y30089D01*
X52823Y30092D01*
X52836Y30096D01*
X52849Y30102D01*
X52859Y30106D01*
X52870Y30111D01*
X52879Y30115D01*
X52886Y30119D01*
X52893Y30123D01*
X52898Y30127D01*
X52901Y30129D01*
X52903Y30130D01*
X52904Y30131D01*
X52916Y30140D01*
X52925Y30150D01*
X52934Y30162D01*
X52942Y30172D01*
X52948Y30184D01*
X52953Y30194D01*
X52960Y30214D01*
X52966Y30233D01*
X52967Y30240D01*
X52968Y30247D01*
X52969Y30252D01*
Y30260D01*
X52968Y30273D01*
X52966Y30286D01*
X52963Y30297D01*
X52959Y30309D01*
X52949Y30330D01*
X52938Y30346D01*
X52927Y30360D01*
X52917Y30369D01*
X52912Y30373D01*
X52910Y30375D01*
X52908Y30377D01*
X52907D01*
X52896Y30386D01*
X52882Y30392D01*
X52855Y30403D01*
X52827Y30411D01*
X52800Y30415D01*
X52788Y30416D01*
X52776Y30417D01*
X52766Y30418D01*
D02*
G37*
G36*
X54307Y29669D02*
X53997D01*
X53971Y29659D01*
X53948Y29650D01*
X53930Y29639D01*
X53914Y29630D01*
X53902Y29621D01*
X53893Y29613D01*
X53888Y29609D01*
X53886Y29607D01*
X53874Y29591D01*
X53865Y29575D01*
X53859Y29559D01*
X53854Y29544D01*
X53852Y29530D01*
X53851Y29520D01*
X53850Y29515D01*
Y29510D01*
X53851Y29496D01*
X53853Y29483D01*
X53855Y29470D01*
X53859Y29458D01*
X53868Y29437D01*
X53880Y29421D01*
X53891Y29407D01*
X53901Y29398D01*
X53905Y29394D01*
X53908Y29392D01*
X53909Y29391D01*
X53910Y29390D01*
X53922Y29382D01*
X53936Y29376D01*
X53951Y29370D01*
X53966Y29366D01*
X53997Y29358D01*
X54030Y29353D01*
X54044Y29351D01*
X54058Y29350D01*
X54071Y29349D01*
X54082D01*
X54091Y29348D01*
X54097D01*
X54103D01*
X54104D01*
X54128Y29349D01*
X54149Y29350D01*
X54170Y29352D01*
X54190Y29355D01*
X54208Y29358D01*
X54225Y29362D01*
X54240Y29367D01*
X54255Y29371D01*
X54266Y29375D01*
X54277Y29378D01*
X54287Y29382D01*
X54294Y29385D01*
X54300Y29388D01*
X54304Y29391D01*
X54307Y29393D01*
X54308D01*
X54321Y29402D01*
X54333Y29411D01*
X54342Y29421D01*
X54351Y29431D01*
X54359Y29442D01*
X54364Y29452D01*
X54369Y29461D01*
X54373Y29472D01*
X54378Y29488D01*
X54380Y29497D01*
X54382Y29503D01*
X54383Y29508D01*
Y29515D01*
X54382Y29531D01*
X54379Y29547D01*
X54376Y29561D01*
X54373Y29574D01*
X54370Y29585D01*
X54367Y29594D01*
X54365Y29599D01*
X54364Y29601D01*
X54357Y29616D01*
X54347Y29629D01*
X54338Y29641D01*
X54328Y29651D01*
X54320Y29658D01*
X54313Y29664D01*
X54309Y29667D01*
X54307Y29669D01*
D02*
G37*
G36*
X52698Y28940D02*
X52691D01*
X52687D01*
X52684D01*
X52661Y28939D01*
X52638Y28938D01*
X52616Y28935D01*
X52596Y28931D01*
X52577Y28927D01*
X52561Y28923D01*
X52545Y28919D01*
X52531Y28914D01*
X52519Y28909D01*
X52509Y28904D01*
X52499Y28900D01*
X52492Y28896D01*
X52486Y28893D01*
X52481Y28890D01*
X52479Y28889D01*
X52478Y28888D01*
X52466Y28877D01*
X52454Y28867D01*
X52445Y28855D01*
X52437Y28844D01*
X52429Y28833D01*
X52424Y28821D01*
X52419Y28810D01*
X52416Y28798D01*
X52411Y28778D01*
X52409Y28769D01*
X52408Y28762D01*
X52407Y28756D01*
Y28747D01*
X52408Y28733D01*
X52410Y28719D01*
X52413Y28706D01*
X52417Y28693D01*
X52427Y28670D01*
X52440Y28650D01*
X52452Y28635D01*
X52458Y28629D01*
X52463Y28623D01*
X52467Y28619D01*
X52470Y28615D01*
X52472Y28614D01*
X52473Y28613D01*
X52487Y28604D01*
X52501Y28594D01*
X52518Y28587D01*
X52535Y28581D01*
X52569Y28570D01*
X52604Y28564D01*
X52620Y28562D01*
X52636Y28560D01*
X52649Y28559D01*
X52661Y28558D01*
X52671Y28557D01*
X52678D01*
X52682D01*
X52684D01*
X52711Y28558D01*
X52735Y28559D01*
X52758Y28562D01*
X52779Y28566D01*
X52799Y28570D01*
X52817Y28575D01*
X52833Y28581D01*
X52848Y28586D01*
X52860Y28591D01*
X52872Y28596D01*
X52881Y28601D01*
X52889Y28606D01*
X52895Y28610D01*
X52899Y28613D01*
X52901Y28614D01*
X52902Y28615D01*
X52915Y28626D01*
X52926Y28638D01*
X52935Y28649D01*
X52945Y28661D01*
X52951Y28672D01*
X52957Y28683D01*
X52962Y28693D01*
X52966Y28703D01*
X52971Y28721D01*
X52973Y28728D01*
X52974Y28735D01*
X52975Y28740D01*
Y28747D01*
X52974Y28762D01*
X52972Y28775D01*
X52968Y28789D01*
X52963Y28801D01*
X52952Y28825D01*
X52938Y28845D01*
X52924Y28861D01*
X52918Y28867D01*
X52912Y28872D01*
X52908Y28877D01*
X52904Y28880D01*
X52902Y28881D01*
X52901Y28883D01*
X52886Y28893D01*
X52871Y28901D01*
X52854Y28910D01*
X52836Y28916D01*
X52800Y28926D01*
X52766Y28933D01*
X52749Y28935D01*
X52733Y28937D01*
X52720Y28938D01*
X52708Y28939D01*
X52698Y28940D01*
D02*
G37*
G36*
X51451Y28876D02*
X51440D01*
X51436D01*
X51433D01*
X51432D01*
X51431D01*
X51391D01*
X51355Y28874D01*
X51321Y28872D01*
X51288Y28869D01*
X51259Y28866D01*
X51232Y28862D01*
X51207Y28858D01*
X51185Y28853D01*
X51165Y28848D01*
X51149Y28844D01*
X51134Y28840D01*
X51122Y28837D01*
X51113Y28834D01*
X51106Y28832D01*
X51102Y28830D01*
X51101Y28829D01*
X51081Y28820D01*
X51063Y28811D01*
X51048Y28800D01*
X51034Y28791D01*
X51024Y28781D01*
X51015Y28770D01*
X51007Y28760D01*
X51001Y28750D01*
X50996Y28741D01*
X50993Y28734D01*
X50990Y28725D01*
X50988Y28719D01*
X50987Y28714D01*
X50986Y28710D01*
Y28707D01*
X50987Y28694D01*
X50992Y28682D01*
X50997Y28669D01*
X51004Y28658D01*
X51013Y28647D01*
X51023Y28638D01*
X51044Y28619D01*
X51064Y28605D01*
X51075Y28599D01*
X51083Y28594D01*
X51090Y28590D01*
X51096Y28587D01*
X51100Y28586D01*
X51101Y28585D01*
X51124Y28575D01*
X51148Y28568D01*
X51174Y28561D01*
X51201Y28556D01*
X51256Y28546D01*
X51283Y28543D01*
X51309Y28540D01*
X51334Y28538D01*
X51357Y28537D01*
X51378Y28536D01*
X51396Y28535D01*
X51410Y28534D01*
X51422D01*
X51426D01*
X51429D01*
X51430D01*
X51431D01*
X51468Y28535D01*
X51504Y28536D01*
X51536Y28539D01*
X51567Y28542D01*
X51596Y28545D01*
X51622Y28550D01*
X51646Y28555D01*
X51668Y28560D01*
X51688Y28564D01*
X51705Y28569D01*
X51719Y28573D01*
X51731Y28576D01*
X51740Y28581D01*
X51747Y28583D01*
X51752Y28584D01*
X51753Y28585D01*
X51773Y28595D01*
X51791Y28605D01*
X51807Y28615D01*
X51820Y28625D01*
X51832Y28636D01*
X51841Y28646D01*
X51849Y28656D01*
X51856Y28665D01*
X51861Y28674D01*
X51864Y28682D01*
X51867Y28689D01*
X51868Y28695D01*
X51869Y28700D01*
X51870Y28703D01*
Y28707D01*
X51869Y28721D01*
X51865Y28736D01*
X51860Y28749D01*
X51851Y28761D01*
X51843Y28772D01*
X51833Y28783D01*
X51812Y28800D01*
X51790Y28815D01*
X51780Y28820D01*
X51771Y28824D01*
X51763Y28828D01*
X51758Y28830D01*
X51754Y28833D01*
X51753D01*
X51730Y28840D01*
X51705Y28847D01*
X51680Y28853D01*
X51653Y28858D01*
X51600Y28866D01*
X51572Y28869D01*
X51547Y28871D01*
X51524Y28873D01*
X51502Y28874D01*
X51482Y28875D01*
X51464D01*
X51451Y28876D01*
D02*
G37*
G36*
X53102Y28195D02*
X53097D01*
X53093D01*
X53092D01*
X53070Y28194D01*
X53050Y28192D01*
X53032Y28190D01*
X53016Y28186D01*
X53000Y28181D01*
X52986Y28176D01*
X52975Y28170D01*
X52963Y28165D01*
X52954Y28159D01*
X52947Y28154D01*
X52940Y28149D01*
X52934Y28143D01*
X52930Y28139D01*
X52927Y28137D01*
X52926Y28135D01*
X52925Y28134D01*
X52917Y28123D01*
X52909Y28110D01*
X52897Y28086D01*
X52889Y28062D01*
X52883Y28039D01*
X52879Y28021D01*
X52878Y28012D01*
Y28005D01*
X52877Y28000D01*
Y27863D01*
X53270D01*
X53280Y27864D01*
X53288Y27868D01*
X53292Y27871D01*
X53293Y27872D01*
X53299Y27880D01*
X53301Y27888D01*
X53302Y27893D01*
Y27980D01*
X53301Y28001D01*
X53300Y28020D01*
X53298Y28037D01*
X53293Y28054D01*
X53290Y28068D01*
X53286Y28082D01*
X53281Y28095D01*
X53277Y28105D01*
X53272Y28114D01*
X53267Y28123D01*
X53262Y28129D01*
X53259Y28135D01*
X53256Y28139D01*
X53253Y28142D01*
X53252Y28143D01*
X53251Y28144D01*
X53240Y28154D01*
X53230Y28161D01*
X53217Y28168D01*
X53205Y28174D01*
X53179Y28183D01*
X53153Y28189D01*
X53140Y28191D01*
X53129Y28192D01*
X53119Y28194D01*
X53109D01*
X53102Y28195D01*
D02*
G37*
G36*
X54211Y28097D02*
Y27887D01*
X54620Y27995D01*
X54211Y28097D01*
D02*
G37*
%LPD*%
D10*
X26369Y34560D02*
G03*
X26247Y34682I-122J0D01*
G01*
Y34123D02*
G03*
X26369Y34245I0J122D01*
G01*
X25390Y34679D02*
G03*
X25268Y34557I0J-122D01*
G01*
Y34242D02*
G03*
X25390Y34120I122J0D01*
G01*
X28503Y34560D02*
G03*
X28381Y34682I-122J0D01*
G01*
Y34123D02*
G03*
X28503Y34245I0J122D01*
G01*
X27525Y34679D02*
G03*
X27403Y34557I0J-122D01*
G01*
Y34242D02*
G03*
X27525Y34120I122J0D01*
G01*
X26047Y32640D02*
G03*
X26169Y32518I122J0D01*
G01*
Y33077D02*
G03*
X26047Y32955I0J-122D01*
G01*
X27025Y32521D02*
G03*
X27147Y32643I0J122D01*
G01*
Y32958D02*
G03*
X27025Y33080I-122J0D01*
G01*
X26047Y30590D02*
G03*
X26169Y30468I122J0D01*
G01*
Y31027D02*
G03*
X26047Y30905I0J-122D01*
G01*
X27025Y30471D02*
G03*
X27147Y30593I0J122D01*
G01*
Y30908D02*
G03*
X27025Y31030I-122J0D01*
G01*
X27440Y31569D02*
G03*
X27318Y31447I0J-122D01*
G01*
X27877D02*
G03*
X27755Y31569I-122J0D01*
G01*
X27321Y30590D02*
G03*
X27443Y30468I122J0D01*
G01*
X27758D02*
G03*
X27880Y30590I0J122D01*
G01*
X25390Y31569D02*
G03*
X25268Y31447I0J-122D01*
G01*
X25827D02*
G03*
X25705Y31569I-122J0D01*
G01*
X25271Y30590D02*
G03*
X25393Y30468I122J0D01*
G01*
X25708D02*
G03*
X25830Y30590I0J122D01*
G01*
X24883Y22575D02*
G03*
X25004Y22697I0J122D01*
G01*
X24446D02*
G03*
X24568Y22575I122J0D01*
G01*
X25002Y23553D02*
G03*
X24880Y23675I-122J0D01*
G01*
X24565D02*
G03*
X24443Y23553I0J-122D01*
G01*
X28140Y23675D02*
G03*
X28018Y23553I0J-122D01*
G01*
X28577D02*
G03*
X28455Y23675I-122J0D01*
G01*
X28021Y22697D02*
G03*
X28143Y22575I122J0D01*
G01*
X28458D02*
G03*
X28580Y22697I0J122D01*
G01*
X47109Y22447D02*
G03*
X47231Y22569I0J122D01*
G01*
X46672D02*
G03*
X46794Y22447I122J0D01*
G01*
X47229Y23425D02*
G03*
X47107Y23547I-122J0D01*
G01*
X46792D02*
G03*
X46670Y23425I0J-122D01*
G01*
X49072Y23547D02*
G03*
X48950Y23425I0J-122D01*
G01*
X49509D02*
G03*
X49387Y23547I-122J0D01*
G01*
X48952Y22569D02*
G03*
X49074Y22447I122J0D01*
G01*
X49389D02*
G03*
X49511Y22569I0J122D01*
G01*
X24700Y45400D02*
G03*
X24700Y45400I-750J0D01*
G01*
X42900D02*
G03*
X42900Y45400I-750J0D01*
G01*
X38350D02*
G03*
X38350Y45400I-750J0D01*
G01*
X33800D02*
G03*
X33800Y45400I-750J0D01*
G01*
X29250D02*
G03*
X29250Y45400I-750J0D01*
G01*
X51732Y16856D02*
G03*
X48668Y16856I-1532J-1286D01*
G01*
X48175Y17983D02*
G03*
X52225Y17983I2025J-2413D01*
G01*
X50500Y15570D02*
G03*
X50500Y15570I-300J0D01*
G01*
X48668Y14284D02*
G03*
X51732Y14284I1532J1286D01*
G01*
X24848D02*
G03*
X27912Y14284I1532J1286D01*
G01*
X26680Y15570D02*
G03*
X26680Y15570I-300J0D01*
G01*
X24355Y17983D02*
G03*
X28405Y17983I2025J-2413D01*
G01*
X27912Y16856D02*
G03*
X24848Y16856I-1532J-1286D01*
G01*
X36123Y17465D02*
G03*
X36123Y17465I-50J0D01*
G01*
X40400Y25415D02*
G03*
X40400Y25415I-50J0D01*
G01*
X34285Y13120D02*
G03*
X34285Y13120I-50J0D01*
G01*
X25268Y34242D02*
Y34557D01*
X25390Y34679D02*
X25705D01*
X25390Y34120D02*
X25705D01*
X25932Y34682D02*
X26247D01*
X26369Y34245D02*
Y34560D01*
X25932Y34123D02*
X26247D01*
X27403Y34242D02*
Y34557D01*
X27525Y34679D02*
X27840D01*
X27525Y34120D02*
X27840D01*
X28066Y34682D02*
X28381D01*
X28503Y34245D02*
Y34560D01*
X28066Y34123D02*
X28381D01*
X27147Y32643D02*
Y32958D01*
X26710Y32521D02*
X27025D01*
X26710Y33080D02*
X27025D01*
X26169Y32518D02*
X26484D01*
X26047Y32640D02*
Y32955D01*
X26169Y33077D02*
X26484D01*
X27147Y30593D02*
Y30908D01*
X26710Y30471D02*
X27025D01*
X26710Y31030D02*
X27025D01*
X26169Y30468D02*
X26484D01*
X26047Y30590D02*
Y30905D01*
X26169Y31027D02*
X26484D01*
X27443Y30468D02*
X27758D01*
X27321Y30590D02*
Y30905D01*
X27880Y30590D02*
Y30905D01*
X27318Y31132D02*
Y31447D01*
X27440Y31569D02*
X27755D01*
X27877Y31132D02*
Y31447D01*
X25393Y30468D02*
X25708D01*
X25271Y30590D02*
Y30905D01*
X25830Y30590D02*
Y30905D01*
X25268Y31132D02*
Y31447D01*
X25390Y31569D02*
X25705D01*
X25827Y31132D02*
Y31447D01*
X24565Y23675D02*
X24880D01*
X25002Y23238D02*
Y23553D01*
X24443Y23238D02*
Y23553D01*
X25004Y22697D02*
Y23012D01*
X24568Y22575D02*
X24883D01*
X24446Y22697D02*
Y23012D01*
X28143Y22575D02*
X28458D01*
X28021Y22697D02*
Y23012D01*
X28580Y22697D02*
Y23012D01*
X28018Y23238D02*
Y23553D01*
X28140Y23675D02*
X28455D01*
X28577Y23238D02*
Y23553D01*
X47229Y23110D02*
Y23425D01*
X46792Y23547D02*
X47107D01*
X46670Y23110D02*
Y23425D01*
X47231Y22569D02*
Y22884D01*
X46672Y22569D02*
Y22884D01*
X46794Y22447D02*
X47109D01*
X48952Y22569D02*
Y22884D01*
X49074Y22447D02*
X49389D01*
X49511Y22569D02*
Y22884D01*
X48950Y23110D02*
Y23425D01*
X49509Y23110D02*
Y23425D01*
X49072Y23547D02*
X49387D01*
X21863Y40368D02*
X26037D01*
X21863Y43918D02*
X26037D01*
X22741Y46641D02*
X25109D01*
X25167D01*
X26037Y45771D01*
X22733Y46641D02*
X22741D01*
X21863Y45771D02*
X22733Y46641D01*
X26037Y40368D02*
Y45771D01*
X25769Y40100D02*
X26037Y40368D01*
X22131Y40100D02*
X25769D01*
X21863Y40368D02*
X22131Y40100D01*
X21863Y40368D02*
Y45771D01*
X40063Y40368D02*
X44237D01*
X40063Y43918D02*
X44237D01*
X40941Y46641D02*
X43309D01*
X43367D01*
X44237Y45771D01*
X40933Y46641D02*
X40941D01*
X40063Y45771D02*
X40933Y46641D01*
X44237Y40368D02*
Y45771D01*
X43969Y40100D02*
X44237Y40368D01*
X40331Y40100D02*
X43969D01*
X40063Y40368D02*
X40331Y40100D01*
X40063Y40368D02*
Y45771D01*
X35513Y40368D02*
X39687D01*
X35513Y43918D02*
X39687D01*
X36391Y46641D02*
X38759D01*
X38817D01*
X39687Y45771D01*
X36383Y46641D02*
X36391D01*
X35513Y45771D02*
X36383Y46641D01*
X39687Y40368D02*
Y45771D01*
X39419Y40100D02*
X39687Y40368D01*
X35781Y40100D02*
X39419D01*
X35513Y40368D02*
X35781Y40100D01*
X35513Y40368D02*
Y45771D01*
X30963Y40368D02*
X35137D01*
X30963Y43918D02*
X35137D01*
X31841Y46641D02*
X34209D01*
X34267D01*
X35137Y45771D01*
X31833Y46641D02*
X31841D01*
X30963Y45771D02*
X31833Y46641D01*
X35137Y40368D02*
Y45771D01*
X34869Y40100D02*
X35137Y40368D01*
X31231Y40100D02*
X34869D01*
X30963Y40368D02*
X31231Y40100D01*
X30963Y40368D02*
Y45771D01*
X26413Y40368D02*
X30587D01*
X26413Y43918D02*
X30587D01*
X27291Y46641D02*
X29659D01*
X29717D01*
X30587Y45771D01*
X27283Y46641D02*
X27291D01*
X26413Y45771D02*
X27283Y46641D01*
X30587Y40368D02*
Y45771D01*
X30319Y40100D02*
X30587Y40368D01*
X26681Y40100D02*
X30319D01*
X26413Y40368D02*
X26681Y40100D01*
X26413Y40368D02*
Y45771D01*
X22059Y47986D02*
Y48471D01*
X25641Y47757D02*
Y48471D01*
X22059Y47757D02*
Y47986D01*
X22826D02*
Y48183D01*
X23141Y47986D02*
Y48183D01*
X22649Y47986D02*
X23319D01*
Y48183D01*
X22630D02*
X23319D01*
X22630Y47986D02*
Y48183D01*
X24283Y47986D02*
X24953D01*
Y48183D01*
X24264D02*
X24953D01*
X24264Y47986D02*
Y48183D01*
X24776Y47986D02*
Y48183D01*
X24461Y47986D02*
Y48183D01*
X22059Y49384D02*
X23063D01*
Y48439D02*
Y49384D01*
X22177Y48439D02*
X23063D01*
X24480Y48458D02*
Y49363D01*
Y48458D02*
X25641D01*
X24480Y49411D02*
X25641D01*
Y49403D02*
Y50014D01*
X22059D02*
X25641D01*
X22059Y49384D02*
Y50014D01*
X48175Y17983D02*
X52225D01*
X48175Y18983D02*
X52225D01*
Y17983D02*
Y18983D01*
X48175Y17983D02*
Y18983D01*
X48668Y14284D02*
Y16856D01*
X51732Y14284D02*
Y16856D01*
X27912Y14284D02*
Y16856D01*
X24848Y14284D02*
Y16856D01*
X24355Y17983D02*
Y18983D01*
X28405Y17983D02*
Y18983D01*
X24355D02*
X28405D01*
X24355Y17983D02*
X28405D01*
X34273Y25465D02*
X35873D01*
X34273Y17465D02*
X35873D01*
X35073D02*
Y25465D01*
X40550Y17415D02*
X42150D01*
X40550Y25415D02*
X42150D01*
X41350Y17415D02*
Y25415D01*
X42235Y13320D02*
Y14920D01*
X34235Y13320D02*
Y14920D01*
Y14120D02*
X42235D01*
X36800Y41800D02*
Y42400D01*
Y42100D01*
X37200D01*
Y41800D01*
Y42400D01*
X37700Y41800D02*
X37500D01*
X37400Y41900D01*
Y42300D01*
X37500Y42400D01*
X37700D01*
X37800Y42300D01*
Y41900D01*
X37700Y41800D01*
X38000D02*
X38399D01*
X38200D01*
Y42400D01*
X23150Y41800D02*
Y42400D01*
Y42100D01*
X23550D01*
Y41800D01*
Y42400D01*
X24050Y41800D02*
X23850D01*
X23750Y41900D01*
Y42300D01*
X23850Y42400D01*
X24050D01*
X24150Y42300D01*
Y41900D01*
X24050Y41800D01*
X24350D02*
X24749D01*
X24550D01*
Y42400D01*
X41350Y41800D02*
Y42400D01*
Y42100D01*
X41750D01*
Y41800D01*
Y42400D01*
X42250Y41800D02*
X42050D01*
X41950Y41900D01*
Y42300D01*
X42050Y42400D01*
X42250D01*
X42350Y42300D01*
Y41900D01*
X42250Y41800D01*
X42550D02*
X42949D01*
X42750D01*
Y42400D01*
X32250Y41800D02*
Y42400D01*
Y42100D01*
X32650D01*
Y41800D01*
Y42400D01*
X33150Y41800D02*
X32950D01*
X32850Y41900D01*
Y42300D01*
X32950Y42400D01*
X33150D01*
X33250Y42300D01*
Y41900D01*
X33150Y41800D01*
X33450D02*
X33849D01*
X33650D01*
Y42400D01*
X27700Y41800D02*
Y42400D01*
Y42100D01*
X28100D01*
Y41800D01*
Y42400D01*
X28600Y41800D02*
X28400D01*
X28300Y41900D01*
Y42300D01*
X28400Y42400D01*
X28600D01*
X28700Y42300D01*
Y41900D01*
X28600Y41800D01*
X28900D02*
X29299D01*
X29100D01*
Y42400D01*
D16*
X23752Y22605D02*
Y22982D01*
X23232Y22605D02*
X23752D01*
X23232D02*
Y22982D01*
X23752Y23318D02*
Y23695D01*
X23232D02*
X23752D01*
X23232Y23318D02*
Y23695D01*
X27167Y31255D02*
Y31632D01*
X26647Y31255D02*
X27167D01*
X26647D02*
Y31632D01*
X27167Y31968D02*
Y32345D01*
X26647D02*
X27167D01*
X26647Y31968D02*
Y32345D01*
X26547Y31255D02*
Y31632D01*
X26027Y31255D02*
X26547D01*
X26027D02*
Y31632D01*
X26547Y31968D02*
Y32345D01*
X26027D02*
X26547D01*
X26027Y31968D02*
Y32345D01*
X28146Y33860D02*
X28523D01*
Y33340D02*
Y33860D01*
X28146Y33340D02*
X28523D01*
X27433Y33860D02*
X27810D01*
X27433Y33340D02*
Y33860D01*
Y33340D02*
X27810D01*
X25961Y33860D02*
X26339D01*
Y33340D02*
Y33860D01*
X25961Y33340D02*
X26339D01*
X25248Y33860D02*
X25626D01*
X25248Y33340D02*
Y33860D01*
Y33340D02*
X25626D01*
X27900Y32009D02*
Y32386D01*
X27379Y32009D02*
X27900D01*
X27379D02*
Y32386D01*
X27900Y32722D02*
Y33100D01*
X27379D02*
X27900D01*
X27379Y32722D02*
Y33100D01*
X25768Y32009D02*
Y32386D01*
X25248Y32009D02*
X25768D01*
X25248D02*
Y32386D01*
X25768Y32722D02*
Y33100D01*
X25248D02*
X25768D01*
X25248Y32722D02*
Y33100D01*
X22560Y22605D02*
Y22982D01*
X22040Y22605D02*
X22560D01*
X22040D02*
Y22982D01*
X22560Y23318D02*
Y23695D01*
X22040D02*
X22560D01*
X22040Y23318D02*
Y23695D01*
X26807Y23318D02*
Y23695D01*
X27327D01*
Y23318D02*
Y23695D01*
X26807Y22605D02*
Y22982D01*
Y22605D02*
X27327D01*
Y22982D01*
X26135Y22605D02*
Y22982D01*
X25615Y22605D02*
X26135D01*
X25615D02*
Y22982D01*
X26135Y23318D02*
Y23695D01*
X25615D02*
X26135D01*
X25615Y23318D02*
Y23695D01*
X45890Y23190D02*
Y23567D01*
X46410D01*
Y23190D02*
Y23567D01*
X45890Y22477D02*
Y22854D01*
Y22477D02*
X46410D01*
Y22854D01*
X47410Y23190D02*
Y23567D01*
X47930D01*
Y23190D02*
Y23567D01*
X47410Y22477D02*
Y22854D01*
Y22477D02*
X47930D01*
Y22854D01*
X48690Y22477D02*
Y22854D01*
X48170Y22477D02*
X48690D01*
X48170D02*
Y22854D01*
X48690Y23190D02*
Y23567D01*
X48170D02*
X48690D01*
X48170Y23190D02*
Y23567D01*
X49690Y23190D02*
Y23567D01*
X50210D01*
Y23190D02*
Y23567D01*
X49690Y22477D02*
Y22854D01*
Y22477D02*
X50210D01*
Y22854D01*
X25890Y47568D02*
Y47945D01*
X26410D01*
Y47568D02*
Y47945D01*
X25890Y46855D02*
Y47232D01*
Y46855D02*
X26410D01*
Y47232D01*
X27368Y49110D02*
X27745D01*
Y48590D02*
Y49110D01*
X27368Y48590D02*
X27745D01*
X26655Y49110D02*
X27032D01*
X26655Y48590D02*
Y49110D01*
Y48590D02*
X27032D01*
X27368Y47360D02*
X27745D01*
Y46840D02*
Y47360D01*
X27368Y46840D02*
X27745D01*
X26655Y47360D02*
X27032D01*
X26655Y46840D02*
Y47360D01*
Y46840D02*
X27032D01*
X26410Y48055D02*
Y48432D01*
X25890Y48055D02*
X26410D01*
X25890D02*
Y48432D01*
X26410Y48768D02*
Y49145D01*
X25890D02*
X26410D01*
X25890Y48768D02*
Y49145D01*
X31400Y46890D02*
X31777D01*
X31400D02*
Y47410D01*
X31777D01*
X32113Y46890D02*
X32490D01*
Y47410D01*
X32113D02*
X32490D01*
X38455Y16690D02*
X38832D01*
X38455D02*
Y17210D01*
X38832D01*
X39168Y16690D02*
X39545D01*
Y17210D01*
X39168D02*
X39545D01*
X38455Y25690D02*
X38832D01*
X38455D02*
Y26210D01*
X38832D01*
X39168Y25690D02*
X39545D01*
Y26210D01*
X39168D02*
X39545D01*
X38455Y20822D02*
X38832D01*
X38455D02*
Y21342D01*
X38832D01*
X39168Y20822D02*
X39545D01*
Y21342D01*
X39168D02*
X39545D01*
X38455Y17240D02*
X38832D01*
X38455D02*
Y17760D01*
X38832D01*
X39168Y17240D02*
X39545D01*
Y17760D01*
X39168D02*
X39545D01*
X38455Y18640D02*
X38832D01*
X38455D02*
Y19160D01*
X38832D01*
X39168Y18640D02*
X39545D01*
Y19160D01*
X39168D02*
X39545D01*
X38455Y20190D02*
X38832D01*
X38455D02*
Y20710D01*
X38832D01*
X39168Y20190D02*
X39545D01*
Y20710D01*
X39168D02*
X39545D01*
X38455Y25040D02*
X38832D01*
X38455D02*
Y25560D01*
X38832D01*
X39168Y25040D02*
X39545D01*
Y25560D01*
X39168D02*
X39545D01*
X38455Y23609D02*
X38832D01*
X38455D02*
Y24129D01*
X38832D01*
X39168Y23609D02*
X39545D01*
Y24129D01*
X39168D02*
X39545D01*
X38455Y22090D02*
X38832D01*
X38455D02*
Y22610D01*
X38832D01*
X39168Y22090D02*
X39545D01*
Y22610D01*
X39168D02*
X39545D01*
X38455Y21440D02*
X38832D01*
X38455D02*
Y21960D01*
X38832D01*
X39168Y21440D02*
X39545D01*
Y21960D01*
X39168D02*
X39545D01*
D146*
X22201Y38771D02*
G03*
X22199Y38771I-0J79D01*
G01*
X40401D02*
G03*
X40399Y38771I-0J79D01*
G01*
X35851D02*
G03*
X35849Y38771I-0J79D01*
G01*
X31300D02*
G03*
X31300Y38771I-0J79D01*
G01*
X26751D02*
G03*
X26749Y38771I-0J79D01*
G01*
D147*
X28392Y48775D02*
Y48925D01*
X27872Y48600D02*
X28972D01*
Y49100D01*
X27872Y48600D02*
Y49100D01*
X28072D01*
X28772D02*
X28972D01*
X28072D02*
Y49400D01*
X28772Y49100D02*
Y49400D01*
X28072D02*
X28772D01*
X28422Y49075D02*
Y49325D01*
X28522Y49225D01*
X28322D02*
X28422Y49325D01*
X28392Y48850D02*
X28442D01*
X29670Y48775D02*
Y48925D01*
X29150Y48600D02*
X30250D01*
Y49100D01*
X29150Y48600D02*
Y49100D01*
X29350D01*
X30050D02*
X30250D01*
X29350D02*
Y49400D01*
X30050Y49100D02*
Y49400D01*
X29350D02*
X30050D01*
X29700Y49075D02*
Y49325D01*
X29800Y49225D01*
X29600D02*
X29700Y49325D01*
X29670Y48850D02*
X29720D01*
M02*
