G04*
G04 #@! TF.GenerationSoftware,Altium Limited,Altium Designer,20.2.6 (244)*
G04*
G04 Layer_Color=128*
%FSLAX24Y24*%
%MOIN*%
G70*
G04*
G04 #@! TF.SameCoordinates,B6A14326-B2C9-468C-B45E-93355CF85A49*
G04*
G04*
G04 #@! TF.FilePolarity,Positive*
G04*
G01*
G75*
%ADD20R,0.0340X0.0318*%
%ADD23R,0.0315X0.0354*%
%ADD24R,0.0318X0.0340*%
%ADD29R,0.0354X0.0315*%
%ADD136R,0.0320X0.0320*%
%ADD137R,0.0236X0.0800*%
%ADD138R,0.0118X0.0800*%
%ADD139R,0.1000X0.0350*%
%ADD140R,0.0350X0.1000*%
G36*
X26320Y49030D02*
Y48832D01*
X26204Y48724D01*
X26096D01*
X25980Y48832D01*
Y49030D01*
X26005Y49055D01*
X26295D01*
X26320Y49030D01*
D02*
G37*
G36*
X27655Y48995D02*
Y48705D01*
X27630Y48680D01*
X27432D01*
X27324Y48796D01*
Y48904D01*
X27432Y49020D01*
X27630D01*
X27655Y48995D01*
D02*
G37*
G36*
X27076Y48904D02*
Y48796D01*
X26968Y48680D01*
X26770D01*
X26745Y48705D01*
Y48995D01*
X26770Y49020D01*
X26968D01*
X27076Y48904D01*
D02*
G37*
G36*
X25661Y49260D02*
X25717Y49206D01*
X25747Y49135D01*
X25748Y49096D01*
Y48781D01*
X25747Y48743D01*
X25717Y48672D01*
X25661Y48617D01*
X25590Y48588D01*
X25512D01*
X25441Y48617D01*
X25386Y48672D01*
X25355Y48743D01*
X25354Y48781D01*
X25354Y49096D01*
X25354Y49096D01*
X25355Y49135D01*
X25386Y49206D01*
X25441Y49260D01*
X25512Y49290D01*
X25590D01*
X25661Y49260D01*
D02*
G37*
G36*
X22260Y49261D02*
X22315Y49206D01*
X22346Y49135D01*
X22346Y49096D01*
Y48781D01*
X22346Y48743D01*
X22315Y48671D01*
X22260Y48617D01*
X22188Y48587D01*
X22111D01*
X22039Y48617D01*
X21984Y48671D01*
X21953Y48743D01*
X21953Y48781D01*
X21953Y49096D01*
X21953Y49096D01*
X21953Y49135D01*
X21984Y49206D01*
X22039Y49261D01*
X22111Y49290D01*
X22188D01*
X22260Y49261D01*
D02*
G37*
G36*
X26320Y48368D02*
Y48170D01*
X26295Y48145D01*
X26005D01*
X25980Y48170D01*
Y48368D01*
X26096Y48476D01*
X26204D01*
X26320Y48368D01*
D02*
G37*
G36*
Y47830D02*
Y47632D01*
X26204Y47524D01*
X26096D01*
X25980Y47632D01*
Y47830D01*
X26005Y47855D01*
X26295D01*
X26320Y47830D01*
D02*
G37*
G36*
X32400Y47294D02*
Y47005D01*
X32375Y46980D01*
X32177D01*
X32069Y47095D01*
Y47204D01*
X32177Y47320D01*
X32375D01*
X32400Y47294D01*
D02*
G37*
G36*
X31821Y47204D02*
Y47095D01*
X31713Y46980D01*
X31515D01*
X31490Y47005D01*
Y47294D01*
X31515Y47320D01*
X31713D01*
X31821Y47204D01*
D02*
G37*
G36*
X26320Y47168D02*
Y46970D01*
X26295Y46945D01*
X26005D01*
X25980Y46970D01*
Y47168D01*
X26096Y47276D01*
X26204D01*
X26320Y47168D01*
D02*
G37*
G36*
X27655Y47245D02*
Y46955D01*
X27630Y46930D01*
X27432D01*
X27324Y47046D01*
Y47154D01*
X27432Y47270D01*
X27630D01*
X27655Y47245D01*
D02*
G37*
G36*
X27076Y47154D02*
Y47046D01*
X26968Y46930D01*
X26770D01*
X26745Y46955D01*
Y47245D01*
X26770Y47270D01*
X26968D01*
X27076Y47154D01*
D02*
G37*
G36*
X25661Y47686D02*
X25717Y47631D01*
X25747Y47560D01*
X25748Y47522D01*
Y47089D01*
X25747Y47050D01*
X25717Y46979D01*
X25661Y46924D01*
X25590Y46895D01*
X25512D01*
X25441Y46924D01*
X25386Y46979D01*
X25355Y47050D01*
X25354Y47089D01*
X25354Y47522D01*
X25354Y47522D01*
X25355Y47560D01*
X25386Y47631D01*
X25441Y47686D01*
X25512Y47715D01*
X25590D01*
X25661Y47686D01*
D02*
G37*
G36*
X22261Y47688D02*
X22317Y47633D01*
X22346Y47561D01*
Y47522D01*
Y47089D01*
Y47049D01*
X22317Y46977D01*
X22261Y46922D01*
X22189Y46892D01*
X22110D01*
X22038Y46922D01*
X21983Y46977D01*
X21953Y47049D01*
Y47089D01*
Y47522D01*
Y47561D01*
X21983Y47633D01*
X22038Y47688D01*
X22110Y47718D01*
X22189D01*
X22261Y47688D01*
D02*
G37*
G36*
X28374Y34545D02*
Y34255D01*
X28349Y34230D01*
X28233D01*
X28074Y34346D01*
Y34454D01*
X28233Y34570D01*
X28349D01*
X28374Y34545D01*
D02*
G37*
G36*
X27826Y34454D02*
Y34346D01*
X27667Y34230D01*
X27551D01*
X27526Y34255D01*
Y34545D01*
X27551Y34570D01*
X27667D01*
X27826Y34454D01*
D02*
G37*
G36*
X26240Y34545D02*
Y34255D01*
X26215Y34230D01*
X26098D01*
X25940Y34346D01*
Y34454D01*
X26098Y34570D01*
X26215D01*
X26240Y34545D01*
D02*
G37*
G36*
X25692Y34454D02*
Y34346D01*
X25533Y34230D01*
X25416D01*
X25391Y34255D01*
Y34545D01*
X25416Y34570D01*
X25533D01*
X25692Y34454D01*
D02*
G37*
G36*
X28433Y33745D02*
Y33455D01*
X28408Y33430D01*
X28210D01*
X28102Y33546D01*
Y33654D01*
X28210Y33770D01*
X28408D01*
X28433Y33745D01*
D02*
G37*
G36*
X27854Y33654D02*
Y33546D01*
X27746Y33430D01*
X27548D01*
X27523Y33455D01*
Y33745D01*
X27548Y33770D01*
X27746D01*
X27854Y33654D01*
D02*
G37*
G36*
X26249Y33745D02*
Y33455D01*
X26224Y33430D01*
X26026D01*
X25918Y33546D01*
Y33654D01*
X26026Y33770D01*
X26224D01*
X26249Y33745D01*
D02*
G37*
G36*
X25670Y33654D02*
Y33546D01*
X25562Y33430D01*
X25364D01*
X25338Y33455D01*
Y33745D01*
X25364Y33770D01*
X25562D01*
X25670Y33654D01*
D02*
G37*
G36*
X27810Y32984D02*
Y32786D01*
X27694Y32678D01*
X27585D01*
X27469Y32786D01*
Y32984D01*
X27495Y33010D01*
X27784D01*
X27810Y32984D01*
D02*
G37*
G36*
X25678D02*
Y32786D01*
X25563Y32678D01*
X25454D01*
X25338Y32786D01*
Y32984D01*
X25364Y33010D01*
X25653D01*
X25678Y32984D01*
D02*
G37*
G36*
X27024Y32945D02*
Y32655D01*
X26999Y32630D01*
X26883D01*
X26724Y32746D01*
Y32854D01*
X26883Y32970D01*
X26999D01*
X27024Y32945D01*
D02*
G37*
G36*
X26476Y32854D02*
Y32746D01*
X26317Y32630D01*
X26201D01*
X26176Y32655D01*
Y32945D01*
X26201Y32970D01*
X26317D01*
X26476Y32854D01*
D02*
G37*
G36*
X27810Y32322D02*
Y32124D01*
X27784Y32099D01*
X27495D01*
X27469Y32124D01*
Y32322D01*
X27585Y32430D01*
X27694D01*
X27810Y32322D01*
D02*
G37*
G36*
X25678D02*
Y32124D01*
X25653Y32099D01*
X25364D01*
X25338Y32124D01*
Y32322D01*
X25454Y32430D01*
X25563D01*
X25678Y32322D01*
D02*
G37*
G36*
X27077Y32230D02*
Y32032D01*
X26962Y31924D01*
X26853D01*
X26737Y32032D01*
Y32230D01*
X26762Y32255D01*
X27052D01*
X27077Y32230D01*
D02*
G37*
G36*
X26457D02*
Y32032D01*
X26341Y31924D01*
X26232D01*
X26117Y32032D01*
Y32230D01*
X26142Y32255D01*
X26432D01*
X26457Y32230D01*
D02*
G37*
G36*
X27077Y31568D02*
Y31370D01*
X27052Y31345D01*
X26762D01*
X26737Y31370D01*
Y31568D01*
X26853Y31676D01*
X26962D01*
X27077Y31568D01*
D02*
G37*
G36*
X26457D02*
Y31370D01*
X26432Y31345D01*
X26142D01*
X26117Y31370D01*
Y31568D01*
X26232Y31676D01*
X26341D01*
X26457Y31568D01*
D02*
G37*
G36*
X27770Y31415D02*
Y31298D01*
X27654Y31140D01*
X27546D01*
X27430Y31298D01*
Y31415D01*
X27455Y31440D01*
X27745D01*
X27770Y31415D01*
D02*
G37*
G36*
X25720D02*
Y31298D01*
X25604Y31140D01*
X25496D01*
X25380Y31298D01*
Y31415D01*
X25405Y31440D01*
X25695D01*
X25720Y31415D01*
D02*
G37*
G36*
X27770Y30733D02*
Y30616D01*
X27745Y30591D01*
X27455D01*
X27430Y30616D01*
Y30733D01*
X27546Y30892D01*
X27654D01*
X27770Y30733D01*
D02*
G37*
G36*
X25720D02*
Y30616D01*
X25695Y30591D01*
X25405D01*
X25380Y30616D01*
Y30733D01*
X25496Y30892D01*
X25604D01*
X25720Y30733D01*
D02*
G37*
G36*
X27024Y30895D02*
Y30605D01*
X26999Y30580D01*
X26883D01*
X26724Y30696D01*
Y30804D01*
X26883Y30920D01*
X26999D01*
X27024Y30895D01*
D02*
G37*
G36*
X26476Y30804D02*
Y30696D01*
X26317Y30580D01*
X26201D01*
X26176Y30605D01*
Y30895D01*
X26201Y30920D01*
X26317D01*
X26476Y30804D01*
D02*
G37*
G36*
X39455Y26095D02*
Y25805D01*
X39430Y25780D01*
X39232D01*
X39124Y25896D01*
Y26004D01*
X39232Y26120D01*
X39430D01*
X39455Y26095D01*
D02*
G37*
G36*
X38876Y26004D02*
Y25896D01*
X38768Y25780D01*
X38570D01*
X38545Y25805D01*
Y26095D01*
X38570Y26120D01*
X38768D01*
X38876Y26004D01*
D02*
G37*
G36*
X39455Y25445D02*
Y25155D01*
X39430Y25130D01*
X39232D01*
X39124Y25246D01*
Y25354D01*
X39232Y25470D01*
X39430D01*
X39455Y25445D01*
D02*
G37*
G36*
X38876Y25354D02*
Y25246D01*
X38768Y25130D01*
X38570D01*
X38545Y25155D01*
Y25445D01*
X38570Y25470D01*
X38768D01*
X38876Y25354D01*
D02*
G37*
G36*
X39455Y24014D02*
Y23724D01*
X39430Y23699D01*
X39232D01*
X39124Y23814D01*
Y23923D01*
X39232Y24039D01*
X39430D01*
X39455Y24014D01*
D02*
G37*
G36*
X38876Y23923D02*
Y23814D01*
X38768Y23699D01*
X38570D01*
X38545Y23724D01*
Y24014D01*
X38570Y24039D01*
X38768D01*
X38876Y23923D01*
D02*
G37*
G36*
X27237Y23580D02*
Y23382D01*
X27121Y23274D01*
X27012D01*
X26897Y23382D01*
Y23580D01*
X26922Y23605D01*
X27212D01*
X27237Y23580D01*
D02*
G37*
G36*
X26045D02*
Y23382D01*
X25929Y23274D01*
X25821D01*
X25705Y23382D01*
Y23580D01*
X25730Y23605D01*
X26020D01*
X26045Y23580D01*
D02*
G37*
G36*
X23662D02*
Y23382D01*
X23546Y23274D01*
X23437D01*
X23322Y23382D01*
Y23580D01*
X23347Y23605D01*
X23637D01*
X23662Y23580D01*
D02*
G37*
G36*
X22470D02*
Y23382D01*
X22354Y23274D01*
X22246D01*
X22130Y23382D01*
Y23580D01*
X22155Y23605D01*
X22445D01*
X22470Y23580D01*
D02*
G37*
G36*
X24893Y23527D02*
Y23411D01*
X24777Y23252D01*
X24668D01*
X24553Y23411D01*
Y23527D01*
X24578Y23552D01*
X24868D01*
X24893Y23527D01*
D02*
G37*
G36*
X28470Y23521D02*
Y23405D01*
X28354Y23246D01*
X28246D01*
X28130Y23405D01*
Y23521D01*
X28155Y23546D01*
X28445D01*
X28470Y23521D01*
D02*
G37*
G36*
X50120Y23452D02*
Y23254D01*
X50004Y23146D01*
X49896D01*
X49780Y23254D01*
Y23452D01*
X49805Y23477D01*
X50095D01*
X50120Y23452D01*
D02*
G37*
G36*
X48600D02*
Y23254D01*
X48484Y23146D01*
X48376D01*
X48260Y23254D01*
Y23452D01*
X48285Y23477D01*
X48575D01*
X48600Y23452D01*
D02*
G37*
G36*
X47840D02*
Y23254D01*
X47724Y23146D01*
X47616D01*
X47500Y23254D01*
Y23452D01*
X47525Y23477D01*
X47815D01*
X47840Y23452D01*
D02*
G37*
G36*
X46320D02*
Y23254D01*
X46204Y23146D01*
X46096D01*
X45980Y23254D01*
Y23452D01*
X46005Y23477D01*
X46295D01*
X46320Y23452D01*
D02*
G37*
G36*
X49400Y23399D02*
Y23283D01*
X49284Y23124D01*
X49175D01*
X49059Y23283D01*
Y23399D01*
X49085Y23424D01*
X49374D01*
X49400Y23399D01*
D02*
G37*
G36*
X47122Y23393D02*
Y23277D01*
X47006Y23118D01*
X46897D01*
X46782Y23277D01*
Y23393D01*
X46807Y23418D01*
X47096D01*
X47122Y23393D01*
D02*
G37*
G36*
X24893Y22845D02*
Y22729D01*
X24868Y22704D01*
X24578D01*
X24553Y22729D01*
Y22845D01*
X24668Y23004D01*
X24777D01*
X24893Y22845D01*
D02*
G37*
G36*
X28470Y22839D02*
Y22723D01*
X28445Y22698D01*
X28155D01*
X28130Y22723D01*
Y22839D01*
X28246Y22998D01*
X28354D01*
X28470Y22839D01*
D02*
G37*
G36*
X27237Y22918D02*
Y22720D01*
X27212Y22695D01*
X26922D01*
X26897Y22720D01*
Y22918D01*
X27012Y23026D01*
X27121D01*
X27237Y22918D01*
D02*
G37*
G36*
X26045D02*
Y22720D01*
X26020Y22695D01*
X25730D01*
X25705Y22720D01*
Y22918D01*
X25821Y23026D01*
X25929D01*
X26045Y22918D01*
D02*
G37*
G36*
X23662D02*
Y22720D01*
X23637Y22695D01*
X23347D01*
X23322Y22720D01*
Y22918D01*
X23437Y23026D01*
X23546D01*
X23662Y22918D01*
D02*
G37*
G36*
X22470D02*
Y22720D01*
X22445Y22695D01*
X22155D01*
X22130Y22720D01*
Y22918D01*
X22246Y23026D01*
X22354D01*
X22470Y22918D01*
D02*
G37*
G36*
X49400Y22717D02*
Y22601D01*
X49374Y22576D01*
X49085D01*
X49059Y22601D01*
Y22717D01*
X49175Y22876D01*
X49284D01*
X49400Y22717D01*
D02*
G37*
G36*
X47122Y22711D02*
Y22595D01*
X47096Y22570D01*
X46807D01*
X46782Y22595D01*
Y22711D01*
X46897Y22870D01*
X47006D01*
X47122Y22711D01*
D02*
G37*
G36*
X50120Y22790D02*
Y22592D01*
X50095Y22567D01*
X49805D01*
X49780Y22592D01*
Y22790D01*
X49896Y22898D01*
X50004D01*
X50120Y22790D01*
D02*
G37*
G36*
X48600D02*
Y22592D01*
X48575Y22567D01*
X48285D01*
X48260Y22592D01*
Y22790D01*
X48376Y22898D01*
X48484D01*
X48600Y22790D01*
D02*
G37*
G36*
X47840D02*
Y22592D01*
X47815Y22567D01*
X47525D01*
X47500Y22592D01*
Y22790D01*
X47616Y22898D01*
X47724D01*
X47840Y22790D01*
D02*
G37*
G36*
X46320D02*
Y22592D01*
X46295Y22567D01*
X46005D01*
X45980Y22592D01*
Y22790D01*
X46096Y22898D01*
X46204D01*
X46320Y22790D01*
D02*
G37*
G36*
X39455Y22495D02*
Y22205D01*
X39430Y22180D01*
X39232D01*
X39124Y22296D01*
Y22404D01*
X39232Y22520D01*
X39430D01*
X39455Y22495D01*
D02*
G37*
G36*
X38876Y22404D02*
Y22296D01*
X38768Y22180D01*
X38570D01*
X38545Y22205D01*
Y22495D01*
X38570Y22520D01*
X38768D01*
X38876Y22404D01*
D02*
G37*
G36*
X39455Y21845D02*
Y21555D01*
X39430Y21530D01*
X39232D01*
X39124Y21646D01*
Y21754D01*
X39232Y21870D01*
X39430D01*
X39455Y21845D01*
D02*
G37*
G36*
X38876Y21754D02*
Y21646D01*
X38768Y21530D01*
X38570D01*
X38545Y21555D01*
Y21845D01*
X38570Y21870D01*
X38768D01*
X38876Y21754D01*
D02*
G37*
G36*
X39455Y21227D02*
Y20937D01*
X39430Y20912D01*
X39232D01*
X39124Y21028D01*
Y21137D01*
X39232Y21252D01*
X39430D01*
X39455Y21227D01*
D02*
G37*
G36*
X38876Y21137D02*
Y21028D01*
X38768Y20912D01*
X38570D01*
X38545Y20937D01*
Y21227D01*
X38570Y21252D01*
X38768D01*
X38876Y21137D01*
D02*
G37*
G36*
X39455Y20595D02*
Y20305D01*
X39430Y20280D01*
X39232D01*
X39124Y20396D01*
Y20504D01*
X39232Y20620D01*
X39430D01*
X39455Y20595D01*
D02*
G37*
G36*
X38876Y20504D02*
Y20396D01*
X38768Y20280D01*
X38570D01*
X38545Y20305D01*
Y20595D01*
X38570Y20620D01*
X38768D01*
X38876Y20504D01*
D02*
G37*
G36*
X39455Y19045D02*
Y18755D01*
X39430Y18730D01*
X39232D01*
X39124Y18846D01*
Y18954D01*
X39232Y19070D01*
X39430D01*
X39455Y19045D01*
D02*
G37*
G36*
X38876Y18954D02*
Y18846D01*
X38768Y18730D01*
X38570D01*
X38545Y18755D01*
Y19045D01*
X38570Y19070D01*
X38768D01*
X38876Y18954D01*
D02*
G37*
G36*
X39455Y17645D02*
Y17355D01*
X39430Y17330D01*
X39232D01*
X39124Y17446D01*
Y17554D01*
X39232Y17670D01*
X39430D01*
X39455Y17645D01*
D02*
G37*
G36*
X38876Y17554D02*
Y17446D01*
X38768Y17330D01*
X38570D01*
X38545Y17355D01*
Y17645D01*
X38570Y17670D01*
X38768D01*
X38876Y17554D01*
D02*
G37*
G36*
X39455Y17095D02*
Y16805D01*
X39430Y16780D01*
X39232D01*
X39124Y16896D01*
Y17004D01*
X39232Y17120D01*
X39430D01*
X39455Y17095D01*
D02*
G37*
G36*
X38876Y17004D02*
Y16896D01*
X38768Y16780D01*
X38570D01*
X38545Y16805D01*
Y17095D01*
X38570Y17120D01*
X38768D01*
X38876Y17004D01*
D02*
G37*
D20*
X23492Y22853D02*
D03*
Y23447D02*
D03*
X26907Y31503D02*
D03*
Y32097D02*
D03*
X26287Y31503D02*
D03*
Y32097D02*
D03*
X27639Y32258D02*
D03*
Y32851D02*
D03*
X25508Y32258D02*
D03*
Y32851D02*
D03*
X22300Y22853D02*
D03*
Y23447D02*
D03*
X27067D02*
D03*
Y22853D02*
D03*
X25875D02*
D03*
Y23447D02*
D03*
X46150Y23318D02*
D03*
Y22725D02*
D03*
X47670Y23318D02*
D03*
Y22725D02*
D03*
X48430D02*
D03*
Y23318D02*
D03*
X49950D02*
D03*
Y22725D02*
D03*
X26150Y47697D02*
D03*
Y47103D02*
D03*
Y48303D02*
D03*
Y48897D02*
D03*
D23*
X25540Y34400D02*
D03*
X26091D02*
D03*
X27674D02*
D03*
X28226D02*
D03*
X26876Y32800D02*
D03*
X26324D02*
D03*
X26876Y30750D02*
D03*
X26324D02*
D03*
D24*
X28275Y33600D02*
D03*
X27681D02*
D03*
X26090D02*
D03*
X25497D02*
D03*
X27497Y48850D02*
D03*
X26903D02*
D03*
X27497Y47100D02*
D03*
X26903D02*
D03*
X31648Y47150D02*
D03*
X32241D02*
D03*
X38703Y16950D02*
D03*
X39297D02*
D03*
X38703Y25950D02*
D03*
X39297D02*
D03*
X38703Y21082D02*
D03*
X39297D02*
D03*
X38703Y17500D02*
D03*
X39297D02*
D03*
X38703Y18900D02*
D03*
X39297D02*
D03*
X38703Y20450D02*
D03*
X39297D02*
D03*
X38703Y25300D02*
D03*
X39297D02*
D03*
X38703Y23869D02*
D03*
X39297D02*
D03*
X38703Y22350D02*
D03*
X39297D02*
D03*
X38703Y21700D02*
D03*
X39297D02*
D03*
D29*
X27600Y30740D02*
D03*
Y31291D02*
D03*
X25550Y30740D02*
D03*
Y31291D02*
D03*
X24723Y23404D02*
D03*
Y22853D02*
D03*
X28300Y22846D02*
D03*
Y23398D02*
D03*
X46952Y23269D02*
D03*
Y22718D02*
D03*
X49229Y22724D02*
D03*
Y23276D02*
D03*
D136*
X28122Y48850D02*
D03*
X28722D02*
D03*
X29400D02*
D03*
X30000D02*
D03*
D137*
X24795Y46761D02*
D03*
X22905D02*
D03*
X25110D02*
D03*
X22590D02*
D03*
D138*
X23948D02*
D03*
X23752D02*
D03*
X24539D02*
D03*
X24342D02*
D03*
X24145D02*
D03*
X23555D02*
D03*
X23358D02*
D03*
X23161D02*
D03*
D139*
X36060Y25006D02*
D03*
Y24220D02*
D03*
Y23433D02*
D03*
Y22645D02*
D03*
Y21858D02*
D03*
Y21072D02*
D03*
Y20285D02*
D03*
Y19497D02*
D03*
Y18711D02*
D03*
Y17924D02*
D03*
X34086Y18711D02*
D03*
Y19497D02*
D03*
Y20285D02*
D03*
Y21072D02*
D03*
Y21858D02*
D03*
Y22645D02*
D03*
Y23433D02*
D03*
Y24220D02*
D03*
Y25006D02*
D03*
Y17924D02*
D03*
X40363Y17874D02*
D03*
Y18661D02*
D03*
Y19447D02*
D03*
Y20234D02*
D03*
Y21021D02*
D03*
Y21809D02*
D03*
Y22596D02*
D03*
Y23382D02*
D03*
Y24169D02*
D03*
Y24957D02*
D03*
X42337Y24169D02*
D03*
Y23382D02*
D03*
Y22596D02*
D03*
Y21809D02*
D03*
Y21021D02*
D03*
Y20234D02*
D03*
Y19447D02*
D03*
Y18661D02*
D03*
Y17874D02*
D03*
Y24957D02*
D03*
D140*
X41776Y13133D02*
D03*
X40989D02*
D03*
X40202D02*
D03*
X39416D02*
D03*
X38628D02*
D03*
X37841D02*
D03*
X37055D02*
D03*
X36267D02*
D03*
X35480D02*
D03*
X34694D02*
D03*
X35480Y15107D02*
D03*
X36267D02*
D03*
X37055D02*
D03*
X37841D02*
D03*
X38628D02*
D03*
X39416D02*
D03*
X40202D02*
D03*
X40989D02*
D03*
X41776D02*
D03*
X34694D02*
D03*
M02*
