G04*
G04 #@! TF.GenerationSoftware,Altium Limited,Altium Designer,20.2.6 (244)*
G04*
G04 Layer_Color=2752767*
%FSLAX24Y24*%
%MOIN*%
G70*
G04*
G04 #@! TF.SameCoordinates,B6A14326-B2C9-468C-B45E-93355CF85A49*
G04*
G04*
G04 #@! TF.FilePolarity,Positive*
G04*
G01*
G75*
%ADD150C,0.0020*%
%ADD151C,0.0027*%
%ADD152C,0.0013*%
D150*
X43420Y33220D02*
Y33380D01*
X43580D01*
Y33220D01*
X43420D01*
Y32220D02*
Y32380D01*
X43580D01*
Y32220D01*
X43420D01*
X42420Y33220D02*
Y33380D01*
X42580D01*
Y33220D01*
X42420D01*
Y32220D02*
Y32380D01*
X42580D01*
Y32220D01*
X42420D01*
X41420Y33220D02*
Y33380D01*
X41580D01*
Y33220D01*
X41420D01*
Y32220D02*
Y32380D01*
X41580D01*
Y32220D01*
X41420D01*
X40420Y33220D02*
Y33380D01*
X40580D01*
Y33220D01*
X40420D01*
Y32220D02*
Y32380D01*
X40580D01*
Y32220D01*
X40420D01*
X39420Y33220D02*
Y33380D01*
X39580D01*
Y33220D01*
X39420D01*
Y32220D02*
Y32380D01*
X39580D01*
Y32220D01*
X39420D01*
X38420Y33220D02*
Y33380D01*
X38580D01*
Y33220D01*
X38420D01*
Y32220D02*
Y32380D01*
X38580D01*
Y32220D01*
X38420D01*
X37420Y33220D02*
Y33380D01*
X37580D01*
Y33220D01*
X37420D01*
Y32220D02*
Y32380D01*
X37580D01*
Y32220D01*
X37420D01*
X36420Y33220D02*
Y33380D01*
X36580D01*
Y33220D01*
X36420D01*
Y32220D02*
Y32380D01*
X36580D01*
Y32220D01*
X36420D01*
X35420Y33220D02*
Y33380D01*
X35580D01*
Y33220D01*
X35420D01*
Y32220D02*
Y32380D01*
X35580D01*
Y32220D01*
X35420D01*
X34420Y33220D02*
Y33380D01*
X34580D01*
Y33220D01*
X34420D01*
Y32220D02*
Y32380D01*
X34580D01*
Y32220D01*
X34420D01*
X22870Y38718D02*
Y38878D01*
X23030D01*
Y38718D01*
X22870D01*
X24870Y38722D02*
Y38882D01*
X25030D01*
Y38722D01*
X24870D01*
X23870Y38718D02*
Y38878D01*
X24030D01*
Y38718D01*
X23870D01*
X41070D02*
Y38878D01*
X41230D01*
Y38718D01*
X41070D01*
X43070Y38722D02*
Y38882D01*
X43230D01*
Y38722D01*
X43070D01*
X42070Y38718D02*
Y38878D01*
X42230D01*
Y38718D01*
X42070D01*
X36520D02*
Y38878D01*
X36680D01*
Y38718D01*
X36520D01*
X38520Y38722D02*
Y38882D01*
X38680D01*
Y38722D01*
X38520D01*
X37520Y38718D02*
Y38878D01*
X37680D01*
Y38718D01*
X37520D01*
X31970D02*
Y38878D01*
X32130D01*
Y38718D01*
X31970D01*
X33970Y38722D02*
Y38882D01*
X34130D01*
Y38722D01*
X33970D01*
X32970Y38718D02*
Y38878D01*
X33130D01*
Y38718D01*
X32970D01*
X27420D02*
Y38878D01*
X27580D01*
Y38718D01*
X27420D01*
X29420Y38722D02*
Y38882D01*
X29580D01*
Y38722D01*
X29420D01*
X28420Y38718D02*
Y38878D01*
X28580D01*
Y38718D01*
X28420D01*
X25551Y48859D02*
X25471Y49019D01*
X25631D01*
X25551Y48859D01*
X22149D02*
X22069Y49019D01*
X22229D01*
X22149Y48859D01*
X25551Y47225D02*
X25591Y47265D01*
X25631D01*
X25591Y47305D01*
X25631Y47345D01*
X25591D01*
X25551Y47385D01*
X25511Y47345D01*
X25471D01*
X25511Y47305D01*
X25471Y47265D01*
X25511D01*
X25551Y47225D01*
X22149D02*
X22189Y47265D01*
X22229D01*
X22189Y47305D01*
X22229Y47345D01*
X22189D01*
X22149Y47385D01*
X22109Y47345D01*
X22069D01*
X22109Y47305D01*
X22069Y47265D01*
X22109D01*
X22149Y47225D01*
X24912Y47418D02*
X24952Y47498D01*
X24912Y47578D01*
X24992Y47538D01*
X25072Y47578D01*
X25032Y47498D01*
X25072Y47418D01*
X24992Y47458D01*
X24912Y47418D01*
X22628Y47422D02*
X22668Y47502D01*
X22628Y47582D01*
X22708Y47542D01*
X22788Y47582D01*
X22748Y47502D01*
X22788Y47422D01*
X22708Y47462D01*
X22628Y47422D01*
X46455Y20297D02*
Y20257D01*
X46535D01*
Y20297D01*
X46575D01*
Y20377D01*
X46535D01*
Y20417D01*
X46455D01*
Y20377D01*
X46415D01*
Y20297D01*
X46455D01*
X47242D02*
Y20257D01*
X47322D01*
Y20297D01*
X47362D01*
Y20377D01*
X47322D01*
Y20417D01*
X47242D01*
Y20377D01*
X47202D01*
Y20297D01*
X47242D01*
X48029D02*
Y20257D01*
X48109D01*
Y20297D01*
X48149D01*
Y20377D01*
X48109D01*
Y20417D01*
X48029D01*
Y20377D01*
X47989D01*
Y20297D01*
X48029D01*
X48816D02*
Y20257D01*
X48896D01*
Y20297D01*
X48936D01*
Y20377D01*
X48896D01*
Y20417D01*
X48816D01*
Y20377D01*
X48776D01*
Y20297D01*
X48816D01*
X49603D02*
Y20257D01*
X49683D01*
Y20297D01*
X49723D01*
Y20377D01*
X49683D01*
Y20417D01*
X49603D01*
Y20377D01*
X49563D01*
Y20297D01*
X49603D01*
X50390D02*
Y20257D01*
X50470D01*
Y20297D01*
X50510D01*
Y20377D01*
X50470D01*
Y20417D01*
X50390D01*
Y20377D01*
X50350D01*
Y20297D01*
X50390D01*
X51177D02*
Y20257D01*
X51257D01*
Y20297D01*
X51297D01*
Y20377D01*
X51257D01*
Y20417D01*
X51177D01*
Y20377D01*
X51137D01*
Y20297D01*
X51177D01*
X51964D02*
Y20257D01*
X52044D01*
Y20297D01*
X52084D01*
Y20377D01*
X52044D01*
Y20417D01*
X51964D01*
Y20377D01*
X51924D01*
Y20297D01*
X51964D01*
X53538D02*
Y20257D01*
X53618D01*
Y20297D01*
X53658D01*
Y20377D01*
X53618D01*
Y20417D01*
X53538D01*
Y20377D01*
X53498D01*
Y20297D01*
X53538D01*
X52751D02*
Y20257D01*
X52831D01*
Y20297D01*
X52871D01*
Y20377D01*
X52831D01*
Y20417D01*
X52751D01*
Y20377D01*
X52711D01*
Y20297D01*
X52751D01*
X46455Y19510D02*
Y19470D01*
X46535D01*
Y19510D01*
X46575D01*
Y19590D01*
X46535D01*
Y19630D01*
X46455D01*
Y19590D01*
X46415D01*
Y19510D01*
X46455D01*
X47242D02*
Y19470D01*
X47322D01*
Y19510D01*
X47362D01*
Y19590D01*
X47322D01*
Y19630D01*
X47242D01*
Y19590D01*
X47202D01*
Y19510D01*
X47242D01*
X48029D02*
Y19470D01*
X48109D01*
Y19510D01*
X48149D01*
Y19590D01*
X48109D01*
Y19630D01*
X48029D01*
Y19590D01*
X47989D01*
Y19510D01*
X48029D01*
X48816D02*
Y19470D01*
X48896D01*
Y19510D01*
X48936D01*
Y19590D01*
X48896D01*
Y19630D01*
X48816D01*
Y19590D01*
X48776D01*
Y19510D01*
X48816D01*
X49603D02*
Y19470D01*
X49683D01*
Y19510D01*
X49723D01*
Y19590D01*
X49683D01*
Y19630D01*
X49603D01*
Y19590D01*
X49563D01*
Y19510D01*
X49603D01*
X50390D02*
Y19470D01*
X50470D01*
Y19510D01*
X50510D01*
Y19590D01*
X50470D01*
Y19630D01*
X50390D01*
Y19590D01*
X50350D01*
Y19510D01*
X50390D01*
X51177D02*
Y19470D01*
X51257D01*
Y19510D01*
X51297D01*
Y19590D01*
X51257D01*
Y19630D01*
X51177D01*
Y19590D01*
X51137D01*
Y19510D01*
X51177D01*
X51964D02*
Y19470D01*
X52044D01*
Y19510D01*
X52084D01*
Y19590D01*
X52044D01*
Y19630D01*
X51964D01*
Y19590D01*
X51924D01*
Y19510D01*
X51964D01*
X53538D02*
Y19470D01*
X53618D01*
Y19510D01*
X53658D01*
Y19590D01*
X53618D01*
Y19630D01*
X53538D01*
Y19590D01*
X53498D01*
Y19510D01*
X53538D01*
X52751D02*
Y19470D01*
X52831D01*
Y19510D01*
X52871D01*
Y19590D01*
X52831D01*
Y19630D01*
X52751D01*
Y19590D01*
X52711D01*
Y19510D01*
X52751D01*
X49330Y18450D02*
X49370D01*
X49410Y18490D01*
X49450Y18450D01*
X49490D01*
Y18490D01*
X49450Y18530D01*
X49490Y18570D01*
Y18610D01*
X49450D01*
X49410Y18570D01*
X49370Y18610D01*
X49330D01*
Y18570D01*
X49370Y18530D01*
X49330Y18490D01*
Y18450D01*
X50120D02*
X50160D01*
X50200Y18490D01*
X50240Y18450D01*
X50280D01*
Y18490D01*
X50240Y18530D01*
X50280Y18570D01*
Y18610D01*
X50240D01*
X50200Y18570D01*
X50160Y18610D01*
X50120D01*
Y18570D01*
X50160Y18530D01*
X50120Y18490D01*
Y18450D01*
X50910D02*
X50950D01*
X50990Y18490D01*
X51030Y18450D01*
X51070D01*
Y18490D01*
X51030Y18530D01*
X51070Y18570D01*
Y18610D01*
X51030D01*
X50990Y18570D01*
X50950Y18610D01*
X50910D01*
Y18570D01*
X50950Y18530D01*
X50910Y18490D01*
Y18450D01*
X51700D02*
X51740D01*
X51780Y18490D01*
X51820Y18450D01*
X51860D01*
Y18490D01*
X51820Y18530D01*
X51860Y18570D01*
Y18610D01*
X51820D01*
X51780Y18570D01*
X51740Y18610D01*
X51700D01*
Y18570D01*
X51740Y18530D01*
X51700Y18490D01*
Y18450D01*
X48540D02*
X48580D01*
X48620Y18490D01*
X48660Y18450D01*
X48700D01*
Y18490D01*
X48660Y18530D01*
X48700Y18570D01*
Y18610D01*
X48660D01*
X48620Y18570D01*
X48580Y18610D01*
X48540D01*
Y18570D01*
X48580Y18530D01*
X48540Y18490D01*
Y18450D01*
X52170Y14550D02*
X52250Y14630D01*
X52330Y14550D01*
X52250Y14470D01*
X52170Y14550D01*
X48070D02*
X48150Y14630D01*
X48230Y14550D01*
X48150Y14470D01*
X48070Y14550D01*
X29095Y19510D02*
Y19470D01*
X29174D01*
Y19510D01*
X29214D01*
Y19590D01*
X29174D01*
Y19630D01*
X29095D01*
Y19590D01*
X29055D01*
Y19510D01*
X29095D01*
X29881D02*
Y19470D01*
X29962D01*
Y19510D01*
X30001D01*
Y19590D01*
X29962D01*
Y19630D01*
X29881D01*
Y19590D01*
X29841D01*
Y19510D01*
X29881D01*
X28307D02*
Y19470D01*
X28387D01*
Y19510D01*
X28428D01*
Y19590D01*
X28387D01*
Y19630D01*
X28307D01*
Y19590D01*
X28268D01*
Y19510D01*
X28307D01*
X27520D02*
Y19470D01*
X27601D01*
Y19510D01*
X27641D01*
Y19590D01*
X27601D01*
Y19630D01*
X27520D01*
Y19590D01*
X27480D01*
Y19510D01*
X27520D01*
X26734D02*
Y19470D01*
X26813D01*
Y19510D01*
X26853D01*
Y19590D01*
X26813D01*
Y19630D01*
X26734D01*
Y19590D01*
X26693D01*
Y19510D01*
X26734D01*
X25947D02*
Y19470D01*
X26026D01*
Y19510D01*
X26067D01*
Y19590D01*
X26026D01*
Y19630D01*
X25947D01*
Y19590D01*
X25907D01*
Y19510D01*
X25947D01*
X25159D02*
Y19470D01*
X25240D01*
Y19510D01*
X25280D01*
Y19590D01*
X25240D01*
Y19630D01*
X25159D01*
Y19590D01*
X25120D01*
Y19510D01*
X25159D01*
X24372D02*
Y19470D01*
X24453D01*
Y19510D01*
X24492D01*
Y19590D01*
X24453D01*
Y19630D01*
X24372D01*
Y19590D01*
X24332D01*
Y19510D01*
X24372D01*
X23586D02*
Y19470D01*
X23665D01*
Y19510D01*
X23705D01*
Y19590D01*
X23665D01*
Y19630D01*
X23586D01*
Y19590D01*
X23545D01*
Y19510D01*
X23586D01*
X22799D02*
Y19470D01*
X22878D01*
Y19510D01*
X22919D01*
Y19590D01*
X22878D01*
Y19630D01*
X22799D01*
Y19590D01*
X22759D01*
Y19510D01*
X22799D01*
X29095Y20297D02*
Y20257D01*
X29174D01*
Y20297D01*
X29214D01*
Y20377D01*
X29174D01*
Y20417D01*
X29095D01*
Y20377D01*
X29055D01*
Y20297D01*
X29095D01*
X29881D02*
Y20257D01*
X29962D01*
Y20297D01*
X30001D01*
Y20377D01*
X29962D01*
Y20417D01*
X29881D01*
Y20377D01*
X29841D01*
Y20297D01*
X29881D01*
X28307D02*
Y20257D01*
X28387D01*
Y20297D01*
X28428D01*
Y20377D01*
X28387D01*
Y20417D01*
X28307D01*
Y20377D01*
X28268D01*
Y20297D01*
X28307D01*
X27520D02*
Y20257D01*
X27601D01*
Y20297D01*
X27641D01*
Y20377D01*
X27601D01*
Y20417D01*
X27520D01*
Y20377D01*
X27480D01*
Y20297D01*
X27520D01*
X26734D02*
Y20257D01*
X26813D01*
Y20297D01*
X26853D01*
Y20377D01*
X26813D01*
Y20417D01*
X26734D01*
Y20377D01*
X26693D01*
Y20297D01*
X26734D01*
X25947D02*
Y20257D01*
X26026D01*
Y20297D01*
X26067D01*
Y20377D01*
X26026D01*
Y20417D01*
X25947D01*
Y20377D01*
X25907D01*
Y20297D01*
X25947D01*
X25159D02*
Y20257D01*
X25240D01*
Y20297D01*
X25280D01*
Y20377D01*
X25240D01*
Y20417D01*
X25159D01*
Y20377D01*
X25120D01*
Y20297D01*
X25159D01*
X24372D02*
Y20257D01*
X24453D01*
Y20297D01*
X24492D01*
Y20377D01*
X24453D01*
Y20417D01*
X24372D01*
Y20377D01*
X24332D01*
Y20297D01*
X24372D01*
X23586D02*
Y20257D01*
X23665D01*
Y20297D01*
X23705D01*
Y20377D01*
X23665D01*
Y20417D01*
X23586D01*
Y20377D01*
X23545D01*
Y20297D01*
X23586D01*
X22799D02*
Y20257D01*
X22878D01*
Y20297D01*
X22919D01*
Y20377D01*
X22878D01*
Y20417D01*
X22799D01*
Y20377D01*
X22759D01*
Y20297D01*
X22799D01*
X24250Y14550D02*
X24330Y14630D01*
X24410Y14550D01*
X24330Y14470D01*
X24250Y14550D01*
X28350D02*
X28430Y14630D01*
X28510Y14550D01*
X28430Y14470D01*
X28350Y14550D01*
X24720Y18450D02*
X24760D01*
X24800Y18490D01*
X24840Y18450D01*
X24880D01*
Y18490D01*
X24840Y18530D01*
X24880Y18570D01*
Y18610D01*
X24840D01*
X24800Y18570D01*
X24760Y18610D01*
X24720D01*
Y18570D01*
X24760Y18530D01*
X24720Y18490D01*
Y18450D01*
X27880D02*
X27920D01*
X27960Y18490D01*
X28000Y18450D01*
X28040D01*
Y18490D01*
X28000Y18530D01*
X28040Y18570D01*
Y18610D01*
X28000D01*
X27960Y18570D01*
X27920Y18610D01*
X27880D01*
Y18570D01*
X27920Y18530D01*
X27880Y18490D01*
Y18450D01*
X27090D02*
X27130D01*
X27170Y18490D01*
X27210Y18450D01*
X27250D01*
Y18490D01*
X27210Y18530D01*
X27250Y18570D01*
Y18610D01*
X27210D01*
X27170Y18570D01*
X27130Y18610D01*
X27090D01*
Y18570D01*
X27130Y18530D01*
X27090Y18490D01*
Y18450D01*
X26300D02*
X26340D01*
X26380Y18490D01*
X26420Y18450D01*
X26460D01*
Y18490D01*
X26420Y18530D01*
X26460Y18570D01*
Y18610D01*
X26420D01*
X26380Y18570D01*
X26340Y18610D01*
X26300D01*
Y18570D01*
X26340Y18530D01*
X26300Y18490D01*
Y18450D01*
X25510D02*
X25550D01*
X25590Y18490D01*
X25630Y18450D01*
X25670D01*
Y18490D01*
X25630Y18530D01*
X25670Y18570D01*
Y18610D01*
X25630D01*
X25590Y18570D01*
X25550Y18610D01*
X25510D01*
Y18570D01*
X25550Y18530D01*
X25510Y18490D01*
Y18450D01*
X52020Y21370D02*
Y21530D01*
X52180D01*
Y21370D01*
X52020D01*
X52060Y21410D02*
Y21490D01*
X52140D01*
Y21410D01*
X52060D01*
X51020Y21370D02*
Y21530D01*
X51180D01*
Y21370D01*
X51020D01*
X51060Y21410D02*
Y21490D01*
X51140D01*
Y21410D01*
X51060D01*
X50020Y21370D02*
Y21530D01*
X50180D01*
Y21370D01*
X50020D01*
X50060Y21410D02*
Y21490D01*
X50140D01*
Y21410D01*
X50060D01*
X49020Y21370D02*
Y21530D01*
X49180D01*
Y21370D01*
X49020D01*
X49060Y21410D02*
Y21490D01*
X49140D01*
Y21410D01*
X49060D01*
X48020Y21370D02*
Y21530D01*
X48180D01*
Y21370D01*
X48020D01*
X48060Y21410D02*
Y21490D01*
X48140D01*
Y21410D01*
X48060D01*
X47020Y21370D02*
Y21530D01*
X47180D01*
Y21370D01*
X47020D01*
X47060Y21410D02*
Y21490D01*
X47140D01*
Y21410D01*
X47060D01*
X46020Y21370D02*
Y21530D01*
X46180D01*
Y21370D01*
X46020D01*
X46060Y21410D02*
Y21490D01*
X46140D01*
Y21410D01*
X46060D01*
X46020Y24370D02*
Y24530D01*
X46180D01*
Y24370D01*
X46020D01*
X46060Y24410D02*
Y24490D01*
X46140D01*
Y24410D01*
X46060D01*
X53020Y21370D02*
Y21530D01*
X53180D01*
Y21370D01*
X53020D01*
X53060Y21410D02*
Y21490D01*
X53140D01*
Y21410D01*
X53060D01*
X54020Y21370D02*
Y21530D01*
X54180D01*
Y21370D01*
X54020D01*
X54060Y21410D02*
Y21490D01*
X54140D01*
Y21410D01*
X54060D01*
X47020Y24370D02*
Y24530D01*
X47180D01*
Y24370D01*
X47020D01*
X47060Y24410D02*
Y24490D01*
X47140D01*
Y24410D01*
X47060D01*
X48020Y24370D02*
Y24530D01*
X48180D01*
Y24370D01*
X48020D01*
X48060Y24410D02*
Y24490D01*
X48140D01*
Y24410D01*
X48060D01*
X49020Y24370D02*
Y24530D01*
X49180D01*
Y24370D01*
X49020D01*
X49060Y24410D02*
Y24490D01*
X49140D01*
Y24410D01*
X49060D01*
X50020Y24370D02*
Y24530D01*
X50180D01*
Y24370D01*
X50020D01*
X50060Y24410D02*
Y24490D01*
X50140D01*
Y24410D01*
X50060D01*
X51020Y24370D02*
Y24530D01*
X51180D01*
Y24370D01*
X51020D01*
X51060Y24410D02*
Y24490D01*
X51140D01*
Y24410D01*
X51060D01*
X52020Y24370D02*
Y24530D01*
X52180D01*
Y24370D01*
X52020D01*
X52060Y24410D02*
Y24490D01*
X52140D01*
Y24410D01*
X52060D01*
X53020Y24370D02*
Y24530D01*
X53180D01*
Y24370D01*
X53020D01*
X53060Y24410D02*
Y24490D01*
X53140D01*
Y24410D01*
X53060D01*
X54020Y24370D02*
Y24530D01*
X54180D01*
Y24370D01*
X54020D01*
X54060Y24410D02*
Y24490D01*
X54140D01*
Y24410D01*
X54060D01*
X28170Y21370D02*
Y21530D01*
X28330D01*
Y21370D01*
X28170D01*
X28210Y21410D02*
Y21490D01*
X28290D01*
Y21410D01*
X28210D01*
X27170Y21370D02*
Y21530D01*
X27330D01*
Y21370D01*
X27170D01*
X27210Y21410D02*
Y21490D01*
X27290D01*
Y21410D01*
X27210D01*
X26170Y21370D02*
Y21530D01*
X26330D01*
Y21370D01*
X26170D01*
X26210Y21410D02*
Y21490D01*
X26290D01*
Y21410D01*
X26210D01*
X25170Y21370D02*
Y21530D01*
X25330D01*
Y21370D01*
X25170D01*
X25210Y21410D02*
Y21490D01*
X25290D01*
Y21410D01*
X25210D01*
X24170Y21370D02*
Y21530D01*
X24330D01*
Y21370D01*
X24170D01*
X24210Y21410D02*
Y21490D01*
X24290D01*
Y21410D01*
X24210D01*
X23170Y21370D02*
Y21530D01*
X23330D01*
Y21370D01*
X23170D01*
X23210Y21410D02*
Y21490D01*
X23290D01*
Y21410D01*
X23210D01*
X22170Y21370D02*
Y21530D01*
X22330D01*
Y21370D01*
X22170D01*
X22210Y21410D02*
Y21490D01*
X22290D01*
Y21410D01*
X22210D01*
X22170Y24370D02*
Y24530D01*
X22330D01*
Y24370D01*
X22170D01*
X22210Y24410D02*
Y24490D01*
X22290D01*
Y24410D01*
X22210D01*
X29170Y21370D02*
Y21530D01*
X29330D01*
Y21370D01*
X29170D01*
X29210Y21410D02*
Y21490D01*
X29290D01*
Y21410D01*
X29210D01*
X30170Y21370D02*
Y21530D01*
X30330D01*
Y21370D01*
X30170D01*
X30210Y21410D02*
Y21490D01*
X30290D01*
Y21410D01*
X30210D01*
X23170Y24370D02*
Y24530D01*
X23330D01*
Y24370D01*
X23170D01*
X23210Y24410D02*
Y24490D01*
X23290D01*
Y24410D01*
X23210D01*
X24170Y24370D02*
Y24530D01*
X24330D01*
Y24370D01*
X24170D01*
X24210Y24410D02*
Y24490D01*
X24290D01*
Y24410D01*
X24210D01*
X25170Y24370D02*
Y24530D01*
X25330D01*
Y24370D01*
X25170D01*
X25210Y24410D02*
Y24490D01*
X25290D01*
Y24410D01*
X25210D01*
X26170Y24370D02*
Y24530D01*
X26330D01*
Y24370D01*
X26170D01*
X26210Y24410D02*
Y24490D01*
X26290D01*
Y24410D01*
X26210D01*
X27170Y24370D02*
Y24530D01*
X27330D01*
Y24370D01*
X27170D01*
X27210Y24410D02*
Y24490D01*
X27290D01*
Y24410D01*
X27210D01*
X28170Y24370D02*
Y24530D01*
X28330D01*
Y24370D01*
X28170D01*
X28210Y24410D02*
Y24490D01*
X28290D01*
Y24410D01*
X28210D01*
X29170Y24370D02*
Y24530D01*
X29330D01*
Y24370D01*
X29170D01*
X29210Y24410D02*
Y24490D01*
X29290D01*
Y24410D01*
X29210D01*
X30170Y24370D02*
Y24530D01*
X30330D01*
Y24370D01*
X30170D01*
X30210Y24410D02*
Y24490D01*
X30290D01*
Y24410D01*
X30210D01*
X27270Y45570D02*
Y45730D01*
X27430D01*
Y45570D01*
X27270D01*
Y44570D02*
Y44730D01*
X27430D01*
Y44570D01*
X27270D01*
X54580Y31900D02*
X54500Y32060D01*
X54660D01*
X54580Y31900D01*
Y31940D02*
X54540Y32020D01*
X54620D01*
X54580Y31940D01*
X54599Y33471D02*
X54519Y33631D01*
X54679D01*
X54599Y33471D01*
Y33511D02*
X54559Y33591D01*
X54639D01*
X54599Y33511D01*
X48150Y34470D02*
X48070Y34630D01*
X48230D01*
X48150Y34470D01*
Y34510D02*
X48110Y34590D01*
X48190D01*
X48150Y34510D01*
X49200Y34820D02*
X49120Y34980D01*
X49280D01*
X49200Y34820D01*
Y34860D02*
X49160Y34940D01*
X49240D01*
X49200Y34860D01*
X50350Y30620D02*
X50270Y30780D01*
X50430D01*
X50350Y30620D01*
Y30660D02*
X50310Y30740D01*
X50390D01*
X50350Y30660D01*
X46950Y31447D02*
X46870Y31607D01*
X47030D01*
X46950Y31447D01*
Y31487D02*
X46910Y31567D01*
X46990D01*
X46950Y31487D01*
X45665Y34255D02*
X45705Y34295D01*
X45745D01*
X45705Y34335D01*
X45745Y34375D01*
X45705D01*
X45665Y34415D01*
X45625Y34375D01*
X45585D01*
X45625Y34335D01*
X45585Y34295D01*
X45625D01*
X45665Y34255D01*
Y34295D02*
X45685Y34315D01*
X45705D01*
X45685Y34335D01*
X45705Y34355D01*
X45685D01*
X45665Y34375D01*
X45645Y34355D01*
X45625D01*
X45645Y34335D01*
X45625Y34315D01*
X45645D01*
X45665Y34295D01*
X50750Y34820D02*
X50670Y34980D01*
X50830D01*
X50750Y34820D01*
Y34860D02*
X50710Y34940D01*
X50790D01*
X50750Y34860D01*
X50472Y36392D02*
X50512Y36432D01*
X50552D01*
X50512Y36472D01*
X50552Y36512D01*
X50512D01*
X50472Y36552D01*
X50432Y36512D01*
X50392D01*
X50432Y36472D01*
X50392Y36432D01*
X50432D01*
X50472Y36392D01*
Y36432D02*
X50492Y36452D01*
X50512D01*
X50492Y36472D01*
X50512Y36492D01*
X50492D01*
X50472Y36512D01*
X50452Y36492D01*
X50432D01*
X50452Y36472D01*
X50432Y36452D01*
X50452D01*
X50472Y36432D01*
X49950Y37670D02*
X49870Y37830D01*
X50030D01*
X49950Y37670D01*
Y37710D02*
X49910Y37790D01*
X49990D01*
X49950Y37710D01*
X50472Y42748D02*
X50512Y42788D01*
X50552D01*
X50512Y42828D01*
X50552Y42868D01*
X50512D01*
X50472Y42908D01*
X50432Y42868D01*
X50392D01*
X50432Y42828D01*
X50392Y42788D01*
X50432D01*
X50472Y42748D01*
Y42788D02*
X50492Y42808D01*
X50512D01*
X50492Y42828D01*
X50512Y42848D01*
X50492D01*
X50472Y42868D01*
X50452Y42848D01*
X50432D01*
X50452Y42828D01*
X50432Y42808D01*
X50452D01*
X50472Y42788D01*
X50800Y41720D02*
X50720Y41880D01*
X50880D01*
X50800Y41720D01*
Y41760D02*
X50760Y41840D01*
X50840D01*
X50800Y41760D01*
X55250Y48820D02*
X55290Y48860D01*
X55330D01*
X55290Y48900D01*
X55330Y48940D01*
X55290D01*
X55250Y48980D01*
X55210Y48940D01*
X55170D01*
X55210Y48900D01*
X55170Y48860D01*
X55210D01*
X55250Y48820D01*
Y48860D02*
X55270Y48880D01*
X55290D01*
X55270Y48900D01*
X55290Y48920D01*
X55270D01*
X55250Y48940D01*
X55230Y48920D01*
X55210D01*
X55230Y48900D01*
X55210Y48880D01*
X55230D01*
X55250Y48860D01*
X42800Y47220D02*
X42840Y47260D01*
X42880D01*
X42840Y47300D01*
X42880Y47340D01*
X42840D01*
X42800Y47380D01*
X42760Y47340D01*
X42720D01*
X42760Y47300D01*
X42720Y47260D01*
X42760D01*
X42800Y47220D01*
Y47260D02*
X42820Y47280D01*
X42840D01*
X42820Y47300D01*
X42840Y47320D01*
X42820D01*
X42800Y47340D01*
X42780Y47320D01*
X42760D01*
X42780Y47300D01*
X42760Y47280D01*
X42780D01*
X42800Y47260D01*
X46650Y47820D02*
X46690Y47860D01*
X46730D01*
X46690Y47900D01*
X46730Y47940D01*
X46690D01*
X46650Y47980D01*
X46610Y47940D01*
X46570D01*
X46610Y47900D01*
X46570Y47860D01*
X46610D01*
X46650Y47820D01*
Y47860D02*
X46670Y47880D01*
X46690D01*
X46670Y47900D01*
X46690Y47920D01*
X46670D01*
X46650Y47940D01*
X46630Y47920D01*
X46610D01*
X46630Y47900D01*
X46610Y47880D01*
X46630D01*
X46650Y47860D01*
X44853Y44973D02*
X44773Y45133D01*
X44933D01*
X44853Y44973D01*
Y45013D02*
X44813Y45093D01*
X44893D01*
X44853Y45013D01*
X46200Y41217D02*
X46120Y41377D01*
X46280D01*
X46200Y41217D01*
Y41257D02*
X46160Y41337D01*
X46240D01*
X46200Y41257D01*
X45750Y44170D02*
X45670Y44330D01*
X45830D01*
X45750Y44170D01*
Y44210D02*
X45710Y44290D01*
X45790D01*
X45750Y44210D01*
X43100Y42620D02*
X43020Y42780D01*
X43180D01*
X43100Y42620D01*
Y42660D02*
X43060Y42740D01*
X43140D01*
X43100Y42660D01*
X38774Y48546D02*
X38694Y48706D01*
X38854D01*
X38774Y48546D01*
Y48586D02*
X38734Y48666D01*
X38814D01*
X38774Y48586D01*
X38950Y46244D02*
X38870Y46404D01*
X39030D01*
X38950Y46244D01*
Y46284D02*
X38910Y46364D01*
X38990D01*
X38950Y46284D01*
X38503Y44370D02*
X38423Y44530D01*
X38583D01*
X38503Y44370D01*
Y44410D02*
X38463Y44490D01*
X38543D01*
X38503Y44410D01*
X38750Y42520D02*
X38670Y42680D01*
X38830D01*
X38750Y42520D01*
Y42560D02*
X38710Y42640D01*
X38790D01*
X38750Y42560D01*
X38703Y40967D02*
X38623Y41127D01*
X38783D01*
X38703Y40967D01*
Y41007D02*
X38663Y41087D01*
X38743D01*
X38703Y41007D01*
X36820Y45770D02*
X36860Y45850D01*
X36820Y45930D01*
X36900Y45890D01*
X36980Y45930D01*
X36940Y45850D01*
X36980Y45770D01*
X36900Y45810D01*
X36820Y45770D01*
X36860Y45810D02*
X36880Y45850D01*
X36860Y45890D01*
X36900Y45870D01*
X36940Y45890D01*
X36920Y45850D01*
X36940Y45810D01*
X36900Y45830D01*
X36860Y45810D01*
X35420Y40370D02*
X35460Y40450D01*
X35420Y40530D01*
X35500Y40490D01*
X35580Y40530D01*
X35540Y40450D01*
X35580Y40370D01*
X35500Y40410D01*
X35420Y40370D01*
X35460Y40410D02*
X35480Y40450D01*
X35460Y40490D01*
X35500Y40470D01*
X35540Y40490D01*
X35520Y40450D01*
X35540Y40410D01*
X35500Y40430D01*
X35460Y40410D01*
X38470Y35420D02*
X38510Y35500D01*
X38470Y35580D01*
X38550Y35540D01*
X38630Y35580D01*
X38590Y35500D01*
X38630Y35420D01*
X38550Y35460D01*
X38470Y35420D01*
X38510Y35460D02*
X38530Y35500D01*
X38510Y35540D01*
X38550Y35520D01*
X38590Y35540D01*
X38570Y35500D01*
X38590Y35460D01*
X38550Y35480D01*
X38510Y35460D01*
X36550Y40770D02*
X36470Y40930D01*
X36630D01*
X36550Y40770D01*
Y40810D02*
X36510Y40890D01*
X36590D01*
X36550Y40810D01*
X38702Y37618D02*
X38622Y37778D01*
X38782D01*
X38702Y37618D01*
Y37658D02*
X38662Y37738D01*
X38742D01*
X38702Y37658D01*
X45650Y40220D02*
X45570Y40380D01*
X45730D01*
X45650Y40220D01*
Y40260D02*
X45610Y40340D01*
X45690D01*
X45650Y40260D01*
X46601Y40169D02*
X46521Y40329D01*
X46681D01*
X46601Y40169D01*
Y40209D02*
X46561Y40289D01*
X46641D01*
X46601Y40209D01*
X42850Y40220D02*
X42770Y40380D01*
X42930D01*
X42850Y40220D01*
Y40260D02*
X42810Y40340D01*
X42890D01*
X42850Y40260D01*
X45320Y36770D02*
X45360Y36850D01*
X45320Y36930D01*
X45400Y36890D01*
X45480Y36930D01*
X45440Y36850D01*
X45480Y36770D01*
X45400Y36810D01*
X45320Y36770D01*
X45360Y36810D02*
X45380Y36850D01*
X45360Y36890D01*
X45400Y36870D01*
X45440Y36890D01*
X45420Y36850D01*
X45440Y36810D01*
X45400Y36830D01*
X45360Y36810D01*
X41989Y31407D02*
X41909Y31567D01*
X42069D01*
X41989Y31407D01*
Y31448D02*
X41949Y31528D01*
X42029D01*
X41989Y31448D01*
X40255Y31175D02*
X40175Y31335D01*
X40335D01*
X40255Y31175D01*
Y31215D02*
X40215Y31295D01*
X40295D01*
X40255Y31215D01*
X40150Y31520D02*
X40070Y31680D01*
X40230D01*
X40150Y31520D01*
Y31560D02*
X40110Y31640D01*
X40190D01*
X40150Y31560D01*
X37950Y34159D02*
X37870Y34319D01*
X38030D01*
X37950Y34159D01*
Y34199D02*
X37910Y34279D01*
X37990D01*
X37950Y34199D01*
X38086Y33903D02*
X38006Y34063D01*
X38166D01*
X38086Y33903D01*
Y33943D02*
X38046Y34023D01*
X38126D01*
X38086Y33943D01*
X36200Y40770D02*
X36120Y40930D01*
X36280D01*
X36200Y40770D01*
Y40810D02*
X36160Y40890D01*
X36240D01*
X36200Y40810D01*
X33377Y36213D02*
X33417Y36293D01*
X33377Y36373D01*
X33457Y36333D01*
X33537Y36373D01*
X33497Y36293D01*
X33537Y36213D01*
X33457Y36253D01*
X33377Y36213D01*
X33417Y36253D02*
X33437Y36293D01*
X33417Y36333D01*
X33457Y36313D01*
X33497Y36333D01*
X33477Y36293D01*
X33497Y36253D01*
X33457Y36273D01*
X33417Y36253D01*
X35620Y38170D02*
X35660Y38250D01*
X35620Y38330D01*
X35700Y38290D01*
X35780Y38330D01*
X35740Y38250D01*
X35780Y38170D01*
X35700Y38210D01*
X35620Y38170D01*
X35660Y38210D02*
X35680Y38250D01*
X35660Y38290D01*
X35700Y38270D01*
X35740Y38290D01*
X35720Y38250D01*
X35740Y38210D01*
X35700Y38230D01*
X35660Y38210D01*
X45830Y31200D02*
X45750Y31360D01*
X45910D01*
X45830Y31200D01*
Y31240D02*
X45790Y31320D01*
X45870D01*
X45830Y31240D01*
X38617Y26473D02*
X38657Y26553D01*
X38617Y26633D01*
X38697Y26593D01*
X38777Y26633D01*
X38737Y26553D01*
X38777Y26473D01*
X38697Y26513D01*
X38617Y26473D01*
X38657Y26513D02*
X38677Y26553D01*
X38657Y26593D01*
X38697Y26573D01*
X38737Y26593D01*
X38717Y26553D01*
X38737Y26513D01*
X38697Y26533D01*
X38657Y26513D01*
X38350Y25070D02*
X38270Y25230D01*
X38430D01*
X38350Y25070D01*
Y25110D02*
X38310Y25190D01*
X38390D01*
X38350Y25110D01*
X39650Y22245D02*
X39570Y22405D01*
X39730D01*
X39650Y22245D01*
Y22285D02*
X39610Y22365D01*
X39690D01*
X39650Y22285D01*
Y21620D02*
X39570Y21780D01*
X39730D01*
X39650Y21620D01*
Y21660D02*
X39610Y21740D01*
X39690D01*
X39650Y21660D01*
Y20970D02*
X39570Y21130D01*
X39730D01*
X39650Y20970D01*
Y21010D02*
X39610Y21090D01*
X39690D01*
X39650Y21010D01*
X39900Y25870D02*
X39820Y26030D01*
X39980D01*
X39900Y25870D01*
Y25910D02*
X39860Y25990D01*
X39940D01*
X39900Y25910D01*
X39745Y25348D02*
X39665Y25508D01*
X39825D01*
X39745Y25348D01*
Y25388D02*
X39705Y25468D01*
X39785D01*
X39745Y25388D01*
X27300Y48420D02*
X27220Y48580D01*
X27380D01*
X27300Y48420D01*
Y48460D02*
X27260Y48540D01*
X27340D01*
X27300Y48460D01*
X27650Y48220D02*
X27570Y48380D01*
X27730D01*
X27650Y48220D01*
Y48260D02*
X27610Y48340D01*
X27690D01*
X27650Y48260D01*
X41200Y16920D02*
X41120Y17080D01*
X41280D01*
X41200Y16920D01*
Y16960D02*
X41160Y17040D01*
X41240D01*
X41200Y16960D01*
X30220Y44820D02*
X30260Y44900D01*
X30220Y44980D01*
X30300Y44940D01*
X30380Y44980D01*
X30340Y44900D01*
X30380Y44820D01*
X30300Y44860D01*
X30220Y44820D01*
X30260Y44860D02*
X30280Y44900D01*
X30260Y44940D01*
X30300Y44920D01*
X30340Y44940D01*
X30320Y44900D01*
X30340Y44860D01*
X30300Y44880D01*
X30260Y44860D01*
X41188Y21870D02*
X41108Y22030D01*
X41268D01*
X41188Y21870D01*
Y21910D02*
X41148Y21990D01*
X41228D01*
X41188Y21910D01*
X41200Y20870D02*
X41120Y21030D01*
X41280D01*
X41200Y20870D01*
Y20910D02*
X41160Y20990D01*
X41240D01*
X41200Y20910D01*
X26700Y45970D02*
X26620Y46130D01*
X26780D01*
X26700Y45970D01*
Y46010D02*
X26660Y46090D01*
X26740D01*
X26700Y46010D01*
X29055Y48396D02*
X28975Y48556D01*
X29135D01*
X29055Y48396D01*
Y48436D02*
X29015Y48516D01*
X29095D01*
X29055Y48436D01*
X28500Y48376D02*
X28420Y48536D01*
X28580D01*
X28500Y48376D01*
Y48416D02*
X28460Y48496D01*
X28540D01*
X28500Y48416D01*
X30250Y48520D02*
X30170Y48680D01*
X30330D01*
X30250Y48520D01*
Y48560D02*
X30210Y48640D01*
X30290D01*
X30250Y48560D01*
X26905Y48425D02*
X26825Y48585D01*
X26985D01*
X26905Y48425D01*
Y48465D02*
X26865Y48545D01*
X26945D01*
X26905Y48465D01*
X45420Y35670D02*
X45460Y35750D01*
X45420Y35830D01*
X45500Y35790D01*
X45580Y35830D01*
X45540Y35750D01*
X45580Y35670D01*
X45500Y35710D01*
X45420Y35670D01*
X45460Y35710D02*
X45480Y35750D01*
X45460Y35790D01*
X45500Y35770D01*
X45540Y35790D01*
X45520Y35750D01*
X45540Y35710D01*
X45500Y35730D01*
X45460Y35710D01*
X44100Y29670D02*
X44020Y29830D01*
X44180D01*
X44100Y29670D01*
Y29710D02*
X44060Y29790D01*
X44140D01*
X44100Y29710D01*
X44390Y29670D02*
X44310Y29830D01*
X44470D01*
X44390Y29670D01*
Y29710D02*
X44350Y29790D01*
X44430D01*
X44390Y29710D01*
X46200Y42370D02*
X46120Y42530D01*
X46280D01*
X46200Y42370D01*
Y42410D02*
X46160Y42490D01*
X46240D01*
X46200Y42410D01*
X48100Y39770D02*
X48020Y39930D01*
X48180D01*
X48100Y39770D01*
Y39810D02*
X48060Y39890D01*
X48140D01*
X48100Y39810D01*
X30555Y39570D02*
X30475Y39730D01*
X30635D01*
X30555Y39570D01*
Y39610D02*
X30515Y39690D01*
X30595D01*
X30555Y39610D01*
X31245Y39570D02*
X31165Y39730D01*
X31325D01*
X31245Y39570D01*
Y39610D02*
X31205Y39690D01*
X31285D01*
X31245Y39610D01*
X31764Y39570D02*
X31684Y39730D01*
X31844D01*
X31764Y39570D01*
Y39610D02*
X31724Y39690D01*
X31804D01*
X31764Y39610D01*
X32448Y39618D02*
X32368Y39778D01*
X32528D01*
X32448Y39618D01*
Y39658D02*
X32408Y39738D01*
X32488D01*
X32448Y39658D01*
X42500Y41720D02*
X42420Y41880D01*
X42580D01*
X42500Y41720D01*
Y41760D02*
X42460Y41840D01*
X42540D01*
X42500Y41760D01*
X38700Y47220D02*
X38620Y47380D01*
X38780D01*
X38700Y47220D01*
Y47260D02*
X38660Y47340D01*
X38740D01*
X38700Y47260D01*
X41550Y41920D02*
X41470Y42080D01*
X41630D01*
X41550Y41920D01*
Y41960D02*
X41510Y42040D01*
X41590D01*
X41550Y41960D01*
X38700Y48020D02*
X38620Y48180D01*
X38780D01*
X38700Y48020D01*
Y48060D02*
X38660Y48140D01*
X38740D01*
X38700Y48060D01*
X46200Y43120D02*
X46120Y43280D01*
X46280D01*
X46200Y43120D01*
Y43160D02*
X46160Y43240D01*
X46240D01*
X46200Y43160D01*
X48450Y47320D02*
X48370Y47480D01*
X48530D01*
X48450Y47320D01*
Y47360D02*
X48410Y47440D01*
X48490D01*
X48450Y47360D01*
X27253Y28520D02*
X27173Y28680D01*
X27333D01*
X27253Y28520D01*
Y28560D02*
X27213Y28640D01*
X27293D01*
X27253Y28560D01*
X33850Y28520D02*
X33770Y28680D01*
X33930D01*
X33850Y28520D01*
Y28560D02*
X33810Y28640D01*
X33890D01*
X33850Y28560D01*
X55305Y29570D02*
X55225Y29730D01*
X55385D01*
X55305Y29570D01*
Y29610D02*
X55265Y29690D01*
X55345D01*
X55305Y29610D01*
X36750Y18620D02*
X36670Y18780D01*
X36830D01*
X36750Y18620D01*
Y18660D02*
X36710Y18740D01*
X36790D01*
X36750Y18660D01*
X34800Y18620D02*
X34720Y18780D01*
X34880D01*
X34800Y18620D01*
Y18660D02*
X34760Y18740D01*
X34840D01*
X34800Y18660D01*
X36750Y19420D02*
X36670Y19580D01*
X36830D01*
X36750Y19420D01*
Y19460D02*
X36710Y19540D01*
X36790D01*
X36750Y19460D01*
X34800Y19420D02*
X34720Y19580D01*
X34880D01*
X34800Y19420D01*
Y19460D02*
X34760Y19540D01*
X34840D01*
X34800Y19460D01*
X46650Y28470D02*
X46570Y28630D01*
X46730D01*
X46650Y28470D01*
Y28510D02*
X46610Y28590D01*
X46690D01*
X46650Y28510D01*
X55150Y29920D02*
X55070Y30080D01*
X55230D01*
X55150Y29920D01*
Y29960D02*
X55110Y30040D01*
X55190D01*
X55150Y29960D01*
X53000Y39701D02*
X52920Y39861D01*
X53080D01*
X53000Y39701D01*
Y39741D02*
X52960Y39821D01*
X53040D01*
X53000Y39741D01*
X51500Y39720D02*
X51420Y39880D01*
X51580D01*
X51500Y39720D01*
Y39760D02*
X51460Y39840D01*
X51540D01*
X51500Y39760D01*
X23972Y45620D02*
X23892Y45780D01*
X24052D01*
X23972Y45620D01*
Y45660D02*
X23932Y45740D01*
X24012D01*
X23972Y45660D01*
X26400Y34820D02*
X26320Y34980D01*
X26480D01*
X26400Y34820D01*
Y34860D02*
X26360Y34940D01*
X26440D01*
X26400Y34860D01*
X25350Y22870D02*
X25270Y23030D01*
X25430D01*
X25350Y22870D01*
Y22910D02*
X25310Y22990D01*
X25390D01*
X25350Y22910D01*
X28800Y34320D02*
X28720Y34480D01*
X28880D01*
X28800Y34320D01*
Y34360D02*
X28760Y34440D01*
X28840D01*
X28800Y34360D01*
X28600Y30320D02*
X28520Y30480D01*
X28680D01*
X28600Y30320D01*
Y30360D02*
X28560Y30440D01*
X28640D01*
X28600Y30360D01*
X50351Y23271D02*
X50271Y23431D01*
X50431D01*
X50351Y23271D01*
Y23311D02*
X50311Y23391D01*
X50391D01*
X50351Y23311D01*
X54380Y30270D02*
X54300Y30430D01*
X54460D01*
X54380Y30270D01*
Y30310D02*
X54340Y30390D01*
X54420D01*
X54380Y30310D01*
X49500Y39770D02*
X49420Y39930D01*
X49580D01*
X49500Y39770D01*
Y39810D02*
X49460Y39890D01*
X49540D01*
X49500Y39810D01*
X52900Y33570D02*
X52820Y33730D01*
X52980D01*
X52900Y33570D01*
Y33610D02*
X52860Y33690D01*
X52940D01*
X52900Y33610D01*
X51500Y33070D02*
X51420Y33230D01*
X51580D01*
X51500Y33070D01*
Y33110D02*
X51460Y33190D01*
X51540D01*
X51500Y33110D01*
X24700Y22170D02*
X24620Y22330D01*
X24780D01*
X24700Y22170D01*
Y22210D02*
X24660Y22290D01*
X24740D01*
X24700Y22210D01*
X48350Y37470D02*
X48270Y37630D01*
X48430D01*
X48350Y37470D01*
Y37510D02*
X48310Y37590D01*
X48390D01*
X48350Y37510D01*
X52750Y37570D02*
X52670Y37730D01*
X52830D01*
X52750Y37570D01*
Y37610D02*
X52710Y37690D01*
X52790D01*
X52750Y37610D01*
X49250Y32070D02*
X49170Y32230D01*
X49330D01*
X49250Y32070D01*
Y32110D02*
X49210Y32190D01*
X49290D01*
X49250Y32110D01*
X49200Y32570D02*
X49120Y32730D01*
X49280D01*
X49200Y32570D01*
Y32610D02*
X49160Y32690D01*
X49240D01*
X49200Y32610D01*
X51500Y32570D02*
X51420Y32730D01*
X51580D01*
X51500Y32570D01*
Y32610D02*
X51460Y32690D01*
X51540D01*
X51500Y32610D01*
Y32070D02*
X51420Y32230D01*
X51580D01*
X51500Y32070D01*
Y32110D02*
X51460Y32190D01*
X51540D01*
X51500Y32110D01*
X52350Y34770D02*
X52270Y34930D01*
X52430D01*
X52350Y34770D01*
Y34810D02*
X52310Y34890D01*
X52390D01*
X52350Y34810D01*
X47650Y34820D02*
X47570Y34980D01*
X47730D01*
X47650Y34820D01*
Y34860D02*
X47610Y34940D01*
X47690D01*
X47650Y34860D01*
X49200Y33070D02*
X49120Y33230D01*
X49280D01*
X49200Y33070D01*
Y33110D02*
X49160Y33190D01*
X49240D01*
X49200Y33110D01*
X34795Y21770D02*
X34715Y21930D01*
X34875D01*
X34795Y21770D01*
Y21810D02*
X34755Y21890D01*
X34835D01*
X34795Y21810D01*
X36900Y21570D02*
X36820Y21730D01*
X36980D01*
X36900Y21570D01*
Y21610D02*
X36860Y21690D01*
X36940D01*
X36900Y21610D01*
X34750Y20220D02*
X34670Y20380D01*
X34830D01*
X34750Y20220D01*
Y20260D02*
X34710Y20340D01*
X34790D01*
X34750Y20260D01*
Y20970D02*
X34670Y21130D01*
X34830D01*
X34750Y20970D01*
Y21010D02*
X34710Y21090D01*
X34790D01*
X34750Y21010D01*
X39641Y23779D02*
X39561Y23939D01*
X39721D01*
X39641Y23779D01*
Y23819D02*
X39601Y23899D01*
X39681D01*
X39641Y23819D01*
X36150Y17070D02*
X36070Y17230D01*
X36230D01*
X36150Y17070D01*
Y17110D02*
X36110Y17190D01*
X36190D01*
X36150Y17110D01*
X39650Y17415D02*
X39570Y17575D01*
X39730D01*
X39650Y17415D01*
Y17455D02*
X39610Y17535D01*
X39690D01*
X39650Y17455D01*
Y18865D02*
X39570Y19025D01*
X39730D01*
X39650Y18865D01*
Y18905D02*
X39610Y18985D01*
X39690D01*
X39650Y18905D01*
Y20370D02*
X39570Y20530D01*
X39730D01*
X39650Y20370D01*
Y20410D02*
X39610Y20490D01*
X39690D01*
X39650Y20410D01*
X36750Y17820D02*
X36670Y17980D01*
X36830D01*
X36750Y17820D01*
Y17860D02*
X36710Y17940D01*
X36790D01*
X36750Y17860D01*
X36700Y20220D02*
X36620Y20380D01*
X36780D01*
X36700Y20220D01*
Y20260D02*
X36660Y20340D01*
X36740D01*
X36700Y20260D01*
Y20970D02*
X36620Y21130D01*
X36780D01*
X36700Y20970D01*
Y21010D02*
X36660Y21090D01*
X36740D01*
X36700Y21010D01*
X34800Y17870D02*
X34720Y18030D01*
X34880D01*
X34800Y17870D01*
Y17910D02*
X34760Y17990D01*
X34840D01*
X34800Y17910D01*
X41667Y24170D02*
X41587Y24330D01*
X41747D01*
X41667Y24170D01*
Y24210D02*
X41627Y24290D01*
X41707D01*
X41667Y24210D01*
X41200Y18070D02*
X41120Y18230D01*
X41280D01*
X41200Y18070D01*
Y18110D02*
X41160Y18190D01*
X41240D01*
X41200Y18110D01*
X41650Y19220D02*
X41570Y19380D01*
X41730D01*
X41650Y19220D01*
Y19260D02*
X41610Y19340D01*
X41690D01*
X41650Y19260D01*
Y25220D02*
X41570Y25380D01*
X41730D01*
X41650Y25220D01*
Y25260D02*
X41610Y25340D01*
X41690D01*
X41650Y25260D01*
X41250Y25820D02*
X41170Y25980D01*
X41330D01*
X41250Y25820D01*
Y25860D02*
X41210Y25940D01*
X41290D01*
X41250Y25860D01*
X39650Y16870D02*
X39570Y17030D01*
X39730D01*
X39650Y16870D01*
Y16910D02*
X39610Y16990D01*
X39690D01*
X39650Y16910D01*
X41650Y20170D02*
X41570Y20330D01*
X41730D01*
X41650Y20170D01*
Y20210D02*
X41610Y20290D01*
X41690D01*
X41650Y20210D01*
X41667Y23170D02*
X41587Y23330D01*
X41747D01*
X41667Y23170D01*
Y23210D02*
X41627Y23290D01*
X41707D01*
X41667Y23210D01*
X34250Y15020D02*
X34170Y15180D01*
X34330D01*
X34250Y15020D01*
Y15060D02*
X34210Y15140D01*
X34290D01*
X34250Y15060D01*
X34750Y13920D02*
X34670Y14080D01*
X34830D01*
X34750Y13920D01*
Y13960D02*
X34710Y14040D01*
X34790D01*
X34750Y13960D01*
X38700Y13920D02*
X38620Y14080D01*
X38780D01*
X38700Y13920D01*
Y13960D02*
X38660Y14040D01*
X38740D01*
X38700Y13960D01*
X41650Y13870D02*
X41570Y14030D01*
X41730D01*
X41650Y13870D01*
Y13910D02*
X41610Y13990D01*
X41690D01*
X41650Y13910D01*
X42700Y13920D02*
X42620Y14080D01*
X42780D01*
X42700Y13920D01*
Y13960D02*
X42660Y14040D01*
X42740D01*
X42700Y13960D01*
X40700Y13920D02*
X40620Y14080D01*
X40780D01*
X40700Y13920D01*
Y13960D02*
X40660Y14040D01*
X40740D01*
X40700Y13960D01*
X39700Y13920D02*
X39620Y14080D01*
X39780D01*
X39700Y13920D01*
Y13960D02*
X39660Y14040D01*
X39740D01*
X39700Y13960D01*
X37750Y13920D02*
X37670Y14080D01*
X37830D01*
X37750Y13920D01*
Y13960D02*
X37710Y14040D01*
X37790D01*
X37750Y13960D01*
X36750Y13920D02*
X36670Y14080D01*
X36830D01*
X36750Y13920D01*
Y13960D02*
X36710Y14040D01*
X36790D01*
X36750Y13960D01*
X35750Y13920D02*
X35670Y14080D01*
X35830D01*
X35750Y13920D01*
Y13960D02*
X35710Y14040D01*
X35790D01*
X35750Y13960D01*
X33750Y13920D02*
X33670Y14080D01*
X33830D01*
X33750Y13920D01*
Y13960D02*
X33710Y14040D01*
X33790D01*
X33750Y13960D01*
X29200Y39570D02*
X29120Y39730D01*
X29280D01*
X29200Y39570D01*
Y39610D02*
X29160Y39690D01*
X29240D01*
X29200Y39610D01*
X29950Y39570D02*
X29870Y39730D01*
X30030D01*
X29950Y39570D01*
Y39610D02*
X29910Y39690D01*
X29990D01*
X29950Y39610D01*
X30550Y49020D02*
X30470Y49180D01*
X30630D01*
X30550Y49020D01*
Y49060D02*
X30510Y49140D01*
X30590D01*
X30550Y49060D01*
X22220Y45670D02*
X22260Y45750D01*
X22220Y45830D01*
X22300Y45790D01*
X22380Y45830D01*
X22340Y45750D01*
X22380Y45670D01*
X22300Y45710D01*
X22220Y45670D01*
X22260Y45710D02*
X22280Y45750D01*
X22260Y45790D01*
X22300Y45770D01*
X22340Y45790D01*
X22320Y45750D01*
X22340Y45710D01*
X22300Y45730D01*
X22260Y45710D01*
X23745Y47770D02*
X23785Y47850D01*
X23745Y47930D01*
X23825Y47890D01*
X23905Y47930D01*
X23865Y47850D01*
X23905Y47770D01*
X23825Y47810D01*
X23745Y47770D01*
X23785Y47810D02*
X23805Y47850D01*
X23785Y47890D01*
X23825Y47870D01*
X23865Y47890D01*
X23845Y47850D01*
X23865Y47810D01*
X23825Y47830D01*
X23785Y47810D01*
X36250Y48520D02*
X36170Y48680D01*
X36330D01*
X36250Y48520D01*
Y48560D02*
X36210Y48640D01*
X36290D01*
X36250Y48560D01*
Y47620D02*
X36170Y47780D01*
X36330D01*
X36250Y47620D01*
Y47660D02*
X36210Y47740D01*
X36290D01*
X36250Y47660D01*
X24420Y47770D02*
X24460Y47850D01*
X24420Y47930D01*
X24500Y47890D01*
X24580Y47930D01*
X24540Y47850D01*
X24580Y47770D01*
X24500Y47810D01*
X24420Y47770D01*
X24460Y47810D02*
X24480Y47850D01*
X24460Y47890D01*
X24500Y47870D01*
X24540Y47890D01*
X24520Y47850D01*
X24540Y47810D01*
X24500Y47830D01*
X24460Y47810D01*
X23070Y47770D02*
X23110Y47850D01*
X23070Y47930D01*
X23150Y47890D01*
X23230Y47930D01*
X23190Y47850D01*
X23230Y47770D01*
X23150Y47810D01*
X23070Y47770D01*
X23110Y47810D02*
X23130Y47850D01*
X23110Y47890D01*
X23150Y47870D01*
X23190Y47890D01*
X23170Y47850D01*
X23190Y47810D01*
X23150Y47830D01*
X23110Y47810D01*
D151*
X34075Y30135D02*
G03*
X34075Y30135I-80J0D01*
G01*
X33095Y28165D02*
G03*
X33095Y28165I-80J0D01*
G01*
X35065D02*
G03*
X35065Y28165I-80J0D01*
G01*
X30680Y29400D02*
G03*
X30680Y29400I-80J0D01*
G01*
X29680D02*
G03*
X29680Y29400I-80J0D01*
G01*
X28680D02*
G03*
X28680Y29400I-80J0D01*
G01*
X27680D02*
G03*
X27680Y29400I-80J0D01*
G01*
X26680D02*
G03*
X26680Y29400I-80J0D01*
G01*
X25680D02*
G03*
X25680Y29400I-80J0D01*
G01*
X24680D02*
G03*
X24680Y29400I-80J0D01*
G01*
X23680D02*
G03*
X23680Y29400I-80J0D01*
G01*
X22680D02*
G03*
X22680Y29400I-80J0D01*
G01*
X38465Y28165D02*
G03*
X38465Y28165I-80J0D01*
G01*
X36495D02*
G03*
X36495Y28165I-80J0D01*
G01*
X37475Y30135D02*
G03*
X37475Y30135I-80J0D01*
G01*
X50375Y27735D02*
G03*
X50375Y27735I-80J0D01*
G01*
X49395Y25765D02*
G03*
X49395Y25765I-80J0D01*
G01*
X51365D02*
G03*
X51365Y25765I-80J0D01*
G01*
X40049Y28321D02*
G03*
X40049Y28321I-80J0D01*
G01*
X40836D02*
G03*
X40836Y28321I-80J0D01*
G01*
X41624D02*
G03*
X41624Y28321I-80J0D01*
G01*
X42411Y28317D02*
G03*
X42411Y28317I-80J0D01*
G01*
X26275Y27735D02*
G03*
X26275Y27735I-80J0D01*
G01*
X25295Y25765D02*
G03*
X25295Y25765I-80J0D01*
G01*
X27265D02*
G03*
X27265Y25765I-80J0D01*
G01*
X27318Y47821D02*
G03*
X27318Y47821I-80J0D01*
G01*
X28105D02*
G03*
X28105Y47821I-80J0D01*
G01*
X28893D02*
G03*
X28893Y47821I-80J0D01*
G01*
X29680Y47817D02*
G03*
X29680Y47817I-80J0D01*
G01*
X31599Y47821D02*
G03*
X31599Y47821I-80J0D01*
G01*
X32386D02*
G03*
X32386Y47821I-80J0D01*
G01*
X33174D02*
G03*
X33174Y47821I-80J0D01*
G01*
X33961Y47817D02*
G03*
X33961Y47817I-80J0D01*
G01*
X37325Y48485D02*
G03*
X37325Y48485I-80J0D01*
G01*
X36345Y46515D02*
G03*
X36345Y46515I-80J0D01*
G01*
X38315D02*
G03*
X38315Y46515I-80J0D01*
G01*
D152*
X40009Y28321D02*
G03*
X40009Y28321I-40J0D01*
G01*
X40796D02*
G03*
X40796Y28321I-40J0D01*
G01*
X41584D02*
G03*
X41584Y28321I-40J0D01*
G01*
X42371Y28317D02*
G03*
X42371Y28317I-40J0D01*
G01*
X27278Y47821D02*
G03*
X27278Y47821I-40J0D01*
G01*
X28065D02*
G03*
X28065Y47821I-40J0D01*
G01*
X28853D02*
G03*
X28853Y47821I-40J0D01*
G01*
X29640Y47817D02*
G03*
X29640Y47817I-40J0D01*
G01*
X31559Y47821D02*
G03*
X31559Y47821I-40J0D01*
G01*
X32346D02*
G03*
X32346Y47821I-40J0D01*
G01*
X33134D02*
G03*
X33134Y47821I-40J0D01*
G01*
X33921Y47817D02*
G03*
X33921Y47817I-40J0D01*
G01*
M02*
