G04*
G04 #@! TF.GenerationSoftware,Altium Limited,Altium Designer,20.2.6 (244)*
G04*
G04 Layer_Physical_Order=4*
G04 Layer_Color=16711680*
%FSLAX24Y24*%
%MOIN*%
G70*
G04*
G04 #@! TF.SameCoordinates,B6A14326-B2C9-468C-B45E-93355CF85A49*
G04*
G04*
G04 #@! TF.FilePolarity,Positive*
G04*
G01*
G75*
%ADD10C,0.0100*%
%ADD17C,0.0300*%
%ADD20R,0.0340X0.0318*%
%ADD23R,0.0315X0.0354*%
%ADD24R,0.0318X0.0340*%
%ADD29R,0.0354X0.0315*%
%ADD86C,0.0150*%
%ADD87C,0.0200*%
%ADD89C,0.0709*%
%ADD90R,0.0709X0.0709*%
%ADD91C,0.0700*%
%ADD92R,0.0700X0.0700*%
%ADD93R,0.0709X0.1024*%
%ADD94O,0.0709X0.1024*%
%ADD95O,0.0394X0.0709*%
%ADD96O,0.0394X0.0827*%
%ADD97C,0.0256*%
%ADD98R,0.0600X0.0600*%
%ADD99C,0.0600*%
%ADD100O,0.0600X0.0400*%
%ADD101R,0.0600X0.0400*%
%ADD102O,0.0600X0.1000*%
%ADD103C,0.0630*%
%ADD104R,0.0630X0.0630*%
%ADD105R,0.0630X0.0630*%
%ADD106R,0.0709X0.0709*%
%ADD107C,0.0240*%
%ADD108C,0.0500*%
%ADD109C,0.0280*%
%ADD135C,0.0100*%
%ADD136R,0.0320X0.0320*%
%ADD137R,0.0236X0.0800*%
%ADD138R,0.0118X0.0800*%
%ADD139R,0.1000X0.0350*%
%ADD140R,0.0350X0.1000*%
G36*
X35850Y48804D02*
X33138D01*
X33060Y48788D01*
X32994Y48744D01*
X32906Y48656D01*
X32895Y48640D01*
X31191D01*
X30722Y49109D01*
X30710Y49166D01*
X30673Y49223D01*
X30616Y49260D01*
X30550Y49273D01*
X30484Y49260D01*
X30435Y49227D01*
X30298D01*
X30261Y49253D01*
X30212Y49262D01*
X29188D01*
X29139Y49253D01*
X29098Y49225D01*
X28968Y49095D01*
X28932Y49060D01*
X28512D01*
Y48750D01*
X28510Y48740D01*
Y48648D01*
X28489Y48627D01*
X28434Y48616D01*
X28377Y48578D01*
X28340Y48522D01*
X28327Y48456D01*
X28340Y48390D01*
X28377Y48333D01*
X28434Y48296D01*
X28500Y48282D01*
X28566Y48296D01*
X28623Y48333D01*
X28660Y48390D01*
X28673Y48456D01*
X28662Y48512D01*
X28684Y48534D01*
X28706Y48567D01*
X28714Y48606D01*
Y48640D01*
X28876D01*
X28902Y48590D01*
X28876Y48550D01*
X28861Y48476D01*
X28876Y48402D01*
X28918Y48339D01*
X28981Y48297D01*
X29055Y48282D01*
X29129Y48297D01*
X29192Y48339D01*
X29234Y48402D01*
X29248Y48476D01*
X29234Y48550D01*
X29207Y48590D01*
X29234Y48640D01*
X29466D01*
X29578Y48528D01*
X29578Y48528D01*
X30007Y48099D01*
Y47551D01*
X29658Y47202D01*
X27705D01*
Y47320D01*
X27289D01*
X27272Y47346D01*
X27209Y47409D01*
X27231Y47454D01*
X27238Y47453D01*
X27333Y47465D01*
X27422Y47502D01*
X27498Y47561D01*
X27557Y47637D01*
X27593Y47726D01*
X27606Y47821D01*
X27593Y47916D01*
X27557Y48005D01*
X27498Y48081D01*
X27422Y48140D01*
X27333Y48176D01*
X27326Y48177D01*
Y48282D01*
X27372Y48328D01*
X27391Y48356D01*
X27420Y48376D01*
X27430Y48374D01*
X27467Y48354D01*
X27456Y48300D01*
X27471Y48226D01*
X27513Y48163D01*
X27575Y48121D01*
X27578Y48117D01*
X27617Y48078D01*
X27627Y48071D01*
X27703Y47996D01*
X27670Y47916D01*
X27657Y47821D01*
X27670Y47726D01*
X27706Y47637D01*
X27765Y47561D01*
X27841Y47502D01*
X27930Y47465D01*
X28025Y47453D01*
X28120Y47465D01*
X28209Y47502D01*
X28285Y47561D01*
X28344Y47637D01*
X28381Y47726D01*
X28393Y47821D01*
X28381Y47916D01*
X28344Y48005D01*
X28285Y48081D01*
X28209Y48140D01*
X28127Y48174D01*
Y48310D01*
X28119Y48349D01*
X28097Y48382D01*
X27705Y48774D01*
Y49070D01*
X27744Y49098D01*
X27883D01*
X27912Y49060D01*
Y48640D01*
X28332D01*
Y49060D01*
X28224D01*
Y49141D01*
X28216Y49180D01*
X28194Y49214D01*
X28136Y49272D01*
X28102Y49294D01*
X28063Y49302D01*
X25906D01*
X25867Y49294D01*
X25834Y49272D01*
X25776Y49214D01*
X25753Y49180D01*
X25746Y49141D01*
Y47989D01*
X25753Y47950D01*
X25776Y47917D01*
X25930Y47763D01*
Y47488D01*
X26370D01*
Y47880D01*
X26420Y47901D01*
X26951Y47370D01*
X26930Y47320D01*
X26695D01*
Y47229D01*
X26370D01*
Y47312D01*
X25930D01*
Y46895D01*
X25946D01*
Y45186D01*
X25900Y45166D01*
X24948Y46118D01*
Y46311D01*
X24963D01*
Y47211D01*
X24954D01*
Y47286D01*
X24992Y47316D01*
X25061Y47330D01*
X25120Y47370D01*
X25159Y47428D01*
X25173Y47498D01*
X25159Y47567D01*
X25120Y47626D01*
X25061Y47665D01*
X24992Y47679D01*
X24954Y47710D01*
Y48100D01*
X24938Y48138D01*
X24900Y48154D01*
X22800D01*
X22762Y48138D01*
X22746Y48100D01*
Y47714D01*
X22708Y47683D01*
X22639Y47669D01*
X22580Y47630D01*
X22541Y47571D01*
X22527Y47502D01*
X22541Y47432D01*
X22580Y47374D01*
X22639Y47334D01*
X22708Y47320D01*
X22746Y47290D01*
Y47211D01*
X22737D01*
Y46311D01*
X23462D01*
Y46309D01*
X23470Y46270D01*
X23492Y46236D01*
X23550Y46178D01*
X23583Y46156D01*
X23622Y46148D01*
X23650D01*
Y41048D01*
X23657Y41009D01*
X23679Y40976D01*
X28078Y36578D01*
Y36228D01*
X28085Y36189D01*
X28107Y36156D01*
X29715Y34548D01*
X29696Y34502D01*
X28936D01*
X28923Y34523D01*
X28866Y34560D01*
X28800Y34573D01*
X28734Y34560D01*
X28723Y34553D01*
X28433D01*
Y34627D01*
X28234D01*
X27853Y35008D01*
X27804Y35041D01*
X27745Y35053D01*
X26477D01*
X26466Y35060D01*
X26400Y35073D01*
X26334Y35060D01*
X26277Y35023D01*
X26240Y34966D01*
X26227Y34900D01*
X26240Y34834D01*
X26277Y34777D01*
X26334Y34740D01*
X26400Y34727D01*
X26466Y34740D01*
X26477Y34747D01*
X27682D01*
X27756Y34673D01*
X27736Y34627D01*
X27467D01*
Y34173D01*
X27551D01*
Y33820D01*
X27473D01*
Y33380D01*
X27533D01*
Y33060D01*
X27419D01*
Y32642D01*
X27860D01*
Y33060D01*
X27788D01*
Y33380D01*
X27890D01*
Y33820D01*
X27805D01*
Y34173D01*
X27882D01*
Y34482D01*
X27928Y34501D01*
X28018Y34411D01*
Y34173D01*
X28433D01*
Y34247D01*
X28723D01*
X28734Y34240D01*
X28800Y34227D01*
X28866Y34240D01*
X28923Y34277D01*
X28936Y34298D01*
X29753D01*
X32868Y31183D01*
X32901Y31161D01*
X32940Y31153D01*
X40119D01*
X40132Y31132D01*
X40189Y31095D01*
X40255Y31082D01*
X40321Y31095D01*
X40378Y31132D01*
X40415Y31189D01*
X40423Y31226D01*
X40473Y31221D01*
Y30303D01*
X39957Y29787D01*
X37677D01*
X37661Y29835D01*
X37680Y29850D01*
X37744Y29933D01*
X37785Y30031D01*
X37798Y30135D01*
X37785Y30239D01*
X37744Y30337D01*
X37680Y30420D01*
X37597Y30484D01*
X37499Y30525D01*
X37395Y30538D01*
X37291Y30525D01*
X37193Y30484D01*
X37110Y30420D01*
X37046Y30337D01*
X37005Y30239D01*
X36992Y30135D01*
X37005Y30031D01*
X37046Y29933D01*
X37110Y29850D01*
X37129Y29835D01*
X37113Y29787D01*
X34277D01*
X34261Y29835D01*
X34280Y29850D01*
X34344Y29933D01*
X34385Y30031D01*
X34398Y30135D01*
X34385Y30239D01*
X34344Y30337D01*
X34280Y30420D01*
X34197Y30484D01*
X34099Y30525D01*
X33995Y30538D01*
X33891Y30525D01*
X33793Y30484D01*
X33710Y30420D01*
X33646Y30337D01*
X33605Y30239D01*
X33592Y30135D01*
X33605Y30031D01*
X33646Y29933D01*
X33710Y29850D01*
X33729Y29835D01*
X33713Y29787D01*
X32660D01*
X32611Y29778D01*
X32570Y29750D01*
X29697Y26877D01*
X23650D01*
X23601Y26868D01*
X23560Y26840D01*
X21910Y25190D01*
X21895Y25180D01*
X21410Y24695D01*
X21382Y24654D01*
X21373Y24605D01*
Y19850D01*
X21382Y19801D01*
X21410Y19760D01*
X22730Y18440D01*
X22771Y18412D01*
X22820Y18403D01*
X24484D01*
X24520Y18350D01*
X24602Y18295D01*
X24700Y18275D01*
X24900D01*
X24998Y18295D01*
X25080Y18350D01*
X25136Y18432D01*
X25155Y18530D01*
X25136Y18628D01*
X25123Y18646D01*
X25162Y18678D01*
X25247Y18592D01*
X25235Y18530D01*
X25254Y18432D01*
X25310Y18350D01*
X25392Y18295D01*
X25490Y18275D01*
X25690D01*
X25788Y18295D01*
X25870Y18350D01*
X25926Y18432D01*
X25945Y18530D01*
X25926Y18628D01*
X25870Y18710D01*
X25788Y18765D01*
X25690Y18785D01*
X25490D01*
X25428Y18773D01*
X25210Y18990D01*
X25169Y19018D01*
X25120Y19027D01*
X22786D01*
X21827Y19986D01*
Y24430D01*
X21834Y24433D01*
X21887Y24408D01*
X21894Y24355D01*
X21931Y24266D01*
X21990Y24190D01*
X22066Y24131D01*
X22148Y24097D01*
Y23655D01*
X22080D01*
Y23238D01*
X22520D01*
Y23655D01*
X22402D01*
Y24118D01*
X22434Y24131D01*
X22510Y24190D01*
X22569Y24266D01*
X22606Y24355D01*
X22618Y24450D01*
X22606Y24545D01*
X22569Y24634D01*
X22510Y24710D01*
X22434Y24769D01*
X22345Y24806D01*
X22252Y24818D01*
X22241Y24833D01*
X22226Y24863D01*
X23736Y26373D01*
X29783D01*
X29832Y26382D01*
X29873Y26410D01*
X31676Y28213D01*
X31723Y28194D01*
Y20586D01*
X30164Y19027D01*
X26850D01*
X26801Y19018D01*
X26760Y18990D01*
X26542Y18773D01*
X26480Y18785D01*
X26280D01*
X26182Y18765D01*
X26100Y18710D01*
X26044Y18628D01*
X26025Y18530D01*
X26044Y18432D01*
X26100Y18350D01*
X26182Y18295D01*
X26280Y18275D01*
X26480D01*
X26578Y18295D01*
X26660Y18350D01*
X26716Y18432D01*
X26735Y18530D01*
X26723Y18592D01*
X26808Y18678D01*
X26847Y18646D01*
X26834Y18628D01*
X26815Y18530D01*
X26834Y18432D01*
X26890Y18350D01*
X26972Y18295D01*
X27070Y18275D01*
X27270D01*
X27332Y18287D01*
X27505Y18115D01*
X27546Y18087D01*
X27595Y18078D01*
X29805D01*
X29854Y18087D01*
X29895Y18115D01*
X32140Y20360D01*
X32168Y20401D01*
X32177Y20450D01*
Y28149D01*
X32951Y28923D01*
X34001D01*
X34020Y28876D01*
X33906Y28762D01*
X33850Y28773D01*
X33784Y28760D01*
X33727Y28723D01*
X33690Y28666D01*
X33677Y28600D01*
X33690Y28534D01*
X33727Y28477D01*
X33784Y28440D01*
X33850Y28427D01*
X33916Y28440D01*
X33973Y28477D01*
X34010Y28534D01*
X34021Y28589D01*
X34205Y28773D01*
X43777D01*
X43800Y28750D01*
X46306D01*
X46481Y28574D01*
X46477Y28550D01*
X46490Y28484D01*
X46527Y28427D01*
X46584Y28390D01*
X46650Y28377D01*
X46716Y28390D01*
X46773Y28427D01*
X46778Y28428D01*
X48478Y26728D01*
X48511Y26706D01*
X48550Y26698D01*
X49664D01*
X49693Y26669D01*
X49693Y26669D01*
X50548Y25814D01*
Y23451D01*
X50498Y23436D01*
X50473Y23473D01*
X50417Y23511D01*
X50351Y23524D01*
X50284Y23511D01*
X50228Y23473D01*
X50220Y23462D01*
X50170D01*
Y23527D01*
X49730D01*
Y23110D01*
X50170D01*
Y23207D01*
X50260D01*
X50284Y23191D01*
X50351Y23177D01*
X50417Y23191D01*
X50473Y23228D01*
X50498Y23265D01*
X50548Y23250D01*
Y22792D01*
X50158Y22402D01*
X49716D01*
X49457Y22661D01*
Y22932D01*
X49002D01*
Y22517D01*
X49312D01*
X49601Y22228D01*
X49635Y22206D01*
X49674Y22198D01*
X50200D01*
X50239Y22206D01*
X50272Y22228D01*
X50722Y22678D01*
X50744Y22711D01*
X50752Y22750D01*
Y25856D01*
X50744Y25895D01*
X50722Y25929D01*
X49837Y26814D01*
X49837Y26814D01*
X49779Y26872D01*
X49745Y26894D01*
X49706Y26902D01*
X48592D01*
X46872Y28622D01*
X46839Y28644D01*
X46800Y28652D01*
X46786D01*
X46773Y28673D01*
X46732Y28700D01*
X46747Y28750D01*
X55523D01*
Y21036D01*
X53973Y19487D01*
X53926Y19510D01*
X53931Y19550D01*
X53919Y19641D01*
X53884Y19727D01*
X53828Y19800D01*
X53755Y19856D01*
X53670Y19891D01*
X53578Y19903D01*
X53487Y19891D01*
X53402Y19856D01*
X53329Y19800D01*
X53273Y19727D01*
X53237Y19641D01*
X53225Y19550D01*
X53237Y19459D01*
X53273Y19373D01*
X53329Y19300D01*
X53402Y19244D01*
X53487Y19209D01*
X53578Y19197D01*
X53618Y19202D01*
X53642Y19155D01*
X53514Y19027D01*
X51460D01*
X51411Y19018D01*
X51370Y18990D01*
X51152Y18773D01*
X51090Y18785D01*
X50890D01*
X50792Y18765D01*
X50710Y18710D01*
X50655Y18628D01*
X50643Y18569D01*
X50589Y18552D01*
X50568Y18572D01*
X50543Y18589D01*
X50535Y18628D01*
X50480Y18710D01*
X50398Y18765D01*
X50300Y18785D01*
X50100D01*
X50002Y18765D01*
X49920Y18710D01*
X49865Y18628D01*
X49845Y18530D01*
X49865Y18432D01*
X49920Y18350D01*
X50002Y18295D01*
X50100Y18275D01*
X50300D01*
X50398Y18295D01*
X50450Y18330D01*
X50665Y18115D01*
X50707Y18087D01*
X50755Y18078D01*
X53155D01*
X53204Y18087D01*
X53245Y18115D01*
X55840Y20710D01*
X55940Y20810D01*
X55968Y20851D01*
X55977Y20900D01*
Y28750D01*
X56550D01*
Y13980D01*
X56520Y13950D01*
X45120D01*
Y15550D01*
X43620D01*
Y27360D01*
X39210D01*
Y26360D01*
X42935D01*
Y25186D01*
X42887Y25182D01*
X42885Y25182D01*
X41835D01*
X41809Y25231D01*
X41810Y25234D01*
X41823Y25300D01*
X41810Y25366D01*
X41773Y25423D01*
X41716Y25460D01*
X41650Y25473D01*
X41584Y25460D01*
X41527Y25423D01*
X41490Y25366D01*
X41477Y25300D01*
X41490Y25234D01*
X41505Y25211D01*
Y25167D01*
X40733Y24395D01*
X39813D01*
Y23998D01*
X39764Y23982D01*
X39708Y24019D01*
X39641Y24032D01*
X39575Y24019D01*
X39555Y24006D01*
X39505Y24033D01*
Y24089D01*
X39088D01*
Y23649D01*
X39050Y23619D01*
X39045Y23618D01*
X39004Y23590D01*
X38877Y23463D01*
X38831Y23482D01*
Y23649D01*
X38912D01*
Y24089D01*
X38831D01*
Y25080D01*
X38912D01*
Y25520D01*
X38831D01*
Y25730D01*
X38912D01*
Y26170D01*
X38827D01*
Y26283D01*
X38848Y26291D01*
X38911Y26339D01*
X38959Y26402D01*
X38989Y26475D01*
X38999Y26553D01*
X38989Y26632D01*
X38959Y26705D01*
X38911Y26767D01*
X38848Y26816D01*
X38775Y26846D01*
X38697Y26856D01*
X38618Y26846D01*
X38545Y26816D01*
X38483Y26767D01*
X38435Y26705D01*
X38404Y26632D01*
X38394Y26553D01*
X38404Y26475D01*
X38435Y26402D01*
X38483Y26339D01*
X38545Y26291D01*
X38573Y26280D01*
Y26170D01*
X38495D01*
Y25730D01*
X38576D01*
Y25520D01*
X38495D01*
Y25318D01*
X38445Y25291D01*
X38416Y25310D01*
X38350Y25323D01*
X38284Y25310D01*
X38227Y25273D01*
X38190Y25216D01*
X38177Y25150D01*
X38190Y25084D01*
X38223Y25035D01*
Y21953D01*
X37802Y21532D01*
X37079D01*
X37055Y21577D01*
X37060Y21584D01*
X37073Y21650D01*
X37060Y21716D01*
X37023Y21773D01*
X36966Y21810D01*
X36909Y21822D01*
X36786Y21944D01*
X36745Y21972D01*
X36696Y21982D01*
X36610D01*
Y22083D01*
X35510D01*
Y21634D01*
X36610D01*
Y21689D01*
X36660Y21710D01*
X36728Y21641D01*
X36740Y21584D01*
X36745Y21577D01*
X36721Y21532D01*
X35542D01*
X35493Y21523D01*
X35452Y21495D01*
X35210Y21253D01*
X35182Y21212D01*
X35173Y21163D01*
Y20053D01*
X34791Y19672D01*
X34734Y19660D01*
X34686Y19628D01*
X34636Y19639D01*
Y19722D01*
X33536D01*
Y19273D01*
X34636D01*
Y19371D01*
X34687D01*
X34734Y19340D01*
X34800Y19327D01*
X34866Y19340D01*
X34923Y19377D01*
X34960Y19434D01*
X34972Y19491D01*
X35390Y19910D01*
X35418Y19951D01*
X35427Y20000D01*
Y21110D01*
X35464Y21147D01*
X35510Y21128D01*
Y20847D01*
X36610D01*
Y20850D01*
X36660Y20885D01*
X36691Y20878D01*
X36973Y20597D01*
Y17553D01*
X36697Y17277D01*
X36265D01*
X36216Y17310D01*
X36150Y17323D01*
X36084Y17310D01*
X36027Y17273D01*
X35990Y17216D01*
X35977Y17150D01*
X35990Y17084D01*
X36027Y17027D01*
X36084Y16990D01*
X36150Y16977D01*
X36216Y16990D01*
X36265Y17023D01*
X36750D01*
X36799Y17032D01*
X36840Y17060D01*
X37190Y17410D01*
X37218Y17451D01*
X37227Y17500D01*
Y20650D01*
X37218Y20699D01*
X37190Y20740D01*
X36872Y21059D01*
X36860Y21116D01*
X36823Y21173D01*
X36766Y21210D01*
X36700Y21223D01*
X36693Y21222D01*
X36654Y21265D01*
X36658Y21278D01*
X37855D01*
X37904Y21287D01*
X37945Y21315D01*
X38440Y21810D01*
X38445Y21817D01*
X38495Y21802D01*
Y21480D01*
X38576D01*
Y21302D01*
X38495D01*
Y20862D01*
X38576D01*
Y20670D01*
X38495D01*
Y20230D01*
X38576D01*
Y19120D01*
X38495D01*
Y18680D01*
X38576D01*
Y17720D01*
X38495D01*
Y17280D01*
X38576D01*
Y17170D01*
X38495D01*
Y16910D01*
X37451Y15867D01*
X37424Y15826D01*
X37414Y15777D01*
Y14732D01*
X37209Y14527D01*
X36702D01*
X36493Y14737D01*
Y15657D01*
X36042D01*
Y15234D01*
X35705D01*
Y15657D01*
X35255D01*
Y15234D01*
X34918D01*
Y15657D01*
X34469D01*
Y15227D01*
X34365D01*
X34316Y15260D01*
X34250Y15273D01*
X34184Y15260D01*
X34127Y15223D01*
X34090Y15166D01*
X34077Y15100D01*
X34090Y15034D01*
X34127Y14977D01*
X34184Y14940D01*
X34250Y14927D01*
X34316Y14940D01*
X34365Y14973D01*
X34469D01*
Y14557D01*
X34918D01*
Y14980D01*
X35255D01*
Y14557D01*
X35705D01*
Y14980D01*
X36042D01*
Y14557D01*
X36312D01*
X36559Y14310D01*
X36601Y14282D01*
X36649Y14273D01*
X37262D01*
X37311Y14282D01*
X37352Y14310D01*
X37632Y14589D01*
X37659Y14631D01*
X37669Y14679D01*
Y15724D01*
X38675Y16730D01*
X38912D01*
Y17170D01*
X38831D01*
Y17280D01*
X38912D01*
Y17720D01*
X38831D01*
Y18680D01*
X38912D01*
Y19120D01*
X38831D01*
Y20230D01*
X38912D01*
Y20670D01*
X38831D01*
Y20862D01*
X38912D01*
Y21302D01*
X38831D01*
Y21480D01*
X38912D01*
Y21920D01*
X38831D01*
Y22130D01*
X38912D01*
Y22570D01*
X38831D01*
Y23057D01*
X39147Y23373D01*
X39629D01*
X39678Y23382D01*
X39719Y23410D01*
X39767Y23458D01*
X39813Y23439D01*
Y23157D01*
X40913D01*
Y23358D01*
X40948Y23365D01*
X40990Y23392D01*
X41676Y24078D01*
X41733Y24090D01*
X41743Y24096D01*
X41787Y24073D01*
Y23944D01*
X42210D01*
Y23607D01*
X41787D01*
Y23427D01*
X41743Y23404D01*
X41733Y23410D01*
X41667Y23423D01*
X41601Y23410D01*
X41544Y23373D01*
X41507Y23316D01*
X41495Y23259D01*
X40963Y22726D01*
X40913Y22731D01*
Y22820D01*
X39813D01*
Y22476D01*
X39797Y22465D01*
X39763Y22454D01*
X39716Y22485D01*
X39650Y22498D01*
X39584Y22485D01*
X39555Y22466D01*
X39505Y22476D01*
Y22570D01*
X39088D01*
Y22130D01*
X39505D01*
Y22157D01*
X39555Y22184D01*
X39584Y22165D01*
X39650Y22152D01*
X39716Y22165D01*
X39773Y22202D01*
X39810Y22259D01*
X39823Y22325D01*
X39822Y22332D01*
X39854Y22371D01*
X40913D01*
Y22468D01*
X41013D01*
X41061Y22478D01*
X41103Y22505D01*
X41676Y23078D01*
X41733Y23090D01*
X41790Y23127D01*
X41810Y23157D01*
X42885D01*
X42887Y23157D01*
X42935Y23153D01*
Y16520D01*
X39210D01*
Y15720D01*
X43130D01*
Y12520D01*
X33290D01*
Y15720D01*
X33370Y15800D01*
X37200D01*
Y16510D01*
X37210Y16520D01*
X33485D01*
Y26360D01*
X37210D01*
Y27360D01*
X32800D01*
Y15550D01*
X31300D01*
Y13950D01*
X19900D01*
Y49450D01*
X35850D01*
Y48804D01*
D02*
G37*
G36*
X30484Y48940D02*
X30541Y48928D01*
X30958Y48512D01*
X30710Y48264D01*
X30682Y48223D01*
X30673Y48174D01*
Y39829D01*
X30628Y39805D01*
X30621Y39810D01*
X30555Y39823D01*
X30489Y39810D01*
X30432Y39773D01*
X30395Y39716D01*
X30382Y39650D01*
X30395Y39584D01*
X30432Y39527D01*
X30489Y39490D01*
X30555Y39477D01*
X30621Y39490D01*
X30628Y39495D01*
X30673Y39471D01*
Y36670D01*
X30682Y36621D01*
X30710Y36580D01*
X32830Y34460D01*
X32871Y34432D01*
X32920Y34423D01*
X37829D01*
X37845Y34373D01*
X37827Y34361D01*
X37790Y34305D01*
X37777Y34239D01*
X37739Y34202D01*
X37657D01*
X37618Y34194D01*
X37585Y34172D01*
X36910Y33497D01*
X36856Y33504D01*
X36851Y33507D01*
X36788Y33588D01*
X36704Y33653D01*
X36606Y33694D01*
X36500Y33708D01*
X36394Y33694D01*
X36296Y33653D01*
X36212Y33588D01*
X36147Y33504D01*
X36106Y33406D01*
X36092Y33300D01*
X36106Y33194D01*
X36147Y33096D01*
X36212Y33012D01*
X36296Y32947D01*
X36394Y32906D01*
X36500Y32892D01*
X36606Y32906D01*
X36704Y32947D01*
X36788Y33012D01*
X36812Y33043D01*
X36862Y33026D01*
Y32806D01*
X36707Y32651D01*
X36704Y32653D01*
X36606Y32694D01*
X36500Y32708D01*
X36394Y32694D01*
X36296Y32653D01*
X36212Y32588D01*
X36147Y32504D01*
X36106Y32406D01*
X36092Y32300D01*
X36106Y32194D01*
X36147Y32096D01*
X36212Y32012D01*
X36296Y31947D01*
X36394Y31906D01*
X36500Y31892D01*
X36606Y31906D01*
X36704Y31947D01*
X36788Y32012D01*
X36853Y32096D01*
X36894Y32194D01*
X36908Y32300D01*
X36894Y32406D01*
X36853Y32504D01*
X36851Y32507D01*
X37036Y32692D01*
X37058Y32725D01*
X37066Y32764D01*
Y33160D01*
X37116Y33170D01*
X37147Y33096D01*
X37212Y33012D01*
X37296Y32947D01*
X37394Y32906D01*
X37500Y32892D01*
X37606Y32906D01*
X37704Y32947D01*
X37788Y33012D01*
X37848Y33089D01*
X37873Y33087D01*
X37898Y33076D01*
Y32842D01*
X37707Y32651D01*
X37704Y32653D01*
X37606Y32694D01*
X37500Y32708D01*
X37394Y32694D01*
X37296Y32653D01*
X37212Y32588D01*
X37147Y32504D01*
X37106Y32406D01*
X37092Y32300D01*
X37106Y32194D01*
X37147Y32096D01*
X37212Y32012D01*
X37296Y31947D01*
X37394Y31906D01*
X37500Y31892D01*
X37606Y31906D01*
X37704Y31947D01*
X37788Y32012D01*
X37853Y32096D01*
X37894Y32194D01*
X37908Y32300D01*
X37894Y32406D01*
X37853Y32504D01*
X37851Y32507D01*
X38072Y32728D01*
X38094Y32761D01*
X38102Y32800D01*
Y33076D01*
X38127Y33087D01*
X38152Y33089D01*
X38212Y33012D01*
X38296Y32947D01*
X38394Y32906D01*
X38500Y32892D01*
X38606Y32906D01*
X38704Y32947D01*
X38788Y33012D01*
X38853Y33096D01*
X38894Y33194D01*
X38908Y33300D01*
X38894Y33406D01*
X38853Y33504D01*
X38788Y33588D01*
X38704Y33653D01*
X38606Y33694D01*
X38595Y33695D01*
Y34462D01*
X38585Y34511D01*
X38557Y34552D01*
X38533Y34576D01*
X38552Y34623D01*
X38797D01*
X39373Y34047D01*
Y33685D01*
X39296Y33653D01*
X39212Y33588D01*
X39147Y33504D01*
X39106Y33406D01*
X39092Y33300D01*
X39106Y33194D01*
X39147Y33096D01*
X39212Y33012D01*
X39296Y32947D01*
X39394Y32906D01*
X39500Y32892D01*
X39606Y32906D01*
X39704Y32947D01*
X39788Y33012D01*
X39853Y33096D01*
X39894Y33194D01*
X39908Y33300D01*
X39894Y33406D01*
X39853Y33504D01*
X39788Y33588D01*
X39704Y33653D01*
X39627Y33685D01*
Y34100D01*
X39618Y34149D01*
X39590Y34190D01*
X38982Y34798D01*
X39003Y34848D01*
X43036D01*
X43040Y34849D01*
X43211Y34832D01*
X43380Y34781D01*
X43535Y34698D01*
X43668Y34589D01*
X43671Y34585D01*
X43800Y34456D01*
Y33033D01*
X43680Y32969D01*
X43511Y32918D01*
X43385Y32906D01*
X43336Y32904D01*
Y32904D01*
X43157Y32887D01*
X42986Y32835D01*
X42827Y32750D01*
X42707Y32651D01*
X42704Y32653D01*
X42606Y32694D01*
X42500Y32708D01*
X42394Y32694D01*
X42296Y32653D01*
X42212Y32588D01*
X42147Y32504D01*
X42106Y32406D01*
X42092Y32300D01*
X42106Y32194D01*
X42147Y32096D01*
X42212Y32012D01*
X42296Y31947D01*
X42394Y31906D01*
X42500Y31892D01*
X42606Y31906D01*
X42704Y31947D01*
X42707Y31949D01*
X43800Y30856D01*
Y29942D01*
X43754Y29923D01*
X42161Y31497D01*
X42149Y31554D01*
X42112Y31610D01*
X42056Y31648D01*
X41989Y31661D01*
X41923Y31648D01*
X41867Y31610D01*
X41829Y31554D01*
X41816Y31488D01*
X41829Y31421D01*
X41867Y31365D01*
X41923Y31327D01*
X41982Y31316D01*
X43800Y29519D01*
Y29377D01*
X40256D01*
X40237Y29424D01*
X40890Y30077D01*
X40918Y30118D01*
X40927Y30167D01*
Y31547D01*
X41318Y31938D01*
X41394Y31906D01*
X41500Y31892D01*
X41606Y31906D01*
X41704Y31947D01*
X41788Y32012D01*
X41853Y32096D01*
X41894Y32194D01*
X41908Y32300D01*
X41894Y32406D01*
X41853Y32504D01*
X41788Y32588D01*
X41704Y32653D01*
X41606Y32694D01*
X41500Y32708D01*
X41394Y32694D01*
X41296Y32653D01*
X41212Y32588D01*
X41147Y32504D01*
X41106Y32406D01*
X41092Y32300D01*
X41106Y32194D01*
X41138Y32118D01*
X40774Y31754D01*
X40727Y31773D01*
Y31965D01*
X40788Y32012D01*
X40853Y32096D01*
X40894Y32194D01*
X40908Y32300D01*
X40894Y32406D01*
X40853Y32504D01*
X40788Y32588D01*
X40704Y32653D01*
X40606Y32694D01*
X40500Y32708D01*
X40394Y32694D01*
X40296Y32653D01*
X40212Y32588D01*
X40147Y32504D01*
X40106Y32406D01*
X40092Y32300D01*
X40106Y32194D01*
X40147Y32096D01*
X40212Y32012D01*
X40296Y31947D01*
X40394Y31906D01*
X40473Y31896D01*
Y31289D01*
X40423Y31284D01*
X40415Y31321D01*
X40378Y31378D01*
X40321Y31415D01*
X40281Y31423D01*
X40271Y31476D01*
X40273Y31477D01*
X40310Y31534D01*
X40323Y31600D01*
X40310Y31666D01*
X40273Y31723D01*
X40216Y31760D01*
X40150Y31773D01*
X40084Y31760D01*
X40035Y31727D01*
X39253D01*
X38862Y32118D01*
X38894Y32194D01*
X38908Y32300D01*
X38894Y32406D01*
X38853Y32504D01*
X38788Y32588D01*
X38704Y32653D01*
X38606Y32694D01*
X38500Y32708D01*
X38394Y32694D01*
X38296Y32653D01*
X38212Y32588D01*
X38147Y32504D01*
X38106Y32406D01*
X38092Y32300D01*
X38106Y32194D01*
X38147Y32096D01*
X38212Y32012D01*
X38296Y31947D01*
X38394Y31906D01*
X38500Y31892D01*
X38606Y31906D01*
X38682Y31938D01*
X39110Y31510D01*
X39151Y31482D01*
X39200Y31473D01*
X40035D01*
X40084Y31440D01*
X40097Y31437D01*
X40114Y31383D01*
X40093Y31357D01*
X32983D01*
X32688Y31652D01*
X32707Y31698D01*
X35000D01*
X35039Y31706D01*
X35072Y31728D01*
X35293Y31949D01*
X35296Y31947D01*
X35394Y31906D01*
X35500Y31892D01*
X35606Y31906D01*
X35704Y31947D01*
X35788Y32012D01*
X35853Y32096D01*
X35894Y32194D01*
X35908Y32300D01*
X35894Y32406D01*
X35853Y32504D01*
X35788Y32588D01*
X35704Y32653D01*
X35606Y32694D01*
X35500Y32708D01*
X35394Y32694D01*
X35296Y32653D01*
X35212Y32588D01*
X35147Y32504D01*
X35106Y32406D01*
X35092Y32300D01*
X35106Y32194D01*
X35147Y32096D01*
X35149Y32093D01*
X34958Y31902D01*
X34904D01*
Y32704D01*
X34096D01*
Y32402D01*
X32362D01*
X28432Y36332D01*
Y36683D01*
X28424Y36722D01*
X28402Y36755D01*
X24004Y41153D01*
Y45159D01*
X24272Y45428D01*
X24294Y45461D01*
X24302Y45500D01*
Y46303D01*
X24309Y46311D01*
X24642D01*
Y46055D01*
X24654Y45997D01*
X24687Y45947D01*
X25949Y44685D01*
X25962Y44622D01*
X26006Y44556D01*
X26906Y43656D01*
X26972Y43612D01*
X27050Y43596D01*
X29050D01*
X29128Y43612D01*
X29194Y43656D01*
X30168Y44630D01*
X30222Y44608D01*
X30300Y44597D01*
X30378Y44608D01*
X30451Y44638D01*
X30514Y44686D01*
X30562Y44749D01*
X30592Y44822D01*
X30603Y44900D01*
X30592Y44978D01*
X30562Y45051D01*
X30514Y45114D01*
X30451Y45162D01*
X30378Y45192D01*
X30300Y45203D01*
X30222Y45192D01*
X30149Y45162D01*
X30086Y45114D01*
X30061Y45081D01*
X30006Y45044D01*
X28966Y44004D01*
X27134D01*
X26354Y44784D01*
Y46895D01*
X26370D01*
Y46974D01*
X26695D01*
Y46880D01*
X27098D01*
Y46592D01*
X26724Y46219D01*
X26700Y46223D01*
X26634Y46210D01*
X26577Y46173D01*
X26540Y46116D01*
X26527Y46050D01*
X26540Y45984D01*
X26577Y45927D01*
X26634Y45890D01*
X26700Y45877D01*
X26766Y45890D01*
X26823Y45927D01*
X26860Y45984D01*
X26873Y46050D01*
X26869Y46074D01*
X27272Y46478D01*
X27294Y46511D01*
X27302Y46550D01*
Y46880D01*
X27705D01*
Y46998D01*
X29700D01*
X29739Y47006D01*
X29772Y47028D01*
X30181Y47436D01*
X30203Y47470D01*
X30211Y47509D01*
Y48141D01*
X30203Y48180D01*
X30181Y48214D01*
X29804Y48590D01*
X29825Y48640D01*
X30025D01*
X30057Y48601D01*
X30056Y48600D01*
X30071Y48526D01*
X30113Y48463D01*
X30176Y48421D01*
X30250Y48406D01*
X30324Y48421D01*
X30387Y48463D01*
X30429Y48526D01*
X30444Y48600D01*
X30429Y48674D01*
X30387Y48737D01*
X30324Y48779D01*
X30250Y48794D01*
X30249Y48793D01*
X30210Y48825D01*
Y48942D01*
X30247Y48973D01*
X30435D01*
X30484Y48940D01*
D02*
G37*
G36*
X35850Y39844D02*
X34465Y38459D01*
X34423Y38488D01*
X34444Y38539D01*
X34458Y38644D01*
Y38959D01*
X34444Y39065D01*
X34403Y39163D01*
X34338Y39248D01*
X34254Y39313D01*
X34156Y39353D01*
X34050Y39367D01*
X33944Y39353D01*
X33846Y39313D01*
X33762Y39248D01*
X33697Y39163D01*
X33656Y39065D01*
X33642Y38959D01*
Y38644D01*
X33656Y38539D01*
X33697Y38441D01*
X33762Y38356D01*
X33846Y38291D01*
X33944Y38251D01*
X34050Y38237D01*
X34156Y38251D01*
X34207Y38272D01*
X34235Y38229D01*
X32578Y36572D01*
X32577Y36573D01*
X32577Y36573D01*
X32546Y36535D01*
X32501Y36480D01*
X32444Y36373D01*
X32409Y36258D01*
X32397Y36138D01*
X32398D01*
Y35904D01*
X32395D01*
X32414Y35717D01*
X32468Y35537D01*
X32471Y35532D01*
X32431Y35502D01*
X31127Y36805D01*
Y39471D01*
X31172Y39495D01*
X31179Y39490D01*
X31245Y39477D01*
X31311Y39490D01*
X31368Y39527D01*
X31405Y39584D01*
X31418Y39650D01*
X31405Y39716D01*
X31368Y39773D01*
X31311Y39810D01*
X31245Y39823D01*
X31179Y39810D01*
X31172Y39805D01*
X31127Y39829D01*
Y47249D01*
X31367Y47489D01*
X31424Y47465D01*
X31456Y47461D01*
Y47370D01*
X31440D01*
Y46930D01*
X31857D01*
Y47370D01*
X31711D01*
Y47508D01*
X31779Y47561D01*
X31838Y47637D01*
X31874Y47726D01*
X31887Y47821D01*
X31874Y47916D01*
X31838Y48005D01*
X31779Y48081D01*
X31703Y48140D01*
X31614Y48176D01*
X31519Y48189D01*
X31424Y48176D01*
X31335Y48140D01*
X31259Y48081D01*
X31200Y48005D01*
X31163Y47916D01*
X31151Y47821D01*
X31163Y47726D01*
X31187Y47669D01*
X30974Y47456D01*
X30927Y47475D01*
Y48121D01*
X31191Y48385D01*
X32846D01*
Y48091D01*
X32833Y48081D01*
X32775Y48005D01*
X32738Y47916D01*
X32726Y47821D01*
X32738Y47726D01*
X32775Y47637D01*
X32833Y47561D01*
X32910Y47502D01*
X32998Y47465D01*
X33094Y47453D01*
X33189Y47465D01*
X33278Y47502D01*
X33354Y47561D01*
X33412Y47637D01*
X33449Y47726D01*
X33462Y47821D01*
X33449Y47916D01*
X33412Y48005D01*
X33354Y48081D01*
X33278Y48140D01*
X33254Y48150D01*
Y48396D01*
X35850D01*
Y39844D01*
D02*
G37*
G36*
X24900Y47651D02*
X24863Y47626D01*
X24824Y47567D01*
X24810Y47498D01*
X24824Y47428D01*
X24863Y47370D01*
X24900Y47345D01*
Y46924D01*
X24861Y46904D01*
X24850Y46903D01*
X24795Y46914D01*
X24736Y46902D01*
X24698Y46877D01*
X24659Y46891D01*
X24648Y46899D01*
Y47211D01*
X24256D01*
Y47241D01*
X24249Y47280D01*
X24226Y47314D01*
X24168Y47372D01*
X24135Y47394D01*
X24096Y47402D01*
X23810D01*
X23771Y47394D01*
X23738Y47372D01*
X23679Y47314D01*
X23657Y47280D01*
X23650Y47241D01*
Y47211D01*
X23052D01*
Y46750D01*
X22800D01*
Y47349D01*
X22837Y47374D01*
X22876Y47432D01*
X22890Y47502D01*
X22876Y47571D01*
X22837Y47630D01*
X22800Y47655D01*
Y48100D01*
X24900D01*
Y47651D01*
D02*
G37*
G36*
X38665Y39404D02*
X38626Y39364D01*
X38600Y39367D01*
X38494Y39353D01*
X38396Y39313D01*
X38312Y39248D01*
X38247Y39163D01*
X38206Y39065D01*
X38192Y38959D01*
Y38644D01*
X38206Y38539D01*
X38247Y38441D01*
X38312Y38356D01*
X38396Y38291D01*
X38494Y38251D01*
X38600Y38237D01*
X38706Y38251D01*
X38792Y38286D01*
X38823Y38266D01*
X38854Y38260D01*
X39958Y37156D01*
X39958Y37156D01*
X39961Y37154D01*
X39945Y37104D01*
X37134D01*
X36001Y38237D01*
X36003Y38250D01*
X35992Y38328D01*
X35962Y38401D01*
X35914Y38464D01*
X35851Y38512D01*
X35778Y38542D01*
X35700Y38553D01*
X35622Y38542D01*
X35549Y38512D01*
X35486Y38464D01*
X35438Y38401D01*
X35408Y38328D01*
X35397Y38250D01*
X35408Y38172D01*
X35438Y38099D01*
X35486Y38036D01*
X35549Y37988D01*
X35622Y37958D01*
X35700Y37947D01*
X35713Y37949D01*
X36906Y36756D01*
X36972Y36712D01*
X37050Y36696D01*
X43800D01*
Y36254D01*
X33817D01*
X33756Y36314D01*
X33749Y36372D01*
X33719Y36445D01*
X33671Y36507D01*
X33608Y36555D01*
X33535Y36586D01*
X33457Y36596D01*
X33378Y36586D01*
X33305Y36555D01*
X33243Y36507D01*
X33195Y36445D01*
X33164Y36372D01*
X33154Y36293D01*
X33164Y36215D01*
X33195Y36142D01*
X33243Y36079D01*
X33305Y36031D01*
X33378Y36001D01*
X33457Y35991D01*
X33498Y35996D01*
X33588Y35906D01*
X33654Y35862D01*
X33732Y35846D01*
X43800D01*
Y35065D01*
X43756Y35040D01*
X43687Y35083D01*
X43527Y35149D01*
X43358Y35190D01*
X43186Y35203D01*
Y35202D01*
X33443D01*
Y35202D01*
X33325Y35214D01*
X33211Y35248D01*
X33107Y35304D01*
X33015Y35379D01*
X32983Y35416D01*
X32902Y35515D01*
X32819Y35670D01*
X32768Y35839D01*
X32751Y36010D01*
X32752Y36014D01*
Y36138D01*
X32753D01*
X32762Y36205D01*
X32788Y36268D01*
X32829Y36321D01*
X32828Y36322D01*
X35956Y39450D01*
X38646D01*
X38665Y39404D01*
D02*
G37*
G36*
X43800Y38188D02*
X43116Y37504D01*
X40186D01*
X39092Y38599D01*
X39026Y38643D01*
X39008Y38646D01*
Y38959D01*
X38994Y39065D01*
X38967Y39129D01*
X39288Y39450D01*
X42662D01*
X42862Y39250D01*
X42862Y39248D01*
X42797Y39163D01*
X42756Y39065D01*
X42742Y38959D01*
Y38644D01*
X42756Y38539D01*
X42797Y38441D01*
X42862Y38356D01*
X42946Y38291D01*
X43044Y38251D01*
X43150Y38237D01*
X43256Y38251D01*
X43354Y38291D01*
X43438Y38356D01*
X43503Y38441D01*
X43544Y38539D01*
X43558Y38644D01*
Y38959D01*
X43544Y39065D01*
X43503Y39163D01*
X43438Y39248D01*
X43354Y39313D01*
X43272Y39347D01*
X43261Y39400D01*
X43268Y39420D01*
X43284Y39450D01*
X43800D01*
Y38188D01*
D02*
G37*
G36*
X34096Y31902D02*
X32650D01*
X32400Y32152D01*
X32419Y32198D01*
X34096D01*
Y31902D01*
D02*
G37*
G36*
X43283Y32643D02*
X43212Y32588D01*
X43147Y32504D01*
X43106Y32406D01*
X43092Y32300D01*
X43106Y32194D01*
X43147Y32096D01*
X43212Y32012D01*
X43296Y31947D01*
X43394Y31906D01*
X43398Y31906D01*
Y31617D01*
X43348Y31596D01*
X42851Y32093D01*
X42853Y32096D01*
X42894Y32194D01*
X42908Y32300D01*
X42894Y32406D01*
X42853Y32504D01*
X42852Y32505D01*
X42942Y32579D01*
X43064Y32644D01*
X43197Y32685D01*
X43264Y32691D01*
X43283Y32643D01*
D02*
G37*
G36*
X53496Y18726D02*
X53102Y18332D01*
X51319D01*
X51292Y18382D01*
X51325Y18432D01*
X51345Y18530D01*
X51333Y18592D01*
X51513Y18773D01*
X53477D01*
X53496Y18726D01*
D02*
G37*
G36*
X30146D02*
X29752Y18332D01*
X27648D01*
X27513Y18468D01*
X27525Y18530D01*
X27506Y18628D01*
X27450Y18710D01*
X27432Y18723D01*
X27447Y18773D01*
X30127D01*
X30146Y18726D01*
D02*
G37*
%LPC*%
G36*
X22300Y46053D02*
X22222Y46042D01*
X22149Y46012D01*
X22086Y45964D01*
X22038Y45901D01*
X22008Y45828D01*
X21997Y45750D01*
X22008Y45672D01*
X22038Y45599D01*
X22086Y45536D01*
X22149Y45488D01*
X22222Y45458D01*
X22300Y45447D01*
X22378Y45458D01*
X22451Y45488D01*
X22514Y45536D01*
X22562Y45599D01*
X22592Y45672D01*
X22603Y45750D01*
X22592Y45828D01*
X22562Y45901D01*
X22514Y45964D01*
X22451Y46012D01*
X22378Y46042D01*
X22300Y46053D01*
D02*
G37*
G36*
X24950Y39367D02*
X24844Y39353D01*
X24746Y39313D01*
X24662Y39248D01*
X24597Y39163D01*
X24556Y39065D01*
X24542Y38959D01*
Y38683D01*
X22456Y36596D01*
X22412Y36530D01*
X22396Y36452D01*
Y29748D01*
X22315Y29685D01*
X22251Y29602D01*
X22210Y29504D01*
X22197Y29400D01*
X22210Y29296D01*
X22251Y29198D01*
X22315Y29115D01*
X22398Y29051D01*
X22496Y29010D01*
X22600Y28997D01*
X22704Y29010D01*
X22802Y29051D01*
X22885Y29115D01*
X22949Y29198D01*
X22990Y29296D01*
X23003Y29400D01*
X22990Y29504D01*
X22949Y29602D01*
X22885Y29685D01*
X22804Y29748D01*
Y36367D01*
X24736Y38299D01*
X24746Y38291D01*
X24844Y38251D01*
X24950Y38237D01*
X25056Y38251D01*
X25154Y38291D01*
X25238Y38356D01*
X25303Y38441D01*
X25344Y38539D01*
X25358Y38644D01*
Y38959D01*
X25344Y39065D01*
X25303Y39163D01*
X25238Y39248D01*
X25154Y39313D01*
X25056Y39353D01*
X24950Y39367D01*
D02*
G37*
G36*
X23354Y39360D02*
X22546D01*
Y38236D01*
X23354D01*
Y39360D01*
D02*
G37*
G36*
X25748Y34627D02*
X25333D01*
Y34173D01*
X25391D01*
Y33820D01*
X25288D01*
Y33380D01*
X25375D01*
Y33060D01*
X25288D01*
Y32642D01*
X25728D01*
Y33060D01*
X25630D01*
Y33380D01*
X25706D01*
Y33820D01*
X25646D01*
Y34173D01*
X25748D01*
Y34627D01*
D02*
G37*
G36*
X26299D02*
X25884D01*
Y34173D01*
X26154D01*
X26480Y33847D01*
Y33027D01*
X26117D01*
Y32573D01*
X26178D01*
Y32305D01*
X26067D01*
Y32224D01*
X25944D01*
X25904Y32264D01*
X25863Y32292D01*
X25814Y32301D01*
X25728D01*
Y32466D01*
X25288D01*
Y32049D01*
X25402D01*
Y31499D01*
X25323D01*
Y31084D01*
X25777D01*
Y31499D01*
X25657D01*
Y32046D01*
X25761D01*
X25802Y32006D01*
X25843Y31979D01*
X25892Y31969D01*
X26067D01*
Y31888D01*
X26480D01*
Y30218D01*
X26488Y30179D01*
X26510Y30146D01*
X26982Y29673D01*
Y29066D01*
X26990Y29027D01*
X27012Y28993D01*
X27151Y28855D01*
Y28736D01*
X27130Y28723D01*
X27092Y28666D01*
X27079Y28600D01*
X27092Y28534D01*
X27130Y28477D01*
X27186Y28440D01*
X27253Y28427D01*
X27319Y28440D01*
X27375Y28477D01*
X27413Y28534D01*
X27426Y28600D01*
X27413Y28666D01*
X27375Y28723D01*
X27355Y28736D01*
Y28897D01*
X27347Y28936D01*
X27325Y28969D01*
X27186Y29108D01*
Y29223D01*
X27236Y29233D01*
X27251Y29198D01*
X27315Y29115D01*
X27398Y29051D01*
X27496Y29010D01*
X27600Y28997D01*
X27704Y29010D01*
X27802Y29051D01*
X27885Y29115D01*
X27949Y29198D01*
X27990Y29296D01*
X28003Y29400D01*
X27990Y29504D01*
X27949Y29602D01*
X27885Y29685D01*
X27802Y29749D01*
X27727Y29780D01*
Y30533D01*
X27827D01*
Y30948D01*
X27373D01*
Y30533D01*
X27473D01*
Y29780D01*
X27398Y29749D01*
X27315Y29685D01*
X27251Y29602D01*
X27236Y29567D01*
X27186Y29577D01*
Y29716D01*
X27179Y29755D01*
X27157Y29788D01*
X26684Y30260D01*
Y30523D01*
X27083D01*
Y30977D01*
X27019D01*
Y31156D01*
X27069Y31182D01*
X27082Y31173D01*
X27131Y31164D01*
X27373D01*
Y31084D01*
X27827D01*
Y31499D01*
X27747D01*
Y32049D01*
X27860D01*
Y32466D01*
X27419D01*
Y32049D01*
X27492D01*
Y31499D01*
X27373D01*
Y31419D01*
X27184D01*
X27127Y31475D01*
Y31712D01*
X26687D01*
X26684Y31761D01*
Y33890D01*
X26676Y33929D01*
X26654Y33962D01*
X26299Y34317D01*
Y34627D01*
D02*
G37*
G36*
X31000Y29800D02*
X30200D01*
Y29000D01*
X31000D01*
Y29800D01*
D02*
G37*
G36*
X29600Y29803D02*
X29496Y29790D01*
X29398Y29749D01*
X29315Y29685D01*
X29251Y29602D01*
X29210Y29504D01*
X29197Y29400D01*
X29210Y29296D01*
X29251Y29198D01*
X29315Y29115D01*
X29398Y29051D01*
X29496Y29010D01*
X29600Y28997D01*
X29704Y29010D01*
X29802Y29051D01*
X29885Y29115D01*
X29949Y29198D01*
X29990Y29296D01*
X30003Y29400D01*
X29990Y29504D01*
X29949Y29602D01*
X29885Y29685D01*
X29802Y29749D01*
X29704Y29790D01*
X29600Y29803D01*
D02*
G37*
G36*
X28600Y30573D02*
X28534Y30560D01*
X28477Y30523D01*
X28440Y30466D01*
X28427Y30400D01*
X28440Y30334D01*
X28473Y30285D01*
Y29780D01*
X28398Y29749D01*
X28315Y29685D01*
X28251Y29602D01*
X28210Y29504D01*
X28197Y29400D01*
X28210Y29296D01*
X28251Y29198D01*
X28315Y29115D01*
X28398Y29051D01*
X28496Y29010D01*
X28600Y28997D01*
X28704Y29010D01*
X28802Y29051D01*
X28885Y29115D01*
X28949Y29198D01*
X28990Y29296D01*
X29003Y29400D01*
X28990Y29504D01*
X28949Y29602D01*
X28885Y29685D01*
X28802Y29749D01*
X28727Y29780D01*
Y30285D01*
X28760Y30334D01*
X28773Y30400D01*
X28760Y30466D01*
X28723Y30523D01*
X28666Y30560D01*
X28600Y30573D01*
D02*
G37*
G36*
X25777Y30948D02*
X25323D01*
Y30533D01*
X25448D01*
Y29770D01*
X25398Y29749D01*
X25315Y29685D01*
X25251Y29602D01*
X25210Y29504D01*
X25197Y29400D01*
X25210Y29296D01*
X25251Y29198D01*
X25315Y29115D01*
X25398Y29051D01*
X25496Y29010D01*
X25600Y28997D01*
X25704Y29010D01*
X25802Y29051D01*
X25885Y29115D01*
X25949Y29198D01*
X25990Y29296D01*
X26003Y29400D01*
X25990Y29504D01*
X25949Y29602D01*
X25885Y29685D01*
X25802Y29749D01*
X25704Y29790D01*
X25702Y29790D01*
Y30533D01*
X25777D01*
Y30948D01*
D02*
G37*
G36*
X24600Y29803D02*
X24496Y29790D01*
X24398Y29749D01*
X24315Y29685D01*
X24251Y29602D01*
X24210Y29504D01*
X24197Y29400D01*
X24210Y29296D01*
X24251Y29198D01*
X24315Y29115D01*
X24398Y29051D01*
X24496Y29010D01*
X24600Y28997D01*
X24704Y29010D01*
X24802Y29051D01*
X24885Y29115D01*
X24949Y29198D01*
X24990Y29296D01*
X25003Y29400D01*
X24990Y29504D01*
X24949Y29602D01*
X24885Y29685D01*
X24802Y29749D01*
X24704Y29790D01*
X24600Y29803D01*
D02*
G37*
G36*
X23600D02*
X23496Y29790D01*
X23398Y29749D01*
X23315Y29685D01*
X23251Y29602D01*
X23210Y29504D01*
X23197Y29400D01*
X23210Y29296D01*
X23251Y29198D01*
X23315Y29115D01*
X23398Y29051D01*
X23496Y29010D01*
X23600Y28997D01*
X23704Y29010D01*
X23802Y29051D01*
X23885Y29115D01*
X23949Y29198D01*
X23990Y29296D01*
X24003Y29400D01*
X23990Y29504D01*
X23949Y29602D01*
X23885Y29685D01*
X23802Y29749D01*
X23704Y29790D01*
X23600Y29803D01*
D02*
G37*
G36*
X40756Y28689D02*
X40661Y28677D01*
X40572Y28640D01*
X40496Y28582D01*
X40438Y28505D01*
X40401Y28417D01*
X40388Y28321D01*
X40401Y28226D01*
X40438Y28137D01*
X40496Y28061D01*
X40572Y28002D01*
X40661Y27966D01*
X40756Y27953D01*
X40852Y27966D01*
X40940Y28002D01*
X41017Y28061D01*
X41075Y28137D01*
X41112Y28226D01*
X41124Y28321D01*
X41112Y28417D01*
X41075Y28505D01*
X41017Y28582D01*
X40940Y28640D01*
X40852Y28677D01*
X40756Y28689D01*
D02*
G37*
G36*
X39969D02*
X39874Y28677D01*
X39785Y28640D01*
X39709Y28582D01*
X39650Y28505D01*
X39613Y28417D01*
X39601Y28321D01*
X39613Y28226D01*
X39650Y28137D01*
X39709Y28061D01*
X39785Y28002D01*
X39874Y27966D01*
X39969Y27953D01*
X40064Y27966D01*
X40153Y28002D01*
X40229Y28061D01*
X40288Y28137D01*
X40324Y28226D01*
X40337Y28321D01*
X40324Y28417D01*
X40288Y28505D01*
X40229Y28582D01*
X40153Y28640D01*
X40064Y28677D01*
X39969Y28689D01*
D02*
G37*
G36*
X38385Y28568D02*
X38281Y28555D01*
X38183Y28514D01*
X38100Y28450D01*
X38036Y28367D01*
X37995Y28269D01*
X37982Y28165D01*
X37995Y28061D01*
X38036Y27963D01*
X38100Y27880D01*
X38183Y27816D01*
X38281Y27775D01*
X38385Y27762D01*
X38489Y27775D01*
X38587Y27816D01*
X38670Y27880D01*
X38734Y27963D01*
X38775Y28061D01*
X38788Y28165D01*
X38775Y28269D01*
X38734Y28367D01*
X38670Y28450D01*
X38587Y28514D01*
X38489Y28555D01*
X38385Y28568D01*
D02*
G37*
G36*
X34985D02*
X34881Y28555D01*
X34783Y28514D01*
X34700Y28450D01*
X34636Y28367D01*
X34595Y28269D01*
X34582Y28165D01*
X34595Y28061D01*
X34636Y27963D01*
X34700Y27880D01*
X34783Y27816D01*
X34881Y27775D01*
X34985Y27762D01*
X35089Y27775D01*
X35187Y27816D01*
X35270Y27880D01*
X35334Y27963D01*
X35375Y28061D01*
X35388Y28165D01*
X35375Y28269D01*
X35334Y28367D01*
X35270Y28450D01*
X35187Y28514D01*
X35089Y28555D01*
X34985Y28568D01*
D02*
G37*
G36*
X50295Y28138D02*
X50191Y28125D01*
X50093Y28084D01*
X50010Y28020D01*
X49946Y27937D01*
X49905Y27839D01*
X49892Y27735D01*
X49905Y27631D01*
X49946Y27533D01*
X50010Y27450D01*
X50093Y27386D01*
X50191Y27345D01*
X50295Y27332D01*
X50399Y27345D01*
X50497Y27386D01*
X50580Y27450D01*
X50644Y27533D01*
X50685Y27631D01*
X50698Y27735D01*
X50685Y27839D01*
X50644Y27937D01*
X50580Y28020D01*
X50497Y28084D01*
X50399Y28125D01*
X50295Y28138D01*
D02*
G37*
G36*
X26195D02*
X26091Y28125D01*
X25993Y28084D01*
X25910Y28020D01*
X25846Y27937D01*
X25805Y27839D01*
X25792Y27735D01*
X25805Y27631D01*
X25846Y27533D01*
X25910Y27450D01*
X25993Y27386D01*
X26091Y27345D01*
X26195Y27332D01*
X26299Y27345D01*
X26397Y27386D01*
X26480Y27450D01*
X26544Y27533D01*
X26585Y27631D01*
X26598Y27735D01*
X26585Y27839D01*
X26544Y27937D01*
X26480Y28020D01*
X26397Y28084D01*
X26299Y28125D01*
X26195Y28138D01*
D02*
G37*
G36*
X39505Y26170D02*
X39088D01*
Y25730D01*
X39505D01*
Y25823D01*
X39785D01*
X39834Y25790D01*
X39900Y25777D01*
X39966Y25790D01*
X40023Y25827D01*
X40060Y25884D01*
X40073Y25950D01*
X40060Y26016D01*
X40023Y26073D01*
X39966Y26110D01*
X39900Y26123D01*
X39834Y26110D01*
X39785Y26077D01*
X39505D01*
Y26170D01*
D02*
G37*
G36*
X39745Y25602D02*
X39678Y25589D01*
X39622Y25551D01*
X39585Y25495D01*
X39573Y25437D01*
X39564Y25427D01*
X39505D01*
Y25520D01*
X39088D01*
Y25080D01*
X39208D01*
X39218Y25030D01*
X39199Y25022D01*
X39136Y24974D01*
X39088Y24911D01*
X39058Y24838D01*
X39047Y24760D01*
X39058Y24682D01*
X39088Y24609D01*
X39136Y24546D01*
X39199Y24498D01*
X39272Y24468D01*
X39350Y24457D01*
X39428Y24468D01*
X39501Y24498D01*
X39564Y24546D01*
X39612Y24609D01*
X39642Y24682D01*
X39653Y24760D01*
X39642Y24838D01*
X39612Y24911D01*
X39564Y24974D01*
X39501Y25022D01*
X39482Y25030D01*
X39492Y25080D01*
X39505D01*
Y25173D01*
X39616D01*
X39665Y25182D01*
X39706Y25210D01*
X39753Y25257D01*
X39811Y25268D01*
X39867Y25306D01*
X39905Y25362D01*
X39918Y25428D01*
X39905Y25495D01*
X39867Y25551D01*
X39811Y25589D01*
X39745Y25602D01*
D02*
G37*
G36*
X25615Y26165D02*
X24815D01*
Y25365D01*
X25615D01*
Y26165D01*
D02*
G37*
G36*
X41250Y26073D02*
X41184Y26060D01*
X41127Y26023D01*
X41090Y25966D01*
X41078Y25909D01*
X40698Y25528D01*
X40670Y25487D01*
X40661Y25438D01*
Y25182D01*
X39813D01*
Y24732D01*
X40913D01*
Y25044D01*
X40915Y25057D01*
Y25385D01*
X41259Y25728D01*
X41316Y25740D01*
X41373Y25777D01*
X41410Y25834D01*
X41423Y25900D01*
X41410Y25966D01*
X41373Y26023D01*
X41316Y26060D01*
X41250Y26073D01*
D02*
G37*
G36*
X49715Y26165D02*
X48915D01*
Y25365D01*
X49423D01*
Y24711D01*
X49373Y24694D01*
X49360Y24710D01*
X49284Y24769D01*
X49195Y24806D01*
X49100Y24818D01*
X49005Y24806D01*
X48916Y24769D01*
X48840Y24710D01*
X48781Y24634D01*
X48744Y24545D01*
X48732Y24450D01*
X48744Y24355D01*
X48781Y24266D01*
X48818Y24218D01*
X48706Y24106D01*
X48678Y24065D01*
X48669Y24016D01*
Y23570D01*
X48650Y23527D01*
X48390D01*
X48227Y23690D01*
Y24108D01*
X48284Y24131D01*
X48360Y24190D01*
X48419Y24266D01*
X48456Y24355D01*
X48468Y24450D01*
X48456Y24545D01*
X48419Y24634D01*
X48360Y24710D01*
X48284Y24769D01*
X48195Y24806D01*
X48100Y24818D01*
X48005Y24806D01*
X47916Y24769D01*
X47840Y24710D01*
X47781Y24634D01*
X47744Y24545D01*
X47732Y24450D01*
X47744Y24355D01*
X47781Y24266D01*
X47840Y24190D01*
X47916Y24131D01*
X47973Y24108D01*
Y23637D01*
X47982Y23588D01*
X48010Y23547D01*
X48210Y23347D01*
Y23149D01*
X47977D01*
X47928Y23139D01*
X47887Y23111D01*
X47710Y22934D01*
X47450D01*
Y22517D01*
X47543D01*
Y22323D01*
X47497Y22277D01*
X46353D01*
X46227Y22403D01*
Y22517D01*
X46370D01*
Y22934D01*
X45930D01*
Y22517D01*
X45973D01*
Y22350D01*
X45982Y22301D01*
X46010Y22260D01*
X46210Y22060D01*
X46251Y22032D01*
X46300Y22023D01*
X47550D01*
X47599Y22032D01*
X47640Y22060D01*
X47760Y22180D01*
X47788Y22221D01*
X47797Y22270D01*
Y22517D01*
X47890D01*
Y22754D01*
X48030Y22894D01*
X48662D01*
X48711Y22904D01*
X48752Y22931D01*
X48886Y23065D01*
X48914Y23106D01*
X48923Y23155D01*
Y23963D01*
X49049Y24089D01*
X49100Y24082D01*
X49195Y24094D01*
X49284Y24131D01*
X49360Y24190D01*
X49373Y24206D01*
X49423Y24189D01*
Y23649D01*
X49257Y23483D01*
X49002D01*
Y23068D01*
X49457D01*
Y23322D01*
X49640Y23506D01*
X49668Y23547D01*
X49677Y23596D01*
Y25365D01*
X49715D01*
Y26165D01*
D02*
G37*
G36*
X37660Y25063D02*
X37582Y25052D01*
X37509Y25022D01*
X37446Y24974D01*
X37398Y24911D01*
X37368Y24838D01*
X37357Y24760D01*
X37368Y24682D01*
X37398Y24609D01*
X37446Y24546D01*
X37509Y24498D01*
X37582Y24468D01*
X37660Y24457D01*
X37738Y24468D01*
X37811Y24498D01*
X37874Y24546D01*
X37922Y24609D01*
X37952Y24682D01*
X37963Y24760D01*
X37952Y24838D01*
X37922Y24911D01*
X37874Y24974D01*
X37811Y25022D01*
X37738Y25052D01*
X37660Y25063D01*
D02*
G37*
G36*
X54465Y24815D02*
X53735D01*
Y24085D01*
X54465D01*
Y24815D01*
D02*
G37*
G36*
X30615D02*
X29885D01*
Y24085D01*
X30615D01*
Y24815D01*
D02*
G37*
G36*
X52100Y24818D02*
X52005Y24806D01*
X51916Y24769D01*
X51840Y24710D01*
X51781Y24634D01*
X51744Y24545D01*
X51732Y24450D01*
X51744Y24355D01*
X51781Y24266D01*
X51840Y24190D01*
X51916Y24131D01*
X52005Y24094D01*
X52100Y24082D01*
X52195Y24094D01*
X52284Y24131D01*
X52360Y24190D01*
X52419Y24266D01*
X52456Y24355D01*
X52468Y24450D01*
X52456Y24545D01*
X52419Y24634D01*
X52360Y24710D01*
X52284Y24769D01*
X52195Y24806D01*
X52100Y24818D01*
D02*
G37*
G36*
X50100D02*
X50005Y24806D01*
X49916Y24769D01*
X49840Y24710D01*
X49781Y24634D01*
X49744Y24545D01*
X49732Y24450D01*
X49744Y24355D01*
X49781Y24266D01*
X49840Y24190D01*
X49916Y24131D01*
X50005Y24094D01*
X50100Y24082D01*
X50195Y24094D01*
X50284Y24131D01*
X50360Y24190D01*
X50419Y24266D01*
X50456Y24355D01*
X50468Y24450D01*
X50456Y24545D01*
X50419Y24634D01*
X50360Y24710D01*
X50284Y24769D01*
X50195Y24806D01*
X50100Y24818D01*
D02*
G37*
G36*
X26250D02*
X26155Y24806D01*
X26066Y24769D01*
X25990Y24710D01*
X25931Y24634D01*
X25894Y24545D01*
X25882Y24450D01*
X25894Y24355D01*
X25931Y24266D01*
X25990Y24190D01*
X26066Y24131D01*
X26155Y24094D01*
X26250Y24082D01*
X26345Y24094D01*
X26434Y24131D01*
X26510Y24190D01*
X26569Y24266D01*
X26606Y24355D01*
X26618Y24450D01*
X26606Y24545D01*
X26569Y24634D01*
X26510Y24710D01*
X26434Y24769D01*
X26345Y24806D01*
X26250Y24818D01*
D02*
G37*
G36*
X25250D02*
X25155Y24806D01*
X25066Y24769D01*
X24990Y24710D01*
X24931Y24634D01*
X24894Y24545D01*
X24882Y24450D01*
X24894Y24355D01*
X24918Y24298D01*
X23897Y23277D01*
X23712D01*
Y23475D01*
X24248Y24012D01*
X24276Y24053D01*
X24283Y24086D01*
X24345Y24094D01*
X24434Y24131D01*
X24510Y24190D01*
X24569Y24266D01*
X24606Y24355D01*
X24618Y24450D01*
X24606Y24545D01*
X24569Y24634D01*
X24510Y24710D01*
X24434Y24769D01*
X24345Y24806D01*
X24250Y24818D01*
X24155Y24806D01*
X24066Y24769D01*
X23990Y24710D01*
X23931Y24634D01*
X23894Y24545D01*
X23882Y24450D01*
X23894Y24355D01*
X23931Y24266D01*
X23990Y24190D01*
X23993Y24187D01*
X23997Y24121D01*
X23532Y23655D01*
X23272D01*
Y23277D01*
X23196D01*
X23147Y23268D01*
X23106Y23240D01*
X22846Y22981D01*
X22520D01*
Y23062D01*
X22080D01*
Y22645D01*
X22520D01*
Y22726D01*
X22899D01*
X22948Y22736D01*
X22989Y22763D01*
X23249Y23023D01*
X23950D01*
X23999Y23032D01*
X24040Y23060D01*
X24449Y23469D01*
X24496Y23450D01*
Y23196D01*
X24950D01*
Y23298D01*
X25469D01*
X25488Y23251D01*
X25359Y23122D01*
X25350Y23123D01*
X25284Y23110D01*
X25227Y23073D01*
X25190Y23016D01*
X25177Y22950D01*
X25190Y22884D01*
X25227Y22827D01*
X25284Y22790D01*
X25350Y22777D01*
X25416Y22790D01*
X25473Y22827D01*
X25510Y22884D01*
X25517Y22920D01*
X25835Y23238D01*
X26095D01*
Y23487D01*
X26141Y23506D01*
X26291Y23356D01*
X26332Y23329D01*
X26381Y23319D01*
X26847D01*
Y23238D01*
X27287D01*
Y23655D01*
X26847D01*
Y23574D01*
X26433D01*
X25611Y24396D01*
X25618Y24450D01*
X25606Y24545D01*
X25569Y24634D01*
X25510Y24710D01*
X25434Y24769D01*
X25345Y24806D01*
X25250Y24818D01*
D02*
G37*
G36*
X28250D02*
X28155Y24806D01*
X28066Y24769D01*
X27990Y24710D01*
X27931Y24634D01*
X27894Y24545D01*
X27882Y24450D01*
X27894Y24355D01*
X27931Y24266D01*
X27990Y24190D01*
X28066Y24131D01*
X28148Y24097D01*
Y23605D01*
X28073D01*
Y23190D01*
X28527D01*
Y23605D01*
X28402D01*
Y24118D01*
X28434Y24131D01*
X28510Y24190D01*
X28569Y24266D01*
X28606Y24355D01*
X28618Y24450D01*
X28606Y24545D01*
X28569Y24634D01*
X28510Y24710D01*
X28434Y24769D01*
X28345Y24806D01*
X28250Y24818D01*
D02*
G37*
G36*
X46100D02*
X46005Y24806D01*
X45916Y24769D01*
X45840Y24710D01*
X45781Y24634D01*
X45744Y24545D01*
X45732Y24450D01*
X45744Y24355D01*
X45781Y24266D01*
X45840Y24190D01*
X45916Y24131D01*
X45998Y24097D01*
Y23527D01*
X45930D01*
Y23110D01*
X46370D01*
Y23167D01*
X46724D01*
Y23062D01*
X47179D01*
Y23477D01*
X46724D01*
Y23421D01*
X46370D01*
Y23527D01*
X46252D01*
Y24118D01*
X46284Y24131D01*
X46360Y24190D01*
X46419Y24266D01*
X46456Y24355D01*
X46468Y24450D01*
X46456Y24545D01*
X46419Y24634D01*
X46360Y24710D01*
X46284Y24769D01*
X46195Y24806D01*
X46100Y24818D01*
D02*
G37*
G36*
X39340Y23243D02*
X39262Y23232D01*
X39189Y23202D01*
X39126Y23154D01*
X39078Y23091D01*
X39048Y23018D01*
X39037Y22940D01*
X39048Y22862D01*
X39078Y22789D01*
X39126Y22726D01*
X39189Y22678D01*
X39262Y22648D01*
X39340Y22637D01*
X39418Y22648D01*
X39491Y22678D01*
X39554Y22726D01*
X39602Y22789D01*
X39632Y22862D01*
X39643Y22940D01*
X39632Y23018D01*
X39602Y23091D01*
X39554Y23154D01*
X39491Y23202D01*
X39418Y23232D01*
X39340Y23243D01*
D02*
G37*
G36*
X37650D02*
X37572Y23232D01*
X37499Y23202D01*
X37436Y23154D01*
X37388Y23091D01*
X37358Y23018D01*
X37347Y22940D01*
X37358Y22862D01*
X37388Y22789D01*
X37436Y22726D01*
X37499Y22678D01*
X37572Y22648D01*
X37650Y22637D01*
X37728Y22648D01*
X37801Y22678D01*
X37864Y22726D01*
X37912Y22789D01*
X37942Y22862D01*
X37953Y22940D01*
X37942Y23018D01*
X37912Y23091D01*
X37864Y23154D01*
X37801Y23202D01*
X37728Y23232D01*
X37650Y23243D01*
D02*
G37*
G36*
X24950Y23060D02*
X24496D01*
Y22645D01*
X24584D01*
Y22377D01*
X24577Y22373D01*
X24540Y22316D01*
X24527Y22250D01*
X24540Y22184D01*
X24577Y22127D01*
X24634Y22090D01*
X24700Y22077D01*
X24766Y22090D01*
X24823Y22127D01*
X24860Y22184D01*
X24873Y22250D01*
X24860Y22316D01*
X24839Y22348D01*
Y22645D01*
X24950D01*
Y23060D01*
D02*
G37*
G36*
X41188Y22123D02*
X41122Y22110D01*
X41066Y22073D01*
X41028Y22016D01*
X41017Y21959D01*
X40994Y21936D01*
X40913D01*
Y22034D01*
X39813D01*
Y21851D01*
X39797Y21840D01*
X39763Y21829D01*
X39716Y21860D01*
X39650Y21873D01*
X39584Y21860D01*
X39555Y21841D01*
X39505Y21867D01*
Y21920D01*
X39088D01*
Y21480D01*
X39505D01*
Y21533D01*
X39555Y21559D01*
X39584Y21540D01*
X39650Y21527D01*
X39716Y21540D01*
X39767Y21574D01*
X39813Y21583D01*
X39813Y21583D01*
X39813Y21583D01*
X40913D01*
Y21681D01*
X41047D01*
X41096Y21691D01*
X41137Y21718D01*
X41197Y21778D01*
X41255Y21790D01*
X41311Y21827D01*
X41348Y21884D01*
X41362Y21950D01*
X41348Y22016D01*
X41311Y22073D01*
X41255Y22110D01*
X41188Y22123D01*
D02*
G37*
G36*
X34636Y22083D02*
X33536D01*
Y21634D01*
X34636D01*
Y21700D01*
X34686Y21718D01*
X34729Y21690D01*
X34795Y21677D01*
X34861Y21690D01*
X34918Y21727D01*
X34955Y21784D01*
X34968Y21850D01*
X34955Y21916D01*
X34918Y21973D01*
X34861Y22010D01*
X34795Y22023D01*
X34729Y22010D01*
X34686Y21982D01*
X34636D01*
Y22083D01*
D02*
G37*
G36*
X54100Y21818D02*
X54005Y21806D01*
X53916Y21769D01*
X53840Y21710D01*
X53781Y21634D01*
X53744Y21545D01*
X53732Y21450D01*
X53744Y21355D01*
X53781Y21266D01*
X53840Y21190D01*
X53916Y21131D01*
X54005Y21094D01*
X54100Y21082D01*
X54195Y21094D01*
X54284Y21131D01*
X54360Y21190D01*
X54419Y21266D01*
X54456Y21355D01*
X54468Y21450D01*
X54456Y21545D01*
X54419Y21634D01*
X54360Y21710D01*
X54284Y21769D01*
X54195Y21806D01*
X54100Y21818D01*
D02*
G37*
G36*
X53100D02*
X53005Y21806D01*
X52916Y21769D01*
X52840Y21710D01*
X52781Y21634D01*
X52744Y21545D01*
X52732Y21450D01*
X52744Y21355D01*
X52781Y21266D01*
X52840Y21190D01*
X52916Y21131D01*
X53005Y21094D01*
X53100Y21082D01*
X53195Y21094D01*
X53284Y21131D01*
X53360Y21190D01*
X53419Y21266D01*
X53456Y21355D01*
X53468Y21450D01*
X53456Y21545D01*
X53419Y21634D01*
X53360Y21710D01*
X53284Y21769D01*
X53195Y21806D01*
X53100Y21818D01*
D02*
G37*
G36*
X52100D02*
X52005Y21806D01*
X51916Y21769D01*
X51840Y21710D01*
X51781Y21634D01*
X51744Y21545D01*
X51732Y21450D01*
X51744Y21355D01*
X51781Y21266D01*
X51840Y21190D01*
X51916Y21131D01*
X52005Y21094D01*
X52100Y21082D01*
X52195Y21094D01*
X52284Y21131D01*
X52360Y21190D01*
X52419Y21266D01*
X52456Y21355D01*
X52468Y21450D01*
X52456Y21545D01*
X52419Y21634D01*
X52360Y21710D01*
X52284Y21769D01*
X52195Y21806D01*
X52100Y21818D01*
D02*
G37*
G36*
X51100D02*
X51005Y21806D01*
X50916Y21769D01*
X50840Y21710D01*
X50781Y21634D01*
X50744Y21545D01*
X50732Y21450D01*
X50744Y21355D01*
X50781Y21266D01*
X50840Y21190D01*
X50916Y21131D01*
X51005Y21094D01*
X51100Y21082D01*
X51195Y21094D01*
X51284Y21131D01*
X51360Y21190D01*
X51419Y21266D01*
X51456Y21355D01*
X51468Y21450D01*
X51456Y21545D01*
X51419Y21634D01*
X51360Y21710D01*
X51284Y21769D01*
X51195Y21806D01*
X51100Y21818D01*
D02*
G37*
G36*
X50100D02*
X50005Y21806D01*
X49916Y21769D01*
X49840Y21710D01*
X49781Y21634D01*
X49744Y21545D01*
X49732Y21450D01*
X49744Y21355D01*
X49781Y21266D01*
X49840Y21190D01*
X49916Y21131D01*
X50005Y21094D01*
X50100Y21082D01*
X50195Y21094D01*
X50284Y21131D01*
X50360Y21190D01*
X50419Y21266D01*
X50456Y21355D01*
X50468Y21450D01*
X50456Y21545D01*
X50419Y21634D01*
X50360Y21710D01*
X50284Y21769D01*
X50195Y21806D01*
X50100Y21818D01*
D02*
G37*
G36*
X49100D02*
X49005Y21806D01*
X48916Y21769D01*
X48840Y21710D01*
X48781Y21634D01*
X48744Y21545D01*
X48732Y21450D01*
X48744Y21355D01*
X48781Y21266D01*
X48840Y21190D01*
X48916Y21131D01*
X49005Y21094D01*
X49100Y21082D01*
X49195Y21094D01*
X49284Y21131D01*
X49360Y21190D01*
X49419Y21266D01*
X49456Y21355D01*
X49468Y21450D01*
X49456Y21545D01*
X49419Y21634D01*
X49360Y21710D01*
X49284Y21769D01*
X49195Y21806D01*
X49100Y21818D01*
D02*
G37*
G36*
X48100D02*
X48005Y21806D01*
X47916Y21769D01*
X47840Y21710D01*
X47781Y21634D01*
X47744Y21545D01*
X47732Y21450D01*
X47744Y21355D01*
X47781Y21266D01*
X47840Y21190D01*
X47916Y21131D01*
X48005Y21094D01*
X48100Y21082D01*
X48195Y21094D01*
X48284Y21131D01*
X48360Y21190D01*
X48419Y21266D01*
X48456Y21355D01*
X48468Y21450D01*
X48456Y21545D01*
X48419Y21634D01*
X48360Y21710D01*
X48284Y21769D01*
X48195Y21806D01*
X48100Y21818D01*
D02*
G37*
G36*
X47100D02*
X47005Y21806D01*
X46916Y21769D01*
X46840Y21710D01*
X46781Y21634D01*
X46744Y21545D01*
X46732Y21450D01*
X46744Y21355D01*
X46781Y21266D01*
X46840Y21190D01*
X46916Y21131D01*
X47005Y21094D01*
X47100Y21082D01*
X47195Y21094D01*
X47284Y21131D01*
X47360Y21190D01*
X47419Y21266D01*
X47456Y21355D01*
X47468Y21450D01*
X47456Y21545D01*
X47419Y21634D01*
X47360Y21710D01*
X47284Y21769D01*
X47195Y21806D01*
X47100Y21818D01*
D02*
G37*
G36*
X46100D02*
X46005Y21806D01*
X45916Y21769D01*
X45840Y21710D01*
X45781Y21634D01*
X45744Y21545D01*
X45732Y21450D01*
X45744Y21355D01*
X45781Y21266D01*
X45840Y21190D01*
X45916Y21131D01*
X46005Y21094D01*
X46100Y21082D01*
X46195Y21094D01*
X46284Y21131D01*
X46360Y21190D01*
X46419Y21266D01*
X46456Y21355D01*
X46468Y21450D01*
X46456Y21545D01*
X46419Y21634D01*
X46360Y21710D01*
X46284Y21769D01*
X46195Y21806D01*
X46100Y21818D01*
D02*
G37*
G36*
X30250D02*
X30155Y21806D01*
X30066Y21769D01*
X29990Y21710D01*
X29931Y21634D01*
X29894Y21545D01*
X29882Y21450D01*
X29894Y21355D01*
X29931Y21266D01*
X29990Y21190D01*
X30066Y21131D01*
X30155Y21094D01*
X30250Y21082D01*
X30345Y21094D01*
X30434Y21131D01*
X30510Y21190D01*
X30569Y21266D01*
X30606Y21355D01*
X30618Y21450D01*
X30606Y21545D01*
X30569Y21634D01*
X30510Y21710D01*
X30434Y21769D01*
X30345Y21806D01*
X30250Y21818D01*
D02*
G37*
G36*
X29250D02*
X29155Y21806D01*
X29066Y21769D01*
X28990Y21710D01*
X28931Y21634D01*
X28894Y21545D01*
X28882Y21450D01*
X28894Y21355D01*
X28931Y21266D01*
X28990Y21190D01*
X29066Y21131D01*
X29155Y21094D01*
X29250Y21082D01*
X29345Y21094D01*
X29434Y21131D01*
X29510Y21190D01*
X29569Y21266D01*
X29606Y21355D01*
X29618Y21450D01*
X29606Y21545D01*
X29569Y21634D01*
X29510Y21710D01*
X29434Y21769D01*
X29345Y21806D01*
X29250Y21818D01*
D02*
G37*
G36*
X28250D02*
X28155Y21806D01*
X28066Y21769D01*
X27990Y21710D01*
X27931Y21634D01*
X27894Y21545D01*
X27882Y21450D01*
X27894Y21355D01*
X27931Y21266D01*
X27990Y21190D01*
X28066Y21131D01*
X28155Y21094D01*
X28250Y21082D01*
X28345Y21094D01*
X28434Y21131D01*
X28510Y21190D01*
X28569Y21266D01*
X28606Y21355D01*
X28618Y21450D01*
X28606Y21545D01*
X28569Y21634D01*
X28510Y21710D01*
X28434Y21769D01*
X28345Y21806D01*
X28250Y21818D01*
D02*
G37*
G36*
X27250D02*
X27155Y21806D01*
X27066Y21769D01*
X26990Y21710D01*
X26931Y21634D01*
X26894Y21545D01*
X26882Y21450D01*
X26894Y21355D01*
X26931Y21266D01*
X26990Y21190D01*
X27066Y21131D01*
X27155Y21094D01*
X27250Y21082D01*
X27345Y21094D01*
X27434Y21131D01*
X27510Y21190D01*
X27569Y21266D01*
X27606Y21355D01*
X27618Y21450D01*
X27606Y21545D01*
X27569Y21634D01*
X27510Y21710D01*
X27434Y21769D01*
X27345Y21806D01*
X27250Y21818D01*
D02*
G37*
G36*
X26250D02*
X26155Y21806D01*
X26066Y21769D01*
X25990Y21710D01*
X25931Y21634D01*
X25894Y21545D01*
X25882Y21450D01*
X25894Y21355D01*
X25931Y21266D01*
X25990Y21190D01*
X26066Y21131D01*
X26155Y21094D01*
X26250Y21082D01*
X26345Y21094D01*
X26434Y21131D01*
X26510Y21190D01*
X26569Y21266D01*
X26606Y21355D01*
X26618Y21450D01*
X26606Y21545D01*
X26569Y21634D01*
X26510Y21710D01*
X26434Y21769D01*
X26345Y21806D01*
X26250Y21818D01*
D02*
G37*
G36*
X25250D02*
X25155Y21806D01*
X25066Y21769D01*
X24990Y21710D01*
X24931Y21634D01*
X24894Y21545D01*
X24882Y21450D01*
X24894Y21355D01*
X24931Y21266D01*
X24990Y21190D01*
X25066Y21131D01*
X25155Y21094D01*
X25250Y21082D01*
X25345Y21094D01*
X25434Y21131D01*
X25510Y21190D01*
X25569Y21266D01*
X25606Y21355D01*
X25618Y21450D01*
X25606Y21545D01*
X25569Y21634D01*
X25510Y21710D01*
X25434Y21769D01*
X25345Y21806D01*
X25250Y21818D01*
D02*
G37*
G36*
X24250D02*
X24155Y21806D01*
X24066Y21769D01*
X23990Y21710D01*
X23931Y21634D01*
X23894Y21545D01*
X23882Y21450D01*
X23894Y21355D01*
X23931Y21266D01*
X23990Y21190D01*
X24066Y21131D01*
X24155Y21094D01*
X24250Y21082D01*
X24345Y21094D01*
X24434Y21131D01*
X24510Y21190D01*
X24569Y21266D01*
X24606Y21355D01*
X24618Y21450D01*
X24606Y21545D01*
X24569Y21634D01*
X24510Y21710D01*
X24434Y21769D01*
X24345Y21806D01*
X24250Y21818D01*
D02*
G37*
G36*
X23250D02*
X23155Y21806D01*
X23066Y21769D01*
X22990Y21710D01*
X22931Y21634D01*
X22894Y21545D01*
X22882Y21450D01*
X22894Y21355D01*
X22931Y21266D01*
X22990Y21190D01*
X23066Y21131D01*
X23155Y21094D01*
X23250Y21082D01*
X23345Y21094D01*
X23434Y21131D01*
X23510Y21190D01*
X23569Y21266D01*
X23606Y21355D01*
X23618Y21450D01*
X23606Y21545D01*
X23569Y21634D01*
X23510Y21710D01*
X23434Y21769D01*
X23345Y21806D01*
X23250Y21818D01*
D02*
G37*
G36*
X22250D02*
X22155Y21806D01*
X22066Y21769D01*
X21990Y21710D01*
X21931Y21634D01*
X21894Y21545D01*
X21882Y21450D01*
X21894Y21355D01*
X21931Y21266D01*
X21990Y21190D01*
X22066Y21131D01*
X22155Y21094D01*
X22250Y21082D01*
X22345Y21094D01*
X22434Y21131D01*
X22510Y21190D01*
X22569Y21266D01*
X22606Y21355D01*
X22618Y21450D01*
X22606Y21545D01*
X22569Y21634D01*
X22510Y21710D01*
X22434Y21769D01*
X22345Y21806D01*
X22250Y21818D01*
D02*
G37*
G36*
X34636Y21297D02*
X33536D01*
Y20847D01*
X34636D01*
Y20864D01*
X34677Y20890D01*
X34686Y20889D01*
X34750Y20877D01*
X34816Y20890D01*
X34873Y20927D01*
X34910Y20984D01*
X34923Y21050D01*
X34910Y21116D01*
X34873Y21173D01*
X34816Y21210D01*
X34750Y21223D01*
X34686Y21211D01*
X34683Y21210D01*
X34636Y21238D01*
Y21297D01*
D02*
G37*
G36*
X39505Y21302D02*
X39088D01*
Y20862D01*
X39505D01*
Y20882D01*
X39555Y20909D01*
X39584Y20890D01*
X39650Y20877D01*
X39716Y20890D01*
X39763Y20921D01*
X39797Y20910D01*
X39813Y20899D01*
Y20796D01*
X40913D01*
Y20894D01*
X41038D01*
X41040Y20884D01*
X41077Y20827D01*
X41134Y20790D01*
X41200Y20777D01*
X41266Y20790D01*
X41323Y20827D01*
X41360Y20884D01*
X41373Y20950D01*
X41360Y21016D01*
X41323Y21073D01*
X41266Y21110D01*
X41202Y21123D01*
X41177Y21139D01*
X41129Y21149D01*
X40913D01*
Y21247D01*
X39813D01*
Y21201D01*
X39797Y21190D01*
X39763Y21179D01*
X39716Y21210D01*
X39650Y21223D01*
X39584Y21210D01*
X39559Y21194D01*
X39505D01*
Y21302D01*
D02*
G37*
G36*
X36610Y20510D02*
X35510D01*
Y20059D01*
X36610D01*
Y20100D01*
X36660Y20135D01*
X36700Y20127D01*
X36766Y20140D01*
X36823Y20177D01*
X36860Y20234D01*
X36873Y20300D01*
X36860Y20366D01*
X36823Y20423D01*
X36766Y20460D01*
X36700Y20473D01*
X36660Y20465D01*
X36610Y20500D01*
Y20510D01*
D02*
G37*
G36*
X34636D02*
X33536D01*
Y20059D01*
X34636D01*
Y20112D01*
X34683Y20140D01*
X34686Y20139D01*
X34750Y20127D01*
X34816Y20140D01*
X34873Y20177D01*
X34910Y20234D01*
X34923Y20300D01*
X34910Y20366D01*
X34873Y20423D01*
X34816Y20460D01*
X34750Y20473D01*
X34686Y20461D01*
X34677Y20460D01*
X34636Y20486D01*
Y20510D01*
D02*
G37*
G36*
X39505Y20670D02*
X39088D01*
Y20230D01*
X39208D01*
X39218Y20180D01*
X39199Y20172D01*
X39136Y20124D01*
X39088Y20061D01*
X39058Y19988D01*
X39047Y19910D01*
X39058Y19832D01*
X39088Y19759D01*
X39136Y19696D01*
X39199Y19648D01*
X39272Y19618D01*
X39350Y19607D01*
X39428Y19618D01*
X39501Y19648D01*
X39564Y19696D01*
X39612Y19759D01*
X39642Y19832D01*
X39653Y19910D01*
X39642Y19988D01*
X39612Y20061D01*
X39564Y20124D01*
X39501Y20172D01*
X39482Y20180D01*
X39492Y20230D01*
X39505D01*
Y20283D01*
X39555Y20309D01*
X39584Y20290D01*
X39650Y20277D01*
X39716Y20290D01*
X39763Y20321D01*
X39797Y20310D01*
X39813Y20299D01*
Y20010D01*
X40913D01*
Y20115D01*
X41546D01*
X41584Y20090D01*
X41650Y20077D01*
X41716Y20090D01*
X41773Y20127D01*
X41810Y20184D01*
X41823Y20250D01*
X41810Y20316D01*
X41773Y20373D01*
X41716Y20410D01*
X41650Y20423D01*
X41584Y20410D01*
X41527Y20373D01*
X41526Y20370D01*
X40913D01*
Y20459D01*
X39821D01*
X39810Y20516D01*
X39773Y20573D01*
X39716Y20610D01*
X39650Y20623D01*
X39584Y20610D01*
X39555Y20591D01*
X39505Y20617D01*
Y20670D01*
D02*
G37*
G36*
X46845Y20687D02*
X46145D01*
Y19987D01*
X46845D01*
Y20687D01*
D02*
G37*
G36*
X23189D02*
X22489D01*
Y19987D01*
X23189D01*
Y20687D01*
D02*
G37*
G36*
X53578Y20690D02*
X53487Y20678D01*
X53402Y20643D01*
X53329Y20587D01*
X53273Y20514D01*
X53237Y20428D01*
X53225Y20337D01*
X53237Y20246D01*
X53273Y20160D01*
X53329Y20087D01*
X53402Y20031D01*
X53487Y19996D01*
X53578Y19984D01*
X53670Y19996D01*
X53755Y20031D01*
X53828Y20087D01*
X53884Y20160D01*
X53919Y20246D01*
X53931Y20337D01*
X53919Y20428D01*
X53884Y20514D01*
X53828Y20587D01*
X53755Y20643D01*
X53670Y20678D01*
X53578Y20690D01*
D02*
G37*
G36*
X52791D02*
X52700Y20678D01*
X52615Y20643D01*
X52542Y20587D01*
X52486Y20514D01*
X52450Y20428D01*
X52438Y20337D01*
X52450Y20246D01*
X52486Y20160D01*
X52542Y20087D01*
X52615Y20031D01*
X52700Y19996D01*
X52791Y19984D01*
X52883Y19996D01*
X52968Y20031D01*
X53041Y20087D01*
X53097Y20160D01*
X53132Y20246D01*
X53144Y20337D01*
X53132Y20428D01*
X53097Y20514D01*
X53041Y20587D01*
X52968Y20643D01*
X52883Y20678D01*
X52791Y20690D01*
D02*
G37*
G36*
X52004D02*
X51913Y20678D01*
X51828Y20643D01*
X51755Y20587D01*
X51699Y20514D01*
X51663Y20428D01*
X51651Y20337D01*
X51663Y20246D01*
X51699Y20160D01*
X51755Y20087D01*
X51828Y20031D01*
X51913Y19996D01*
X52004Y19984D01*
X52096Y19996D01*
X52181Y20031D01*
X52254Y20087D01*
X52310Y20160D01*
X52345Y20246D01*
X52357Y20337D01*
X52345Y20428D01*
X52310Y20514D01*
X52254Y20587D01*
X52181Y20643D01*
X52096Y20678D01*
X52004Y20690D01*
D02*
G37*
G36*
X51217D02*
X51126Y20678D01*
X51041Y20643D01*
X50968Y20587D01*
X50912Y20514D01*
X50876Y20428D01*
X50864Y20337D01*
X50876Y20246D01*
X50912Y20160D01*
X50968Y20087D01*
X51041Y20031D01*
X51126Y19996D01*
X51217Y19984D01*
X51309Y19996D01*
X51394Y20031D01*
X51467Y20087D01*
X51523Y20160D01*
X51558Y20246D01*
X51570Y20337D01*
X51558Y20428D01*
X51523Y20514D01*
X51467Y20587D01*
X51394Y20643D01*
X51309Y20678D01*
X51217Y20690D01*
D02*
G37*
G36*
X50430D02*
X50339Y20678D01*
X50254Y20643D01*
X50181Y20587D01*
X50125Y20514D01*
X50089Y20428D01*
X50077Y20337D01*
X50089Y20246D01*
X50125Y20160D01*
X50181Y20087D01*
X50254Y20031D01*
X50339Y19996D01*
X50430Y19984D01*
X50522Y19996D01*
X50607Y20031D01*
X50680Y20087D01*
X50736Y20160D01*
X50771Y20246D01*
X50783Y20337D01*
X50771Y20428D01*
X50736Y20514D01*
X50680Y20587D01*
X50607Y20643D01*
X50522Y20678D01*
X50430Y20690D01*
D02*
G37*
G36*
X49643D02*
X49552Y20678D01*
X49467Y20643D01*
X49394Y20587D01*
X49338Y20514D01*
X49302Y20428D01*
X49290Y20337D01*
X49302Y20246D01*
X49338Y20160D01*
X49394Y20087D01*
X49467Y20031D01*
X49552Y19996D01*
X49643Y19984D01*
X49735Y19996D01*
X49820Y20031D01*
X49893Y20087D01*
X49949Y20160D01*
X49984Y20246D01*
X49996Y20337D01*
X49984Y20428D01*
X49949Y20514D01*
X49893Y20587D01*
X49820Y20643D01*
X49735Y20678D01*
X49643Y20690D01*
D02*
G37*
G36*
X48856D02*
X48765Y20678D01*
X48680Y20643D01*
X48607Y20587D01*
X48551Y20514D01*
X48515Y20428D01*
X48503Y20337D01*
X48515Y20246D01*
X48551Y20160D01*
X48607Y20087D01*
X48680Y20031D01*
X48765Y19996D01*
X48856Y19984D01*
X48948Y19996D01*
X49033Y20031D01*
X49106Y20087D01*
X49162Y20160D01*
X49197Y20246D01*
X49209Y20337D01*
X49197Y20428D01*
X49162Y20514D01*
X49106Y20587D01*
X49033Y20643D01*
X48948Y20678D01*
X48856Y20690D01*
D02*
G37*
G36*
X48069D02*
X47978Y20678D01*
X47893Y20643D01*
X47820Y20587D01*
X47764Y20514D01*
X47728Y20428D01*
X47716Y20337D01*
X47728Y20246D01*
X47764Y20160D01*
X47820Y20087D01*
X47893Y20031D01*
X47978Y19996D01*
X48069Y19984D01*
X48161Y19996D01*
X48246Y20031D01*
X48319Y20087D01*
X48375Y20160D01*
X48410Y20246D01*
X48422Y20337D01*
X48410Y20428D01*
X48375Y20514D01*
X48319Y20587D01*
X48246Y20643D01*
X48161Y20678D01*
X48069Y20690D01*
D02*
G37*
G36*
X47282D02*
X47191Y20678D01*
X47106Y20643D01*
X47033Y20587D01*
X46977Y20514D01*
X46941Y20428D01*
X46929Y20337D01*
X46941Y20246D01*
X46977Y20160D01*
X47033Y20087D01*
X47106Y20031D01*
X47191Y19996D01*
X47282Y19984D01*
X47374Y19996D01*
X47459Y20031D01*
X47532Y20087D01*
X47588Y20160D01*
X47623Y20246D01*
X47635Y20337D01*
X47623Y20428D01*
X47588Y20514D01*
X47532Y20587D01*
X47459Y20643D01*
X47374Y20678D01*
X47282Y20690D01*
D02*
G37*
G36*
X29922D02*
X29830Y20678D01*
X29745Y20643D01*
X29672Y20587D01*
X29616Y20514D01*
X29581Y20428D01*
X29568Y20337D01*
X29581Y20246D01*
X29616Y20160D01*
X29672Y20087D01*
X29745Y20031D01*
X29830Y19996D01*
X29922Y19984D01*
X30013Y19996D01*
X30098Y20031D01*
X30171Y20087D01*
X30227Y20160D01*
X30262Y20246D01*
X30275Y20337D01*
X30262Y20428D01*
X30227Y20514D01*
X30171Y20587D01*
X30098Y20643D01*
X30013Y20678D01*
X29922Y20690D01*
D02*
G37*
G36*
X29135D02*
X29043Y20678D01*
X28958Y20643D01*
X28885Y20587D01*
X28829Y20514D01*
X28794Y20428D01*
X28781Y20337D01*
X28794Y20246D01*
X28829Y20160D01*
X28885Y20087D01*
X28958Y20031D01*
X29043Y19996D01*
X29135Y19984D01*
X29226Y19996D01*
X29311Y20031D01*
X29384Y20087D01*
X29440Y20160D01*
X29475Y20246D01*
X29488Y20337D01*
X29475Y20428D01*
X29440Y20514D01*
X29384Y20587D01*
X29311Y20643D01*
X29226Y20678D01*
X29135Y20690D01*
D02*
G37*
G36*
X28347D02*
X28256Y20678D01*
X28171Y20643D01*
X28098Y20587D01*
X28042Y20514D01*
X28007Y20428D01*
X27994Y20337D01*
X28007Y20246D01*
X28042Y20160D01*
X28098Y20087D01*
X28171Y20031D01*
X28256Y19996D01*
X28347Y19984D01*
X28439Y19996D01*
X28524Y20031D01*
X28597Y20087D01*
X28653Y20160D01*
X28688Y20246D01*
X28701Y20337D01*
X28688Y20428D01*
X28653Y20514D01*
X28597Y20587D01*
X28524Y20643D01*
X28439Y20678D01*
X28347Y20690D01*
D02*
G37*
G36*
X27561D02*
X27469Y20678D01*
X27384Y20643D01*
X27311Y20587D01*
X27255Y20514D01*
X27220Y20428D01*
X27207Y20337D01*
X27220Y20246D01*
X27255Y20160D01*
X27311Y20087D01*
X27384Y20031D01*
X27469Y19996D01*
X27561Y19984D01*
X27652Y19996D01*
X27737Y20031D01*
X27810Y20087D01*
X27866Y20160D01*
X27901Y20246D01*
X27914Y20337D01*
X27901Y20428D01*
X27866Y20514D01*
X27810Y20587D01*
X27737Y20643D01*
X27652Y20678D01*
X27561Y20690D01*
D02*
G37*
G36*
X26774D02*
X26682Y20678D01*
X26597Y20643D01*
X26524Y20587D01*
X26468Y20514D01*
X26433Y20428D01*
X26420Y20337D01*
X26433Y20246D01*
X26468Y20160D01*
X26524Y20087D01*
X26597Y20031D01*
X26682Y19996D01*
X26774Y19984D01*
X26865Y19996D01*
X26950Y20031D01*
X27023Y20087D01*
X27079Y20160D01*
X27114Y20246D01*
X27127Y20337D01*
X27114Y20428D01*
X27079Y20514D01*
X27023Y20587D01*
X26950Y20643D01*
X26865Y20678D01*
X26774Y20690D01*
D02*
G37*
G36*
X25986D02*
X25895Y20678D01*
X25810Y20643D01*
X25737Y20587D01*
X25681Y20514D01*
X25646Y20428D01*
X25633Y20337D01*
X25646Y20246D01*
X25681Y20160D01*
X25737Y20087D01*
X25810Y20031D01*
X25895Y19996D01*
X25986Y19984D01*
X26078Y19996D01*
X26163Y20031D01*
X26236Y20087D01*
X26292Y20160D01*
X26327Y20246D01*
X26340Y20337D01*
X26327Y20428D01*
X26292Y20514D01*
X26236Y20587D01*
X26163Y20643D01*
X26078Y20678D01*
X25986Y20690D01*
D02*
G37*
G36*
X25199D02*
X25108Y20678D01*
X25023Y20643D01*
X24950Y20587D01*
X24894Y20514D01*
X24859Y20428D01*
X24846Y20337D01*
X24859Y20246D01*
X24894Y20160D01*
X24950Y20087D01*
X25023Y20031D01*
X25108Y19996D01*
X25199Y19984D01*
X25291Y19996D01*
X25376Y20031D01*
X25449Y20087D01*
X25505Y20160D01*
X25540Y20246D01*
X25553Y20337D01*
X25540Y20428D01*
X25505Y20514D01*
X25449Y20587D01*
X25376Y20643D01*
X25291Y20678D01*
X25199Y20690D01*
D02*
G37*
G36*
X24413D02*
X24321Y20678D01*
X24236Y20643D01*
X24163Y20587D01*
X24107Y20514D01*
X24072Y20428D01*
X24059Y20337D01*
X24072Y20246D01*
X24107Y20160D01*
X24163Y20087D01*
X24236Y20031D01*
X24321Y19996D01*
X24413Y19984D01*
X24504Y19996D01*
X24589Y20031D01*
X24662Y20087D01*
X24718Y20160D01*
X24753Y20246D01*
X24766Y20337D01*
X24753Y20428D01*
X24718Y20514D01*
X24662Y20587D01*
X24589Y20643D01*
X24504Y20678D01*
X24413Y20690D01*
D02*
G37*
G36*
X23626D02*
X23534Y20678D01*
X23449Y20643D01*
X23376Y20587D01*
X23320Y20514D01*
X23285Y20428D01*
X23272Y20337D01*
X23285Y20246D01*
X23320Y20160D01*
X23376Y20087D01*
X23449Y20031D01*
X23534Y19996D01*
X23626Y19984D01*
X23717Y19996D01*
X23802Y20031D01*
X23875Y20087D01*
X23931Y20160D01*
X23966Y20246D01*
X23979Y20337D01*
X23966Y20428D01*
X23931Y20514D01*
X23875Y20587D01*
X23802Y20643D01*
X23717Y20678D01*
X23626Y20690D01*
D02*
G37*
G36*
X37660Y20213D02*
X37582Y20202D01*
X37509Y20172D01*
X37446Y20124D01*
X37398Y20061D01*
X37368Y19988D01*
X37357Y19910D01*
X37368Y19832D01*
X37398Y19759D01*
X37446Y19696D01*
X37509Y19648D01*
X37582Y19618D01*
X37660Y19607D01*
X37738Y19618D01*
X37811Y19648D01*
X37874Y19696D01*
X37922Y19759D01*
X37952Y19832D01*
X37963Y19910D01*
X37952Y19988D01*
X37922Y20061D01*
X37874Y20124D01*
X37811Y20172D01*
X37738Y20202D01*
X37660Y20213D01*
D02*
G37*
G36*
X36610Y19722D02*
X35510D01*
Y19273D01*
X36610D01*
Y19329D01*
X36660Y19356D01*
X36684Y19340D01*
X36750Y19327D01*
X36816Y19340D01*
X36873Y19377D01*
X36910Y19434D01*
X36923Y19500D01*
X36910Y19566D01*
X36873Y19623D01*
X36816Y19660D01*
X36750Y19673D01*
X36684Y19660D01*
X36660Y19644D01*
X36610Y19671D01*
Y19722D01*
D02*
G37*
G36*
X52791Y19903D02*
X52700Y19891D01*
X52615Y19856D01*
X52542Y19800D01*
X52486Y19727D01*
X52450Y19641D01*
X52438Y19550D01*
X52450Y19459D01*
X52486Y19373D01*
X52542Y19300D01*
X52615Y19244D01*
X52700Y19209D01*
X52791Y19197D01*
X52883Y19209D01*
X52968Y19244D01*
X53041Y19300D01*
X53097Y19373D01*
X53132Y19459D01*
X53144Y19550D01*
X53132Y19641D01*
X53097Y19727D01*
X53041Y19800D01*
X52968Y19856D01*
X52883Y19891D01*
X52791Y19903D01*
D02*
G37*
G36*
X52004D02*
X51913Y19891D01*
X51828Y19856D01*
X51755Y19800D01*
X51699Y19727D01*
X51663Y19641D01*
X51651Y19550D01*
X51663Y19459D01*
X51699Y19373D01*
X51755Y19300D01*
X51828Y19244D01*
X51913Y19209D01*
X52004Y19197D01*
X52096Y19209D01*
X52181Y19244D01*
X52254Y19300D01*
X52310Y19373D01*
X52345Y19459D01*
X52357Y19550D01*
X52345Y19641D01*
X52310Y19727D01*
X52254Y19800D01*
X52181Y19856D01*
X52096Y19891D01*
X52004Y19903D01*
D02*
G37*
G36*
X29922D02*
X29830Y19891D01*
X29745Y19856D01*
X29672Y19800D01*
X29616Y19727D01*
X29581Y19641D01*
X29568Y19550D01*
X29581Y19459D01*
X29616Y19373D01*
X29672Y19300D01*
X29745Y19244D01*
X29830Y19209D01*
X29922Y19197D01*
X30013Y19209D01*
X30098Y19244D01*
X30171Y19300D01*
X30227Y19373D01*
X30262Y19459D01*
X30275Y19550D01*
X30262Y19641D01*
X30227Y19727D01*
X30171Y19800D01*
X30098Y19856D01*
X30013Y19891D01*
X29922Y19903D01*
D02*
G37*
G36*
X29135D02*
X29043Y19891D01*
X28958Y19856D01*
X28885Y19800D01*
X28829Y19727D01*
X28794Y19641D01*
X28781Y19550D01*
X28794Y19459D01*
X28829Y19373D01*
X28885Y19300D01*
X28958Y19244D01*
X29043Y19209D01*
X29135Y19197D01*
X29226Y19209D01*
X29311Y19244D01*
X29384Y19300D01*
X29440Y19373D01*
X29475Y19459D01*
X29488Y19550D01*
X29475Y19641D01*
X29440Y19727D01*
X29384Y19800D01*
X29311Y19856D01*
X29226Y19891D01*
X29135Y19903D01*
D02*
G37*
G36*
X28347D02*
X28256Y19891D01*
X28171Y19856D01*
X28098Y19800D01*
X28042Y19727D01*
X28007Y19641D01*
X27994Y19550D01*
X28007Y19459D01*
X28042Y19373D01*
X28098Y19300D01*
X28171Y19244D01*
X28256Y19209D01*
X28347Y19197D01*
X28439Y19209D01*
X28524Y19244D01*
X28597Y19300D01*
X28653Y19373D01*
X28688Y19459D01*
X28701Y19550D01*
X28688Y19641D01*
X28653Y19727D01*
X28597Y19800D01*
X28524Y19856D01*
X28439Y19891D01*
X28347Y19903D01*
D02*
G37*
G36*
X40913Y19672D02*
X39813D01*
Y19223D01*
X40913D01*
Y19320D01*
X41425D01*
X41484Y19261D01*
X41490Y19234D01*
X41527Y19177D01*
X41584Y19140D01*
X41650Y19127D01*
X41716Y19140D01*
X41773Y19177D01*
X41810Y19234D01*
X41823Y19300D01*
X41810Y19366D01*
X41773Y19423D01*
X41716Y19460D01*
X41650Y19473D01*
X41635Y19470D01*
X41568Y19538D01*
X41527Y19565D01*
X41478Y19575D01*
X40913D01*
Y19672D01*
D02*
G37*
G36*
X36610Y18936D02*
X35510D01*
Y18485D01*
X36610D01*
Y18529D01*
X36660Y18556D01*
X36684Y18540D01*
X36750Y18527D01*
X36816Y18540D01*
X36873Y18577D01*
X36910Y18634D01*
X36923Y18700D01*
X36910Y18766D01*
X36873Y18823D01*
X36816Y18860D01*
X36750Y18873D01*
X36684Y18860D01*
X36660Y18844D01*
X36610Y18867D01*
Y18936D01*
D02*
G37*
G36*
X34636D02*
X33536D01*
Y18485D01*
X34636D01*
Y18550D01*
X34654Y18562D01*
X34686Y18572D01*
X34734Y18540D01*
X34800Y18527D01*
X34866Y18540D01*
X34923Y18577D01*
X34960Y18634D01*
X34973Y18700D01*
X34960Y18766D01*
X34923Y18823D01*
X34866Y18860D01*
X34800Y18873D01*
X34734Y18860D01*
X34693Y18833D01*
X34636D01*
Y18936D01*
D02*
G37*
G36*
X49510Y18785D02*
X49310D01*
X49212Y18765D01*
X49130Y18710D01*
X49075Y18628D01*
X49055Y18530D01*
X49075Y18432D01*
X49130Y18350D01*
X49212Y18295D01*
X49310Y18275D01*
X49510D01*
X49608Y18295D01*
X49690Y18350D01*
X49745Y18432D01*
X49765Y18530D01*
X49745Y18628D01*
X49690Y18710D01*
X49608Y18765D01*
X49510Y18785D01*
D02*
G37*
G36*
X48720D02*
X48520D01*
X48422Y18765D01*
X48340Y18710D01*
X48285Y18628D01*
X48265Y18530D01*
X48285Y18432D01*
X48340Y18350D01*
X48422Y18295D01*
X48520Y18275D01*
X48720D01*
X48818Y18295D01*
X48900Y18350D01*
X48955Y18432D01*
X48975Y18530D01*
X48955Y18628D01*
X48900Y18710D01*
X48818Y18765D01*
X48720Y18785D01*
D02*
G37*
G36*
X39505Y19120D02*
X39088D01*
Y18680D01*
X39505D01*
Y18800D01*
X39561D01*
X39584Y18785D01*
X39650Y18772D01*
X39716Y18785D01*
X39763Y18816D01*
X39797Y18805D01*
X39813Y18794D01*
Y18435D01*
X40913D01*
Y18533D01*
X41028D01*
X41073Y18488D01*
Y18265D01*
X41040Y18216D01*
X41027Y18150D01*
X41040Y18084D01*
X41077Y18027D01*
X41134Y17990D01*
X41200Y17977D01*
X41266Y17990D01*
X41323Y18027D01*
X41360Y18084D01*
X41373Y18150D01*
X41360Y18216D01*
X41327Y18265D01*
Y18541D01*
X41318Y18590D01*
X41290Y18631D01*
X41171Y18751D01*
X41129Y18778D01*
X41081Y18788D01*
X40913D01*
Y18886D01*
X39862D01*
X39821Y18936D01*
X39823Y18945D01*
X39810Y19011D01*
X39773Y19068D01*
X39716Y19105D01*
X39650Y19118D01*
X39584Y19105D01*
X39555Y19086D01*
X39505Y19113D01*
Y19120D01*
D02*
G37*
G36*
X39340Y18393D02*
X39262Y18382D01*
X39189Y18352D01*
X39126Y18304D01*
X39078Y18241D01*
X39048Y18168D01*
X39037Y18090D01*
X39048Y18012D01*
X39078Y17939D01*
X39126Y17876D01*
X39189Y17828D01*
X39262Y17798D01*
X39340Y17787D01*
X39418Y17798D01*
X39491Y17828D01*
X39554Y17876D01*
X39602Y17939D01*
X39632Y18012D01*
X39643Y18090D01*
X39632Y18168D01*
X39602Y18241D01*
X39554Y18304D01*
X39491Y18352D01*
X39418Y18382D01*
X39340Y18393D01*
D02*
G37*
G36*
X37650D02*
X37572Y18382D01*
X37499Y18352D01*
X37436Y18304D01*
X37388Y18241D01*
X37358Y18168D01*
X37347Y18090D01*
X37358Y18012D01*
X37388Y17939D01*
X37436Y17876D01*
X37499Y17828D01*
X37572Y17798D01*
X37650Y17787D01*
X37728Y17798D01*
X37801Y17828D01*
X37864Y17876D01*
X37912Y17939D01*
X37942Y18012D01*
X37953Y18090D01*
X37942Y18168D01*
X37912Y18241D01*
X37864Y18304D01*
X37801Y18352D01*
X37728Y18382D01*
X37650Y18393D01*
D02*
G37*
G36*
X34636Y18148D02*
X33536D01*
Y17699D01*
X34636D01*
Y17809D01*
X34705D01*
X34734Y17790D01*
X34800Y17777D01*
X34866Y17790D01*
X34923Y17827D01*
X34960Y17884D01*
X34973Y17950D01*
X34960Y18016D01*
X34923Y18073D01*
X34866Y18110D01*
X34800Y18123D01*
X34734Y18110D01*
X34686Y18078D01*
X34654Y18088D01*
X34636Y18100D01*
Y18148D01*
D02*
G37*
G36*
X36610D02*
X35510D01*
Y17699D01*
X36610D01*
Y17729D01*
X36660Y17756D01*
X36684Y17740D01*
X36750Y17727D01*
X36816Y17740D01*
X36873Y17777D01*
X36910Y17834D01*
X36923Y17900D01*
X36910Y17966D01*
X36873Y18023D01*
X36816Y18060D01*
X36750Y18073D01*
X36684Y18060D01*
X36660Y18044D01*
X36610Y18059D01*
Y18148D01*
D02*
G37*
G36*
X39505Y17720D02*
X39088D01*
Y17280D01*
X39505D01*
Y17327D01*
X39555Y17354D01*
X39584Y17335D01*
X39650Y17322D01*
X39716Y17335D01*
X39773Y17372D01*
X39810Y17429D01*
X39823Y17495D01*
X39810Y17561D01*
X39773Y17618D01*
X39716Y17655D01*
X39650Y17668D01*
X39584Y17655D01*
X39555Y17636D01*
X39505Y17658D01*
Y17720D01*
D02*
G37*
G36*
X40913Y18098D02*
X39813D01*
Y17649D01*
X40661D01*
Y17262D01*
X40670Y17213D01*
X40698Y17172D01*
X40943Y16927D01*
X40984Y16899D01*
X41033Y16890D01*
X41069D01*
X41077Y16877D01*
X41134Y16840D01*
X41200Y16827D01*
X41266Y16840D01*
X41323Y16877D01*
X41360Y16934D01*
X41373Y17000D01*
X41360Y17066D01*
X41323Y17123D01*
X41266Y17160D01*
X41200Y17173D01*
X41134Y17160D01*
X41111Y17145D01*
X41086D01*
X40915Y17315D01*
Y17773D01*
X40913Y17786D01*
Y18098D01*
D02*
G37*
G36*
X39505Y17170D02*
X39088D01*
Y16730D01*
X39505D01*
Y16783D01*
X39555Y16809D01*
X39584Y16790D01*
X39650Y16777D01*
X39716Y16790D01*
X39773Y16827D01*
X39810Y16884D01*
X39823Y16950D01*
X39810Y17016D01*
X39773Y17073D01*
X39716Y17110D01*
X39650Y17123D01*
X39584Y17110D01*
X39555Y17091D01*
X39505Y17117D01*
Y17170D01*
D02*
G37*
G36*
X42700Y14173D02*
X42634Y14160D01*
X42577Y14123D01*
X42540Y14066D01*
X42527Y14000D01*
X42531Y13976D01*
X42241Y13685D01*
X41901D01*
X41892Y13683D01*
X41551D01*
Y12583D01*
X42002D01*
Y13481D01*
X42283D01*
X42322Y13489D01*
X42355Y13511D01*
X42676Y13831D01*
X42700Y13827D01*
X42766Y13840D01*
X42823Y13877D01*
X42860Y13934D01*
X42873Y14000D01*
X42860Y14066D01*
X42823Y14123D01*
X42766Y14160D01*
X42700Y14173D01*
D02*
G37*
G36*
X41650Y14123D02*
X41584Y14110D01*
X41527Y14073D01*
X41496Y14025D01*
X41455D01*
X41416Y14017D01*
X41383Y13995D01*
X41070Y13683D01*
X40764D01*
Y12583D01*
X41214D01*
Y13539D01*
X41497Y13821D01*
X41537D01*
X41584Y13790D01*
X41650Y13777D01*
X41716Y13790D01*
X41773Y13827D01*
X41810Y13884D01*
X41823Y13950D01*
X41810Y14016D01*
X41773Y14073D01*
X41716Y14110D01*
X41650Y14123D01*
D02*
G37*
G36*
X40700Y14173D02*
X40634Y14160D01*
X40577Y14123D01*
X40540Y14066D01*
X40527Y14000D01*
X40539Y13939D01*
X40283Y13683D01*
X39978D01*
Y12583D01*
X40427D01*
Y13539D01*
X40719Y13830D01*
X40766Y13840D01*
X40823Y13877D01*
X40860Y13934D01*
X40873Y14000D01*
X40860Y14066D01*
X40823Y14123D01*
X40766Y14160D01*
X40700Y14173D01*
D02*
G37*
G36*
X39700D02*
X39634Y14160D01*
X39577Y14123D01*
X39540Y14066D01*
X39527Y14000D01*
X39538Y13944D01*
X39468Y13875D01*
X39446Y13842D01*
X39439Y13803D01*
Y13683D01*
X39190D01*
Y12583D01*
X39641D01*
Y13248D01*
X39642Y13258D01*
Y13760D01*
X39711Y13829D01*
X39766Y13840D01*
X39823Y13877D01*
X39860Y13934D01*
X39873Y14000D01*
X39860Y14066D01*
X39823Y14123D01*
X39766Y14160D01*
X39700Y14173D01*
D02*
G37*
G36*
X38700D02*
X38634Y14160D01*
X38577Y14123D01*
X38540Y14066D01*
X38527Y14000D01*
X38539Y13937D01*
X38534Y13930D01*
X38527Y13891D01*
Y13683D01*
X38403D01*
Y12583D01*
X38853D01*
Y13683D01*
X38730D01*
Y13833D01*
X38766Y13840D01*
X38823Y13877D01*
X38860Y13934D01*
X38873Y14000D01*
X38860Y14066D01*
X38823Y14123D01*
X38766Y14160D01*
X38700Y14173D01*
D02*
G37*
G36*
X37750D02*
X37684Y14160D01*
X37627Y14123D01*
X37590Y14066D01*
X37577Y14000D01*
X37590Y13934D01*
X37627Y13877D01*
X37684Y13840D01*
X37739Y13829D01*
X37740Y13828D01*
Y13683D01*
X37617D01*
Y12583D01*
X38066D01*
Y13683D01*
X37943D01*
Y13871D01*
X37936Y13910D01*
X37914Y13943D01*
X37912Y13944D01*
X37923Y14000D01*
X37910Y14066D01*
X37873Y14123D01*
X37816Y14160D01*
X37750Y14173D01*
D02*
G37*
G36*
X36750D02*
X36684Y14160D01*
X36627Y14123D01*
X36590Y14066D01*
X36577Y14000D01*
X36590Y13934D01*
X36627Y13877D01*
X36675Y13846D01*
Y13736D01*
X36683Y13697D01*
X36705Y13664D01*
X36830Y13539D01*
Y12583D01*
X37280D01*
Y13683D01*
X36974D01*
X36879Y13778D01*
Y13887D01*
X36910Y13934D01*
X36923Y14000D01*
X36910Y14066D01*
X36873Y14123D01*
X36816Y14160D01*
X36750Y14173D01*
D02*
G37*
G36*
X35750D02*
X35684Y14160D01*
X35627Y14123D01*
X35590Y14066D01*
X35577Y14000D01*
X35590Y13934D01*
X35627Y13877D01*
X35684Y13840D01*
X35750Y13827D01*
X35754Y13827D01*
X36042Y13539D01*
Y12583D01*
X36493D01*
Y13683D01*
X36187D01*
X35914Y13955D01*
X35923Y14000D01*
X35910Y14066D01*
X35873Y14123D01*
X35816Y14160D01*
X35750Y14173D01*
D02*
G37*
G36*
X34750D02*
X34684Y14160D01*
X34627Y14123D01*
X34590Y14066D01*
X34577Y14000D01*
X34590Y13934D01*
X34627Y13877D01*
X34684Y13840D01*
X34750Y13827D01*
X34816Y13840D01*
X34863Y13871D01*
X34923D01*
X35255Y13539D01*
Y12583D01*
X35705D01*
Y13683D01*
X35400D01*
X35037Y14045D01*
X35004Y14067D01*
X34965Y14075D01*
X34904D01*
X34873Y14123D01*
X34816Y14160D01*
X34750Y14173D01*
D02*
G37*
G36*
X33750D02*
X33684Y14160D01*
X33627Y14123D01*
X33590Y14066D01*
X33577Y14000D01*
X33590Y13934D01*
X33627Y13877D01*
X33684Y13840D01*
X33750Y13827D01*
X33774Y13831D01*
X34095Y13511D01*
X34128Y13489D01*
X34167Y13481D01*
X34469D01*
Y12583D01*
X34918D01*
Y13683D01*
X34578D01*
X34569Y13685D01*
X34209D01*
X33918Y13976D01*
X33923Y14000D01*
X33910Y14066D01*
X33873Y14123D01*
X33816Y14160D01*
X33750Y14173D01*
D02*
G37*
%LPD*%
G36*
X25945Y23702D02*
X25926Y23655D01*
X25655D01*
Y23553D01*
X24950D01*
Y23611D01*
X24657D01*
X24638Y23657D01*
X25098Y24118D01*
X25155Y24094D01*
X25250Y24082D01*
X25345Y24094D01*
X25434Y24131D01*
X25480Y24167D01*
X25945Y23702D01*
D02*
G37*
%LPC*%
G36*
X27350Y45058D02*
X27244Y45044D01*
X27146Y45003D01*
X27062Y44938D01*
X26997Y44854D01*
X26956Y44756D01*
X26942Y44650D01*
X26956Y44544D01*
X26997Y44446D01*
X27062Y44362D01*
X27146Y44297D01*
X27244Y44256D01*
X27350Y44242D01*
X27456Y44256D01*
X27554Y44297D01*
X27638Y44362D01*
X27703Y44446D01*
X27744Y44544D01*
X27758Y44650D01*
X27744Y44756D01*
X27703Y44854D01*
X27638Y44938D01*
X27554Y45003D01*
X27456Y45044D01*
X27350Y45058D01*
D02*
G37*
G36*
X29950Y39823D02*
X29884Y39810D01*
X29827Y39773D01*
X29790Y39716D01*
X29777Y39650D01*
X29790Y39584D01*
X29827Y39527D01*
X29884Y39490D01*
X29950Y39477D01*
X30016Y39490D01*
X30073Y39527D01*
X30110Y39584D01*
X30123Y39650D01*
X30110Y39716D01*
X30073Y39773D01*
X30016Y39810D01*
X29950Y39823D01*
D02*
G37*
G36*
X29200D02*
X29134Y39810D01*
X29077Y39773D01*
X29040Y39716D01*
X29027Y39650D01*
X29040Y39584D01*
X29077Y39527D01*
X29134Y39490D01*
X29200Y39477D01*
X29266Y39490D01*
X29323Y39527D01*
X29360Y39584D01*
X29373Y39650D01*
X29360Y39716D01*
X29323Y39773D01*
X29266Y39810D01*
X29200Y39823D01*
D02*
G37*
G36*
X29500Y39367D02*
X29394Y39353D01*
X29296Y39313D01*
X29212Y39248D01*
X29147Y39163D01*
X29106Y39065D01*
X29092Y38959D01*
Y38644D01*
X29106Y38539D01*
X29147Y38441D01*
X29212Y38356D01*
X29296Y38291D01*
X29394Y38251D01*
X29500Y38237D01*
X29606Y38251D01*
X29704Y38291D01*
X29788Y38356D01*
X29853Y38441D01*
X29894Y38539D01*
X29908Y38644D01*
Y38959D01*
X29894Y39065D01*
X29853Y39163D01*
X29788Y39248D01*
X29704Y39313D01*
X29606Y39353D01*
X29500Y39367D01*
D02*
G37*
G36*
X27904Y39360D02*
X27096D01*
Y38236D01*
X27904D01*
Y39360D01*
D02*
G37*
G36*
X35500Y33708D02*
X35394Y33694D01*
X35296Y33653D01*
X35212Y33588D01*
X35147Y33504D01*
X35106Y33406D01*
X35092Y33300D01*
X35106Y33194D01*
X35147Y33096D01*
X35212Y33012D01*
X35296Y32947D01*
X35394Y32906D01*
X35500Y32892D01*
X35606Y32906D01*
X35704Y32947D01*
X35788Y33012D01*
X35853Y33096D01*
X35894Y33194D01*
X35908Y33300D01*
X35894Y33406D01*
X35853Y33504D01*
X35788Y33588D01*
X35704Y33653D01*
X35606Y33694D01*
X35500Y33708D01*
D02*
G37*
G36*
X34500D02*
X34394Y33694D01*
X34296Y33653D01*
X34212Y33588D01*
X34147Y33504D01*
X34106Y33406D01*
X34092Y33300D01*
X34106Y33194D01*
X34147Y33096D01*
X34212Y33012D01*
X34296Y32947D01*
X34394Y32906D01*
X34500Y32892D01*
X34606Y32906D01*
X34704Y32947D01*
X34788Y33012D01*
X34853Y33096D01*
X34894Y33194D01*
X34908Y33300D01*
X34894Y33406D01*
X34853Y33504D01*
X34788Y33588D01*
X34704Y33653D01*
X34606Y33694D01*
X34500Y33708D01*
D02*
G37*
G36*
X39500Y32708D02*
X39394Y32694D01*
X39296Y32653D01*
X39212Y32588D01*
X39147Y32504D01*
X39106Y32406D01*
X39092Y32300D01*
X39106Y32194D01*
X39147Y32096D01*
X39212Y32012D01*
X39296Y31947D01*
X39394Y31906D01*
X39500Y31892D01*
X39606Y31906D01*
X39704Y31947D01*
X39788Y32012D01*
X39853Y32096D01*
X39894Y32194D01*
X39908Y32300D01*
X39894Y32406D01*
X39853Y32504D01*
X39788Y32588D01*
X39704Y32653D01*
X39606Y32694D01*
X39500Y32708D01*
D02*
G37*
G36*
X32306Y48189D02*
X32211Y48176D01*
X32122Y48140D01*
X32046Y48081D01*
X31988Y48005D01*
X31951Y47916D01*
X31938Y47821D01*
X31951Y47726D01*
X31988Y47637D01*
X32046Y47561D01*
X32122Y47502D01*
X32204Y47468D01*
Y47370D01*
X32033D01*
Y46930D01*
X32450D01*
Y47370D01*
X32408D01*
Y47468D01*
X32490Y47502D01*
X32567Y47561D01*
X32625Y47637D01*
X32662Y47726D01*
X32674Y47821D01*
X32662Y47916D01*
X32625Y48005D01*
X32567Y48081D01*
X32490Y48140D01*
X32402Y48176D01*
X32306Y48189D01*
D02*
G37*
G36*
X32448Y39872D02*
X32382Y39858D01*
X32326Y39821D01*
X32288Y39765D01*
X32275Y39698D01*
X32288Y39632D01*
X32326Y39576D01*
X32382Y39538D01*
X32448Y39525D01*
X32515Y39538D01*
X32571Y39576D01*
X32608Y39632D01*
X32622Y39698D01*
X32608Y39765D01*
X32571Y39821D01*
X32515Y39858D01*
X32448Y39872D01*
D02*
G37*
G36*
X31764Y39823D02*
X31698Y39810D01*
X31641Y39773D01*
X31604Y39716D01*
X31591Y39650D01*
X31604Y39584D01*
X31641Y39527D01*
X31698Y39490D01*
X31764Y39477D01*
X31830Y39490D01*
X31886Y39527D01*
X31924Y39584D01*
X31937Y39650D01*
X31924Y39716D01*
X31886Y39773D01*
X31830Y39810D01*
X31764Y39823D01*
D02*
G37*
G36*
X33050Y39363D02*
X32944Y39349D01*
X32846Y39309D01*
X32762Y39244D01*
X32697Y39159D01*
X32656Y39061D01*
X32642Y38956D01*
Y38641D01*
X32656Y38535D01*
X32697Y38437D01*
X32762Y38352D01*
X32846Y38287D01*
X32944Y38247D01*
X33050Y38233D01*
X33156Y38247D01*
X33254Y38287D01*
X33338Y38352D01*
X33403Y38437D01*
X33444Y38535D01*
X33458Y38641D01*
Y38956D01*
X33444Y39061D01*
X33403Y39159D01*
X33338Y39244D01*
X33254Y39309D01*
X33156Y39349D01*
X33050Y39363D01*
D02*
G37*
G36*
X37004Y39360D02*
X36196D01*
Y38236D01*
X37004D01*
Y39360D01*
D02*
G37*
G36*
X42150Y39363D02*
X42044Y39349D01*
X41946Y39309D01*
X41862Y39244D01*
X41797Y39159D01*
X41756Y39061D01*
X41742Y38956D01*
Y38641D01*
X41756Y38535D01*
X41797Y38437D01*
X41862Y38352D01*
X41946Y38287D01*
X42044Y38247D01*
X42150Y38233D01*
X42256Y38247D01*
X42354Y38287D01*
X42438Y38352D01*
X42503Y38437D01*
X42544Y38535D01*
X42558Y38641D01*
Y38956D01*
X42544Y39061D01*
X42503Y39159D01*
X42438Y39244D01*
X42354Y39309D01*
X42256Y39349D01*
X42150Y39363D01*
D02*
G37*
%LPD*%
D10*
X44300Y33686D02*
G03*
X44007Y34393I-1000J0D01*
G01*
X43743Y34657D02*
G03*
X43036Y34950I-707J-707D01*
G01*
X43336Y32800D02*
G03*
X44043Y33093I0J1000D01*
G01*
X43336Y32800D02*
G03*
X42763Y32563I0J-811D01*
G01*
X44063Y33113D02*
G03*
X44300Y33686I-573J573D01*
G01*
X44500Y33786D02*
G03*
X44207Y34493I-1000J0D01*
G01*
Y33007D02*
G03*
X44500Y33714I-707J707D01*
G01*
X43893Y34807D02*
G03*
X43186Y35100I-707J-707D01*
G01*
X33388Y34950D02*
G03*
X33370Y34953I-26J-97D01*
G01*
X32650Y36500D02*
G03*
X32500Y36138I362J-362D01*
G01*
X32897Y35146D02*
G03*
X33370Y34953I546J661D01*
G01*
X32500Y35904D02*
G03*
X32740Y35310I854J0D01*
G01*
X32749Y35299D02*
G03*
X32836Y35202I901J715D01*
G01*
D02*
G03*
X32897Y35146I607J606D01*
G01*
X32943Y35307D02*
G03*
X33443Y35100I500J500D01*
G01*
X32650Y36014D02*
G03*
X32943Y35307I1000J0D01*
G01*
X32747Y35303D02*
G03*
X32740Y35310I-79J-62D01*
G01*
X32747Y35303D02*
G03*
X32749Y35299I903J712D01*
G01*
X32756Y36394D02*
G03*
X32650Y36138I256J-256D01*
G01*
X36356Y39994D02*
G03*
X36550Y40462I-468J468D01*
G01*
X36025Y39875D02*
G03*
X36200Y40297I-422J422D01*
G01*
X46250Y31300D02*
X47200Y30350D01*
X45830Y31280D02*
X45850Y31300D01*
X46250D01*
X47200Y30350D02*
X54380D01*
X44043Y33093D02*
X44063Y33113D01*
X43743Y34657D02*
X44007Y34393D01*
X33388Y34950D02*
X43036D01*
X42500Y32300D02*
X42763Y32563D01*
X44500Y33714D02*
Y33786D01*
X43500Y32300D02*
X44207Y33007D01*
X43893Y34807D02*
X44207Y34493D01*
X33443Y35100D02*
X43186D01*
X33388Y34950D02*
X33388Y34950D01*
X33370Y34953D02*
Y34953D01*
X32650Y36500D02*
X36025Y39875D01*
X32500Y35904D02*
Y36138D01*
X32650Y36014D02*
Y36138D01*
X32756Y36394D02*
X36356Y39994D01*
X36200Y40297D02*
Y40850D01*
X36550Y40462D02*
Y40850D01*
X43500Y31550D02*
Y32300D01*
X42850Y40300D02*
X45650D01*
X32940Y31255D02*
X40255D01*
X33888Y28600D02*
X34163Y28875D01*
X46325D02*
X46650Y28550D01*
X34163Y28875D02*
X46325D01*
X44390Y29750D02*
Y30660D01*
X43500Y31550D02*
X44390Y30660D01*
X44100Y29750D02*
Y30700D01*
X42500Y32300D02*
X44100Y30700D01*
X38059Y33983D02*
X38086D01*
X37800Y34100D02*
X37939Y34239D01*
X37950D01*
X37657Y34100D02*
X37800D01*
X38000Y33924D02*
X38059Y33983D01*
X38000Y32800D02*
Y33924D01*
X29795Y34400D02*
X32940Y31255D01*
X27300Y48400D02*
Y48500D01*
X27224Y48324D02*
X27300Y48400D01*
X27650Y48193D02*
Y48300D01*
X27224Y47834D02*
Y48324D01*
X26700Y46050D02*
X27200Y46550D01*
X27068Y47406D02*
X27200Y47274D01*
X26165Y48300D02*
X27059Y47406D01*
X27200Y46550D02*
Y47274D01*
X27059Y47406D02*
X27068D01*
X28500Y48494D02*
X28612Y48606D01*
Y48740D01*
X28500Y48456D02*
Y48494D01*
X27650Y48190D02*
Y48193D01*
X28612Y48740D02*
X28722Y48850D01*
X27650Y48193D02*
X28022Y47821D01*
X27650Y48190D02*
X27690Y48150D01*
X27497Y48839D02*
X28025Y48310D01*
X28022Y47821D02*
X28025D01*
X27224Y47834D02*
X27238Y47821D01*
X25906Y49200D02*
X28063D01*
X28122Y49141D01*
X25848D02*
X25906Y49200D01*
X30000Y48850D02*
X30250Y48600D01*
X29650D02*
X29650D01*
X27497Y47100D02*
X29700D01*
X29650Y48600D02*
X30109Y48141D01*
X29700Y47100D02*
X30109Y47509D01*
X29400Y48850D02*
X29650Y48600D01*
X30109Y47509D02*
Y48141D01*
X27497Y48839D02*
Y48850D01*
X36964Y33407D02*
X37657Y34100D01*
X46650Y28550D02*
X46800D01*
X33850Y28600D02*
X33888D01*
X37500Y32300D02*
X38000Y32800D01*
X36964Y32764D02*
Y33407D01*
X36500Y32300D02*
X36964Y32764D01*
X32320Y32300D02*
X34500D01*
X28180Y36228D02*
X32608Y31800D01*
X28330Y36290D02*
X32320Y32300D01*
X28180Y36228D02*
Y36620D01*
X28330Y36290D02*
Y36683D01*
X23752Y41048D02*
X28180Y36620D01*
X28800Y34400D02*
X29795D01*
X32608Y31800D02*
X35000D01*
X23902Y41111D02*
X28330Y36683D01*
X46200Y45150D02*
X48450Y47400D01*
X46200Y43200D02*
Y45150D01*
X35000Y31800D02*
X35500Y32300D01*
X26582Y30218D02*
X27084Y29716D01*
X26582Y30218D02*
Y33890D01*
X26091Y34380D02*
X26582Y33890D01*
X27084Y29066D02*
X27253Y28897D01*
X27084Y29066D02*
Y29716D01*
X27253Y28600D02*
Y28897D01*
X49765Y26741D02*
Y26741D01*
X50650Y22750D02*
Y25856D01*
X49765Y26741D02*
X50650Y25856D01*
X49706Y26800D02*
X49765Y26741D01*
X46800Y28550D02*
X48550Y26800D01*
X49706D01*
X24183Y46320D02*
X24200Y46303D01*
X24145Y46420D02*
Y46761D01*
Y46420D02*
X24183Y46382D01*
Y46320D02*
Y46382D01*
X24200Y45500D02*
Y46303D01*
X23902Y41111D02*
Y45202D01*
X24200Y45500D01*
X23752Y41048D02*
Y46250D01*
X23881D01*
X23622D02*
X23752D01*
X26091Y34400D02*
X26107Y34384D01*
X49674Y22300D02*
X50200D01*
X50650Y22750D01*
X49249Y22724D02*
X49674Y22300D01*
X49229Y22724D02*
X49249D01*
X34750Y14000D02*
X34777Y13973D01*
X34965D01*
X38700Y13962D02*
Y14000D01*
X38628Y13891D02*
X38700Y13962D01*
X38628Y13133D02*
Y13891D01*
X41455Y13923D02*
X41623D01*
X41650Y13950D01*
X40989Y13458D02*
X41455Y13923D01*
X41776Y13133D02*
Y13458D01*
X41901Y13583D01*
X42283D01*
X42700Y14000D01*
X40989Y13133D02*
Y13458D01*
X40202Y13133D02*
Y13458D01*
X40673Y13929D01*
Y13973D01*
X40700Y14000D01*
X39416Y13133D02*
X39541Y13258D01*
Y13803D01*
X39700Y13962D01*
Y14000D01*
X37841Y13133D02*
Y13871D01*
X37750Y13962D02*
X37841Y13871D01*
X37750Y13962D02*
Y14000D01*
X37055Y13133D02*
Y13458D01*
X36777Y13736D02*
X37055Y13458D01*
X36777Y13736D02*
Y13973D01*
X36750Y14000D02*
X36777Y13973D01*
X36267Y13133D02*
Y13458D01*
X35750Y13975D02*
X36267Y13458D01*
X35750Y13975D02*
Y14000D01*
X35480Y13133D02*
Y13458D01*
X34965Y13973D02*
X35480Y13458D01*
X34694Y13133D02*
Y13458D01*
X34569Y13583D02*
X34694Y13458D01*
X34167Y13583D02*
X34569D01*
X33750Y14000D02*
X34167Y13583D01*
X28025Y47821D02*
Y48310D01*
X23752Y46761D02*
Y47241D01*
X23810Y47300D01*
X24096D02*
X24154Y47241D01*
X23810Y47300D02*
X24096D01*
X24154Y46770D02*
Y47241D01*
X24145Y46761D02*
X24154Y46770D01*
X23939Y46752D02*
X23948Y46761D01*
X23939Y46309D02*
Y46752D01*
X23881Y46250D02*
X23939Y46309D01*
X23564D02*
X23622Y46250D01*
X23555Y46761D02*
X23564Y46752D01*
Y46309D02*
Y46752D01*
X32241Y47150D02*
X32306Y47215D01*
Y47821D01*
X26030Y47805D02*
Y47807D01*
Y47805D02*
X26139Y47697D01*
X25848Y47989D02*
X26030Y47807D01*
X26139Y47697D02*
X26150D01*
X25848Y47989D02*
Y49141D01*
X28122Y48850D02*
Y49141D01*
D17*
X49950Y37750D02*
Y38700D01*
X47950Y40700D02*
X49950Y38700D01*
X42500Y41800D02*
X50800D01*
X43200Y37300D02*
X46600Y40700D01*
X40102Y37300D02*
X43200D01*
X46600Y40700D02*
X47950D01*
X37050Y36900D02*
X45350D01*
X45400Y36850D01*
X35700Y38250D02*
X37050Y36900D01*
X42450Y39950D02*
Y41750D01*
X43072Y38880D02*
X43150Y38802D01*
X43072Y38880D02*
Y39328D01*
X42450Y39950D02*
X43072Y39328D01*
X42450Y41750D02*
X42500Y41800D01*
X33457Y36293D02*
X33489D01*
X33732Y36050D01*
X38947Y38454D02*
X40102Y37300D01*
X30150Y44900D02*
X30300D01*
X29050Y43800D02*
X30150Y44900D01*
X27050Y43800D02*
X29050D01*
X26150Y44700D02*
Y47103D01*
Y44700D02*
X27050Y43800D01*
X45200Y36050D02*
X45500Y35750D01*
X33732Y36050D02*
X45200D01*
X38901Y38454D02*
X38947D01*
X38600Y38755D02*
X38901Y38454D01*
X38600Y38755D02*
Y39050D01*
X42500Y41800D02*
Y44300D01*
X38700Y48100D02*
X42500Y44300D01*
X38600Y39050D02*
X41550Y42000D01*
X41600Y42050D01*
Y44400D01*
X38700Y47300D02*
X41600Y44400D01*
X22600Y36452D02*
X24950Y38802D01*
X22600Y29400D02*
Y36452D01*
X33050Y48512D02*
X33138Y48600D01*
X33050Y47865D02*
X33094Y47821D01*
X33050Y47865D02*
Y48512D01*
X33138Y48600D02*
X36250D01*
Y47700D02*
Y48600D01*
D20*
X23492Y22853D02*
D03*
Y23447D02*
D03*
X26907Y31503D02*
D03*
Y32097D02*
D03*
X26287Y31503D02*
D03*
Y32097D02*
D03*
X27639Y32258D02*
D03*
Y32851D02*
D03*
X25508Y32258D02*
D03*
Y32851D02*
D03*
X22300Y22853D02*
D03*
Y23447D02*
D03*
X27067D02*
D03*
Y22853D02*
D03*
X25875D02*
D03*
Y23447D02*
D03*
X46150Y23318D02*
D03*
Y22725D02*
D03*
X47670Y23318D02*
D03*
Y22725D02*
D03*
X48430D02*
D03*
Y23318D02*
D03*
X49950D02*
D03*
Y22725D02*
D03*
X26150Y47697D02*
D03*
Y47103D02*
D03*
Y48303D02*
D03*
Y48897D02*
D03*
D23*
X25540Y34400D02*
D03*
X26091D02*
D03*
X27674D02*
D03*
X28226D02*
D03*
X26876Y32800D02*
D03*
X26324D02*
D03*
X26876Y30750D02*
D03*
X26324D02*
D03*
D24*
X28275Y33600D02*
D03*
X27681D02*
D03*
X26090D02*
D03*
X25497D02*
D03*
X27497Y48850D02*
D03*
X26903D02*
D03*
X27497Y47100D02*
D03*
X26903D02*
D03*
X31648Y47150D02*
D03*
X32241D02*
D03*
X38703Y16950D02*
D03*
X39297D02*
D03*
X38703Y25950D02*
D03*
X39297D02*
D03*
X38703Y21082D02*
D03*
X39297D02*
D03*
X38703Y17500D02*
D03*
X39297D02*
D03*
X38703Y18900D02*
D03*
X39297D02*
D03*
X38703Y20450D02*
D03*
X39297D02*
D03*
X38703Y25300D02*
D03*
X39297D02*
D03*
X38703Y23869D02*
D03*
X39297D02*
D03*
X38703Y22350D02*
D03*
X39297D02*
D03*
X38703Y21700D02*
D03*
X39297D02*
D03*
D29*
X27600Y30740D02*
D03*
Y31291D02*
D03*
X25550Y30740D02*
D03*
Y31291D02*
D03*
X24723Y23404D02*
D03*
Y22853D02*
D03*
X28300Y22846D02*
D03*
Y23398D02*
D03*
X46952Y23269D02*
D03*
Y22718D02*
D03*
X49229Y22724D02*
D03*
Y23276D02*
D03*
D86*
X43957Y29543D02*
G03*
X44062Y29500I105J107D01*
G01*
X46600Y40247D02*
X46601Y40249D01*
X46600Y34450D02*
Y40247D01*
X45500Y33350D02*
X46600Y34450D01*
X41989Y31488D02*
X43957Y29543D01*
X44062Y29500D02*
X44650D01*
X40083Y29450D02*
X40800Y30167D01*
Y31600D01*
X41500Y32300D01*
X40600Y30250D02*
Y32200D01*
X40010Y29660D02*
X40600Y30250D01*
X40500Y32300D02*
X40600Y32200D01*
X32733Y29450D02*
X40083D01*
X32660Y29660D02*
X40010D01*
X32050Y28201D02*
X32899Y29050D01*
X32816Y29250D02*
X54400D01*
X32899Y29050D02*
X54705D01*
X55305Y29650D01*
X54400Y29250D02*
X55150Y30000D01*
X31850Y28284D02*
X32816Y29250D01*
X29783Y26500D02*
X32733Y29450D01*
X29750Y26750D02*
X32660Y29660D01*
X21700Y24522D02*
X22068Y24890D01*
X21700Y19933D02*
Y24522D01*
Y19933D02*
X22733Y18900D01*
X21500Y19850D02*
Y24605D01*
Y19850D02*
X22820Y18530D01*
X21500Y24605D02*
X21985Y25090D01*
X22820Y18530D02*
X24800D01*
X22733Y18900D02*
X25120D01*
X25490Y18530D01*
X25590D01*
X22068Y24890D02*
X22073D01*
X23683Y26500D02*
X29783D01*
X22073Y24890D02*
X23683Y26500D01*
X21990Y25090D02*
X23650Y26750D01*
X21985Y25090D02*
X21990D01*
X23650Y26750D02*
X29750D01*
X39200Y31600D02*
X40150D01*
X30800Y36670D02*
X32920Y34550D01*
X31000Y36753D02*
X33003Y34750D01*
X38850D01*
X39500Y34100D01*
X32920Y34550D02*
X38379D01*
X38467Y34462D01*
Y33333D02*
Y34462D01*
X31000Y36753D02*
Y47302D01*
X30800Y36670D02*
Y48174D01*
X38500Y32300D02*
X39200Y31600D01*
X38700Y25953D02*
X38703Y25950D01*
X38700Y25953D02*
Y26550D01*
X38697Y26553D02*
X38700Y26550D01*
X38703Y23869D02*
Y25300D01*
Y23109D02*
Y23869D01*
X38350Y21900D02*
Y25150D01*
X38344Y28124D02*
X38385Y28165D01*
X39637Y22338D02*
X39650Y22325D01*
X39309Y22338D02*
X39637D01*
X39297Y21700D02*
X39650D01*
X39634Y21066D02*
X39650Y21050D01*
X39313Y21066D02*
X39634D01*
X39616Y25300D02*
X39745Y25428D01*
X39297Y25300D02*
X39616D01*
X39297Y25950D02*
X39900D01*
X41183Y17017D02*
X41200Y17000D01*
X41033Y17017D02*
X41183D01*
X41047Y21809D02*
X41188Y21950D01*
X40363Y21809D02*
X41047D01*
X41129Y21021D02*
X41200Y20950D01*
X40363Y21021D02*
X41129D01*
X31519Y47821D02*
X31584Y47756D01*
Y47214D02*
Y47756D01*
Y47214D02*
X31648Y47150D01*
X31000Y47302D02*
X31519Y47821D01*
X30800Y48174D02*
X31138Y48512D01*
X29050Y48481D02*
Y48997D01*
Y48481D02*
X29055Y48476D01*
X29050Y48997D02*
X29188Y49135D01*
X30247Y49100D02*
X30550D01*
X29188Y49135D02*
X30212D01*
X30247Y49100D01*
X30550D02*
X31138Y48512D01*
X45500Y30350D02*
Y33350D01*
X44650Y29500D02*
X45500Y30350D01*
X39500Y33300D02*
Y34100D01*
X38467Y33333D02*
X38500Y33300D01*
X48350Y37550D02*
Y39600D01*
X48100Y39850D02*
X48350Y39600D01*
X32050Y20450D02*
Y28201D01*
X31850Y20533D02*
Y28284D01*
X29805Y18205D02*
X32050Y20450D01*
X27595Y18205D02*
X29805D01*
X26850Y18900D02*
X30217D01*
X31850Y20533D01*
X26480Y18530D02*
X26850Y18900D01*
X26380Y18530D02*
X26480D01*
X36750Y17150D02*
X37100Y17500D01*
X34795Y18705D02*
X34800Y18700D01*
X36745Y18705D02*
X36750Y18700D01*
X34091Y18705D02*
X34795D01*
X36065D02*
X36745D01*
X37100Y17500D02*
Y20650D01*
X36060Y18711D02*
X36065Y18705D01*
X34086Y18711D02*
X34091Y18705D01*
X36061Y19499D02*
X36749D01*
X36060Y19497D02*
X36061Y19499D01*
X36749D02*
X36750Y19500D01*
X34799Y19499D02*
X34800Y19500D01*
X34087Y19499D02*
X34799D01*
X34086Y19497D02*
X34087Y19499D01*
X55850Y20900D02*
Y33783D01*
X55750Y20800D02*
X55850Y20900D01*
X49500Y39850D02*
X55650Y33700D01*
X53567Y18900D02*
X55650Y20983D01*
Y33700D01*
X55750Y33883D02*
X55850Y33783D01*
X51500Y38133D02*
X55750Y33883D01*
X53155Y18205D02*
X55750Y20800D01*
X27170Y18530D02*
X27270D01*
X27595Y18205D01*
X53000Y39750D02*
Y39781D01*
X51500Y38133D02*
Y39800D01*
X52750Y39500D02*
X53000Y39750D01*
X25497Y33600D02*
X25519Y33621D01*
Y34379D02*
X25540Y34400D01*
X25519Y33621D02*
Y34379D01*
X25350Y22950D02*
X25367D01*
X25842Y23425D01*
X28600Y29400D02*
Y30400D01*
X27674Y34400D02*
X27678Y34396D01*
Y33604D02*
Y34396D01*
Y33604D02*
X27681Y33600D01*
X27639Y32851D02*
X27660Y32872D01*
Y33579D01*
X27681Y33600D01*
X27600Y31291D02*
X27620Y31311D01*
Y32238D01*
X27639Y32258D01*
X27600Y29400D02*
Y30740D01*
X27131Y31291D02*
X27600D01*
X26918Y31503D02*
X27131Y31291D01*
X26907Y31503D02*
X26918D01*
X26876Y30750D02*
X26891Y30766D01*
Y31488D01*
X26907Y31503D01*
X25575Y29425D02*
X25600Y29400D01*
X25575Y29425D02*
Y30715D01*
X25550Y30740D02*
X25575Y30715D01*
X25529Y32237D02*
X25592Y32174D01*
X25508Y32258D02*
X25529Y32237D01*
Y31312D02*
Y32237D01*
Y31312D02*
X25550Y31291D01*
X26306Y32781D02*
X26324Y32800D01*
X26306Y32115D02*
Y32781D01*
X26287Y32097D02*
X26306Y32115D01*
X25592Y32174D02*
X25814D01*
X25892Y32097D01*
X26287D01*
X25503Y32856D02*
X25508Y32851D01*
X25503Y32856D02*
Y33594D01*
X25497Y33600D02*
X25503Y33594D01*
X50334Y23334D02*
X50351Y23351D01*
X49966Y23334D02*
X50334D01*
X50755Y18205D02*
X53155D01*
X51460Y18900D02*
X53567D01*
X51090Y18530D02*
X51460Y18900D01*
X50248Y18482D02*
X50478D01*
X50755Y18205D01*
X50200Y18530D02*
X50248Y18482D01*
X50990Y18530D02*
X51090D01*
X49950Y23318D02*
X49966Y23334D01*
X24744Y23425D02*
X25842D01*
X25864Y23447D01*
X25875D01*
X24711Y22841D02*
X24723Y22853D01*
X24711Y22261D02*
Y22841D01*
X24700Y22250D02*
X24711Y22261D01*
X23196Y23150D02*
X23950D01*
X25250Y24450D01*
X22300Y22853D02*
X22899D01*
X23196Y23150D01*
X25250Y24450D02*
X25377D01*
X49315Y25765D02*
X49550Y25530D01*
X49229Y23276D02*
X49249D01*
X49332Y23358D01*
Y23378D01*
X49550Y23596D01*
Y25530D01*
X47977Y23021D02*
X48662D01*
X49100Y24320D02*
Y24450D01*
X48796Y24016D02*
X49100Y24320D01*
X48796Y23155D02*
Y24016D01*
X48662Y23021D02*
X48796Y23155D01*
X47670Y22725D02*
X47681D01*
X47977Y23021D01*
X48100Y23637D02*
Y24450D01*
Y23637D02*
X48419Y23318D01*
X48430D01*
X46100Y22675D02*
X46150Y22725D01*
X46100Y22350D02*
Y22675D01*
X46300Y22150D02*
X47550D01*
X46100Y22350D02*
X46300Y22150D01*
X47670Y22270D02*
Y22725D01*
X47550Y22150D02*
X47670Y22270D01*
X46150Y23318D02*
X46175Y23294D01*
X46125Y23343D02*
X46150Y23318D01*
X46927Y23294D02*
X46952Y23269D01*
X46175Y23294D02*
X46927D01*
X46125Y23343D02*
Y24425D01*
X46100Y24450D02*
X46125Y24425D01*
X24723Y23404D02*
X24744Y23425D01*
X28275Y23423D02*
X28300Y23398D01*
X28275Y23423D02*
Y24425D01*
X28250Y24450D02*
X28275Y24425D01*
X26381Y23447D02*
X27067D01*
X25377Y24450D02*
X26381Y23447D01*
X23492D02*
X23503D01*
X24158Y24102D01*
Y24358D01*
X24250Y24450D01*
X22275Y23472D02*
X22300Y23447D01*
X22275Y23472D02*
Y24425D01*
X22250Y24450D02*
X22275Y24425D01*
X52750Y37650D02*
Y39500D01*
X34090Y21854D02*
X34791D01*
X34795Y21850D01*
X34086Y21858D02*
X34090Y21854D01*
X35542Y21405D02*
X37855D01*
X35300Y21163D02*
X35542Y21405D01*
X37855D02*
X38350Y21900D01*
X36696Y21854D02*
X36900Y21650D01*
X36064Y21854D02*
X36696D01*
X35300Y20000D02*
Y21163D01*
X36060Y21858D02*
X36064Y21854D01*
X39297Y22350D02*
X39309Y22338D01*
X34800Y19500D02*
X35300Y20000D01*
X34742Y20292D02*
X34750Y20300D01*
X34739Y21061D02*
X34750Y21050D01*
X34097Y21061D02*
X34739D01*
X34094Y20292D02*
X34742D01*
X34086Y21072D02*
X34097Y21061D01*
X39297Y23869D02*
X39301Y23864D01*
X39636D01*
X39641Y23859D01*
X36150Y17150D02*
X36750D01*
X36700Y21050D02*
X37100Y20650D01*
X39648Y17498D02*
X39650Y17495D01*
X39297Y17500D02*
X39299Y17498D01*
X39648D01*
X39297Y18900D02*
X39324Y18928D01*
X39633D01*
X39650Y18945D01*
X39297Y20450D02*
X39650D01*
X36060Y17924D02*
X36072Y17912D01*
X36738D01*
X36750Y17900D01*
X36060Y20285D02*
X36068Y20292D01*
X36692D01*
X36700Y20300D01*
X36060Y21072D02*
X36071Y21061D01*
X36689D01*
X36700Y21050D01*
X34086Y20285D02*
X34094Y20292D01*
X34086Y17924D02*
X34099Y17937D01*
X34787D01*
X34800Y17950D01*
X40800Y23750D02*
X41906Y24857D01*
X39879Y23750D02*
X40800D01*
X39629Y23500D02*
X39879Y23750D01*
X40900Y23482D02*
X41667Y24250D01*
X40463Y23482D02*
X40900D01*
X40363Y23382D02*
X40463Y23482D01*
X42237Y24857D02*
X42337Y24957D01*
X41906Y24857D02*
X42237D01*
X38703Y22350D02*
Y23109D01*
X39094Y23500D01*
X39629D01*
X40688Y24169D02*
X41633Y25114D01*
Y25283D01*
X41200Y18150D02*
Y18541D01*
X41081Y18661D02*
X41200Y18541D01*
X40363Y18661D02*
X41081D01*
X41478Y19447D02*
X41626Y19300D01*
X41650D01*
X41633Y25283D02*
X41650Y25300D01*
X39297Y16950D02*
X39650D01*
X39297Y21082D02*
X39313Y21066D01*
X40363Y24957D02*
X40688D01*
X40788Y25057D01*
Y25438D01*
X41250Y25900D01*
X40363Y24169D02*
X40688D01*
X40363Y22596D02*
X41013D01*
X41667Y23250D01*
X40363Y20234D02*
X40371Y20242D01*
X41642D01*
X41650Y20250D01*
X40363Y19447D02*
X41478D01*
X40788Y17262D02*
X41033Y17017D01*
X40363Y17874D02*
X40688D01*
X40788Y17773D01*
Y17262D02*
Y17773D01*
X42337Y24169D02*
Y24957D01*
Y23382D02*
Y24169D01*
X38703Y25300D02*
Y25950D01*
Y21700D02*
Y22350D01*
Y21082D02*
Y21700D01*
Y20450D02*
Y21082D01*
Y18900D02*
Y20450D01*
Y17500D02*
Y18900D01*
Y16950D02*
Y17500D01*
X36649Y14400D02*
X37262D01*
X38703Y16939D02*
Y16950D01*
X37541Y15777D02*
X38703Y16939D01*
X37541Y14679D02*
Y15777D01*
X37262Y14400D02*
X37541Y14679D01*
X36267Y14782D02*
Y15107D01*
Y14782D02*
X36649Y14400D01*
X35480Y15107D02*
X36267D01*
X34694D02*
X35480D01*
X34687Y15100D02*
X34694Y15107D01*
X34250Y15100D02*
X34687D01*
X31138Y48512D02*
X33050D01*
X26902Y47102D02*
X26903Y47100D01*
X26152Y47102D02*
X26902D01*
X26150Y47103D02*
X26152Y47102D01*
D87*
X48750Y34450D02*
X49200Y34900D01*
X50750Y34200D02*
Y34900D01*
X24795Y46055D02*
Y46761D01*
Y46055D02*
X26150Y44700D01*
X26904Y48506D02*
X26905Y48505D01*
X26904Y48506D02*
Y48849D01*
X26903Y48850D02*
X26904Y48849D01*
X52900Y31830D02*
Y33650D01*
Y31830D02*
X54380Y30350D01*
X28226Y34400D02*
Y34420D01*
X27745Y34900D02*
X28226Y34420D01*
X26400Y34900D02*
X27745D01*
X28226Y34400D02*
X28800D01*
X50850Y33300D02*
X51500Y32650D01*
X50850Y33300D02*
Y33800D01*
X51900Y34850D02*
X52350D01*
X50850Y33800D02*
X51900Y34850D01*
X51150Y31800D02*
X51500Y32150D01*
X48650Y31800D02*
X51150D01*
X47650Y32800D02*
Y34900D01*
Y32800D02*
X48650Y31800D01*
X48750Y32650D02*
Y34450D01*
Y32650D02*
X49250Y32150D01*
X49200Y32650D02*
X50750Y34200D01*
X26165Y48300D02*
X26700D01*
X26153D02*
X26165D01*
X26150Y48897D02*
X26173Y48873D01*
X26880D01*
X26903Y48850D01*
X26150Y48303D02*
X26153Y48300D01*
X27179Y47821D02*
X27238D01*
X26700Y48300D02*
X27179Y47821D01*
D89*
X43500Y33300D02*
D03*
Y32300D02*
D03*
X42500Y33300D02*
D03*
Y32300D02*
D03*
X41500Y33300D02*
D03*
Y32300D02*
D03*
X40500Y33300D02*
D03*
Y32300D02*
D03*
X39500Y33300D02*
D03*
Y32300D02*
D03*
X38500Y33300D02*
D03*
Y32300D02*
D03*
X37500Y33300D02*
D03*
Y32300D02*
D03*
X36500Y33300D02*
D03*
Y32300D02*
D03*
X35500Y33300D02*
D03*
Y32300D02*
D03*
X34500Y33300D02*
D03*
X27350Y44650D02*
D03*
D90*
X34500Y32300D02*
D03*
D91*
X33995Y30135D02*
D03*
X34985Y28165D02*
D03*
X29600Y29400D02*
D03*
X28600D02*
D03*
X27600D02*
D03*
X26600D02*
D03*
X25600D02*
D03*
X24600D02*
D03*
X23600D02*
D03*
X22600D02*
D03*
X38385Y28165D02*
D03*
X37395Y30135D02*
D03*
X50295Y27735D02*
D03*
X51285Y25765D02*
D03*
X26195Y27735D02*
D03*
X27185Y25765D02*
D03*
X37245Y48485D02*
D03*
X38235Y46515D02*
D03*
D92*
X33015Y28165D02*
D03*
X30600Y29400D02*
D03*
X36415Y28165D02*
D03*
X49315Y25765D02*
D03*
X25215D02*
D03*
X36265Y46515D02*
D03*
D93*
X22950Y38798D02*
D03*
X41150D02*
D03*
X36600D02*
D03*
X32050D02*
D03*
X27500D02*
D03*
D94*
X24950Y38802D02*
D03*
X23950Y38798D02*
D03*
X43150Y38802D02*
D03*
X42150Y38798D02*
D03*
X38600Y38802D02*
D03*
X37600Y38798D02*
D03*
X34050Y38802D02*
D03*
X33050Y38798D02*
D03*
X29500Y38802D02*
D03*
X28500Y38798D02*
D03*
D95*
X25551Y48939D02*
D03*
X22149D02*
D03*
D96*
X25551Y47305D02*
D03*
X22149D02*
D03*
D97*
X24992Y47498D02*
D03*
X22708Y47502D02*
D03*
D98*
X46495Y20337D02*
D03*
X22838D02*
D03*
D99*
X47282D02*
D03*
X48069D02*
D03*
X48856D02*
D03*
X49643D02*
D03*
X50430D02*
D03*
X51217D02*
D03*
X52004D02*
D03*
X53578D02*
D03*
X52791D02*
D03*
X46495Y19550D02*
D03*
X47282D02*
D03*
X48069D02*
D03*
X48856D02*
D03*
X49643D02*
D03*
X50430D02*
D03*
X51217D02*
D03*
X52004D02*
D03*
X53578D02*
D03*
X52791D02*
D03*
X29135D02*
D03*
X29922D02*
D03*
X28347D02*
D03*
X27561D02*
D03*
X26774D02*
D03*
X25986D02*
D03*
X25199D02*
D03*
X24413D02*
D03*
X23626D02*
D03*
X22838D02*
D03*
X29135Y20337D02*
D03*
X29922D02*
D03*
X28347D02*
D03*
X27561D02*
D03*
X26774D02*
D03*
X25986D02*
D03*
X25199D02*
D03*
X24413D02*
D03*
X23626D02*
D03*
D100*
X49410Y18530D02*
D03*
X50200D02*
D03*
X50990D02*
D03*
X48620D02*
D03*
X24800D02*
D03*
X27170D02*
D03*
X26380D02*
D03*
X25590D02*
D03*
D101*
X51780D02*
D03*
X27960D02*
D03*
D102*
X52250Y14550D02*
D03*
X48150D02*
D03*
X24330D02*
D03*
X28430D02*
D03*
D103*
X52100Y21450D02*
D03*
X51100D02*
D03*
X50100D02*
D03*
X49100D02*
D03*
X48100D02*
D03*
X47100D02*
D03*
X46100D02*
D03*
Y24450D02*
D03*
X53100Y21450D02*
D03*
X54100D02*
D03*
X47100Y24450D02*
D03*
X48100D02*
D03*
X49100D02*
D03*
X50100D02*
D03*
X51100D02*
D03*
X52100D02*
D03*
X53100D02*
D03*
X39969Y28321D02*
D03*
X40756D02*
D03*
X41544D02*
D03*
X28250Y21450D02*
D03*
X27250D02*
D03*
X26250D02*
D03*
X25250D02*
D03*
X24250D02*
D03*
X23250D02*
D03*
X22250D02*
D03*
Y24450D02*
D03*
X29250Y21450D02*
D03*
X30250D02*
D03*
X23250Y24450D02*
D03*
X24250D02*
D03*
X25250D02*
D03*
X26250D02*
D03*
X27250D02*
D03*
X28250D02*
D03*
X29250D02*
D03*
X27238Y47821D02*
D03*
X28025D02*
D03*
X28813D02*
D03*
X31519D02*
D03*
X32306D02*
D03*
X33094D02*
D03*
D104*
X54100Y24450D02*
D03*
X30250D02*
D03*
D105*
X42331Y28317D02*
D03*
X29600Y47817D02*
D03*
X33881D02*
D03*
D106*
X27350Y45650D02*
D03*
D107*
X54580Y31980D02*
D03*
X54599Y33551D02*
D03*
X48150Y34550D02*
D03*
X49200Y34900D02*
D03*
X50350Y30700D02*
D03*
X46950Y31527D02*
D03*
X50750Y34900D02*
D03*
X49950Y37750D02*
D03*
X50800Y41800D02*
D03*
X44853Y45053D02*
D03*
X46200Y41297D02*
D03*
X45750Y44250D02*
D03*
X43100Y42700D02*
D03*
X38774Y48626D02*
D03*
X38950Y46324D02*
D03*
X38503Y44450D02*
D03*
X38750Y42600D02*
D03*
X38703Y41047D02*
D03*
X36550Y40850D02*
D03*
X38702Y37698D02*
D03*
X45650Y40300D02*
D03*
X46601Y40249D02*
D03*
X42850Y40300D02*
D03*
X41989Y31488D02*
D03*
X40255Y31255D02*
D03*
X40150Y31600D02*
D03*
X37950Y34239D02*
D03*
X38086Y33983D02*
D03*
X36200Y40850D02*
D03*
X45830Y31280D02*
D03*
X38350Y25150D02*
D03*
X39650Y22325D02*
D03*
Y21700D02*
D03*
Y21050D02*
D03*
X39900Y25950D02*
D03*
X39745Y25428D02*
D03*
X27300Y48500D02*
D03*
X41200Y17000D02*
D03*
X41188Y21950D02*
D03*
X41200Y20950D02*
D03*
X26700Y46050D02*
D03*
X28500Y48456D02*
D03*
X44100Y29750D02*
D03*
X44390D02*
D03*
X46200Y42450D02*
D03*
X48100Y39850D02*
D03*
X30555Y39650D02*
D03*
X31245D02*
D03*
X31764D02*
D03*
X32448Y39698D02*
D03*
X42500Y41800D02*
D03*
X38700Y47300D02*
D03*
X41550Y42000D02*
D03*
X38700Y48100D02*
D03*
X46200Y43200D02*
D03*
X48450Y47400D02*
D03*
X27253Y28600D02*
D03*
X33850D02*
D03*
X55305Y29650D02*
D03*
X36750Y18700D02*
D03*
X34800D02*
D03*
X36750Y19500D02*
D03*
X34800D02*
D03*
X46650Y28550D02*
D03*
X55150Y30000D02*
D03*
X53000Y39781D02*
D03*
X51500Y39800D02*
D03*
X23972Y45700D02*
D03*
X26400Y34900D02*
D03*
X25350Y22950D02*
D03*
X28800Y34400D02*
D03*
X28600Y30400D02*
D03*
X50351Y23351D02*
D03*
X54380Y30350D02*
D03*
X49500Y39850D02*
D03*
X52900Y33650D02*
D03*
X51500Y33150D02*
D03*
X24700Y22250D02*
D03*
X48350Y37550D02*
D03*
X52750Y37650D02*
D03*
X49250Y32150D02*
D03*
X49200Y32650D02*
D03*
X51500D02*
D03*
Y32150D02*
D03*
X52350Y34850D02*
D03*
X47650Y34900D02*
D03*
X49200Y33150D02*
D03*
X34795Y21850D02*
D03*
X36900Y21650D02*
D03*
X34750Y20300D02*
D03*
Y21050D02*
D03*
X39641Y23859D02*
D03*
X36150Y17150D02*
D03*
X39650Y17495D02*
D03*
Y18945D02*
D03*
Y20450D02*
D03*
X36750Y17900D02*
D03*
X36700Y20300D02*
D03*
Y21050D02*
D03*
X34800Y17950D02*
D03*
X41667Y24250D02*
D03*
X41200Y18150D02*
D03*
X41650Y19300D02*
D03*
Y25300D02*
D03*
X41250Y25900D02*
D03*
X39650Y16950D02*
D03*
X41650Y20250D02*
D03*
X41667Y23250D02*
D03*
X34250Y15100D02*
D03*
X34750Y14000D02*
D03*
X38700D02*
D03*
X41650Y13950D02*
D03*
X42700Y14000D02*
D03*
X40700D02*
D03*
X39700D02*
D03*
X37750D02*
D03*
X36750D02*
D03*
X35750D02*
D03*
X33750D02*
D03*
X29200Y39650D02*
D03*
X29950D02*
D03*
X30550Y49100D02*
D03*
X36250Y48600D02*
D03*
Y47700D02*
D03*
D108*
X45665Y34335D02*
D03*
X50472Y36472D02*
D03*
Y42828D02*
D03*
X55250Y48900D02*
D03*
X42800Y47300D02*
D03*
X46650Y47900D02*
D03*
X36900Y45850D02*
D03*
X35500Y40450D02*
D03*
X38550Y35500D02*
D03*
X45400Y36850D02*
D03*
X33457Y36293D02*
D03*
X35700Y38250D02*
D03*
X38697Y26553D02*
D03*
X30300Y44900D02*
D03*
X45500Y35750D02*
D03*
X22300Y45750D02*
D03*
X23825Y47850D02*
D03*
X24500D02*
D03*
X23150D02*
D03*
D109*
X27650Y48300D02*
D03*
X29055Y48476D02*
D03*
X30250Y48600D02*
D03*
X26905Y48505D02*
D03*
D135*
X32650Y36500D02*
D03*
D136*
X28122Y48850D02*
D03*
X28722D02*
D03*
X29400D02*
D03*
X30000D02*
D03*
D137*
X24795Y46761D02*
D03*
X22905D02*
D03*
X25110D02*
D03*
X22590D02*
D03*
D138*
X23948D02*
D03*
X23752D02*
D03*
X24539D02*
D03*
X24342D02*
D03*
X24145D02*
D03*
X23555D02*
D03*
X23358D02*
D03*
X23161D02*
D03*
D139*
X36060Y25006D02*
D03*
Y24220D02*
D03*
Y23433D02*
D03*
Y22645D02*
D03*
Y21858D02*
D03*
Y21072D02*
D03*
Y20285D02*
D03*
Y19497D02*
D03*
Y18711D02*
D03*
Y17924D02*
D03*
X34086Y18711D02*
D03*
Y19497D02*
D03*
Y20285D02*
D03*
Y21072D02*
D03*
Y21858D02*
D03*
Y22645D02*
D03*
Y23433D02*
D03*
Y24220D02*
D03*
Y25006D02*
D03*
Y17924D02*
D03*
X40363Y17874D02*
D03*
Y18661D02*
D03*
Y19447D02*
D03*
Y20234D02*
D03*
Y21021D02*
D03*
Y21809D02*
D03*
Y22596D02*
D03*
Y23382D02*
D03*
Y24169D02*
D03*
Y24957D02*
D03*
X42337Y24169D02*
D03*
Y23382D02*
D03*
Y22596D02*
D03*
Y21809D02*
D03*
Y21021D02*
D03*
Y20234D02*
D03*
Y19447D02*
D03*
Y18661D02*
D03*
Y17874D02*
D03*
Y24957D02*
D03*
D140*
X41776Y13133D02*
D03*
X40989D02*
D03*
X40202D02*
D03*
X39416D02*
D03*
X38628D02*
D03*
X37841D02*
D03*
X37055D02*
D03*
X36267D02*
D03*
X35480D02*
D03*
X34694D02*
D03*
X35480Y15107D02*
D03*
X36267D02*
D03*
X37055D02*
D03*
X37841D02*
D03*
X38628D02*
D03*
X39416D02*
D03*
X40202D02*
D03*
X40989D02*
D03*
X41776D02*
D03*
X34694D02*
D03*
M02*
