G04*
G04 #@! TF.GenerationSoftware,Altium Limited,Altium Designer,20.2.5 (213)*
G04*
G04 Layer_Color=255*
%FSLAX24Y24*%
%MOIN*%
G70*
G04*
G04 #@! TF.SameCoordinates,311A2180-9421-45D2-9D82-A7DF5611BF6A*
G04*
G04*
G04 #@! TF.FilePolarity,Positive*
G04*
G01*
G75*
%ADD19R,0.0475X0.0670*%
%ADD20R,0.0354X0.0315*%
%ADD21R,0.0315X0.0354*%
%ADD22R,0.0318X0.0340*%
%ADD23O,0.0945X0.0226*%
%ADD24R,0.1200X0.0600*%
%ADD25R,0.0472X0.1496*%
%ADD26R,0.1181X0.2087*%
%ADD27R,0.0320X0.0320*%
%ADD28R,0.0669X0.0860*%
%ADD29O,0.0400X0.1200*%
%ADD30R,0.1004X0.1004*%
%ADD31R,0.0110X0.0350*%
%ADD32R,0.0350X0.0110*%
%ADD33R,0.0340X0.0318*%
%ADD34R,0.1496X0.0984*%
%ADD35R,0.0236X0.0800*%
%ADD36R,0.0118X0.0800*%
%ADD37O,0.1200X0.0400*%
%ADD38R,0.0700X0.0400*%
%ADD39R,0.0217X0.0394*%
%ADD40R,0.1500X0.1701*%
%ADD41R,0.0787X0.0236*%
%ADD88R,0.0709X0.1024*%
%ADD89O,0.0709X0.1024*%
%ADD90R,0.0709X0.0709*%
%ADD91C,0.0709*%
%ADD92C,0.0512*%
%ADD93C,0.0600*%
%ADD94R,0.0600X0.0600*%
%ADD95R,0.0630X0.0630*%
%ADD96C,0.0630*%
%ADD97R,0.0600X0.0600*%
%ADD98O,0.0600X0.0400*%
%ADD99R,0.0600X0.0400*%
%ADD100O,0.0600X0.1000*%
%ADD101C,0.0700*%
%ADD102R,0.0700X0.0700*%
%ADD103C,0.0256*%
%ADD104O,0.0394X0.0827*%
%ADD105O,0.0394X0.0709*%
D19*
X27832Y47623D02*
D03*
X26668D02*
D03*
D20*
X28650Y49676D02*
D03*
Y49124D02*
D03*
X40750Y38677D02*
D03*
Y39228D02*
D03*
X27300Y38674D02*
D03*
Y39226D02*
D03*
X45200Y38677D02*
D03*
Y39228D02*
D03*
X42048Y43126D02*
D03*
Y42574D02*
D03*
X43084Y43126D02*
D03*
Y42574D02*
D03*
X36150Y39176D02*
D03*
Y38624D02*
D03*
X27220Y46350D02*
D03*
Y45799D02*
D03*
X28080Y46350D02*
D03*
Y45799D02*
D03*
X28940Y46350D02*
D03*
Y45799D02*
D03*
X29800Y46350D02*
D03*
Y45799D02*
D03*
X33200Y45150D02*
D03*
Y44599D02*
D03*
X32450Y45150D02*
D03*
Y44599D02*
D03*
X40750Y37303D02*
D03*
Y36752D02*
D03*
X26360Y46350D02*
D03*
Y45799D02*
D03*
X25500Y46350D02*
D03*
Y45799D02*
D03*
X31850Y38677D02*
D03*
Y39228D02*
D03*
Y37303D02*
D03*
Y36752D02*
D03*
X42400Y51224D02*
D03*
Y51776D02*
D03*
X45250Y48176D02*
D03*
Y47624D02*
D03*
X27300Y37303D02*
D03*
Y36752D02*
D03*
X45200Y37303D02*
D03*
Y36752D02*
D03*
X45157Y43126D02*
D03*
Y42574D02*
D03*
X44121Y43126D02*
D03*
Y42574D02*
D03*
D21*
X29976Y49150D02*
D03*
X29424D02*
D03*
X29976Y48400D02*
D03*
X29424D02*
D03*
X24046Y50052D02*
D03*
X24598D02*
D03*
X55597Y39592D02*
D03*
X55046D02*
D03*
X55096Y44292D02*
D03*
X55647D02*
D03*
X48168Y39347D02*
D03*
X48719D02*
D03*
X48726Y40150D02*
D03*
X48174D02*
D03*
X48168Y43672D02*
D03*
X48719D02*
D03*
X48726Y44450D02*
D03*
X48174D02*
D03*
X29426Y31050D02*
D03*
X28874D02*
D03*
X49102Y31406D02*
D03*
X49654D02*
D03*
X49102Y30635D02*
D03*
X49654D02*
D03*
X55873Y31409D02*
D03*
X55322D02*
D03*
X55873Y30637D02*
D03*
X55322D02*
D03*
X55873Y32180D02*
D03*
X55322D02*
D03*
X55873Y32952D02*
D03*
X55322D02*
D03*
X49102Y32950D02*
D03*
X49654D02*
D03*
X49102Y32178D02*
D03*
X49654D02*
D03*
X55324Y29200D02*
D03*
X55876D02*
D03*
X57347Y32154D02*
D03*
X56796D02*
D03*
X49626Y29050D02*
D03*
X49074D02*
D03*
X48276Y31467D02*
D03*
X47724D02*
D03*
D22*
X24053Y51550D02*
D03*
X24647D02*
D03*
X24053Y50780D02*
D03*
X24647D02*
D03*
X24597Y49250D02*
D03*
X24003D02*
D03*
X55600Y37850D02*
D03*
X55007D02*
D03*
X55597Y38700D02*
D03*
X55003D02*
D03*
Y40400D02*
D03*
X55597D02*
D03*
X55053Y42750D02*
D03*
X55647D02*
D03*
Y43500D02*
D03*
X55053D02*
D03*
Y45000D02*
D03*
X55647D02*
D03*
X48125Y38500D02*
D03*
X48719D02*
D03*
X48125Y42850D02*
D03*
X48719D02*
D03*
X30947Y29450D02*
D03*
X30353D02*
D03*
X30947Y31050D02*
D03*
X30353D02*
D03*
X28853Y29400D02*
D03*
X29447D02*
D03*
X24597Y48500D02*
D03*
X24003D02*
D03*
X26093Y44650D02*
D03*
X25500D02*
D03*
X26093Y43925D02*
D03*
X25500D02*
D03*
X24000Y47800D02*
D03*
X24593D02*
D03*
X26093Y43200D02*
D03*
X25500D02*
D03*
X56753Y32900D02*
D03*
X57347D02*
D03*
X47703Y33000D02*
D03*
X48297D02*
D03*
X56753Y31325D02*
D03*
X57347D02*
D03*
X47703Y32213D02*
D03*
X48297D02*
D03*
X55847Y29900D02*
D03*
X55253D02*
D03*
X49053D02*
D03*
X49647D02*
D03*
X47703Y30638D02*
D03*
X48297D02*
D03*
X57347Y30538D02*
D03*
X56753D02*
D03*
X48297Y29850D02*
D03*
X47703D02*
D03*
X56753Y29750D02*
D03*
X57347D02*
D03*
D23*
X53770Y37000D02*
D03*
Y37500D02*
D03*
Y38000D02*
D03*
Y38500D02*
D03*
Y39000D02*
D03*
Y39500D02*
D03*
Y40000D02*
D03*
Y40500D02*
D03*
X50030Y37000D02*
D03*
Y37500D02*
D03*
Y38000D02*
D03*
Y38500D02*
D03*
Y39000D02*
D03*
Y39500D02*
D03*
Y40000D02*
D03*
Y40500D02*
D03*
X53770Y41800D02*
D03*
Y42300D02*
D03*
Y42800D02*
D03*
Y43300D02*
D03*
Y43800D02*
D03*
Y44300D02*
D03*
Y44800D02*
D03*
Y45300D02*
D03*
X50030Y41800D02*
D03*
Y42300D02*
D03*
Y42800D02*
D03*
Y43300D02*
D03*
Y43800D02*
D03*
Y44300D02*
D03*
Y44800D02*
D03*
Y45300D02*
D03*
D24*
X53425Y48510D02*
D03*
X56175Y47840D02*
D03*
Y50240D02*
D03*
X53425Y51260D02*
D03*
X56175Y51660D02*
D03*
X47900Y48510D02*
D03*
X50650Y47840D02*
D03*
Y50240D02*
D03*
X47900Y51260D02*
D03*
X50650Y51660D02*
D03*
D25*
X36358Y47865D02*
D03*
X37342Y47864D02*
D03*
X38130D02*
D03*
X39114D02*
D03*
D26*
X40687Y48888D02*
D03*
X34781Y48888D02*
D03*
D27*
X28850Y52350D02*
D03*
X28250D02*
D03*
X27000D02*
D03*
X27600D02*
D03*
X25700D02*
D03*
X26300D02*
D03*
X24400D02*
D03*
X25000D02*
D03*
D28*
X27600Y31066D02*
D03*
Y29334D02*
D03*
X42300Y46066D02*
D03*
Y44334D02*
D03*
X43607D02*
D03*
Y46066D02*
D03*
X44900D02*
D03*
Y44334D02*
D03*
D29*
X25300Y39130D02*
D03*
Y37070D02*
D03*
X34175D02*
D03*
Y39130D02*
D03*
X30650Y34680D02*
D03*
Y32620D02*
D03*
X26850Y34680D02*
D03*
Y32620D02*
D03*
X38612Y37070D02*
D03*
Y39130D02*
D03*
X29738Y37070D02*
D03*
Y39130D02*
D03*
X43050D02*
D03*
Y37070D02*
D03*
D30*
X27050Y49800D02*
D03*
D31*
X26558Y50631D02*
D03*
X26755D02*
D03*
X26952D02*
D03*
X27148D02*
D03*
X27345D02*
D03*
X27542D02*
D03*
Y48969D02*
D03*
X27345D02*
D03*
X27148D02*
D03*
X26952D02*
D03*
X26755D02*
D03*
X26558D02*
D03*
D32*
X27881Y50292D02*
D03*
Y50095D02*
D03*
Y49898D02*
D03*
Y49702D02*
D03*
Y49505D02*
D03*
Y49308D02*
D03*
X26219D02*
D03*
Y49505D02*
D03*
Y49702D02*
D03*
Y49898D02*
D03*
Y50095D02*
D03*
Y50292D02*
D03*
D33*
X32550Y34847D02*
D03*
Y34253D02*
D03*
X28700Y34793D02*
D03*
Y34200D02*
D03*
X31750Y44578D02*
D03*
Y45171D02*
D03*
X37600Y43903D02*
D03*
Y44497D02*
D03*
D34*
X31950Y48452D02*
D03*
Y46248D02*
D03*
X43250Y50152D02*
D03*
Y47948D02*
D03*
D35*
X32710Y50161D02*
D03*
X30190D02*
D03*
X32395D02*
D03*
X30505D02*
D03*
D36*
X32139D02*
D03*
X31942D02*
D03*
X31745D02*
D03*
X31155D02*
D03*
X30958D02*
D03*
X30761D02*
D03*
X31548D02*
D03*
X31352D02*
D03*
D37*
X36330Y45450D02*
D03*
X34270D02*
D03*
D38*
X27022Y43900D02*
D03*
X29778D02*
D03*
D39*
X43176Y51149D02*
D03*
X43550D02*
D03*
X43924D02*
D03*
Y52251D02*
D03*
X43550D02*
D03*
X43176D02*
D03*
D40*
X52500Y30700D02*
D03*
D41*
X54350Y32950D02*
D03*
Y32450D02*
D03*
Y31950D02*
D03*
Y31450D02*
D03*
Y30950D02*
D03*
Y30450D02*
D03*
Y29950D02*
D03*
Y29450D02*
D03*
Y28950D02*
D03*
Y28450D02*
D03*
X50650Y28450D02*
D03*
Y28950D02*
D03*
Y29450D02*
D03*
Y29950D02*
D03*
Y30450D02*
D03*
Y30950D02*
D03*
Y31450D02*
D03*
Y31950D02*
D03*
Y32450D02*
D03*
Y32950D02*
D03*
D88*
X24950Y40798D02*
D03*
X29388D02*
D03*
X33825D02*
D03*
X38263D02*
D03*
X42700D02*
D03*
D89*
X26950Y40802D02*
D03*
X25950Y40798D02*
D03*
X30387D02*
D03*
X31388Y40802D02*
D03*
X34825Y40798D02*
D03*
X35825Y40802D02*
D03*
X40262D02*
D03*
X39262Y40798D02*
D03*
X44700Y40802D02*
D03*
X43700Y40798D02*
D03*
D90*
X35050Y32750D02*
D03*
D91*
Y33750D02*
D03*
X36050Y32750D02*
D03*
Y33750D02*
D03*
X37050Y32750D02*
D03*
Y33750D02*
D03*
X38050Y32750D02*
D03*
Y33750D02*
D03*
X39050Y32750D02*
D03*
Y33750D02*
D03*
X40050Y32750D02*
D03*
Y33750D02*
D03*
X41050Y32750D02*
D03*
Y33750D02*
D03*
X42050Y32750D02*
D03*
Y33750D02*
D03*
X43050Y32750D02*
D03*
Y33750D02*
D03*
X44050Y32750D02*
D03*
Y33750D02*
D03*
D92*
X38719Y49400D02*
D03*
X36750D02*
D03*
D93*
X32100Y43300D02*
D03*
X31100D02*
D03*
X33100D02*
D03*
X24250Y33200D02*
D03*
X24300Y44000D02*
D03*
Y46450D02*
D03*
D94*
X34100Y43300D02*
D03*
D95*
X57250Y27150D02*
D03*
X32450D02*
D03*
D96*
X56250D02*
D03*
X55250D02*
D03*
X54250D02*
D03*
X53250D02*
D03*
X52250D02*
D03*
X51250D02*
D03*
X50250D02*
D03*
X57250Y24150D02*
D03*
X56250D02*
D03*
X49250Y27150D02*
D03*
Y24150D02*
D03*
X50250D02*
D03*
X51250D02*
D03*
X52250D02*
D03*
X53250D02*
D03*
X54250D02*
D03*
X55250D02*
D03*
X31450Y27150D02*
D03*
X30450D02*
D03*
X29450D02*
D03*
X28450D02*
D03*
X27450D02*
D03*
X26450D02*
D03*
X25450D02*
D03*
X32450Y24150D02*
D03*
X31450D02*
D03*
X24450Y27150D02*
D03*
Y24150D02*
D03*
X25450D02*
D03*
X26450D02*
D03*
X27450D02*
D03*
X28450D02*
D03*
X29450D02*
D03*
X30450D02*
D03*
D97*
X24250Y34200D02*
D03*
X24300Y43000D02*
D03*
Y45450D02*
D03*
D98*
X28340Y22400D02*
D03*
X27550D02*
D03*
X26760D02*
D03*
X29130D02*
D03*
X55650D02*
D03*
X53280D02*
D03*
X54070D02*
D03*
X54860D02*
D03*
D99*
X25970D02*
D03*
X52490D02*
D03*
D100*
X25500Y18420D02*
D03*
X29600D02*
D03*
X56120D02*
D03*
X52020D02*
D03*
D101*
X25195Y31285D02*
D03*
X26185Y29315D02*
D03*
X32005Y21065D02*
D03*
X31015Y23035D02*
D03*
X49605Y21065D02*
D03*
X48615Y23035D02*
D03*
X39545Y45235D02*
D03*
X40535Y43265D02*
D03*
D102*
X24215Y29315D02*
D03*
X32985Y23035D02*
D03*
X50585D02*
D03*
X38565Y43265D02*
D03*
D103*
X32592Y50902D02*
D03*
X30308Y50898D02*
D03*
D104*
X33151Y50705D02*
D03*
X29749D02*
D03*
D105*
X33151Y52339D02*
D03*
X29749D02*
D03*
M02*
