G04*
G04 #@! TF.GenerationSoftware,Altium Limited,Altium Designer,20.2.5 (213)*
G04*
G04 Layer_Color=2752767*
%FSLAX24Y24*%
%MOIN*%
G70*
G04*
G04 #@! TF.SameCoordinates,311A2180-9421-45D2-9D82-A7DF5611BF6A*
G04*
G04*
G04 #@! TF.FilePolarity,Positive*
G04*
G01*
G75*
%ADD135C,0.0020*%
%ADD136C,0.0027*%
%ADD137C,0.0013*%
D135*
X24870Y40718D02*
Y40878D01*
X25030D01*
Y40718D01*
X24870D01*
X26870Y40722D02*
Y40882D01*
X27030D01*
Y40722D01*
X26870D01*
X25870Y40718D02*
Y40878D01*
X26030D01*
Y40718D01*
X25870D01*
X30308D02*
Y40878D01*
X30468D01*
Y40718D01*
X30308D01*
X31307Y40722D02*
Y40882D01*
X31467D01*
Y40722D01*
X31307D01*
X29307Y40718D02*
Y40878D01*
X29467D01*
Y40718D01*
X29307D01*
X34745D02*
Y40878D01*
X34905D01*
Y40718D01*
X34745D01*
X35745Y40722D02*
Y40882D01*
X35905D01*
Y40722D01*
X35745D01*
X33745Y40718D02*
Y40878D01*
X33905D01*
Y40718D01*
X33745D01*
X38182D02*
Y40878D01*
X38342D01*
Y40718D01*
X38182D01*
X40182Y40722D02*
Y40882D01*
X40342D01*
Y40722D01*
X40182D01*
X39183Y40718D02*
Y40878D01*
X39343D01*
Y40718D01*
X39183D01*
X42620D02*
Y40878D01*
X42780D01*
Y40718D01*
X42620D01*
X44620Y40722D02*
Y40882D01*
X44780D01*
Y40722D01*
X44620D01*
X43620Y40718D02*
Y40878D01*
X43780D01*
Y40718D01*
X43620D01*
X34970Y32670D02*
Y32830D01*
X35130D01*
Y32670D01*
X34970D01*
Y33670D02*
Y33830D01*
X35130D01*
Y33670D01*
X34970D01*
X35970Y32670D02*
Y32830D01*
X36130D01*
Y32670D01*
X35970D01*
Y33670D02*
Y33830D01*
X36130D01*
Y33670D01*
X35970D01*
X36970Y32670D02*
Y32830D01*
X37130D01*
Y32670D01*
X36970D01*
Y33670D02*
Y33830D01*
X37130D01*
Y33670D01*
X36970D01*
X37970Y32670D02*
Y32830D01*
X38130D01*
Y32670D01*
X37970D01*
Y33670D02*
Y33830D01*
X38130D01*
Y33670D01*
X37970D01*
X38970Y32670D02*
Y32830D01*
X39130D01*
Y32670D01*
X38970D01*
Y33670D02*
Y33830D01*
X39130D01*
Y33670D01*
X38970D01*
X39970Y32670D02*
Y32830D01*
X40130D01*
Y32670D01*
X39970D01*
Y33670D02*
Y33830D01*
X40130D01*
Y33670D01*
X39970D01*
X40970Y32670D02*
Y32830D01*
X41130D01*
Y32670D01*
X40970D01*
Y33670D02*
Y33830D01*
X41130D01*
Y33670D01*
X40970D01*
X41970Y32670D02*
Y32830D01*
X42130D01*
Y32670D01*
X41970D01*
Y33670D02*
Y33830D01*
X42130D01*
Y33670D01*
X41970D01*
X42970Y32670D02*
Y32830D01*
X43130D01*
Y32670D01*
X42970D01*
Y33670D02*
Y33830D01*
X43130D01*
Y33670D01*
X42970D01*
X43970Y32670D02*
Y32830D01*
X44130D01*
Y32670D01*
X43970D01*
Y33670D02*
Y33830D01*
X44130D01*
Y33670D01*
X43970D01*
X32100Y43220D02*
X32020Y43380D01*
X32180D01*
X32100Y43220D01*
X31100D02*
X31020Y43380D01*
X31180D01*
X31100Y43220D01*
X34100D02*
X34020Y43380D01*
X34180D01*
X34100Y43220D01*
X33100D02*
X33020Y43380D01*
X33180D01*
X33100Y43220D01*
X57250Y27070D02*
X57290Y27110D01*
X57330D01*
X57290Y27150D01*
X57330Y27190D01*
X57290D01*
X57250Y27230D01*
X57210Y27190D01*
X57170D01*
X57210Y27150D01*
X57170Y27110D01*
X57210D01*
X57250Y27070D01*
X56250D02*
X56290Y27110D01*
X56330D01*
X56290Y27150D01*
X56330Y27190D01*
X56290D01*
X56250Y27230D01*
X56210Y27190D01*
X56170D01*
X56210Y27150D01*
X56170Y27110D01*
X56210D01*
X56250Y27070D01*
X55250D02*
X55290Y27110D01*
X55330D01*
X55290Y27150D01*
X55330Y27190D01*
X55290D01*
X55250Y27230D01*
X55210Y27190D01*
X55170D01*
X55210Y27150D01*
X55170Y27110D01*
X55210D01*
X55250Y27070D01*
X54250D02*
X54290Y27110D01*
X54330D01*
X54290Y27150D01*
X54330Y27190D01*
X54290D01*
X54250Y27230D01*
X54210Y27190D01*
X54170D01*
X54210Y27150D01*
X54170Y27110D01*
X54210D01*
X54250Y27070D01*
X53250D02*
X53290Y27110D01*
X53330D01*
X53290Y27150D01*
X53330Y27190D01*
X53290D01*
X53250Y27230D01*
X53210Y27190D01*
X53170D01*
X53210Y27150D01*
X53170Y27110D01*
X53210D01*
X53250Y27070D01*
X52250D02*
X52290Y27110D01*
X52330D01*
X52290Y27150D01*
X52330Y27190D01*
X52290D01*
X52250Y27230D01*
X52210Y27190D01*
X52170D01*
X52210Y27150D01*
X52170Y27110D01*
X52210D01*
X52250Y27070D01*
X51250D02*
X51290Y27110D01*
X51330D01*
X51290Y27150D01*
X51330Y27190D01*
X51290D01*
X51250Y27230D01*
X51210Y27190D01*
X51170D01*
X51210Y27150D01*
X51170Y27110D01*
X51210D01*
X51250Y27070D01*
X50250D02*
X50290Y27110D01*
X50330D01*
X50290Y27150D01*
X50330Y27190D01*
X50290D01*
X50250Y27230D01*
X50210Y27190D01*
X50170D01*
X50210Y27150D01*
X50170Y27110D01*
X50210D01*
X50250Y27070D01*
X57250Y24070D02*
X57290Y24110D01*
X57330D01*
X57290Y24150D01*
X57330Y24190D01*
X57290D01*
X57250Y24230D01*
X57210Y24190D01*
X57170D01*
X57210Y24150D01*
X57170Y24110D01*
X57210D01*
X57250Y24070D01*
X56250D02*
X56290Y24110D01*
X56330D01*
X56290Y24150D01*
X56330Y24190D01*
X56290D01*
X56250Y24230D01*
X56210Y24190D01*
X56170D01*
X56210Y24150D01*
X56170Y24110D01*
X56210D01*
X56250Y24070D01*
X49250Y27070D02*
X49290Y27110D01*
X49330D01*
X49290Y27150D01*
X49330Y27190D01*
X49290D01*
X49250Y27230D01*
X49210Y27190D01*
X49170D01*
X49210Y27150D01*
X49170Y27110D01*
X49210D01*
X49250Y27070D01*
Y24070D02*
X49290Y24110D01*
X49330D01*
X49290Y24150D01*
X49330Y24190D01*
X49290D01*
X49250Y24230D01*
X49210Y24190D01*
X49170D01*
X49210Y24150D01*
X49170Y24110D01*
X49210D01*
X49250Y24070D01*
X50250D02*
X50290Y24110D01*
X50330D01*
X50290Y24150D01*
X50330Y24190D01*
X50290D01*
X50250Y24230D01*
X50210Y24190D01*
X50170D01*
X50210Y24150D01*
X50170Y24110D01*
X50210D01*
X50250Y24070D01*
X51250D02*
X51290Y24110D01*
X51330D01*
X51290Y24150D01*
X51330Y24190D01*
X51290D01*
X51250Y24230D01*
X51210Y24190D01*
X51170D01*
X51210Y24150D01*
X51170Y24110D01*
X51210D01*
X51250Y24070D01*
X52250D02*
X52290Y24110D01*
X52330D01*
X52290Y24150D01*
X52330Y24190D01*
X52290D01*
X52250Y24230D01*
X52210Y24190D01*
X52170D01*
X52210Y24150D01*
X52170Y24110D01*
X52210D01*
X52250Y24070D01*
X53250D02*
X53290Y24110D01*
X53330D01*
X53290Y24150D01*
X53330Y24190D01*
X53290D01*
X53250Y24230D01*
X53210Y24190D01*
X53170D01*
X53210Y24150D01*
X53170Y24110D01*
X53210D01*
X53250Y24070D01*
X54250D02*
X54290Y24110D01*
X54330D01*
X54290Y24150D01*
X54330Y24190D01*
X54290D01*
X54250Y24230D01*
X54210Y24190D01*
X54170D01*
X54210Y24150D01*
X54170Y24110D01*
X54210D01*
X54250Y24070D01*
X55250D02*
X55290Y24110D01*
X55330D01*
X55290Y24150D01*
X55330Y24190D01*
X55290D01*
X55250Y24230D01*
X55210Y24190D01*
X55170D01*
X55210Y24150D01*
X55170Y24110D01*
X55210D01*
X55250Y24070D01*
X32450Y27070D02*
X32490Y27110D01*
X32530D01*
X32490Y27150D01*
X32530Y27190D01*
X32490D01*
X32450Y27230D01*
X32410Y27190D01*
X32370D01*
X32410Y27150D01*
X32370Y27110D01*
X32410D01*
X32450Y27070D01*
X31450D02*
X31490Y27110D01*
X31530D01*
X31490Y27150D01*
X31530Y27190D01*
X31490D01*
X31450Y27230D01*
X31410Y27190D01*
X31370D01*
X31410Y27150D01*
X31370Y27110D01*
X31410D01*
X31450Y27070D01*
X30450D02*
X30490Y27110D01*
X30530D01*
X30490Y27150D01*
X30530Y27190D01*
X30490D01*
X30450Y27230D01*
X30410Y27190D01*
X30370D01*
X30410Y27150D01*
X30370Y27110D01*
X30410D01*
X30450Y27070D01*
X29450D02*
X29490Y27110D01*
X29530D01*
X29490Y27150D01*
X29530Y27190D01*
X29490D01*
X29450Y27230D01*
X29410Y27190D01*
X29370D01*
X29410Y27150D01*
X29370Y27110D01*
X29410D01*
X29450Y27070D01*
X28450D02*
X28490Y27110D01*
X28530D01*
X28490Y27150D01*
X28530Y27190D01*
X28490D01*
X28450Y27230D01*
X28410Y27190D01*
X28370D01*
X28410Y27150D01*
X28370Y27110D01*
X28410D01*
X28450Y27070D01*
X27450D02*
X27490Y27110D01*
X27530D01*
X27490Y27150D01*
X27530Y27190D01*
X27490D01*
X27450Y27230D01*
X27410Y27190D01*
X27370D01*
X27410Y27150D01*
X27370Y27110D01*
X27410D01*
X27450Y27070D01*
X26450D02*
X26490Y27110D01*
X26530D01*
X26490Y27150D01*
X26530Y27190D01*
X26490D01*
X26450Y27230D01*
X26410Y27190D01*
X26370D01*
X26410Y27150D01*
X26370Y27110D01*
X26410D01*
X26450Y27070D01*
X25450D02*
X25490Y27110D01*
X25530D01*
X25490Y27150D01*
X25530Y27190D01*
X25490D01*
X25450Y27230D01*
X25410Y27190D01*
X25370D01*
X25410Y27150D01*
X25370Y27110D01*
X25410D01*
X25450Y27070D01*
X32450Y24070D02*
X32490Y24110D01*
X32530D01*
X32490Y24150D01*
X32530Y24190D01*
X32490D01*
X32450Y24230D01*
X32410Y24190D01*
X32370D01*
X32410Y24150D01*
X32370Y24110D01*
X32410D01*
X32450Y24070D01*
X31450D02*
X31490Y24110D01*
X31530D01*
X31490Y24150D01*
X31530Y24190D01*
X31490D01*
X31450Y24230D01*
X31410Y24190D01*
X31370D01*
X31410Y24150D01*
X31370Y24110D01*
X31410D01*
X31450Y24070D01*
X24450Y27070D02*
X24490Y27110D01*
X24530D01*
X24490Y27150D01*
X24530Y27190D01*
X24490D01*
X24450Y27230D01*
X24410Y27190D01*
X24370D01*
X24410Y27150D01*
X24370Y27110D01*
X24410D01*
X24450Y27070D01*
Y24070D02*
X24490Y24110D01*
X24530D01*
X24490Y24150D01*
X24530Y24190D01*
X24490D01*
X24450Y24230D01*
X24410Y24190D01*
X24370D01*
X24410Y24150D01*
X24370Y24110D01*
X24410D01*
X24450Y24070D01*
X25450D02*
X25490Y24110D01*
X25530D01*
X25490Y24150D01*
X25530Y24190D01*
X25490D01*
X25450Y24230D01*
X25410Y24190D01*
X25370D01*
X25410Y24150D01*
X25370Y24110D01*
X25410D01*
X25450Y24070D01*
X26450D02*
X26490Y24110D01*
X26530D01*
X26490Y24150D01*
X26530Y24190D01*
X26490D01*
X26450Y24230D01*
X26410Y24190D01*
X26370D01*
X26410Y24150D01*
X26370Y24110D01*
X26410D01*
X26450Y24070D01*
X27450D02*
X27490Y24110D01*
X27530D01*
X27490Y24150D01*
X27530Y24190D01*
X27490D01*
X27450Y24230D01*
X27410Y24190D01*
X27370D01*
X27410Y24150D01*
X27370Y24110D01*
X27410D01*
X27450Y24070D01*
X28450D02*
X28490Y24110D01*
X28530D01*
X28490Y24150D01*
X28530Y24190D01*
X28490D01*
X28450Y24230D01*
X28410Y24190D01*
X28370D01*
X28410Y24150D01*
X28370Y24110D01*
X28410D01*
X28450Y24070D01*
X29450D02*
X29490Y24110D01*
X29530D01*
X29490Y24150D01*
X29530Y24190D01*
X29490D01*
X29450Y24230D01*
X29410Y24190D01*
X29370D01*
X29410Y24150D01*
X29370Y24110D01*
X29410D01*
X29450Y24070D01*
X30450D02*
X30490Y24110D01*
X30530D01*
X30490Y24150D01*
X30530Y24190D01*
X30490D01*
X30450Y24230D01*
X30410Y24190D01*
X30370D01*
X30410Y24150D01*
X30370Y24110D01*
X30410D01*
X30450Y24070D01*
X24250Y33120D02*
X24170Y33280D01*
X24330D01*
X24250Y33120D01*
Y34120D02*
X24170Y34280D01*
X24330D01*
X24250Y34120D01*
X28260Y22320D02*
X28300Y22400D01*
X28260Y22480D01*
X28340Y22440D01*
X28420Y22480D01*
X28380Y22400D01*
X28420Y22320D01*
X28340Y22360D01*
X28260Y22320D01*
X27470D02*
X27510Y22400D01*
X27470Y22480D01*
X27550Y22440D01*
X27630Y22480D01*
X27590Y22400D01*
X27630Y22320D01*
X27550Y22360D01*
X27470Y22320D01*
X26680D02*
X26720Y22400D01*
X26680Y22480D01*
X26760Y22440D01*
X26840Y22480D01*
X26800Y22400D01*
X26840Y22320D01*
X26760Y22360D01*
X26680Y22320D01*
X25890D02*
X25930Y22400D01*
X25890Y22480D01*
X25970Y22440D01*
X26050Y22480D01*
X26010Y22400D01*
X26050Y22320D01*
X25970Y22360D01*
X25890Y22320D01*
X29050D02*
X29090Y22400D01*
X29050Y22480D01*
X29130Y22440D01*
X29210Y22480D01*
X29170Y22400D01*
X29210Y22320D01*
X29130Y22360D01*
X29050Y22320D01*
X25460Y18380D02*
Y18340D01*
X25540D01*
Y18380D01*
X25580D01*
Y18460D01*
X25540D01*
Y18500D01*
X25460D01*
Y18460D01*
X25420D01*
Y18380D01*
X25460D01*
X29560D02*
Y18340D01*
X29640D01*
Y18380D01*
X29680D01*
Y18460D01*
X29640D01*
Y18500D01*
X29560D01*
Y18460D01*
X29520D01*
Y18380D01*
X29560D01*
X25115Y31205D02*
X25155D01*
X25195Y31245D01*
X25235Y31205D01*
X25275D01*
Y31245D01*
X25235Y31285D01*
X25275Y31325D01*
Y31365D01*
X25235D01*
X25195Y31325D01*
X25155Y31365D01*
X25115D01*
Y31325D01*
X25155Y31285D01*
X25115Y31245D01*
Y31205D01*
X24135Y29235D02*
X24175D01*
X24215Y29275D01*
X24255Y29235D01*
X24295D01*
Y29275D01*
X24255Y29315D01*
X24295Y29355D01*
Y29395D01*
X24255D01*
X24215Y29355D01*
X24175Y29395D01*
X24135D01*
Y29355D01*
X24175Y29315D01*
X24135Y29275D01*
Y29235D01*
X26105D02*
X26145D01*
X26185Y29275D01*
X26225Y29235D01*
X26265D01*
Y29275D01*
X26225Y29315D01*
X26265Y29355D01*
Y29395D01*
X26225D01*
X26185Y29355D01*
X26145Y29395D01*
X26105D01*
Y29355D01*
X26145Y29315D01*
X26105Y29275D01*
Y29235D01*
X31925Y20985D02*
X31965D01*
X32005Y21025D01*
X32045Y20985D01*
X32085D01*
Y21025D01*
X32045Y21065D01*
X32085Y21105D01*
Y21145D01*
X32045D01*
X32005Y21105D01*
X31965Y21145D01*
X31925D01*
Y21105D01*
X31965Y21065D01*
X31925Y21025D01*
Y20985D01*
X32905Y22955D02*
X32945D01*
X32985Y22995D01*
X33025Y22955D01*
X33065D01*
Y22995D01*
X33025Y23035D01*
X33065Y23075D01*
Y23115D01*
X33025D01*
X32985Y23075D01*
X32945Y23115D01*
X32905D01*
Y23075D01*
X32945Y23035D01*
X32905Y22995D01*
Y22955D01*
X30935D02*
X30975D01*
X31015Y22995D01*
X31055Y22955D01*
X31095D01*
Y22995D01*
X31055Y23035D01*
X31095Y23075D01*
Y23115D01*
X31055D01*
X31015Y23075D01*
X30975Y23115D01*
X30935D01*
Y23075D01*
X30975Y23035D01*
X30935Y22995D01*
Y22955D01*
X49525Y20985D02*
X49565D01*
X49605Y21025D01*
X49645Y20985D01*
X49685D01*
Y21025D01*
X49645Y21065D01*
X49685Y21105D01*
Y21145D01*
X49645D01*
X49605Y21105D01*
X49565Y21145D01*
X49525D01*
Y21105D01*
X49565Y21065D01*
X49525Y21025D01*
Y20985D01*
X50505Y22955D02*
X50545D01*
X50585Y22995D01*
X50625Y22955D01*
X50665D01*
Y22995D01*
X50625Y23035D01*
X50665Y23075D01*
Y23115D01*
X50625D01*
X50585Y23075D01*
X50545Y23115D01*
X50505D01*
Y23075D01*
X50545Y23035D01*
X50505Y22995D01*
Y22955D01*
X48535D02*
X48575D01*
X48615Y22995D01*
X48655Y22955D01*
X48695D01*
Y22995D01*
X48655Y23035D01*
X48695Y23075D01*
Y23115D01*
X48655D01*
X48615Y23075D01*
X48575Y23115D01*
X48535D01*
Y23075D01*
X48575Y23035D01*
X48535Y22995D01*
Y22955D01*
X32512Y50902D02*
X32592Y50982D01*
X32672Y50902D01*
X32592Y50822D01*
X32512Y50902D01*
X30228Y50898D02*
X30308Y50978D01*
X30388Y50898D01*
X30308Y50818D01*
X30228Y50898D01*
X33071Y50625D02*
Y50785D01*
X33231D01*
Y50625D01*
X33071D01*
X33111Y50665D02*
Y50745D01*
X33191D01*
Y50665D01*
X33111D01*
X29669Y50625D02*
Y50785D01*
X29829D01*
Y50625D01*
X29669D01*
X29709Y50665D02*
Y50745D01*
X29789D01*
Y50665D01*
X29709D01*
X24300Y43920D02*
X24220Y44080D01*
X24380D01*
X24300Y43920D01*
Y42920D02*
X24220Y43080D01*
X24380D01*
X24300Y42920D01*
Y46370D02*
X24220Y46530D01*
X24380D01*
X24300Y46370D01*
Y45370D02*
X24220Y45530D01*
X24380D01*
X24300Y45370D01*
X39465Y45155D02*
X39505D01*
X39545Y45195D01*
X39585Y45155D01*
X39625D01*
Y45195D01*
X39585Y45235D01*
X39625Y45275D01*
Y45315D01*
X39585D01*
X39545Y45275D01*
X39505Y45315D01*
X39465D01*
Y45275D01*
X39505Y45235D01*
X39465Y45195D01*
Y45155D01*
X38485Y43185D02*
X38525D01*
X38565Y43225D01*
X38605Y43185D01*
X38645D01*
Y43225D01*
X38605Y43265D01*
X38645Y43305D01*
Y43345D01*
X38605D01*
X38565Y43305D01*
X38525Y43345D01*
X38485D01*
Y43305D01*
X38525Y43265D01*
X38485Y43225D01*
Y43185D01*
X40455D02*
X40495D01*
X40535Y43225D01*
X40575Y43185D01*
X40615D01*
Y43225D01*
X40575Y43265D01*
X40615Y43305D01*
Y43345D01*
X40575D01*
X40535Y43305D01*
X40495Y43345D01*
X40455D01*
Y43305D01*
X40495Y43265D01*
X40455Y43225D01*
Y43185D01*
X56080Y18380D02*
Y18340D01*
X56160D01*
Y18380D01*
X56200D01*
Y18460D01*
X56160D01*
Y18500D01*
X56080D01*
Y18460D01*
X56040D01*
Y18380D01*
X56080D01*
X51980D02*
Y18340D01*
X52060D01*
Y18380D01*
X52100D01*
Y18460D01*
X52060D01*
Y18500D01*
X51980D01*
Y18460D01*
X51940D01*
Y18380D01*
X51980D01*
X55570Y22320D02*
X55610Y22400D01*
X55570Y22480D01*
X55650Y22440D01*
X55730Y22480D01*
X55690Y22400D01*
X55730Y22320D01*
X55650Y22360D01*
X55570Y22320D01*
X52410D02*
X52450Y22400D01*
X52410Y22480D01*
X52490Y22440D01*
X52570Y22480D01*
X52530Y22400D01*
X52570Y22320D01*
X52490Y22360D01*
X52410Y22320D01*
X53200D02*
X53240Y22400D01*
X53200Y22480D01*
X53280Y22440D01*
X53360Y22480D01*
X53320Y22400D01*
X53360Y22320D01*
X53280Y22360D01*
X53200Y22320D01*
X53990D02*
X54030Y22400D01*
X53990Y22480D01*
X54070Y22440D01*
X54150Y22480D01*
X54110Y22400D01*
X54150Y22320D01*
X54070Y22360D01*
X53990Y22320D01*
X54780D02*
X54820Y22400D01*
X54780Y22480D01*
X54860Y22440D01*
X54940Y22480D01*
X54900Y22400D01*
X54940Y22320D01*
X54860Y22360D01*
X54780Y22320D01*
X28200Y51670D02*
X28120Y51830D01*
X28280D01*
X28200Y51670D01*
Y51710D02*
X28160Y51790D01*
X28240D01*
X28200Y51710D01*
X28900Y51720D02*
X28820Y51880D01*
X28980D01*
X28900Y51720D01*
Y51760D02*
X28860Y51840D01*
X28940D01*
X28900Y51760D01*
X44450Y49870D02*
X44370Y50030D01*
X44530D01*
X44450Y49870D01*
Y49910D02*
X44410Y49990D01*
X44490D01*
X44450Y49910D01*
X48200Y37570D02*
X48120Y37730D01*
X48280D01*
X48200Y37570D01*
Y37610D02*
X48160Y37690D01*
X48240D01*
X48200Y37610D01*
X48150Y30570D02*
X48070Y30730D01*
X48230D01*
X48150Y30570D01*
Y30610D02*
X48110Y30690D01*
X48190D01*
X48150Y30610D01*
X51500Y24770D02*
X51420Y24930D01*
X51580D01*
X51500Y24770D01*
Y24810D02*
X51460Y24890D01*
X51540D01*
X51500Y24810D01*
X49800Y24770D02*
X49720Y24930D01*
X49880D01*
X49800Y24770D01*
Y24810D02*
X49760Y24890D01*
X49840D01*
X49800Y24810D01*
X49050Y29220D02*
X48970Y29380D01*
X49130D01*
X49050Y29220D01*
Y29260D02*
X49010Y29340D01*
X49090D01*
X49050Y29260D01*
X56300Y30820D02*
X56220Y30980D01*
X56380D01*
X56300Y30820D01*
Y30860D02*
X56260Y30940D01*
X56340D01*
X56300Y30860D01*
X56000Y28370D02*
X55920Y28530D01*
X56080D01*
X56000Y28370D01*
Y28410D02*
X55960Y28490D01*
X56040D01*
X56000Y28410D01*
X55650Y28370D02*
X55570Y28530D01*
X55730D01*
X55650Y28370D01*
Y28410D02*
X55610Y28490D01*
X55690D01*
X55650Y28410D01*
X55300Y28370D02*
X55220Y28530D01*
X55380D01*
X55300Y28370D01*
Y28410D02*
X55260Y28490D01*
X55340D01*
X55300Y28410D01*
X54300Y33820D02*
X54220Y33980D01*
X54380D01*
X54300Y33820D01*
Y33860D02*
X54260Y33940D01*
X54340D01*
X54300Y33860D01*
X54000Y33820D02*
X53920Y33980D01*
X54080D01*
X54000Y33820D01*
Y33860D02*
X53960Y33940D01*
X54040D01*
X54000Y33860D01*
X53700Y33820D02*
X53620Y33980D01*
X53780D01*
X53700Y33820D01*
Y33860D02*
X53660Y33940D01*
X53740D01*
X53700Y33860D01*
X47300Y32120D02*
X47220Y32280D01*
X47380D01*
X47300Y32120D01*
Y32160D02*
X47260Y32240D01*
X47340D01*
X47300Y32160D01*
X47100Y31870D02*
X47020Y32030D01*
X47180D01*
X47100Y31870D01*
Y31910D02*
X47060Y31990D01*
X47140D01*
X47100Y31910D01*
X35050Y36470D02*
X34970Y36630D01*
X35130D01*
X35050Y36470D01*
Y36510D02*
X35010Y36590D01*
X35090D01*
X35050Y36510D01*
X34700Y36470D02*
X34620Y36630D01*
X34780D01*
X34700Y36470D01*
Y36510D02*
X34660Y36590D01*
X34740D01*
X34700Y36510D01*
X36750Y35020D02*
X36670Y35180D01*
X36830D01*
X36750Y35020D01*
Y35060D02*
X36710Y35140D01*
X36790D01*
X36750Y35060D01*
X28950Y38470D02*
X28870Y38630D01*
X29030D01*
X28950Y38470D01*
Y38510D02*
X28910Y38590D01*
X28990D01*
X28950Y38510D01*
X33230Y39050D02*
X33150Y39210D01*
X33310D01*
X33230Y39050D01*
Y39090D02*
X33190Y39170D01*
X33270D01*
X33230Y39090D01*
X27650Y42277D02*
X27570Y42437D01*
X27730D01*
X27650Y42277D01*
Y42317D02*
X27610Y42397D01*
X27690D01*
X27650Y42317D01*
X28843Y42277D02*
X28763Y42437D01*
X28923D01*
X28843Y42277D01*
Y42317D02*
X28803Y42397D01*
X28883D01*
X28843Y42317D01*
X30950Y45120D02*
X30870Y45280D01*
X31030D01*
X30950Y45120D01*
Y45160D02*
X30910Y45240D01*
X30990D01*
X30950Y45160D01*
X36500Y42470D02*
X36420Y42630D01*
X36580D01*
X36500Y42470D01*
Y42510D02*
X36460Y42590D01*
X36540D01*
X36500Y42510D01*
X31750Y42270D02*
X31670Y42430D01*
X31830D01*
X31750Y42270D01*
Y42310D02*
X31710Y42390D01*
X31790D01*
X31750Y42310D01*
X31745Y49325D02*
X31665Y49485D01*
X31825D01*
X31745Y49325D01*
Y49365D02*
X31705Y49445D01*
X31785D01*
X31745Y49365D01*
X31155Y49315D02*
X31075Y49475D01*
X31235D01*
X31155Y49315D01*
Y49355D02*
X31115Y49435D01*
X31195D01*
X31155Y49355D01*
X37250Y39070D02*
X37170Y39230D01*
X37330D01*
X37250Y39070D01*
Y39110D02*
X37210Y39190D01*
X37290D01*
X37250Y39110D01*
X47180Y33150D02*
X47100Y33310D01*
X47260D01*
X47180Y33150D01*
Y33190D02*
X47140Y33270D01*
X47220D01*
X47180Y33190D01*
X46500Y33070D02*
X46420Y33230D01*
X46580D01*
X46500Y33070D01*
Y33110D02*
X46460Y33190D01*
X46540D01*
X46500Y33110D01*
X44950Y32070D02*
X44870Y32230D01*
X45030D01*
X44950Y32070D01*
Y32110D02*
X44910Y32190D01*
X44990D01*
X44950Y32110D01*
X47100Y31370D02*
X47020Y31530D01*
X47180D01*
X47100Y31370D01*
Y31410D02*
X47060Y31490D01*
X47140D01*
X47100Y31410D01*
X24450Y39020D02*
X24370Y39180D01*
X24530D01*
X24450Y39020D01*
Y39060D02*
X24410Y39140D01*
X24490D01*
X24450Y39060D01*
X29265Y28630D02*
X29185Y28790D01*
X29345D01*
X29265Y28630D01*
Y28670D02*
X29225Y28750D01*
X29305D01*
X29265Y28670D01*
X27400Y32920D02*
X27320Y33080D01*
X27480D01*
X27400Y32920D01*
Y32960D02*
X27360Y33040D01*
X27440D01*
X27400Y32960D01*
X30450Y33370D02*
X30370Y33530D01*
X30530D01*
X30450Y33370D01*
Y33410D02*
X30410Y33490D01*
X30490D01*
X30450Y33410D01*
X31950Y28568D02*
X31870Y28728D01*
X32030D01*
X31950Y28568D01*
Y28608D02*
X31910Y28688D01*
X31990D01*
X31950Y28608D01*
X48700Y30365D02*
X48620Y30525D01*
X48780D01*
X48700Y30365D01*
Y30405D02*
X48660Y30485D01*
X48740D01*
X48700Y30405D01*
X49650Y33620D02*
X49570Y33780D01*
X49730D01*
X49650Y33620D01*
Y33660D02*
X49610Y33740D01*
X49690D01*
X49650Y33660D01*
X52670Y33220D02*
X52590Y33380D01*
X52750D01*
X52670Y33220D01*
Y33260D02*
X52630Y33340D01*
X52710D01*
X52670Y33260D01*
X50800Y33530D02*
X50720Y33690D01*
X50880D01*
X50800Y33530D01*
Y33570D02*
X50760Y33650D01*
X50840D01*
X50800Y33570D01*
X49480Y28000D02*
X49400Y28160D01*
X49560D01*
X49480Y28000D01*
Y28040D02*
X49440Y28120D01*
X49520D01*
X49480Y28040D01*
X52930Y34270D02*
X52850Y34430D01*
X53010D01*
X52930Y34270D01*
Y34310D02*
X52890Y34390D01*
X52970D01*
X52930Y34310D01*
X52636Y37770D02*
X52556Y37930D01*
X52716D01*
X52636Y37770D01*
Y37810D02*
X52596Y37890D01*
X52676D01*
X52636Y37810D01*
X52275Y39395D02*
X52195Y39555D01*
X52355D01*
X52275Y39395D01*
Y39435D02*
X52235Y39515D01*
X52315D01*
X52275Y39435D01*
X53050Y28270D02*
X52970Y28430D01*
X53130D01*
X53050Y28270D01*
Y28310D02*
X53010Y28390D01*
X53090D01*
X53050Y28310D01*
X57150Y28970D02*
X57070Y29130D01*
X57230D01*
X57150Y28970D01*
Y29010D02*
X57110Y29090D01*
X57190D01*
X57150Y29010D01*
X51600Y47120D02*
X51520Y47280D01*
X51680D01*
X51600Y47120D01*
Y47160D02*
X51560Y47240D01*
X51640D01*
X51600Y47160D01*
X51050Y37570D02*
X50970Y37730D01*
X51130D01*
X51050Y37570D01*
Y37610D02*
X51010Y37690D01*
X51090D01*
X51050Y37610D01*
X55350Y33870D02*
X55270Y34030D01*
X55430D01*
X55350Y33870D01*
Y33910D02*
X55310Y33990D01*
X55390D01*
X55350Y33910D01*
X56350Y32820D02*
X56270Y32980D01*
X56430D01*
X56350Y32820D01*
Y32860D02*
X56310Y32940D01*
X56390D01*
X56350Y32860D01*
X57800Y31620D02*
X57720Y31780D01*
X57880D01*
X57800Y31620D01*
Y31660D02*
X57760Y31740D01*
X57840D01*
X57800Y31660D01*
X45650Y44620D02*
X45570Y44780D01*
X45730D01*
X45650Y44620D01*
Y44660D02*
X45610Y44740D01*
X45690D01*
X45650Y44660D01*
X52250Y47620D02*
X52170Y47780D01*
X52330D01*
X52250Y47620D01*
Y47660D02*
X52210Y47740D01*
X52290D01*
X52250Y47660D01*
X51100Y43720D02*
X51020Y43880D01*
X51180D01*
X51100Y43720D01*
Y43760D02*
X51060Y43840D01*
X51140D01*
X51100Y43760D01*
X48300Y32570D02*
X48220Y32730D01*
X48380D01*
X48300Y32570D01*
Y32610D02*
X48260Y32690D01*
X48340D01*
X48300Y32610D01*
X48200Y31770D02*
X48120Y31930D01*
X48280D01*
X48200Y31770D01*
Y31810D02*
X48160Y31890D01*
X48240D01*
X48200Y31810D01*
X50750Y27970D02*
X50670Y28130D01*
X50830D01*
X50750Y27970D01*
Y28010D02*
X50710Y28090D01*
X50790D01*
X50750Y28010D01*
Y26220D02*
X50670Y26380D01*
X50830D01*
X50750Y26220D01*
Y26260D02*
X50710Y26340D01*
X50790D01*
X50750Y26260D01*
X43000Y34670D02*
X42920Y34830D01*
X43080D01*
X43000Y34670D01*
Y34710D02*
X42960Y34790D01*
X43040D01*
X43000Y34710D01*
X48750Y40870D02*
X48670Y41030D01*
X48830D01*
X48750Y40870D01*
Y40910D02*
X48710Y40990D01*
X48790D01*
X48750Y40910D01*
X56300Y45620D02*
X56220Y45780D01*
X56380D01*
X56300Y45620D01*
Y45660D02*
X56260Y45740D01*
X56340D01*
X56300Y45660D01*
X56250Y44070D02*
X56170Y44230D01*
X56330D01*
X56250Y44070D01*
Y44110D02*
X56210Y44190D01*
X56290D01*
X56250Y44110D01*
X28250Y50770D02*
X28170Y50930D01*
X28330D01*
X28250Y50770D01*
Y50810D02*
X28210Y50890D01*
X28290D01*
X28250Y50810D01*
X28900Y50820D02*
X28820Y50980D01*
X28980D01*
X28900Y50820D01*
Y50860D02*
X28860Y50940D01*
X28940D01*
X28900Y50860D01*
X27600Y51670D02*
X27520Y51830D01*
X27680D01*
X27600Y51670D01*
Y51710D02*
X27560Y51790D01*
X27640D01*
X27600Y51710D01*
X30350Y42270D02*
X30270Y42430D01*
X30430D01*
X30350Y42270D01*
Y42310D02*
X30310Y42390D01*
X30390D01*
X30350Y42310D01*
X26700Y42620D02*
X26620Y42780D01*
X26780D01*
X26700Y42620D01*
Y42660D02*
X26660Y42740D01*
X26740D01*
X26700Y42660D01*
X44950Y49870D02*
X44870Y50030D01*
X45030D01*
X44950Y49870D01*
Y49910D02*
X44910Y49990D01*
X44990D01*
X44950Y49910D01*
X28650Y49970D02*
X28570Y50130D01*
X28730D01*
X28650Y49970D01*
Y50010D02*
X28610Y50090D01*
X28690D01*
X28650Y50010D01*
X28950Y49970D02*
X28870Y50130D01*
X29030D01*
X28950Y49970D01*
Y50010D02*
X28910Y50090D01*
X28990D01*
X28950Y50010D01*
X28350Y49970D02*
X28270Y50130D01*
X28430D01*
X28350Y49970D01*
Y50010D02*
X28310Y50090D01*
X28390D01*
X28350Y50010D01*
X27350Y51220D02*
X27270Y51380D01*
X27430D01*
X27350Y51220D01*
Y51260D02*
X27310Y51340D01*
X27390D01*
X27350Y51260D01*
X25200Y51020D02*
X25120Y51180D01*
X25280D01*
X25200Y51020D01*
Y51060D02*
X25160Y51140D01*
X25240D01*
X25200Y51060D01*
X26750Y51120D02*
X26670Y51280D01*
X26830D01*
X26750Y51120D01*
Y51160D02*
X26710Y51240D01*
X26790D01*
X26750Y51160D01*
X30400Y45120D02*
X30320Y45280D01*
X30480D01*
X30400Y45120D01*
Y45160D02*
X30360Y45240D01*
X30440D01*
X30400Y45160D01*
X30650Y44570D02*
X30570Y44730D01*
X30730D01*
X30650Y44570D01*
Y44610D02*
X30610Y44690D01*
X30690D01*
X30650Y44610D01*
X26700Y44820D02*
X26620Y44980D01*
X26780D01*
X26700Y44820D01*
Y44860D02*
X26660Y44940D01*
X26740D01*
X26700Y44860D01*
X25750Y47559D02*
X25670Y47719D01*
X25830D01*
X25750Y47559D01*
Y47599D02*
X25710Y47679D01*
X25790D01*
X25750Y47599D01*
X26150Y51360D02*
X26070Y51520D01*
X26230D01*
X26150Y51360D01*
Y51400D02*
X26110Y51480D01*
X26190D01*
X26150Y51400D01*
X27000Y51370D02*
X26920Y51530D01*
X27080D01*
X27000Y51370D01*
Y51410D02*
X26960Y51490D01*
X27040D01*
X27000Y51410D01*
X25700Y51670D02*
X25620Y51830D01*
X25780D01*
X25700Y51670D01*
Y51710D02*
X25660Y51790D01*
X25740D01*
X25700Y51710D01*
D136*
X38798Y49400D02*
G03*
X38798Y49400I-80J0D01*
G01*
X36830D02*
G03*
X36830Y49400I-80J0D01*
G01*
X33231Y52339D02*
G03*
X33231Y52339I-80J0D01*
G01*
X29829D02*
G03*
X29829Y52339I-80J0D01*
G01*
D137*
X33191D02*
G03*
X33191Y52339I-40J0D01*
G01*
X29789D02*
G03*
X29789Y52339I-40J0D01*
G01*
M02*
