M48
;Layer_Color=9474304
;FILE_FORMAT=2:4
INCH,LZ
;TYPE=PLATED
T1F00S00C0.0160
T4F00S00C0.0280
T5F00S00C0.0350
T6F00S00C0.0378
T7F00S00C0.0394
T8F00S00C0.0400
T9F00S00C0.0472
;TYPE=NON_PLATED
T10F00S00C0.0256
%
T01
X03375Y014
X03475
X03575
X03675
X03775
X0387
X0397
X0407
X04165Y01395
X0427Y014
X03425Y0151
X050351Y023351
X05438Y03035
X05515Y03
X055305Y02965
X04665Y02855
X04439Y02975
X0441
X04125Y0259
X04165Y0253
X041667Y02425
Y02325
X041188Y02195
X0412Y02095
X04165Y02025
Y0193
X0412Y01815
Y017
X03965Y01695
Y017495
Y018945
Y02045
Y02105
Y0217
Y022325
X039641Y023859
X039745Y025428
X0399Y02595
X03835Y02515
X0369Y02165
X0367Y02105
Y0203
X03675Y0195
Y0187
Y0179
X03615Y01715
X0348Y01795
Y0187
Y0195
X03475Y0203
Y02105
X034795Y02185
X03385Y0286
X027253
X0286Y0304
X02535Y02295
X0247Y02225
X0264Y0349
X0288Y0344
X0292Y03965
X02995
X030555
X031245
X0267Y04605
X023972Y0457
X031764Y03965
X032448Y039698
X037202Y040948
X03785Y040775
X04155Y042
X0425Y0418
X0462Y04245
Y0432
Y04025
X045935Y0376
X0467
X046465Y03625
X04592
X045745Y031525
X042Y031827
X04006Y031734
X0403Y0313
X038086Y033983
X03795Y034239
X04765Y0349
X0492
X05075
X05235Y03485
X0529Y03365
X0515Y03315
Y03265
Y03215
X04925
X0492Y03265
Y03315
X04835Y03755
X05Y03785
X0495Y03985
X0505Y0399
X0515Y0398
X053Y039781
X05275Y03765
X0481Y03985
X04845Y0474
X0387Y0473
Y0481
X03625Y0477
Y0486
X03025
X03055Y0491
X029055Y048476
X0285Y048456
X02765Y0483
X0273Y0485
X026905Y048505
T04
X038697Y026553
X0303Y0449
X0223Y04575
X033457Y036293
X03845Y03555
X0455Y03575
X0447Y03695
X0245Y04785
X023825
X02315
T05
X047282Y01955
Y020337
X048069
X048856
X049643
X05043
X051217
X052004
X052791
X053578
Y01955
X052791
X052004
X051217
X05043
X049643
X048856
X048069
X046495
Y020337
X029922
Y01955
X029135
X028347
X027561
X026774
X025986
X025199
X024413
X023626
X022838
Y020337
X023626
X024413
X025199
X025986
X026774
X027561
X028347
X029135
T06
X039969Y028321
X040756
X041544
X042331Y028317
X033881Y047817
X033094Y047821
X032306
X031519
X0296Y047817
X028813Y047821
X028025
X027238
T07
X0471Y02145
X0481
X0491
X0501
X0511
X0521
X0531
X0541
Y02445
X0531
X0521
X0511
X0501
X0491
X0481
X0471
X0461
Y02145
X03025
X02925
X02825
X02725
X02625
X02525
X02425
X02325
X02225
Y02445
X02325
X02425
X02525
X02625
X02725
X02825
X02925
X03025
T08
X049315Y025765
X051285
X050295Y027735
X038385Y028165
X036415
X034985
X033015
X033995Y030135
X037395
X0306Y0294
X0296
X0286
X0276
X0266
X0256
X0246
X0236
X0226
X026195Y027735
X025215Y025765
X027185
X036265Y046515
X038235
X037245Y048485
T09
X02295Y038798
X02395
X02495Y038802
X0275Y038798
X0285
X0295Y038802
X02735Y04465
Y04565
X03205Y038798
X03305
X03405Y038802
X0366Y038798
X0376
X0386Y038802
X04115Y038798
X04215
X04315Y038802
X0435Y0333
X0425
X0415
X0405
X0395
X0385
X0375
X0365
X0355
X0345
Y0323
X0355
X0365
X0375
X0385
X0395
X0405
X0415
X0425
X0435
T10
X022708Y047502
X024992Y047498
M30
