G04*
G04 #@! TF.GenerationSoftware,Altium Limited,Altium Designer,20.2.5 (213)*
G04*
G04 Layer_Physical_Order=1*
G04 Layer_Color=255*
%FSLAX24Y24*%
%MOIN*%
G70*
G04*
G04 #@! TF.SameCoordinates,94A92F66-6131-4E5E-9460-D235825817E1*
G04*
G04*
G04 #@! TF.FilePolarity,Positive*
G04*
G01*
G75*
%ADD10C,0.0100*%
%ADD16C,0.0300*%
%ADD19R,0.0340X0.0318*%
%ADD20R,0.0984X0.1496*%
%ADD21R,0.0669X0.0860*%
%ADD22R,0.0315X0.0354*%
%ADD23R,0.0318X0.0340*%
%ADD24R,0.0787X0.0236*%
%ADD25R,0.1500X0.1701*%
%ADD26O,0.0226X0.0802*%
%ADD27R,0.0874X0.0580*%
%ADD28O,0.0400X0.1200*%
%ADD29R,0.0354X0.0315*%
%ADD30R,0.0315X0.0315*%
%ADD31R,0.0421X0.0209*%
%ADD32O,0.0138X0.0500*%
%ADD33O,0.0500X0.0138*%
%ADD34R,0.0866X0.0866*%
%ADD35R,0.0472X0.0551*%
%ADD36R,0.1361X0.0505*%
%ADD37R,0.0394X0.0217*%
%ADD38R,0.0800X0.0500*%
%ADD39R,0.0315X0.0315*%
%ADD40R,0.1200X0.0600*%
%ADD41R,0.0580X0.0874*%
%ADD42O,0.0945X0.0226*%
%ADD86C,0.0150*%
%ADD87C,0.0200*%
%ADD88C,0.0700*%
%ADD89R,0.0700X0.0700*%
%ADD90R,0.0709X0.1024*%
%ADD91O,0.0709X0.1024*%
%ADD92O,0.0394X0.0709*%
%ADD93O,0.0394X0.0827*%
%ADD94C,0.0256*%
%ADD95R,0.0600X0.0600*%
%ADD96C,0.0600*%
%ADD97O,0.0600X0.0400*%
%ADD98R,0.0600X0.0400*%
%ADD99O,0.0600X0.1000*%
%ADD100C,0.0630*%
%ADD101R,0.0630X0.0630*%
%ADD102R,0.0630X0.0630*%
%ADD103R,0.0709X0.0709*%
%ADD104C,0.0709*%
%ADD105R,0.0709X0.0709*%
%ADD106C,0.0500*%
%ADD107C,0.0240*%
%ADD108C,0.0280*%
G36*
X56520Y13950D02*
X45120D01*
Y15550D01*
X43620D01*
Y27360D01*
X39210D01*
Y26360D01*
X42935D01*
Y16520D01*
X39210D01*
Y15720D01*
X43130D01*
Y12520D01*
X33290D01*
Y15720D01*
X37210D01*
Y16520D01*
X33485D01*
Y26360D01*
X37210D01*
Y27360D01*
X32800D01*
Y15550D01*
X31300D01*
Y13950D01*
X19900D01*
Y49450D01*
X56520D01*
Y13950D01*
D02*
G37*
%LPC*%
G36*
X30550Y49273D02*
X30484Y49260D01*
X30427Y49223D01*
X30390Y49166D01*
X30377Y49100D01*
X30390Y49034D01*
X30427Y48977D01*
X30484Y48940D01*
X30550Y48927D01*
X30616Y48940D01*
X30673Y48977D01*
X30710Y49034D01*
X30723Y49100D01*
X30710Y49166D01*
X30673Y49223D01*
X30616Y49260D01*
X30550Y49273D01*
D02*
G37*
G36*
X28771Y48872D02*
X27180D01*
X27131Y48863D01*
X27090Y48835D01*
X26946Y48691D01*
X26905Y48699D01*
X26831Y48684D01*
X26768Y48642D01*
X26726Y48579D01*
X26711Y48505D01*
X26726Y48431D01*
X26768Y48368D01*
X26831Y48326D01*
X26905Y48311D01*
X26979Y48326D01*
X27042Y48368D01*
X27084Y48431D01*
X27087Y48444D01*
X27138D01*
X27140Y48434D01*
X27177Y48377D01*
X27234Y48340D01*
X27300Y48327D01*
X27366Y48340D01*
X27420Y48376D01*
X27430Y48374D01*
X27467Y48354D01*
X27456Y48300D01*
X27471Y48226D01*
X27513Y48163D01*
X27576Y48121D01*
X27650Y48106D01*
X27724Y48121D01*
X27732Y48116D01*
X27732Y48115D01*
X27741Y48051D01*
X27706Y48005D01*
X27670Y47916D01*
X27657Y47821D01*
X27670Y47726D01*
X27704Y47643D01*
X26362Y46302D01*
X23387D01*
X23348Y46294D01*
X23315Y46272D01*
X23037Y45995D01*
X23020Y45991D01*
X22980Y45965D01*
X22966Y45943D01*
X22965Y45943D01*
X22911D01*
X22910Y45943D01*
X22896Y45965D01*
X22883Y45974D01*
X22873Y46035D01*
X23294Y46456D01*
X23294Y46456D01*
X23338Y46522D01*
X23354Y46600D01*
X23354Y46600D01*
Y47628D01*
X23364Y47636D01*
X23412Y47699D01*
X23442Y47772D01*
X23453Y47850D01*
X23442Y47928D01*
X23412Y48001D01*
X23364Y48064D01*
X23301Y48112D01*
X23228Y48142D01*
X23150Y48153D01*
X23072Y48142D01*
X22999Y48112D01*
X22936Y48064D01*
X22888Y48001D01*
X22858Y47928D01*
X22847Y47850D01*
X22858Y47772D01*
X22888Y47699D01*
X22936Y47636D01*
X22946Y47628D01*
Y46684D01*
X22313Y46051D01*
X22300Y46053D01*
X22222Y46042D01*
X22149Y46012D01*
X22086Y45964D01*
X22038Y45901D01*
X22008Y45828D01*
X21997Y45750D01*
X22008Y45672D01*
X22038Y45599D01*
X22086Y45536D01*
X22122Y45508D01*
Y45340D01*
X22085Y45316D01*
X22059Y45276D01*
X22050Y45230D01*
X22059Y45184D01*
X22085Y45144D01*
X22108Y45129D01*
Y45075D01*
X22085Y45060D01*
X22059Y45020D01*
X22050Y44974D01*
X22059Y44928D01*
X22085Y44888D01*
X22087Y44887D01*
X22091Y44830D01*
X22063Y44804D01*
X21600D01*
X21562Y44788D01*
X21546Y44750D01*
Y41800D01*
X21546Y41800D01*
X21562Y41762D01*
X21562Y41762D01*
X21612Y41712D01*
X21650Y41696D01*
X21650Y41696D01*
X22806D01*
Y41102D01*
X23890D01*
Y41716D01*
X23904Y41750D01*
Y42650D01*
X23903Y42652D01*
X23904Y42653D01*
X23896Y42671D01*
X23890Y42684D01*
Y42698D01*
X23877D01*
X23037Y43439D01*
X22954Y43522D01*
Y44200D01*
X22954Y44200D01*
X22938Y44238D01*
X22938Y44238D01*
X22771Y44405D01*
X22760Y44410D01*
X22755Y44421D01*
X22755Y44421D01*
X22704Y44472D01*
Y44700D01*
X22704Y44700D01*
X22688Y44738D01*
X22688Y44738D01*
X22638Y44788D01*
X22626Y44794D01*
X22619Y44804D01*
X22597Y44818D01*
X22597Y44819D01*
Y44873D01*
X22597Y44874D01*
X22619Y44888D01*
X22645Y44928D01*
X22654Y44974D01*
X22645Y45020D01*
X22619Y45060D01*
X22597Y45074D01*
X22597Y45075D01*
Y45129D01*
X22597Y45130D01*
X22619Y45144D01*
X22645Y45184D01*
X22654Y45230D01*
X22645Y45276D01*
X22619Y45316D01*
X22579Y45342D01*
X22533Y45351D01*
X22530D01*
Y45520D01*
X22689D01*
Y45517D01*
X22698Y45471D01*
X22724Y45431D01*
X22764Y45405D01*
X22810Y45396D01*
X22856Y45405D01*
X22896Y45431D01*
X22910Y45453D01*
X22911Y45453D01*
X22965D01*
X22966Y45453D01*
X22980Y45431D01*
X23020Y45405D01*
X23066Y45396D01*
X23112Y45405D01*
X23152Y45431D01*
X23166Y45453D01*
X23167Y45453D01*
X23221D01*
X23222Y45453D01*
X23236Y45431D01*
X23276Y45405D01*
X23322Y45396D01*
X23368Y45405D01*
X23408Y45431D01*
X23422Y45453D01*
X23423Y45453D01*
X23477D01*
X23478Y45453D01*
X23492Y45431D01*
X23532Y45405D01*
X23578Y45396D01*
X23624Y45405D01*
X23664Y45431D01*
X23690Y45471D01*
X23699Y45517D01*
Y45572D01*
X23858D01*
X23905Y45540D01*
X23972Y45527D01*
X24038Y45540D01*
X24094Y45577D01*
X24132Y45634D01*
X24145Y45700D01*
X24132Y45766D01*
X24094Y45823D01*
X24038Y45860D01*
X23972Y45873D01*
X23905Y45860D01*
X23855Y45826D01*
X23699D01*
Y45879D01*
X23695Y45898D01*
X23731Y45948D01*
X26564D01*
X26577Y45927D01*
X26634Y45890D01*
X26700Y45877D01*
X26766Y45890D01*
X26823Y45927D01*
X26860Y45984D01*
X26873Y46050D01*
X26860Y46116D01*
X26823Y46173D01*
X26766Y46210D01*
X26700Y46223D01*
X26634Y46210D01*
X26621Y46201D01*
X26589Y46240D01*
X27848Y47499D01*
X27930Y47465D01*
X28025Y47453D01*
X28120Y47465D01*
X28209Y47502D01*
X28285Y47561D01*
X28344Y47637D01*
X28381Y47726D01*
X28393Y47821D01*
X28381Y47916D01*
X28344Y48005D01*
X28285Y48081D01*
X28279Y48087D01*
X28295Y48134D01*
X29886D01*
X29925Y48142D01*
X29958Y48164D01*
X30209Y48414D01*
X30250Y48406D01*
X30324Y48421D01*
X30387Y48463D01*
X30429Y48526D01*
X30444Y48600D01*
X30429Y48674D01*
X30387Y48737D01*
X30324Y48779D01*
X30250Y48794D01*
X30176Y48779D01*
X30113Y48737D01*
X30071Y48674D01*
X30056Y48600D01*
X30064Y48559D01*
X29844Y48338D01*
X29251D01*
X29224Y48388D01*
X29234Y48402D01*
X29248Y48476D01*
X29234Y48550D01*
X29192Y48613D01*
X29129Y48655D01*
X29055Y48670D01*
X29031Y48665D01*
X28861Y48835D01*
X28820Y48863D01*
X28771Y48872D01*
D02*
G37*
G36*
X44530Y48966D02*
X43811D01*
X43747Y48954D01*
X43693Y48918D01*
X43657Y48864D01*
X43644Y48800D01*
X43657Y48736D01*
X43693Y48682D01*
X43747Y48646D01*
X43811Y48634D01*
X44530D01*
X44593Y48646D01*
X44647Y48682D01*
X44683Y48736D01*
X44696Y48800D01*
X44683Y48864D01*
X44647Y48918D01*
X44593Y48954D01*
X44530Y48966D01*
D02*
G37*
G36*
X40789D02*
X40070D01*
X40007Y48954D01*
X39953Y48918D01*
X39917Y48864D01*
X39904Y48800D01*
X39917Y48736D01*
X39953Y48682D01*
X40007Y48646D01*
X40070Y48634D01*
X40789D01*
X40853Y48646D01*
X40907Y48682D01*
X40943Y48736D01*
X40956Y48800D01*
X40943Y48864D01*
X40907Y48918D01*
X40853Y48954D01*
X40789Y48966D01*
D02*
G37*
G36*
X36250Y48773D02*
X36184Y48760D01*
X36127Y48723D01*
X36090Y48666D01*
X36077Y48600D01*
X36090Y48534D01*
X36127Y48477D01*
X36184Y48440D01*
X36250Y48427D01*
X36316Y48440D01*
X36373Y48477D01*
X36410Y48534D01*
X36423Y48600D01*
X36410Y48666D01*
X36373Y48723D01*
X36316Y48760D01*
X36250Y48773D01*
D02*
G37*
G36*
X37245Y48888D02*
X37141Y48875D01*
X37043Y48834D01*
X36960Y48770D01*
X36896Y48687D01*
X36855Y48589D01*
X36842Y48485D01*
X36855Y48381D01*
X36886Y48307D01*
X36831Y48252D01*
X35378D01*
Y48362D01*
X34938D01*
Y47945D01*
X35378D01*
Y48048D01*
X36771D01*
Y47165D01*
X36521Y46915D01*
X36036D01*
X36017Y46961D01*
X36394Y47339D01*
X36438Y47405D01*
X36454Y47483D01*
Y47700D01*
X36438Y47778D01*
X36394Y47844D01*
X36328Y47888D01*
X36250Y47904D01*
X36172Y47888D01*
X36106Y47844D01*
X36062Y47778D01*
X36046Y47700D01*
Y47567D01*
X35315Y46836D01*
X35207D01*
X35188Y46832D01*
X34973D01*
Y46417D01*
X34996D01*
Y45755D01*
X34974Y45732D01*
X34852D01*
Y45416D01*
X34807Y45404D01*
X34544D01*
Y46098D01*
X33460D01*
Y44502D01*
X34544D01*
Y44996D01*
X34807D01*
X34852Y44984D01*
X34852Y44946D01*
Y44668D01*
X35346D01*
Y44984D01*
X35280D01*
X35255Y45034D01*
X35261Y45042D01*
X35346D01*
Y45358D01*
X35303D01*
Y45416D01*
X35346D01*
Y45528D01*
X35388Y45592D01*
X35404Y45670D01*
Y46417D01*
X35427D01*
Y46434D01*
X35477Y46444D01*
X35543Y46488D01*
X35819Y46763D01*
X35865Y46744D01*
Y46115D01*
X36099D01*
Y45732D01*
X35954D01*
Y45416D01*
X36448D01*
Y45732D01*
X36303D01*
Y46115D01*
X36665D01*
Y46771D01*
X36945Y47051D01*
X36967Y47084D01*
X36975Y47123D01*
Y48108D01*
X37020Y48153D01*
X37043Y48136D01*
X37141Y48095D01*
X37245Y48082D01*
X37349Y48095D01*
X37447Y48136D01*
X37530Y48200D01*
X37594Y48283D01*
X37635Y48381D01*
X37648Y48485D01*
X37635Y48589D01*
X37594Y48687D01*
X37530Y48770D01*
X37447Y48834D01*
X37349Y48875D01*
X37245Y48888D01*
D02*
G37*
G36*
X44530Y48466D02*
X43811D01*
X43747Y48454D01*
X43693Y48418D01*
X43657Y48364D01*
X43644Y48300D01*
X43657Y48236D01*
X43693Y48182D01*
X43747Y48146D01*
X43811Y48134D01*
X44530D01*
X44593Y48146D01*
X44647Y48182D01*
X44683Y48236D01*
X44696Y48300D01*
X44683Y48364D01*
X44647Y48418D01*
X44593Y48454D01*
X44530Y48466D01*
D02*
G37*
G36*
X40789D02*
X40070D01*
X40007Y48454D01*
X39953Y48418D01*
X39917Y48364D01*
X39904Y48300D01*
X39917Y48236D01*
X39953Y48182D01*
X40007Y48146D01*
X40070Y48134D01*
X40789D01*
X40853Y48146D01*
X40907Y48182D01*
X40943Y48236D01*
X40956Y48300D01*
X40943Y48364D01*
X40907Y48418D01*
X40853Y48454D01*
X40789Y48466D01*
D02*
G37*
G36*
X52575Y48683D02*
X52489Y48672D01*
X52409Y48638D01*
X52340Y48585D01*
X52287Y48516D01*
X52253Y48436D01*
X52242Y48350D01*
X52253Y48264D01*
X52287Y48184D01*
X52340Y48115D01*
X52409Y48062D01*
X52489Y48028D01*
X52575Y48017D01*
X52661Y48028D01*
X52741Y48062D01*
X52810Y48115D01*
X52863Y48184D01*
X52897Y48264D01*
X52908Y48350D01*
X52897Y48436D01*
X52863Y48516D01*
X52810Y48585D01*
X52741Y48638D01*
X52661Y48672D01*
X52575Y48683D01*
D02*
G37*
G36*
X48025D02*
X47939Y48672D01*
X47859Y48638D01*
X47790Y48585D01*
X47737Y48516D01*
X47703Y48436D01*
X47692Y48350D01*
X47703Y48264D01*
X47737Y48184D01*
X47790Y48115D01*
X47859Y48062D01*
X47939Y48028D01*
X48025Y48017D01*
X48111Y48028D01*
X48191Y48062D01*
X48260Y48115D01*
X48313Y48184D01*
X48347Y48264D01*
X48358Y48350D01*
X48347Y48436D01*
X48313Y48516D01*
X48260Y48585D01*
X48191Y48638D01*
X48111Y48672D01*
X48025Y48683D01*
D02*
G37*
G36*
X45420Y48709D02*
X44980D01*
Y48291D01*
X45082D01*
Y48027D01*
X45011D01*
Y47927D01*
X44632D01*
X44593Y47954D01*
X44530Y47966D01*
X43811D01*
X43747Y47954D01*
X43693Y47918D01*
X43657Y47864D01*
X43644Y47800D01*
X43657Y47736D01*
X43693Y47682D01*
X43747Y47646D01*
X43811Y47634D01*
X44530D01*
X44593Y47646D01*
X44632Y47673D01*
X45011D01*
Y47573D01*
X45426D01*
Y48027D01*
X45337D01*
Y48291D01*
X45420D01*
Y48709D01*
D02*
G37*
G36*
X38700Y48304D02*
X38622Y48288D01*
X38556Y48244D01*
X38512Y48178D01*
X38496Y48100D01*
X38512Y48022D01*
X38556Y47956D01*
X38581Y47930D01*
X38648Y47886D01*
X38726Y47871D01*
X39173D01*
Y47867D01*
X39319D01*
X39530Y47656D01*
X39596Y47612D01*
X39674Y47596D01*
X40430D01*
X40508Y47612D01*
X40541Y47634D01*
X40789D01*
X40853Y47646D01*
X40907Y47682D01*
X40943Y47736D01*
X40956Y47800D01*
X40943Y47864D01*
X40907Y47918D01*
X40853Y47954D01*
X40789Y47966D01*
X40541D01*
X40508Y47988D01*
X40430Y48004D01*
X39759D01*
X39627Y48136D01*
Y48282D01*
X39173D01*
Y48278D01*
X38793D01*
X38778Y48288D01*
X38700Y48304D01*
D02*
G37*
G36*
X24550Y48926D02*
X23978D01*
Y48274D01*
X24136D01*
Y48100D01*
X24146Y48051D01*
X24174Y48009D01*
X24221Y47962D01*
X24208Y47928D01*
X24197Y47850D01*
X24208Y47772D01*
X24238Y47699D01*
X24286Y47636D01*
X24349Y47588D01*
X24422Y47558D01*
X24500Y47547D01*
X24578Y47558D01*
X24651Y47588D01*
X24714Y47636D01*
X24762Y47699D01*
X24792Y47772D01*
X24803Y47850D01*
X24792Y47928D01*
X24762Y48001D01*
X24714Y48064D01*
X24651Y48112D01*
X24578Y48142D01*
X24500Y48153D01*
X24438Y48144D01*
X24400Y48172D01*
X24391Y48184D01*
Y48274D01*
X24550D01*
Y48926D01*
D02*
G37*
G36*
X23825Y48153D02*
X23747Y48142D01*
X23674Y48112D01*
X23611Y48064D01*
X23563Y48001D01*
X23533Y47928D01*
X23522Y47850D01*
X23533Y47772D01*
X23563Y47699D01*
X23611Y47636D01*
X23674Y47588D01*
X23747Y47558D01*
X23825Y47547D01*
X23903Y47558D01*
X23976Y47588D01*
X24039Y47636D01*
X24087Y47699D01*
X24117Y47772D01*
X24128Y47850D01*
X24117Y47928D01*
X24087Y48001D01*
X24039Y48064D01*
X23976Y48112D01*
X23903Y48142D01*
X23825Y48153D01*
D02*
G37*
G36*
X50050Y47830D02*
X48750D01*
Y47502D01*
X48586D01*
X48573Y47523D01*
X48516Y47560D01*
X48450Y47573D01*
X48384Y47560D01*
X48327Y47523D01*
X48290Y47466D01*
X48277Y47400D01*
X48290Y47334D01*
X48327Y47277D01*
X48384Y47240D01*
X48450Y47227D01*
X48516Y47240D01*
X48573Y47277D01*
X48586Y47298D01*
X48750D01*
Y47130D01*
X50050D01*
Y47830D01*
D02*
G37*
G36*
X39394Y47504D02*
X39316Y47488D01*
X39308Y47483D01*
X39123D01*
Y47479D01*
X38791D01*
X38778Y47488D01*
X38700Y47504D01*
X38622Y47488D01*
X38556Y47444D01*
X38512Y47378D01*
X38496Y47300D01*
X38512Y47222D01*
X38556Y47156D01*
X38580Y47131D01*
X38580Y47131D01*
X38646Y47087D01*
X38724Y47072D01*
X38724Y47072D01*
X39123D01*
Y47068D01*
X39577D01*
Y47096D01*
X40430D01*
X40508Y47112D01*
X40541Y47134D01*
X40789D01*
X40853Y47146D01*
X40907Y47182D01*
X40943Y47236D01*
X40956Y47300D01*
X40943Y47364D01*
X40907Y47418D01*
X40853Y47454D01*
X40789Y47466D01*
X40541D01*
X40508Y47488D01*
X40430Y47504D01*
X39394D01*
X39394Y47504D01*
D02*
G37*
G36*
X33094Y48189D02*
X32998Y48176D01*
X32910Y48140D01*
X32833Y48081D01*
X32775Y48005D01*
X32738Y47916D01*
X32726Y47821D01*
X32738Y47726D01*
X32775Y47637D01*
X32833Y47561D01*
X32910Y47502D01*
X32998Y47465D01*
X33094Y47453D01*
X33189Y47465D01*
X33278Y47502D01*
X33354Y47561D01*
X33412Y47637D01*
X33449Y47726D01*
X33462Y47821D01*
X33449Y47916D01*
X33412Y48005D01*
X33354Y48081D01*
X33278Y48140D01*
X33189Y48176D01*
X33094Y48189D01*
D02*
G37*
G36*
X32306D02*
X32211Y48176D01*
X32122Y48140D01*
X32046Y48081D01*
X31988Y48005D01*
X31951Y47916D01*
X31938Y47821D01*
X31951Y47726D01*
X31988Y47637D01*
X32046Y47561D01*
X32122Y47502D01*
X32211Y47465D01*
X32306Y47453D01*
X32402Y47465D01*
X32490Y47502D01*
X32567Y47561D01*
X32625Y47637D01*
X32662Y47726D01*
X32674Y47821D01*
X32662Y47916D01*
X32625Y48005D01*
X32567Y48081D01*
X32490Y48140D01*
X32402Y48176D01*
X32306Y48189D01*
D02*
G37*
G36*
X31519D02*
X31424Y48176D01*
X31335Y48140D01*
X31259Y48081D01*
X31200Y48005D01*
X31163Y47916D01*
X31151Y47821D01*
X31160Y47750D01*
X30364Y46954D01*
X29650D01*
X29572Y46938D01*
X29506Y46894D01*
X29040Y46429D01*
X28996Y46363D01*
X28983Y46296D01*
X28615D01*
Y45336D01*
X28981D01*
Y45199D01*
X28996Y45121D01*
X29040Y45055D01*
X29876Y44220D01*
X29915Y44193D01*
Y43604D01*
X30685D01*
Y44564D01*
X30403D01*
X30393Y44614D01*
X30451Y44638D01*
X30514Y44686D01*
X30562Y44749D01*
X30592Y44822D01*
X30603Y44900D01*
X30592Y44978D01*
X30562Y45051D01*
X30514Y45114D01*
X30504Y45122D01*
Y45336D01*
X30685D01*
Y46296D01*
X29915D01*
Y45336D01*
X30096D01*
Y45122D01*
X30086Y45114D01*
X30038Y45051D01*
X30008Y44978D01*
X29997Y44900D01*
X30008Y44822D01*
X30038Y44749D01*
X30086Y44686D01*
X30149Y44638D01*
X30207Y44614D01*
X30197Y44564D01*
X30135D01*
X30115Y44568D01*
X30104D01*
X29389Y45284D01*
Y45631D01*
X29385Y45651D01*
Y45981D01*
X29389Y46001D01*
Y46200D01*
X29734Y46546D01*
X30448D01*
X30526Y46562D01*
X30592Y46606D01*
X31448Y47462D01*
X31519Y47453D01*
X31614Y47465D01*
X31703Y47502D01*
X31779Y47561D01*
X31838Y47637D01*
X31874Y47726D01*
X31887Y47821D01*
X31874Y47916D01*
X31838Y48005D01*
X31779Y48081D01*
X31703Y48140D01*
X31614Y48176D01*
X31519Y48189D01*
D02*
G37*
G36*
X27238D02*
X27143Y48176D01*
X27054Y48140D01*
X26978Y48081D01*
X26919Y48005D01*
X26882Y47916D01*
X26870Y47821D01*
X26882Y47726D01*
X26919Y47637D01*
X26978Y47561D01*
X27054Y47502D01*
X27143Y47465D01*
X27238Y47453D01*
X27333Y47465D01*
X27422Y47502D01*
X27498Y47561D01*
X27557Y47637D01*
X27593Y47726D01*
X27606Y47821D01*
X27593Y47916D01*
X27557Y48005D01*
X27498Y48081D01*
X27422Y48140D01*
X27333Y48176D01*
X27238Y48189D01*
D02*
G37*
G36*
X22708Y47683D02*
X22639Y47669D01*
X22580Y47630D01*
X22541Y47571D01*
X22527Y47502D01*
X22541Y47432D01*
X22580Y47374D01*
X22639Y47334D01*
X22708Y47320D01*
X22778Y47334D01*
X22837Y47374D01*
X22876Y47432D01*
X22890Y47502D01*
X22876Y47571D01*
X22837Y47630D01*
X22778Y47669D01*
X22708Y47683D01*
D02*
G37*
G36*
X24992Y47679D02*
X24922Y47665D01*
X24863Y47626D01*
X24824Y47567D01*
X24810Y47498D01*
X24824Y47428D01*
X24863Y47370D01*
X24922Y47330D01*
X24992Y47316D01*
X25061Y47330D01*
X25120Y47370D01*
X25159Y47428D01*
X25173Y47498D01*
X25159Y47567D01*
X25120Y47626D01*
X25061Y47665D01*
X24992Y47679D01*
D02*
G37*
G36*
X38235Y46918D02*
X38131Y46905D01*
X38033Y46864D01*
X37950Y46800D01*
X37886Y46717D01*
X37845Y46619D01*
X37832Y46515D01*
X37845Y46413D01*
X37175Y45744D01*
X37131Y45678D01*
X37116Y45600D01*
Y45441D01*
X36494Y44820D01*
X36448Y44839D01*
Y44984D01*
X36174D01*
X36154Y44988D01*
X36026D01*
X36007Y44984D01*
X35954D01*
Y44974D01*
X35948Y44973D01*
X35882Y44929D01*
X35137Y44183D01*
X34971D01*
Y44179D01*
X33207D01*
X32540Y44846D01*
X32474Y44890D01*
X32396Y44906D01*
X32340D01*
Y46098D01*
X31255D01*
Y44790D01*
X31006Y44541D01*
X30962Y44475D01*
X30946Y44396D01*
Y43496D01*
X30765D01*
Y42536D01*
X31535D01*
Y43496D01*
X31354D01*
Y44312D01*
X31544Y44502D01*
X32120D01*
X32140Y44498D01*
X32311D01*
X32978Y43831D01*
X33044Y43787D01*
X33122Y43772D01*
X34971D01*
Y43768D01*
X35425D01*
Y43895D01*
X35577Y44047D01*
X35627Y44026D01*
Y43524D01*
X35471Y43369D01*
X35425Y43388D01*
Y43632D01*
X34971D01*
Y43628D01*
X34213D01*
X34135Y43613D01*
X34069Y43569D01*
X33996Y43496D01*
X33515D01*
Y43220D01*
X32906D01*
Y43496D01*
X32137D01*
Y42536D01*
X32367D01*
X32388Y42486D01*
X31843Y41941D01*
X31798Y41875D01*
X31783Y41797D01*
Y41544D01*
X31727Y41488D01*
X31535D01*
Y41764D01*
X31054D01*
X30998Y41820D01*
X30932Y41864D01*
X30854Y41879D01*
X30277D01*
Y41883D01*
X30255D01*
Y42367D01*
X30279D01*
Y42782D01*
X29825D01*
Y42367D01*
X29847D01*
Y41883D01*
X29823D01*
Y41468D01*
X30277D01*
Y41472D01*
X30765D01*
Y40804D01*
X30946D01*
Y39854D01*
X29200D01*
X29122Y39838D01*
X29056Y39794D01*
X29012Y39728D01*
X28996Y39650D01*
X29012Y39572D01*
X29056Y39506D01*
X29122Y39462D01*
X29200Y39446D01*
X31764D01*
X31842Y39462D01*
X31891Y39494D01*
X32448D01*
X32526Y39510D01*
X32592Y39554D01*
X32637Y39620D01*
X32652Y39698D01*
X32637Y39776D01*
X32592Y39842D01*
X32526Y39887D01*
X32448Y39902D01*
X31798D01*
X31720Y39887D01*
X31671Y39854D01*
X31354D01*
Y40804D01*
X31535D01*
Y41080D01*
X31811D01*
X31889Y41095D01*
X31955Y41140D01*
X32131Y41315D01*
X32175Y41382D01*
X32191Y41460D01*
Y41712D01*
X32660Y42182D01*
X34719D01*
X34767Y42177D01*
X34767Y41723D01*
X34771D01*
Y41488D01*
X34285D01*
Y41764D01*
X33515D01*
Y40804D01*
X33696D01*
Y39890D01*
X33156Y39349D01*
X33050Y39363D01*
X32944Y39349D01*
X32846Y39309D01*
X32762Y39244D01*
X32697Y39159D01*
X32656Y39061D01*
X32642Y38956D01*
Y38641D01*
X32656Y38535D01*
X32697Y38437D01*
X32762Y38352D01*
X32846Y38287D01*
X32944Y38247D01*
X33050Y38233D01*
X33156Y38247D01*
X33254Y38287D01*
X33338Y38352D01*
X33403Y38437D01*
X33444Y38535D01*
X33458Y38641D01*
Y38956D01*
X33444Y39061D01*
X33984Y39602D01*
X41216D01*
X41756Y39061D01*
X41742Y38956D01*
Y38641D01*
X41756Y38535D01*
X41797Y38437D01*
X41862Y38352D01*
X41946Y38287D01*
X42044Y38247D01*
X42150Y38233D01*
X42256Y38247D01*
X42354Y38287D01*
X42438Y38352D01*
X42503Y38437D01*
X42544Y38535D01*
X42558Y38641D01*
Y38956D01*
X42544Y39061D01*
X42503Y39159D01*
X42438Y39244D01*
X42354Y39309D01*
X42256Y39349D01*
X42150Y39363D01*
X42044Y39349D01*
X41444Y39950D01*
X41378Y39994D01*
X41300Y40009D01*
X34104D01*
Y40804D01*
X34285D01*
Y41080D01*
X34767D01*
Y40923D01*
X35182D01*
Y41377D01*
X35178D01*
Y41723D01*
X35182D01*
Y42177D01*
X34914D01*
X34899Y42227D01*
X34921Y42242D01*
X35975Y43296D01*
X36019Y43362D01*
X36035Y43440D01*
Y43935D01*
X36039Y43938D01*
X36089Y43911D01*
Y43163D01*
X36589D01*
X37061Y42691D01*
Y41511D01*
X37071Y41462D01*
X37099Y41421D01*
X37688Y40832D01*
X37677Y40775D01*
X37690Y40709D01*
X37727Y40652D01*
X37784Y40615D01*
X37850Y40602D01*
X37916Y40615D01*
X37973Y40652D01*
X38010Y40709D01*
X38023Y40775D01*
X38010Y40841D01*
X37973Y40898D01*
X37965Y40902D01*
X37940Y40940D01*
X37316Y41564D01*
Y42744D01*
X37306Y42793D01*
X37279Y42834D01*
X36770Y43343D01*
Y44137D01*
X36260D01*
X36241Y44183D01*
X36288Y44230D01*
X36397D01*
X36475Y44246D01*
X36542Y44290D01*
X37464Y45212D01*
X37508Y45279D01*
X37524Y45357D01*
Y45515D01*
X38133Y46125D01*
X38235Y46112D01*
X38339Y46125D01*
X38437Y46166D01*
X38520Y46230D01*
X38584Y46313D01*
X38625Y46411D01*
X38638Y46515D01*
X38625Y46619D01*
X38584Y46717D01*
X38520Y46800D01*
X38437Y46864D01*
X38339Y46905D01*
X38235Y46918D01*
D02*
G37*
G36*
X44530Y45966D02*
X43811D01*
X43747Y45954D01*
X43693Y45918D01*
X43657Y45864D01*
X43644Y45800D01*
X43657Y45736D01*
X43693Y45682D01*
X43747Y45646D01*
X43811Y45634D01*
X44530D01*
X44593Y45646D01*
X44647Y45682D01*
X44683Y45736D01*
X44696Y45800D01*
X44683Y45864D01*
X44647Y45918D01*
X44593Y45954D01*
X44530Y45966D01*
D02*
G37*
G36*
X40789D02*
X40070D01*
X40007Y45954D01*
X39953Y45918D01*
X39917Y45864D01*
X39904Y45800D01*
X39917Y45736D01*
X39953Y45682D01*
X40007Y45646D01*
X40070Y45634D01*
X40789D01*
X40853Y45646D01*
X40907Y45682D01*
X40943Y45736D01*
X40956Y45800D01*
X40943Y45864D01*
X40907Y45918D01*
X40853Y45954D01*
X40789Y45966D01*
D02*
G37*
G36*
X44530Y46966D02*
X43811D01*
X43747Y46954D01*
X43693Y46918D01*
X43657Y46864D01*
X43644Y46800D01*
X43657Y46736D01*
X43693Y46682D01*
X43747Y46646D01*
X43811Y46634D01*
X44043D01*
Y46466D01*
X43811D01*
X43747Y46454D01*
X43693Y46418D01*
X43657Y46364D01*
X43644Y46300D01*
X43657Y46236D01*
X43693Y46182D01*
X43747Y46146D01*
X43811Y46134D01*
X44530D01*
X44593Y46146D01*
X44632Y46173D01*
X45094D01*
X45110Y46160D01*
Y45855D01*
X45030D01*
Y45438D01*
X45470D01*
Y45855D01*
X45365D01*
Y46223D01*
X45432D01*
Y46677D01*
X45017D01*
Y46427D01*
X44632D01*
X44593Y46454D01*
X44530Y46466D01*
X44298D01*
Y46634D01*
X44530D01*
X44593Y46646D01*
X44647Y46682D01*
X44683Y46736D01*
X44696Y46800D01*
X44683Y46864D01*
X44647Y46918D01*
X44593Y46954D01*
X44530Y46966D01*
D02*
G37*
G36*
Y45466D02*
X43811D01*
X43747Y45454D01*
X43693Y45418D01*
X43657Y45364D01*
X43644Y45300D01*
X43657Y45236D01*
X43693Y45182D01*
X43747Y45146D01*
X43811Y45134D01*
X44530D01*
X44593Y45146D01*
X44647Y45182D01*
X44683Y45236D01*
X44696Y45300D01*
X44683Y45364D01*
X44647Y45418D01*
X44593Y45454D01*
X44530Y45466D01*
D02*
G37*
G36*
X40789D02*
X40070D01*
X40007Y45454D01*
X39953Y45418D01*
X39917Y45364D01*
X39904Y45300D01*
X39917Y45236D01*
X39953Y45182D01*
X40007Y45146D01*
X40070Y45134D01*
X40789D01*
X40853Y45146D01*
X40907Y45182D01*
X40943Y45236D01*
X40956Y45300D01*
X40943Y45364D01*
X40907Y45418D01*
X40853Y45454D01*
X40789Y45466D01*
D02*
G37*
G36*
X25112Y45470D02*
X24695D01*
Y45362D01*
X24054D01*
X24005Y45352D01*
X24001Y45349D01*
X23867D01*
X23821Y45340D01*
X23781Y45314D01*
X23755Y45274D01*
X23746Y45228D01*
X23755Y45182D01*
X23781Y45142D01*
X23821Y45116D01*
X23867Y45107D01*
X24017D01*
X24048Y45101D01*
X24079Y45107D01*
X24695D01*
Y45030D01*
X25112D01*
Y45470D01*
D02*
G37*
G36*
X40789Y46966D02*
X40070D01*
X40007Y46954D01*
X39953Y46918D01*
X39917Y46864D01*
X39904Y46800D01*
X39917Y46736D01*
X39953Y46682D01*
X40007Y46646D01*
X40070Y46634D01*
X40302D01*
Y46466D01*
X40070D01*
X40007Y46454D01*
X39953Y46418D01*
X39917Y46364D01*
X39908Y46318D01*
X39368Y45778D01*
X39340Y45737D01*
X39331Y45688D01*
Y45627D01*
X39168D01*
Y45173D01*
X39259D01*
Y44970D01*
X39188D01*
Y44530D01*
X39605D01*
Y44970D01*
X39513D01*
Y45173D01*
X39583D01*
Y45470D01*
X39585Y45482D01*
Y45635D01*
X40084Y46134D01*
X40789D01*
X40853Y46146D01*
X40907Y46182D01*
X40943Y46236D01*
X40956Y46300D01*
X40943Y46364D01*
X40907Y46418D01*
X40853Y46454D01*
X40789Y46466D01*
X40557D01*
Y46634D01*
X40789D01*
X40853Y46646D01*
X40907Y46682D01*
X40943Y46736D01*
X40956Y46800D01*
X40943Y46864D01*
X40907Y46918D01*
X40853Y46954D01*
X40789Y46966D01*
D02*
G37*
G36*
X27350Y45058D02*
X27244Y45044D01*
X27146Y45003D01*
X27062Y44938D01*
X26997Y44854D01*
X26956Y44756D01*
X26942Y44650D01*
X26956Y44544D01*
X26997Y44446D01*
X27062Y44362D01*
X27146Y44297D01*
X27197Y44276D01*
Y43310D01*
X26320D01*
Y43160D01*
X25683D01*
X24342Y44501D01*
X24341Y44506D01*
X24320Y44539D01*
X24328Y44567D01*
X24341Y44589D01*
X24675D01*
X24717Y44547D01*
Y44273D01*
X25132D01*
Y44727D01*
X24897D01*
X24818Y44806D01*
X24777Y44834D01*
X24728Y44843D01*
X24048D01*
X24017Y44837D01*
X23867D01*
X23821Y44828D01*
X23781Y44802D01*
X23755Y44762D01*
X23746Y44716D01*
X23755Y44670D01*
X23781Y44630D01*
X23803Y44616D01*
X23803Y44615D01*
Y44561D01*
X23803Y44560D01*
X23781Y44546D01*
X23755Y44506D01*
X23746Y44460D01*
X23755Y44414D01*
X23781Y44374D01*
X23821Y44348D01*
X23867Y44339D01*
X23959D01*
X23990Y44319D01*
X24048Y44307D01*
X24104D01*
X25512Y42899D01*
X25561Y42866D01*
X25620Y42854D01*
X26320D01*
Y42705D01*
X27780D01*
Y42851D01*
X28167D01*
Y42773D01*
X28582D01*
Y43227D01*
X28167D01*
Y43157D01*
X27780D01*
Y43310D01*
X27503D01*
Y44276D01*
X27554Y44297D01*
X27638Y44362D01*
X27703Y44446D01*
X27724Y44497D01*
X28466D01*
X28615Y44348D01*
Y43604D01*
X29385D01*
Y44564D01*
X28832D01*
X28637Y44758D01*
X28588Y44791D01*
X28529Y44803D01*
X27724D01*
X27703Y44854D01*
X27638Y44938D01*
X27554Y45003D01*
X27456Y45044D01*
X27350Y45058D01*
D02*
G37*
G36*
X44480Y44366D02*
X43761D01*
X43697Y44354D01*
X43643Y44318D01*
X43607Y44264D01*
X43594Y44200D01*
X43607Y44136D01*
X43643Y44082D01*
X43697Y44046D01*
X43761Y44034D01*
X44480D01*
X44543Y44046D01*
X44597Y44082D01*
X44633Y44136D01*
X44646Y44200D01*
X44633Y44264D01*
X44597Y44318D01*
X44543Y44354D01*
X44480Y44366D01*
D02*
G37*
G36*
X40739D02*
X40020D01*
X39957Y44354D01*
X39903Y44318D01*
X39867Y44264D01*
X39854Y44200D01*
X39867Y44136D01*
X39903Y44082D01*
X39957Y44046D01*
X40020Y44034D01*
X40739D01*
X40803Y44046D01*
X40857Y44082D01*
X40893Y44136D01*
X40906Y44200D01*
X40893Y44264D01*
X40857Y44318D01*
X40803Y44354D01*
X40739Y44366D01*
D02*
G37*
G36*
X44480Y43866D02*
X43761D01*
X43697Y43854D01*
X43643Y43818D01*
X43607Y43764D01*
X43594Y43700D01*
X43607Y43636D01*
X43643Y43582D01*
X43697Y43546D01*
X43761Y43534D01*
X44480D01*
X44543Y43546D01*
X44597Y43582D01*
X44633Y43636D01*
X44646Y43700D01*
X44633Y43764D01*
X44597Y43818D01*
X44543Y43854D01*
X44480Y43866D01*
D02*
G37*
G36*
X40739D02*
X40020D01*
X39957Y43854D01*
X39903Y43818D01*
X39867Y43764D01*
X39854Y43700D01*
X39867Y43636D01*
X39903Y43582D01*
X39957Y43546D01*
X40020Y43534D01*
X40739D01*
X40803Y43546D01*
X40857Y43582D01*
X40893Y43636D01*
X40906Y43700D01*
X40893Y43764D01*
X40857Y43818D01*
X40803Y43854D01*
X40739Y43866D01*
D02*
G37*
G36*
X45370Y43412D02*
X44930D01*
Y43329D01*
X44580D01*
X44543Y43354D01*
X44480Y43366D01*
X43761D01*
X43697Y43354D01*
X43643Y43318D01*
X43607Y43264D01*
X43594Y43200D01*
X43607Y43136D01*
X43643Y43082D01*
X43697Y43046D01*
X43761Y43034D01*
X44480D01*
X44543Y43046D01*
X44585Y43074D01*
X44930D01*
Y42995D01*
X45060D01*
Y42677D01*
X45017D01*
Y42223D01*
X45432D01*
Y42677D01*
X45315D01*
Y42995D01*
X45370D01*
Y43412D01*
D02*
G37*
G36*
X39032Y45627D02*
X38617D01*
Y45353D01*
X37896Y44632D01*
X37868Y44590D01*
X37858Y44541D01*
Y44137D01*
X37430D01*
Y43163D01*
X38111D01*
Y43853D01*
X38113Y43865D01*
Y44489D01*
X38797Y45173D01*
X39032D01*
Y45627D01*
D02*
G37*
G36*
X45970Y43412D02*
X45530D01*
Y42995D01*
X45635D01*
Y42677D01*
X45568D01*
Y42223D01*
X45983D01*
Y42323D01*
X46073D01*
Y40365D01*
X46040Y40316D01*
X46027Y40250D01*
X46040Y40184D01*
X46077Y40127D01*
X46134Y40090D01*
X46200Y40077D01*
X46266Y40090D01*
X46323Y40127D01*
X46360Y40184D01*
X46373Y40250D01*
X46360Y40316D01*
X46327Y40365D01*
Y42335D01*
X46360Y42384D01*
X46373Y42450D01*
X46360Y42516D01*
X46323Y42573D01*
X46266Y42610D01*
X46200Y42623D01*
X46134Y42610D01*
X46085Y42577D01*
X45983D01*
Y42677D01*
X45890D01*
Y42995D01*
X45970D01*
Y43074D01*
X46082D01*
X46134Y43040D01*
X46200Y43027D01*
X46266Y43040D01*
X46323Y43077D01*
X46360Y43134D01*
X46373Y43200D01*
X46360Y43266D01*
X46323Y43323D01*
X46266Y43360D01*
X46200Y43373D01*
X46134Y43360D01*
X46087Y43329D01*
X45970D01*
Y43412D01*
D02*
G37*
G36*
X45977Y48027D02*
X45562D01*
Y47573D01*
X45656D01*
Y47320D01*
X45588D01*
Y46880D01*
X45836D01*
X45992Y46724D01*
X45993Y46723D01*
X45968Y46677D01*
X45939Y46677D01*
X45568D01*
Y46223D01*
X45648D01*
Y45224D01*
X45658Y45176D01*
X45685Y45134D01*
X46473Y44347D01*
Y40126D01*
X46307Y39961D01*
X45513D01*
Y39302D01*
X45137D01*
Y39780D01*
X45852Y40496D01*
X45880Y40537D01*
X45890Y40586D01*
Y40673D01*
X45983D01*
Y41127D01*
X45568D01*
Y40673D01*
X45598D01*
X45619Y40623D01*
X44957Y39961D01*
X44163D01*
Y39302D01*
X44126D01*
X44087Y39294D01*
X44054Y39272D01*
X43604Y38822D01*
X43558Y38842D01*
Y38959D01*
X43544Y39065D01*
X43503Y39163D01*
X43438Y39248D01*
X43354Y39313D01*
Y41095D01*
X43338Y41173D01*
X43294Y41239D01*
X42646Y41887D01*
X42623Y41923D01*
X42587Y41946D01*
X41226Y43307D01*
X41160Y43351D01*
X41082Y43367D01*
X40501D01*
X40487Y43381D01*
X40421Y43425D01*
X40343Y43441D01*
X39923D01*
X39483Y43881D01*
Y44027D01*
X39068D01*
Y43573D01*
X39214D01*
X39460Y43327D01*
X39439Y43277D01*
X39068D01*
Y42823D01*
X39195D01*
X39462Y42556D01*
X39505Y42527D01*
X39489Y42477D01*
X39462Y42477D01*
X39462Y42477D01*
X39461Y42477D01*
X39093D01*
Y42023D01*
X39171D01*
Y41720D01*
X39088D01*
Y41280D01*
X39505D01*
Y41720D01*
X39426D01*
Y42023D01*
X39507D01*
Y42087D01*
X39900D01*
X39903Y42082D01*
X39957Y42046D01*
X40020Y42034D01*
X40252D01*
Y41866D01*
X40020D01*
X39957Y41854D01*
X39903Y41818D01*
X39867Y41764D01*
X39854Y41700D01*
X39867Y41636D01*
X39903Y41582D01*
X39957Y41546D01*
X40020Y41534D01*
X40739D01*
X40803Y41546D01*
X40857Y41582D01*
X40893Y41636D01*
X40906Y41700D01*
X40893Y41764D01*
X40857Y41818D01*
X40803Y41854D01*
X40739Y41866D01*
X40507D01*
Y42034D01*
X40739D01*
X40803Y42046D01*
X40857Y42082D01*
X40893Y42136D01*
X40906Y42200D01*
X40893Y42264D01*
X40857Y42318D01*
X40803Y42354D01*
X40739Y42366D01*
X40020D01*
X39957Y42354D01*
X39939Y42342D01*
X39507D01*
Y42433D01*
X39507Y42469D01*
X39509Y42471D01*
X39545Y42508D01*
X39551Y42507D01*
X39606Y42496D01*
X40966D01*
X41346Y42116D01*
Y42000D01*
X41362Y41922D01*
X41406Y41856D01*
X41472Y41812D01*
X41550Y41796D01*
X41628Y41812D01*
X41694Y41856D01*
X41738Y41922D01*
X41754Y42000D01*
Y42132D01*
X41804Y42153D01*
X42946Y41011D01*
Y39313D01*
X42862Y39248D01*
X42797Y39163D01*
X42756Y39065D01*
X42742Y38959D01*
Y38644D01*
X42756Y38539D01*
X41801Y37584D01*
X41505D01*
Y37780D01*
X41486Y37878D01*
X41430Y37960D01*
X41348Y38015D01*
X41250Y38035D01*
X41152Y38015D01*
X41070Y37960D01*
X41014Y37878D01*
X40995Y37780D01*
Y37584D01*
X40328D01*
X40250Y37568D01*
X40184Y37524D01*
X40011Y37351D01*
X39427D01*
Y37355D01*
X38973D01*
Y37228D01*
X37336Y35591D01*
X37292Y35525D01*
X37276Y35447D01*
Y33638D01*
X37212Y33588D01*
X37147Y33504D01*
X37106Y33406D01*
X37092Y33300D01*
X37106Y33194D01*
X37147Y33096D01*
X37212Y33012D01*
X37296Y32947D01*
X37394Y32906D01*
X37500Y32892D01*
X37606Y32906D01*
X37704Y32947D01*
X37788Y33012D01*
X37853Y33096D01*
X37894Y33194D01*
X37908Y33300D01*
X37894Y33406D01*
X37853Y33504D01*
X37788Y33588D01*
X37704Y33653D01*
X37684Y33661D01*
Y33745D01*
X37730Y33764D01*
X37804Y33690D01*
X37837Y33668D01*
X37876Y33661D01*
X38224D01*
X38241Y33611D01*
X38212Y33588D01*
X38147Y33504D01*
X38106Y33406D01*
X38092Y33300D01*
X38106Y33194D01*
X38147Y33096D01*
X38212Y33012D01*
X38296Y32947D01*
X38394Y32906D01*
X38500Y32892D01*
X38606Y32906D01*
X38682Y32938D01*
X38893Y32727D01*
Y32533D01*
X38843Y32517D01*
X38788Y32588D01*
X38704Y32653D01*
X38606Y32694D01*
X38500Y32708D01*
X38394Y32694D01*
X38296Y32653D01*
X38212Y32588D01*
X38147Y32504D01*
X38106Y32406D01*
X38092Y32300D01*
X38106Y32194D01*
X38147Y32096D01*
X38212Y32012D01*
X38296Y31947D01*
X38394Y31906D01*
X38500Y31892D01*
X38606Y31906D01*
X38704Y31947D01*
X38788Y32012D01*
X38845Y32086D01*
X38883Y32083D01*
X38898Y32076D01*
X38903Y32053D01*
X38931Y32011D01*
X39211Y31731D01*
X39227Y31720D01*
X40145Y30801D01*
X40126Y30755D01*
X40035D01*
X39870Y30920D01*
X39829Y30948D01*
X39780Y30958D01*
X34690D01*
X34642Y30948D01*
X34600Y30920D01*
X34174Y30494D01*
X34099Y30525D01*
X33995Y30538D01*
X33891Y30525D01*
X33793Y30484D01*
X33710Y30420D01*
X33646Y30337D01*
X33615Y30262D01*
X32885D01*
X32836Y30253D01*
X32795Y30225D01*
X31597Y29027D01*
X31000D01*
Y29800D01*
X30702D01*
Y30753D01*
X30694Y30792D01*
X30672Y30825D01*
X28658Y32839D01*
Y32861D01*
X29006Y33209D01*
X29320D01*
Y33627D01*
X28880D01*
Y33371D01*
X28513Y33005D01*
X28136D01*
Y32695D01*
X28513D01*
X30498Y30711D01*
Y29800D01*
X30200D01*
Y29034D01*
X30150Y29030D01*
X29959Y29221D01*
X29990Y29296D01*
X30003Y29400D01*
X29990Y29504D01*
X29949Y29602D01*
X29885Y29685D01*
X29802Y29749D01*
X29704Y29790D01*
X29600Y29803D01*
X29496Y29790D01*
X29398Y29749D01*
X29315Y29685D01*
X29251Y29602D01*
X29210Y29504D01*
X29197Y29400D01*
X29210Y29296D01*
X29251Y29198D01*
X29315Y29115D01*
X29398Y29051D01*
X29496Y29010D01*
X29600Y28997D01*
X29704Y29010D01*
X29779Y29041D01*
X30010Y28810D01*
X30051Y28782D01*
X30100Y28773D01*
X31650D01*
X31699Y28782D01*
X31740Y28810D01*
X32938Y30008D01*
X33615D01*
X33646Y29933D01*
X33710Y29850D01*
X33793Y29786D01*
X33891Y29745D01*
X33995Y29732D01*
X34099Y29745D01*
X34174Y29776D01*
X34858Y29092D01*
Y28545D01*
X34783Y28514D01*
X34700Y28450D01*
X34636Y28367D01*
X34595Y28269D01*
X34582Y28165D01*
X34595Y28061D01*
X34636Y27963D01*
X34700Y27880D01*
X34768Y27827D01*
X34751Y27777D01*
X28603D01*
X27935Y28445D01*
X27931Y28448D01*
X27946Y28498D01*
X32609D01*
X32648Y28506D01*
X32658Y28513D01*
X33372D01*
X33382Y28506D01*
X33421Y28498D01*
X33714D01*
X33727Y28477D01*
X33784Y28440D01*
X33850Y28427D01*
X33916Y28440D01*
X33973Y28477D01*
X34010Y28534D01*
X34023Y28600D01*
X34010Y28666D01*
X33973Y28723D01*
X33916Y28760D01*
X33850Y28773D01*
X33784Y28760D01*
X33727Y28723D01*
X33714Y28702D01*
X33456D01*
X33445Y28709D01*
X33406Y28717D01*
X32624D01*
X32585Y28709D01*
X32574Y28702D01*
X27389D01*
X27375Y28723D01*
X27319Y28760D01*
X27253Y28773D01*
X27186Y28760D01*
X27130Y28723D01*
X27092Y28666D01*
X27079Y28600D01*
X27092Y28534D01*
X27097Y28527D01*
X27074Y28482D01*
X25698D01*
X24959Y29221D01*
X24990Y29296D01*
X25003Y29400D01*
X24990Y29504D01*
X24949Y29602D01*
X24885Y29685D01*
X24802Y29749D01*
X24704Y29790D01*
X24600Y29803D01*
X24496Y29790D01*
X24398Y29749D01*
X24315Y29685D01*
X24251Y29602D01*
X24210Y29504D01*
X24197Y29400D01*
X24210Y29296D01*
X24251Y29198D01*
X24315Y29115D01*
X24398Y29051D01*
X24496Y29010D01*
X24600Y28997D01*
X24704Y29010D01*
X24779Y29041D01*
X25555Y28265D01*
X25596Y28237D01*
X25645Y28228D01*
X27792D01*
X28460Y27560D01*
X28501Y27532D01*
X28550Y27523D01*
X37870D01*
X37919Y27532D01*
X37960Y27560D01*
X38206Y27806D01*
X38281Y27775D01*
X38385Y27762D01*
X38489Y27775D01*
X38587Y27816D01*
X38670Y27880D01*
X38734Y27963D01*
X38748Y27996D01*
X38798Y27986D01*
Y27877D01*
X38276Y27355D01*
X37980D01*
Y26938D01*
X38420D01*
Y27211D01*
X38972Y27763D01*
X38994Y27796D01*
X39002Y27835D01*
Y30008D01*
X39130Y30136D01*
X39180Y30118D01*
Y29745D01*
X39620D01*
Y29851D01*
X39855D01*
Y29745D01*
X39867D01*
Y28674D01*
X39785Y28640D01*
X39709Y28582D01*
X39650Y28505D01*
X39613Y28417D01*
X39601Y28321D01*
X39613Y28226D01*
X39650Y28137D01*
X39709Y28061D01*
X39785Y28002D01*
X39874Y27966D01*
X39969Y27953D01*
X40064Y27966D01*
X40153Y28002D01*
X40229Y28061D01*
X40288Y28137D01*
X40324Y28226D01*
X40337Y28321D01*
X40324Y28417D01*
X40288Y28505D01*
X40229Y28582D01*
X40153Y28640D01*
X40071Y28674D01*
Y29745D01*
X40295D01*
Y30148D01*
X40530D01*
Y29745D01*
X40654D01*
Y28674D01*
X40572Y28640D01*
X40496Y28582D01*
X40438Y28505D01*
X40401Y28417D01*
X40388Y28321D01*
X40401Y28226D01*
X40438Y28137D01*
X40496Y28061D01*
X40572Y28002D01*
X40661Y27966D01*
X40756Y27953D01*
X40852Y27966D01*
X40940Y28002D01*
X41017Y28061D01*
X41075Y28137D01*
X41112Y28226D01*
X41124Y28321D01*
X41112Y28417D01*
X41075Y28505D01*
X41017Y28582D01*
X40940Y28640D01*
X40858Y28674D01*
Y29745D01*
X40970D01*
Y30148D01*
X44908D01*
X45998Y29058D01*
Y24803D01*
X45916Y24769D01*
X45840Y24710D01*
X45781Y24634D01*
X45744Y24545D01*
X45732Y24450D01*
X45744Y24355D01*
X45781Y24266D01*
X45840Y24190D01*
X45916Y24131D01*
X46005Y24094D01*
X46100Y24082D01*
X46195Y24094D01*
X46284Y24131D01*
X46360Y24190D01*
X46419Y24266D01*
X46456Y24355D01*
X46468Y24450D01*
X46456Y24545D01*
X46419Y24634D01*
X46360Y24710D01*
X46284Y24769D01*
X46202Y24803D01*
Y29100D01*
X46194Y29139D01*
X46172Y29172D01*
X45022Y30322D01*
X44989Y30344D01*
X44950Y30352D01*
X40970D01*
Y30755D01*
X40679D01*
X40666Y30758D01*
X40545D01*
X40470Y30832D01*
X40460Y30847D01*
X40228Y31079D01*
X40230Y31090D01*
X40286Y31129D01*
X40300Y31127D01*
X40366Y31140D01*
X40423Y31177D01*
X40460Y31234D01*
X40473Y31298D01*
X45616D01*
X45655Y31306D01*
X45689Y31328D01*
X45718Y31357D01*
X45745Y31352D01*
X45811Y31365D01*
X45868Y31402D01*
X45905Y31459D01*
X45918Y31525D01*
X45905Y31591D01*
X45868Y31648D01*
X45811Y31685D01*
X45745Y31698D01*
X45679Y31685D01*
X45622Y31648D01*
X45585Y31591D01*
X45572Y31525D01*
X45525Y31502D01*
X44511D01*
X44492Y31548D01*
X46322Y33378D01*
X46344Y33411D01*
X46352Y33450D01*
Y35993D01*
X46424Y36065D01*
X46465Y36056D01*
X46539Y36071D01*
X46602Y36113D01*
X46644Y36176D01*
X46659Y36250D01*
X46644Y36324D01*
X46602Y36387D01*
X46539Y36429D01*
X46465Y36444D01*
X46391Y36429D01*
X46328Y36387D01*
X46286Y36324D01*
X46271Y36250D01*
X46279Y36209D01*
X46209Y36138D01*
X46172Y36142D01*
X46106Y36209D01*
X46114Y36250D01*
X46099Y36324D01*
X46057Y36387D01*
X45994Y36429D01*
X45920Y36444D01*
X45846Y36429D01*
X45783Y36387D01*
X45741Y36324D01*
X45726Y36250D01*
X45741Y36176D01*
X45783Y36113D01*
X45846Y36071D01*
X45920Y36056D01*
X45961Y36065D01*
X45998Y36028D01*
Y33554D01*
X44246Y31802D01*
X43142D01*
X42851Y32093D01*
X42853Y32096D01*
X42894Y32194D01*
X42908Y32300D01*
X42894Y32406D01*
X42853Y32504D01*
X42788Y32588D01*
X42704Y32653D01*
X42606Y32694D01*
X42500Y32708D01*
X42394Y32694D01*
X42296Y32653D01*
X42212Y32588D01*
X42168Y32531D01*
X42152Y32530D01*
X42110Y32538D01*
X42090Y32568D01*
X41768Y32890D01*
X41727Y32918D01*
X41678Y32927D01*
X40188D01*
X40139Y32918D01*
X40098Y32890D01*
X39931Y32723D01*
X39903Y32682D01*
X39893Y32633D01*
Y32533D01*
X39843Y32517D01*
X39788Y32588D01*
X39704Y32653D01*
X39606Y32694D01*
X39500Y32708D01*
X39394Y32694D01*
X39366Y32682D01*
X39298Y32751D01*
Y32854D01*
X39290Y32893D01*
X39288Y32896D01*
X39321Y32936D01*
X39394Y32906D01*
X39500Y32892D01*
X39606Y32906D01*
X39704Y32947D01*
X39788Y33012D01*
X39853Y33096D01*
X39894Y33194D01*
X39908Y33300D01*
X39894Y33406D01*
X39853Y33504D01*
X39788Y33588D01*
X39704Y33653D01*
X39606Y33694D01*
X39500Y33708D01*
X39394Y33694D01*
X39296Y33653D01*
X39212Y33588D01*
X39152Y33511D01*
X39127Y33513D01*
X39102Y33524D01*
Y33600D01*
X39094Y33639D01*
X39072Y33672D01*
X38910Y33835D01*
X38876Y33857D01*
X38837Y33865D01*
X38479D01*
X38459Y33915D01*
X40822Y36278D01*
X42204D01*
X42243Y36286D01*
X42276Y36308D01*
X43976Y38008D01*
X43999Y38041D01*
X44006Y38080D01*
Y38512D01*
X44113Y38619D01*
X44163Y38598D01*
X44163Y38579D01*
Y37939D01*
X45137D01*
Y38475D01*
X45310Y38648D01*
X45475D01*
X45513Y38620D01*
Y37939D01*
X45833D01*
Y37760D01*
X45798Y37737D01*
X45756Y37674D01*
X45741Y37600D01*
X45756Y37526D01*
X45798Y37463D01*
X45861Y37421D01*
X45935Y37406D01*
X46009Y37421D01*
X46072Y37463D01*
X46114Y37526D01*
X46129Y37600D01*
X46114Y37674D01*
X46072Y37737D01*
X46037Y37760D01*
Y37939D01*
X46487D01*
Y38553D01*
X46533Y38573D01*
X46598Y38508D01*
Y37760D01*
X46563Y37737D01*
X46521Y37674D01*
X46506Y37600D01*
X46521Y37526D01*
X46563Y37463D01*
X46626Y37421D01*
X46700Y37406D01*
X46774Y37421D01*
X46837Y37463D01*
X46879Y37526D01*
X46894Y37600D01*
X46879Y37674D01*
X46837Y37737D01*
X46802Y37760D01*
Y38550D01*
X46794Y38589D01*
X46772Y38622D01*
X46631Y38763D01*
X46640Y38825D01*
X46644Y38828D01*
X47572Y39756D01*
X47594Y39789D01*
X47602Y39828D01*
Y42058D01*
X48642Y43098D01*
X49800D01*
X49839Y43106D01*
X49872Y43128D01*
X51272Y44528D01*
X51294Y44561D01*
X51302Y44600D01*
Y45400D01*
X51706D01*
X52098Y45008D01*
X52131Y44986D01*
X52170Y44978D01*
X53300D01*
Y44730D01*
X53848D01*
Y43227D01*
X53476Y42855D01*
X53180D01*
Y42438D01*
X53620D01*
Y42711D01*
X54022Y43113D01*
X54044Y43146D01*
X54052Y43185D01*
Y44730D01*
X54573D01*
Y43317D01*
X54123Y42867D01*
X54115Y42855D01*
X53880D01*
Y42438D01*
X54320D01*
Y42776D01*
X54747Y43203D01*
X54769Y43236D01*
X54777Y43275D01*
Y47055D01*
X54769Y47094D01*
X54747Y47127D01*
X54600Y47274D01*
Y47830D01*
X53300D01*
Y47582D01*
X51530D01*
X51491Y47574D01*
X51458Y47552D01*
X50228Y46322D01*
X50206Y46289D01*
X50198Y46250D01*
Y43992D01*
X49658Y43452D01*
X48637D01*
X48618Y43498D01*
X48922Y43802D01*
X48944Y43835D01*
X48952Y43874D01*
Y44730D01*
X50050D01*
Y45430D01*
X49187D01*
X49175Y45432D01*
X48190D01*
X48009Y45614D01*
X48035Y45658D01*
X48111Y45668D01*
X48191Y45702D01*
X48260Y45755D01*
X48313Y45824D01*
X48347Y45904D01*
X48358Y45990D01*
X48347Y46076D01*
X48313Y46156D01*
X48260Y46225D01*
X48191Y46278D01*
X48111Y46312D01*
X48025Y46323D01*
X47939Y46312D01*
X47859Y46278D01*
X47790Y46225D01*
X47737Y46156D01*
X47703Y46076D01*
X47692Y45990D01*
X47701Y45926D01*
X47700Y45923D01*
X47670Y45883D01*
X47660Y45877D01*
X47300D01*
Y46100D01*
X46777D01*
Y46247D01*
X46768Y46295D01*
X46740Y46337D01*
X46005Y47071D01*
Y47320D01*
X45910D01*
Y47573D01*
X45977D01*
Y48027D01*
D02*
G37*
G36*
X38111Y42737D02*
X37430D01*
Y41763D01*
X38111D01*
Y42123D01*
X38541D01*
Y42023D01*
X38956D01*
Y42477D01*
X38541D01*
Y42377D01*
X38111D01*
Y42737D01*
D02*
G37*
G36*
X44480Y41366D02*
X43761D01*
X43697Y41354D01*
X43643Y41318D01*
X43607Y41264D01*
X43594Y41200D01*
X43607Y41136D01*
X43643Y41082D01*
X43697Y41046D01*
X43761Y41034D01*
X44480D01*
X44543Y41046D01*
X44597Y41082D01*
X44633Y41136D01*
X44646Y41200D01*
X44633Y41264D01*
X44597Y41318D01*
X44543Y41354D01*
X44480Y41366D01*
D02*
G37*
G36*
X40739D02*
X40020D01*
X39957Y41354D01*
X39903Y41318D01*
X39867Y41264D01*
X39854Y41200D01*
X39867Y41136D01*
X39903Y41082D01*
X39957Y41046D01*
X40020Y41034D01*
X40739D01*
X40803Y41046D01*
X40857Y41082D01*
X40893Y41136D01*
X40906Y41200D01*
X40893Y41264D01*
X40857Y41318D01*
X40803Y41354D01*
X40739Y41366D01*
D02*
G37*
G36*
X49134Y42782D02*
X48717D01*
Y42342D01*
X48806D01*
Y42045D01*
X48733D01*
Y41591D01*
X48880D01*
Y41171D01*
X48869Y41154D01*
X48856Y41090D01*
Y40929D01*
X48299D01*
X48292Y40936D01*
Y41173D01*
X47852D01*
Y40755D01*
X48112D01*
X48156Y40712D01*
X48197Y40684D01*
X48246Y40674D01*
X48856D01*
Y40514D01*
X48869Y40450D01*
X48905Y40396D01*
X48959Y40360D01*
X49022Y40347D01*
X49086Y40360D01*
X49140Y40396D01*
X49176Y40450D01*
X49188Y40514D01*
Y41090D01*
X49176Y41154D01*
X49140Y41207D01*
X49135Y41211D01*
Y41591D01*
X49148D01*
Y42045D01*
X49061D01*
Y42342D01*
X49134D01*
Y42782D01*
D02*
G37*
G36*
X36770Y42737D02*
X36089D01*
Y41763D01*
X36517D01*
Y41505D01*
X36527Y41457D01*
X36555Y41415D01*
X37030Y40940D01*
X37041Y40882D01*
X37079Y40825D01*
X37135Y40788D01*
X37202Y40775D01*
X37268Y40788D01*
X37324Y40825D01*
X37362Y40882D01*
X37375Y40948D01*
X37362Y41014D01*
X37324Y41071D01*
X37268Y41108D01*
X37211Y41119D01*
X36772Y41558D01*
Y42035D01*
X36770Y42047D01*
Y42737D01*
D02*
G37*
G36*
X52178Y42782D02*
X51760D01*
Y42342D01*
X51836D01*
Y42048D01*
X51750D01*
Y41593D01*
X51830D01*
Y41176D01*
X51840Y41127D01*
X51858Y41099D01*
X51856Y41090D01*
Y40514D01*
X51869Y40450D01*
X51905Y40396D01*
X51959Y40360D01*
X52022Y40347D01*
X52086Y40360D01*
X52140Y40396D01*
X52176Y40450D01*
X52188Y40514D01*
Y41090D01*
X52176Y41154D01*
X52140Y41207D01*
X52086Y41243D01*
X52085Y41244D01*
Y41591D01*
X52254D01*
X52852Y40993D01*
Y40755D01*
X53292D01*
Y41173D01*
X53032D01*
X52397Y41808D01*
X52356Y41836D01*
X52307Y41846D01*
X52165D01*
Y42048D01*
X52091D01*
Y42342D01*
X52178D01*
Y42782D01*
D02*
G37*
G36*
X44480Y42366D02*
X43761D01*
X43697Y42354D01*
X43643Y42318D01*
X43607Y42264D01*
X43594Y42200D01*
X43607Y42136D01*
X43643Y42082D01*
X43697Y42046D01*
X43761Y42034D01*
X43993D01*
Y41866D01*
X43761D01*
X43697Y41854D01*
X43643Y41818D01*
X43607Y41764D01*
X43594Y41700D01*
X43607Y41636D01*
X43643Y41582D01*
X43697Y41546D01*
X43761Y41534D01*
X44480D01*
X44543Y41546D01*
X44582Y41573D01*
X44995D01*
Y41480D01*
X45086D01*
Y41127D01*
X45017D01*
Y40673D01*
X45432D01*
Y41127D01*
X45341D01*
Y41480D01*
X45412D01*
Y41920D01*
X44995D01*
Y41827D01*
X44582D01*
X44543Y41854D01*
X44480Y41866D01*
X44248D01*
Y42034D01*
X44480D01*
X44543Y42046D01*
X44597Y42082D01*
X44633Y42136D01*
X44646Y42200D01*
X44633Y42264D01*
X44597Y42318D01*
X44543Y42354D01*
X44480Y42366D01*
D02*
G37*
G36*
Y40866D02*
X43761D01*
X43697Y40854D01*
X43643Y40818D01*
X43607Y40764D01*
X43594Y40700D01*
X43607Y40636D01*
X43643Y40582D01*
X43697Y40546D01*
X43761Y40534D01*
X44480D01*
X44543Y40546D01*
X44597Y40582D01*
X44633Y40636D01*
X44646Y40700D01*
X44633Y40764D01*
X44597Y40818D01*
X44543Y40854D01*
X44480Y40866D01*
D02*
G37*
G36*
X40739D02*
X40020D01*
X39957Y40854D01*
X39903Y40818D01*
X39867Y40764D01*
X39854Y40700D01*
X39867Y40636D01*
X39903Y40582D01*
X39957Y40546D01*
X40020Y40534D01*
X40739D01*
X40803Y40546D01*
X40857Y40582D01*
X40893Y40636D01*
X40906Y40700D01*
X40893Y40764D01*
X40857Y40818D01*
X40803Y40854D01*
X40739Y40866D01*
D02*
G37*
G36*
X23578Y44304D02*
X23532Y44295D01*
X23492Y44269D01*
X23466Y44229D01*
X23457Y44183D01*
Y44091D01*
X23437Y44061D01*
X23425Y44002D01*
Y43883D01*
X23437Y43825D01*
X23464Y43783D01*
X23466Y43775D01*
X23492Y43735D01*
X23532Y43709D01*
X23578Y43700D01*
X23592Y43702D01*
X23609Y43699D01*
X23793D01*
X25010Y42482D01*
Y41102D01*
X25878D01*
X26320Y40661D01*
Y40290D01*
X27780D01*
Y40443D01*
X28167D01*
Y40373D01*
X28582D01*
Y40827D01*
X28167D01*
Y40749D01*
X27780D01*
Y40895D01*
X26912D01*
X26898Y40898D01*
X26515D01*
X26095Y41318D01*
Y42698D01*
X25227D01*
X23964Y43960D01*
X23915Y43993D01*
X23856Y44005D01*
X23730D01*
X23719Y44061D01*
X23699Y44091D01*
Y44183D01*
X23690Y44229D01*
X23664Y44269D01*
X23624Y44295D01*
X23578Y44304D01*
D02*
G37*
G36*
X49728Y42782D02*
X49310D01*
Y42342D01*
X49378D01*
Y42045D01*
X49284D01*
Y41591D01*
X49380D01*
Y41171D01*
X49369Y41154D01*
X49356Y41090D01*
Y40514D01*
X49369Y40450D01*
X49384Y40428D01*
Y39977D01*
X49377Y39973D01*
X49340Y39916D01*
X49327Y39850D01*
X49340Y39784D01*
X49377Y39727D01*
X49434Y39690D01*
X49500Y39677D01*
X49566Y39690D01*
X49623Y39727D01*
X49660Y39784D01*
X49673Y39850D01*
X49660Y39916D01*
X49639Y39949D01*
Y40395D01*
X49640Y40396D01*
X49676Y40450D01*
X49688Y40514D01*
Y41090D01*
X49676Y41154D01*
X49640Y41207D01*
X49635Y41211D01*
Y41591D01*
X49699D01*
Y42045D01*
X49633D01*
Y42342D01*
X49728D01*
Y42782D01*
D02*
G37*
G36*
X48292Y40580D02*
X47852D01*
Y40162D01*
X47959D01*
Y39945D01*
X47940Y39916D01*
X47927Y39850D01*
X47940Y39784D01*
X47977Y39727D01*
X48034Y39690D01*
X48100Y39677D01*
X48166Y39690D01*
X48223Y39727D01*
X48260Y39784D01*
X48273Y39850D01*
X48260Y39916D01*
X48223Y39973D01*
X48214Y39979D01*
Y40162D01*
X48292D01*
Y40580D01*
D02*
G37*
G36*
X51585Y42782D02*
X51167D01*
Y42342D01*
X51263D01*
Y42048D01*
X51199D01*
Y41593D01*
X51279D01*
Y41227D01*
X51288Y41178D01*
X51316Y41137D01*
X51357Y41095D01*
X51356Y41090D01*
Y40514D01*
X51369Y40450D01*
X51384Y40428D01*
Y39927D01*
X51377Y39923D01*
X51340Y39866D01*
X51327Y39800D01*
X51340Y39734D01*
X51353Y39713D01*
X51327Y39663D01*
X50600D01*
X50580Y39710D01*
X50581Y39713D01*
X50644Y39756D01*
X50666Y39778D01*
X50711Y39844D01*
X50726Y39922D01*
Y40802D01*
Y41016D01*
X50726Y41016D01*
X50711Y41094D01*
X50678Y41143D01*
X50676Y41152D01*
Y41579D01*
X50699D01*
Y41994D01*
X50245D01*
Y41579D01*
X50268D01*
Y41066D01*
X50284Y40988D01*
X50318Y40936D01*
Y40802D01*
Y39988D01*
X50312Y39978D01*
X50296Y39900D01*
X50312Y39822D01*
X50356Y39756D01*
X50419Y39713D01*
X50420Y39710D01*
X50400Y39663D01*
X50149D01*
X50100Y39654D01*
X50058Y39626D01*
X49505Y39072D01*
X49459Y39063D01*
X49405Y39027D01*
X49369Y38973D01*
X49356Y38910D01*
Y38333D01*
X49363Y38299D01*
X49358Y38276D01*
Y37839D01*
X49278D01*
Y37384D01*
X49358D01*
Y37082D01*
X49276D01*
Y36642D01*
X49694D01*
Y37082D01*
X49613D01*
Y37384D01*
X49693D01*
Y37839D01*
X49613D01*
Y38198D01*
X49640Y38216D01*
X49676Y38270D01*
X49688Y38333D01*
Y38896D01*
X50201Y39408D01*
X51776D01*
X51795Y39362D01*
X51505Y39072D01*
X51459Y39063D01*
X51405Y39027D01*
X51369Y38973D01*
X51356Y38910D01*
Y38333D01*
X51369Y38270D01*
X51395Y38231D01*
Y37837D01*
X51205D01*
Y37382D01*
X51285D01*
Y37082D01*
X51204D01*
Y36642D01*
X51622D01*
Y37082D01*
X51540D01*
Y37382D01*
X51620D01*
Y37660D01*
X51640Y37690D01*
X51650Y37739D01*
Y38231D01*
X51676Y38270D01*
X51688Y38333D01*
Y38896D01*
X52001Y39208D01*
X52500D01*
X52515Y39158D01*
X52491Y39142D01*
X52311Y38962D01*
X52178D01*
X52176Y38973D01*
X52140Y39027D01*
X52086Y39063D01*
X52022Y39076D01*
X51959Y39063D01*
X51905Y39027D01*
X51869Y38973D01*
X51856Y38910D01*
Y38333D01*
X51858Y38322D01*
X51846Y38303D01*
X51836Y38254D01*
Y37837D01*
X51756D01*
Y37382D01*
X51857D01*
Y37082D01*
X51798D01*
Y36642D01*
X52149D01*
X52170Y36592D01*
X51637Y36059D01*
X51363D01*
Y36003D01*
X50990D01*
Y36109D01*
X50550D01*
Y35691D01*
X50990D01*
Y35748D01*
X51363D01*
Y35644D01*
X51817D01*
Y35878D01*
X52069Y36131D01*
X52110Y36101D01*
X52110Y36062D01*
Y35691D01*
X52551D01*
Y35748D01*
X52923D01*
Y35644D01*
X53377D01*
Y36059D01*
X53239D01*
Y38250D01*
X53292D01*
Y38668D01*
X52852D01*
Y38250D01*
X52984D01*
Y36059D01*
X52923D01*
Y36003D01*
X52551D01*
Y36109D01*
X52160D01*
X52118Y36109D01*
X52088Y36150D01*
X52840Y36901D01*
X52868Y36943D01*
X52877Y36992D01*
Y37535D01*
X52910Y37584D01*
X52923Y37650D01*
X52910Y37716D01*
X52873Y37773D01*
X52816Y37810D01*
X52750Y37823D01*
X52684Y37810D01*
X52627Y37773D01*
X52590Y37716D01*
X52577Y37650D01*
X52590Y37584D01*
X52623Y37535D01*
Y37044D01*
X52265Y36687D01*
X52215Y36708D01*
Y37082D01*
X52112D01*
Y37382D01*
X52171D01*
Y37837D01*
X52091D01*
Y38183D01*
X52140Y38216D01*
X52176Y38270D01*
X52188Y38333D01*
Y38707D01*
X52364D01*
X52413Y38717D01*
X52454Y38744D01*
X52634Y38925D01*
X52852D01*
Y38843D01*
X53292D01*
Y39208D01*
X54519D01*
X55223Y38505D01*
Y30253D01*
X55141Y30172D01*
X55084Y30160D01*
X55027Y30123D01*
X54990Y30066D01*
X54977Y30000D01*
X54990Y29934D01*
X55027Y29877D01*
X55084Y29840D01*
X55150Y29827D01*
X55183Y29833D01*
X55203Y29786D01*
X55182Y29773D01*
X55145Y29716D01*
X55132Y29650D01*
X55145Y29584D01*
X55182Y29527D01*
X55239Y29490D01*
X55305Y29477D01*
X55371Y29490D01*
X55428Y29527D01*
X55465Y29584D01*
X55476Y29641D01*
X55577Y29741D01*
X55623Y29722D01*
Y29426D01*
X55449Y29252D01*
X53858D01*
Y29393D01*
X54239D01*
Y29848D01*
X54181D01*
Y30147D01*
X54233D01*
Y30205D01*
X54291D01*
X54314Y30190D01*
X54380Y30177D01*
X54446Y30190D01*
X54503Y30227D01*
X54540Y30284D01*
X54553Y30350D01*
X54540Y30416D01*
X54503Y30473D01*
X54446Y30510D01*
X54380Y30523D01*
X54316Y30511D01*
X54233D01*
Y30587D01*
X53816D01*
Y30147D01*
X53875D01*
Y30033D01*
X53838Y30018D01*
X53825Y30017D01*
X53770Y30072D01*
X53737Y30094D01*
X53698Y30102D01*
X53653D01*
X53640Y30147D01*
X53640Y30152D01*
Y30587D01*
X53439D01*
X53053Y30973D01*
Y31261D01*
X53099Y31280D01*
X53223Y31156D01*
Y30932D01*
X53640D01*
Y31373D01*
X53439D01*
X53303Y31509D01*
Y31753D01*
X53682D01*
Y32207D01*
X53627D01*
Y32538D01*
X53682D01*
Y32993D01*
X53483D01*
X53218Y33258D01*
X53168Y33291D01*
X53110Y33303D01*
X52644D01*
Y33318D01*
X51757D01*
Y33303D01*
X51577D01*
X51566Y33310D01*
X51500Y33323D01*
X51434Y33310D01*
X51377Y33273D01*
X51340Y33216D01*
X51327Y33150D01*
X51340Y33084D01*
X51377Y33027D01*
X51434Y32990D01*
X51500Y32977D01*
X51566Y32990D01*
X51577Y32997D01*
X51757D01*
Y32982D01*
X52644D01*
Y32997D01*
X53046D01*
X53267Y32776D01*
Y32538D01*
X53322D01*
Y32240D01*
X53272Y32225D01*
X53258Y32245D01*
X52763Y32740D01*
X52713Y32773D01*
X52655Y32785D01*
X52644D01*
Y32818D01*
X51757D01*
Y32803D01*
X51577D01*
X51566Y32810D01*
X51500Y32823D01*
X51434Y32810D01*
X51377Y32773D01*
X51340Y32716D01*
X51327Y32650D01*
X51340Y32584D01*
X51377Y32527D01*
X51434Y32490D01*
X51500Y32477D01*
X51566Y32490D01*
X51577Y32497D01*
X51757D01*
Y32482D01*
X52204D01*
X52218Y32479D01*
X52591D01*
X52721Y32349D01*
X52702Y32303D01*
X52644D01*
Y32318D01*
X51757D01*
Y32303D01*
X51577D01*
X51566Y32310D01*
X51500Y32323D01*
X51434Y32310D01*
X51377Y32273D01*
X51340Y32216D01*
X51327Y32150D01*
X51340Y32084D01*
X51377Y32027D01*
X51434Y31990D01*
X51500Y31977D01*
X51566Y31990D01*
X51577Y31997D01*
X51757D01*
Y31982D01*
X52644D01*
Y31997D01*
X52719D01*
X52747Y31969D01*
Y30910D01*
X52759Y30851D01*
X52792Y30801D01*
X53223Y30371D01*
Y30147D01*
X53223D01*
X53223Y30097D01*
X53211Y30094D01*
X53178Y30072D01*
X52690Y29584D01*
X52644Y29604D01*
Y29818D01*
X51757D01*
Y29482D01*
X52522D01*
X52541Y29436D01*
X52258Y29152D01*
X47788D01*
X47383Y29557D01*
Y29848D01*
X46968D01*
Y29393D01*
X47259D01*
X47674Y28978D01*
X47707Y28956D01*
X47746Y28948D01*
X52300D01*
X52339Y28956D01*
X52372Y28978D01*
X53223Y29829D01*
X53273Y29808D01*
Y29393D01*
X53408D01*
Y29243D01*
X53415Y29204D01*
X53437Y29171D01*
X53680Y28928D01*
X53714Y28906D01*
X53753Y28898D01*
X55612D01*
X55651Y28906D01*
X55684Y28928D01*
X55947Y29191D01*
X55969Y29224D01*
X55977Y29263D01*
Y38775D01*
X55969Y38814D01*
X55947Y38847D01*
X54202Y40592D01*
Y41845D01*
X54320D01*
Y42262D01*
X53880D01*
Y41845D01*
X53998D01*
Y40649D01*
X53952Y40630D01*
X53622Y40960D01*
Y41945D01*
X53620Y41955D01*
Y42262D01*
X53180D01*
Y41845D01*
X53418D01*
Y40918D01*
X53426Y40879D01*
X53448Y40846D01*
X54584Y39709D01*
X54565Y39663D01*
X53179D01*
X53155Y39707D01*
X53160Y39715D01*
X53173Y39781D01*
X53170Y39798D01*
X53190Y39829D01*
X53200Y39878D01*
Y40162D01*
X53292D01*
Y40580D01*
X52852D01*
Y40162D01*
X52945D01*
Y39943D01*
X52934Y39941D01*
X52877Y39903D01*
X52840Y39847D01*
X52827Y39781D01*
X52840Y39715D01*
X52845Y39707D01*
X52821Y39663D01*
X51673D01*
X51647Y39713D01*
X51660Y39734D01*
X51673Y39800D01*
X51660Y39866D01*
X51639Y39899D01*
Y40395D01*
X51640Y40396D01*
X51676Y40450D01*
X51688Y40514D01*
Y41090D01*
X51676Y41154D01*
X51640Y41207D01*
X51586Y41243D01*
X51566Y41248D01*
X51534Y41279D01*
Y41593D01*
X51614D01*
Y42048D01*
X51518D01*
Y42342D01*
X51585D01*
Y42782D01*
D02*
G37*
G36*
X38600Y39367D02*
X38494Y39353D01*
X38396Y39313D01*
X38312Y39248D01*
X38247Y39163D01*
X38206Y39065D01*
X38192Y38959D01*
Y38644D01*
X38206Y38539D01*
X37516Y37848D01*
X37191D01*
X37185Y37878D01*
X37130Y37960D01*
X37048Y38015D01*
X36950Y38035D01*
X36852Y38015D01*
X36770Y37960D01*
X36714Y37878D01*
X36695Y37780D01*
Y37584D01*
X36003D01*
X35925Y37568D01*
X35859Y37524D01*
X35686Y37351D01*
X35077D01*
Y37355D01*
X34623D01*
Y36940D01*
X34645D01*
Y36560D01*
X34621D01*
Y36145D01*
X35075D01*
Y36560D01*
X35053D01*
Y36940D01*
X35077D01*
Y36943D01*
X35770D01*
X35848Y36959D01*
X35915Y37003D01*
X36088Y37176D01*
X36695D01*
Y36994D01*
X36356Y36655D01*
X36312Y36589D01*
X36296Y36511D01*
Y33653D01*
X36212Y33588D01*
X36147Y33504D01*
X36106Y33406D01*
X36092Y33300D01*
X36106Y33194D01*
X36147Y33096D01*
X36212Y33012D01*
X36296Y32947D01*
X36394Y32906D01*
X36500Y32892D01*
X36606Y32906D01*
X36704Y32947D01*
X36788Y33012D01*
X36853Y33096D01*
X36894Y33194D01*
X36908Y33300D01*
X36894Y33406D01*
X36853Y33504D01*
X36788Y33588D01*
X36704Y33653D01*
Y36426D01*
X37016Y36738D01*
X37048Y36744D01*
X37130Y36800D01*
X37185Y36882D01*
X37205Y36980D01*
Y37441D01*
X37600D01*
X37678Y37456D01*
X37744Y37500D01*
X38494Y38251D01*
X38600Y38237D01*
X38706Y38251D01*
X38804Y38291D01*
X38888Y38356D01*
X38953Y38441D01*
X38994Y38539D01*
X39008Y38644D01*
Y38959D01*
X38994Y39065D01*
X38953Y39163D01*
X38888Y39248D01*
X38804Y39313D01*
X38706Y39353D01*
X38600Y39367D01*
D02*
G37*
G36*
X37004Y39360D02*
X36196D01*
Y38236D01*
X37004D01*
Y39360D01*
D02*
G37*
G36*
X27904D02*
X27096D01*
Y38236D01*
X27904D01*
Y39360D01*
D02*
G37*
G36*
X23354D02*
X22546D01*
Y38236D01*
X23354D01*
Y39360D01*
D02*
G37*
G36*
X50522Y39076D02*
X50459Y39063D01*
X50405Y39027D01*
X50369Y38973D01*
X50356Y38910D01*
Y38733D01*
X50334Y38699D01*
X50318Y38621D01*
Y38058D01*
X50274Y38034D01*
X50268Y38038D01*
X50190Y38054D01*
X50000D01*
X49922Y38038D01*
X49856Y37994D01*
X49812Y37928D01*
X49796Y37850D01*
X49812Y37772D01*
X49856Y37706D01*
X49922Y37662D01*
X50000Y37646D01*
X50105D01*
X50245Y37506D01*
Y37380D01*
X50699D01*
Y37523D01*
X50711Y37539D01*
X50726Y37617D01*
Y38621D01*
X50711Y38699D01*
X50688Y38733D01*
Y38910D01*
X50676Y38973D01*
X50640Y39027D01*
X50586Y39063D01*
X50522Y39076D01*
D02*
G37*
G36*
X29500Y39367D02*
X29394Y39353D01*
X29296Y39313D01*
X29212Y39248D01*
X29147Y39163D01*
X29106Y39065D01*
X29092Y38959D01*
Y38644D01*
X29106Y38539D01*
X29147Y38441D01*
X29212Y38356D01*
X29246Y38330D01*
Y37984D01*
X28916Y37654D01*
X28605D01*
Y37780D01*
X28586Y37878D01*
X28530Y37960D01*
X28448Y38015D01*
X28350Y38035D01*
X28252Y38015D01*
X28170Y37960D01*
X28115Y37878D01*
X28095Y37780D01*
Y37584D01*
X27428D01*
X27350Y37568D01*
X27284Y37524D01*
X27111Y37351D01*
X26527D01*
Y37355D01*
X26073D01*
Y36940D01*
X26095D01*
Y36560D01*
X26071D01*
Y36145D01*
X26525D01*
Y36560D01*
X26503D01*
Y36940D01*
X26527D01*
Y36943D01*
X27195D01*
X27273Y36959D01*
X27340Y37003D01*
X27513Y37176D01*
X28095D01*
Y36980D01*
X28115Y36882D01*
X28170Y36800D01*
X28252Y36744D01*
X28333Y36728D01*
X30686Y34376D01*
X30752Y34332D01*
X30830Y34316D01*
X30830Y34316D01*
X33196D01*
X34106Y33406D01*
X34092Y33300D01*
X34106Y33194D01*
X34147Y33096D01*
X34212Y33012D01*
X34296Y32947D01*
X34394Y32906D01*
X34500Y32892D01*
X34606Y32906D01*
X34704Y32947D01*
X34788Y33012D01*
X34853Y33096D01*
X34894Y33194D01*
X34908Y33300D01*
X34894Y33406D01*
X34853Y33504D01*
X34788Y33588D01*
X34704Y33653D01*
X34606Y33694D01*
X34500Y33708D01*
X34394Y33694D01*
X33504Y34584D01*
Y35997D01*
X33535Y36001D01*
X33608Y36031D01*
X33671Y36079D01*
X33719Y36142D01*
X33749Y36215D01*
X33759Y36293D01*
X33749Y36372D01*
X33719Y36445D01*
X33671Y36507D01*
X33608Y36555D01*
X33535Y36586D01*
X33457Y36596D01*
X33378Y36586D01*
X33305Y36555D01*
X33243Y36507D01*
X33195Y36445D01*
X33164Y36372D01*
X33154Y36293D01*
X33160Y36245D01*
X33156Y36240D01*
X33112Y36174D01*
X33096Y36096D01*
Y34724D01*
X30914D01*
X28605Y37033D01*
Y37246D01*
X29000D01*
X29078Y37262D01*
X29144Y37306D01*
X29594Y37756D01*
X29638Y37822D01*
X29654Y37900D01*
Y38271D01*
X29704Y38291D01*
X29788Y38356D01*
X29853Y38441D01*
X29894Y38539D01*
X29908Y38644D01*
Y38959D01*
X29894Y39065D01*
X29853Y39163D01*
X29788Y39248D01*
X29704Y39313D01*
X29606Y39353D01*
X29500Y39367D01*
D02*
G37*
G36*
X34050D02*
X33944Y39353D01*
X33846Y39313D01*
X33762Y39248D01*
X33697Y39163D01*
X33656Y39065D01*
X33642Y38959D01*
Y38644D01*
X33656Y38539D01*
X33697Y38441D01*
X33762Y38356D01*
X33810Y38319D01*
X33814Y38253D01*
X33066Y37504D01*
X32905D01*
Y37780D01*
X32885Y37878D01*
X32830Y37960D01*
X32748Y38015D01*
X32650Y38035D01*
X32552Y38015D01*
X32470Y37960D01*
X32415Y37878D01*
X32395Y37780D01*
Y37351D01*
X30677D01*
Y37355D01*
X30223D01*
Y36940D01*
X30245D01*
Y36560D01*
X30221D01*
Y36145D01*
X30675D01*
Y36560D01*
X30653D01*
Y36940D01*
X30677D01*
Y36943D01*
X32402D01*
X32415Y36882D01*
X32470Y36800D01*
X32552Y36744D01*
X32650Y36725D01*
X32748Y36744D01*
X32830Y36800D01*
X32885Y36882D01*
X32905Y36980D01*
Y37096D01*
X33150D01*
X33228Y37112D01*
X33294Y37156D01*
X33800Y37661D01*
X33846Y37642D01*
Y35750D01*
X33862Y35672D01*
X33906Y35606D01*
X35296Y34216D01*
Y33653D01*
X35212Y33588D01*
X35147Y33504D01*
X35106Y33406D01*
X35092Y33300D01*
X35106Y33194D01*
X35147Y33096D01*
X35212Y33012D01*
X35296Y32947D01*
X35394Y32906D01*
X35500Y32892D01*
X35606Y32906D01*
X35704Y32947D01*
X35788Y33012D01*
X35853Y33096D01*
X35894Y33194D01*
X35908Y33300D01*
X35894Y33406D01*
X35853Y33504D01*
X35788Y33588D01*
X35704Y33653D01*
Y34300D01*
X35704Y34300D01*
X35688Y34378D01*
X35644Y34444D01*
X34254Y35834D01*
Y38291D01*
X34338Y38356D01*
X34403Y38441D01*
X34444Y38539D01*
X34458Y38644D01*
Y38959D01*
X34444Y39065D01*
X34403Y39163D01*
X34338Y39248D01*
X34254Y39313D01*
X34156Y39353D01*
X34050Y39367D01*
D02*
G37*
G36*
X48292Y39261D02*
X47852D01*
Y38843D01*
X48112D01*
X48242Y38714D01*
X48222Y38668D01*
X47852D01*
Y38250D01*
X47945D01*
Y36229D01*
X47955Y36180D01*
X47982Y36139D01*
X48071Y36049D01*
X48052Y36003D01*
X47870D01*
Y36109D01*
X47430D01*
Y35691D01*
X47870D01*
Y35748D01*
X48242D01*
Y35644D01*
X48697D01*
Y36059D01*
X48423D01*
X48200Y36281D01*
Y36659D01*
X48250Y36674D01*
X48260Y36659D01*
X48990Y35929D01*
Y35691D01*
X49430D01*
Y35748D01*
X49803D01*
Y35644D01*
X50257D01*
Y36059D01*
X49803D01*
Y36003D01*
X49430D01*
Y36109D01*
X49170D01*
X48688Y36592D01*
X48708Y36642D01*
X48723Y36642D01*
X49101D01*
Y37082D01*
X49041D01*
Y37384D01*
X49142D01*
Y37839D01*
X49062D01*
Y38172D01*
X49066Y38176D01*
X49086Y38180D01*
X49140Y38216D01*
X49176Y38270D01*
X49188Y38333D01*
Y38910D01*
X49176Y38973D01*
X49140Y39027D01*
X49086Y39063D01*
X49022Y39076D01*
X48959Y39063D01*
X48905Y39027D01*
X48869Y38973D01*
X48856Y38910D01*
Y38749D01*
X48567D01*
X48292Y39024D01*
Y39261D01*
D02*
G37*
G36*
X45500Y36053D02*
X45422Y36042D01*
X45349Y36012D01*
X45286Y35964D01*
X45238Y35901D01*
X45208Y35828D01*
X45197Y35750D01*
X45208Y35672D01*
X45238Y35599D01*
X45286Y35536D01*
X45349Y35488D01*
X45422Y35458D01*
X45500Y35447D01*
X45578Y35458D01*
X45651Y35488D01*
X45714Y35536D01*
X45762Y35599D01*
X45792Y35672D01*
X45803Y35750D01*
X45792Y35828D01*
X45762Y35901D01*
X45714Y35964D01*
X45651Y36012D01*
X45578Y36042D01*
X45500Y36053D01*
D02*
G37*
G36*
X50990Y35516D02*
X50550D01*
Y35098D01*
X50617D01*
Y35007D01*
X50590Y34966D01*
X50577Y34900D01*
X50590Y34834D01*
X50627Y34777D01*
X50684Y34740D01*
X50750Y34727D01*
X50816Y34740D01*
X50873Y34777D01*
X50910Y34834D01*
X50923Y34900D01*
X50920Y34916D01*
X50923Y34931D01*
Y35098D01*
X50990D01*
Y35516D01*
D02*
G37*
G36*
X49430D02*
X48990D01*
Y35098D01*
X49052D01*
Y34985D01*
X49040Y34966D01*
X49027Y34900D01*
X49040Y34834D01*
X49077Y34777D01*
X49134Y34740D01*
X49200Y34727D01*
X49266Y34740D01*
X49323Y34777D01*
X49360Y34834D01*
X49373Y34900D01*
X49360Y34966D01*
X49358Y34969D01*
Y35098D01*
X49430D01*
Y35516D01*
D02*
G37*
G36*
X47870D02*
X47430D01*
Y35098D01*
X47497D01*
Y34977D01*
X47490Y34966D01*
X47477Y34900D01*
X47490Y34834D01*
X47527Y34777D01*
X47584Y34740D01*
X47650Y34727D01*
X47716Y34740D01*
X47773Y34777D01*
X47810Y34834D01*
X47823Y34900D01*
X47810Y34966D01*
X47803Y34977D01*
Y35098D01*
X47870D01*
Y35516D01*
D02*
G37*
G36*
X26400Y35073D02*
X26334Y35060D01*
X26285Y35027D01*
X24650D01*
X24601Y35018D01*
X24560Y34990D01*
X20760Y31190D01*
X20732Y31149D01*
X20723Y31100D01*
Y23500D01*
X20732Y23451D01*
X20760Y23410D01*
X22010Y22160D01*
X22051Y22132D01*
X22100Y22123D01*
X24585D01*
X24634Y22090D01*
X24700Y22077D01*
X24766Y22090D01*
X24823Y22127D01*
X24860Y22184D01*
X24873Y22250D01*
X24860Y22316D01*
X24823Y22373D01*
X24766Y22410D01*
X24700Y22423D01*
X24634Y22410D01*
X24585Y22377D01*
X22153D01*
X20977Y23553D01*
Y31047D01*
X24703Y34773D01*
X26285D01*
X26334Y34740D01*
X26400Y34727D01*
X26466Y34740D01*
X26523Y34777D01*
X26560Y34834D01*
X26573Y34900D01*
X26560Y34966D01*
X26523Y35023D01*
X26466Y35060D01*
X26400Y35073D01*
D02*
G37*
G36*
X52551Y35516D02*
X52110D01*
Y35098D01*
X52178D01*
Y34880D01*
X52180Y34867D01*
X52177Y34850D01*
X52190Y34784D01*
X52227Y34727D01*
X52284Y34690D01*
X52350Y34677D01*
X52416Y34690D01*
X52473Y34727D01*
X52510Y34784D01*
X52523Y34850D01*
X52510Y34916D01*
X52483Y34956D01*
Y35098D01*
X52551D01*
Y35516D01*
D02*
G37*
G36*
X52900Y33823D02*
X52834Y33810D01*
X52823Y33803D01*
X52644D01*
Y33818D01*
X51757D01*
Y33482D01*
X52644D01*
Y33497D01*
X52823D01*
X52834Y33490D01*
X52900Y33477D01*
X52966Y33490D01*
X53023Y33527D01*
X53060Y33584D01*
X53073Y33650D01*
X53060Y33716D01*
X53023Y33773D01*
X52966Y33810D01*
X52900Y33823D01*
D02*
G37*
G36*
X24950Y39367D02*
X24844Y39353D01*
X24746Y39313D01*
X24662Y39248D01*
X24597Y39163D01*
X24556Y39065D01*
X24542Y38959D01*
Y38644D01*
X24554Y38555D01*
X24030Y38031D01*
X23952Y38015D01*
X23870Y37960D01*
X23827Y37896D01*
X22377D01*
Y37900D01*
X21923D01*
Y37485D01*
X22377D01*
Y37488D01*
X23795D01*
Y36980D01*
X23814Y36882D01*
X23870Y36800D01*
X23952Y36744D01*
X24050Y36725D01*
X24148Y36744D01*
X24230Y36800D01*
X24286Y36882D01*
X24305Y36980D01*
Y37729D01*
X24776Y38200D01*
X24823Y38181D01*
Y36250D01*
X24832Y36201D01*
X24860Y36160D01*
X25860Y35160D01*
X25901Y35132D01*
X25950Y35123D01*
X26859D01*
X27715Y34266D01*
X27696Y34220D01*
X27348D01*
Y33780D01*
X27429D01*
Y33432D01*
X27415Y33419D01*
X27379Y33400D01*
X27341Y33407D01*
X25955D01*
Y33680D01*
X25935Y33778D01*
X25880Y33860D01*
X25798Y33916D01*
X25700Y33935D01*
X25602Y33916D01*
X25520Y33860D01*
X25464Y33778D01*
X25445Y33680D01*
Y32880D01*
X25464Y32782D01*
X25520Y32700D01*
X25602Y32645D01*
X25700Y32625D01*
X25798Y32645D01*
X25880Y32700D01*
X25935Y32782D01*
X25955Y32880D01*
Y33153D01*
X27243D01*
Y33069D01*
X27764D01*
Y33379D01*
X27684D01*
Y33780D01*
X27766D01*
Y34150D01*
X27812Y34169D01*
X27941Y34040D01*
Y33780D01*
X28359D01*
Y33878D01*
X28880D01*
Y33803D01*
X29320D01*
Y34220D01*
X28927D01*
X28912Y34270D01*
X28923Y34277D01*
X28960Y34334D01*
X28973Y34400D01*
X28960Y34466D01*
X28923Y34523D01*
X28866Y34560D01*
X28800Y34573D01*
X28734Y34560D01*
X28677Y34523D01*
X28640Y34466D01*
X28627Y34400D01*
X28640Y34334D01*
X28677Y34277D01*
X28734Y34240D01*
X28800Y34227D01*
X28836Y34234D01*
X28880Y34193D01*
Y34133D01*
X28359D01*
Y34220D01*
X28121D01*
X27001Y35340D01*
X26960Y35368D01*
X26911Y35377D01*
X26003D01*
X25077Y36303D01*
Y38260D01*
X25154Y38291D01*
X25238Y38356D01*
X25303Y38441D01*
X25344Y38539D01*
X25358Y38644D01*
Y38959D01*
X25344Y39065D01*
X25303Y39163D01*
X25238Y39248D01*
X25154Y39313D01*
X25056Y39353D01*
X24950Y39367D01*
D02*
G37*
G36*
X44700Y37253D02*
X44622Y37242D01*
X44549Y37212D01*
X44486Y37164D01*
X44438Y37101D01*
X44408Y37028D01*
X44397Y36950D01*
X44408Y36872D01*
X44438Y36799D01*
X44486Y36736D01*
X44549Y36688D01*
X44622Y36658D01*
X44700Y36647D01*
X44778Y36658D01*
X44851Y36688D01*
X44914Y36736D01*
X44922Y36746D01*
X46316D01*
X46972Y36090D01*
Y34562D01*
X46968D01*
Y34108D01*
X46972D01*
Y33776D01*
X46968D01*
Y33322D01*
X46926Y33303D01*
X46464D01*
X46406Y33291D01*
X46356Y33258D01*
X46042Y32944D01*
X46009Y32894D01*
X45997Y32836D01*
Y30803D01*
X46009Y30745D01*
X46042Y30695D01*
X46367Y30371D01*
Y30147D01*
X46447D01*
Y29848D01*
X46417D01*
Y29393D01*
X46548D01*
Y28686D01*
X46527Y28673D01*
X46490Y28616D01*
X46477Y28550D01*
X46490Y28484D01*
X46527Y28427D01*
X46584Y28390D01*
X46650Y28377D01*
X46716Y28390D01*
X46773Y28427D01*
X46810Y28484D01*
X46823Y28550D01*
X46810Y28616D01*
X46773Y28673D01*
X46752Y28686D01*
Y29393D01*
X46832D01*
Y29848D01*
X46753D01*
Y30147D01*
X46784D01*
Y30587D01*
X46583D01*
X46303Y30867D01*
Y32772D01*
X46528Y32997D01*
X46921D01*
X46968Y32991D01*
Y32536D01*
X46972D01*
Y32205D01*
X46968D01*
Y31750D01*
X47383D01*
Y32205D01*
X47379D01*
Y32536D01*
X47383D01*
Y32544D01*
X47400Y32551D01*
X47415Y32545D01*
X47447Y32517D01*
Y31659D01*
X47161Y31373D01*
X46960D01*
Y30932D01*
X47377D01*
Y31156D01*
X47697Y31476D01*
X47741Y31462D01*
X47747Y31458D01*
Y31173D01*
X47161Y30587D01*
X46960D01*
Y30147D01*
X47377D01*
Y30371D01*
X48006Y30999D01*
X48015Y30999D01*
X48056Y30983D01*
Y30982D01*
X48943D01*
Y31318D01*
X48103D01*
X48056Y31318D01*
X48053Y31367D01*
Y31433D01*
X48056Y31482D01*
X48103Y31482D01*
X48943D01*
Y31818D01*
X48103D01*
X48056Y31818D01*
X48053Y31867D01*
Y31969D01*
X48062Y31979D01*
X48481D01*
X48496Y31982D01*
X48943D01*
Y31997D01*
X49173D01*
X49184Y31990D01*
X49250Y31977D01*
X49316Y31990D01*
X49373Y32027D01*
X49410Y32084D01*
X49423Y32150D01*
X49410Y32216D01*
X49373Y32273D01*
X49316Y32310D01*
X49250Y32323D01*
X49184Y32310D01*
X49173Y32303D01*
X48943D01*
Y32318D01*
X48056D01*
Y32285D01*
X47999D01*
X47941Y32273D01*
X47891Y32240D01*
X47803Y32152D01*
X47759Y32166D01*
X47753Y32171D01*
Y32469D01*
X47781Y32497D01*
X48056D01*
Y32482D01*
X48943D01*
Y32497D01*
X49123D01*
X49134Y32490D01*
X49200Y32477D01*
X49266Y32490D01*
X49323Y32527D01*
X49360Y32584D01*
X49373Y32650D01*
X49360Y32716D01*
X49323Y32773D01*
X49266Y32810D01*
X49200Y32823D01*
X49134Y32810D01*
X49123Y32803D01*
X48943D01*
Y32818D01*
X48056D01*
Y32803D01*
X47760D01*
X47739Y32853D01*
X47832Y32946D01*
X49200D01*
X49278Y32962D01*
X49344Y33006D01*
X49344Y33006D01*
X49388Y33072D01*
X49404Y33150D01*
X49388Y33228D01*
X49344Y33294D01*
X49278Y33338D01*
X49200Y33354D01*
X49200Y33354D01*
X47814D01*
X47793Y33404D01*
X47887Y33497D01*
X48056D01*
Y33482D01*
X48943D01*
Y33818D01*
X48056D01*
Y33803D01*
X47823D01*
X47765Y33791D01*
X47715Y33758D01*
X47429Y33472D01*
X47383Y33491D01*
Y33776D01*
X47379D01*
Y33946D01*
X52200D01*
X52278Y33962D01*
X52309Y33982D01*
X52644D01*
Y34029D01*
X52712D01*
X52770Y34041D01*
X52820Y34074D01*
X52930Y34184D01*
X53267D01*
Y34110D01*
X53322D01*
Y33778D01*
X53267D01*
Y33324D01*
X53682D01*
Y33778D01*
X53627D01*
Y34110D01*
X53682D01*
Y34564D01*
X53267D01*
Y34490D01*
X52867D01*
X52808Y34478D01*
X52759Y34445D01*
X52649Y34335D01*
X52284D01*
X52278Y34338D01*
X52200Y34354D01*
X47425D01*
X47383Y34396D01*
Y34562D01*
X47379D01*
Y36174D01*
X47364Y36252D01*
X47320Y36319D01*
X46544Y37094D01*
X46478Y37138D01*
X46400Y37154D01*
X44922D01*
X44914Y37164D01*
X44851Y37212D01*
X44778Y37242D01*
X44700Y37253D01*
D02*
G37*
G36*
X34904Y32704D02*
X34096D01*
Y31896D01*
X34904D01*
Y32704D01*
D02*
G37*
G36*
X43500Y32708D02*
X43394Y32694D01*
X43296Y32653D01*
X43212Y32588D01*
X43147Y32504D01*
X43106Y32406D01*
X43092Y32300D01*
X43106Y32194D01*
X43147Y32096D01*
X43212Y32012D01*
X43296Y31947D01*
X43394Y31906D01*
X43500Y31892D01*
X43606Y31906D01*
X43704Y31947D01*
X43788Y32012D01*
X43853Y32096D01*
X43894Y32194D01*
X43908Y32300D01*
X43894Y32406D01*
X43853Y32504D01*
X43788Y32588D01*
X43704Y32653D01*
X43606Y32694D01*
X43500Y32708D01*
D02*
G37*
G36*
X37500D02*
X37394Y32694D01*
X37296Y32653D01*
X37212Y32588D01*
X37147Y32504D01*
X37106Y32406D01*
X37092Y32300D01*
X37106Y32194D01*
X37147Y32096D01*
X37212Y32012D01*
X37296Y31947D01*
X37394Y31906D01*
X37500Y31892D01*
X37606Y31906D01*
X37704Y31947D01*
X37788Y32012D01*
X37853Y32096D01*
X37894Y32194D01*
X37908Y32300D01*
X37894Y32406D01*
X37853Y32504D01*
X37788Y32588D01*
X37704Y32653D01*
X37606Y32694D01*
X37500Y32708D01*
D02*
G37*
G36*
X36500D02*
X36394Y32694D01*
X36296Y32653D01*
X36212Y32588D01*
X36147Y32504D01*
X36106Y32406D01*
X36092Y32300D01*
X36106Y32194D01*
X36147Y32096D01*
X36212Y32012D01*
X36296Y31947D01*
X36394Y31906D01*
X36500Y31892D01*
X36606Y31906D01*
X36704Y31947D01*
X36788Y32012D01*
X36853Y32096D01*
X36894Y32194D01*
X36908Y32300D01*
X36894Y32406D01*
X36853Y32504D01*
X36788Y32588D01*
X36704Y32653D01*
X36606Y32694D01*
X36500Y32708D01*
D02*
G37*
G36*
X35500D02*
X35394Y32694D01*
X35296Y32653D01*
X35212Y32588D01*
X35147Y32504D01*
X35106Y32406D01*
X35092Y32300D01*
X35106Y32194D01*
X35147Y32096D01*
X35212Y32012D01*
X35296Y31947D01*
X35394Y31906D01*
X35500Y31892D01*
X35606Y31906D01*
X35704Y31947D01*
X35788Y32012D01*
X35853Y32096D01*
X35894Y32194D01*
X35908Y32300D01*
X35894Y32406D01*
X35853Y32504D01*
X35788Y32588D01*
X35704Y32653D01*
X35606Y32694D01*
X35500Y32708D01*
D02*
G37*
G36*
X52644Y31818D02*
X51757D01*
Y31482D01*
X52644D01*
Y31818D01*
D02*
G37*
G36*
Y31318D02*
X51757D01*
Y30982D01*
X52644D01*
Y31318D01*
D02*
G37*
G36*
Y30818D02*
X51757D01*
Y30482D01*
X52644D01*
Y30818D01*
D02*
G37*
G36*
X48943D02*
X48056D01*
Y30482D01*
X48943D01*
Y30818D01*
D02*
G37*
G36*
X28020Y31066D02*
X27580D01*
Y30648D01*
X28020D01*
Y30726D01*
X28373D01*
Y30643D01*
X28473D01*
Y30515D01*
X28440Y30466D01*
X28427Y30400D01*
X28440Y30334D01*
X28477Y30277D01*
X28534Y30240D01*
X28600Y30227D01*
X28666Y30240D01*
X28723Y30277D01*
X28760Y30334D01*
X28773Y30400D01*
X28760Y30466D01*
X28727Y30515D01*
Y30643D01*
X28827D01*
Y31057D01*
X28373D01*
Y30981D01*
X28020D01*
Y31066D01*
D02*
G37*
G36*
X48943Y30318D02*
X48056D01*
Y29982D01*
X48943D01*
Y30318D01*
D02*
G37*
G36*
X52644Y30318D02*
X51757D01*
Y29982D01*
X52644D01*
Y30318D01*
D02*
G37*
G36*
X44390Y29923D02*
X44324Y29910D01*
X44278Y29880D01*
X44245Y29875D01*
X44212Y29880D01*
X44166Y29910D01*
X44100Y29923D01*
X44034Y29910D01*
X43977Y29873D01*
X43940Y29816D01*
X43927Y29750D01*
X43940Y29684D01*
X43948Y29671D01*
Y20600D01*
X43956Y20561D01*
X43978Y20528D01*
X46048Y18458D01*
X46081Y18436D01*
X46120Y18428D01*
X48287D01*
X48340Y18350D01*
X48422Y18295D01*
X48520Y18275D01*
X48720D01*
X48818Y18295D01*
X48900Y18350D01*
X48955Y18432D01*
X48975Y18530D01*
X48955Y18628D01*
X48931Y18664D01*
X48954Y18720D01*
X48971Y18724D01*
X49073Y18622D01*
X49055Y18530D01*
X49075Y18432D01*
X49130Y18350D01*
X49212Y18295D01*
X49310Y18275D01*
X49510D01*
X49608Y18295D01*
X49690Y18350D01*
X49745Y18432D01*
X49765Y18530D01*
X49745Y18628D01*
X49690Y18710D01*
X49608Y18765D01*
X49510Y18785D01*
X49310D01*
X49218Y18767D01*
X49062Y18922D01*
X49029Y18944D01*
X48990Y18952D01*
X46292D01*
X44492Y20752D01*
Y29614D01*
X44513Y29627D01*
X44550Y29684D01*
X44563Y29750D01*
X44550Y29816D01*
X44513Y29873D01*
X44456Y29910D01*
X44390Y29923D01*
D02*
G37*
G36*
X48943Y29818D02*
X48056D01*
Y29482D01*
X48943D01*
Y29818D01*
D02*
G37*
G36*
X28600Y29803D02*
X28496Y29790D01*
X28398Y29749D01*
X28315Y29685D01*
X28251Y29602D01*
X28210Y29504D01*
X28197Y29400D01*
X28210Y29296D01*
X28251Y29198D01*
X28315Y29115D01*
X28398Y29051D01*
X28496Y29010D01*
X28600Y28997D01*
X28704Y29010D01*
X28802Y29051D01*
X28885Y29115D01*
X28949Y29198D01*
X28990Y29296D01*
X29003Y29400D01*
X28990Y29504D01*
X28949Y29602D01*
X28885Y29685D01*
X28802Y29749D01*
X28704Y29790D01*
X28600Y29803D01*
D02*
G37*
G36*
X27600D02*
X27496Y29790D01*
X27398Y29749D01*
X27315Y29685D01*
X27251Y29602D01*
X27210Y29504D01*
X27197Y29400D01*
X27210Y29296D01*
X27251Y29198D01*
X27315Y29115D01*
X27398Y29051D01*
X27496Y29010D01*
X27600Y28997D01*
X27704Y29010D01*
X27802Y29051D01*
X27885Y29115D01*
X27949Y29198D01*
X27990Y29296D01*
X28003Y29400D01*
X27990Y29504D01*
X27949Y29602D01*
X27885Y29685D01*
X27802Y29749D01*
X27704Y29790D01*
X27600Y29803D01*
D02*
G37*
G36*
X25600D02*
X25496Y29790D01*
X25398Y29749D01*
X25315Y29685D01*
X25251Y29602D01*
X25210Y29504D01*
X25197Y29400D01*
X25210Y29296D01*
X25251Y29198D01*
X25315Y29115D01*
X25398Y29051D01*
X25496Y29010D01*
X25600Y28997D01*
X25704Y29010D01*
X25802Y29051D01*
X25885Y29115D01*
X25949Y29198D01*
X25990Y29296D01*
X26003Y29400D01*
X25990Y29504D01*
X25949Y29602D01*
X25885Y29685D01*
X25802Y29749D01*
X25704Y29790D01*
X25600Y29803D01*
D02*
G37*
G36*
X22970Y31066D02*
X22530D01*
Y30648D01*
X22970D01*
Y30650D01*
X23323D01*
Y30643D01*
X23371D01*
Y29729D01*
X23315Y29685D01*
X23251Y29602D01*
X23210Y29504D01*
X23197Y29400D01*
X23210Y29296D01*
X23251Y29198D01*
X23315Y29115D01*
X23398Y29051D01*
X23496Y29010D01*
X23600Y28997D01*
X23704Y29010D01*
X23802Y29051D01*
X23885Y29115D01*
X23949Y29198D01*
X23990Y29296D01*
X24003Y29400D01*
X23990Y29504D01*
X23949Y29602D01*
X23885Y29685D01*
X23802Y29749D01*
X23779Y29759D01*
Y30843D01*
X23777Y30851D01*
Y31057D01*
X23323D01*
Y31057D01*
X22970D01*
Y31066D01*
D02*
G37*
G36*
X22600Y29803D02*
X22496Y29790D01*
X22398Y29749D01*
X22315Y29685D01*
X22251Y29602D01*
X22210Y29504D01*
X22197Y29400D01*
X22210Y29296D01*
X22251Y29198D01*
X22315Y29115D01*
X22398Y29051D01*
X22496Y29010D01*
X22600Y28997D01*
X22704Y29010D01*
X22802Y29051D01*
X22885Y29115D01*
X22949Y29198D01*
X22990Y29296D01*
X23003Y29400D01*
X22990Y29504D01*
X22949Y29602D01*
X22885Y29685D01*
X22802Y29749D01*
X22704Y29790D01*
X22600Y29803D01*
D02*
G37*
G36*
X38697Y26856D02*
X38618Y26846D01*
X38545Y26816D01*
X38483Y26767D01*
X38470Y26751D01*
X38420Y26762D01*
Y26762D01*
X37980D01*
Y26345D01*
X38420D01*
Y26345D01*
X38470Y26356D01*
X38483Y26339D01*
X38545Y26291D01*
X38618Y26261D01*
X38697Y26251D01*
X38775Y26261D01*
X38848Y26291D01*
X38911Y26339D01*
X38959Y26402D01*
X38989Y26475D01*
X38999Y26553D01*
X38989Y26632D01*
X38959Y26705D01*
X38911Y26767D01*
X38848Y26816D01*
X38775Y26846D01*
X38697Y26856D01*
D02*
G37*
G36*
X39900Y26123D02*
X39834Y26110D01*
X39777Y26073D01*
X39740Y26016D01*
X39727Y25950D01*
X39740Y25884D01*
X39762Y25851D01*
X39735Y25801D01*
X38043D01*
X37994Y25791D01*
X37953Y25764D01*
X37010Y24820D01*
X36982Y24779D01*
X36973Y24730D01*
Y22291D01*
X36959Y22277D01*
X36580D01*
Y22870D01*
X35680D01*
Y22697D01*
X34720D01*
X34671Y22688D01*
X34630Y22660D01*
X34274Y22304D01*
X34227Y22323D01*
Y22897D01*
X35233Y23903D01*
X35680D01*
Y23730D01*
X36580D01*
Y24330D01*
X35680D01*
Y24157D01*
X35180D01*
X35131Y24148D01*
X35090Y24120D01*
X34074Y23104D01*
X34027Y23123D01*
Y23547D01*
X35483Y25003D01*
X35680D01*
Y24830D01*
X36580D01*
Y25430D01*
X35680D01*
Y25257D01*
X35430D01*
X35381Y25248D01*
X35340Y25220D01*
X33810Y23690D01*
X33782Y23649D01*
X33773Y23600D01*
Y18850D01*
X33782Y18801D01*
X33810Y18760D01*
X34628Y17941D01*
X34640Y17884D01*
X34677Y17827D01*
X34734Y17790D01*
X34800Y17777D01*
X34866Y17790D01*
X34923Y17827D01*
X34960Y17884D01*
X34973Y17950D01*
X34960Y18016D01*
X34923Y18073D01*
X34866Y18110D01*
X34809Y18122D01*
X34027Y18903D01*
Y19227D01*
X34074Y19246D01*
X34628Y18691D01*
X34640Y18634D01*
X34677Y18577D01*
X34734Y18540D01*
X34800Y18527D01*
X34866Y18540D01*
X34923Y18577D01*
X34960Y18634D01*
X34973Y18700D01*
X34960Y18766D01*
X34923Y18823D01*
X34866Y18860D01*
X34809Y18872D01*
X34227Y19453D01*
Y20553D01*
X34274Y20572D01*
X34584Y20261D01*
X34590Y20234D01*
X34627Y20177D01*
X34684Y20140D01*
X34750Y20127D01*
X34816Y20140D01*
X34873Y20177D01*
X34910Y20234D01*
X34923Y20300D01*
X34910Y20366D01*
X34873Y20423D01*
X34816Y20460D01*
X34750Y20473D01*
X34735Y20470D01*
X34427Y20778D01*
Y21172D01*
X34477Y21192D01*
X34584Y21086D01*
X34577Y21050D01*
X34590Y20984D01*
X34627Y20927D01*
X34684Y20890D01*
X34750Y20877D01*
X34816Y20890D01*
X34873Y20927D01*
X34910Y20984D01*
X34923Y21050D01*
X34910Y21116D01*
X34873Y21173D01*
X34816Y21210D01*
X34811Y21211D01*
X34795Y21235D01*
X34677Y21353D01*
Y21671D01*
X34722Y21695D01*
X34729Y21690D01*
X34795Y21677D01*
X34861Y21690D01*
X34918Y21727D01*
X34948Y21773D01*
X36724D01*
X36748Y21728D01*
X36740Y21716D01*
X36728Y21659D01*
X36040Y20970D01*
X36012Y20929D01*
X36003Y20880D01*
Y20580D01*
X35680D01*
Y19980D01*
X36580D01*
Y20123D01*
X36624Y20146D01*
X36634Y20140D01*
X36691Y20128D01*
X37375Y19445D01*
X37416Y19417D01*
X37465Y19408D01*
X39505D01*
X39554Y19417D01*
X39595Y19445D01*
X39823Y19673D01*
X40127D01*
X40147Y19623D01*
X39641Y19117D01*
X39584Y19105D01*
X39527Y19068D01*
X39490Y19011D01*
X39477Y18945D01*
X39490Y18879D01*
X39495Y18872D01*
X39471Y18827D01*
X36865D01*
X36816Y18860D01*
X36750Y18873D01*
X36684Y18860D01*
X36630Y18824D01*
X36616Y18827D01*
X36580Y18842D01*
Y18940D01*
X36823Y19183D01*
X36851Y19224D01*
X36860Y19273D01*
Y19369D01*
X36873Y19377D01*
X36910Y19434D01*
X36923Y19500D01*
X36910Y19566D01*
X36873Y19623D01*
X36816Y19660D01*
X36750Y19673D01*
X36684Y19660D01*
X36627Y19623D01*
X36590Y19566D01*
X36577Y19500D01*
X36590Y19434D01*
X36605Y19411D01*
Y19326D01*
X36400Y19120D01*
X35680D01*
Y18520D01*
X36580D01*
Y18558D01*
X36616Y18573D01*
X36630Y18576D01*
X36684Y18540D01*
X36750Y18527D01*
X36816Y18540D01*
X36865Y18573D01*
X40420D01*
Y18520D01*
X40429D01*
X40449Y18474D01*
X39641Y17667D01*
X39584Y17655D01*
X39527Y17618D01*
X39490Y17561D01*
X39477Y17495D01*
X39490Y17429D01*
X39495Y17422D01*
X39471Y17377D01*
X37453D01*
X36922Y17909D01*
X36910Y17966D01*
X36873Y18023D01*
X36816Y18060D01*
X36750Y18073D01*
X36684Y18060D01*
X36627Y18023D01*
X36580Y18020D01*
X36580Y18020D01*
X36580Y18020D01*
X35680D01*
Y17420D01*
X36023D01*
Y17265D01*
X35990Y17216D01*
X35977Y17150D01*
X35990Y17084D01*
X36027Y17027D01*
X36084Y16990D01*
X36150Y16977D01*
X36216Y16990D01*
X36273Y17027D01*
X36310Y17084D01*
X36323Y17150D01*
X36310Y17216D01*
X36277Y17265D01*
Y17420D01*
X36580D01*
Y17758D01*
X36616Y17773D01*
X36630Y17776D01*
X36684Y17740D01*
X36741Y17728D01*
X37310Y17160D01*
X37351Y17132D01*
X37400Y17123D01*
X38440D01*
X38445Y17073D01*
X38421Y17068D01*
X38380Y17040D01*
X38205Y16866D01*
X38177Y16824D01*
X38168Y16775D01*
Y16605D01*
X37980D01*
Y16188D01*
X38420D01*
Y16468D01*
X38423Y16480D01*
Y16723D01*
X38522Y16823D01*
X39535D01*
X39584Y16790D01*
X39650Y16777D01*
X39716Y16790D01*
X39765Y16823D01*
X40600D01*
X40649Y16832D01*
X40690Y16860D01*
X41003Y17173D01*
X41062D01*
X41077Y17123D01*
X41040Y17066D01*
X41027Y17000D01*
X41040Y16934D01*
X41077Y16877D01*
X41134Y16840D01*
X41200Y16827D01*
X41266Y16840D01*
X41315Y16873D01*
X41468D01*
Y16774D01*
X41883D01*
Y17173D01*
X42095D01*
Y17067D01*
X42097Y17055D01*
Y16777D01*
X42512D01*
Y17192D01*
X42350D01*
Y17228D01*
X42340Y17276D01*
X42312Y17318D01*
X42240Y17390D01*
X42199Y17418D01*
X42150Y17427D01*
X41320D01*
Y18005D01*
X41459D01*
X41468Y17997D01*
Y17762D01*
X41883D01*
Y18143D01*
X41933Y18164D01*
X42097Y18000D01*
Y17765D01*
X42512D01*
Y18180D01*
X42278D01*
X41917Y18540D01*
X41876Y18568D01*
X41827Y18577D01*
X41327D01*
X41320Y18583D01*
Y19120D01*
X40420D01*
Y18827D01*
X39829D01*
X39805Y18872D01*
X39810Y18879D01*
X39822Y18936D01*
X40308Y19423D01*
X41474D01*
X41498Y19378D01*
X41490Y19366D01*
X41477Y19300D01*
X41490Y19234D01*
X41503Y19215D01*
X41476Y19165D01*
X41468D01*
Y18750D01*
X41883D01*
Y19165D01*
X41815D01*
X41797Y19215D01*
X41810Y19234D01*
X41823Y19300D01*
X41810Y19366D01*
X41802Y19378D01*
X41826Y19423D01*
X42147D01*
X42177Y19392D01*
Y19167D01*
X42097D01*
Y18753D01*
X42512D01*
Y19167D01*
X42432D01*
Y19445D01*
X42423Y19494D01*
X42395Y19535D01*
X42290Y19640D01*
X42249Y19668D01*
X42200Y19677D01*
X40368D01*
X40348Y19727D01*
X40600Y19980D01*
X41320D01*
Y20517D01*
X41327Y20523D01*
X41550D01*
X41612Y20461D01*
X41597Y20413D01*
X41584Y20410D01*
X41527Y20373D01*
X41490Y20316D01*
X41477Y20250D01*
X41486Y20202D01*
X41468Y20152D01*
X41468D01*
Y19737D01*
X41883D01*
Y20119D01*
X41933Y20140D01*
X42097Y19975D01*
Y19740D01*
X42512D01*
Y20155D01*
X42278D01*
X41754Y20679D01*
X41773Y20725D01*
X41883D01*
Y21107D01*
X41933Y21127D01*
X42097Y20963D01*
Y20728D01*
X42512D01*
Y21143D01*
X42278D01*
X42040Y21380D01*
X41999Y21408D01*
X41950Y21418D01*
X39898D01*
X39849Y21408D01*
X39808Y21380D01*
X39651Y21223D01*
X39650Y21223D01*
X39584Y21210D01*
X39527Y21173D01*
X39490Y21116D01*
X39477Y21050D01*
X39490Y20984D01*
X39527Y20927D01*
X39584Y20890D01*
X39650Y20877D01*
X39716Y20890D01*
X39773Y20927D01*
X39810Y20984D01*
X39820Y21032D01*
X39951Y21163D01*
X41142D01*
X41147Y21113D01*
X41134Y21110D01*
X41077Y21073D01*
X41040Y21016D01*
X41027Y20950D01*
X41040Y20884D01*
X41074Y20832D01*
X41068Y20809D01*
X41055Y20782D01*
X40418D01*
X40369Y20773D01*
X40328Y20745D01*
X40160Y20577D01*
X39765D01*
X39716Y20610D01*
X39650Y20623D01*
X39584Y20610D01*
X39527Y20573D01*
X39490Y20516D01*
X39477Y20450D01*
X39490Y20384D01*
X39527Y20327D01*
X39584Y20290D01*
X39650Y20277D01*
X39716Y20290D01*
X39765Y20323D01*
X40213D01*
X40262Y20332D01*
X40303Y20360D01*
X40374Y20430D01*
X40420Y20411D01*
Y20160D01*
X40187Y19927D01*
X39770D01*
X39722Y19918D01*
X39702Y19905D01*
X39692Y19906D01*
X39650Y19928D01*
X39642Y19988D01*
X39612Y20061D01*
X39564Y20124D01*
X39501Y20172D01*
X39428Y20202D01*
X39350Y20213D01*
X39272Y20202D01*
X39199Y20172D01*
X39136Y20124D01*
X39088Y20061D01*
X39058Y19988D01*
X39047Y19910D01*
X39058Y19832D01*
X39088Y19759D01*
X39123Y19712D01*
X39102Y19662D01*
X37908D01*
X37887Y19712D01*
X37922Y19759D01*
X37952Y19832D01*
X37963Y19910D01*
X37952Y19988D01*
X37922Y20061D01*
X37874Y20124D01*
X37811Y20172D01*
X37738Y20202D01*
X37660Y20213D01*
X37582Y20202D01*
X37509Y20172D01*
X37446Y20124D01*
X37398Y20061D01*
X37368Y19988D01*
X37357Y19910D01*
X37360Y19891D01*
X37313Y19868D01*
X36872Y20309D01*
X36860Y20366D01*
X36823Y20423D01*
X36766Y20460D01*
X36700Y20473D01*
X36634Y20460D01*
X36624Y20454D01*
X36580Y20477D01*
Y20580D01*
X36257D01*
Y20827D01*
X36479Y21049D01*
X36531Y21030D01*
X36540Y20984D01*
X36577Y20927D01*
X36634Y20890D01*
X36700Y20877D01*
X36766Y20890D01*
X36823Y20927D01*
X36860Y20984D01*
X36873Y21050D01*
X36860Y21116D01*
X36823Y21173D01*
X36766Y21210D01*
X36720Y21219D01*
X36701Y21271D01*
X36909Y21478D01*
X36966Y21490D01*
X37023Y21527D01*
X37060Y21584D01*
X37073Y21650D01*
X37060Y21716D01*
X37052Y21728D01*
X37076Y21773D01*
X38830D01*
X38879Y21782D01*
X38920Y21810D01*
X39428Y22318D01*
X39482Y22300D01*
X39490Y22259D01*
X39527Y22202D01*
X39584Y22165D01*
X39650Y22152D01*
X39685Y22159D01*
X39739Y22105D01*
X39781Y22077D01*
X39829Y22068D01*
X41009D01*
X41033Y22023D01*
X41028Y22016D01*
X41015Y21950D01*
X41028Y21884D01*
X41066Y21827D01*
X41084Y21815D01*
X41069Y21765D01*
X39810D01*
X39810Y21766D01*
X39773Y21823D01*
X39716Y21860D01*
X39650Y21873D01*
X39584Y21860D01*
X39527Y21823D01*
X39490Y21766D01*
X39477Y21700D01*
X39490Y21634D01*
X39527Y21577D01*
X39584Y21540D01*
X39650Y21527D01*
X39672Y21531D01*
X39688Y21520D01*
X39736Y21510D01*
X42020D01*
X42068Y21520D01*
X42110Y21548D01*
X42278Y21716D01*
X42512D01*
Y22131D01*
X42097D01*
Y21896D01*
X41967Y21765D01*
X41883D01*
Y22128D01*
X41767D01*
X41748Y22174D01*
X42278Y22703D01*
X42512D01*
Y23118D01*
X42097D01*
Y22884D01*
X41933Y22719D01*
X41883Y22740D01*
Y23116D01*
X41842D01*
X41815Y23166D01*
X41827Y23184D01*
X41840Y23250D01*
X41827Y23316D01*
X41790Y23373D01*
X41733Y23410D01*
X41667Y23423D01*
X41601Y23410D01*
X41544Y23373D01*
X41507Y23316D01*
X41494Y23250D01*
X41507Y23184D01*
X41519Y23166D01*
X41492Y23116D01*
X41468D01*
Y22701D01*
X41844D01*
X41864Y22651D01*
X41544Y22330D01*
X41330D01*
X41320Y22338D01*
Y22870D01*
X40420D01*
Y22697D01*
X39595D01*
X39570Y22747D01*
X39602Y22789D01*
X39632Y22862D01*
X39643Y22940D01*
X39632Y23018D01*
X39602Y23091D01*
X39554Y23154D01*
X39491Y23202D01*
X39418Y23232D01*
X39340Y23243D01*
X39262Y23232D01*
X39189Y23202D01*
X39126Y23154D01*
X39078Y23091D01*
X39048Y23018D01*
X39037Y22940D01*
X39048Y22862D01*
X39078Y22789D01*
X39126Y22726D01*
X39189Y22678D01*
X39262Y22648D01*
X39319Y22640D01*
X39340Y22589D01*
X38778Y22027D01*
X37141D01*
X37120Y22077D01*
X37190Y22148D01*
X37218Y22189D01*
X37227Y22238D01*
Y24678D01*
X37309Y24760D01*
X37360Y24739D01*
X37368Y24682D01*
X37398Y24609D01*
X37446Y24546D01*
X37509Y24498D01*
X37582Y24468D01*
X37660Y24457D01*
X37738Y24468D01*
X37811Y24498D01*
X37874Y24546D01*
X37922Y24609D01*
X37952Y24682D01*
X37963Y24760D01*
X37952Y24838D01*
X37922Y24911D01*
X37874Y24974D01*
X37811Y25022D01*
X37738Y25052D01*
X37681Y25060D01*
X37660Y25111D01*
X38096Y25546D01*
X39566D01*
X39589Y25502D01*
X39585Y25495D01*
X39571Y25428D01*
X39583Y25372D01*
X39562Y25341D01*
X39548Y25327D01*
X38987D01*
X38938Y25318D01*
X38897Y25290D01*
X38884Y25277D01*
X38465D01*
X38416Y25310D01*
X38350Y25323D01*
X38284Y25310D01*
X38227Y25273D01*
X38190Y25216D01*
X38177Y25150D01*
X38190Y25084D01*
X38227Y25027D01*
X38284Y24990D01*
X38350Y24977D01*
X38416Y24990D01*
X38465Y25023D01*
X38937D01*
X38986Y25032D01*
X39027Y25060D01*
X39040Y25073D01*
X39190D01*
X39200Y25023D01*
X39199Y25022D01*
X39136Y24974D01*
X39088Y24911D01*
X39058Y24838D01*
X39047Y24760D01*
X39058Y24682D01*
X39088Y24609D01*
X39136Y24546D01*
X39199Y24498D01*
X39272Y24468D01*
X39350Y24457D01*
X39428Y24468D01*
X39501Y24498D01*
X39564Y24546D01*
X39612Y24609D01*
X39642Y24682D01*
X39653Y24760D01*
X39642Y24838D01*
X39629Y24870D01*
X39672Y24898D01*
X40420Y24150D01*
Y23741D01*
X39954D01*
X39809Y23885D01*
X39801Y23925D01*
X39764Y23982D01*
X39708Y24019D01*
X39641Y24032D01*
X39575Y24019D01*
X39519Y23982D01*
X39481Y23925D01*
X39468Y23859D01*
X39481Y23793D01*
X39519Y23736D01*
X39575Y23699D01*
X39641Y23686D01*
X39647Y23687D01*
X39811Y23523D01*
X39852Y23496D01*
X39901Y23486D01*
X42020D01*
X42068Y23496D01*
X42110Y23523D01*
X42278Y23691D01*
X42512D01*
Y24106D01*
X42097D01*
Y23871D01*
X41967Y23741D01*
X41883D01*
Y24103D01*
X41825D01*
X41807Y24153D01*
X41827Y24184D01*
X41840Y24250D01*
X41827Y24316D01*
X41790Y24373D01*
X41733Y24410D01*
X41667Y24423D01*
X41601Y24410D01*
X41544Y24373D01*
X41507Y24316D01*
X41494Y24250D01*
X41507Y24184D01*
X41527Y24153D01*
X41500Y24103D01*
X41468D01*
Y23741D01*
X41320D01*
Y24330D01*
X40600D01*
X40474Y24456D01*
X40506Y24495D01*
X40523Y24483D01*
X40572Y24474D01*
X42020D01*
X42068Y24483D01*
X42110Y24511D01*
X42278Y24679D01*
X42512D01*
Y25094D01*
X42097D01*
Y24859D01*
X41967Y24728D01*
X41883D01*
Y25091D01*
X41790D01*
Y25204D01*
X41810Y25234D01*
X41823Y25300D01*
X41810Y25366D01*
X41802Y25378D01*
X41826Y25423D01*
X41981D01*
X42030Y25432D01*
X42071Y25460D01*
X42278Y25667D01*
X42512D01*
Y26081D01*
X42097D01*
Y25847D01*
X41933Y25682D01*
X41883Y25689D01*
Y26079D01*
X41468D01*
Y26013D01*
X41379D01*
X41373Y26023D01*
X41316Y26060D01*
X41250Y26073D01*
X41184Y26060D01*
X41127Y26023D01*
X41090Y25966D01*
X41077Y25900D01*
X41090Y25834D01*
X41127Y25777D01*
X41184Y25740D01*
X41250Y25727D01*
X41316Y25740D01*
X41344Y25758D01*
X41468D01*
Y25677D01*
X41153D01*
X40790Y26040D01*
X40749Y26068D01*
X40700Y26077D01*
X40015D01*
X39966Y26110D01*
X39900Y26123D01*
D02*
G37*
G36*
X50295Y28138D02*
X50191Y28125D01*
X50093Y28084D01*
X50010Y28020D01*
X49946Y27937D01*
X49905Y27839D01*
X49892Y27735D01*
X49905Y27631D01*
X49946Y27533D01*
X50010Y27450D01*
X50064Y27408D01*
Y24813D01*
X50005Y24806D01*
X49916Y24769D01*
X49840Y24710D01*
X49785Y24639D01*
X49777Y24634D01*
X49725Y24628D01*
X49442Y24910D01*
Y25365D01*
X49715D01*
Y26165D01*
X48915D01*
Y25365D01*
X49188D01*
Y24857D01*
X49188Y24857D01*
X49146Y24812D01*
X49100Y24818D01*
X49005Y24806D01*
X48916Y24769D01*
X48840Y24710D01*
X48781Y24634D01*
X48744Y24545D01*
X48732Y24450D01*
X48744Y24355D01*
X48781Y24266D01*
X48840Y24190D01*
X48916Y24131D01*
X49005Y24094D01*
X49100Y24082D01*
X49195Y24094D01*
X49284Y24131D01*
X49360Y24190D01*
X49419Y24266D01*
X49456Y24355D01*
X49464Y24421D01*
X49517Y24445D01*
X49533Y24434D01*
Y24190D01*
X49542Y24141D01*
X49570Y24100D01*
X50215Y23454D01*
X50191Y23417D01*
X50177Y23351D01*
X50191Y23284D01*
X50228Y23228D01*
X50284Y23191D01*
X50351Y23177D01*
X50417Y23191D01*
X50473Y23228D01*
X50511Y23284D01*
X50524Y23351D01*
X50511Y23417D01*
X50478Y23466D01*
Y23499D01*
X50468Y23548D01*
X50441Y23589D01*
X49980Y24051D01*
X50003Y24091D01*
X50007Y24094D01*
X50100Y24082D01*
X50195Y24094D01*
X50284Y24131D01*
X50360Y24190D01*
X50419Y24266D01*
X50456Y24355D01*
X50468Y24450D01*
X50456Y24545D01*
X50419Y24634D01*
X50360Y24710D01*
X50319Y24742D01*
Y27335D01*
X50399Y27345D01*
X50497Y27386D01*
X50580Y27450D01*
X50644Y27533D01*
X50685Y27631D01*
X50698Y27735D01*
X50685Y27839D01*
X50644Y27937D01*
X50580Y28020D01*
X50497Y28084D01*
X50399Y28125D01*
X50295Y28138D01*
D02*
G37*
G36*
X52100Y24818D02*
X52005Y24806D01*
X51916Y24769D01*
X51840Y24710D01*
X51781Y24634D01*
X51744Y24545D01*
X51732Y24450D01*
X51744Y24355D01*
X51781Y24266D01*
X51840Y24190D01*
X51916Y24131D01*
X52005Y24094D01*
X52100Y24082D01*
X52195Y24094D01*
X52284Y24131D01*
X52360Y24190D01*
X52419Y24266D01*
X52456Y24355D01*
X52468Y24450D01*
X52456Y24545D01*
X52419Y24634D01*
X52360Y24710D01*
X52284Y24769D01*
X52195Y24806D01*
X52100Y24818D01*
D02*
G37*
G36*
X48100D02*
X48005Y24806D01*
X47916Y24769D01*
X47840Y24710D01*
X47781Y24634D01*
X47744Y24545D01*
X47732Y24450D01*
X47744Y24355D01*
X47781Y24266D01*
X47840Y24190D01*
X47916Y24131D01*
X48005Y24094D01*
X48100Y24082D01*
X48195Y24094D01*
X48284Y24131D01*
X48360Y24190D01*
X48419Y24266D01*
X48456Y24355D01*
X48468Y24450D01*
X48456Y24545D01*
X48419Y24634D01*
X48360Y24710D01*
X48284Y24769D01*
X48195Y24806D01*
X48100Y24818D01*
D02*
G37*
G36*
X28250D02*
X28155Y24806D01*
X28066Y24769D01*
X27990Y24710D01*
X27931Y24634D01*
X27894Y24545D01*
X27882Y24450D01*
X27894Y24355D01*
X27931Y24266D01*
X27990Y24190D01*
X28066Y24131D01*
X28155Y24094D01*
X28250Y24082D01*
X28345Y24094D01*
X28434Y24131D01*
X28510Y24190D01*
X28569Y24266D01*
X28606Y24355D01*
X28618Y24450D01*
X28606Y24545D01*
X28569Y24634D01*
X28510Y24710D01*
X28434Y24769D01*
X28345Y24806D01*
X28250Y24818D01*
D02*
G37*
G36*
X26195Y28138D02*
X26091Y28125D01*
X25993Y28084D01*
X25910Y28020D01*
X25846Y27937D01*
X25805Y27839D01*
X25792Y27735D01*
X25805Y27631D01*
X25846Y27533D01*
X25910Y27450D01*
X25993Y27386D01*
X26091Y27345D01*
X26095Y27345D01*
Y24781D01*
X26066Y24769D01*
X25990Y24710D01*
X25931Y24634D01*
X25894Y24545D01*
X25882Y24450D01*
X25894Y24355D01*
X25931Y24266D01*
X25990Y24190D01*
X26066Y24131D01*
X26155Y24094D01*
X26250Y24082D01*
X26345Y24094D01*
X26434Y24131D01*
X26510Y24190D01*
X26569Y24266D01*
X26606Y24355D01*
X26618Y24450D01*
X26606Y24545D01*
X26569Y24634D01*
X26510Y24710D01*
X26434Y24769D01*
X26350Y24804D01*
Y27366D01*
X26397Y27386D01*
X26480Y27450D01*
X26544Y27533D01*
X26585Y27631D01*
X26598Y27735D01*
X26585Y27839D01*
X26544Y27937D01*
X26480Y28020D01*
X26397Y28084D01*
X26299Y28125D01*
X26195Y28138D01*
D02*
G37*
G36*
X25615Y26165D02*
X24815D01*
Y25365D01*
X25088D01*
Y25134D01*
X24720Y24767D01*
X24692Y24725D01*
X24683Y24676D01*
Y23490D01*
X24692Y23441D01*
X24720Y23400D01*
X25178Y22941D01*
X25190Y22884D01*
X25227Y22827D01*
X25284Y22790D01*
X25350Y22777D01*
X25416Y22790D01*
X25473Y22827D01*
X25510Y22884D01*
X25523Y22950D01*
X25510Y23016D01*
X25473Y23073D01*
X25416Y23110D01*
X25359Y23122D01*
X24937Y23543D01*
Y24180D01*
X24985Y24196D01*
X24990Y24190D01*
X25066Y24131D01*
X25155Y24094D01*
X25250Y24082D01*
X25345Y24094D01*
X25434Y24131D01*
X25510Y24190D01*
X25569Y24266D01*
X25606Y24355D01*
X25618Y24450D01*
X25606Y24545D01*
X25569Y24634D01*
X25510Y24710D01*
X25434Y24769D01*
X25345Y24806D01*
X25250Y24818D01*
X25196Y24811D01*
X25172Y24858D01*
X25305Y24991D01*
X25333Y25033D01*
X25342Y25081D01*
Y25365D01*
X25615D01*
Y26165D01*
D02*
G37*
G36*
X24250Y24818D02*
X24155Y24806D01*
X24066Y24769D01*
X23990Y24710D01*
X23931Y24634D01*
X23894Y24545D01*
X23882Y24450D01*
X23894Y24355D01*
X23931Y24266D01*
X23990Y24190D01*
X24066Y24131D01*
X24155Y24094D01*
X24250Y24082D01*
X24345Y24094D01*
X24434Y24131D01*
X24510Y24190D01*
X24569Y24266D01*
X24606Y24355D01*
X24618Y24450D01*
X24606Y24545D01*
X24569Y24634D01*
X24510Y24710D01*
X24434Y24769D01*
X24345Y24806D01*
X24250Y24818D01*
D02*
G37*
G36*
X22250D02*
X22155Y24806D01*
X22066Y24769D01*
X21990Y24710D01*
X21931Y24634D01*
X21894Y24545D01*
X21882Y24450D01*
X21894Y24355D01*
X21931Y24266D01*
X21990Y24190D01*
X22066Y24131D01*
X22155Y24094D01*
X22250Y24082D01*
X22345Y24094D01*
X22434Y24131D01*
X22510Y24190D01*
X22569Y24266D01*
X22606Y24355D01*
X22618Y24450D01*
X22606Y24545D01*
X22569Y24634D01*
X22510Y24710D01*
X22434Y24769D01*
X22345Y24806D01*
X22250Y24818D01*
D02*
G37*
G36*
X37650Y23243D02*
X37572Y23232D01*
X37499Y23202D01*
X37436Y23154D01*
X37388Y23091D01*
X37358Y23018D01*
X37347Y22940D01*
X37358Y22862D01*
X37388Y22789D01*
X37436Y22726D01*
X37499Y22678D01*
X37572Y22648D01*
X37650Y22637D01*
X37728Y22648D01*
X37801Y22678D01*
X37864Y22726D01*
X37912Y22789D01*
X37942Y22862D01*
X37953Y22940D01*
X37942Y23018D01*
X37912Y23091D01*
X37864Y23154D01*
X37801Y23202D01*
X37728Y23232D01*
X37650Y23243D01*
D02*
G37*
G36*
X54465Y24815D02*
X53735D01*
Y24085D01*
X54285D01*
X54473Y23897D01*
Y21635D01*
X54423Y21625D01*
X54419Y21634D01*
X54360Y21710D01*
X54284Y21769D01*
X54195Y21806D01*
X54100Y21818D01*
X54005Y21806D01*
X53916Y21769D01*
X53840Y21710D01*
X53781Y21634D01*
X53744Y21545D01*
X53732Y21450D01*
X53742Y21370D01*
X52994Y20622D01*
X52968Y20643D01*
X52883Y20678D01*
X52791Y20690D01*
X52700Y20678D01*
X52615Y20643D01*
X52542Y20587D01*
X52486Y20514D01*
X52450Y20428D01*
X52438Y20337D01*
X52450Y20246D01*
X52486Y20160D01*
X52542Y20087D01*
X52615Y20031D01*
X52700Y19996D01*
X52791Y19984D01*
X52883Y19996D01*
X52968Y20031D01*
X53041Y20087D01*
X53097Y20160D01*
X53132Y20246D01*
X53144Y20337D01*
X53136Y20403D01*
X53199Y20467D01*
X53241Y20438D01*
X53237Y20428D01*
X53225Y20337D01*
X53237Y20246D01*
X53273Y20160D01*
X53329Y20087D01*
X53402Y20031D01*
X53487Y19996D01*
X53578Y19984D01*
X53670Y19996D01*
X53755Y20031D01*
X53828Y20087D01*
X53884Y20160D01*
X53919Y20246D01*
X53923Y20276D01*
X53954D01*
X54003Y20286D01*
X54044Y20314D01*
X54690Y20960D01*
X54718Y21001D01*
X54727Y21050D01*
Y23950D01*
X54718Y23999D01*
X54690Y24040D01*
X54465Y24265D01*
Y24815D01*
D02*
G37*
G36*
X53100Y21818D02*
X53005Y21806D01*
X52916Y21769D01*
X52840Y21710D01*
X52781Y21634D01*
X52744Y21545D01*
X52732Y21450D01*
X52744Y21355D01*
X52770Y21292D01*
X52139Y20660D01*
X52096Y20678D01*
X52004Y20690D01*
X51913Y20678D01*
X51828Y20643D01*
X51755Y20587D01*
X51699Y20514D01*
X51663Y20428D01*
X51651Y20337D01*
X51663Y20246D01*
X51699Y20160D01*
X51755Y20087D01*
X51828Y20031D01*
X51913Y19996D01*
X52004Y19984D01*
X52096Y19996D01*
X52181Y20031D01*
X52254Y20087D01*
X52310Y20160D01*
X52345Y20246D01*
X52357Y20337D01*
X52345Y20428D01*
X52322Y20484D01*
X52954Y21115D01*
X53005Y21094D01*
X53100Y21082D01*
X53195Y21094D01*
X53284Y21131D01*
X53360Y21190D01*
X53419Y21266D01*
X53456Y21355D01*
X53468Y21450D01*
X53456Y21545D01*
X53419Y21634D01*
X53360Y21710D01*
X53284Y21769D01*
X53195Y21806D01*
X53100Y21818D01*
D02*
G37*
G36*
X52100D02*
X52005Y21806D01*
X51916Y21769D01*
X51840Y21710D01*
X51781Y21634D01*
X51744Y21545D01*
X51732Y21450D01*
X51744Y21355D01*
X51781Y21266D01*
X51811Y21227D01*
X51268Y20683D01*
X51217Y20690D01*
X51126Y20678D01*
X51041Y20643D01*
X50968Y20587D01*
X50912Y20514D01*
X50876Y20428D01*
X50864Y20337D01*
X50876Y20246D01*
X50912Y20160D01*
X50968Y20087D01*
X51041Y20031D01*
X51126Y19996D01*
X51217Y19984D01*
X51309Y19996D01*
X51394Y20031D01*
X51467Y20087D01*
X51523Y20160D01*
X51558Y20246D01*
X51570Y20337D01*
X51558Y20428D01*
X51523Y20514D01*
X51495Y20550D01*
X52036Y21090D01*
X52100Y21082D01*
X52195Y21094D01*
X52284Y21131D01*
X52360Y21190D01*
X52419Y21266D01*
X52456Y21355D01*
X52468Y21450D01*
X52456Y21545D01*
X52419Y21634D01*
X52360Y21710D01*
X52284Y21769D01*
X52195Y21806D01*
X52100Y21818D01*
D02*
G37*
G36*
X51100D02*
X51005Y21806D01*
X50916Y21769D01*
X50840Y21710D01*
X50781Y21634D01*
X50744Y21545D01*
X50732Y21450D01*
X50744Y21355D01*
X50768Y21298D01*
X50422Y20952D01*
X50394Y20911D01*
X50385Y20862D01*
Y20684D01*
X50339Y20678D01*
X50254Y20643D01*
X50181Y20587D01*
X50125Y20514D01*
X50089Y20428D01*
X50077Y20337D01*
X50089Y20246D01*
X50125Y20160D01*
X50181Y20087D01*
X50254Y20031D01*
X50339Y19996D01*
X50430Y19984D01*
X50522Y19996D01*
X50607Y20031D01*
X50680Y20087D01*
X50736Y20160D01*
X50771Y20246D01*
X50783Y20337D01*
X50771Y20428D01*
X50736Y20514D01*
X50680Y20587D01*
X50639Y20618D01*
Y20809D01*
X50948Y21118D01*
X51005Y21094D01*
X51100Y21082D01*
X51195Y21094D01*
X51284Y21131D01*
X51360Y21190D01*
X51419Y21266D01*
X51456Y21355D01*
X51468Y21450D01*
X51456Y21545D01*
X51419Y21634D01*
X51360Y21710D01*
X51284Y21769D01*
X51195Y21806D01*
X51100Y21818D01*
D02*
G37*
G36*
X30250D02*
X30155Y21806D01*
X30066Y21769D01*
X29990Y21710D01*
X29931Y21634D01*
X29894Y21545D01*
X29882Y21450D01*
X29894Y21355D01*
X29918Y21299D01*
X29276Y20657D01*
X29226Y20678D01*
X29135Y20690D01*
X29043Y20678D01*
X28958Y20643D01*
X28885Y20587D01*
X28829Y20514D01*
X28794Y20428D01*
X28781Y20337D01*
X28794Y20246D01*
X28829Y20160D01*
X28885Y20087D01*
X28958Y20031D01*
X29043Y19996D01*
X29135Y19984D01*
X29226Y19996D01*
X29311Y20031D01*
X29384Y20087D01*
X29440Y20160D01*
X29475Y20246D01*
X29488Y20337D01*
X29475Y20428D01*
X29456Y20477D01*
X30097Y21118D01*
X30155Y21094D01*
X30250Y21082D01*
X30345Y21094D01*
X30434Y21131D01*
X30510Y21190D01*
X30569Y21266D01*
X30606Y21355D01*
X30618Y21450D01*
X30606Y21545D01*
X30569Y21634D01*
X30510Y21710D01*
X30434Y21769D01*
X30345Y21806D01*
X30250Y21818D01*
D02*
G37*
G36*
X29250D02*
X29155Y21806D01*
X29066Y21769D01*
X28990Y21710D01*
X28931Y21634D01*
X28894Y21545D01*
X28882Y21450D01*
X28894Y21355D01*
X28931Y21266D01*
X28957Y21232D01*
X28407Y20682D01*
X28347Y20690D01*
X28256Y20678D01*
X28171Y20643D01*
X28098Y20587D01*
X28042Y20514D01*
X28007Y20428D01*
X27994Y20337D01*
X28007Y20246D01*
X28042Y20160D01*
X28098Y20087D01*
X28171Y20031D01*
X28256Y19996D01*
X28347Y19984D01*
X28439Y19996D01*
X28524Y20031D01*
X28597Y20087D01*
X28653Y20160D01*
X28688Y20246D01*
X28701Y20337D01*
X28688Y20428D01*
X28653Y20514D01*
X28630Y20544D01*
X29177Y21091D01*
X29250Y21082D01*
X29345Y21094D01*
X29434Y21131D01*
X29510Y21190D01*
X29569Y21266D01*
X29606Y21355D01*
X29618Y21450D01*
X29606Y21545D01*
X29569Y21634D01*
X29510Y21710D01*
X29434Y21769D01*
X29345Y21806D01*
X29250Y21818D01*
D02*
G37*
G36*
X27250D02*
X27155Y21806D01*
X27066Y21769D01*
X26990Y21710D01*
X26931Y21634D01*
X26894Y21545D01*
X26882Y21450D01*
X26894Y21355D01*
X26918Y21298D01*
X26702Y21082D01*
X26674Y21041D01*
X26664Y20992D01*
Y20671D01*
X26597Y20643D01*
X26524Y20587D01*
X26468Y20514D01*
X26433Y20428D01*
X26420Y20337D01*
X26433Y20246D01*
X26468Y20160D01*
X26524Y20087D01*
X26597Y20031D01*
X26682Y19996D01*
X26774Y19984D01*
X26865Y19996D01*
X26950Y20031D01*
X27023Y20087D01*
X27079Y20160D01*
X27114Y20246D01*
X27127Y20337D01*
X27114Y20428D01*
X27079Y20514D01*
X27023Y20587D01*
X26950Y20643D01*
X26919Y20655D01*
Y20939D01*
X27098Y21118D01*
X27155Y21094D01*
X27250Y21082D01*
X27345Y21094D01*
X27434Y21131D01*
X27510Y21190D01*
X27569Y21266D01*
X27606Y21355D01*
X27618Y21450D01*
X27606Y21545D01*
X27569Y21634D01*
X27510Y21710D01*
X27434Y21769D01*
X27345Y21806D01*
X27250Y21818D01*
D02*
G37*
G36*
X26250D02*
X26155Y21806D01*
X26066Y21769D01*
X25990Y21710D01*
X25931Y21634D01*
X25894Y21545D01*
X25882Y21450D01*
X25894Y21355D01*
X25931Y21266D01*
X25968Y21218D01*
X25896Y21147D01*
X25869Y21105D01*
X25859Y21057D01*
Y20663D01*
X25810Y20643D01*
X25737Y20587D01*
X25681Y20514D01*
X25646Y20428D01*
X25633Y20337D01*
X25646Y20246D01*
X25681Y20160D01*
X25737Y20087D01*
X25810Y20031D01*
X25895Y19996D01*
X25986Y19984D01*
X26078Y19996D01*
X26163Y20031D01*
X26236Y20087D01*
X26292Y20160D01*
X26327Y20246D01*
X26340Y20337D01*
X26327Y20428D01*
X26292Y20514D01*
X26236Y20587D01*
X26163Y20643D01*
X26114Y20663D01*
Y21004D01*
X26199Y21089D01*
X26250Y21082D01*
X26345Y21094D01*
X26434Y21131D01*
X26510Y21190D01*
X26569Y21266D01*
X26606Y21355D01*
X26618Y21450D01*
X26606Y21545D01*
X26569Y21634D01*
X26510Y21710D01*
X26434Y21769D01*
X26345Y21806D01*
X26250Y21818D01*
D02*
G37*
G36*
X49100D02*
X49005Y21806D01*
X48916Y21769D01*
X48840Y21710D01*
X48781Y21634D01*
X48744Y21545D01*
X48732Y21450D01*
X48744Y21355D01*
X48781Y21266D01*
X48840Y21190D01*
X48916Y21131D01*
X48973Y21108D01*
Y20755D01*
X48901Y20684D01*
X48856Y20690D01*
X48765Y20678D01*
X48680Y20643D01*
X48607Y20587D01*
X48551Y20514D01*
X48515Y20428D01*
X48503Y20337D01*
X48515Y20246D01*
X48551Y20160D01*
X48607Y20087D01*
X48680Y20031D01*
X48765Y19996D01*
X48856Y19984D01*
X48948Y19996D01*
X49033Y20031D01*
X49106Y20087D01*
X49162Y20160D01*
X49197Y20246D01*
X49209Y20337D01*
X49197Y20428D01*
X49162Y20514D01*
X49131Y20554D01*
X49190Y20612D01*
X49218Y20654D01*
X49227Y20702D01*
Y21108D01*
X49284Y21131D01*
X49360Y21190D01*
X49419Y21266D01*
X49456Y21355D01*
X49468Y21450D01*
X49456Y21545D01*
X49419Y21634D01*
X49360Y21710D01*
X49284Y21769D01*
X49195Y21806D01*
X49100Y21818D01*
D02*
G37*
G36*
X50100D02*
X50005Y21806D01*
X49916Y21769D01*
X49840Y21710D01*
X49781Y21634D01*
X49744Y21545D01*
X49732Y21450D01*
X49744Y21355D01*
X49781Y21266D01*
X49840Y21190D01*
X49916Y21131D01*
X49967Y21110D01*
Y20841D01*
X49784Y20658D01*
X49735Y20678D01*
X49643Y20690D01*
X49552Y20678D01*
X49467Y20643D01*
X49394Y20587D01*
X49338Y20514D01*
X49302Y20428D01*
X49290Y20337D01*
X49302Y20246D01*
X49338Y20160D01*
X49394Y20087D01*
X49467Y20031D01*
X49552Y19996D01*
X49643Y19984D01*
X49735Y19996D01*
X49820Y20031D01*
X49893Y20087D01*
X49949Y20160D01*
X49984Y20246D01*
X49996Y20337D01*
X49984Y20428D01*
X49964Y20477D01*
X50185Y20698D01*
X50212Y20740D01*
X50222Y20788D01*
Y21106D01*
X50284Y21131D01*
X50360Y21190D01*
X50419Y21266D01*
X50456Y21355D01*
X50468Y21450D01*
X50456Y21545D01*
X50419Y21634D01*
X50360Y21710D01*
X50284Y21769D01*
X50195Y21806D01*
X50100Y21818D01*
D02*
G37*
G36*
X30615Y24815D02*
X29885D01*
Y24085D01*
X30435D01*
X30673Y23847D01*
Y21268D01*
X30062Y20658D01*
X30013Y20678D01*
X29922Y20690D01*
X29830Y20678D01*
X29745Y20643D01*
X29672Y20587D01*
X29616Y20514D01*
X29581Y20428D01*
X29568Y20337D01*
X29581Y20246D01*
X29616Y20160D01*
X29672Y20087D01*
X29745Y20031D01*
X29830Y19996D01*
X29922Y19984D01*
X30013Y19996D01*
X30098Y20031D01*
X30171Y20087D01*
X30227Y20160D01*
X30262Y20246D01*
X30275Y20337D01*
X30262Y20428D01*
X30242Y20477D01*
X30890Y21125D01*
X30918Y21167D01*
X30927Y21216D01*
Y23900D01*
X30918Y23949D01*
X30890Y23990D01*
X30615Y24265D01*
Y24815D01*
D02*
G37*
G36*
X28250Y21818D02*
X28155Y21806D01*
X28066Y21769D01*
X27990Y21710D01*
X27931Y21634D01*
X27894Y21545D01*
X27882Y21450D01*
X27894Y21355D01*
X27931Y21266D01*
X27990Y21190D01*
X28031Y21158D01*
Y20987D01*
X27701Y20658D01*
X27652Y20678D01*
X27561Y20690D01*
X27469Y20678D01*
X27384Y20643D01*
X27311Y20587D01*
X27255Y20514D01*
X27220Y20428D01*
X27207Y20337D01*
X27220Y20246D01*
X27255Y20160D01*
X27311Y20087D01*
X27384Y20031D01*
X27469Y19996D01*
X27561Y19984D01*
X27652Y19996D01*
X27737Y20031D01*
X27810Y20087D01*
X27866Y20160D01*
X27901Y20246D01*
X27914Y20337D01*
X27901Y20428D01*
X27881Y20477D01*
X28248Y20845D01*
X28276Y20886D01*
X28286Y20935D01*
Y21087D01*
X28345Y21094D01*
X28434Y21131D01*
X28510Y21190D01*
X28569Y21266D01*
X28606Y21355D01*
X28618Y21450D01*
X28606Y21545D01*
X28569Y21634D01*
X28510Y21710D01*
X28434Y21769D01*
X28345Y21806D01*
X28250Y21818D01*
D02*
G37*
G36*
X46100D02*
X46005Y21806D01*
X45916Y21769D01*
X45840Y21710D01*
X45781Y21634D01*
X45744Y21545D01*
X45732Y21450D01*
X45744Y21355D01*
X45781Y21266D01*
X45840Y21190D01*
X45916Y21131D01*
X45973Y21108D01*
Y20732D01*
X45982Y20684D01*
X46010Y20642D01*
X46145Y20507D01*
Y19987D01*
X46845D01*
Y20687D01*
X46326D01*
X46227Y20785D01*
Y21108D01*
X46284Y21131D01*
X46360Y21190D01*
X46419Y21266D01*
X46456Y21355D01*
X46468Y21450D01*
X46456Y21545D01*
X46419Y21634D01*
X46360Y21710D01*
X46284Y21769D01*
X46195Y21806D01*
X46100Y21818D01*
D02*
G37*
G36*
X22250D02*
X22155Y21806D01*
X22066Y21769D01*
X21990Y21710D01*
X21931Y21634D01*
X21894Y21545D01*
X21882Y21450D01*
X21894Y21355D01*
X21931Y21266D01*
X21990Y21190D01*
X22066Y21131D01*
X22155Y21094D01*
X22250Y21082D01*
X22345Y21094D01*
X22402Y21118D01*
X22711Y20809D01*
Y20687D01*
X22489D01*
Y19987D01*
X23189D01*
Y20687D01*
X22966D01*
Y20861D01*
X22956Y20910D01*
X22929Y20952D01*
X22582Y21298D01*
X22606Y21355D01*
X22618Y21450D01*
X22606Y21545D01*
X22569Y21634D01*
X22510Y21710D01*
X22434Y21769D01*
X22345Y21806D01*
X22250Y21818D01*
D02*
G37*
G36*
X48100D02*
X48005Y21806D01*
X47916Y21769D01*
X47840Y21710D01*
X47781Y21634D01*
X47744Y21545D01*
X47732Y21450D01*
X47744Y21355D01*
X47781Y21266D01*
X47840Y21190D01*
X47916Y21131D01*
X47957Y21114D01*
Y20669D01*
X47893Y20643D01*
X47820Y20587D01*
X47764Y20514D01*
X47728Y20428D01*
X47716Y20337D01*
X47728Y20246D01*
X47764Y20160D01*
X47820Y20087D01*
X47893Y20031D01*
X47978Y19996D01*
X48069Y19984D01*
X48161Y19996D01*
X48246Y20031D01*
X48319Y20087D01*
X48375Y20160D01*
X48410Y20246D01*
X48422Y20337D01*
X48410Y20428D01*
X48375Y20514D01*
X48319Y20587D01*
X48246Y20643D01*
X48212Y20657D01*
Y21101D01*
X48284Y21131D01*
X48360Y21190D01*
X48419Y21266D01*
X48456Y21355D01*
X48468Y21450D01*
X48456Y21545D01*
X48419Y21634D01*
X48360Y21710D01*
X48284Y21769D01*
X48195Y21806D01*
X48100Y21818D01*
D02*
G37*
G36*
X47100D02*
X47005Y21806D01*
X46916Y21769D01*
X46840Y21710D01*
X46781Y21634D01*
X46744Y21545D01*
X46732Y21450D01*
X46744Y21355D01*
X46781Y21266D01*
X46840Y21190D01*
X46916Y21131D01*
X46973Y21108D01*
Y20641D01*
X46982Y20592D01*
X47008Y20554D01*
X46977Y20514D01*
X46941Y20428D01*
X46929Y20337D01*
X46941Y20246D01*
X46977Y20160D01*
X47033Y20087D01*
X47106Y20031D01*
X47191Y19996D01*
X47282Y19984D01*
X47374Y19996D01*
X47459Y20031D01*
X47532Y20087D01*
X47588Y20160D01*
X47623Y20246D01*
X47635Y20337D01*
X47623Y20428D01*
X47588Y20514D01*
X47532Y20587D01*
X47459Y20643D01*
X47374Y20678D01*
X47282Y20690D01*
X47275Y20689D01*
X47227Y20732D01*
Y21108D01*
X47284Y21131D01*
X47360Y21190D01*
X47419Y21266D01*
X47456Y21355D01*
X47468Y21450D01*
X47456Y21545D01*
X47419Y21634D01*
X47360Y21710D01*
X47284Y21769D01*
X47195Y21806D01*
X47100Y21818D01*
D02*
G37*
G36*
X25250D02*
X25155Y21806D01*
X25066Y21769D01*
X24990Y21710D01*
X24931Y21634D01*
X24894Y21545D01*
X24882Y21450D01*
X24894Y21355D01*
X24931Y21266D01*
X24990Y21190D01*
X25066Y21131D01*
X25097Y21118D01*
Y20674D01*
X25023Y20643D01*
X24950Y20587D01*
X24894Y20514D01*
X24859Y20428D01*
X24846Y20337D01*
X24859Y20246D01*
X24894Y20160D01*
X24950Y20087D01*
X25023Y20031D01*
X25108Y19996D01*
X25199Y19984D01*
X25291Y19996D01*
X25376Y20031D01*
X25449Y20087D01*
X25505Y20160D01*
X25540Y20246D01*
X25553Y20337D01*
X25540Y20428D01*
X25505Y20514D01*
X25449Y20587D01*
X25376Y20643D01*
X25352Y20653D01*
Y21097D01*
X25434Y21131D01*
X25510Y21190D01*
X25569Y21266D01*
X25606Y21355D01*
X25618Y21450D01*
X25606Y21545D01*
X25569Y21634D01*
X25510Y21710D01*
X25434Y21769D01*
X25345Y21806D01*
X25250Y21818D01*
D02*
G37*
G36*
X24250D02*
X24155Y21806D01*
X24066Y21769D01*
X23990Y21710D01*
X23931Y21634D01*
X23894Y21545D01*
X23882Y21450D01*
X23894Y21355D01*
X23931Y21266D01*
X23990Y21190D01*
X24066Y21131D01*
X24155Y21094D01*
X24204Y21088D01*
Y20618D01*
X24163Y20587D01*
X24107Y20514D01*
X24072Y20428D01*
X24059Y20337D01*
X24072Y20246D01*
X24107Y20160D01*
X24163Y20087D01*
X24236Y20031D01*
X24321Y19996D01*
X24413Y19984D01*
X24504Y19996D01*
X24589Y20031D01*
X24662Y20087D01*
X24718Y20160D01*
X24753Y20246D01*
X24766Y20337D01*
X24753Y20428D01*
X24718Y20514D01*
X24662Y20587D01*
X24589Y20643D01*
X24504Y20678D01*
X24459Y20684D01*
Y21150D01*
X24510Y21190D01*
X24569Y21266D01*
X24606Y21355D01*
X24618Y21450D01*
X24606Y21545D01*
X24569Y21634D01*
X24510Y21710D01*
X24434Y21769D01*
X24345Y21806D01*
X24250Y21818D01*
D02*
G37*
G36*
X23250D02*
X23155Y21806D01*
X23066Y21769D01*
X22990Y21710D01*
X22931Y21634D01*
X22894Y21545D01*
X22882Y21450D01*
X22894Y21355D01*
X22931Y21266D01*
X22990Y21190D01*
X23066Y21131D01*
X23155Y21094D01*
X23250Y21082D01*
X23345Y21094D01*
X23393Y21114D01*
X23498Y21009D01*
Y20663D01*
X23449Y20643D01*
X23376Y20587D01*
X23320Y20514D01*
X23285Y20428D01*
X23272Y20337D01*
X23285Y20246D01*
X23320Y20160D01*
X23376Y20087D01*
X23449Y20031D01*
X23534Y19996D01*
X23626Y19984D01*
X23717Y19996D01*
X23802Y20031D01*
X23875Y20087D01*
X23931Y20160D01*
X23966Y20246D01*
X23979Y20337D01*
X23966Y20428D01*
X23931Y20514D01*
X23875Y20587D01*
X23802Y20643D01*
X23753Y20663D01*
Y21062D01*
X23743Y21111D01*
X23716Y21152D01*
X23578Y21289D01*
X23606Y21355D01*
X23618Y21450D01*
X23606Y21545D01*
X23569Y21634D01*
X23510Y21710D01*
X23434Y21769D01*
X23345Y21806D01*
X23250Y21818D01*
D02*
G37*
G36*
X34800Y19673D02*
X34734Y19660D01*
X34677Y19623D01*
X34640Y19566D01*
X34627Y19500D01*
X34640Y19434D01*
X34677Y19377D01*
X34734Y19340D01*
X34800Y19327D01*
X34866Y19340D01*
X34923Y19377D01*
X34960Y19434D01*
X34973Y19500D01*
X34960Y19566D01*
X34923Y19623D01*
X34866Y19660D01*
X34800Y19673D01*
D02*
G37*
G36*
X53578Y19903D02*
X53487Y19891D01*
X53402Y19856D01*
X53329Y19800D01*
X53273Y19727D01*
X53237Y19641D01*
X53225Y19550D01*
X53237Y19459D01*
X53273Y19373D01*
X53329Y19300D01*
X53402Y19244D01*
X53487Y19209D01*
X53578Y19197D01*
X53670Y19209D01*
X53755Y19244D01*
X53828Y19300D01*
X53884Y19373D01*
X53919Y19459D01*
X53931Y19550D01*
X53919Y19641D01*
X53884Y19727D01*
X53828Y19800D01*
X53755Y19856D01*
X53670Y19891D01*
X53578Y19903D01*
D02*
G37*
G36*
X52791D02*
X52700Y19891D01*
X52615Y19856D01*
X52542Y19800D01*
X52486Y19727D01*
X52450Y19641D01*
X52438Y19550D01*
X52450Y19459D01*
X52486Y19373D01*
X52542Y19300D01*
X52615Y19244D01*
X52700Y19209D01*
X52791Y19197D01*
X52883Y19209D01*
X52968Y19244D01*
X53041Y19300D01*
X53097Y19373D01*
X53132Y19459D01*
X53144Y19550D01*
X53132Y19641D01*
X53097Y19727D01*
X53041Y19800D01*
X52968Y19856D01*
X52883Y19891D01*
X52791Y19903D01*
D02*
G37*
G36*
X52004D02*
X51913Y19891D01*
X51828Y19856D01*
X51755Y19800D01*
X51699Y19727D01*
X51663Y19641D01*
X51651Y19550D01*
X51663Y19459D01*
X51699Y19373D01*
X51755Y19300D01*
X51828Y19244D01*
X51913Y19209D01*
X52004Y19197D01*
X52096Y19209D01*
X52181Y19244D01*
X52254Y19300D01*
X52310Y19373D01*
X52345Y19459D01*
X52357Y19550D01*
X52345Y19641D01*
X52310Y19727D01*
X52254Y19800D01*
X52181Y19856D01*
X52096Y19891D01*
X52004Y19903D01*
D02*
G37*
G36*
X29922D02*
X29830Y19891D01*
X29745Y19856D01*
X29672Y19800D01*
X29616Y19727D01*
X29581Y19641D01*
X29568Y19550D01*
X29581Y19459D01*
X29616Y19373D01*
X29672Y19300D01*
X29745Y19244D01*
X29830Y19209D01*
X29922Y19197D01*
X30013Y19209D01*
X30098Y19244D01*
X30171Y19300D01*
X30227Y19373D01*
X30262Y19459D01*
X30275Y19550D01*
X30262Y19641D01*
X30227Y19727D01*
X30171Y19800D01*
X30098Y19856D01*
X30013Y19891D01*
X29922Y19903D01*
D02*
G37*
G36*
X29135D02*
X29043Y19891D01*
X28958Y19856D01*
X28885Y19800D01*
X28829Y19727D01*
X28794Y19641D01*
X28781Y19550D01*
X28794Y19459D01*
X28829Y19373D01*
X28885Y19300D01*
X28958Y19244D01*
X29043Y19209D01*
X29135Y19197D01*
X29226Y19209D01*
X29311Y19244D01*
X29384Y19300D01*
X29440Y19373D01*
X29475Y19459D01*
X29488Y19550D01*
X29475Y19641D01*
X29440Y19727D01*
X29384Y19800D01*
X29311Y19856D01*
X29226Y19891D01*
X29135Y19903D01*
D02*
G37*
G36*
X28347D02*
X28256Y19891D01*
X28171Y19856D01*
X28098Y19800D01*
X28042Y19727D01*
X28007Y19641D01*
X27994Y19550D01*
X28007Y19459D01*
X28042Y19373D01*
X28098Y19300D01*
X28171Y19244D01*
X28256Y19209D01*
X28347Y19197D01*
X28439Y19209D01*
X28524Y19244D01*
X28597Y19300D01*
X28653Y19373D01*
X28688Y19459D01*
X28701Y19550D01*
X28688Y19641D01*
X28653Y19727D01*
X28597Y19800D01*
X28524Y19856D01*
X28439Y19891D01*
X28347Y19903D01*
D02*
G37*
G36*
X51090Y18785D02*
X50890D01*
X50792Y18765D01*
X50710Y18710D01*
X50655Y18628D01*
X50635Y18530D01*
X50655Y18432D01*
X50710Y18350D01*
X50792Y18295D01*
X50890Y18275D01*
X51090D01*
X51188Y18295D01*
X51270Y18350D01*
X51325Y18432D01*
X51345Y18530D01*
X51325Y18628D01*
X51270Y18710D01*
X51188Y18765D01*
X51090Y18785D01*
D02*
G37*
G36*
X50300D02*
X50100D01*
X50002Y18765D01*
X49920Y18710D01*
X49865Y18628D01*
X49845Y18530D01*
X49865Y18432D01*
X49920Y18350D01*
X50002Y18295D01*
X50100Y18275D01*
X50300D01*
X50398Y18295D01*
X50480Y18350D01*
X50535Y18432D01*
X50555Y18530D01*
X50535Y18628D01*
X50480Y18710D01*
X50398Y18765D01*
X50300Y18785D01*
D02*
G37*
G36*
X27270D02*
X27070D01*
X26972Y18765D01*
X26890Y18710D01*
X26834Y18628D01*
X26815Y18530D01*
X26834Y18432D01*
X26890Y18350D01*
X26972Y18295D01*
X27070Y18275D01*
X27270D01*
X27368Y18295D01*
X27450Y18350D01*
X27506Y18432D01*
X27525Y18530D01*
X27506Y18628D01*
X27450Y18710D01*
X27368Y18765D01*
X27270Y18785D01*
D02*
G37*
G36*
X26480D02*
X26280D01*
X26182Y18765D01*
X26100Y18710D01*
X26044Y18628D01*
X26025Y18530D01*
X26044Y18432D01*
X26100Y18350D01*
X26182Y18295D01*
X26280Y18275D01*
X26480D01*
X26578Y18295D01*
X26660Y18350D01*
X26716Y18432D01*
X26735Y18530D01*
X26716Y18628D01*
X26660Y18710D01*
X26578Y18765D01*
X26480Y18785D01*
D02*
G37*
G36*
X25690D02*
X25490D01*
X25392Y18765D01*
X25310Y18710D01*
X25254Y18628D01*
X25235Y18530D01*
X25254Y18432D01*
X25310Y18350D01*
X25392Y18295D01*
X25490Y18275D01*
X25690D01*
X25788Y18295D01*
X25870Y18350D01*
X25926Y18432D01*
X25945Y18530D01*
X25926Y18628D01*
X25870Y18710D01*
X25788Y18765D01*
X25690Y18785D01*
D02*
G37*
G36*
X24900D02*
X24700D01*
X24602Y18765D01*
X24520Y18710D01*
X24464Y18628D01*
X24445Y18530D01*
X24464Y18432D01*
X24520Y18350D01*
X24602Y18295D01*
X24700Y18275D01*
X24900D01*
X24998Y18295D01*
X25080Y18350D01*
X25136Y18432D01*
X25155Y18530D01*
X25136Y18628D01*
X25080Y18710D01*
X24998Y18765D01*
X24900Y18785D01*
D02*
G37*
G36*
X39340Y18393D02*
X39262Y18382D01*
X39189Y18352D01*
X39126Y18304D01*
X39078Y18241D01*
X39048Y18168D01*
X39037Y18090D01*
X39048Y18012D01*
X39078Y17939D01*
X39126Y17876D01*
X39189Y17828D01*
X39262Y17798D01*
X39340Y17787D01*
X39418Y17798D01*
X39491Y17828D01*
X39554Y17876D01*
X39602Y17939D01*
X39632Y18012D01*
X39643Y18090D01*
X39632Y18168D01*
X39602Y18241D01*
X39554Y18304D01*
X39491Y18352D01*
X39418Y18382D01*
X39340Y18393D01*
D02*
G37*
G36*
X37650D02*
X37572Y18382D01*
X37499Y18352D01*
X37436Y18304D01*
X37388Y18241D01*
X37358Y18168D01*
X37347Y18090D01*
X37358Y18012D01*
X37388Y17939D01*
X37436Y17876D01*
X37499Y17828D01*
X37572Y17798D01*
X37650Y17787D01*
X37728Y17798D01*
X37801Y17828D01*
X37864Y17876D01*
X37912Y17939D01*
X37942Y18012D01*
X37953Y18090D01*
X37942Y18168D01*
X37912Y18241D01*
X37864Y18304D01*
X37801Y18352D01*
X37728Y18382D01*
X37650Y18393D01*
D02*
G37*
G36*
X34250Y15273D02*
X34184Y15260D01*
X34127Y15223D01*
X34090Y15166D01*
X34077Y15100D01*
X34090Y15034D01*
X34127Y14977D01*
X34173Y14947D01*
Y14893D01*
X34126Y14874D01*
X33973Y15027D01*
Y15262D01*
X33559D01*
Y14847D01*
X33793D01*
X33958Y14682D01*
X33937Y14632D01*
X33561D01*
Y14217D01*
X33648D01*
Y14136D01*
X33627Y14123D01*
X33590Y14066D01*
X33577Y14000D01*
X33590Y13934D01*
X33627Y13877D01*
X33684Y13840D01*
X33750Y13827D01*
X33813Y13839D01*
X33816Y13837D01*
X33833Y13788D01*
X33770Y13725D01*
X33510D01*
Y13308D01*
X33880D01*
X33899Y13262D01*
X33770Y13132D01*
X33510D01*
Y12715D01*
X33950D01*
Y12796D01*
X34506D01*
Y12715D01*
X34946D01*
Y12796D01*
X35501D01*
Y12715D01*
X35941D01*
Y12796D01*
X36497D01*
Y12715D01*
X36937D01*
Y12796D01*
X37492D01*
Y12715D01*
X37932D01*
Y12796D01*
X38488D01*
Y12715D01*
X38928D01*
Y12796D01*
X39483D01*
Y12715D01*
X39923D01*
Y12796D01*
X40479D01*
Y12715D01*
X40919D01*
Y12796D01*
X41474D01*
Y12715D01*
X41914D01*
Y12796D01*
X42470D01*
Y12715D01*
X42910D01*
Y13132D01*
X42470D01*
Y13051D01*
X41914D01*
Y13132D01*
X41474D01*
Y13051D01*
X40919D01*
Y13132D01*
X40479D01*
Y13051D01*
X39923D01*
Y13132D01*
X39483D01*
Y13051D01*
X38928D01*
Y13132D01*
X38488D01*
Y13051D01*
X37932D01*
Y13132D01*
X37492D01*
Y13051D01*
X36937D01*
Y13132D01*
X36497D01*
Y13051D01*
X35941D01*
Y13132D01*
X35501D01*
Y13051D01*
X34946D01*
Y13132D01*
X34506D01*
Y13051D01*
X34114D01*
X34095Y13097D01*
X34390Y13392D01*
X34418Y13433D01*
X34427Y13482D01*
Y15026D01*
X34418Y15073D01*
X34423Y15100D01*
X34410Y15166D01*
X34373Y15223D01*
X34316Y15260D01*
X34250Y15273D01*
D02*
G37*
G36*
X42863Y15262D02*
X42448D01*
Y15027D01*
X42210Y14789D01*
X42200Y14773D01*
X42138Y14764D01*
X41875Y15027D01*
Y15262D01*
X41460D01*
Y14847D01*
X41695D01*
X41860Y14682D01*
X41839Y14632D01*
X41463D01*
Y14217D01*
X41548D01*
Y14086D01*
X41527Y14073D01*
X41490Y14016D01*
X41477Y13950D01*
X41490Y13884D01*
X41527Y13827D01*
X41584Y13790D01*
X41650Y13777D01*
X41713Y13789D01*
X41716Y13790D01*
X41755Y13810D01*
X41755Y13810D01*
X41784Y13775D01*
X41734Y13725D01*
X41474D01*
Y13308D01*
X41914D01*
Y13545D01*
X42160Y13790D01*
X42208Y13805D01*
X42226Y13789D01*
X42470Y13545D01*
Y13308D01*
X42910D01*
Y13725D01*
X42650D01*
X42427Y13948D01*
Y14177D01*
X42451Y14217D01*
X42477Y14217D01*
X42598D01*
Y14136D01*
X42577Y14123D01*
X42540Y14066D01*
X42527Y14000D01*
X42540Y13934D01*
X42577Y13877D01*
X42634Y13840D01*
X42700Y13827D01*
X42766Y13840D01*
X42823Y13877D01*
X42860Y13934D01*
X42873Y14000D01*
X42860Y14066D01*
X42823Y14123D01*
X42802Y14136D01*
Y14217D01*
X42866D01*
Y14632D01*
X42484D01*
X42464Y14682D01*
X42628Y14847D01*
X42863D01*
Y15262D01*
D02*
G37*
G36*
X40887D02*
X40473D01*
Y14847D01*
X40707D01*
X40872Y14682D01*
X40851Y14632D01*
X40475D01*
Y14217D01*
X40598D01*
Y14136D01*
X40577Y14123D01*
X40540Y14066D01*
X40527Y14000D01*
X40540Y13934D01*
X40577Y13877D01*
X40634Y13840D01*
X40700Y13827D01*
X40766Y13840D01*
X40785Y13852D01*
X40823Y13870D01*
X40828Y13863D01*
X40834Y13821D01*
X40739Y13725D01*
X40479D01*
Y13308D01*
X40919D01*
Y13545D01*
X41015Y13641D01*
X41034Y13654D01*
X41140Y13760D01*
X41168Y13801D01*
X41177Y13850D01*
Y14684D01*
X41168Y14733D01*
X41140Y14774D01*
X40887Y15027D01*
Y15262D01*
D02*
G37*
G36*
X39900D02*
X39485D01*
Y14847D01*
X39720D01*
X39884Y14682D01*
X39863Y14632D01*
X39488D01*
Y14217D01*
X39598D01*
Y14136D01*
X39577Y14123D01*
X39540Y14066D01*
X39527Y14000D01*
X39540Y13934D01*
X39577Y13877D01*
X39634Y13840D01*
X39700Y13827D01*
X39766Y13840D01*
X39823Y13877D01*
X39860Y13934D01*
X39873Y14000D01*
X39860Y14066D01*
X39823Y14123D01*
X39806Y14134D01*
X39803Y14183D01*
X39837Y14217D01*
X39903Y14217D01*
X39923Y14176D01*
Y13905D01*
X39743Y13725D01*
X39483D01*
Y13308D01*
X39923D01*
Y13545D01*
X40140Y13762D01*
X40168Y13803D01*
X40177Y13852D01*
Y14697D01*
X40168Y14745D01*
X40140Y14787D01*
X39900Y15027D01*
Y15262D01*
D02*
G37*
G36*
X38912D02*
X38497D01*
Y14847D01*
X38732D01*
X38896Y14682D01*
X38876Y14632D01*
X38500D01*
Y14217D01*
X38598D01*
Y14136D01*
X38577Y14123D01*
X38540Y14066D01*
X38527Y14000D01*
X38540Y13934D01*
X38577Y13877D01*
X38634Y13840D01*
X38700Y13827D01*
X38766Y13840D01*
X38823Y13877D01*
X38860Y13934D01*
X38873Y14000D01*
X38860Y14066D01*
X38823Y14123D01*
X38802Y14136D01*
Y14217D01*
X38915D01*
Y14593D01*
X38965Y14614D01*
X39023Y14556D01*
Y14000D01*
X38748Y13725D01*
X38488D01*
Y13308D01*
X38928D01*
Y13545D01*
X39240Y13857D01*
X39268Y13899D01*
X39277Y13947D01*
Y14609D01*
X39268Y14658D01*
X39240Y14699D01*
X38912Y15027D01*
Y15262D01*
D02*
G37*
G36*
X38420Y16012D02*
X37980D01*
Y15595D01*
X38023D01*
Y15540D01*
X37744Y15262D01*
X37509D01*
Y14847D01*
X37744D01*
X37909Y14682D01*
X37888Y14632D01*
X37512D01*
Y14217D01*
X37648D01*
Y14136D01*
X37627Y14123D01*
X37590Y14066D01*
X37577Y14000D01*
X37590Y13934D01*
X37627Y13877D01*
X37684Y13840D01*
X37750Y13827D01*
X37791Y13835D01*
X37815Y13789D01*
X37752Y13725D01*
X37492D01*
Y13308D01*
X37932D01*
Y13545D01*
X38190Y13803D01*
X38218Y13844D01*
X38227Y13893D01*
Y14671D01*
X38218Y14720D01*
X38190Y14761D01*
X37924Y15027D01*
Y15082D01*
X38240Y15397D01*
X38268Y15439D01*
X38277Y15487D01*
Y15595D01*
X38420D01*
Y16012D01*
D02*
G37*
G36*
X36937Y15262D02*
X36522D01*
Y14847D01*
X36756D01*
X36921Y14682D01*
X36900Y14632D01*
X36524D01*
Y14217D01*
X36648D01*
Y14136D01*
X36627Y14123D01*
X36590Y14066D01*
X36577Y14000D01*
X36590Y13934D01*
X36627Y13877D01*
X36684Y13840D01*
X36750Y13827D01*
X36796Y13836D01*
X36821Y13790D01*
X36757Y13725D01*
X36497D01*
Y13308D01*
X36937D01*
Y13545D01*
X37190Y13798D01*
X37218Y13840D01*
X37227Y13889D01*
Y14683D01*
X37218Y14732D01*
X37190Y14774D01*
X36937Y15027D01*
Y15262D01*
D02*
G37*
G36*
X35949D02*
X35534D01*
Y14847D01*
X35769D01*
X35923Y14693D01*
Y14632D01*
X35537D01*
Y14217D01*
X35648D01*
Y14136D01*
X35627Y14123D01*
X35590Y14066D01*
X35577Y14000D01*
X35590Y13934D01*
X35627Y13877D01*
X35684Y13840D01*
X35750Y13827D01*
X35802Y13837D01*
X35827Y13792D01*
X35761Y13725D01*
X35501D01*
Y13308D01*
X35941D01*
Y13545D01*
X36140Y13744D01*
X36168Y13785D01*
X36177Y13834D01*
Y14746D01*
X36168Y14794D01*
X36140Y14836D01*
X35949Y15027D01*
Y15262D01*
D02*
G37*
G36*
X34961D02*
X34546D01*
Y14847D01*
X34781D01*
X34946Y14682D01*
X34925Y14632D01*
X34549D01*
Y14217D01*
X34648D01*
Y14136D01*
X34627Y14123D01*
X34590Y14066D01*
X34577Y14000D01*
X34590Y13934D01*
X34627Y13877D01*
X34684Y13840D01*
X34750Y13827D01*
X34808Y13838D01*
X34829Y13814D01*
X34837Y13797D01*
X34765Y13725D01*
X34506D01*
Y13308D01*
X34946D01*
Y13545D01*
X35190Y13789D01*
X35218Y13831D01*
X35227Y13880D01*
Y14708D01*
X35218Y14757D01*
X35190Y14798D01*
X34961Y15027D01*
Y15262D01*
D02*
G37*
%LPD*%
G36*
X22650Y44700D02*
Y44450D01*
X22717Y44383D01*
Y44367D01*
X22733D01*
X22900Y44200D01*
Y43500D01*
X23000Y43400D01*
X23850Y42650D01*
Y41750D01*
X21650D01*
X21600Y41800D01*
Y44750D01*
X22600D01*
X22650Y44700D01*
D02*
G37*
G36*
X34971Y43217D02*
X35254D01*
X35273Y43171D01*
X34692Y42590D01*
X34285D01*
Y43208D01*
X34297Y43221D01*
X34971D01*
Y43217D01*
D02*
G37*
G36*
X53300Y47130D02*
X54456D01*
X54573Y47013D01*
Y45430D01*
X53300D01*
Y45182D01*
X52212D01*
X51850Y45544D01*
Y46100D01*
X50550D01*
Y45400D01*
X51098D01*
Y44642D01*
X50452Y43996D01*
X50402Y44017D01*
Y46208D01*
X51572Y47378D01*
X53300D01*
Y47130D01*
D02*
G37*
G36*
X46030Y46686D02*
X46523Y46194D01*
Y46100D01*
X46000D01*
Y45400D01*
X47300D01*
Y45623D01*
X47639D01*
X48047Y45215D01*
X48088Y45187D01*
X48137Y45178D01*
X48750D01*
Y44840D01*
X48748Y44830D01*
Y43917D01*
X47128Y42296D01*
X47106Y42263D01*
X47098Y42224D01*
Y39994D01*
X46533Y39429D01*
X46487Y39448D01*
Y39780D01*
X46690Y39983D01*
X46718Y40025D01*
X46727Y40074D01*
Y44400D01*
X46718Y44449D01*
X46690Y44490D01*
X45903Y45277D01*
Y46223D01*
X45983D01*
Y46630D01*
X45983Y46663D01*
X46028Y46687D01*
X46030Y46686D01*
D02*
G37*
G36*
X43502Y38362D02*
Y38247D01*
X42038Y36782D01*
X41478D01*
X41452Y36832D01*
X41486Y36882D01*
X41505Y36980D01*
Y37176D01*
X41886D01*
X41964Y37192D01*
X42030Y37236D01*
X43044Y38251D01*
X43150Y38237D01*
X43256Y38251D01*
X43354Y38291D01*
X43438Y38356D01*
X43455Y38378D01*
X43502Y38362D01*
D02*
G37*
G36*
X40995Y36980D02*
X41014Y36882D01*
X41048Y36832D01*
X41022Y36782D01*
X40656D01*
X40617Y36774D01*
X40584Y36752D01*
X38403Y34572D01*
X37859D01*
X37820Y34564D01*
X37787Y34542D01*
X37730Y34485D01*
X37684Y34505D01*
Y35362D01*
X38949Y36627D01*
X38995Y36608D01*
Y36560D01*
X38971D01*
Y36145D01*
X39425D01*
Y36560D01*
X39403D01*
Y36940D01*
X39427D01*
Y36943D01*
X40095D01*
X40173Y36959D01*
X40240Y37003D01*
X40413Y37176D01*
X40995D01*
Y36980D01*
D02*
G37*
G36*
X39893Y32067D02*
Y31773D01*
X39894Y31770D01*
X39887Y31734D01*
X39900Y31667D01*
X39938Y31611D01*
X39994Y31574D01*
X40060Y31560D01*
X40126Y31574D01*
X40183Y31611D01*
X40220Y31667D01*
X40233Y31734D01*
X40220Y31800D01*
X40183Y31856D01*
X40148Y31879D01*
Y32017D01*
X40195Y32033D01*
X40212Y32012D01*
X40296Y31947D01*
X40394Y31906D01*
X40498Y31892D01*
Y31750D01*
X40506Y31711D01*
X40528Y31678D01*
X40658Y31548D01*
X40639Y31502D01*
X40429D01*
X40390Y31494D01*
X40356Y31472D01*
X40348Y31464D01*
X40300Y31473D01*
X40234Y31460D01*
X40177Y31423D01*
X40140Y31366D01*
X40127Y31300D01*
X40129Y31286D01*
X40090Y31230D01*
X40079Y31228D01*
X39457Y31850D01*
X39479Y31895D01*
X39500Y31892D01*
X39606Y31906D01*
X39704Y31947D01*
X39788Y32012D01*
X39843Y32083D01*
X39893Y32067D01*
D02*
G37*
G36*
X41256Y32623D02*
X41212Y32588D01*
X41147Y32504D01*
X41106Y32406D01*
X41092Y32300D01*
X41106Y32194D01*
X41147Y32096D01*
X41212Y32012D01*
X41296Y31947D01*
X41394Y31906D01*
X41500Y31892D01*
X41606Y31906D01*
X41704Y31947D01*
X41788Y32012D01*
X41823Y32056D01*
X41873Y32039D01*
Y31942D01*
X41840Y31893D01*
X41827Y31827D01*
X41840Y31760D01*
X41877Y31704D01*
X41881Y31702D01*
X41865Y31652D01*
X40842D01*
X40702Y31792D01*
Y31946D01*
X40704Y31947D01*
X40788Y32012D01*
X40853Y32096D01*
X40894Y32194D01*
X40908Y32300D01*
X40894Y32406D01*
X40853Y32504D01*
X40788Y32588D01*
X40744Y32623D01*
X40761Y32673D01*
X41239D01*
X41256Y32623D01*
D02*
G37*
G36*
X39180Y30627D02*
X37760D01*
X37711Y30618D01*
X37670Y30590D01*
X37574Y30494D01*
X37499Y30525D01*
X37395Y30538D01*
X37291Y30525D01*
X37193Y30484D01*
X37110Y30420D01*
X37046Y30337D01*
X37005Y30239D01*
X36992Y30135D01*
X37005Y30031D01*
X37046Y29933D01*
X37110Y29850D01*
X37193Y29786D01*
X37268Y29755D01*
Y29155D01*
X37277Y29106D01*
X37305Y29065D01*
X38026Y28344D01*
X37995Y28269D01*
X37982Y28165D01*
X37995Y28061D01*
X38026Y27986D01*
X37817Y27777D01*
X35219D01*
X35202Y27827D01*
X35270Y27880D01*
X35334Y27963D01*
X35375Y28061D01*
X35388Y28165D01*
X35375Y28269D01*
X35334Y28367D01*
X35270Y28450D01*
X35187Y28514D01*
X35112Y28545D01*
Y29145D01*
X35103Y29194D01*
X35075Y29235D01*
X34354Y29956D01*
X34385Y30031D01*
X34398Y30135D01*
X34385Y30239D01*
X34354Y30314D01*
X34743Y30703D01*
X39180D01*
Y30627D01*
D02*
G37*
G36*
X39029Y30323D02*
X39028Y30322D01*
X38828Y30122D01*
X38806Y30089D01*
X38798Y30050D01*
Y28344D01*
X38748Y28334D01*
X38734Y28367D01*
X38670Y28450D01*
X38587Y28514D01*
X38489Y28555D01*
X38385Y28568D01*
X38281Y28555D01*
X38206Y28524D01*
X37522Y29208D01*
Y29755D01*
X37597Y29786D01*
X37680Y29850D01*
X37744Y29933D01*
X37785Y30031D01*
X37798Y30135D01*
X37785Y30239D01*
X37754Y30314D01*
X37813Y30373D01*
X39013D01*
X39029Y30323D01*
D02*
G37*
%LPC*%
G36*
X52575Y46323D02*
X52489Y46312D01*
X52409Y46278D01*
X52340Y46225D01*
X52287Y46156D01*
X52253Y46076D01*
X52242Y45990D01*
X52253Y45904D01*
X52287Y45824D01*
X52340Y45755D01*
X52409Y45702D01*
X52489Y45668D01*
X52575Y45657D01*
X52661Y45668D01*
X52741Y45702D01*
X52810Y45755D01*
X52863Y45824D01*
X52897Y45904D01*
X52908Y45990D01*
X52897Y46076D01*
X52863Y46156D01*
X52810Y46225D01*
X52741Y46278D01*
X52661Y46312D01*
X52575Y46323D01*
D02*
G37*
%LPD*%
G36*
X48424Y38531D02*
X48466Y38504D01*
X48514Y38494D01*
X48856D01*
Y38333D01*
X48857Y38328D01*
X48845Y38315D01*
X48817Y38274D01*
X48807Y38225D01*
Y37839D01*
X48727D01*
Y37384D01*
X48786D01*
Y37082D01*
X48683D01*
Y36681D01*
X48683Y36667D01*
X48633Y36646D01*
X48477Y36802D01*
Y37435D01*
X48510Y37484D01*
X48523Y37550D01*
X48510Y37616D01*
X48473Y37673D01*
X48416Y37710D01*
X48350Y37723D01*
X48284Y37710D01*
X48250Y37687D01*
X48200Y37714D01*
Y38250D01*
X48292D01*
Y38598D01*
X48339Y38617D01*
X48424Y38531D01*
D02*
G37*
G36*
X44288Y29586D02*
Y20710D01*
X44296Y20671D01*
X44318Y20638D01*
X46178Y18778D01*
X46211Y18756D01*
X46250Y18748D01*
X48313D01*
X48332Y18698D01*
X48287Y18632D01*
X46162D01*
X44152Y20642D01*
Y29587D01*
X44166Y29590D01*
X44212Y29620D01*
X44242Y29624D01*
X44288Y29586D01*
D02*
G37*
G36*
X40990Y25480D02*
X40969Y25430D01*
X40420D01*
Y25363D01*
X40374Y25344D01*
X39977Y25741D01*
X39975Y25750D01*
X39984Y25801D01*
X39984Y25802D01*
X40015Y25823D01*
X40647D01*
X40990Y25480D01*
D02*
G37*
G36*
X54473Y21265D02*
Y21103D01*
X53915Y20545D01*
X53858Y20548D01*
X53828Y20587D01*
X53755Y20643D01*
X53670Y20678D01*
X53578Y20690D01*
X53487Y20678D01*
X53477Y20674D01*
X53449Y20716D01*
X53886Y21154D01*
X53916Y21131D01*
X54005Y21094D01*
X54100Y21082D01*
X54195Y21094D01*
X54284Y21131D01*
X54360Y21190D01*
X54419Y21266D01*
X54423Y21275D01*
X54473Y21265D01*
D02*
G37*
D10*
X38900Y27835D02*
Y30050D01*
X39100Y30250D02*
X44950D01*
X38900Y30050D02*
X39100Y30250D01*
X38211Y27147D02*
X38900Y27835D01*
X46100Y24450D02*
Y29100D01*
X44950Y30250D02*
X46100Y29100D01*
X46650Y28550D02*
Y29595D01*
X46624Y29620D02*
X46650Y29595D01*
X38200Y27147D02*
X38211D01*
X39954Y28321D02*
X39969D01*
X27340Y48540D02*
X28378D01*
X27300Y48500D02*
X27340Y48540D01*
X28462Y48456D02*
X28500D01*
X28378Y48540D02*
X28462Y48456D01*
X27714Y48236D02*
X29886D01*
X27650Y48300D02*
X27714Y48236D01*
X23493Y46050D02*
X26700D01*
X23322Y45879D02*
X23493Y46050D01*
X23322Y45698D02*
Y45879D01*
X29886Y48236D02*
X30250Y48600D01*
X40300Y31300D02*
X40329D01*
X40429Y31400D01*
X45616D01*
X45741Y31525D02*
X45745D01*
X45616Y31400D02*
X45741Y31525D01*
X44350Y31550D02*
X46250Y33450D01*
X40800Y31550D02*
X44350D01*
X42500Y32300D02*
X43100Y31700D01*
X44288D01*
X40600Y31750D02*
X40800Y31550D01*
X40600Y31750D02*
Y32200D01*
X44288Y31700D02*
X46100Y33512D01*
X40500Y32300D02*
X40600Y32200D01*
X46100Y33512D02*
Y36070D01*
X45920Y36250D02*
X46100Y36070D01*
X46250Y36035D02*
X46465Y36250D01*
X46250Y33450D02*
Y36035D01*
X46700Y37600D02*
Y38550D01*
X46500Y38750D02*
X46700Y38550D01*
X45935Y38215D02*
X46000Y38280D01*
X45935Y37600D02*
Y38215D01*
X38086Y33983D02*
X38104Y33964D01*
X37950Y34239D02*
X37961Y34250D01*
X38104Y33964D02*
X38364D01*
X37961Y34250D02*
X38438D01*
X44390Y20710D02*
Y29750D01*
X44050Y29700D02*
X44100Y29750D01*
X44050Y20600D02*
Y29700D01*
X39196Y32709D02*
X39500Y32405D01*
Y32300D02*
Y32405D01*
X39000Y33050D02*
Y33600D01*
Y33050D02*
X39196Y32854D01*
Y32709D02*
Y32854D01*
X38837Y33763D02*
X39000Y33600D01*
X38364Y33964D02*
X40780Y36380D01*
X37876Y33763D02*
X38837D01*
X37730Y33909D02*
Y34341D01*
Y33909D02*
X37876Y33763D01*
X38438Y34250D02*
X40718Y36530D01*
X37859Y34470D02*
X38446D01*
X40656Y36680D01*
X37730Y34341D02*
X37859Y34470D01*
X40656Y36680D02*
X42080D01*
X40718Y36530D02*
X42142D01*
X42080Y36680D02*
X43604Y38204D01*
X42142Y36530D02*
X43754Y38142D01*
X40780Y36380D02*
X42204D01*
X43904Y38080D01*
Y38554D01*
X43754Y38142D02*
Y38616D01*
X43604Y38204D02*
Y38679D01*
X44250Y38900D02*
X46572D01*
X43754Y38616D02*
X44188Y39050D01*
X43904Y38554D02*
X44250Y38900D01*
X44188Y39050D02*
X46510D01*
X43604Y38679D02*
X44126Y39200D01*
X46448D01*
X46572Y38900D02*
X47500Y39828D01*
X47200Y42224D02*
X48850Y43874D01*
X47350Y39890D02*
Y42162D01*
X48850Y44830D02*
X49100Y45080D01*
X46448Y39200D02*
X47200Y39952D01*
X47500Y39828D02*
Y42100D01*
X46510Y39050D02*
X47350Y39890D01*
X48850Y43874D02*
Y44830D01*
X49100Y45080D02*
X49400D01*
X47200Y39952D02*
Y42224D01*
X45267Y38750D02*
X46500D01*
X44797Y38280D02*
X45267Y38750D01*
X48538Y43350D02*
X49700D01*
X48600Y43200D02*
X49800D01*
X47500Y42100D02*
X48600Y43200D01*
X47350Y42162D02*
X48538Y43350D01*
X49800Y43200D02*
X51200Y44600D01*
X49700Y43350D02*
X50300Y43950D01*
X51200Y44600D02*
Y45750D01*
X50300Y43950D02*
Y46250D01*
X51530Y47480D01*
X53950D01*
X46000Y38280D02*
X46100Y38180D01*
X44650Y38280D02*
X44797D01*
X44390Y20710D02*
X46250Y18850D01*
X48990D01*
X49310Y18530D02*
X49410D01*
X48990Y18850D02*
X49310Y18530D01*
X46120D02*
X48620D01*
X44050Y20600D02*
X46120Y18530D01*
X48450Y47400D02*
X49320D01*
X49400Y47480D01*
X33406Y28615D02*
X33421Y28600D01*
X32624Y28615D02*
X33406D01*
X33421Y28600D02*
X33850D01*
X27253D02*
X32609D01*
X32624Y28615D01*
X55725Y29384D02*
Y38713D01*
X55491Y29150D02*
X55725Y29384D01*
X55612Y29000D02*
X55875Y29263D01*
X54100Y40550D02*
X55875Y38775D01*
Y29263D02*
Y38775D01*
X53520Y40918D02*
X55725Y38713D01*
X54100Y40550D02*
Y42053D01*
X53520Y40918D02*
Y41945D01*
X53411Y42053D02*
X53520Y41945D01*
X53400Y42053D02*
X53411D01*
X54604Y29000D02*
X55612D01*
X53815Y29150D02*
X55491D01*
X53509Y29243D02*
X53753Y29000D01*
X54604D01*
X30600Y29400D02*
Y30753D01*
X28503Y32850D02*
X30600Y30753D01*
X39400Y29953D02*
X40075D01*
X40756Y28321D02*
Y29947D01*
X40750Y29953D02*
X40756Y29947D01*
X39969Y28321D02*
Y29847D01*
X40075Y29953D01*
X28397Y32850D02*
X28503D01*
X28962Y33309D01*
X28991D01*
X29100Y33418D01*
X53698Y30000D02*
X53756Y29941D01*
X52300Y29050D02*
X53250Y30000D01*
X53756Y29209D02*
Y29941D01*
X53250Y30000D02*
X53698D01*
X53509Y29243D02*
Y29592D01*
X53756Y29209D02*
X53815Y29150D01*
X47746Y29050D02*
X52300D01*
X47176Y29601D02*
Y29620D01*
X47303Y29493D02*
X47746Y29050D01*
X47176Y29601D02*
X47283Y29493D01*
X47303D01*
X53481Y29620D02*
X53509Y29592D01*
X53950Y43185D02*
Y45080D01*
X53411Y42647D02*
X53950Y43185D01*
X53400Y42647D02*
X53411D01*
X52170Y45080D02*
X53950D01*
X51500Y45750D02*
X52170Y45080D01*
X51200Y45750D02*
X51500D01*
X54675Y43275D02*
Y47055D01*
X54100Y42647D02*
X54111D01*
X54195Y42730D01*
Y42795D01*
X54675Y43275D01*
X54250Y47480D02*
X54675Y47055D01*
X53950Y47480D02*
X54250D01*
X34750Y14000D02*
Y14418D01*
X34756Y14425D01*
X38700Y14000D02*
Y14417D01*
X38707Y14425D01*
X41650Y14404D02*
X41670Y14425D01*
X41650Y13950D02*
Y14404D01*
X42658Y14425D02*
X42700Y14383D01*
Y14000D02*
Y14383D01*
X40683Y14425D02*
X40700Y14408D01*
Y14000D02*
Y14408D01*
X39695Y14425D02*
X39700Y14420D01*
Y14000D02*
Y14420D01*
X37720Y14425D02*
X37750Y14394D01*
Y14000D02*
Y14394D01*
X36732Y14425D02*
X36750Y14407D01*
Y14000D02*
Y14407D01*
X35744Y14425D02*
X35750Y14419D01*
Y14000D02*
Y14419D01*
X33750Y14406D02*
X33769Y14425D01*
X33750Y14000D02*
Y14406D01*
X23066Y45879D02*
X23387Y46200D01*
X26404D02*
X28025Y47821D01*
X23387Y46200D02*
X26404D01*
X23066Y45698D02*
Y45879D01*
X36201Y45574D02*
Y46451D01*
X36265Y46515D01*
X36873Y47123D01*
Y48150D01*
X35158Y48153D02*
X35162Y48150D01*
X37208Y48485D02*
X37245D01*
X36873Y48150D02*
X37208Y48485D01*
X35162Y48150D02*
X36873D01*
D16*
X22326Y45000D02*
Y45724D01*
X23150Y46600D02*
Y47850D01*
X22300Y45750D02*
X23150Y46600D01*
X22326Y45724D02*
X22326Y45724D01*
X22300Y45750D02*
X22326Y45724D01*
X22326Y45724D02*
X22784D01*
X30300Y44900D02*
Y45816D01*
X35099Y45200D02*
Y45574D01*
X44700Y36950D02*
X46400D01*
X47176Y36174D01*
Y34335D02*
Y36174D01*
Y34315D02*
Y34335D01*
X33457Y36252D02*
Y36293D01*
X33300Y36096D02*
X33457Y36252D01*
X33300Y34540D02*
Y36096D01*
X33280Y34520D02*
X33300Y34540D01*
X37480Y35447D02*
X39180Y37147D01*
X37480Y33320D02*
Y35447D01*
Y33320D02*
X37500Y33300D01*
X50453Y37587D02*
X50472D01*
X50190Y37850D02*
X50453Y37587D01*
X50000Y37850D02*
X50190D01*
X41082Y43163D02*
X43150Y41095D01*
X50522Y39922D02*
Y40802D01*
X50500Y39900D02*
X50522Y39922D01*
X31150Y39650D02*
X31764D01*
X31750D02*
X31798Y39698D01*
X32448D01*
X38700Y47300D02*
X38724Y47276D01*
X39350D02*
X39370D01*
X38724D02*
X39350D01*
X40417Y43163D02*
X41082D01*
X41050Y42700D02*
X41550Y42200D01*
X40343Y43237D02*
X40417Y43163D01*
X39606Y42700D02*
X41050D01*
X41550Y42000D02*
Y42200D01*
X43150Y38802D02*
Y41095D01*
X38726Y48074D02*
X39400D01*
X38700Y48100D02*
X38726Y48074D01*
X48500Y34150D02*
X52200D01*
X47341D02*
X48500D01*
X22750Y30857D02*
X22754Y30854D01*
X23546D01*
X23550Y30850D01*
X23575Y29425D02*
X23600Y29400D01*
X23575Y29425D02*
Y30843D01*
X23568Y30850D02*
X23575Y30843D01*
X23550Y30850D02*
X23568D01*
X47176Y32783D02*
X47183Y32791D01*
X47388D01*
X47747Y33150D01*
X49200D01*
X47176Y31978D02*
Y32783D01*
X49200Y33150D02*
X49200Y33150D01*
X47176Y33549D02*
Y34315D01*
X47341Y34150D01*
X50522Y37617D02*
Y38621D01*
X50492Y37587D02*
X50522Y37617D01*
X50472Y37587D02*
X50492D01*
X50472Y41066D02*
Y41786D01*
Y41066D02*
X50522Y41016D01*
Y40802D02*
Y41016D01*
X39276Y43030D02*
X39606Y42700D01*
X39276Y43030D02*
Y43050D01*
X39839Y43237D02*
X40343D01*
X39303Y43773D02*
X39839Y43237D01*
X39283Y43773D02*
X39303D01*
X39276Y43780D02*
X39283Y43773D01*
X39276Y43780D02*
Y43800D01*
X39394Y47300D02*
X40430D01*
X39370Y47276D02*
X39394Y47300D01*
X39674Y47800D02*
X40430D01*
X39427Y48047D02*
X39674Y47800D01*
X39427Y48047D02*
Y48067D01*
X39420Y48074D02*
X39427Y48067D01*
X39400Y48074D02*
X39420D01*
X37320Y45600D02*
X38235Y46515D01*
X35831Y44061D02*
X36204Y44434D01*
X31987Y41797D02*
X32576Y42386D01*
X31811Y41284D02*
X31987Y41460D01*
X35225Y43983D02*
X36026Y44784D01*
X36397Y44434D02*
X37320Y45357D01*
X34777Y42386D02*
X35831Y43440D01*
X35198Y43976D02*
X35205Y43983D01*
X36026Y44784D02*
X36154D01*
X36204Y44434D02*
X36397D01*
X32576Y42386D02*
X34777D01*
X31987Y41460D02*
Y41797D01*
X35205Y43983D02*
X35225D01*
X37320Y45357D02*
Y45600D01*
X35831Y43440D02*
Y44061D01*
X31150Y41284D02*
X31811D01*
X30830Y34520D02*
X33280D01*
X28350Y37000D02*
X30830Y34520D01*
X28350Y37000D02*
Y37380D01*
X33280Y34520D02*
X34500Y33300D01*
X34050Y35750D02*
Y38709D01*
Y35750D02*
X35500Y34300D01*
Y33300D02*
Y34300D01*
X39180Y37147D02*
X39200D01*
X36500Y33300D02*
Y36511D01*
X36950Y36961D01*
Y37380D01*
X43150Y38644D02*
Y38802D01*
X41886Y37380D02*
X43150Y38644D01*
X41250Y37380D02*
X41886D01*
X39200Y37147D02*
X40095D01*
X40328Y37380D01*
X41250D01*
X39199Y37146D02*
X39200Y37147D01*
X39199Y36354D02*
Y37146D01*
X39198Y36353D02*
X39199Y36354D01*
X38600Y38644D02*
Y38802D01*
X37600Y37644D02*
X38600Y38644D01*
X36996Y37644D02*
X37600D01*
X36950Y37598D02*
X36996Y37644D01*
X36950Y37380D02*
Y37598D01*
X34850Y37147D02*
X35770D01*
X36003Y37380D01*
X36950D01*
X34848Y36353D02*
X34849Y36354D01*
Y37146D01*
X34850Y37147D01*
X33150Y37300D02*
X34004Y38154D01*
X32696Y37300D02*
X33150D01*
X32696D02*
Y37334D01*
X32650Y37380D02*
X32696Y37334D01*
X30450Y37147D02*
X32604D01*
X32650Y37193D01*
X30448Y36353D02*
X30449Y36354D01*
Y37146D01*
X30450Y37147D01*
X26299Y37146D02*
X26300Y37147D01*
X26299Y36354D02*
Y37146D01*
X26298Y36353D02*
X26299Y36354D01*
X27428Y37380D02*
X28350D01*
X27195Y37147D02*
X27428Y37380D01*
X26300Y37147D02*
X27195D01*
X29450Y38752D02*
X29500Y38802D01*
X29450Y37900D02*
Y38752D01*
X28350Y37380D02*
Y37404D01*
X28396Y37450D01*
X29000D01*
X29450Y37900D01*
X24050Y37646D02*
Y37762D01*
X22150Y37692D02*
X24004D01*
X24050Y37646D01*
Y37380D02*
Y37646D01*
Y37762D02*
X24950Y38662D01*
X42150Y38798D02*
Y38956D01*
X41300Y39806D02*
X42150Y38956D01*
X33900Y39806D02*
X41300D01*
X33900D02*
Y41284D01*
X33050Y38956D02*
X33900Y39806D01*
X33050Y38798D02*
Y38956D01*
X29200Y39650D02*
X29950D01*
X30600D01*
X31150D01*
Y41284D01*
X29650Y46750D02*
X30448D01*
X29000Y45816D02*
X29185Y46001D01*
Y46285D02*
X29650Y46750D01*
X29185Y46001D02*
Y46285D01*
Y45199D02*
Y45631D01*
Y45199D02*
X30020Y44364D01*
X29000Y45816D02*
X29185Y45631D01*
X30020Y44364D02*
X30115D01*
X30300Y44084D02*
Y44179D01*
X30115Y44364D02*
X30300Y44179D01*
X30050Y41676D02*
X30854D01*
X31150Y41379D01*
Y41284D02*
Y41379D01*
X30050Y41676D02*
X30051Y41677D01*
Y42573D01*
X30052Y42574D01*
X34974Y41170D02*
Y41950D01*
X33900Y41284D02*
X34860D01*
X34974Y41170D01*
Y41150D02*
Y41170D01*
X34213Y43424D02*
X35198D01*
X33900Y43112D02*
X34213Y43424D01*
X33900Y43016D02*
Y43112D01*
X32521Y43016D02*
X33900D01*
X31150D02*
Y44396D01*
X31798Y45044D01*
Y45300D01*
Y45044D02*
X32140Y44702D01*
X32396D01*
X33122Y43976D01*
X35198D01*
X34102Y45200D02*
X35099D01*
X34002Y45300D02*
X34102Y45200D01*
X35399Y46632D02*
X36250Y47483D01*
X35207Y46632D02*
X35399D01*
X36250Y47483D02*
Y47700D01*
X35200Y46624D02*
X35207Y46632D01*
X35200Y45670D02*
Y46624D01*
X35104Y45574D02*
X35200Y45670D01*
X35099Y45574D02*
X35104D01*
X30448Y46750D02*
X31519Y47821D01*
D19*
X38200Y15803D02*
D03*
Y16397D02*
D03*
Y26553D02*
D03*
Y27147D02*
D03*
X40075Y29953D02*
D03*
Y30547D02*
D03*
X39400Y29953D02*
D03*
Y30547D02*
D03*
X42690Y12923D02*
D03*
Y13517D02*
D03*
X39703Y12923D02*
D03*
Y13517D02*
D03*
X38708Y12923D02*
D03*
Y13517D02*
D03*
X41694Y12923D02*
D03*
Y13517D02*
D03*
X40699Y12923D02*
D03*
Y13517D02*
D03*
X34726Y12923D02*
D03*
Y13517D02*
D03*
X33730Y12923D02*
D03*
Y13517D02*
D03*
X35721Y12923D02*
D03*
Y13517D02*
D03*
X37712Y12923D02*
D03*
Y13517D02*
D03*
X36717Y12923D02*
D03*
Y13517D02*
D03*
X29100Y34011D02*
D03*
Y33418D02*
D03*
X27800Y30857D02*
D03*
Y31450D02*
D03*
X22750Y30857D02*
D03*
Y31450D02*
D03*
X40750Y29953D02*
D03*
Y30547D02*
D03*
X35158Y48153D02*
D03*
Y48747D02*
D03*
X48072Y40371D02*
D03*
Y40964D02*
D03*
Y38459D02*
D03*
Y39052D02*
D03*
X53072Y40964D02*
D03*
Y40371D02*
D03*
Y39052D02*
D03*
Y38459D02*
D03*
X45150Y43203D02*
D03*
Y43797D02*
D03*
X45750Y43203D02*
D03*
Y43797D02*
D03*
X54100Y42647D02*
D03*
Y42053D02*
D03*
X53400D02*
D03*
Y42647D02*
D03*
X52330Y35307D02*
D03*
Y35900D02*
D03*
X50770Y35307D02*
D03*
Y35900D02*
D03*
X47650Y35307D02*
D03*
Y35900D02*
D03*
X49210Y35307D02*
D03*
Y35900D02*
D03*
X45250Y45053D02*
D03*
Y45647D02*
D03*
X45200Y48500D02*
D03*
Y49093D02*
D03*
D20*
X25552Y41900D02*
D03*
X23348D02*
D03*
X31798Y45300D02*
D03*
X34002D02*
D03*
D21*
X29000Y44084D02*
D03*
Y45816D02*
D03*
X30300Y44084D02*
D03*
Y45816D02*
D03*
X22150Y41034D02*
D03*
Y42766D02*
D03*
X31150Y43016D02*
D03*
Y41284D02*
D03*
X33900D02*
D03*
Y43016D02*
D03*
X32521D02*
D03*
Y41284D02*
D03*
D22*
X54032Y29620D02*
D03*
X53481D02*
D03*
X53474Y31980D02*
D03*
X54026D02*
D03*
X53474Y32766D02*
D03*
X54026D02*
D03*
X53474Y33551D02*
D03*
X54026D02*
D03*
X53474Y34337D02*
D03*
X54026D02*
D03*
X24924Y44500D02*
D03*
X25476D02*
D03*
X28374Y40600D02*
D03*
X28926D02*
D03*
X28374Y43000D02*
D03*
X28926D02*
D03*
X34974Y41950D02*
D03*
X35526D02*
D03*
X34974Y41150D02*
D03*
X35526D02*
D03*
X48941Y41818D02*
D03*
X49492D02*
D03*
X49486Y37612D02*
D03*
X48935D02*
D03*
X51957Y41820D02*
D03*
X51406D02*
D03*
X51412Y37609D02*
D03*
X51963D02*
D03*
X39300Y42250D02*
D03*
X38749D02*
D03*
X45224Y40900D02*
D03*
X45776D02*
D03*
X46624Y32763D02*
D03*
X47176D02*
D03*
X46624Y31978D02*
D03*
X47176D02*
D03*
X46624Y33549D02*
D03*
X47176D02*
D03*
X46624Y34335D02*
D03*
X47176D02*
D03*
X39276Y43050D02*
D03*
X38724D02*
D03*
X45776Y42450D02*
D03*
X45224D02*
D03*
X38724Y43800D02*
D03*
X39276D02*
D03*
X46624Y29620D02*
D03*
X47176D02*
D03*
X39376Y45400D02*
D03*
X38824D02*
D03*
X45224Y46450D02*
D03*
X45776D02*
D03*
X45769Y47800D02*
D03*
X45218D02*
D03*
D23*
X54025Y31152D02*
D03*
X53432D02*
D03*
X54025Y30367D02*
D03*
X53432D02*
D03*
X48926Y42562D02*
D03*
X49519D02*
D03*
X51969D02*
D03*
X51376D02*
D03*
X27557Y34000D02*
D03*
X28150D02*
D03*
X25497Y45250D02*
D03*
X24903D02*
D03*
X48892Y36862D02*
D03*
X49485D02*
D03*
X52006D02*
D03*
X51413D02*
D03*
X45797Y41700D02*
D03*
X45203D02*
D03*
X39297Y41500D02*
D03*
X38703D02*
D03*
X47169Y31152D02*
D03*
X46575D02*
D03*
X47169Y30367D02*
D03*
X46575D02*
D03*
X39397Y44750D02*
D03*
X38803D02*
D03*
X45797Y47100D02*
D03*
X45203D02*
D03*
D24*
X48500Y34150D02*
D03*
Y33650D02*
D03*
Y33150D02*
D03*
Y32650D02*
D03*
Y32150D02*
D03*
Y31650D02*
D03*
Y31150D02*
D03*
Y30650D02*
D03*
Y30150D02*
D03*
Y29650D02*
D03*
X52200Y29650D02*
D03*
Y30150D02*
D03*
Y30650D02*
D03*
Y31150D02*
D03*
Y31650D02*
D03*
Y32150D02*
D03*
Y32650D02*
D03*
Y33150D02*
D03*
Y33650D02*
D03*
Y34150D02*
D03*
D25*
X50350Y31900D02*
D03*
D26*
X49022Y38621D02*
D03*
X49522D02*
D03*
X50022D02*
D03*
X50522D02*
D03*
X51022D02*
D03*
X51522D02*
D03*
X52022D02*
D03*
X49022Y40802D02*
D03*
X49522D02*
D03*
X50022D02*
D03*
X50522D02*
D03*
X51022D02*
D03*
X51522D02*
D03*
X52022D02*
D03*
D27*
X44650Y38280D02*
D03*
Y39620D02*
D03*
X46000D02*
D03*
Y38280D02*
D03*
D28*
X28350Y35320D02*
D03*
Y37380D02*
D03*
X25700Y33280D02*
D03*
Y31220D02*
D03*
X24050Y37380D02*
D03*
Y35320D02*
D03*
X36950Y37380D02*
D03*
Y35320D02*
D03*
X32650D02*
D03*
Y37380D02*
D03*
X41250Y35320D02*
D03*
Y37380D02*
D03*
D29*
X26300Y37698D02*
D03*
Y37147D02*
D03*
X26298Y35802D02*
D03*
Y36353D02*
D03*
X28600Y31401D02*
D03*
Y30850D02*
D03*
X22150Y37692D02*
D03*
Y37141D02*
D03*
X23550Y31401D02*
D03*
Y30850D02*
D03*
X34848Y36353D02*
D03*
Y35802D02*
D03*
X34850Y37147D02*
D03*
Y37698D02*
D03*
X35200Y46624D02*
D03*
Y47176D02*
D03*
X35198Y43976D02*
D03*
Y43424D02*
D03*
X30050Y41676D02*
D03*
Y41124D02*
D03*
X30052Y42574D02*
D03*
Y43126D02*
D03*
X30450Y37147D02*
D03*
Y37698D02*
D03*
X30448Y36353D02*
D03*
Y35802D02*
D03*
X39198Y36353D02*
D03*
Y35802D02*
D03*
X39200Y37147D02*
D03*
Y37698D02*
D03*
X50472Y42337D02*
D03*
Y41786D02*
D03*
Y37036D02*
D03*
Y37587D02*
D03*
X39350Y47276D02*
D03*
Y46724D02*
D03*
X48470Y35851D02*
D03*
Y35300D02*
D03*
X53150Y35851D02*
D03*
Y35300D02*
D03*
X50030Y35851D02*
D03*
Y35300D02*
D03*
X51590Y35851D02*
D03*
Y35300D02*
D03*
X39400Y48626D02*
D03*
Y48074D02*
D03*
D30*
X41675Y25871D02*
D03*
X42305Y25874D02*
D03*
X41675Y24884D02*
D03*
X42305Y24886D02*
D03*
X41675Y23896D02*
D03*
X42305Y23899D02*
D03*
X41675Y22908D02*
D03*
X42305Y22911D02*
D03*
X41675Y21920D02*
D03*
X42305Y21923D02*
D03*
X41675Y20933D02*
D03*
X42305Y20935D02*
D03*
X41675Y19945D02*
D03*
X42305Y19948D02*
D03*
X41675Y18957D02*
D03*
X42305Y18960D02*
D03*
X41675Y17970D02*
D03*
X42305Y17972D02*
D03*
X41675Y16982D02*
D03*
X42305Y16985D02*
D03*
D31*
X28397Y32850D02*
D03*
X27503Y32476D02*
D03*
Y33224D02*
D03*
D32*
X23066Y44002D02*
D03*
X22810D02*
D03*
X23578D02*
D03*
X23322D02*
D03*
X23066Y45698D02*
D03*
X22810D02*
D03*
X23578D02*
D03*
X23322D02*
D03*
D33*
X22352Y45230D02*
D03*
Y44974D02*
D03*
Y44718D02*
D03*
Y44462D02*
D03*
X24048Y44460D02*
D03*
Y44716D02*
D03*
Y44972D02*
D03*
Y45228D02*
D03*
D34*
X23200Y44850D02*
D03*
D35*
X23201Y48600D02*
D03*
X24264D02*
D03*
D36*
X27050Y40593D02*
D03*
Y43007D02*
D03*
D37*
X35099Y45574D02*
D03*
Y45200D02*
D03*
Y44826D02*
D03*
X36201D02*
D03*
Y45200D02*
D03*
Y45574D02*
D03*
D38*
X40870Y24030D02*
D03*
Y22570D02*
D03*
Y25130D02*
D03*
X36130Y24030D02*
D03*
Y22570D02*
D03*
Y25130D02*
D03*
Y18820D02*
D03*
Y20280D02*
D03*
Y17720D02*
D03*
X40870Y18820D02*
D03*
Y20280D02*
D03*
Y17720D02*
D03*
D39*
X33769Y14425D02*
D03*
X33766Y15054D02*
D03*
X34756Y14425D02*
D03*
X34754Y15054D02*
D03*
X35744Y14425D02*
D03*
X35741Y15054D02*
D03*
X36732Y14425D02*
D03*
X36729Y15054D02*
D03*
X37720Y14425D02*
D03*
X37717Y15054D02*
D03*
X38707Y14425D02*
D03*
X38705Y15054D02*
D03*
X39695Y14425D02*
D03*
X39692Y15054D02*
D03*
X40683Y14425D02*
D03*
X40680Y15054D02*
D03*
X41670Y14425D02*
D03*
X41668Y15054D02*
D03*
X42658Y14425D02*
D03*
X42655Y15054D02*
D03*
D40*
X46650Y45750D02*
D03*
X49400Y45080D02*
D03*
Y47480D02*
D03*
X46650Y48500D02*
D03*
X49400Y48900D02*
D03*
X51200Y45750D02*
D03*
X53950Y45080D02*
D03*
Y47480D02*
D03*
X51200Y48500D02*
D03*
X53950Y48900D02*
D03*
D41*
X37770Y42250D02*
D03*
X36430D02*
D03*
Y43650D02*
D03*
X37770D02*
D03*
D42*
X40380Y44200D02*
D03*
Y43700D02*
D03*
Y43200D02*
D03*
Y42700D02*
D03*
Y42200D02*
D03*
Y41700D02*
D03*
Y41200D02*
D03*
Y40700D02*
D03*
X44120Y44200D02*
D03*
Y43700D02*
D03*
Y43200D02*
D03*
Y42700D02*
D03*
Y42200D02*
D03*
Y41700D02*
D03*
Y41200D02*
D03*
Y40700D02*
D03*
X40430Y48800D02*
D03*
Y48300D02*
D03*
Y47800D02*
D03*
Y47300D02*
D03*
Y46800D02*
D03*
Y46300D02*
D03*
Y45800D02*
D03*
Y45300D02*
D03*
X44170Y48800D02*
D03*
Y48300D02*
D03*
Y47800D02*
D03*
Y47300D02*
D03*
Y46800D02*
D03*
Y46300D02*
D03*
Y45800D02*
D03*
Y45300D02*
D03*
D86*
X37717Y15054D02*
X38150Y15487D01*
X38295Y16775D02*
X38470Y16950D01*
X38150Y15487D02*
Y15753D01*
X38185Y15789D01*
X38200Y15803D01*
X38295Y16775D02*
X38328Y16809D01*
X38295Y16480D02*
Y16775D01*
X38211Y16397D02*
X38295Y16480D01*
X38200Y16397D02*
X38211D01*
X38470Y16950D02*
X39650D01*
X40250Y17250D02*
X40720Y17720D01*
X37400Y17250D02*
X40250D01*
X36750Y17900D02*
X37400Y17250D01*
X37395Y30135D02*
X37760Y30500D01*
X39353D02*
X39400Y30547D01*
X37760Y30500D02*
X39353D01*
X38200Y26553D02*
X38697D01*
X37870Y27650D02*
X38385Y28165D01*
X27845Y28355D02*
X28550Y27650D01*
X37870D01*
X38043Y25673D02*
X39864D01*
X37100Y22238D02*
Y24730D01*
X38987Y25200D02*
X39550D01*
X40408Y25130D02*
X40870D01*
X37100Y24730D02*
X38043Y25673D01*
X38937Y25150D02*
X38987Y25200D01*
X38350Y25150D02*
X38937D01*
X39864Y25673D02*
X40408Y25130D01*
X37012Y22150D02*
X37100Y22238D01*
X24600Y29400D02*
X25645Y28355D01*
X27845D01*
X39650Y22325D02*
X39699D01*
X39829Y22195D01*
X41322D01*
X39650Y21700D02*
X39674D01*
X39736Y21638D01*
X42020D01*
X39650Y21050D02*
X39658D01*
X39898Y21290D01*
X41950D01*
X42305Y20935D01*
X39745Y25428D02*
X40572Y24601D01*
X40700Y25950D02*
X41100Y25550D01*
X39900Y25950D02*
X40700D01*
X28771Y48745D02*
X29040Y48476D01*
X27180Y48745D02*
X28771D01*
X26940Y48505D02*
X27180Y48745D01*
X41657Y17000D02*
X41675Y16982D01*
X41200Y17000D02*
X41657D01*
X41646Y21950D02*
X41675Y21920D01*
X41188Y21950D02*
X41646D01*
X41188D02*
X41250D01*
X41658Y20950D02*
X41675Y20933D01*
X41200Y20950D02*
X41658D01*
X29040Y48476D02*
X29055D01*
X26905Y48505D02*
X26940D01*
X42000Y31827D02*
Y32478D01*
X40021Y31773D02*
Y32633D01*
Y31773D02*
X40060Y31734D01*
X37202Y40948D02*
Y40948D01*
X36645Y41505D02*
X37202Y40948D01*
X37189Y41511D02*
X37850Y40850D01*
Y40775D02*
Y40850D01*
X40188Y32800D02*
X41678D01*
X40021Y32633D02*
X40188Y32800D01*
X41678D02*
X42000Y32478D01*
X46200Y40250D02*
Y42450D01*
X45776D02*
X46200D01*
X48086Y39864D02*
Y40357D01*
Y39864D02*
X48100Y39850D01*
X48072Y40371D02*
X48086Y40357D01*
X36430Y42250D02*
X36645Y42035D01*
Y41505D02*
Y42035D01*
X37189Y41511D02*
Y42744D01*
X36430Y43503D02*
Y43650D01*
Y43503D02*
X37189Y42744D01*
X40492Y30630D02*
X40666D01*
X40370Y30752D02*
X40492Y30630D01*
X40370Y30752D02*
Y30757D01*
X39306Y31821D02*
X40370Y30757D01*
X39301Y31821D02*
X39306D01*
X39021Y32101D02*
X39301Y31821D01*
X39021Y32101D02*
Y32779D01*
X40666Y30630D02*
X40750Y30547D01*
X38500Y33300D02*
X39021Y32779D01*
X45752Y43202D02*
X45763Y43191D01*
X45750Y43203D02*
X45752Y43202D01*
X46198D01*
X46200Y43200D01*
X45012Y39836D02*
Y39836D01*
X45762Y40586D01*
Y40887D01*
X45776Y40900D01*
X44797Y39620D02*
X45012Y39836D01*
X46147Y39620D02*
X46600Y40074D01*
X45776Y45224D02*
X46600Y44400D01*
Y40074D02*
Y44400D01*
X45776Y45224D02*
Y46450D01*
X46000Y39620D02*
X46147D01*
X27341Y33280D02*
X27397Y33224D01*
X27503D01*
X25700Y33280D02*
X27341D01*
X27503Y33224D02*
X27527D01*
X32885Y30135D02*
X33995D01*
X30100Y28900D02*
X31650D01*
X32885Y30135D01*
X29600Y29400D02*
X30100Y28900D01*
X55330Y29674D02*
X55550Y29894D01*
X55329Y29674D02*
X55330D01*
X55305Y29650D02*
X55329Y29674D01*
X34100Y19400D02*
X34800Y18700D01*
X36750D02*
X40750D01*
X36733Y19483D02*
X36750Y19500D01*
X36733Y19273D02*
Y19483D01*
X55150Y30000D02*
X55350Y30200D01*
Y38558D01*
X54655Y39536D02*
X55550Y38640D01*
Y29894D02*
Y38640D01*
X51949Y39336D02*
X54572D01*
X50149Y39536D02*
X54655D01*
X54572Y39336D02*
X55350Y38558D01*
X49547Y38646D02*
Y38934D01*
X50149Y39536D01*
X49522Y38621D02*
X49547Y38646D01*
X53000Y39805D02*
X53072Y39878D01*
X53000Y39781D02*
Y39805D01*
X53072Y39878D02*
Y40371D01*
X51511Y39811D02*
Y40791D01*
X51500Y39800D02*
X51511Y39811D01*
X51522Y38910D02*
X51949Y39336D01*
X51522Y38621D02*
Y38910D01*
X23971Y45699D02*
X23972Y45700D01*
X23579Y45699D02*
X23971D01*
X25950Y35250D02*
X26911D01*
X24950Y36250D02*
Y38662D01*
Y36250D02*
X25950Y35250D01*
X26911D02*
X28150Y34011D01*
Y34000D02*
Y34011D01*
X33995Y30135D02*
X34985Y29145D01*
Y28165D02*
Y29145D01*
X20850Y23500D02*
Y31100D01*
X24650Y34900D02*
X26400D01*
X20850Y31100D02*
X24650Y34900D01*
X22100Y22250D02*
X24700D01*
X20850Y23500D02*
X22100Y22250D01*
X33995Y30135D02*
X34690Y30830D01*
X39780D02*
X40064Y30547D01*
X34690Y30830D02*
X39780D01*
X40064Y30547D02*
X40075D01*
X37395Y29155D02*
X38385Y28165D01*
X37395Y29155D02*
Y30135D01*
X24810Y23490D02*
X25350Y22950D01*
X24810Y23490D02*
Y24676D01*
X28596Y30854D02*
X28600Y30850D01*
Y30400D02*
Y30850D01*
X27800Y30857D02*
X27804Y30854D01*
X28596D01*
X27557Y33254D02*
Y34000D01*
X27527Y33224D02*
X27557Y33254D01*
X28150Y34000D02*
X28156Y34006D01*
X29094D01*
X29100Y34011D01*
X50351Y23351D02*
Y23499D01*
X49660Y24190D02*
X50351Y23499D01*
X49660Y24190D02*
Y24512D01*
X51511Y40791D02*
X51522Y40802D01*
X49511Y40791D02*
X49522Y40802D01*
X49511Y39861D02*
Y40791D01*
X49500Y39850D02*
X49511Y39861D01*
X49315Y24857D02*
Y25765D01*
Y24857D02*
X49660Y24512D01*
X50192Y27632D02*
X50295Y27735D01*
X50192Y24542D02*
Y27632D01*
X50100Y24450D02*
X50192Y24542D01*
X26195Y27735D02*
X26223Y27708D01*
Y24478D02*
Y27708D01*
Y24478D02*
X26250Y24450D01*
X25215Y25081D02*
Y25765D01*
X24810Y24676D02*
X25215Y25081D01*
X49199Y35900D02*
X49210D01*
X48350Y36749D02*
X49199Y35900D01*
X48350Y36749D02*
Y37550D01*
X47675Y35876D02*
X48425D01*
X48072Y36229D02*
Y38459D01*
Y36229D02*
X48425Y35876D01*
X48445D01*
X51590Y35851D02*
X51610D01*
X52750Y36992D01*
Y37650D01*
X53125Y35876D02*
X53150Y35851D01*
X53111Y35890D02*
X53125Y35876D01*
X53111Y35890D02*
Y38420D01*
X53072Y38459D02*
X53111Y38420D01*
X52330Y35900D02*
X52355Y35876D01*
X53125D01*
X48445D02*
X48470Y35851D01*
X47650Y35900D02*
X47675Y35876D01*
X50005D02*
X50030Y35851D01*
X49235Y35876D02*
X50005D01*
X49210Y35900D02*
X49235Y35876D01*
X50770Y35900D02*
X50795Y35876D01*
X51565D01*
X51590Y35851D01*
X48246Y40802D02*
X49022D01*
X48084Y40964D02*
X48246Y40802D01*
X48072Y40964D02*
X48084D01*
X48514Y38621D02*
X49022D01*
X48084Y39052D02*
X48514Y38621D01*
X48072Y39052D02*
X48084D01*
X48935Y37612D02*
Y38225D01*
X49022Y38313D01*
Y38621D01*
X48892Y36862D02*
X48913Y36883D01*
Y37590D01*
X48935Y37612D01*
X49485Y37611D02*
X49486Y37612D01*
X49485Y36862D02*
Y37611D01*
X49485Y36862D02*
X49485Y36862D01*
X49486Y37612D02*
Y38276D01*
X49522Y38313D01*
Y38621D01*
X51522Y37739D02*
Y38621D01*
X51412Y37629D02*
X51522Y37739D01*
X51412Y37609D02*
Y37629D01*
X51413Y36862D02*
X51413Y36862D01*
X51413Y36862D02*
Y37609D01*
X51412Y37609D02*
X51413Y37609D01*
X51957Y41176D02*
Y41801D01*
X53061Y40964D02*
X53072D01*
X52307Y41718D02*
X53061Y40964D01*
X52040Y41718D02*
X52307D01*
X51957Y41801D02*
X52040Y41718D01*
X51957Y41801D02*
Y41820D01*
X52022Y38621D02*
Y38800D01*
X52057Y38835D01*
X52364D01*
X52581Y39052D01*
X53072D01*
X51963Y37609D02*
Y38254D01*
X52022Y38313D01*
Y38621D01*
X51963Y37609D02*
X51985Y37588D01*
Y36883D02*
Y37588D01*
Y36883D02*
X52006Y36862D01*
X51957Y41176D02*
X52022Y41110D01*
Y40802D02*
Y41110D01*
X51406Y41227D02*
Y41820D01*
Y41227D02*
X51522Y41110D01*
Y40802D02*
Y41110D01*
X51963Y42556D02*
X51969Y42562D01*
X51963Y41826D02*
Y42556D01*
X51957Y41820D02*
X51963Y41826D01*
X51376Y42562D02*
X51391Y42546D01*
Y41836D02*
Y42546D01*
Y41836D02*
X51406Y41820D01*
X49492Y41818D02*
X49508Y41803D01*
Y40816D02*
Y41803D01*
Y40816D02*
X49522Y40802D01*
X48941Y41818D02*
X49008Y41751D01*
Y40816D02*
Y41751D01*
Y40816D02*
X49022Y40802D01*
X48933Y41826D02*
X48941Y41818D01*
X48933Y41826D02*
Y42554D01*
X48926Y42562D02*
X48933Y42554D01*
X49505Y42548D02*
X49519Y42562D01*
X49505Y41832D02*
Y42548D01*
X49492Y41818D02*
X49505Y41832D01*
X44650Y39620D02*
X44797D01*
X45203Y41700D02*
X45214Y41690D01*
Y40911D02*
Y41690D01*
Y40911D02*
X45224Y40900D01*
X45200Y48500D02*
X45209Y48491D01*
Y47809D02*
Y48491D01*
Y47809D02*
X45218Y47800D01*
X44170D02*
X45218D01*
X45783Y47102D02*
X45880Y47005D01*
X45769Y47800D02*
X45783Y47786D01*
Y47102D02*
Y47786D01*
X46650Y45750D02*
Y46247D01*
X45892Y47005D02*
X46650Y46247D01*
X45880Y47005D02*
X45892D01*
X44170Y46300D02*
X45094D01*
X45224Y46430D01*
Y46450D01*
X44170Y46300D02*
Y46800D01*
X45237Y45659D02*
X45250Y45647D01*
X45237Y45659D02*
Y46437D01*
X45224Y46450D02*
X45237Y46437D01*
X45150Y43203D02*
X45187Y43166D01*
Y42487D02*
Y43166D01*
Y42487D02*
X45224Y42450D01*
X45763Y42463D02*
X45776Y42450D01*
X45763Y42463D02*
Y43191D01*
X44120Y41700D02*
X45203D01*
X44100Y42200D02*
X44120Y42180D01*
Y41700D02*
Y42180D01*
X44100Y42200D02*
X44120D01*
Y43200D02*
X44122Y43202D01*
X45148D01*
X45150Y43203D01*
X38824Y45380D02*
Y45400D01*
X37986Y44541D02*
X38824Y45380D01*
X37986Y43865D02*
Y44541D01*
X37770Y43650D02*
X37986Y43865D01*
X37770Y42250D02*
X38749D01*
X39297Y41500D02*
X39298Y41502D01*
Y42248D01*
X39300Y42250D01*
X40380Y41700D02*
Y42200D01*
X40365Y42215D02*
X40380Y42200D01*
X39335Y42215D02*
X40365D01*
X39300Y42250D02*
X39335Y42215D01*
X39386Y44760D02*
X39397Y44750D01*
X39386Y44760D02*
Y45389D01*
X39376Y45400D02*
X39386Y45389D01*
X40070Y46300D02*
X40430D01*
X39458Y45688D02*
X40070Y46300D01*
X39458Y45482D02*
Y45688D01*
X39376Y45400D02*
X39458Y45482D01*
X40430Y46300D02*
Y46800D01*
X46650Y45750D02*
X47692D01*
X48137Y45305D01*
X49175D01*
X49400Y45080D01*
X54600Y21050D02*
Y23950D01*
X53578Y20337D02*
X53645Y20404D01*
X53954D01*
X54600Y21050D01*
X54100Y24450D02*
X54600Y23950D01*
X54002Y21450D02*
X54100D01*
X52889Y20337D02*
X54002Y21450D01*
X52791Y20337D02*
X52889D01*
X53100Y21441D02*
Y21450D01*
X52004Y20346D02*
X53100Y21441D01*
X52004Y20337D02*
Y20346D01*
X52100Y21335D02*
Y21450D01*
X51217Y20452D02*
X52100Y21335D01*
X51217Y20337D02*
Y20452D01*
X50512Y20862D02*
X51100Y21450D01*
X50512Y20419D02*
Y20862D01*
X50430Y20337D02*
X50512Y20419D01*
X50095Y21445D02*
X50100Y21450D01*
X50095Y20788D02*
Y21445D01*
X49643Y20337D02*
X50095Y20788D01*
X49100Y20702D02*
Y21450D01*
X48856Y20459D02*
X49100Y20702D01*
X48856Y20337D02*
Y20459D01*
X48085Y21435D02*
X48100Y21450D01*
X48085Y20352D02*
Y21435D01*
X48069Y20337D02*
X48085Y20352D01*
X47100Y20641D02*
Y21450D01*
Y20641D02*
X47282Y20459D01*
Y20337D02*
Y20459D01*
X46100Y20732D02*
Y21450D01*
Y20732D02*
X46495Y20337D01*
X30250Y24450D02*
X30800Y23900D01*
Y21216D02*
Y23900D01*
X29922Y20337D02*
X30800Y21216D01*
X29135Y20337D02*
X29136D01*
X30249Y21450D01*
X30250D01*
X28347Y20337D02*
Y20442D01*
X29250Y21345D01*
Y21450D01*
X27561Y20337D02*
X28158Y20935D01*
Y21358D01*
X28250Y21450D01*
X26774Y20337D02*
X26792Y20355D01*
Y20992D01*
X27250Y21450D01*
X25986Y20337D02*
Y21057D01*
X26250Y21320D01*
Y21450D01*
X25199Y20337D02*
X25225Y20362D01*
Y21425D01*
X25250Y21450D01*
X24331Y20418D02*
X24413Y20337D01*
X24331Y20418D02*
Y21369D01*
X24250Y21450D02*
X24331Y21369D01*
X23626Y20337D02*
Y21062D01*
X23250Y21437D02*
X23626Y21062D01*
X23250Y21437D02*
Y21450D01*
X22838Y20337D02*
Y20861D01*
X22250Y21450D02*
X22838Y20861D01*
X34750Y21050D02*
Y21074D01*
X34705Y21119D02*
X34750Y21074D01*
X34705Y21119D02*
Y21145D01*
X34550Y21300D02*
X34705Y21145D01*
X34550Y21300D02*
Y22062D01*
X33900Y18850D02*
Y23600D01*
X34300Y20726D02*
Y22150D01*
X34100Y19400D02*
Y22950D01*
X34300Y22150D02*
X34720Y22570D01*
X34100Y22950D02*
X35180Y24030D01*
X33900Y23600D02*
X35430Y25130D01*
X33900Y18850D02*
X34800Y17950D01*
X34300Y20726D02*
X34726Y20300D01*
X34750D01*
X34720Y22570D02*
X36130D01*
X34638Y22150D02*
X37012D01*
X34550Y22062D02*
X34638Y22150D01*
X34795Y21850D02*
X34845Y21900D01*
X38830D01*
X35180Y24030D02*
X36130D01*
X35430Y25130D02*
X36130D01*
X39550Y25200D02*
X40720Y24030D01*
X38830Y21900D02*
X39500Y22570D01*
X36130Y20880D02*
X36900Y21650D01*
X36130Y20280D02*
Y20880D01*
X39500Y22570D02*
X40870D01*
X40720Y24030D02*
X40870D01*
X39655Y23859D02*
X39901Y23613D01*
X39641Y23859D02*
X39655D01*
X40572Y24601D02*
X42020D01*
X41100Y25550D02*
X41981D01*
X36130Y17720D02*
X36150Y17700D01*
Y17150D02*
Y17700D01*
X36130Y18820D02*
X36280D01*
X36733Y19273D01*
X40600Y18445D02*
X41322D01*
X39650Y17495D02*
X40600Y18445D01*
X40720Y17720D02*
X40870D01*
X39650Y18945D02*
X40255Y19550D01*
X40750Y18700D02*
X40870Y18820D01*
X40255Y19550D02*
X42200D01*
X37465Y19535D02*
X39505D01*
X36700Y20300D02*
X37465Y19535D01*
X39505D02*
X39770Y19800D01*
X40240D01*
X40720Y20280D02*
X40870D01*
X40240Y19800D02*
X40720Y20280D01*
X39650Y20450D02*
X40213D01*
X40418Y20655D01*
X41667Y24250D02*
X41671Y24246D01*
Y23900D02*
Y24246D01*
Y23900D02*
X41675Y23896D01*
X42222Y17067D02*
X42305Y16985D01*
X42222Y17067D02*
Y17228D01*
X42150Y17300D02*
X42222Y17228D01*
X40950Y17300D02*
X42150D01*
X40600Y16950D02*
X40950Y17300D01*
X39650Y16950D02*
X40600D01*
X41327Y18450D02*
X41827D01*
X41322Y18445D02*
X41327Y18450D01*
X41827D02*
X42305Y17972D01*
X41200Y18150D02*
X41217Y18133D01*
X41512D02*
X41675Y17970D01*
X41217Y18133D02*
X41512D01*
X40418Y20655D02*
X41322D01*
X41327Y20650D01*
X41602D01*
X42305Y19948D01*
Y18960D02*
Y19445D01*
X42200Y19550D02*
X42305Y19445D01*
X41663Y18970D02*
Y19287D01*
X41650Y19300D02*
X41663Y19287D01*
Y18970D02*
X41675Y18957D01*
X42020Y21638D02*
X42305Y21923D01*
X41597Y22203D02*
X42305Y22911D01*
X41330Y22203D02*
X41597D01*
X41322Y22195D02*
X41330Y22203D01*
X39901Y23613D02*
X42020D01*
X42305Y23899D01*
X42020Y24601D02*
X42305Y24886D01*
X41981Y25550D02*
X42305Y25874D01*
X41663Y24896D02*
Y25287D01*
X41650Y25300D02*
X41663Y25287D01*
Y24896D02*
X41675Y24884D01*
X41250Y25900D02*
X41264Y25886D01*
X41661D01*
X41675Y25871D01*
X41650Y20250D02*
X41663Y20237D01*
Y19958D02*
Y20237D01*
Y19958D02*
X41675Y19945D01*
X41667Y23250D02*
X41671Y23246D01*
Y22912D02*
Y23246D01*
Y22912D02*
X41675Y22908D01*
X33741Y12923D02*
X34726D01*
X33730D02*
X33741D01*
X34300Y13482D01*
Y15026D01*
X34250Y15076D02*
X34300Y15026D01*
X34250Y15076D02*
Y15100D01*
X34737Y13517D02*
X35100Y13880D01*
X34754Y15054D02*
X35100Y14708D01*
Y13880D02*
Y14708D01*
X33730Y13517D02*
X33741D01*
X34100Y13875D01*
X33766Y15054D02*
X34100Y14720D01*
Y13875D02*
Y14720D01*
X34726Y13517D02*
X34737D01*
X35721D02*
X35732D01*
X36050Y13834D01*
X35741Y15054D02*
X36050Y14746D01*
Y13834D02*
Y14746D01*
X36717Y13517D02*
X36728D01*
X37100Y13889D01*
X36729Y15054D02*
X37100Y14683D01*
Y13889D02*
Y14683D01*
X37712Y13517D02*
X37724D01*
X38100Y13893D01*
X37717Y15054D02*
X38100Y14671D01*
Y13893D02*
Y14671D01*
X38708Y13517D02*
X38719D01*
X39150Y13947D01*
X38705Y15054D02*
X39150Y14609D01*
Y13947D02*
Y14609D01*
X39703Y13517D02*
X39715D01*
X40050Y13852D01*
X39692Y15054D02*
X40050Y14697D01*
Y13852D02*
Y14697D01*
X40699Y13517D02*
X40710D01*
X40938Y13744D01*
X40944D01*
X41050Y13850D01*
Y14684D01*
X40680Y15054D02*
X41050Y14684D01*
X42300Y13895D02*
Y14699D01*
X42679Y13517D02*
X42690D01*
X42300Y13895D02*
X42679Y13517D01*
X42300Y14699D02*
X42655Y15054D01*
X41706Y13517D02*
X42100Y13911D01*
Y14622D01*
X41668Y15054D02*
X42100Y14622D01*
X41694Y13517D02*
X41706D01*
X41694Y12923D02*
X42690D01*
X40699D02*
X41694D01*
X39703D02*
X40699D01*
X38708D02*
X39703D01*
X37712D02*
X38708D01*
X36717D02*
X37712D01*
X35721D02*
X36717D01*
X34726D02*
X35721D01*
X23578Y45698D02*
X23579Y45699D01*
X24264Y48100D02*
Y48600D01*
Y48100D02*
X24500Y47863D01*
Y47850D02*
Y47863D01*
X24048Y44716D02*
X24728D01*
X24924Y44520D01*
Y44500D02*
Y44520D01*
X24048Y45228D02*
X24054Y45234D01*
X24888D01*
X24903Y45250D01*
D87*
X54028Y30363D02*
X54034Y30358D01*
X54025Y30367D02*
X54028Y30363D01*
X54372Y30358D02*
X54380Y30350D01*
X54034Y30358D02*
X54372D01*
X46150Y32836D02*
X46464Y33150D01*
X47323D01*
X47823Y33650D01*
X46150Y30803D02*
Y32836D01*
X47823Y33650D02*
X48500D01*
X46575Y30367D02*
Y30378D01*
X46150Y30803D02*
X46575Y30378D01*
X52200Y33650D02*
X52200Y33650D01*
X52900D01*
X52900Y33650D01*
X51500Y33150D02*
X51500Y33150D01*
X52200D01*
X52330Y34880D02*
Y35307D01*
Y34880D02*
X52350Y34861D01*
Y34850D02*
Y34861D01*
X48500Y32150D02*
X49250D01*
X48500Y32150D02*
X48500Y32150D01*
X48500Y32650D02*
X48500Y32650D01*
X49200D01*
X49200Y32650D01*
X52200Y32650D02*
X52200Y32650D01*
X51500Y32650D02*
X52200D01*
X51500Y32650D02*
X51500Y32650D01*
X52200Y32150D02*
X52200Y32150D01*
X51500Y32150D02*
X52200D01*
X51500Y32150D02*
X51500Y32150D01*
X53432Y31152D02*
Y31164D01*
X53150Y31445D02*
X53432Y31164D01*
X53150Y31445D02*
Y32136D01*
X52655Y32632D02*
X53150Y32136D01*
X52218Y32632D02*
X52655D01*
X52200Y32650D02*
X52218Y32632D01*
X52783Y32150D02*
X52900Y32033D01*
Y30910D02*
Y32033D01*
X52200Y32150D02*
X52783D01*
X50770Y34931D02*
Y35307D01*
X50750Y34911D02*
X50770Y34931D01*
X50750Y34900D02*
Y34911D01*
X47650Y34900D02*
Y35307D01*
X49205Y35302D02*
X49210Y35307D01*
X49205Y34905D02*
Y35302D01*
X49200Y34900D02*
X49205Y34905D01*
X52200Y33150D02*
X52200Y33150D01*
X52900Y30910D02*
X53432Y30378D01*
Y30367D02*
Y30378D01*
X47900Y31110D02*
Y32033D01*
X48481Y32132D02*
X48500Y32150D01*
X47999Y32132D02*
X48481D01*
X47900Y32033D02*
X47999Y32132D01*
X47169Y30367D02*
Y30378D01*
X47900Y31110D01*
X47169Y31164D02*
X47600Y31595D01*
Y32533D01*
X47717Y32650D01*
X48500D01*
X47169Y31152D02*
Y31164D01*
X46575Y30367D02*
X46600Y30342D01*
Y29645D02*
Y30342D01*
Y29645D02*
X46624Y29620D01*
X54028Y29624D02*
X54032Y29620D01*
X54028Y29624D02*
Y30363D01*
X53474Y31980D02*
Y32766D01*
Y32785D01*
X53110Y33150D02*
X53474Y32785D01*
X52200Y33150D02*
X53110D01*
X53474Y33551D02*
Y34337D01*
X52200Y34150D02*
X52232Y34182D01*
X52712D01*
X52867Y34337D01*
X53474D01*
X27350Y44650D02*
X28529D01*
X29000Y44179D01*
Y44084D02*
Y44179D01*
X28371Y40596D02*
X28374Y40600D01*
X27054Y40596D02*
X28371D01*
X27050Y40593D02*
X27054Y40596D01*
X24048Y44460D02*
X24167D01*
X25620Y43007D01*
X27050D01*
X27350Y43160D02*
Y44650D01*
X27198Y43007D02*
X27350Y43160D01*
X27050Y43007D02*
X27198D01*
X27050D02*
X27054Y43004D01*
X28371D01*
X28374Y43000D01*
X25552Y41644D02*
Y41900D01*
Y41644D02*
X26451Y40745D01*
X26898D01*
X27050Y40593D01*
X25552Y41900D02*
Y42156D01*
X23856Y43852D02*
X25552Y42156D01*
X23609Y43852D02*
X23856D01*
X23578Y43883D02*
X23609Y43852D01*
X23578Y43883D02*
Y44002D01*
D88*
X33995Y30135D02*
D03*
X34985Y28165D02*
D03*
X29600Y29400D02*
D03*
X28600D02*
D03*
X27600D02*
D03*
X26600D02*
D03*
X25600D02*
D03*
X24600D02*
D03*
X23600D02*
D03*
X22600D02*
D03*
X38385Y28165D02*
D03*
X37395Y30135D02*
D03*
X50295Y27735D02*
D03*
X51285Y25765D02*
D03*
X26195Y27735D02*
D03*
X27185Y25765D02*
D03*
X37245Y48485D02*
D03*
X38235Y46515D02*
D03*
D89*
X33015Y28165D02*
D03*
X30600Y29400D02*
D03*
X36415Y28165D02*
D03*
X49315Y25765D02*
D03*
X25215D02*
D03*
X36265Y46515D02*
D03*
D90*
X22950Y38798D02*
D03*
X41150D02*
D03*
X36600D02*
D03*
X32050D02*
D03*
X27500D02*
D03*
D91*
X24950Y38802D02*
D03*
X23950Y38798D02*
D03*
X43150Y38802D02*
D03*
X42150Y38798D02*
D03*
X38600Y38802D02*
D03*
X37600Y38798D02*
D03*
X34050Y38802D02*
D03*
X33050Y38798D02*
D03*
X29500Y38802D02*
D03*
X28500Y38798D02*
D03*
D92*
X25551Y48939D02*
D03*
X22149D02*
D03*
D93*
X25551Y47305D02*
D03*
X22149D02*
D03*
D94*
X24992Y47498D02*
D03*
X22708Y47502D02*
D03*
D95*
X46495Y20337D02*
D03*
X22838D02*
D03*
D96*
X47282D02*
D03*
X48069D02*
D03*
X48856D02*
D03*
X49643D02*
D03*
X50430D02*
D03*
X51217D02*
D03*
X52004D02*
D03*
X53578D02*
D03*
X52791D02*
D03*
X46495Y19550D02*
D03*
X47282D02*
D03*
X48069D02*
D03*
X48856D02*
D03*
X49643D02*
D03*
X50430D02*
D03*
X51217D02*
D03*
X52004D02*
D03*
X53578D02*
D03*
X52791D02*
D03*
X29135D02*
D03*
X29922D02*
D03*
X28347D02*
D03*
X27561D02*
D03*
X26774D02*
D03*
X25986D02*
D03*
X25199D02*
D03*
X24413D02*
D03*
X23626D02*
D03*
X22838D02*
D03*
X29135Y20337D02*
D03*
X29922D02*
D03*
X28347D02*
D03*
X27561D02*
D03*
X26774D02*
D03*
X25986D02*
D03*
X25199D02*
D03*
X24413D02*
D03*
X23626D02*
D03*
D97*
X49410Y18530D02*
D03*
X50200D02*
D03*
X50990D02*
D03*
X48620D02*
D03*
X24800D02*
D03*
X27170D02*
D03*
X26380D02*
D03*
X25590D02*
D03*
D98*
X51780D02*
D03*
X27960D02*
D03*
D99*
X52250Y14550D02*
D03*
X48150D02*
D03*
X24330D02*
D03*
X28430D02*
D03*
D100*
X52100Y21450D02*
D03*
X51100D02*
D03*
X50100D02*
D03*
X49100D02*
D03*
X48100D02*
D03*
X47100D02*
D03*
X46100D02*
D03*
Y24450D02*
D03*
X53100Y21450D02*
D03*
X54100D02*
D03*
X47100Y24450D02*
D03*
X48100D02*
D03*
X49100D02*
D03*
X50100D02*
D03*
X51100D02*
D03*
X52100D02*
D03*
X53100D02*
D03*
X39969Y28321D02*
D03*
X40756D02*
D03*
X41544D02*
D03*
X28250Y21450D02*
D03*
X27250D02*
D03*
X26250D02*
D03*
X25250D02*
D03*
X24250D02*
D03*
X23250D02*
D03*
X22250D02*
D03*
Y24450D02*
D03*
X29250Y21450D02*
D03*
X30250D02*
D03*
X23250Y24450D02*
D03*
X24250D02*
D03*
X25250D02*
D03*
X26250D02*
D03*
X27250D02*
D03*
X28250D02*
D03*
X29250D02*
D03*
X27238Y47821D02*
D03*
X28025D02*
D03*
X28813D02*
D03*
X31519D02*
D03*
X32306D02*
D03*
X33094D02*
D03*
D101*
X54100Y24450D02*
D03*
X30250D02*
D03*
D102*
X42331Y28317D02*
D03*
X29600Y47817D02*
D03*
X33881D02*
D03*
D103*
X27350Y45650D02*
D03*
D104*
Y44650D02*
D03*
X34500Y33300D02*
D03*
X35500Y32300D02*
D03*
Y33300D02*
D03*
X36500Y32300D02*
D03*
Y33300D02*
D03*
X37500Y32300D02*
D03*
Y33300D02*
D03*
X38500Y32300D02*
D03*
Y33300D02*
D03*
X39500Y32300D02*
D03*
Y33300D02*
D03*
X40500Y32300D02*
D03*
Y33300D02*
D03*
X41500Y32300D02*
D03*
Y33300D02*
D03*
X42500Y32300D02*
D03*
Y33300D02*
D03*
X43500Y32300D02*
D03*
Y33300D02*
D03*
D105*
X34500Y32300D02*
D03*
D106*
X38697Y26553D02*
D03*
X30300Y44900D02*
D03*
X38450Y35550D02*
D03*
X44700Y36950D02*
D03*
X33457Y36293D02*
D03*
X45500Y35750D02*
D03*
X22300Y45750D02*
D03*
X23825Y47850D02*
D03*
X24500D02*
D03*
X23150D02*
D03*
D107*
X38350Y25150D02*
D03*
X39650Y22325D02*
D03*
Y21700D02*
D03*
Y21050D02*
D03*
X39900Y25950D02*
D03*
X39745Y25428D02*
D03*
X27300Y48500D02*
D03*
X41200Y17000D02*
D03*
X41188Y21950D02*
D03*
X41200Y20950D02*
D03*
X26700Y46050D02*
D03*
X28500Y48456D02*
D03*
X42000Y31827D02*
D03*
X40300Y31300D02*
D03*
X40060Y31734D02*
D03*
X37202Y40948D02*
D03*
X37850Y40775D02*
D03*
X37950Y34239D02*
D03*
X38086Y33983D02*
D03*
X46200Y40250D02*
D03*
X44100Y29750D02*
D03*
X44390D02*
D03*
X45745Y31525D02*
D03*
X46200Y42450D02*
D03*
X50000Y37850D02*
D03*
X48100Y39850D02*
D03*
X50500Y39900D02*
D03*
X30555Y39650D02*
D03*
X31245D02*
D03*
X31764D02*
D03*
X32448Y39698D02*
D03*
X42500Y41800D02*
D03*
X38700Y47300D02*
D03*
X41550Y42000D02*
D03*
X38700Y48100D02*
D03*
X46200Y43200D02*
D03*
X48450Y47400D02*
D03*
X27253Y28600D02*
D03*
X33850D02*
D03*
X55305Y29650D02*
D03*
X36750Y18700D02*
D03*
X34800D02*
D03*
X36750Y19500D02*
D03*
X34800D02*
D03*
X46650Y28550D02*
D03*
X55150Y30000D02*
D03*
X53000Y39781D02*
D03*
X51500Y39800D02*
D03*
X23972Y45700D02*
D03*
X26400Y34900D02*
D03*
X25350Y22950D02*
D03*
X28800Y34400D02*
D03*
X28600Y30400D02*
D03*
X50351Y23351D02*
D03*
X54380Y30350D02*
D03*
X49500Y39850D02*
D03*
X52900Y33650D02*
D03*
X51500Y33150D02*
D03*
X24700Y22250D02*
D03*
X48350Y37550D02*
D03*
X52750Y37650D02*
D03*
X49250Y32150D02*
D03*
X49200Y32650D02*
D03*
X51500D02*
D03*
Y32150D02*
D03*
X52350Y34850D02*
D03*
X50750Y34900D02*
D03*
X47650D02*
D03*
X49200D02*
D03*
Y33150D02*
D03*
X34795Y21850D02*
D03*
X36900Y21650D02*
D03*
X34750Y20300D02*
D03*
Y21050D02*
D03*
X39641Y23859D02*
D03*
X36150Y17150D02*
D03*
X39650Y17495D02*
D03*
Y18945D02*
D03*
Y20450D02*
D03*
X36750Y17900D02*
D03*
X36700Y20300D02*
D03*
Y21050D02*
D03*
X34800Y17950D02*
D03*
X41667Y24250D02*
D03*
X41200Y18150D02*
D03*
X41650Y19300D02*
D03*
Y25300D02*
D03*
X41250Y25900D02*
D03*
X39650Y16950D02*
D03*
X41650Y20250D02*
D03*
X41667Y23250D02*
D03*
X34250Y15100D02*
D03*
X34750Y14000D02*
D03*
X38700D02*
D03*
X41650Y13950D02*
D03*
X42700Y14000D02*
D03*
X40700D02*
D03*
X39700D02*
D03*
X37750D02*
D03*
X36750D02*
D03*
X35750D02*
D03*
X33750D02*
D03*
X29200Y39650D02*
D03*
X29950D02*
D03*
X30550Y49100D02*
D03*
X36250Y48600D02*
D03*
Y47700D02*
D03*
D108*
X27650Y48300D02*
D03*
X29055Y48476D02*
D03*
X30250Y48600D02*
D03*
X26905Y48505D02*
D03*
X46465Y36250D02*
D03*
X45920D02*
D03*
X46700Y37600D02*
D03*
X45935D02*
D03*
M02*
