G04*
G04 #@! TF.GenerationSoftware,Altium Limited,Altium Designer,20.2.5 (213)*
G04*
G04 Layer_Color=8388736*
%FSLAX24Y24*%
%MOIN*%
G70*
G04*
G04 #@! TF.SameCoordinates,94A92F66-6131-4E5E-9460-D235825817E1*
G04*
G04*
G04 #@! TF.FilePolarity,Positive*
G04*
G01*
G75*
%ADD144C,0.0024*%
D144*
X38054Y16415D02*
G03*
X38054Y16415I-12J0D01*
G01*
Y27165D02*
G03*
X38054Y27165I-12J0D01*
G01*
X23661Y23465D02*
G03*
X23661Y23465I-12J0D01*
G01*
X26761Y31485D02*
G03*
X26761Y31485I-12J0D01*
G01*
X26141D02*
G03*
X26141Y31485I-12J0D01*
G01*
X26142Y34242D02*
G03*
X26142Y34242I-12J0D01*
G01*
X28305Y33442D02*
G03*
X28305Y33442I-12J0D01*
G01*
X28277Y34242D02*
G03*
X28277Y34242I-12J0D01*
G01*
X26120Y33442D02*
G03*
X26120Y33442I-12J0D01*
G01*
X26297Y32957D02*
G03*
X26297Y32957I-12J0D01*
G01*
Y30907D02*
G03*
X26297Y30907I-12J0D01*
G01*
X27494Y32239D02*
G03*
X27494Y32239I-12J0D01*
G01*
X25363D02*
G03*
X25363Y32239I-12J0D01*
G01*
X27769Y31331D02*
G03*
X27769Y31331I-12J0D01*
G01*
X25719D02*
G03*
X25719Y31331I-12J0D01*
G01*
X40244Y29935D02*
G03*
X40244Y29935I-12J0D01*
G01*
X39569D02*
G03*
X39569Y29935I-12J0D01*
G01*
X22154Y22835D02*
G03*
X22154Y22835I-12J0D01*
G01*
X27236Y23465D02*
G03*
X27236Y23465I-12J0D01*
G01*
X25729Y22835D02*
G03*
X25729Y22835I-12J0D01*
G01*
X24577Y22813D02*
G03*
X24577Y22813I-12J0D01*
G01*
X28469Y23437D02*
G03*
X28469Y23437I-12J0D01*
G01*
X46004Y22707D02*
G03*
X46004Y22707I-12J0D01*
G01*
X47524D02*
G03*
X47524Y22707I-12J0D01*
G01*
X48599Y23337D02*
G03*
X48599Y23337I-12J0D01*
G01*
X47121Y23309D02*
G03*
X47121Y23309I-12J0D01*
G01*
X49084Y22685D02*
G03*
X49084Y22685I-12J0D01*
G01*
X49804Y22707D02*
G03*
X49804Y22707I-12J0D01*
G01*
X26319Y47715D02*
G03*
X26319Y47715I-12J0D01*
G01*
X27527Y48692D02*
G03*
X27527Y48692I-12J0D01*
G01*
Y46943D02*
G03*
X27527Y46943I-12J0D01*
G01*
X26004Y48285D02*
G03*
X26004Y48285I-12J0D01*
G01*
X53453Y29463D02*
G03*
X53453Y29463I-12J0D01*
G01*
X54077Y32137D02*
G03*
X54077Y32137I-12J0D01*
G01*
Y32923D02*
G03*
X54077Y32923I-12J0D01*
G01*
Y33709D02*
G03*
X54077Y33709I-12J0D01*
G01*
X54055Y31310D02*
G03*
X54055Y31310I-12J0D01*
G01*
X54077Y34494D02*
G03*
X54077Y34494I-12J0D01*
G01*
X54055Y30524D02*
G03*
X54055Y30524I-12J0D01*
G01*
X48919Y42404D02*
G03*
X48919Y42404I-12J0D01*
G01*
X51999Y42719D02*
G03*
X51999Y42719I-12J0D01*
G01*
X31642Y47307D02*
G03*
X31642Y47307I-12J0D01*
G01*
X26469Y37108D02*
G03*
X26469Y37108I-12J0D01*
G01*
X26152Y36392D02*
G03*
X26152Y36392I-12J0D01*
G01*
X39327Y16793D02*
G03*
X39327Y16793I-12J0D01*
G01*
Y25793D02*
G03*
X39327Y25793I-12J0D01*
G01*
Y20925D02*
G03*
X39327Y20925I-12J0D01*
G01*
Y17342D02*
G03*
X39327Y17342I-12J0D01*
G01*
Y18743D02*
G03*
X39327Y18743I-12J0D01*
G01*
Y20292D02*
G03*
X39327Y20292I-12J0D01*
G01*
Y25143D02*
G03*
X39327Y25143I-12J0D01*
G01*
Y23711D02*
G03*
X39327Y23711I-12J0D01*
G01*
Y22192D02*
G03*
X39327Y22192I-12J0D01*
G01*
Y21542D02*
G03*
X39327Y21542I-12J0D01*
G01*
X42544Y13535D02*
G03*
X42544Y13535I-12J0D01*
G01*
X39558D02*
G03*
X39558Y13535I-12J0D01*
G01*
X38562D02*
G03*
X38562Y13535I-12J0D01*
G01*
X41549D02*
G03*
X41549Y13535I-12J0D01*
G01*
X40553D02*
G03*
X40553Y13535I-12J0D01*
G01*
X34580D02*
G03*
X34580Y13535I-12J0D01*
G01*
X33584D02*
G03*
X33584Y13535I-12J0D01*
G01*
X35575D02*
G03*
X35575Y13535I-12J0D01*
G01*
X37567D02*
G03*
X37567Y13535I-12J0D01*
G01*
X36571D02*
G03*
X36571Y13535I-12J0D01*
G01*
X28180Y34158D02*
G03*
X28180Y34158I-12J0D01*
G01*
X28454Y31441D02*
G03*
X28454Y31441I-12J0D01*
G01*
X29269Y33400D02*
G03*
X29269Y33400I-12J0D01*
G01*
X27654Y31469D02*
G03*
X27654Y31469I-12J0D01*
G01*
X27411Y33425D02*
G03*
X27411Y33425I-12J0D01*
G01*
X22604Y31469D02*
G03*
X22604Y31469I-12J0D01*
G01*
X22004Y37732D02*
G03*
X22004Y37732I-12J0D01*
G01*
X23404Y31441D02*
G03*
X23404Y31441I-12J0D01*
G01*
X40604Y30565D02*
G03*
X40604Y30565I-12J0D01*
G01*
X24897Y45093D02*
G03*
X24897Y45093I-12J0D01*
G01*
Y44342D02*
G03*
X24897Y44342I-12J0D01*
G01*
X28347Y40443D02*
G03*
X28347Y40443I-12J0D01*
G01*
Y42842D02*
G03*
X28347Y42842I-12J0D01*
G01*
X34702Y36392D02*
G03*
X34702Y36392I-12J0D01*
G01*
X35019Y37108D02*
G03*
X35019Y37108I-12J0D01*
G01*
X35369Y46585D02*
G03*
X35369Y46585I-12J0D01*
G01*
X35052Y44015D02*
G03*
X35052Y44015I-12J0D01*
G01*
X29904Y41715D02*
G03*
X29904Y41715I-12J0D01*
G01*
X30221Y42535D02*
G03*
X30221Y42535I-12J0D01*
G01*
X30619Y37108D02*
G03*
X30619Y37108I-12J0D01*
G01*
X30302Y36392D02*
G03*
X30302Y36392I-12J0D01*
G01*
X39052D02*
G03*
X39052Y36392I-12J0D01*
G01*
X39369Y37108D02*
G03*
X39369Y37108I-12J0D01*
G01*
X34947Y41792D02*
G03*
X34947Y41792I-12J0D01*
G01*
Y40992D02*
G03*
X34947Y40992I-12J0D01*
G01*
X35013Y48765D02*
G03*
X35013Y48765I-12J0D01*
G01*
X49515Y37019D02*
G03*
X49515Y37019I-12J0D01*
G01*
X47927Y40983D02*
G03*
X47927Y40983I-12J0D01*
G01*
Y39071D02*
G03*
X47927Y39071I-12J0D01*
G01*
X48913Y41661D02*
G03*
X48913Y41661I-12J0D01*
G01*
X49537Y37769D02*
G03*
X49537Y37769I-12J0D01*
G01*
X50327Y42377D02*
G03*
X50327Y42377I-12J0D01*
G01*
X50642Y36997D02*
G03*
X50642Y36997I-12J0D01*
G01*
X52009Y41978D02*
G03*
X52009Y41978I-12J0D01*
G01*
X51385Y37452D02*
G03*
X51385Y37452I-12J0D01*
G01*
X53242Y40353D02*
G03*
X53242Y40353I-12J0D01*
G01*
Y38441D02*
G03*
X53242Y38441I-12J0D01*
G01*
X51407Y36704D02*
G03*
X51407Y36704I-12J0D01*
G01*
X45197Y41543D02*
G03*
X45197Y41543I-12J0D01*
G01*
X38697Y41343D02*
G03*
X38697Y41343I-12J0D01*
G01*
X39351Y42407D02*
G03*
X39351Y42407I-12J0D01*
G01*
X45197Y40743D02*
G03*
X45197Y40743I-12J0D01*
G01*
X46597Y32606D02*
G03*
X46597Y32606I-12J0D01*
G01*
Y31820D02*
G03*
X46597Y31820I-12J0D01*
G01*
Y33392D02*
G03*
X46597Y33392I-12J0D01*
G01*
Y34177D02*
G03*
X46597Y34177I-12J0D01*
G01*
X39327Y43208D02*
G03*
X39327Y43208I-12J0D01*
G01*
X45827Y42607D02*
G03*
X45827Y42607I-12J0D01*
G01*
X38697Y43643D02*
G03*
X38697Y43643I-12J0D01*
G01*
X45004Y43815D02*
G03*
X45004Y43815I-12J0D01*
G01*
X45604D02*
G03*
X45604Y43815I-12J0D01*
G01*
X46597Y29463D02*
G03*
X46597Y29463I-12J0D01*
G01*
X54269Y42035D02*
G03*
X54269Y42035I-12J0D01*
G01*
X53254Y42665D02*
G03*
X53254Y42665I-12J0D01*
G01*
X52185Y35919D02*
G03*
X52185Y35919I-12J0D01*
G01*
X50625D02*
G03*
X50625Y35919I-12J0D01*
G01*
X47504D02*
G03*
X47504Y35919I-12J0D01*
G01*
X49064D02*
G03*
X49064Y35919I-12J0D01*
G01*
X46569Y30995D02*
G03*
X46569Y30995I-12J0D01*
G01*
Y30209D02*
G03*
X46569Y30209I-12J0D01*
G01*
X45104Y45665D02*
G03*
X45104Y45665I-12J0D01*
G01*
X38797Y44592D02*
G03*
X38797Y44592I-12J0D01*
G01*
X39427Y45557D02*
G03*
X39427Y45557I-12J0D01*
G01*
X45197Y46293D02*
G03*
X45197Y46293I-12J0D01*
G01*
X39204Y47315D02*
G03*
X39204Y47315I-12J0D01*
G01*
X45821Y47958D02*
G03*
X45821Y47958I-12J0D01*
G01*
X48324Y35891D02*
G03*
X48324Y35891I-12J0D01*
G01*
X53004D02*
G03*
X53004Y35891I-12J0D01*
G01*
X49884D02*
G03*
X49884Y35891I-12J0D01*
G01*
X51444D02*
G03*
X51444Y35891I-12J0D01*
G01*
X39254Y48665D02*
G03*
X39254Y48665I-12J0D01*
G01*
X45054Y49112D02*
G03*
X45054Y49112I-12J0D01*
G01*
X45197Y46943D02*
G03*
X45197Y46943I-12J0D01*
G01*
M02*
