G04*
G04 #@! TF.GenerationSoftware,Altium Limited,Altium Designer,20.2.5 (213)*
G04*
G04 Layer_Color=16711935*
%FSLAX24Y24*%
%MOIN*%
G70*
G04*
G04 #@! TF.SameCoordinates,94A92F66-6131-4E5E-9460-D235825817E1*
G04*
G04*
G04 #@! TF.FilePolarity,Negative*
G04*
G01*
G75*
%ADD43R,0.0420X0.0398*%
%ADD46R,0.0395X0.0434*%
%ADD47R,0.0398X0.0420*%
%ADD53R,0.0434X0.0395*%
%ADD67C,0.0780*%
%ADD68R,0.0780X0.0780*%
%ADD69R,0.0789X0.1104*%
%ADD70O,0.0789X0.1104*%
%ADD71O,0.0474X0.0789*%
%ADD72O,0.0474X0.0907*%
%ADD73C,0.0336*%
%ADD74R,0.0680X0.0680*%
%ADD75C,0.0680*%
%ADD76O,0.0680X0.0480*%
%ADD77R,0.0680X0.0480*%
%ADD78O,0.0680X0.1080*%
%ADD79C,0.0710*%
%ADD80R,0.0710X0.0710*%
%ADD81R,0.0710X0.0710*%
%ADD82R,0.0789X0.0789*%
%ADD83C,0.0789*%
%ADD84R,0.0789X0.0789*%
%ADD85C,0.0580*%
%ADD137R,0.0400X0.0400*%
%ADD138R,0.0316X0.0880*%
%ADD139R,0.0198X0.0880*%
%ADD140R,0.1080X0.0430*%
%ADD141R,0.0430X0.1080*%
D43*
X23492Y22853D02*
D03*
Y23447D02*
D03*
X26907Y31503D02*
D03*
Y32097D02*
D03*
X26287Y31503D02*
D03*
Y32097D02*
D03*
X27639Y32258D02*
D03*
Y32851D02*
D03*
X25508Y32258D02*
D03*
Y32851D02*
D03*
X22300Y22853D02*
D03*
Y23447D02*
D03*
X27067D02*
D03*
Y22853D02*
D03*
X25875D02*
D03*
Y23447D02*
D03*
X46150Y23318D02*
D03*
Y22725D02*
D03*
X47670Y23318D02*
D03*
Y22725D02*
D03*
X48430D02*
D03*
Y23318D02*
D03*
X49950D02*
D03*
Y22725D02*
D03*
X26150Y47697D02*
D03*
Y47103D02*
D03*
Y48303D02*
D03*
Y48897D02*
D03*
D46*
X25540Y34400D02*
D03*
X26091D02*
D03*
X27674D02*
D03*
X28226D02*
D03*
X26876Y32800D02*
D03*
X26324D02*
D03*
X26876Y30750D02*
D03*
X26324D02*
D03*
D47*
X28275Y33600D02*
D03*
X27681D02*
D03*
X26090D02*
D03*
X25497D02*
D03*
X27497Y48850D02*
D03*
X26903D02*
D03*
X27497Y47100D02*
D03*
X26903D02*
D03*
X31648Y47150D02*
D03*
X32241D02*
D03*
X38703Y16950D02*
D03*
X39297D02*
D03*
X38703Y25950D02*
D03*
X39297D02*
D03*
X38703Y21082D02*
D03*
X39297D02*
D03*
X38703Y17500D02*
D03*
X39297D02*
D03*
X38703Y18900D02*
D03*
X39297D02*
D03*
X38703Y20450D02*
D03*
X39297D02*
D03*
X38703Y25300D02*
D03*
X39297D02*
D03*
X38703Y23869D02*
D03*
X39297D02*
D03*
X38703Y22350D02*
D03*
X39297D02*
D03*
X38703Y21700D02*
D03*
X39297D02*
D03*
D53*
X27600Y30740D02*
D03*
Y31291D02*
D03*
X25550Y30740D02*
D03*
Y31291D02*
D03*
X24723Y23404D02*
D03*
Y22853D02*
D03*
X28300Y22846D02*
D03*
Y23398D02*
D03*
X46952Y23269D02*
D03*
Y22718D02*
D03*
X49229Y22724D02*
D03*
Y23276D02*
D03*
D67*
X33995Y30135D02*
D03*
X34985Y28165D02*
D03*
X29600Y29400D02*
D03*
X28600D02*
D03*
X27600D02*
D03*
X26600D02*
D03*
X25600D02*
D03*
X24600D02*
D03*
X23600D02*
D03*
X22600D02*
D03*
X38385Y28165D02*
D03*
X37395Y30135D02*
D03*
X50295Y27735D02*
D03*
X51285Y25765D02*
D03*
X26195Y27735D02*
D03*
X27185Y25765D02*
D03*
X37245Y48485D02*
D03*
X38235Y46515D02*
D03*
D68*
X33015Y28165D02*
D03*
X30600Y29400D02*
D03*
X36415Y28165D02*
D03*
X49315Y25765D02*
D03*
X25215D02*
D03*
X36265Y46515D02*
D03*
D69*
X22950Y38798D02*
D03*
X41150D02*
D03*
X36600D02*
D03*
X32050D02*
D03*
X27500D02*
D03*
D70*
X24950Y38802D02*
D03*
X23950Y38798D02*
D03*
X43150Y38802D02*
D03*
X42150Y38798D02*
D03*
X38600Y38802D02*
D03*
X37600Y38798D02*
D03*
X34050Y38802D02*
D03*
X33050Y38798D02*
D03*
X29500Y38802D02*
D03*
X28500Y38798D02*
D03*
D71*
X25551Y48939D02*
D03*
X22149D02*
D03*
D72*
X25551Y47305D02*
D03*
X22149D02*
D03*
D73*
X24992Y47498D02*
D03*
X22708Y47502D02*
D03*
D74*
X46495Y20337D02*
D03*
X22838D02*
D03*
D75*
X47282D02*
D03*
X48069D02*
D03*
X48856D02*
D03*
X49643D02*
D03*
X50430D02*
D03*
X51217D02*
D03*
X52004D02*
D03*
X53578D02*
D03*
X52791D02*
D03*
X46495Y19550D02*
D03*
X47282D02*
D03*
X48069D02*
D03*
X48856D02*
D03*
X49643D02*
D03*
X50430D02*
D03*
X51217D02*
D03*
X52004D02*
D03*
X53578D02*
D03*
X52791D02*
D03*
X29135D02*
D03*
X29922D02*
D03*
X28347D02*
D03*
X27561D02*
D03*
X26774D02*
D03*
X25986D02*
D03*
X25199D02*
D03*
X24413D02*
D03*
X23626D02*
D03*
X22838D02*
D03*
X29135Y20337D02*
D03*
X29922D02*
D03*
X28347D02*
D03*
X27561D02*
D03*
X26774D02*
D03*
X25986D02*
D03*
X25199D02*
D03*
X24413D02*
D03*
X23626D02*
D03*
D76*
X49410Y18530D02*
D03*
X50200D02*
D03*
X50990D02*
D03*
X48620D02*
D03*
X24800D02*
D03*
X27170D02*
D03*
X26380D02*
D03*
X25590D02*
D03*
D77*
X51780D02*
D03*
X27960D02*
D03*
D78*
X52250Y14550D02*
D03*
X48150D02*
D03*
X24330D02*
D03*
X28430D02*
D03*
D79*
X52100Y21450D02*
D03*
X51100D02*
D03*
X50100D02*
D03*
X49100D02*
D03*
X48100D02*
D03*
X47100D02*
D03*
X46100D02*
D03*
Y24450D02*
D03*
X53100Y21450D02*
D03*
X54100D02*
D03*
X47100Y24450D02*
D03*
X48100D02*
D03*
X49100D02*
D03*
X50100D02*
D03*
X51100D02*
D03*
X52100D02*
D03*
X53100D02*
D03*
X39969Y28321D02*
D03*
X40756D02*
D03*
X41544D02*
D03*
X28250Y21450D02*
D03*
X27250D02*
D03*
X26250D02*
D03*
X25250D02*
D03*
X24250D02*
D03*
X23250D02*
D03*
X22250D02*
D03*
Y24450D02*
D03*
X29250Y21450D02*
D03*
X30250D02*
D03*
X23250Y24450D02*
D03*
X24250D02*
D03*
X25250D02*
D03*
X26250D02*
D03*
X27250D02*
D03*
X28250D02*
D03*
X29250D02*
D03*
X27238Y47821D02*
D03*
X28025D02*
D03*
X28813D02*
D03*
X31519D02*
D03*
X32306D02*
D03*
X33094D02*
D03*
D80*
X54100Y24450D02*
D03*
X30250D02*
D03*
D81*
X42331Y28317D02*
D03*
X29600Y47817D02*
D03*
X33881D02*
D03*
D82*
X27350Y45650D02*
D03*
D83*
Y44650D02*
D03*
X34500Y33300D02*
D03*
X35500Y32300D02*
D03*
Y33300D02*
D03*
X36500Y32300D02*
D03*
Y33300D02*
D03*
X37500Y32300D02*
D03*
Y33300D02*
D03*
X38500Y32300D02*
D03*
Y33300D02*
D03*
X39500Y32300D02*
D03*
Y33300D02*
D03*
X40500Y32300D02*
D03*
Y33300D02*
D03*
X41500Y32300D02*
D03*
Y33300D02*
D03*
X42500Y32300D02*
D03*
Y33300D02*
D03*
X43500Y32300D02*
D03*
Y33300D02*
D03*
D84*
X34500Y32300D02*
D03*
D85*
X38697Y26553D02*
D03*
D137*
X28122Y48850D02*
D03*
X28722D02*
D03*
X29400D02*
D03*
X30000D02*
D03*
D138*
X24795Y46761D02*
D03*
X22905D02*
D03*
X25110D02*
D03*
X22590D02*
D03*
D139*
X23948D02*
D03*
X23752D02*
D03*
X24539D02*
D03*
X24342D02*
D03*
X24145D02*
D03*
X23555D02*
D03*
X23358D02*
D03*
X23161D02*
D03*
D140*
X36060Y25006D02*
D03*
Y24220D02*
D03*
Y23433D02*
D03*
Y22645D02*
D03*
Y21858D02*
D03*
Y21072D02*
D03*
Y20285D02*
D03*
Y19497D02*
D03*
Y18711D02*
D03*
Y17924D02*
D03*
X34086Y18711D02*
D03*
Y19497D02*
D03*
Y20285D02*
D03*
Y21072D02*
D03*
Y21858D02*
D03*
Y22645D02*
D03*
Y23433D02*
D03*
Y24220D02*
D03*
Y25006D02*
D03*
Y17924D02*
D03*
X40363Y17874D02*
D03*
Y18661D02*
D03*
Y19447D02*
D03*
Y20234D02*
D03*
Y21021D02*
D03*
Y21809D02*
D03*
Y22596D02*
D03*
Y23382D02*
D03*
Y24169D02*
D03*
Y24957D02*
D03*
X42337Y24169D02*
D03*
Y23382D02*
D03*
Y22596D02*
D03*
Y21809D02*
D03*
Y21021D02*
D03*
Y20234D02*
D03*
Y19447D02*
D03*
Y18661D02*
D03*
Y17874D02*
D03*
Y24957D02*
D03*
D141*
X41776Y13133D02*
D03*
X40989D02*
D03*
X40202D02*
D03*
X39416D02*
D03*
X38628D02*
D03*
X37841D02*
D03*
X37055D02*
D03*
X36267D02*
D03*
X35480D02*
D03*
X34694D02*
D03*
X35480Y15107D02*
D03*
X36267D02*
D03*
X37055D02*
D03*
X37841D02*
D03*
X38628D02*
D03*
X39416D02*
D03*
X40202D02*
D03*
X40989D02*
D03*
X41776D02*
D03*
X34694D02*
D03*
M02*
