G04*
G04 #@! TF.GenerationSoftware,Altium Limited,Altium Designer,20.2.5 (213)*
G04*
G04 Layer_Color=8421504*
%FSLAX24Y24*%
%MOIN*%
G70*
G04*
G04 #@! TF.SameCoordinates,94A92F66-6131-4E5E-9460-D235825817E1*
G04*
G04*
G04 #@! TF.FilePolarity,Positive*
G04*
G01*
G75*
%ADD19R,0.0340X0.0318*%
%ADD20R,0.0984X0.1496*%
%ADD21R,0.0669X0.0860*%
%ADD22R,0.0315X0.0354*%
%ADD23R,0.0318X0.0340*%
%ADD24R,0.0787X0.0236*%
%ADD25R,0.1500X0.1701*%
%ADD26O,0.0226X0.0802*%
%ADD27R,0.0874X0.0580*%
%ADD28O,0.0400X0.1200*%
%ADD29R,0.0354X0.0315*%
%ADD30R,0.0315X0.0315*%
%ADD31R,0.0421X0.0209*%
%ADD32O,0.0138X0.0500*%
%ADD33O,0.0500X0.0138*%
%ADD34R,0.0866X0.0866*%
%ADD35R,0.0472X0.0551*%
%ADD36R,0.1361X0.0505*%
%ADD37R,0.0394X0.0217*%
%ADD38R,0.0800X0.0500*%
%ADD39R,0.0315X0.0315*%
%ADD40R,0.1200X0.0600*%
%ADD41R,0.0580X0.0874*%
%ADD42O,0.0945X0.0226*%
G36*
X45370Y49227D02*
Y49029D01*
X45254Y48921D01*
X45146D01*
X45030Y49029D01*
Y49227D01*
X45055Y49252D01*
X45345D01*
X45370Y49227D01*
D02*
G37*
G36*
X35328Y48880D02*
Y48682D01*
X35213Y48574D01*
X35104D01*
X34988Y48682D01*
Y48880D01*
X35014Y48905D01*
X35303D01*
X35328Y48880D01*
D02*
G37*
G36*
X39570Y48749D02*
Y48633D01*
X39454Y48474D01*
X39346D01*
X39230Y48633D01*
Y48749D01*
X39255Y48774D01*
X39545D01*
X39570Y48749D01*
D02*
G37*
G36*
X45370Y48565D02*
Y48366D01*
X45345Y48341D01*
X45055D01*
X45030Y48366D01*
Y48565D01*
X45146Y48673D01*
X45254D01*
X45370Y48565D01*
D02*
G37*
G36*
X35328Y48218D02*
Y48020D01*
X35303Y47995D01*
X35014D01*
X34988Y48020D01*
Y48218D01*
X35104Y48326D01*
X35213D01*
X35328Y48218D01*
D02*
G37*
G36*
X39570Y48067D02*
Y47951D01*
X39545Y47926D01*
X39255D01*
X39230Y47951D01*
Y48067D01*
X39346Y48226D01*
X39454D01*
X39570Y48067D01*
D02*
G37*
G36*
X45918Y47945D02*
Y47655D01*
X45893Y47630D01*
X45777D01*
X45618Y47746D01*
Y47854D01*
X45777Y47970D01*
X45893D01*
X45918Y47945D01*
D02*
G37*
G36*
X45370Y47854D02*
Y47746D01*
X45211Y47630D01*
X45095D01*
X45070Y47655D01*
Y47945D01*
X45095Y47970D01*
X45211D01*
X45370Y47854D01*
D02*
G37*
G36*
X39520Y47399D02*
Y47283D01*
X39404Y47124D01*
X39296D01*
X39180Y47283D01*
Y47399D01*
X39205Y47424D01*
X39495D01*
X39520Y47399D01*
D02*
G37*
G36*
X35370Y47299D02*
Y47183D01*
X35254Y47024D01*
X35146D01*
X35030Y47183D01*
Y47299D01*
X35055Y47324D01*
X35345D01*
X35370Y47299D01*
D02*
G37*
G36*
X45955Y47245D02*
Y46955D01*
X45930Y46930D01*
X45732D01*
X45624Y47046D01*
Y47154D01*
X45732Y47270D01*
X45930D01*
X45955Y47245D01*
D02*
G37*
G36*
X45376Y47154D02*
Y47046D01*
X45268Y46930D01*
X45070D01*
X45045Y46955D01*
Y47245D01*
X45070Y47270D01*
X45268D01*
X45376Y47154D01*
D02*
G37*
G36*
X39520Y46717D02*
Y46601D01*
X39495Y46576D01*
X39205D01*
X39180Y46601D01*
Y46717D01*
X39296Y46876D01*
X39404D01*
X39520Y46717D01*
D02*
G37*
G36*
X35370Y46617D02*
Y46501D01*
X35345Y46476D01*
X35055D01*
X35030Y46501D01*
Y46617D01*
X35146Y46776D01*
X35254D01*
X35370Y46617D01*
D02*
G37*
G36*
X45924Y46595D02*
Y46305D01*
X45899Y46280D01*
X45783D01*
X45624Y46396D01*
Y46504D01*
X45783Y46620D01*
X45899D01*
X45924Y46595D01*
D02*
G37*
G36*
X45376Y46504D02*
Y46396D01*
X45217Y46280D01*
X45101D01*
X45076Y46305D01*
Y46595D01*
X45101Y46620D01*
X45217D01*
X45376Y46504D01*
D02*
G37*
G36*
X45420Y45780D02*
Y45582D01*
X45304Y45474D01*
X45196D01*
X45080Y45582D01*
Y45780D01*
X45105Y45805D01*
X45395D01*
X45420Y45780D01*
D02*
G37*
G36*
X39524Y45545D02*
Y45255D01*
X39499Y45230D01*
X39383D01*
X39224Y45346D01*
Y45454D01*
X39383Y45570D01*
X39499D01*
X39524Y45545D01*
D02*
G37*
G36*
X38976Y45454D02*
Y45346D01*
X38817Y45230D01*
X38701D01*
X38676Y45255D01*
Y45545D01*
X38701Y45570D01*
X38817D01*
X38976Y45454D01*
D02*
G37*
G36*
X25655Y45395D02*
Y45105D01*
X25630Y45080D01*
X25432D01*
X25324Y45196D01*
Y45304D01*
X25432Y45420D01*
X25630D01*
X25655Y45395D01*
D02*
G37*
G36*
X25076Y45304D02*
Y45196D01*
X24968Y45080D01*
X24770D01*
X24745Y45105D01*
Y45395D01*
X24770Y45420D01*
X24968D01*
X25076Y45304D01*
D02*
G37*
G36*
X45420Y45118D02*
Y44920D01*
X45395Y44895D01*
X45105D01*
X45080Y44920D01*
Y45118D01*
X45196Y45226D01*
X45304D01*
X45420Y45118D01*
D02*
G37*
G36*
X39555Y44895D02*
Y44605D01*
X39530Y44580D01*
X39332D01*
X39224Y44696D01*
Y44804D01*
X39332Y44920D01*
X39530D01*
X39555Y44895D01*
D02*
G37*
G36*
X38976Y44804D02*
Y44696D01*
X38868Y44580D01*
X38670D01*
X38645Y44605D01*
Y44895D01*
X38670Y44920D01*
X38868D01*
X38976Y44804D01*
D02*
G37*
G36*
X25624Y44645D02*
Y44355D01*
X25599Y44330D01*
X25483D01*
X25324Y44446D01*
Y44554D01*
X25483Y44670D01*
X25599D01*
X25624Y44645D01*
D02*
G37*
G36*
X25076Y44554D02*
Y44446D01*
X24917Y44330D01*
X24801D01*
X24776Y44355D01*
Y44645D01*
X24801Y44670D01*
X24917D01*
X25076Y44554D01*
D02*
G37*
G36*
X35368Y44099D02*
Y43983D01*
X35252Y43824D01*
X35143D01*
X35028Y43983D01*
Y44099D01*
X35053Y44124D01*
X35343D01*
X35368Y44099D01*
D02*
G37*
G36*
X39424Y43945D02*
Y43655D01*
X39399Y43630D01*
X39283D01*
X39124Y43746D01*
Y43854D01*
X39283Y43970D01*
X39399D01*
X39424Y43945D01*
D02*
G37*
G36*
X38876Y43854D02*
Y43746D01*
X38717Y43630D01*
X38601D01*
X38576Y43655D01*
Y43945D01*
X38601Y43970D01*
X38717D01*
X38876Y43854D01*
D02*
G37*
G36*
X45920Y43930D02*
Y43732D01*
X45804Y43624D01*
X45696D01*
X45580Y43732D01*
Y43930D01*
X45605Y43955D01*
X45895D01*
X45920Y43930D01*
D02*
G37*
G36*
X45320D02*
Y43732D01*
X45204Y43624D01*
X45096D01*
X44980Y43732D01*
Y43930D01*
X45005Y43955D01*
X45295D01*
X45320Y43930D01*
D02*
G37*
G36*
X35368Y43417D02*
Y43301D01*
X35343Y43276D01*
X35053D01*
X35028Y43301D01*
Y43417D01*
X35143Y43576D01*
X35252D01*
X35368Y43417D01*
D02*
G37*
G36*
X45920Y43268D02*
Y43070D01*
X45895Y43045D01*
X45605D01*
X45580Y43070D01*
Y43268D01*
X45696Y43376D01*
X45804D01*
X45920Y43268D01*
D02*
G37*
G36*
X45320D02*
Y43070D01*
X45295Y43045D01*
X45005D01*
X44980Y43070D01*
Y43268D01*
X45096Y43376D01*
X45204D01*
X45320Y43268D01*
D02*
G37*
G36*
X30222Y43249D02*
Y43133D01*
X30107Y42974D01*
X29998D01*
X29882Y43133D01*
Y43249D01*
X29907Y43274D01*
X30197D01*
X30222Y43249D01*
D02*
G37*
G36*
X39424Y43195D02*
Y42905D01*
X39399Y42880D01*
X39283D01*
X39124Y42996D01*
Y43104D01*
X39283Y43220D01*
X39399D01*
X39424Y43195D01*
D02*
G37*
G36*
X38876Y43104D02*
Y42996D01*
X38717Y42880D01*
X38601D01*
X38576Y42905D01*
Y43195D01*
X38601Y43220D01*
X38717D01*
X38876Y43104D01*
D02*
G37*
G36*
X29074Y43145D02*
Y42855D01*
X29049Y42830D01*
X28933D01*
X28774Y42946D01*
Y43054D01*
X28933Y43170D01*
X29049D01*
X29074Y43145D01*
D02*
G37*
G36*
X28526Y43054D02*
Y42946D01*
X28367Y42830D01*
X28251D01*
X28226Y42855D01*
Y43145D01*
X28251Y43170D01*
X28367D01*
X28526Y43054D01*
D02*
G37*
G36*
X27730Y43220D02*
Y42794D01*
X27691Y42755D01*
X27321D01*
X27281Y42794D01*
Y42887D01*
X27242Y42926D01*
X26858D01*
X26819Y42887D01*
Y42794D01*
X26779Y42755D01*
X26409D01*
X26370Y42794D01*
Y43220D01*
X26409Y43260D01*
X27691D01*
X27730Y43220D01*
D02*
G37*
G36*
X54270Y42780D02*
Y42582D01*
X54154Y42474D01*
X54046D01*
X53930Y42582D01*
Y42780D01*
X53955Y42805D01*
X54245D01*
X54270Y42780D01*
D02*
G37*
G36*
X53570D02*
Y42582D01*
X53454Y42474D01*
X53346D01*
X53230Y42582D01*
Y42780D01*
X53255Y42805D01*
X53545D01*
X53570Y42780D01*
D02*
G37*
G36*
X30222Y42567D02*
Y42451D01*
X30197Y42426D01*
X29907D01*
X29882Y42451D01*
Y42567D01*
X29998Y42726D01*
X30107D01*
X30222Y42567D01*
D02*
G37*
G36*
X52128Y42706D02*
Y42417D01*
X52102Y42392D01*
X51904D01*
X51796Y42507D01*
Y42616D01*
X51904Y42732D01*
X52102D01*
X52128Y42706D01*
D02*
G37*
G36*
X51548Y42616D02*
Y42507D01*
X51440Y42392D01*
X51242D01*
X51217Y42417D01*
Y42706D01*
X51242Y42732D01*
X51440D01*
X51548Y42616D01*
D02*
G37*
G36*
X49678Y42706D02*
Y42417D01*
X49652Y42392D01*
X49454D01*
X49346Y42507D01*
Y42616D01*
X49454Y42732D01*
X49652D01*
X49678Y42706D01*
D02*
G37*
G36*
X49098Y42616D02*
Y42507D01*
X48990Y42392D01*
X48792D01*
X48767Y42417D01*
Y42706D01*
X48792Y42732D01*
X48990D01*
X49098Y42616D01*
D02*
G37*
G36*
X45924Y42595D02*
Y42305D01*
X45899Y42280D01*
X45783D01*
X45624Y42396D01*
Y42504D01*
X45783Y42620D01*
X45899D01*
X45924Y42595D01*
D02*
G37*
G36*
X45376Y42504D02*
Y42396D01*
X45217Y42280D01*
X45101D01*
X45076Y42305D01*
Y42595D01*
X45101Y42620D01*
X45217D01*
X45376Y42504D01*
D02*
G37*
G36*
X50642Y42461D02*
Y42344D01*
X50527Y42186D01*
X50418D01*
X50302Y42344D01*
Y42461D01*
X50327Y42486D01*
X50617D01*
X50642Y42461D01*
D02*
G37*
G36*
X39449Y42395D02*
Y42105D01*
X39424Y42080D01*
X39307D01*
X39148Y42196D01*
Y42304D01*
X39307Y42420D01*
X39424D01*
X39449Y42395D01*
D02*
G37*
G36*
X38900Y42304D02*
Y42196D01*
X38742Y42080D01*
X38625D01*
X38600Y42105D01*
Y42395D01*
X38625Y42420D01*
X38742D01*
X38900Y42304D01*
D02*
G37*
G36*
X54270Y42118D02*
Y41920D01*
X54245Y41895D01*
X53955D01*
X53930Y41920D01*
Y42118D01*
X54046Y42226D01*
X54154D01*
X54270Y42118D01*
D02*
G37*
G36*
X53570D02*
Y41920D01*
X53545Y41895D01*
X53255D01*
X53230Y41920D01*
Y42118D01*
X53346Y42226D01*
X53454D01*
X53570Y42118D01*
D02*
G37*
G36*
X35674Y42095D02*
Y41805D01*
X35649Y41780D01*
X35533D01*
X35374Y41896D01*
Y42004D01*
X35533Y42120D01*
X35649D01*
X35674Y42095D01*
D02*
G37*
G36*
X35126Y42004D02*
Y41896D01*
X34967Y41780D01*
X34851D01*
X34826Y41805D01*
Y42095D01*
X34851Y42120D01*
X34967D01*
X35126Y42004D01*
D02*
G37*
G36*
X52106Y41965D02*
Y41676D01*
X52081Y41650D01*
X51964D01*
X51806Y41766D01*
Y41875D01*
X51964Y41991D01*
X52081D01*
X52106Y41965D01*
D02*
G37*
G36*
X51558Y41875D02*
Y41766D01*
X51399Y41650D01*
X51283D01*
X51257Y41676D01*
Y41965D01*
X51283Y41991D01*
X51399D01*
X51558Y41875D01*
D02*
G37*
G36*
X49641Y41963D02*
Y41673D01*
X49616Y41648D01*
X49499D01*
X49340Y41764D01*
Y41873D01*
X49499Y41988D01*
X49616D01*
X49641Y41963D01*
D02*
G37*
G36*
X49092Y41873D02*
Y41764D01*
X48934Y41648D01*
X48817D01*
X48792Y41673D01*
Y41963D01*
X48817Y41988D01*
X48934D01*
X49092Y41873D01*
D02*
G37*
G36*
X50642Y41779D02*
Y41662D01*
X50617Y41637D01*
X50327D01*
X50302Y41662D01*
Y41779D01*
X50418Y41938D01*
X50527D01*
X50642Y41779D01*
D02*
G37*
G36*
X45955Y41845D02*
Y41555D01*
X45930Y41530D01*
X45732D01*
X45624Y41646D01*
Y41754D01*
X45732Y41870D01*
X45930D01*
X45955Y41845D01*
D02*
G37*
G36*
X45376Y41754D02*
Y41646D01*
X45268Y41530D01*
X45070D01*
X45045Y41555D01*
Y41845D01*
X45070Y41870D01*
X45268D01*
X45376Y41754D01*
D02*
G37*
G36*
X30220Y41799D02*
Y41683D01*
X30104Y41524D01*
X29996D01*
X29880Y41683D01*
Y41799D01*
X29905Y41824D01*
X30195D01*
X30220Y41799D01*
D02*
G37*
G36*
X39455Y41645D02*
Y41355D01*
X39430Y41330D01*
X39232D01*
X39124Y41446D01*
Y41554D01*
X39232Y41670D01*
X39430D01*
X39455Y41645D01*
D02*
G37*
G36*
X38876Y41554D02*
Y41446D01*
X38768Y41330D01*
X38570D01*
X38545Y41355D01*
Y41645D01*
X38570Y41670D01*
X38768D01*
X38876Y41554D01*
D02*
G37*
G36*
X35674Y41295D02*
Y41005D01*
X35649Y40980D01*
X35533D01*
X35374Y41096D01*
Y41204D01*
X35533Y41320D01*
X35649D01*
X35674Y41295D01*
D02*
G37*
G36*
X35126Y41204D02*
Y41096D01*
X34967Y40980D01*
X34851D01*
X34826Y41005D01*
Y41295D01*
X34851Y41320D01*
X34967D01*
X35126Y41204D01*
D02*
G37*
G36*
X30220Y41117D02*
Y41001D01*
X30195Y40976D01*
X29905D01*
X29880Y41001D01*
Y41117D01*
X29996Y41276D01*
X30104D01*
X30220Y41117D01*
D02*
G37*
G36*
X53242Y41098D02*
Y40900D01*
X53127Y40792D01*
X53018D01*
X52902Y40900D01*
Y41098D01*
X52927Y41123D01*
X53217D01*
X53242Y41098D01*
D02*
G37*
G36*
X48242D02*
Y40900D01*
X48127Y40792D01*
X48018D01*
X47902Y40900D01*
Y41098D01*
X47927Y41123D01*
X48217D01*
X48242Y41098D01*
D02*
G37*
G36*
X45924Y41045D02*
Y40755D01*
X45899Y40730D01*
X45783D01*
X45624Y40846D01*
Y40954D01*
X45783Y41070D01*
X45899D01*
X45924Y41045D01*
D02*
G37*
G36*
X45376Y40954D02*
Y40846D01*
X45217Y40730D01*
X45101D01*
X45076Y40755D01*
Y41045D01*
X45101Y41070D01*
X45217D01*
X45376Y40954D01*
D02*
G37*
G36*
X27730Y40806D02*
Y40380D01*
X27691Y40340D01*
X26409D01*
X26370Y40380D01*
Y40806D01*
X26409Y40845D01*
X26779D01*
X26819Y40806D01*
Y40713D01*
X26858Y40674D01*
X27242D01*
X27281Y40713D01*
Y40806D01*
X27321Y40845D01*
X27691D01*
X27730Y40806D01*
D02*
G37*
G36*
X29074Y40745D02*
Y40455D01*
X29049Y40430D01*
X28933D01*
X28774Y40546D01*
Y40654D01*
X28933Y40770D01*
X29049D01*
X29074Y40745D01*
D02*
G37*
G36*
X28526Y40654D02*
Y40546D01*
X28367Y40430D01*
X28251D01*
X28226Y40455D01*
Y40745D01*
X28251Y40770D01*
X28367D01*
X28526Y40654D01*
D02*
G37*
G36*
X53242Y40436D02*
Y40237D01*
X53217Y40212D01*
X52927D01*
X52902Y40237D01*
Y40436D01*
X53018Y40544D01*
X53127D01*
X53242Y40436D01*
D02*
G37*
G36*
X48242D02*
Y40237D01*
X48217Y40212D01*
X47927D01*
X47902Y40237D01*
Y40436D01*
X48018Y40544D01*
X48127D01*
X48242Y40436D01*
D02*
G37*
G36*
X53242Y39186D02*
Y38988D01*
X53127Y38880D01*
X53018D01*
X52902Y38988D01*
Y39186D01*
X52927Y39211D01*
X53217D01*
X53242Y39186D01*
D02*
G37*
G36*
X48242D02*
Y38988D01*
X48127Y38880D01*
X48018D01*
X47902Y38988D01*
Y39186D01*
X47927Y39211D01*
X48217D01*
X48242Y39186D01*
D02*
G37*
G36*
X53242Y38524D02*
Y38325D01*
X53217Y38300D01*
X52927D01*
X52902Y38325D01*
Y38524D01*
X53018Y38632D01*
X53127D01*
X53242Y38524D01*
D02*
G37*
G36*
X48242D02*
Y38325D01*
X48217Y38300D01*
X47927D01*
X47902Y38325D01*
Y38524D01*
X48018Y38632D01*
X48127D01*
X48242Y38524D01*
D02*
G37*
G36*
X39370Y37822D02*
Y37705D01*
X39254Y37547D01*
X39146D01*
X39030Y37705D01*
Y37822D01*
X39055Y37847D01*
X39345D01*
X39370Y37822D01*
D02*
G37*
G36*
X35020D02*
Y37705D01*
X34904Y37547D01*
X34796D01*
X34680Y37705D01*
Y37822D01*
X34705Y37847D01*
X34995D01*
X35020Y37822D01*
D02*
G37*
G36*
X30620D02*
Y37705D01*
X30504Y37547D01*
X30396D01*
X30280Y37705D01*
Y37822D01*
X30305Y37847D01*
X30595D01*
X30620Y37822D01*
D02*
G37*
G36*
X26470D02*
Y37705D01*
X26354Y37547D01*
X26246D01*
X26130Y37705D01*
Y37822D01*
X26155Y37847D01*
X26445D01*
X26470Y37822D01*
D02*
G37*
G36*
X22320Y37816D02*
Y37699D01*
X22204Y37541D01*
X22096D01*
X21980Y37699D01*
Y37816D01*
X22005Y37841D01*
X22295D01*
X22320Y37816D01*
D02*
G37*
G36*
X49635Y37756D02*
Y37467D01*
X49609Y37442D01*
X49493D01*
X49334Y37557D01*
Y37666D01*
X49493Y37782D01*
X49609D01*
X49635Y37756D01*
D02*
G37*
G36*
X49086Y37666D02*
Y37557D01*
X48928Y37442D01*
X48811D01*
X48786Y37467D01*
Y37756D01*
X48811Y37782D01*
X48928D01*
X49086Y37666D01*
D02*
G37*
G36*
X52112Y37754D02*
Y37465D01*
X52087Y37439D01*
X51970D01*
X51812Y37555D01*
Y37664D01*
X51970Y37780D01*
X52087D01*
X52112Y37754D01*
D02*
G37*
G36*
X51564Y37664D02*
Y37555D01*
X51405Y37439D01*
X51289D01*
X51263Y37465D01*
Y37754D01*
X51289Y37780D01*
X51405D01*
X51564Y37664D01*
D02*
G37*
G36*
X50642Y37711D02*
Y37594D01*
X50527Y37436D01*
X50418D01*
X50302Y37594D01*
Y37711D01*
X50327Y37736D01*
X50617D01*
X50642Y37711D01*
D02*
G37*
G36*
X39370Y37140D02*
Y37024D01*
X39345Y36998D01*
X39055D01*
X39030Y37024D01*
Y37140D01*
X39146Y37299D01*
X39254D01*
X39370Y37140D01*
D02*
G37*
G36*
X35020D02*
Y37024D01*
X34995Y36998D01*
X34705D01*
X34680Y37024D01*
Y37140D01*
X34796Y37299D01*
X34904D01*
X35020Y37140D01*
D02*
G37*
G36*
X30620D02*
Y37024D01*
X30595Y36998D01*
X30305D01*
X30280Y37024D01*
Y37140D01*
X30396Y37299D01*
X30504D01*
X30620Y37140D01*
D02*
G37*
G36*
X26470D02*
Y37024D01*
X26445Y36998D01*
X26155D01*
X26130Y37024D01*
Y37140D01*
X26246Y37299D01*
X26354D01*
X26470Y37140D01*
D02*
G37*
G36*
X22320Y37134D02*
Y37018D01*
X22295Y36992D01*
X22005D01*
X21980Y37018D01*
Y37134D01*
X22096Y37293D01*
X22204D01*
X22320Y37134D01*
D02*
G37*
G36*
X50642Y37029D02*
Y36912D01*
X50617Y36887D01*
X50327D01*
X50302Y36912D01*
Y37029D01*
X50418Y37188D01*
X50527D01*
X50642Y37029D01*
D02*
G37*
G36*
X52165Y37006D02*
Y36717D01*
X52140Y36692D01*
X51942D01*
X51834Y36807D01*
Y36916D01*
X51942Y37032D01*
X52140D01*
X52165Y37006D01*
D02*
G37*
G36*
X51586Y36916D02*
Y36807D01*
X51478Y36692D01*
X51280D01*
X51254Y36717D01*
Y37006D01*
X51280Y37032D01*
X51478D01*
X51586Y36916D01*
D02*
G37*
G36*
X49644Y37006D02*
Y36717D01*
X49618Y36692D01*
X49420D01*
X49312Y36807D01*
Y36916D01*
X49420Y37032D01*
X49618D01*
X49644Y37006D01*
D02*
G37*
G36*
X49064Y36916D02*
Y36807D01*
X48956Y36692D01*
X48758D01*
X48733Y36717D01*
Y37006D01*
X48758Y37032D01*
X48956D01*
X49064Y36916D01*
D02*
G37*
G36*
X39368Y36476D02*
Y36360D01*
X39252Y36201D01*
X39143D01*
X39028Y36360D01*
Y36476D01*
X39053Y36502D01*
X39343D01*
X39368Y36476D01*
D02*
G37*
G36*
X35018D02*
Y36360D01*
X34902Y36201D01*
X34793D01*
X34678Y36360D01*
Y36476D01*
X34703Y36502D01*
X34993D01*
X35018Y36476D01*
D02*
G37*
G36*
X30618D02*
Y36360D01*
X30502Y36201D01*
X30393D01*
X30278Y36360D01*
Y36476D01*
X30303Y36502D01*
X30593D01*
X30618Y36476D01*
D02*
G37*
G36*
X26468D02*
Y36360D01*
X26352Y36201D01*
X26243D01*
X26128Y36360D01*
Y36476D01*
X26153Y36502D01*
X26443D01*
X26468Y36476D01*
D02*
G37*
G36*
X52501Y36034D02*
Y35836D01*
X52385Y35728D01*
X52276D01*
X52160Y35836D01*
Y36034D01*
X52186Y36059D01*
X52475D01*
X52501Y36034D01*
D02*
G37*
G36*
X50940D02*
Y35836D01*
X50825Y35728D01*
X50716D01*
X50600Y35836D01*
Y36034D01*
X50625Y36059D01*
X50915D01*
X50940Y36034D01*
D02*
G37*
G36*
X49380D02*
Y35836D01*
X49265Y35728D01*
X49156D01*
X49040Y35836D01*
Y36034D01*
X49065Y36059D01*
X49355D01*
X49380Y36034D01*
D02*
G37*
G36*
X47820D02*
Y35836D01*
X47704Y35728D01*
X47596D01*
X47480Y35836D01*
Y36034D01*
X47505Y36059D01*
X47795D01*
X47820Y36034D01*
D02*
G37*
G36*
X53320Y35975D02*
Y35858D01*
X53204Y35700D01*
X53096D01*
X52980Y35858D01*
Y35975D01*
X53005Y36000D01*
X53295D01*
X53320Y35975D01*
D02*
G37*
G36*
X51760D02*
Y35858D01*
X51644Y35700D01*
X51535D01*
X51420Y35858D01*
Y35975D01*
X51445Y36000D01*
X51735D01*
X51760Y35975D01*
D02*
G37*
G36*
X50200D02*
Y35858D01*
X50084Y35700D01*
X49975D01*
X49860Y35858D01*
Y35975D01*
X49885Y36000D01*
X50175D01*
X50200Y35975D01*
D02*
G37*
G36*
X48640D02*
Y35858D01*
X48524Y35700D01*
X48415D01*
X48299Y35858D01*
Y35975D01*
X48325Y36000D01*
X48614D01*
X48640Y35975D01*
D02*
G37*
G36*
X39368Y35795D02*
Y35678D01*
X39343Y35653D01*
X39053D01*
X39028Y35678D01*
Y35795D01*
X39143Y35953D01*
X39252D01*
X39368Y35795D01*
D02*
G37*
G36*
X35018D02*
Y35678D01*
X34993Y35653D01*
X34703D01*
X34678Y35678D01*
Y35795D01*
X34793Y35953D01*
X34902D01*
X35018Y35795D01*
D02*
G37*
G36*
X30618D02*
Y35678D01*
X30593Y35653D01*
X30303D01*
X30278Y35678D01*
Y35795D01*
X30393Y35953D01*
X30502D01*
X30618Y35795D01*
D02*
G37*
G36*
X26468D02*
Y35678D01*
X26443Y35653D01*
X26153D01*
X26128Y35678D01*
Y35795D01*
X26243Y35953D01*
X26352D01*
X26468Y35795D01*
D02*
G37*
G36*
X53320Y35293D02*
Y35176D01*
X53295Y35151D01*
X53005D01*
X52980Y35176D01*
Y35293D01*
X53096Y35452D01*
X53204D01*
X53320Y35293D01*
D02*
G37*
G36*
X51760D02*
Y35176D01*
X51735Y35151D01*
X51445D01*
X51420Y35176D01*
Y35293D01*
X51535Y35452D01*
X51644D01*
X51760Y35293D01*
D02*
G37*
G36*
X50200D02*
Y35176D01*
X50175Y35151D01*
X49885D01*
X49860Y35176D01*
Y35293D01*
X49975Y35452D01*
X50084D01*
X50200Y35293D01*
D02*
G37*
G36*
X48640D02*
Y35176D01*
X48614Y35151D01*
X48325D01*
X48299Y35176D01*
Y35293D01*
X48415Y35452D01*
X48524D01*
X48640Y35293D01*
D02*
G37*
G36*
X52501Y35372D02*
Y35173D01*
X52475Y35148D01*
X52186D01*
X52160Y35173D01*
Y35372D01*
X52276Y35480D01*
X52385D01*
X52501Y35372D01*
D02*
G37*
G36*
X50940D02*
Y35173D01*
X50915Y35148D01*
X50625D01*
X50600Y35173D01*
Y35372D01*
X50716Y35480D01*
X50825D01*
X50940Y35372D01*
D02*
G37*
G36*
X49380D02*
Y35173D01*
X49355Y35148D01*
X49065D01*
X49040Y35173D01*
Y35372D01*
X49156Y35480D01*
X49265D01*
X49380Y35372D01*
D02*
G37*
G36*
X47820D02*
Y35173D01*
X47795Y35148D01*
X47505D01*
X47480Y35173D01*
Y35372D01*
X47596Y35480D01*
X47704D01*
X47820Y35372D01*
D02*
G37*
G36*
X54174Y34482D02*
Y34192D01*
X54149Y34167D01*
X54033D01*
X53874Y34283D01*
Y34391D01*
X54033Y34507D01*
X54149D01*
X54174Y34482D01*
D02*
G37*
G36*
X53626Y34391D02*
Y34283D01*
X53467Y34167D01*
X53351D01*
X53326Y34192D01*
Y34482D01*
X53351Y34507D01*
X53467D01*
X53626Y34391D01*
D02*
G37*
G36*
X47324Y34480D02*
Y34190D01*
X47299Y34165D01*
X47183D01*
X47024Y34280D01*
Y34389D01*
X47183Y34505D01*
X47299D01*
X47324Y34480D01*
D02*
G37*
G36*
X46776Y34389D02*
Y34280D01*
X46617Y34165D01*
X46501D01*
X46476Y34190D01*
Y34480D01*
X46501Y34505D01*
X46617D01*
X46776Y34389D01*
D02*
G37*
G36*
X29270Y34145D02*
Y33947D01*
X29154Y33839D01*
X29046D01*
X28930Y33947D01*
Y34145D01*
X28955Y34170D01*
X29245D01*
X29270Y34145D01*
D02*
G37*
G36*
X28309D02*
Y33855D01*
X28284Y33830D01*
X28085D01*
X27977Y33946D01*
Y34054D01*
X28085Y34170D01*
X28284D01*
X28309Y34145D01*
D02*
G37*
G36*
X27729Y34054D02*
Y33946D01*
X27621Y33830D01*
X27423D01*
X27398Y33855D01*
Y34145D01*
X27423Y34170D01*
X27621D01*
X27729Y34054D01*
D02*
G37*
G36*
X54174Y33696D02*
Y33406D01*
X54149Y33381D01*
X54033D01*
X53874Y33497D01*
Y33606D01*
X54033Y33721D01*
X54149D01*
X54174Y33696D01*
D02*
G37*
G36*
X53626Y33606D02*
Y33497D01*
X53467Y33381D01*
X53351D01*
X53326Y33406D01*
Y33696D01*
X53351Y33721D01*
X53467D01*
X53626Y33606D01*
D02*
G37*
G36*
X47324Y33694D02*
Y33404D01*
X47299Y33379D01*
X47183D01*
X47024Y33495D01*
Y33604D01*
X47183Y33719D01*
X47299D01*
X47324Y33694D01*
D02*
G37*
G36*
X46776Y33604D02*
Y33495D01*
X46617Y33379D01*
X46501D01*
X46476Y33404D01*
Y33694D01*
X46501Y33719D01*
X46617D01*
X46776Y33604D01*
D02*
G37*
G36*
X29270Y33483D02*
Y33285D01*
X29245Y33259D01*
X28955D01*
X28930Y33285D01*
Y33483D01*
X29046Y33591D01*
X29154D01*
X29270Y33483D01*
D02*
G37*
G36*
X54174Y32910D02*
Y32621D01*
X54149Y32595D01*
X54033D01*
X53874Y32711D01*
Y32820D01*
X54033Y32936D01*
X54149D01*
X54174Y32910D01*
D02*
G37*
G36*
X53626Y32820D02*
Y32711D01*
X53467Y32595D01*
X53351D01*
X53326Y32621D01*
Y32910D01*
X53351Y32936D01*
X53467D01*
X53626Y32820D01*
D02*
G37*
G36*
X47324Y32908D02*
Y32618D01*
X47299Y32593D01*
X47183D01*
X47024Y32709D01*
Y32818D01*
X47183Y32933D01*
X47299D01*
X47324Y32908D01*
D02*
G37*
G36*
X46776Y32818D02*
Y32709D01*
X46617Y32593D01*
X46501D01*
X46476Y32618D01*
Y32908D01*
X46501Y32933D01*
X46617D01*
X46776Y32818D01*
D02*
G37*
G36*
X54174Y32125D02*
Y31835D01*
X54149Y31810D01*
X54033D01*
X53874Y31925D01*
Y32034D01*
X54033Y32150D01*
X54149D01*
X54174Y32125D01*
D02*
G37*
G36*
X53626Y32034D02*
Y31925D01*
X53467Y31810D01*
X53351D01*
X53326Y31835D01*
Y32125D01*
X53351Y32150D01*
X53467D01*
X53626Y32034D01*
D02*
G37*
G36*
X47324Y32123D02*
Y31833D01*
X47299Y31808D01*
X47183D01*
X47024Y31923D01*
Y32032D01*
X47183Y32148D01*
X47299D01*
X47324Y32123D01*
D02*
G37*
G36*
X46776Y32032D02*
Y31923D01*
X46617Y31808D01*
X46501D01*
X46476Y31833D01*
Y32123D01*
X46501Y32148D01*
X46617D01*
X46776Y32032D01*
D02*
G37*
G36*
X27970Y31584D02*
Y31386D01*
X27854Y31278D01*
X27746D01*
X27630Y31386D01*
Y31584D01*
X27655Y31609D01*
X27945D01*
X27970Y31584D01*
D02*
G37*
G36*
X22920D02*
Y31386D01*
X22804Y31278D01*
X22696D01*
X22580Y31386D01*
Y31584D01*
X22605Y31609D01*
X22895D01*
X22920Y31584D01*
D02*
G37*
G36*
X28770Y31525D02*
Y31408D01*
X28654Y31250D01*
X28546D01*
X28430Y31408D01*
Y31525D01*
X28455Y31550D01*
X28745D01*
X28770Y31525D01*
D02*
G37*
G36*
X23720D02*
Y31408D01*
X23604Y31250D01*
X23496D01*
X23380Y31408D01*
Y31525D01*
X23405Y31550D01*
X23695D01*
X23720Y31525D01*
D02*
G37*
G36*
X54183Y31297D02*
Y31008D01*
X54158Y30982D01*
X53960D01*
X53852Y31098D01*
Y31207D01*
X53960Y31323D01*
X54158D01*
X54183Y31297D01*
D02*
G37*
G36*
X53604Y31207D02*
Y31098D01*
X53496Y30982D01*
X53298D01*
X53273Y31008D01*
Y31297D01*
X53298Y31323D01*
X53496D01*
X53604Y31207D01*
D02*
G37*
G36*
X47327Y31297D02*
Y31008D01*
X47302Y30982D01*
X47104D01*
X46996Y31098D01*
Y31207D01*
X47104Y31323D01*
X47302D01*
X47327Y31297D01*
D02*
G37*
G36*
X46748Y31207D02*
Y31098D01*
X46640Y30982D01*
X46442D01*
X46417Y31008D01*
Y31297D01*
X46442Y31323D01*
X46640D01*
X46748Y31207D01*
D02*
G37*
G36*
X28770Y30843D02*
Y30726D01*
X28745Y30701D01*
X28455D01*
X28430Y30726D01*
Y30843D01*
X28546Y31002D01*
X28654D01*
X28770Y30843D01*
D02*
G37*
G36*
X23720D02*
Y30726D01*
X23695Y30701D01*
X23405D01*
X23380Y30726D01*
Y30843D01*
X23496Y31002D01*
X23604D01*
X23720Y30843D01*
D02*
G37*
G36*
X27970Y30922D02*
Y30723D01*
X27945Y30698D01*
X27655D01*
X27630Y30723D01*
Y30922D01*
X27746Y31030D01*
X27854D01*
X27970Y30922D01*
D02*
G37*
G36*
X22920D02*
Y30723D01*
X22895Y30698D01*
X22605D01*
X22580Y30723D01*
Y30922D01*
X22696Y31030D01*
X22804D01*
X22920Y30922D01*
D02*
G37*
G36*
X40920Y30680D02*
Y30482D01*
X40804Y30374D01*
X40696D01*
X40580Y30482D01*
Y30680D01*
X40605Y30705D01*
X40895D01*
X40920Y30680D01*
D02*
G37*
G36*
X40245D02*
Y30482D01*
X40129Y30374D01*
X40021D01*
X39905Y30482D01*
Y30680D01*
X39930Y30705D01*
X40220D01*
X40245Y30680D01*
D02*
G37*
G36*
X39570D02*
Y30482D01*
X39454Y30374D01*
X39346D01*
X39230Y30482D01*
Y30680D01*
X39255Y30705D01*
X39545D01*
X39570Y30680D01*
D02*
G37*
G36*
X54183Y30512D02*
Y30222D01*
X54158Y30197D01*
X53960D01*
X53852Y30312D01*
Y30421D01*
X53960Y30537D01*
X54158D01*
X54183Y30512D01*
D02*
G37*
G36*
X53604Y30421D02*
Y30312D01*
X53496Y30197D01*
X53298D01*
X53273Y30222D01*
Y30512D01*
X53298Y30537D01*
X53496D01*
X53604Y30421D01*
D02*
G37*
G36*
X47327Y30512D02*
Y30222D01*
X47302Y30197D01*
X47104D01*
X46996Y30312D01*
Y30421D01*
X47104Y30537D01*
X47302D01*
X47327Y30512D01*
D02*
G37*
G36*
X46748Y30421D02*
Y30312D01*
X46640Y30197D01*
X46442D01*
X46417Y30222D01*
Y30512D01*
X46442Y30537D01*
X46640D01*
X46748Y30421D01*
D02*
G37*
G36*
X40920Y30018D02*
Y29820D01*
X40895Y29795D01*
X40605D01*
X40580Y29820D01*
Y30018D01*
X40696Y30126D01*
X40804D01*
X40920Y30018D01*
D02*
G37*
G36*
X40245D02*
Y29820D01*
X40220Y29795D01*
X39930D01*
X39905Y29820D01*
Y30018D01*
X40021Y30126D01*
X40129D01*
X40245Y30018D01*
D02*
G37*
G36*
X39570D02*
Y29820D01*
X39545Y29795D01*
X39255D01*
X39230Y29820D01*
Y30018D01*
X39346Y30126D01*
X39454D01*
X39570Y30018D01*
D02*
G37*
G36*
X54180Y29765D02*
Y29476D01*
X54155Y29450D01*
X54039D01*
X53880Y29566D01*
Y29675D01*
X54039Y29791D01*
X54155D01*
X54180Y29765D01*
D02*
G37*
G36*
X53632Y29675D02*
Y29566D01*
X53473Y29450D01*
X53357D01*
X53332Y29476D01*
Y29765D01*
X53357Y29791D01*
X53473D01*
X53632Y29675D01*
D02*
G37*
G36*
X47324Y29765D02*
Y29476D01*
X47299Y29450D01*
X47183D01*
X47024Y29566D01*
Y29675D01*
X47183Y29791D01*
X47299D01*
X47324Y29765D01*
D02*
G37*
G36*
X46776Y29675D02*
Y29566D01*
X46617Y29450D01*
X46501D01*
X46476Y29476D01*
Y29765D01*
X46501Y29791D01*
X46617D01*
X46776Y29675D01*
D02*
G37*
G36*
X38370Y27280D02*
Y27082D01*
X38254Y26974D01*
X38146D01*
X38030Y27082D01*
Y27280D01*
X38055Y27305D01*
X38345D01*
X38370Y27280D01*
D02*
G37*
G36*
Y26618D02*
Y26420D01*
X38345Y26395D01*
X38055D01*
X38030Y26420D01*
Y26618D01*
X38146Y26726D01*
X38254D01*
X38370Y26618D01*
D02*
G37*
G36*
Y16530D02*
Y16332D01*
X38254Y16224D01*
X38146D01*
X38030Y16332D01*
Y16530D01*
X38055Y16555D01*
X38345D01*
X38370Y16530D01*
D02*
G37*
G36*
Y15868D02*
Y15670D01*
X38345Y15645D01*
X38055D01*
X38030Y15670D01*
Y15868D01*
X38146Y15976D01*
X38254D01*
X38370Y15868D01*
D02*
G37*
G36*
X42860Y13650D02*
Y13452D01*
X42744Y13344D01*
X42635D01*
X42520Y13452D01*
Y13650D01*
X42545Y13675D01*
X42835D01*
X42860Y13650D01*
D02*
G37*
G36*
X41864D02*
Y13452D01*
X41749Y13344D01*
X41640D01*
X41524Y13452D01*
Y13650D01*
X41550Y13675D01*
X41839D01*
X41864Y13650D01*
D02*
G37*
G36*
X40869D02*
Y13452D01*
X40753Y13344D01*
X40644D01*
X40529Y13452D01*
Y13650D01*
X40554Y13675D01*
X40844D01*
X40869Y13650D01*
D02*
G37*
G36*
X39873D02*
Y13452D01*
X39758Y13344D01*
X39649D01*
X39533Y13452D01*
Y13650D01*
X39558Y13675D01*
X39848D01*
X39873Y13650D01*
D02*
G37*
G36*
X38878D02*
Y13452D01*
X38762Y13344D01*
X38653D01*
X38538Y13452D01*
Y13650D01*
X38563Y13675D01*
X38853D01*
X38878Y13650D01*
D02*
G37*
G36*
X37882D02*
Y13452D01*
X37767Y13344D01*
X37658D01*
X37542Y13452D01*
Y13650D01*
X37567Y13675D01*
X37857D01*
X37882Y13650D01*
D02*
G37*
G36*
X36887D02*
Y13452D01*
X36771Y13344D01*
X36662D01*
X36547Y13452D01*
Y13650D01*
X36572Y13675D01*
X36862D01*
X36887Y13650D01*
D02*
G37*
G36*
X35891D02*
Y13452D01*
X35776Y13344D01*
X35667D01*
X35551Y13452D01*
Y13650D01*
X35576Y13675D01*
X35866D01*
X35891Y13650D01*
D02*
G37*
G36*
X34896D02*
Y13452D01*
X34780Y13344D01*
X34671D01*
X34556Y13452D01*
Y13650D01*
X34581Y13675D01*
X34871D01*
X34896Y13650D01*
D02*
G37*
G36*
X33900D02*
Y13452D01*
X33785Y13344D01*
X33676D01*
X33560Y13452D01*
Y13650D01*
X33585Y13675D01*
X33875D01*
X33900Y13650D01*
D02*
G37*
G36*
X42860Y12988D02*
Y12790D01*
X42835Y12765D01*
X42545D01*
X42520Y12790D01*
Y12988D01*
X42635Y13096D01*
X42744D01*
X42860Y12988D01*
D02*
G37*
G36*
X41864D02*
Y12790D01*
X41839Y12765D01*
X41550D01*
X41524Y12790D01*
Y12988D01*
X41640Y13096D01*
X41749D01*
X41864Y12988D01*
D02*
G37*
G36*
X40869D02*
Y12790D01*
X40844Y12765D01*
X40554D01*
X40529Y12790D01*
Y12988D01*
X40644Y13096D01*
X40753D01*
X40869Y12988D01*
D02*
G37*
G36*
X39873D02*
Y12790D01*
X39848Y12765D01*
X39558D01*
X39533Y12790D01*
Y12988D01*
X39649Y13096D01*
X39758D01*
X39873Y12988D01*
D02*
G37*
G36*
X38878D02*
Y12790D01*
X38853Y12765D01*
X38563D01*
X38538Y12790D01*
Y12988D01*
X38653Y13096D01*
X38762D01*
X38878Y12988D01*
D02*
G37*
G36*
X37882D02*
Y12790D01*
X37857Y12765D01*
X37567D01*
X37542Y12790D01*
Y12988D01*
X37658Y13096D01*
X37767D01*
X37882Y12988D01*
D02*
G37*
G36*
X36887D02*
Y12790D01*
X36862Y12765D01*
X36572D01*
X36547Y12790D01*
Y12988D01*
X36662Y13096D01*
X36771D01*
X36887Y12988D01*
D02*
G37*
G36*
X35891D02*
Y12790D01*
X35866Y12765D01*
X35576D01*
X35551Y12790D01*
Y12988D01*
X35667Y13096D01*
X35776D01*
X35891Y12988D01*
D02*
G37*
G36*
X34896D02*
Y12790D01*
X34871Y12765D01*
X34581D01*
X34556Y12790D01*
Y12988D01*
X34671Y13096D01*
X34780D01*
X34896Y12988D01*
D02*
G37*
G36*
X33900D02*
Y12790D01*
X33875Y12765D01*
X33585D01*
X33560Y12790D01*
Y12988D01*
X33676Y13096D01*
X33785D01*
X33900Y12988D01*
D02*
G37*
D19*
X38200Y15803D02*
D03*
Y16397D02*
D03*
Y26553D02*
D03*
Y27147D02*
D03*
X40075Y29953D02*
D03*
Y30547D02*
D03*
X39400Y29953D02*
D03*
Y30547D02*
D03*
X42690Y12923D02*
D03*
Y13517D02*
D03*
X39703Y12923D02*
D03*
Y13517D02*
D03*
X38708Y12923D02*
D03*
Y13517D02*
D03*
X41694Y12923D02*
D03*
Y13517D02*
D03*
X40699Y12923D02*
D03*
Y13517D02*
D03*
X34726Y12923D02*
D03*
Y13517D02*
D03*
X33730Y12923D02*
D03*
Y13517D02*
D03*
X35721Y12923D02*
D03*
Y13517D02*
D03*
X37712Y12923D02*
D03*
Y13517D02*
D03*
X36717Y12923D02*
D03*
Y13517D02*
D03*
X29100Y34011D02*
D03*
Y33418D02*
D03*
X27800Y30857D02*
D03*
Y31450D02*
D03*
X22750Y30857D02*
D03*
Y31450D02*
D03*
X40750Y29953D02*
D03*
Y30547D02*
D03*
X35158Y48153D02*
D03*
Y48747D02*
D03*
X48072Y40371D02*
D03*
Y40964D02*
D03*
Y38459D02*
D03*
Y39052D02*
D03*
X53072Y40964D02*
D03*
Y40371D02*
D03*
Y39052D02*
D03*
Y38459D02*
D03*
X45150Y43203D02*
D03*
Y43797D02*
D03*
X45750Y43203D02*
D03*
Y43797D02*
D03*
X54100Y42647D02*
D03*
Y42053D02*
D03*
X53400D02*
D03*
Y42647D02*
D03*
X52330Y35307D02*
D03*
Y35900D02*
D03*
X50770Y35307D02*
D03*
Y35900D02*
D03*
X47650Y35307D02*
D03*
Y35900D02*
D03*
X49210Y35307D02*
D03*
Y35900D02*
D03*
X45250Y45053D02*
D03*
Y45647D02*
D03*
X45200Y48500D02*
D03*
Y49093D02*
D03*
D20*
X25552Y41900D02*
D03*
X23348D02*
D03*
X31798Y45300D02*
D03*
X34002D02*
D03*
D21*
X29000Y44084D02*
D03*
Y45816D02*
D03*
X30300Y44084D02*
D03*
Y45816D02*
D03*
X22150Y41034D02*
D03*
Y42766D02*
D03*
X31150Y43016D02*
D03*
Y41284D02*
D03*
X33900D02*
D03*
Y43016D02*
D03*
X32521D02*
D03*
Y41284D02*
D03*
D22*
X54032Y29620D02*
D03*
X53481D02*
D03*
X53474Y31980D02*
D03*
X54026D02*
D03*
X53474Y32766D02*
D03*
X54026D02*
D03*
X53474Y33551D02*
D03*
X54026D02*
D03*
X53474Y34337D02*
D03*
X54026D02*
D03*
X24924Y44500D02*
D03*
X25476D02*
D03*
X28374Y40600D02*
D03*
X28926D02*
D03*
X28374Y43000D02*
D03*
X28926D02*
D03*
X34974Y41950D02*
D03*
X35526D02*
D03*
X34974Y41150D02*
D03*
X35526D02*
D03*
X48941Y41818D02*
D03*
X49492D02*
D03*
X49486Y37612D02*
D03*
X48935D02*
D03*
X51957Y41820D02*
D03*
X51406D02*
D03*
X51412Y37609D02*
D03*
X51963D02*
D03*
X39300Y42250D02*
D03*
X38749D02*
D03*
X45224Y40900D02*
D03*
X45776D02*
D03*
X46624Y32763D02*
D03*
X47176D02*
D03*
X46624Y31978D02*
D03*
X47176D02*
D03*
X46624Y33549D02*
D03*
X47176D02*
D03*
X46624Y34335D02*
D03*
X47176D02*
D03*
X39276Y43050D02*
D03*
X38724D02*
D03*
X45776Y42450D02*
D03*
X45224D02*
D03*
X38724Y43800D02*
D03*
X39276D02*
D03*
X46624Y29620D02*
D03*
X47176D02*
D03*
X39376Y45400D02*
D03*
X38824D02*
D03*
X45224Y46450D02*
D03*
X45776D02*
D03*
X45769Y47800D02*
D03*
X45218D02*
D03*
D23*
X54025Y31152D02*
D03*
X53432D02*
D03*
X54025Y30367D02*
D03*
X53432D02*
D03*
X48926Y42562D02*
D03*
X49519D02*
D03*
X51969D02*
D03*
X51376D02*
D03*
X27557Y34000D02*
D03*
X28150D02*
D03*
X25497Y45250D02*
D03*
X24903D02*
D03*
X48892Y36862D02*
D03*
X49485D02*
D03*
X52006D02*
D03*
X51413D02*
D03*
X45797Y41700D02*
D03*
X45203D02*
D03*
X39297Y41500D02*
D03*
X38703D02*
D03*
X47169Y31152D02*
D03*
X46575D02*
D03*
X47169Y30367D02*
D03*
X46575D02*
D03*
X39397Y44750D02*
D03*
X38803D02*
D03*
X45797Y47100D02*
D03*
X45203D02*
D03*
D24*
X48500Y34150D02*
D03*
Y33650D02*
D03*
Y33150D02*
D03*
Y32650D02*
D03*
Y32150D02*
D03*
Y31650D02*
D03*
Y31150D02*
D03*
Y30650D02*
D03*
Y30150D02*
D03*
Y29650D02*
D03*
X52200Y29650D02*
D03*
Y30150D02*
D03*
Y30650D02*
D03*
Y31150D02*
D03*
Y31650D02*
D03*
Y32150D02*
D03*
Y32650D02*
D03*
Y33150D02*
D03*
Y33650D02*
D03*
Y34150D02*
D03*
D25*
X50350Y31900D02*
D03*
D26*
X49022Y38621D02*
D03*
X49522D02*
D03*
X50022D02*
D03*
X50522D02*
D03*
X51022D02*
D03*
X51522D02*
D03*
X52022D02*
D03*
X49022Y40802D02*
D03*
X49522D02*
D03*
X50022D02*
D03*
X50522D02*
D03*
X51022D02*
D03*
X51522D02*
D03*
X52022D02*
D03*
D27*
X44650Y38280D02*
D03*
Y39620D02*
D03*
X46000D02*
D03*
Y38280D02*
D03*
D28*
X28350Y35320D02*
D03*
Y37380D02*
D03*
X25700Y33280D02*
D03*
Y31220D02*
D03*
X24050Y37380D02*
D03*
Y35320D02*
D03*
X36950Y37380D02*
D03*
Y35320D02*
D03*
X32650D02*
D03*
Y37380D02*
D03*
X41250Y35320D02*
D03*
Y37380D02*
D03*
D29*
X26300Y37698D02*
D03*
Y37147D02*
D03*
X26298Y35802D02*
D03*
Y36353D02*
D03*
X28600Y31401D02*
D03*
Y30850D02*
D03*
X22150Y37692D02*
D03*
Y37141D02*
D03*
X23550Y31401D02*
D03*
Y30850D02*
D03*
X34848Y36353D02*
D03*
Y35802D02*
D03*
X34850Y37147D02*
D03*
Y37698D02*
D03*
X35200Y46624D02*
D03*
Y47176D02*
D03*
X35198Y43976D02*
D03*
Y43424D02*
D03*
X30050Y41676D02*
D03*
Y41124D02*
D03*
X30052Y42574D02*
D03*
Y43126D02*
D03*
X30450Y37147D02*
D03*
Y37698D02*
D03*
X30448Y36353D02*
D03*
Y35802D02*
D03*
X39198Y36353D02*
D03*
Y35802D02*
D03*
X39200Y37147D02*
D03*
Y37698D02*
D03*
X50472Y42337D02*
D03*
Y41786D02*
D03*
Y37036D02*
D03*
Y37587D02*
D03*
X39350Y47276D02*
D03*
Y46724D02*
D03*
X48470Y35851D02*
D03*
Y35300D02*
D03*
X53150Y35851D02*
D03*
Y35300D02*
D03*
X50030Y35851D02*
D03*
Y35300D02*
D03*
X51590Y35851D02*
D03*
Y35300D02*
D03*
X39400Y48626D02*
D03*
Y48074D02*
D03*
D30*
X41675Y25871D02*
D03*
X42305Y25874D02*
D03*
X41675Y24884D02*
D03*
X42305Y24886D02*
D03*
X41675Y23896D02*
D03*
X42305Y23899D02*
D03*
X41675Y22908D02*
D03*
X42305Y22911D02*
D03*
X41675Y21920D02*
D03*
X42305Y21923D02*
D03*
X41675Y20933D02*
D03*
X42305Y20935D02*
D03*
X41675Y19945D02*
D03*
X42305Y19948D02*
D03*
X41675Y18957D02*
D03*
X42305Y18960D02*
D03*
X41675Y17970D02*
D03*
X42305Y17972D02*
D03*
X41675Y16982D02*
D03*
X42305Y16985D02*
D03*
D31*
X28397Y32850D02*
D03*
X27503Y32476D02*
D03*
Y33224D02*
D03*
D32*
X23066Y44002D02*
D03*
X22810D02*
D03*
X23578D02*
D03*
X23322D02*
D03*
X23066Y45698D02*
D03*
X22810D02*
D03*
X23578D02*
D03*
X23322D02*
D03*
D33*
X22352Y45230D02*
D03*
Y44974D02*
D03*
Y44718D02*
D03*
Y44462D02*
D03*
X24048Y44460D02*
D03*
Y44716D02*
D03*
Y44972D02*
D03*
Y45228D02*
D03*
D34*
X23200Y44850D02*
D03*
D35*
X23201Y48600D02*
D03*
X24264D02*
D03*
D36*
X27050Y40593D02*
D03*
Y43007D02*
D03*
D37*
X35099Y45574D02*
D03*
Y45200D02*
D03*
Y44826D02*
D03*
X36201D02*
D03*
Y45200D02*
D03*
Y45574D02*
D03*
D38*
X40870Y24030D02*
D03*
Y22570D02*
D03*
Y25130D02*
D03*
X36130Y24030D02*
D03*
Y22570D02*
D03*
Y25130D02*
D03*
Y18820D02*
D03*
Y20280D02*
D03*
Y17720D02*
D03*
X40870Y18820D02*
D03*
Y20280D02*
D03*
Y17720D02*
D03*
D39*
X33769Y14425D02*
D03*
X33766Y15054D02*
D03*
X34756Y14425D02*
D03*
X34754Y15054D02*
D03*
X35744Y14425D02*
D03*
X35741Y15054D02*
D03*
X36732Y14425D02*
D03*
X36729Y15054D02*
D03*
X37720Y14425D02*
D03*
X37717Y15054D02*
D03*
X38707Y14425D02*
D03*
X38705Y15054D02*
D03*
X39695Y14425D02*
D03*
X39692Y15054D02*
D03*
X40683Y14425D02*
D03*
X40680Y15054D02*
D03*
X41670Y14425D02*
D03*
X41668Y15054D02*
D03*
X42658Y14425D02*
D03*
X42655Y15054D02*
D03*
D40*
X46650Y45750D02*
D03*
X49400Y45080D02*
D03*
Y47480D02*
D03*
X46650Y48500D02*
D03*
X49400Y48900D02*
D03*
X51200Y45750D02*
D03*
X53950Y45080D02*
D03*
Y47480D02*
D03*
X51200Y48500D02*
D03*
X53950Y48900D02*
D03*
D41*
X37770Y42250D02*
D03*
X36430D02*
D03*
Y43650D02*
D03*
X37770D02*
D03*
D42*
X40380Y44200D02*
D03*
Y43700D02*
D03*
Y43200D02*
D03*
Y42700D02*
D03*
Y42200D02*
D03*
Y41700D02*
D03*
Y41200D02*
D03*
Y40700D02*
D03*
X44120Y44200D02*
D03*
Y43700D02*
D03*
Y43200D02*
D03*
Y42700D02*
D03*
Y42200D02*
D03*
Y41700D02*
D03*
Y41200D02*
D03*
Y40700D02*
D03*
X40430Y48800D02*
D03*
Y48300D02*
D03*
Y47800D02*
D03*
Y47300D02*
D03*
Y46800D02*
D03*
Y46300D02*
D03*
Y45800D02*
D03*
Y45300D02*
D03*
X44170Y48800D02*
D03*
Y48300D02*
D03*
Y47800D02*
D03*
Y47300D02*
D03*
Y46800D02*
D03*
Y46300D02*
D03*
Y45800D02*
D03*
Y45300D02*
D03*
M02*
