M48
;Layer_Color=9474304
;FILE_FORMAT=2:4
INCH,LZ
;TYPE=PLATED
T2F00S00C0.0200
T3F00S00C0.0236
;TYPE=NON_PLATED
%
G90
G05
T02
G00X02433Y014425
M15
G01Y014675
M16
G00X02843Y014425
M15
G01Y014675
M16
G00X04815Y014425
M15
G01Y014675
M16
G00X05225Y014425
M15
G01Y014675
M16
G00X05168Y01853
M15
G01X05188
M16
G00X05089Y01853
M15
G01X05109
M16
G00X0501Y01853
M15
G01X0503
M16
G00X04931Y01853
M15
G01X04951
M16
G00X04852Y01853
M15
G01X04872
M16
G00X02786Y01853
M15
G01X02806
M16
G00X02707Y01853
M15
G01X02727
M16
G00X02628Y01853
M15
G01X02648
M16
G00X02549Y01853
M15
G01X02569
M16
G00X0247Y01853
M15
G01X0249
M16
T03
G00X022149Y047522
M15
G01Y047088
M16
G00X022149Y049096
M15
G01Y048781
M16
G00X025551Y049096
M15
G01Y048781
M16
G00X025551Y047522
M15
G01Y047088
M16
M17
M30
