G04*
G04 #@! TF.GenerationSoftware,Altium Limited,Altium Designer,20.2.5 (213)*
G04*
G04 Layer_Color=2752767*
%FSLAX24Y24*%
%MOIN*%
G70*
G04*
G04 #@! TF.SameCoordinates,94A92F66-6131-4E5E-9460-D235825817E1*
G04*
G04*
G04 #@! TF.FilePolarity,Positive*
G04*
G01*
G75*
%ADD146C,0.0020*%
%ADD147C,0.0027*%
%ADD148C,0.0013*%
D146*
X33915Y30055D02*
Y30215D01*
X34075D01*
Y30055D01*
X33915D01*
X32935Y28085D02*
Y28245D01*
X33095D01*
Y28085D01*
X32935D01*
X34905D02*
Y28245D01*
X35065D01*
Y28085D01*
X34905D01*
X30520Y29320D02*
Y29480D01*
X30680D01*
Y29320D01*
X30520D01*
X29520D02*
Y29480D01*
X29680D01*
Y29320D01*
X29520D01*
X28520D02*
Y29480D01*
X28680D01*
Y29320D01*
X28520D01*
X27520D02*
Y29480D01*
X27680D01*
Y29320D01*
X27520D01*
X26520D02*
Y29480D01*
X26680D01*
Y29320D01*
X26520D01*
X25520D02*
Y29480D01*
X25680D01*
Y29320D01*
X25520D01*
X24520D02*
Y29480D01*
X24680D01*
Y29320D01*
X24520D01*
X23520D02*
Y29480D01*
X23680D01*
Y29320D01*
X23520D01*
X22520D02*
Y29480D01*
X22680D01*
Y29320D01*
X22520D01*
X38305Y28085D02*
Y28245D01*
X38465D01*
Y28085D01*
X38305D01*
X36335D02*
Y28245D01*
X36495D01*
Y28085D01*
X36335D01*
X37315Y30055D02*
Y30215D01*
X37475D01*
Y30055D01*
X37315D01*
X50215Y27655D02*
Y27815D01*
X50375D01*
Y27655D01*
X50215D01*
X49235Y25685D02*
Y25845D01*
X49395D01*
Y25685D01*
X49235D01*
X51205D02*
Y25845D01*
X51365D01*
Y25685D01*
X51205D01*
X25551Y48859D02*
X25471Y49019D01*
X25631D01*
X25551Y48859D01*
X22149D02*
X22069Y49019D01*
X22229D01*
X22149Y48859D01*
X25551Y47225D02*
X25591Y47265D01*
X25631D01*
X25591Y47305D01*
X25631Y47345D01*
X25591D01*
X25551Y47385D01*
X25511Y47345D01*
X25471D01*
X25511Y47305D01*
X25471Y47265D01*
X25511D01*
X25551Y47225D01*
X22149D02*
X22189Y47265D01*
X22229D01*
X22189Y47305D01*
X22229Y47345D01*
X22189D01*
X22149Y47385D01*
X22109Y47345D01*
X22069D01*
X22109Y47305D01*
X22069Y47265D01*
X22109D01*
X22149Y47225D01*
X24912Y47418D02*
X24952Y47498D01*
X24912Y47578D01*
X24992Y47538D01*
X25072Y47578D01*
X25032Y47498D01*
X25072Y47418D01*
X24992Y47458D01*
X24912Y47418D01*
X22628Y47422D02*
X22668Y47502D01*
X22628Y47582D01*
X22708Y47542D01*
X22788Y47582D01*
X22748Y47502D01*
X22788Y47422D01*
X22708Y47462D01*
X22628Y47422D01*
X46455Y20297D02*
Y20257D01*
X46535D01*
Y20297D01*
X46575D01*
Y20377D01*
X46535D01*
Y20417D01*
X46455D01*
Y20377D01*
X46415D01*
Y20297D01*
X46455D01*
X47242D02*
Y20257D01*
X47322D01*
Y20297D01*
X47362D01*
Y20377D01*
X47322D01*
Y20417D01*
X47242D01*
Y20377D01*
X47202D01*
Y20297D01*
X47242D01*
X48029D02*
Y20257D01*
X48109D01*
Y20297D01*
X48149D01*
Y20377D01*
X48109D01*
Y20417D01*
X48029D01*
Y20377D01*
X47989D01*
Y20297D01*
X48029D01*
X48816D02*
Y20257D01*
X48896D01*
Y20297D01*
X48936D01*
Y20377D01*
X48896D01*
Y20417D01*
X48816D01*
Y20377D01*
X48776D01*
Y20297D01*
X48816D01*
X49603D02*
Y20257D01*
X49683D01*
Y20297D01*
X49723D01*
Y20377D01*
X49683D01*
Y20417D01*
X49603D01*
Y20377D01*
X49563D01*
Y20297D01*
X49603D01*
X50390D02*
Y20257D01*
X50470D01*
Y20297D01*
X50510D01*
Y20377D01*
X50470D01*
Y20417D01*
X50390D01*
Y20377D01*
X50350D01*
Y20297D01*
X50390D01*
X51177D02*
Y20257D01*
X51257D01*
Y20297D01*
X51297D01*
Y20377D01*
X51257D01*
Y20417D01*
X51177D01*
Y20377D01*
X51137D01*
Y20297D01*
X51177D01*
X51964D02*
Y20257D01*
X52044D01*
Y20297D01*
X52084D01*
Y20377D01*
X52044D01*
Y20417D01*
X51964D01*
Y20377D01*
X51924D01*
Y20297D01*
X51964D01*
X53538D02*
Y20257D01*
X53618D01*
Y20297D01*
X53658D01*
Y20377D01*
X53618D01*
Y20417D01*
X53538D01*
Y20377D01*
X53498D01*
Y20297D01*
X53538D01*
X52751D02*
Y20257D01*
X52831D01*
Y20297D01*
X52871D01*
Y20377D01*
X52831D01*
Y20417D01*
X52751D01*
Y20377D01*
X52711D01*
Y20297D01*
X52751D01*
X46455Y19510D02*
Y19470D01*
X46535D01*
Y19510D01*
X46575D01*
Y19590D01*
X46535D01*
Y19630D01*
X46455D01*
Y19590D01*
X46415D01*
Y19510D01*
X46455D01*
X47242D02*
Y19470D01*
X47322D01*
Y19510D01*
X47362D01*
Y19590D01*
X47322D01*
Y19630D01*
X47242D01*
Y19590D01*
X47202D01*
Y19510D01*
X47242D01*
X48029D02*
Y19470D01*
X48109D01*
Y19510D01*
X48149D01*
Y19590D01*
X48109D01*
Y19630D01*
X48029D01*
Y19590D01*
X47989D01*
Y19510D01*
X48029D01*
X48816D02*
Y19470D01*
X48896D01*
Y19510D01*
X48936D01*
Y19590D01*
X48896D01*
Y19630D01*
X48816D01*
Y19590D01*
X48776D01*
Y19510D01*
X48816D01*
X49603D02*
Y19470D01*
X49683D01*
Y19510D01*
X49723D01*
Y19590D01*
X49683D01*
Y19630D01*
X49603D01*
Y19590D01*
X49563D01*
Y19510D01*
X49603D01*
X50390D02*
Y19470D01*
X50470D01*
Y19510D01*
X50510D01*
Y19590D01*
X50470D01*
Y19630D01*
X50390D01*
Y19590D01*
X50350D01*
Y19510D01*
X50390D01*
X51177D02*
Y19470D01*
X51257D01*
Y19510D01*
X51297D01*
Y19590D01*
X51257D01*
Y19630D01*
X51177D01*
Y19590D01*
X51137D01*
Y19510D01*
X51177D01*
X51964D02*
Y19470D01*
X52044D01*
Y19510D01*
X52084D01*
Y19590D01*
X52044D01*
Y19630D01*
X51964D01*
Y19590D01*
X51924D01*
Y19510D01*
X51964D01*
X53538D02*
Y19470D01*
X53618D01*
Y19510D01*
X53658D01*
Y19590D01*
X53618D01*
Y19630D01*
X53538D01*
Y19590D01*
X53498D01*
Y19510D01*
X53538D01*
X52751D02*
Y19470D01*
X52831D01*
Y19510D01*
X52871D01*
Y19590D01*
X52831D01*
Y19630D01*
X52751D01*
Y19590D01*
X52711D01*
Y19510D01*
X52751D01*
X49330Y18450D02*
X49370D01*
X49410Y18490D01*
X49450Y18450D01*
X49490D01*
Y18490D01*
X49450Y18530D01*
X49490Y18570D01*
Y18610D01*
X49450D01*
X49410Y18570D01*
X49370Y18610D01*
X49330D01*
Y18570D01*
X49370Y18530D01*
X49330Y18490D01*
Y18450D01*
X50120D02*
X50160D01*
X50200Y18490D01*
X50240Y18450D01*
X50280D01*
Y18490D01*
X50240Y18530D01*
X50280Y18570D01*
Y18610D01*
X50240D01*
X50200Y18570D01*
X50160Y18610D01*
X50120D01*
Y18570D01*
X50160Y18530D01*
X50120Y18490D01*
Y18450D01*
X50910D02*
X50950D01*
X50990Y18490D01*
X51030Y18450D01*
X51070D01*
Y18490D01*
X51030Y18530D01*
X51070Y18570D01*
Y18610D01*
X51030D01*
X50990Y18570D01*
X50950Y18610D01*
X50910D01*
Y18570D01*
X50950Y18530D01*
X50910Y18490D01*
Y18450D01*
X51700D02*
X51740D01*
X51780Y18490D01*
X51820Y18450D01*
X51860D01*
Y18490D01*
X51820Y18530D01*
X51860Y18570D01*
Y18610D01*
X51820D01*
X51780Y18570D01*
X51740Y18610D01*
X51700D01*
Y18570D01*
X51740Y18530D01*
X51700Y18490D01*
Y18450D01*
X48540D02*
X48580D01*
X48620Y18490D01*
X48660Y18450D01*
X48700D01*
Y18490D01*
X48660Y18530D01*
X48700Y18570D01*
Y18610D01*
X48660D01*
X48620Y18570D01*
X48580Y18610D01*
X48540D01*
Y18570D01*
X48580Y18530D01*
X48540Y18490D01*
Y18450D01*
X52170Y14550D02*
X52250Y14630D01*
X52330Y14550D01*
X52250Y14470D01*
X52170Y14550D01*
X48070D02*
X48150Y14630D01*
X48230Y14550D01*
X48150Y14470D01*
X48070Y14550D01*
X29095Y19510D02*
Y19470D01*
X29174D01*
Y19510D01*
X29214D01*
Y19590D01*
X29174D01*
Y19630D01*
X29095D01*
Y19590D01*
X29055D01*
Y19510D01*
X29095D01*
X29881D02*
Y19470D01*
X29962D01*
Y19510D01*
X30001D01*
Y19590D01*
X29962D01*
Y19630D01*
X29881D01*
Y19590D01*
X29841D01*
Y19510D01*
X29881D01*
X28307D02*
Y19470D01*
X28387D01*
Y19510D01*
X28428D01*
Y19590D01*
X28387D01*
Y19630D01*
X28307D01*
Y19590D01*
X28268D01*
Y19510D01*
X28307D01*
X27520D02*
Y19470D01*
X27601D01*
Y19510D01*
X27641D01*
Y19590D01*
X27601D01*
Y19630D01*
X27520D01*
Y19590D01*
X27480D01*
Y19510D01*
X27520D01*
X26734D02*
Y19470D01*
X26813D01*
Y19510D01*
X26853D01*
Y19590D01*
X26813D01*
Y19630D01*
X26734D01*
Y19590D01*
X26693D01*
Y19510D01*
X26734D01*
X25947D02*
Y19470D01*
X26026D01*
Y19510D01*
X26067D01*
Y19590D01*
X26026D01*
Y19630D01*
X25947D01*
Y19590D01*
X25907D01*
Y19510D01*
X25947D01*
X25159D02*
Y19470D01*
X25240D01*
Y19510D01*
X25280D01*
Y19590D01*
X25240D01*
Y19630D01*
X25159D01*
Y19590D01*
X25120D01*
Y19510D01*
X25159D01*
X24372D02*
Y19470D01*
X24453D01*
Y19510D01*
X24492D01*
Y19590D01*
X24453D01*
Y19630D01*
X24372D01*
Y19590D01*
X24332D01*
Y19510D01*
X24372D01*
X23586D02*
Y19470D01*
X23665D01*
Y19510D01*
X23705D01*
Y19590D01*
X23665D01*
Y19630D01*
X23586D01*
Y19590D01*
X23545D01*
Y19510D01*
X23586D01*
X22799D02*
Y19470D01*
X22878D01*
Y19510D01*
X22919D01*
Y19590D01*
X22878D01*
Y19630D01*
X22799D01*
Y19590D01*
X22759D01*
Y19510D01*
X22799D01*
X29095Y20297D02*
Y20257D01*
X29174D01*
Y20297D01*
X29214D01*
Y20377D01*
X29174D01*
Y20417D01*
X29095D01*
Y20377D01*
X29055D01*
Y20297D01*
X29095D01*
X29881D02*
Y20257D01*
X29962D01*
Y20297D01*
X30001D01*
Y20377D01*
X29962D01*
Y20417D01*
X29881D01*
Y20377D01*
X29841D01*
Y20297D01*
X29881D01*
X28307D02*
Y20257D01*
X28387D01*
Y20297D01*
X28428D01*
Y20377D01*
X28387D01*
Y20417D01*
X28307D01*
Y20377D01*
X28268D01*
Y20297D01*
X28307D01*
X27520D02*
Y20257D01*
X27601D01*
Y20297D01*
X27641D01*
Y20377D01*
X27601D01*
Y20417D01*
X27520D01*
Y20377D01*
X27480D01*
Y20297D01*
X27520D01*
X26734D02*
Y20257D01*
X26813D01*
Y20297D01*
X26853D01*
Y20377D01*
X26813D01*
Y20417D01*
X26734D01*
Y20377D01*
X26693D01*
Y20297D01*
X26734D01*
X25947D02*
Y20257D01*
X26026D01*
Y20297D01*
X26067D01*
Y20377D01*
X26026D01*
Y20417D01*
X25947D01*
Y20377D01*
X25907D01*
Y20297D01*
X25947D01*
X25159D02*
Y20257D01*
X25240D01*
Y20297D01*
X25280D01*
Y20377D01*
X25240D01*
Y20417D01*
X25159D01*
Y20377D01*
X25120D01*
Y20297D01*
X25159D01*
X24372D02*
Y20257D01*
X24453D01*
Y20297D01*
X24492D01*
Y20377D01*
X24453D01*
Y20417D01*
X24372D01*
Y20377D01*
X24332D01*
Y20297D01*
X24372D01*
X23586D02*
Y20257D01*
X23665D01*
Y20297D01*
X23705D01*
Y20377D01*
X23665D01*
Y20417D01*
X23586D01*
Y20377D01*
X23545D01*
Y20297D01*
X23586D01*
X22799D02*
Y20257D01*
X22878D01*
Y20297D01*
X22919D01*
Y20377D01*
X22878D01*
Y20417D01*
X22799D01*
Y20377D01*
X22759D01*
Y20297D01*
X22799D01*
X24250Y14550D02*
X24330Y14630D01*
X24410Y14550D01*
X24330Y14470D01*
X24250Y14550D01*
X28350D02*
X28430Y14630D01*
X28510Y14550D01*
X28430Y14470D01*
X28350Y14550D01*
X24720Y18450D02*
X24760D01*
X24800Y18490D01*
X24840Y18450D01*
X24880D01*
Y18490D01*
X24840Y18530D01*
X24880Y18570D01*
Y18610D01*
X24840D01*
X24800Y18570D01*
X24760Y18610D01*
X24720D01*
Y18570D01*
X24760Y18530D01*
X24720Y18490D01*
Y18450D01*
X27880D02*
X27920D01*
X27960Y18490D01*
X28000Y18450D01*
X28040D01*
Y18490D01*
X28000Y18530D01*
X28040Y18570D01*
Y18610D01*
X28000D01*
X27960Y18570D01*
X27920Y18610D01*
X27880D01*
Y18570D01*
X27920Y18530D01*
X27880Y18490D01*
Y18450D01*
X27090D02*
X27130D01*
X27170Y18490D01*
X27210Y18450D01*
X27250D01*
Y18490D01*
X27210Y18530D01*
X27250Y18570D01*
Y18610D01*
X27210D01*
X27170Y18570D01*
X27130Y18610D01*
X27090D01*
Y18570D01*
X27130Y18530D01*
X27090Y18490D01*
Y18450D01*
X26300D02*
X26340D01*
X26380Y18490D01*
X26420Y18450D01*
X26460D01*
Y18490D01*
X26420Y18530D01*
X26460Y18570D01*
Y18610D01*
X26420D01*
X26380Y18570D01*
X26340Y18610D01*
X26300D01*
Y18570D01*
X26340Y18530D01*
X26300Y18490D01*
Y18450D01*
X25510D02*
X25550D01*
X25590Y18490D01*
X25630Y18450D01*
X25670D01*
Y18490D01*
X25630Y18530D01*
X25670Y18570D01*
Y18610D01*
X25630D01*
X25590Y18570D01*
X25550Y18610D01*
X25510D01*
Y18570D01*
X25550Y18530D01*
X25510Y18490D01*
Y18450D01*
X52020Y21370D02*
Y21530D01*
X52180D01*
Y21370D01*
X52020D01*
X52060Y21410D02*
Y21490D01*
X52140D01*
Y21410D01*
X52060D01*
X51020Y21370D02*
Y21530D01*
X51180D01*
Y21370D01*
X51020D01*
X51060Y21410D02*
Y21490D01*
X51140D01*
Y21410D01*
X51060D01*
X50020Y21370D02*
Y21530D01*
X50180D01*
Y21370D01*
X50020D01*
X50060Y21410D02*
Y21490D01*
X50140D01*
Y21410D01*
X50060D01*
X49020Y21370D02*
Y21530D01*
X49180D01*
Y21370D01*
X49020D01*
X49060Y21410D02*
Y21490D01*
X49140D01*
Y21410D01*
X49060D01*
X48020Y21370D02*
Y21530D01*
X48180D01*
Y21370D01*
X48020D01*
X48060Y21410D02*
Y21490D01*
X48140D01*
Y21410D01*
X48060D01*
X47020Y21370D02*
Y21530D01*
X47180D01*
Y21370D01*
X47020D01*
X47060Y21410D02*
Y21490D01*
X47140D01*
Y21410D01*
X47060D01*
X46020Y21370D02*
Y21530D01*
X46180D01*
Y21370D01*
X46020D01*
X46060Y21410D02*
Y21490D01*
X46140D01*
Y21410D01*
X46060D01*
X46020Y24370D02*
Y24530D01*
X46180D01*
Y24370D01*
X46020D01*
X46060Y24410D02*
Y24490D01*
X46140D01*
Y24410D01*
X46060D01*
X53020Y21370D02*
Y21530D01*
X53180D01*
Y21370D01*
X53020D01*
X53060Y21410D02*
Y21490D01*
X53140D01*
Y21410D01*
X53060D01*
X54020Y21370D02*
Y21530D01*
X54180D01*
Y21370D01*
X54020D01*
X54060Y21410D02*
Y21490D01*
X54140D01*
Y21410D01*
X54060D01*
X47020Y24370D02*
Y24530D01*
X47180D01*
Y24370D01*
X47020D01*
X47060Y24410D02*
Y24490D01*
X47140D01*
Y24410D01*
X47060D01*
X48020Y24370D02*
Y24530D01*
X48180D01*
Y24370D01*
X48020D01*
X48060Y24410D02*
Y24490D01*
X48140D01*
Y24410D01*
X48060D01*
X49020Y24370D02*
Y24530D01*
X49180D01*
Y24370D01*
X49020D01*
X49060Y24410D02*
Y24490D01*
X49140D01*
Y24410D01*
X49060D01*
X50020Y24370D02*
Y24530D01*
X50180D01*
Y24370D01*
X50020D01*
X50060Y24410D02*
Y24490D01*
X50140D01*
Y24410D01*
X50060D01*
X51020Y24370D02*
Y24530D01*
X51180D01*
Y24370D01*
X51020D01*
X51060Y24410D02*
Y24490D01*
X51140D01*
Y24410D01*
X51060D01*
X52020Y24370D02*
Y24530D01*
X52180D01*
Y24370D01*
X52020D01*
X52060Y24410D02*
Y24490D01*
X52140D01*
Y24410D01*
X52060D01*
X53020Y24370D02*
Y24530D01*
X53180D01*
Y24370D01*
X53020D01*
X53060Y24410D02*
Y24490D01*
X53140D01*
Y24410D01*
X53060D01*
X54020Y24370D02*
Y24530D01*
X54180D01*
Y24370D01*
X54020D01*
X54060Y24410D02*
Y24490D01*
X54140D01*
Y24410D01*
X54060D01*
X28170Y21370D02*
Y21530D01*
X28330D01*
Y21370D01*
X28170D01*
X28210Y21410D02*
Y21490D01*
X28290D01*
Y21410D01*
X28210D01*
X27170Y21370D02*
Y21530D01*
X27330D01*
Y21370D01*
X27170D01*
X27210Y21410D02*
Y21490D01*
X27290D01*
Y21410D01*
X27210D01*
X26170Y21370D02*
Y21530D01*
X26330D01*
Y21370D01*
X26170D01*
X26210Y21410D02*
Y21490D01*
X26290D01*
Y21410D01*
X26210D01*
X25170Y21370D02*
Y21530D01*
X25330D01*
Y21370D01*
X25170D01*
X25210Y21410D02*
Y21490D01*
X25290D01*
Y21410D01*
X25210D01*
X24170Y21370D02*
Y21530D01*
X24330D01*
Y21370D01*
X24170D01*
X24210Y21410D02*
Y21490D01*
X24290D01*
Y21410D01*
X24210D01*
X23170Y21370D02*
Y21530D01*
X23330D01*
Y21370D01*
X23170D01*
X23210Y21410D02*
Y21490D01*
X23290D01*
Y21410D01*
X23210D01*
X22170Y21370D02*
Y21530D01*
X22330D01*
Y21370D01*
X22170D01*
X22210Y21410D02*
Y21490D01*
X22290D01*
Y21410D01*
X22210D01*
X22170Y24370D02*
Y24530D01*
X22330D01*
Y24370D01*
X22170D01*
X22210Y24410D02*
Y24490D01*
X22290D01*
Y24410D01*
X22210D01*
X29170Y21370D02*
Y21530D01*
X29330D01*
Y21370D01*
X29170D01*
X29210Y21410D02*
Y21490D01*
X29290D01*
Y21410D01*
X29210D01*
X30170Y21370D02*
Y21530D01*
X30330D01*
Y21370D01*
X30170D01*
X30210Y21410D02*
Y21490D01*
X30290D01*
Y21410D01*
X30210D01*
X23170Y24370D02*
Y24530D01*
X23330D01*
Y24370D01*
X23170D01*
X23210Y24410D02*
Y24490D01*
X23290D01*
Y24410D01*
X23210D01*
X24170Y24370D02*
Y24530D01*
X24330D01*
Y24370D01*
X24170D01*
X24210Y24410D02*
Y24490D01*
X24290D01*
Y24410D01*
X24210D01*
X25170Y24370D02*
Y24530D01*
X25330D01*
Y24370D01*
X25170D01*
X25210Y24410D02*
Y24490D01*
X25290D01*
Y24410D01*
X25210D01*
X26170Y24370D02*
Y24530D01*
X26330D01*
Y24370D01*
X26170D01*
X26210Y24410D02*
Y24490D01*
X26290D01*
Y24410D01*
X26210D01*
X27170Y24370D02*
Y24530D01*
X27330D01*
Y24370D01*
X27170D01*
X27210Y24410D02*
Y24490D01*
X27290D01*
Y24410D01*
X27210D01*
X28170Y24370D02*
Y24530D01*
X28330D01*
Y24370D01*
X28170D01*
X28210Y24410D02*
Y24490D01*
X28290D01*
Y24410D01*
X28210D01*
X29170Y24370D02*
Y24530D01*
X29330D01*
Y24370D01*
X29170D01*
X29210Y24410D02*
Y24490D01*
X29290D01*
Y24410D01*
X29210D01*
X30170Y24370D02*
Y24530D01*
X30330D01*
Y24370D01*
X30170D01*
X30210Y24410D02*
Y24490D01*
X30290D01*
Y24410D01*
X30210D01*
X26115Y27655D02*
Y27815D01*
X26275D01*
Y27655D01*
X26115D01*
X25135Y25685D02*
Y25845D01*
X25295D01*
Y25685D01*
X25135D01*
X27105D02*
Y25845D01*
X27265D01*
Y25685D01*
X27105D01*
X37165Y48405D02*
Y48565D01*
X37325D01*
Y48405D01*
X37165D01*
X36185Y46435D02*
Y46595D01*
X36345D01*
Y46435D01*
X36185D01*
X38155D02*
Y46595D01*
X38315D01*
Y46435D01*
X38155D01*
X38697Y26473D02*
X38617Y26633D01*
X38777D01*
X38697Y26473D01*
Y26513D02*
X38657Y26593D01*
X38737D01*
X38697Y26513D01*
X38350Y25070D02*
X38390Y25110D01*
X38430D01*
X38390Y25150D01*
X38430Y25190D01*
X38390D01*
X38350Y25230D01*
X38310Y25190D01*
X38270D01*
X38310Y25150D01*
X38270Y25110D01*
X38310D01*
X38350Y25070D01*
Y25110D02*
X38370Y25130D01*
X38390D01*
X38370Y25150D01*
X38390Y25170D01*
X38370D01*
X38350Y25190D01*
X38330Y25170D01*
X38310D01*
X38330Y25150D01*
X38310Y25130D01*
X38330D01*
X38350Y25110D01*
X39650Y22245D02*
X39690Y22285D01*
X39730D01*
X39690Y22325D01*
X39730Y22365D01*
X39690D01*
X39650Y22405D01*
X39610Y22365D01*
X39570D01*
X39610Y22325D01*
X39570Y22285D01*
X39610D01*
X39650Y22245D01*
Y22285D02*
X39670Y22305D01*
X39690D01*
X39670Y22325D01*
X39690Y22345D01*
X39670D01*
X39650Y22365D01*
X39630Y22345D01*
X39610D01*
X39630Y22325D01*
X39610Y22305D01*
X39630D01*
X39650Y22285D01*
Y21620D02*
X39690Y21660D01*
X39730D01*
X39690Y21700D01*
X39730Y21740D01*
X39690D01*
X39650Y21780D01*
X39610Y21740D01*
X39570D01*
X39610Y21700D01*
X39570Y21660D01*
X39610D01*
X39650Y21620D01*
Y21660D02*
X39670Y21680D01*
X39690D01*
X39670Y21700D01*
X39690Y21720D01*
X39670D01*
X39650Y21740D01*
X39630Y21720D01*
X39610D01*
X39630Y21700D01*
X39610Y21680D01*
X39630D01*
X39650Y21660D01*
Y20970D02*
X39690Y21010D01*
X39730D01*
X39690Y21050D01*
X39730Y21090D01*
X39690D01*
X39650Y21130D01*
X39610Y21090D01*
X39570D01*
X39610Y21050D01*
X39570Y21010D01*
X39610D01*
X39650Y20970D01*
Y21010D02*
X39670Y21030D01*
X39690D01*
X39670Y21050D01*
X39690Y21070D01*
X39670D01*
X39650Y21090D01*
X39630Y21070D01*
X39610D01*
X39630Y21050D01*
X39610Y21030D01*
X39630D01*
X39650Y21010D01*
X39900Y25870D02*
X39940Y25910D01*
X39980D01*
X39940Y25950D01*
X39980Y25990D01*
X39940D01*
X39900Y26030D01*
X39860Y25990D01*
X39820D01*
X39860Y25950D01*
X39820Y25910D01*
X39860D01*
X39900Y25870D01*
Y25910D02*
X39920Y25930D01*
X39940D01*
X39920Y25950D01*
X39940Y25970D01*
X39920D01*
X39900Y25990D01*
X39880Y25970D01*
X39860D01*
X39880Y25950D01*
X39860Y25930D01*
X39880D01*
X39900Y25910D01*
X39745Y25348D02*
X39785Y25388D01*
X39825D01*
X39785Y25428D01*
X39825Y25468D01*
X39785D01*
X39745Y25508D01*
X39705Y25468D01*
X39665D01*
X39705Y25428D01*
X39665Y25388D01*
X39705D01*
X39745Y25348D01*
Y25388D02*
X39765Y25408D01*
X39785D01*
X39765Y25428D01*
X39785Y25448D01*
X39765D01*
X39745Y25468D01*
X39725Y25448D01*
X39705D01*
X39725Y25428D01*
X39705Y25408D01*
X39725D01*
X39745Y25388D01*
X27300Y48420D02*
X27340Y48460D01*
X27380D01*
X27340Y48500D01*
X27380Y48540D01*
X27340D01*
X27300Y48580D01*
X27260Y48540D01*
X27220D01*
X27260Y48500D01*
X27220Y48460D01*
X27260D01*
X27300Y48420D01*
Y48460D02*
X27320Y48480D01*
X27340D01*
X27320Y48500D01*
X27340Y48520D01*
X27320D01*
X27300Y48540D01*
X27280Y48520D01*
X27260D01*
X27280Y48500D01*
X27260Y48480D01*
X27280D01*
X27300Y48460D01*
X27650Y48220D02*
X27690Y48260D01*
X27730D01*
X27690Y48300D01*
X27730Y48340D01*
X27690D01*
X27650Y48380D01*
X27610Y48340D01*
X27570D01*
X27610Y48300D01*
X27570Y48260D01*
X27610D01*
X27650Y48220D01*
Y48260D02*
X27670Y48280D01*
X27690D01*
X27670Y48300D01*
X27690Y48320D01*
X27670D01*
X27650Y48340D01*
X27630Y48320D01*
X27610D01*
X27630Y48300D01*
X27610Y48280D01*
X27630D01*
X27650Y48260D01*
X41200Y16920D02*
X41240Y16960D01*
X41280D01*
X41240Y17000D01*
X41280Y17040D01*
X41240D01*
X41200Y17080D01*
X41160Y17040D01*
X41120D01*
X41160Y17000D01*
X41120Y16960D01*
X41160D01*
X41200Y16920D01*
Y16960D02*
X41220Y16980D01*
X41240D01*
X41220Y17000D01*
X41240Y17020D01*
X41220D01*
X41200Y17040D01*
X41180Y17020D01*
X41160D01*
X41180Y17000D01*
X41160Y16980D01*
X41180D01*
X41200Y16960D01*
X30300Y44820D02*
X30220Y44980D01*
X30380D01*
X30300Y44820D01*
Y44860D02*
X30260Y44940D01*
X30340D01*
X30300Y44860D01*
X41188Y21870D02*
X41228Y21910D01*
X41268D01*
X41228Y21950D01*
X41268Y21990D01*
X41228D01*
X41188Y22030D01*
X41148Y21990D01*
X41108D01*
X41148Y21950D01*
X41108Y21910D01*
X41148D01*
X41188Y21870D01*
Y21910D02*
X41208Y21930D01*
X41228D01*
X41208Y21950D01*
X41228Y21970D01*
X41208D01*
X41188Y21990D01*
X41168Y21970D01*
X41148D01*
X41168Y21950D01*
X41148Y21930D01*
X41168D01*
X41188Y21910D01*
X41200Y20870D02*
X41240Y20910D01*
X41280D01*
X41240Y20950D01*
X41280Y20990D01*
X41240D01*
X41200Y21030D01*
X41160Y20990D01*
X41120D01*
X41160Y20950D01*
X41120Y20910D01*
X41160D01*
X41200Y20870D01*
Y20910D02*
X41220Y20930D01*
X41240D01*
X41220Y20950D01*
X41240Y20970D01*
X41220D01*
X41200Y20990D01*
X41180Y20970D01*
X41160D01*
X41180Y20950D01*
X41160Y20930D01*
X41180D01*
X41200Y20910D01*
X26700Y45970D02*
X26740Y46010D01*
X26780D01*
X26740Y46050D01*
X26780Y46090D01*
X26740D01*
X26700Y46130D01*
X26660Y46090D01*
X26620D01*
X26660Y46050D01*
X26620Y46010D01*
X26660D01*
X26700Y45970D01*
Y46010D02*
X26720Y46030D01*
X26740D01*
X26720Y46050D01*
X26740Y46070D01*
X26720D01*
X26700Y46090D01*
X26680Y46070D01*
X26660D01*
X26680Y46050D01*
X26660Y46030D01*
X26680D01*
X26700Y46010D01*
X29055Y48396D02*
X29095Y48436D01*
X29135D01*
X29095Y48476D01*
X29135Y48516D01*
X29095D01*
X29055Y48556D01*
X29015Y48516D01*
X28975D01*
X29015Y48476D01*
X28975Y48436D01*
X29015D01*
X29055Y48396D01*
Y48436D02*
X29075Y48456D01*
X29095D01*
X29075Y48476D01*
X29095Y48496D01*
X29075D01*
X29055Y48516D01*
X29035Y48496D01*
X29015D01*
X29035Y48476D01*
X29015Y48456D01*
X29035D01*
X29055Y48436D01*
X28500Y48376D02*
X28540Y48416D01*
X28580D01*
X28540Y48456D01*
X28580Y48496D01*
X28540D01*
X28500Y48536D01*
X28460Y48496D01*
X28420D01*
X28460Y48456D01*
X28420Y48416D01*
X28460D01*
X28500Y48376D01*
Y48416D02*
X28520Y48436D01*
X28540D01*
X28520Y48456D01*
X28540Y48476D01*
X28520D01*
X28500Y48496D01*
X28480Y48476D01*
X28460D01*
X28480Y48456D01*
X28460Y48436D01*
X28480D01*
X28500Y48416D01*
X30250Y48520D02*
X30290Y48560D01*
X30330D01*
X30290Y48600D01*
X30330Y48640D01*
X30290D01*
X30250Y48680D01*
X30210Y48640D01*
X30170D01*
X30210Y48600D01*
X30170Y48560D01*
X30210D01*
X30250Y48520D01*
Y48560D02*
X30270Y48580D01*
X30290D01*
X30270Y48600D01*
X30290Y48620D01*
X30270D01*
X30250Y48640D01*
X30230Y48620D01*
X30210D01*
X30230Y48600D01*
X30210Y48580D01*
X30230D01*
X30250Y48560D01*
X26905Y48425D02*
X26945Y48465D01*
X26985D01*
X26945Y48505D01*
X26985Y48545D01*
X26945D01*
X26905Y48585D01*
X26865Y48545D01*
X26825D01*
X26865Y48505D01*
X26825Y48465D01*
X26865D01*
X26905Y48425D01*
Y48465D02*
X26925Y48485D01*
X26945D01*
X26925Y48505D01*
X26945Y48525D01*
X26925D01*
X26905Y48545D01*
X26885Y48525D01*
X26865D01*
X26885Y48505D01*
X26865Y48485D01*
X26885D01*
X26905Y48465D01*
X38450Y35470D02*
X38370Y35630D01*
X38530D01*
X38450Y35470D01*
Y35510D02*
X38410Y35590D01*
X38490D01*
X38450Y35510D01*
X42000Y31747D02*
X42040Y31787D01*
X42080D01*
X42040Y31827D01*
X42080Y31867D01*
X42040D01*
X42000Y31907D01*
X41960Y31867D01*
X41920D01*
X41960Y31827D01*
X41920Y31787D01*
X41960D01*
X42000Y31747D01*
Y31787D02*
X42020Y31807D01*
X42040D01*
X42020Y31827D01*
X42040Y31847D01*
X42020D01*
X42000Y31867D01*
X41980Y31847D01*
X41960D01*
X41980Y31827D01*
X41960Y31807D01*
X41980D01*
X42000Y31787D01*
X40300Y31220D02*
X40340Y31260D01*
X40380D01*
X40340Y31300D01*
X40380Y31340D01*
X40340D01*
X40300Y31380D01*
X40260Y31340D01*
X40220D01*
X40260Y31300D01*
X40220Y31260D01*
X40260D01*
X40300Y31220D01*
Y31260D02*
X40320Y31280D01*
X40340D01*
X40320Y31300D01*
X40340Y31320D01*
X40320D01*
X40300Y31340D01*
X40280Y31320D01*
X40260D01*
X40280Y31300D01*
X40260Y31280D01*
X40280D01*
X40300Y31260D01*
X40060Y31654D02*
X40100Y31694D01*
X40140D01*
X40100Y31734D01*
X40140Y31774D01*
X40100D01*
X40060Y31814D01*
X40020Y31774D01*
X39980D01*
X40020Y31734D01*
X39980Y31694D01*
X40020D01*
X40060Y31654D01*
Y31694D02*
X40080Y31714D01*
X40100D01*
X40080Y31734D01*
X40100Y31754D01*
X40080D01*
X40060Y31774D01*
X40040Y31754D01*
X40020D01*
X40040Y31734D01*
X40020Y31714D01*
X40040D01*
X40060Y31694D01*
X46465Y36170D02*
X46505Y36210D01*
X46545D01*
X46505Y36250D01*
X46545Y36290D01*
X46505D01*
X46465Y36330D01*
X46425Y36290D01*
X46385D01*
X46425Y36250D01*
X46385Y36210D01*
X46425D01*
X46465Y36170D01*
Y36210D02*
X46485Y36230D01*
X46505D01*
X46485Y36250D01*
X46505Y36270D01*
X46485D01*
X46465Y36290D01*
X46445Y36270D01*
X46425D01*
X46445Y36250D01*
X46425Y36230D01*
X46445D01*
X46465Y36210D01*
X45920Y36170D02*
X45960Y36210D01*
X46000D01*
X45960Y36250D01*
X46000Y36290D01*
X45960D01*
X45920Y36330D01*
X45880Y36290D01*
X45840D01*
X45880Y36250D01*
X45840Y36210D01*
X45880D01*
X45920Y36170D01*
Y36210D02*
X45940Y36230D01*
X45960D01*
X45940Y36250D01*
X45960Y36270D01*
X45940D01*
X45920Y36290D01*
X45900Y36270D01*
X45880D01*
X45900Y36250D01*
X45880Y36230D01*
X45900D01*
X45920Y36210D01*
X46700Y37520D02*
X46740Y37560D01*
X46780D01*
X46740Y37600D01*
X46780Y37640D01*
X46740D01*
X46700Y37680D01*
X46660Y37640D01*
X46620D01*
X46660Y37600D01*
X46620Y37560D01*
X46660D01*
X46700Y37520D01*
Y37560D02*
X46720Y37580D01*
X46740D01*
X46720Y37600D01*
X46740Y37620D01*
X46720D01*
X46700Y37640D01*
X46680Y37620D01*
X46660D01*
X46680Y37600D01*
X46660Y37580D01*
X46680D01*
X46700Y37560D01*
X45935Y37520D02*
X45975Y37560D01*
X46015D01*
X45975Y37600D01*
X46015Y37640D01*
X45975D01*
X45935Y37680D01*
X45895Y37640D01*
X45855D01*
X45895Y37600D01*
X45855Y37560D01*
X45895D01*
X45935Y37520D01*
Y37560D02*
X45955Y37580D01*
X45975D01*
X45955Y37600D01*
X45975Y37620D01*
X45955D01*
X45935Y37640D01*
X45915Y37620D01*
X45895D01*
X45915Y37600D01*
X45895Y37580D01*
X45915D01*
X45935Y37560D01*
X44700Y36870D02*
X44620Y37030D01*
X44780D01*
X44700Y36870D01*
Y36910D02*
X44660Y36990D01*
X44740D01*
X44700Y36910D01*
X33457Y36213D02*
X33377Y36373D01*
X33537D01*
X33457Y36213D01*
Y36253D02*
X33417Y36333D01*
X33497D01*
X33457Y36253D01*
X37202Y40868D02*
X37242Y40908D01*
X37282D01*
X37242Y40948D01*
X37282Y40988D01*
X37242D01*
X37202Y41028D01*
X37162Y40988D01*
X37122D01*
X37162Y40948D01*
X37122Y40908D01*
X37162D01*
X37202Y40868D01*
Y40908D02*
X37222Y40928D01*
X37242D01*
X37222Y40948D01*
X37242Y40968D01*
X37222D01*
X37202Y40988D01*
X37182Y40968D01*
X37162D01*
X37182Y40948D01*
X37162Y40928D01*
X37182D01*
X37202Y40908D01*
X37850Y40695D02*
X37890Y40735D01*
X37930D01*
X37890Y40775D01*
X37930Y40815D01*
X37890D01*
X37850Y40855D01*
X37810Y40815D01*
X37770D01*
X37810Y40775D01*
X37770Y40735D01*
X37810D01*
X37850Y40695D01*
Y40735D02*
X37870Y40755D01*
X37890D01*
X37870Y40775D01*
X37890Y40795D01*
X37870D01*
X37850Y40815D01*
X37830Y40795D01*
X37810D01*
X37830Y40775D01*
X37810Y40755D01*
X37830D01*
X37850Y40735D01*
X45500Y35670D02*
X45420Y35830D01*
X45580D01*
X45500Y35670D01*
Y35710D02*
X45460Y35790D01*
X45540D01*
X45500Y35710D01*
X37950Y34159D02*
X37990Y34199D01*
X38030D01*
X37990Y34239D01*
X38030Y34279D01*
X37990D01*
X37950Y34319D01*
X37910Y34279D01*
X37870D01*
X37910Y34239D01*
X37870Y34199D01*
X37910D01*
X37950Y34159D01*
Y34199D02*
X37970Y34219D01*
X37990D01*
X37970Y34239D01*
X37990Y34259D01*
X37970D01*
X37950Y34279D01*
X37930Y34259D01*
X37910D01*
X37930Y34239D01*
X37910Y34219D01*
X37930D01*
X37950Y34199D01*
X38086Y33903D02*
X38126Y33943D01*
X38166D01*
X38126Y33983D01*
X38166Y34023D01*
X38126D01*
X38086Y34063D01*
X38046Y34023D01*
X38006D01*
X38046Y33983D01*
X38006Y33943D01*
X38046D01*
X38086Y33903D01*
Y33943D02*
X38106Y33963D01*
X38126D01*
X38106Y33983D01*
X38126Y34003D01*
X38106D01*
X38086Y34023D01*
X38066Y34003D01*
X38046D01*
X38066Y33983D01*
X38046Y33963D01*
X38066D01*
X38086Y33943D01*
X46200Y40170D02*
X46240Y40210D01*
X46280D01*
X46240Y40250D01*
X46280Y40290D01*
X46240D01*
X46200Y40330D01*
X46160Y40290D01*
X46120D01*
X46160Y40250D01*
X46120Y40210D01*
X46160D01*
X46200Y40170D01*
Y40210D02*
X46220Y40230D01*
X46240D01*
X46220Y40250D01*
X46240Y40270D01*
X46220D01*
X46200Y40290D01*
X46180Y40270D01*
X46160D01*
X46180Y40250D01*
X46160Y40230D01*
X46180D01*
X46200Y40210D01*
X44100Y29670D02*
X44140Y29710D01*
X44180D01*
X44140Y29750D01*
X44180Y29790D01*
X44140D01*
X44100Y29830D01*
X44060Y29790D01*
X44020D01*
X44060Y29750D01*
X44020Y29710D01*
X44060D01*
X44100Y29670D01*
Y29710D02*
X44120Y29730D01*
X44140D01*
X44120Y29750D01*
X44140Y29770D01*
X44120D01*
X44100Y29790D01*
X44080Y29770D01*
X44060D01*
X44080Y29750D01*
X44060Y29730D01*
X44080D01*
X44100Y29710D01*
X44390Y29670D02*
X44430Y29710D01*
X44470D01*
X44430Y29750D01*
X44470Y29790D01*
X44430D01*
X44390Y29830D01*
X44350Y29790D01*
X44310D01*
X44350Y29750D01*
X44310Y29710D01*
X44350D01*
X44390Y29670D01*
Y29710D02*
X44410Y29730D01*
X44430D01*
X44410Y29750D01*
X44430Y29770D01*
X44410D01*
X44390Y29790D01*
X44370Y29770D01*
X44350D01*
X44370Y29750D01*
X44350Y29730D01*
X44370D01*
X44390Y29710D01*
X45745Y31445D02*
X45785Y31485D01*
X45825D01*
X45785Y31525D01*
X45825Y31565D01*
X45785D01*
X45745Y31605D01*
X45705Y31565D01*
X45665D01*
X45705Y31525D01*
X45665Y31485D01*
X45705D01*
X45745Y31445D01*
Y31485D02*
X45765Y31505D01*
X45785D01*
X45765Y31525D01*
X45785Y31545D01*
X45765D01*
X45745Y31565D01*
X45725Y31545D01*
X45705D01*
X45725Y31525D01*
X45705Y31505D01*
X45725D01*
X45745Y31485D01*
X46200Y42370D02*
X46240Y42410D01*
X46280D01*
X46240Y42450D01*
X46280Y42490D01*
X46240D01*
X46200Y42530D01*
X46160Y42490D01*
X46120D01*
X46160Y42450D01*
X46120Y42410D01*
X46160D01*
X46200Y42370D01*
Y42410D02*
X46220Y42430D01*
X46240D01*
X46220Y42450D01*
X46240Y42470D01*
X46220D01*
X46200Y42490D01*
X46180Y42470D01*
X46160D01*
X46180Y42450D01*
X46160Y42430D01*
X46180D01*
X46200Y42410D01*
X50000Y37770D02*
X50040Y37810D01*
X50080D01*
X50040Y37850D01*
X50080Y37890D01*
X50040D01*
X50000Y37930D01*
X49960Y37890D01*
X49920D01*
X49960Y37850D01*
X49920Y37810D01*
X49960D01*
X50000Y37770D01*
Y37810D02*
X50020Y37830D01*
X50040D01*
X50020Y37850D01*
X50040Y37870D01*
X50020D01*
X50000Y37890D01*
X49980Y37870D01*
X49960D01*
X49980Y37850D01*
X49960Y37830D01*
X49980D01*
X50000Y37810D01*
X48100Y39770D02*
X48140Y39810D01*
X48180D01*
X48140Y39850D01*
X48180Y39890D01*
X48140D01*
X48100Y39930D01*
X48060Y39890D01*
X48020D01*
X48060Y39850D01*
X48020Y39810D01*
X48060D01*
X48100Y39770D01*
Y39810D02*
X48120Y39830D01*
X48140D01*
X48120Y39850D01*
X48140Y39870D01*
X48120D01*
X48100Y39890D01*
X48080Y39870D01*
X48060D01*
X48080Y39850D01*
X48060Y39830D01*
X48080D01*
X48100Y39810D01*
X50500Y39820D02*
X50540Y39860D01*
X50580D01*
X50540Y39900D01*
X50580Y39940D01*
X50540D01*
X50500Y39980D01*
X50460Y39940D01*
X50420D01*
X50460Y39900D01*
X50420Y39860D01*
X50460D01*
X50500Y39820D01*
Y39860D02*
X50520Y39880D01*
X50540D01*
X50520Y39900D01*
X50540Y39920D01*
X50520D01*
X50500Y39940D01*
X50480Y39920D01*
X50460D01*
X50480Y39900D01*
X50460Y39880D01*
X50480D01*
X50500Y39860D01*
X30555Y39570D02*
X30595Y39610D01*
X30635D01*
X30595Y39650D01*
X30635Y39690D01*
X30595D01*
X30555Y39730D01*
X30515Y39690D01*
X30475D01*
X30515Y39650D01*
X30475Y39610D01*
X30515D01*
X30555Y39570D01*
Y39610D02*
X30575Y39630D01*
X30595D01*
X30575Y39650D01*
X30595Y39670D01*
X30575D01*
X30555Y39690D01*
X30535Y39670D01*
X30515D01*
X30535Y39650D01*
X30515Y39630D01*
X30535D01*
X30555Y39610D01*
X31245Y39570D02*
X31285Y39610D01*
X31325D01*
X31285Y39650D01*
X31325Y39690D01*
X31285D01*
X31245Y39730D01*
X31205Y39690D01*
X31165D01*
X31205Y39650D01*
X31165Y39610D01*
X31205D01*
X31245Y39570D01*
Y39610D02*
X31265Y39630D01*
X31285D01*
X31265Y39650D01*
X31285Y39670D01*
X31265D01*
X31245Y39690D01*
X31225Y39670D01*
X31205D01*
X31225Y39650D01*
X31205Y39630D01*
X31225D01*
X31245Y39610D01*
X31764Y39570D02*
X31804Y39610D01*
X31844D01*
X31804Y39650D01*
X31844Y39690D01*
X31804D01*
X31764Y39730D01*
X31724Y39690D01*
X31684D01*
X31724Y39650D01*
X31684Y39610D01*
X31724D01*
X31764Y39570D01*
Y39610D02*
X31784Y39630D01*
X31804D01*
X31784Y39650D01*
X31804Y39670D01*
X31784D01*
X31764Y39690D01*
X31744Y39670D01*
X31724D01*
X31744Y39650D01*
X31724Y39630D01*
X31744D01*
X31764Y39610D01*
X32448Y39618D02*
X32488Y39658D01*
X32528D01*
X32488Y39698D01*
X32528Y39738D01*
X32488D01*
X32448Y39778D01*
X32408Y39738D01*
X32368D01*
X32408Y39698D01*
X32368Y39658D01*
X32408D01*
X32448Y39618D01*
Y39658D02*
X32468Y39678D01*
X32488D01*
X32468Y39698D01*
X32488Y39718D01*
X32468D01*
X32448Y39738D01*
X32428Y39718D01*
X32408D01*
X32428Y39698D01*
X32408Y39678D01*
X32428D01*
X32448Y39658D01*
X42500Y41720D02*
X42540Y41760D01*
X42580D01*
X42540Y41800D01*
X42580Y41840D01*
X42540D01*
X42500Y41880D01*
X42460Y41840D01*
X42420D01*
X42460Y41800D01*
X42420Y41760D01*
X42460D01*
X42500Y41720D01*
Y41760D02*
X42520Y41780D01*
X42540D01*
X42520Y41800D01*
X42540Y41820D01*
X42520D01*
X42500Y41840D01*
X42480Y41820D01*
X42460D01*
X42480Y41800D01*
X42460Y41780D01*
X42480D01*
X42500Y41760D01*
X38700Y47220D02*
X38740Y47260D01*
X38780D01*
X38740Y47300D01*
X38780Y47340D01*
X38740D01*
X38700Y47380D01*
X38660Y47340D01*
X38620D01*
X38660Y47300D01*
X38620Y47260D01*
X38660D01*
X38700Y47220D01*
Y47260D02*
X38720Y47280D01*
X38740D01*
X38720Y47300D01*
X38740Y47320D01*
X38720D01*
X38700Y47340D01*
X38680Y47320D01*
X38660D01*
X38680Y47300D01*
X38660Y47280D01*
X38680D01*
X38700Y47260D01*
X41550Y41920D02*
X41590Y41960D01*
X41630D01*
X41590Y42000D01*
X41630Y42040D01*
X41590D01*
X41550Y42080D01*
X41510Y42040D01*
X41470D01*
X41510Y42000D01*
X41470Y41960D01*
X41510D01*
X41550Y41920D01*
Y41960D02*
X41570Y41980D01*
X41590D01*
X41570Y42000D01*
X41590Y42020D01*
X41570D01*
X41550Y42040D01*
X41530Y42020D01*
X41510D01*
X41530Y42000D01*
X41510Y41980D01*
X41530D01*
X41550Y41960D01*
X38700Y48020D02*
X38740Y48060D01*
X38780D01*
X38740Y48100D01*
X38780Y48140D01*
X38740D01*
X38700Y48180D01*
X38660Y48140D01*
X38620D01*
X38660Y48100D01*
X38620Y48060D01*
X38660D01*
X38700Y48020D01*
Y48060D02*
X38720Y48080D01*
X38740D01*
X38720Y48100D01*
X38740Y48120D01*
X38720D01*
X38700Y48140D01*
X38680Y48120D01*
X38660D01*
X38680Y48100D01*
X38660Y48080D01*
X38680D01*
X38700Y48060D01*
X46200Y43120D02*
X46240Y43160D01*
X46280D01*
X46240Y43200D01*
X46280Y43240D01*
X46240D01*
X46200Y43280D01*
X46160Y43240D01*
X46120D01*
X46160Y43200D01*
X46120Y43160D01*
X46160D01*
X46200Y43120D01*
Y43160D02*
X46220Y43180D01*
X46240D01*
X46220Y43200D01*
X46240Y43220D01*
X46220D01*
X46200Y43240D01*
X46180Y43220D01*
X46160D01*
X46180Y43200D01*
X46160Y43180D01*
X46180D01*
X46200Y43160D01*
X48450Y47320D02*
X48490Y47360D01*
X48530D01*
X48490Y47400D01*
X48530Y47440D01*
X48490D01*
X48450Y47480D01*
X48410Y47440D01*
X48370D01*
X48410Y47400D01*
X48370Y47360D01*
X48410D01*
X48450Y47320D01*
Y47360D02*
X48470Y47380D01*
X48490D01*
X48470Y47400D01*
X48490Y47420D01*
X48470D01*
X48450Y47440D01*
X48430Y47420D01*
X48410D01*
X48430Y47400D01*
X48410Y47380D01*
X48430D01*
X48450Y47360D01*
X27253Y28520D02*
X27293Y28560D01*
X27333D01*
X27293Y28600D01*
X27333Y28640D01*
X27293D01*
X27253Y28680D01*
X27213Y28640D01*
X27173D01*
X27213Y28600D01*
X27173Y28560D01*
X27213D01*
X27253Y28520D01*
Y28560D02*
X27273Y28580D01*
X27293D01*
X27273Y28600D01*
X27293Y28620D01*
X27273D01*
X27253Y28640D01*
X27233Y28620D01*
X27213D01*
X27233Y28600D01*
X27213Y28580D01*
X27233D01*
X27253Y28560D01*
X33850Y28520D02*
X33890Y28560D01*
X33930D01*
X33890Y28600D01*
X33930Y28640D01*
X33890D01*
X33850Y28680D01*
X33810Y28640D01*
X33770D01*
X33810Y28600D01*
X33770Y28560D01*
X33810D01*
X33850Y28520D01*
Y28560D02*
X33870Y28580D01*
X33890D01*
X33870Y28600D01*
X33890Y28620D01*
X33870D01*
X33850Y28640D01*
X33830Y28620D01*
X33810D01*
X33830Y28600D01*
X33810Y28580D01*
X33830D01*
X33850Y28560D01*
X55305Y29570D02*
X55345Y29610D01*
X55385D01*
X55345Y29650D01*
X55385Y29690D01*
X55345D01*
X55305Y29730D01*
X55265Y29690D01*
X55225D01*
X55265Y29650D01*
X55225Y29610D01*
X55265D01*
X55305Y29570D01*
Y29610D02*
X55325Y29630D01*
X55345D01*
X55325Y29650D01*
X55345Y29670D01*
X55325D01*
X55305Y29690D01*
X55285Y29670D01*
X55265D01*
X55285Y29650D01*
X55265Y29630D01*
X55285D01*
X55305Y29610D01*
X36750Y18620D02*
X36790Y18660D01*
X36830D01*
X36790Y18700D01*
X36830Y18740D01*
X36790D01*
X36750Y18780D01*
X36710Y18740D01*
X36670D01*
X36710Y18700D01*
X36670Y18660D01*
X36710D01*
X36750Y18620D01*
Y18660D02*
X36770Y18680D01*
X36790D01*
X36770Y18700D01*
X36790Y18720D01*
X36770D01*
X36750Y18740D01*
X36730Y18720D01*
X36710D01*
X36730Y18700D01*
X36710Y18680D01*
X36730D01*
X36750Y18660D01*
X34800Y18620D02*
X34840Y18660D01*
X34880D01*
X34840Y18700D01*
X34880Y18740D01*
X34840D01*
X34800Y18780D01*
X34760Y18740D01*
X34720D01*
X34760Y18700D01*
X34720Y18660D01*
X34760D01*
X34800Y18620D01*
Y18660D02*
X34820Y18680D01*
X34840D01*
X34820Y18700D01*
X34840Y18720D01*
X34820D01*
X34800Y18740D01*
X34780Y18720D01*
X34760D01*
X34780Y18700D01*
X34760Y18680D01*
X34780D01*
X34800Y18660D01*
X36750Y19420D02*
X36790Y19460D01*
X36830D01*
X36790Y19500D01*
X36830Y19540D01*
X36790D01*
X36750Y19580D01*
X36710Y19540D01*
X36670D01*
X36710Y19500D01*
X36670Y19460D01*
X36710D01*
X36750Y19420D01*
Y19460D02*
X36770Y19480D01*
X36790D01*
X36770Y19500D01*
X36790Y19520D01*
X36770D01*
X36750Y19540D01*
X36730Y19520D01*
X36710D01*
X36730Y19500D01*
X36710Y19480D01*
X36730D01*
X36750Y19460D01*
X34800Y19420D02*
X34840Y19460D01*
X34880D01*
X34840Y19500D01*
X34880Y19540D01*
X34840D01*
X34800Y19580D01*
X34760Y19540D01*
X34720D01*
X34760Y19500D01*
X34720Y19460D01*
X34760D01*
X34800Y19420D01*
Y19460D02*
X34820Y19480D01*
X34840D01*
X34820Y19500D01*
X34840Y19520D01*
X34820D01*
X34800Y19540D01*
X34780Y19520D01*
X34760D01*
X34780Y19500D01*
X34760Y19480D01*
X34780D01*
X34800Y19460D01*
X46650Y28470D02*
X46690Y28510D01*
X46730D01*
X46690Y28550D01*
X46730Y28590D01*
X46690D01*
X46650Y28630D01*
X46610Y28590D01*
X46570D01*
X46610Y28550D01*
X46570Y28510D01*
X46610D01*
X46650Y28470D01*
Y28510D02*
X46670Y28530D01*
X46690D01*
X46670Y28550D01*
X46690Y28570D01*
X46670D01*
X46650Y28590D01*
X46630Y28570D01*
X46610D01*
X46630Y28550D01*
X46610Y28530D01*
X46630D01*
X46650Y28510D01*
X55150Y29920D02*
X55190Y29960D01*
X55230D01*
X55190Y30000D01*
X55230Y30040D01*
X55190D01*
X55150Y30080D01*
X55110Y30040D01*
X55070D01*
X55110Y30000D01*
X55070Y29960D01*
X55110D01*
X55150Y29920D01*
Y29960D02*
X55170Y29980D01*
X55190D01*
X55170Y30000D01*
X55190Y30020D01*
X55170D01*
X55150Y30040D01*
X55130Y30020D01*
X55110D01*
X55130Y30000D01*
X55110Y29980D01*
X55130D01*
X55150Y29960D01*
X53000Y39701D02*
X53040Y39741D01*
X53080D01*
X53040Y39781D01*
X53080Y39821D01*
X53040D01*
X53000Y39861D01*
X52960Y39821D01*
X52920D01*
X52960Y39781D01*
X52920Y39741D01*
X52960D01*
X53000Y39701D01*
Y39741D02*
X53020Y39761D01*
X53040D01*
X53020Y39781D01*
X53040Y39801D01*
X53020D01*
X53000Y39821D01*
X52980Y39801D01*
X52960D01*
X52980Y39781D01*
X52960Y39761D01*
X52980D01*
X53000Y39741D01*
X51500Y39720D02*
X51540Y39760D01*
X51580D01*
X51540Y39800D01*
X51580Y39840D01*
X51540D01*
X51500Y39880D01*
X51460Y39840D01*
X51420D01*
X51460Y39800D01*
X51420Y39760D01*
X51460D01*
X51500Y39720D01*
Y39760D02*
X51520Y39780D01*
X51540D01*
X51520Y39800D01*
X51540Y39820D01*
X51520D01*
X51500Y39840D01*
X51480Y39820D01*
X51460D01*
X51480Y39800D01*
X51460Y39780D01*
X51480D01*
X51500Y39760D01*
X23972Y45620D02*
X24012Y45660D01*
X24052D01*
X24012Y45700D01*
X24052Y45740D01*
X24012D01*
X23972Y45780D01*
X23932Y45740D01*
X23892D01*
X23932Y45700D01*
X23892Y45660D01*
X23932D01*
X23972Y45620D01*
Y45660D02*
X23992Y45680D01*
X24012D01*
X23992Y45700D01*
X24012Y45720D01*
X23992D01*
X23972Y45740D01*
X23952Y45720D01*
X23932D01*
X23952Y45700D01*
X23932Y45680D01*
X23952D01*
X23972Y45660D01*
X26400Y34820D02*
X26440Y34860D01*
X26480D01*
X26440Y34900D01*
X26480Y34940D01*
X26440D01*
X26400Y34980D01*
X26360Y34940D01*
X26320D01*
X26360Y34900D01*
X26320Y34860D01*
X26360D01*
X26400Y34820D01*
Y34860D02*
X26420Y34880D01*
X26440D01*
X26420Y34900D01*
X26440Y34920D01*
X26420D01*
X26400Y34940D01*
X26380Y34920D01*
X26360D01*
X26380Y34900D01*
X26360Y34880D01*
X26380D01*
X26400Y34860D01*
X25350Y22870D02*
X25390Y22910D01*
X25430D01*
X25390Y22950D01*
X25430Y22990D01*
X25390D01*
X25350Y23030D01*
X25310Y22990D01*
X25270D01*
X25310Y22950D01*
X25270Y22910D01*
X25310D01*
X25350Y22870D01*
Y22910D02*
X25370Y22930D01*
X25390D01*
X25370Y22950D01*
X25390Y22970D01*
X25370D01*
X25350Y22990D01*
X25330Y22970D01*
X25310D01*
X25330Y22950D01*
X25310Y22930D01*
X25330D01*
X25350Y22910D01*
X28800Y34320D02*
X28840Y34360D01*
X28880D01*
X28840Y34400D01*
X28880Y34440D01*
X28840D01*
X28800Y34480D01*
X28760Y34440D01*
X28720D01*
X28760Y34400D01*
X28720Y34360D01*
X28760D01*
X28800Y34320D01*
Y34360D02*
X28820Y34380D01*
X28840D01*
X28820Y34400D01*
X28840Y34420D01*
X28820D01*
X28800Y34440D01*
X28780Y34420D01*
X28760D01*
X28780Y34400D01*
X28760Y34380D01*
X28780D01*
X28800Y34360D01*
X28600Y30320D02*
X28640Y30360D01*
X28680D01*
X28640Y30400D01*
X28680Y30440D01*
X28640D01*
X28600Y30480D01*
X28560Y30440D01*
X28520D01*
X28560Y30400D01*
X28520Y30360D01*
X28560D01*
X28600Y30320D01*
Y30360D02*
X28620Y30380D01*
X28640D01*
X28620Y30400D01*
X28640Y30420D01*
X28620D01*
X28600Y30440D01*
X28580Y30420D01*
X28560D01*
X28580Y30400D01*
X28560Y30380D01*
X28580D01*
X28600Y30360D01*
X50351Y23271D02*
X50391Y23311D01*
X50431D01*
X50391Y23351D01*
X50431Y23391D01*
X50391D01*
X50351Y23431D01*
X50311Y23391D01*
X50271D01*
X50311Y23351D01*
X50271Y23311D01*
X50311D01*
X50351Y23271D01*
Y23311D02*
X50371Y23331D01*
X50391D01*
X50371Y23351D01*
X50391Y23371D01*
X50371D01*
X50351Y23391D01*
X50331Y23371D01*
X50311D01*
X50331Y23351D01*
X50311Y23331D01*
X50331D01*
X50351Y23311D01*
X54380Y30270D02*
X54420Y30310D01*
X54460D01*
X54420Y30350D01*
X54460Y30390D01*
X54420D01*
X54380Y30430D01*
X54340Y30390D01*
X54300D01*
X54340Y30350D01*
X54300Y30310D01*
X54340D01*
X54380Y30270D01*
Y30310D02*
X54400Y30330D01*
X54420D01*
X54400Y30350D01*
X54420Y30370D01*
X54400D01*
X54380Y30390D01*
X54360Y30370D01*
X54340D01*
X54360Y30350D01*
X54340Y30330D01*
X54360D01*
X54380Y30310D01*
X49500Y39770D02*
X49540Y39810D01*
X49580D01*
X49540Y39850D01*
X49580Y39890D01*
X49540D01*
X49500Y39930D01*
X49460Y39890D01*
X49420D01*
X49460Y39850D01*
X49420Y39810D01*
X49460D01*
X49500Y39770D01*
Y39810D02*
X49520Y39830D01*
X49540D01*
X49520Y39850D01*
X49540Y39870D01*
X49520D01*
X49500Y39890D01*
X49480Y39870D01*
X49460D01*
X49480Y39850D01*
X49460Y39830D01*
X49480D01*
X49500Y39810D01*
X52900Y33570D02*
X52940Y33610D01*
X52980D01*
X52940Y33650D01*
X52980Y33690D01*
X52940D01*
X52900Y33730D01*
X52860Y33690D01*
X52820D01*
X52860Y33650D01*
X52820Y33610D01*
X52860D01*
X52900Y33570D01*
Y33610D02*
X52920Y33630D01*
X52940D01*
X52920Y33650D01*
X52940Y33670D01*
X52920D01*
X52900Y33690D01*
X52880Y33670D01*
X52860D01*
X52880Y33650D01*
X52860Y33630D01*
X52880D01*
X52900Y33610D01*
X51500Y33070D02*
X51540Y33110D01*
X51580D01*
X51540Y33150D01*
X51580Y33190D01*
X51540D01*
X51500Y33230D01*
X51460Y33190D01*
X51420D01*
X51460Y33150D01*
X51420Y33110D01*
X51460D01*
X51500Y33070D01*
Y33110D02*
X51520Y33130D01*
X51540D01*
X51520Y33150D01*
X51540Y33170D01*
X51520D01*
X51500Y33190D01*
X51480Y33170D01*
X51460D01*
X51480Y33150D01*
X51460Y33130D01*
X51480D01*
X51500Y33110D01*
X24700Y22170D02*
X24740Y22210D01*
X24780D01*
X24740Y22250D01*
X24780Y22290D01*
X24740D01*
X24700Y22330D01*
X24660Y22290D01*
X24620D01*
X24660Y22250D01*
X24620Y22210D01*
X24660D01*
X24700Y22170D01*
Y22210D02*
X24720Y22230D01*
X24740D01*
X24720Y22250D01*
X24740Y22270D01*
X24720D01*
X24700Y22290D01*
X24680Y22270D01*
X24660D01*
X24680Y22250D01*
X24660Y22230D01*
X24680D01*
X24700Y22210D01*
X48350Y37470D02*
X48390Y37510D01*
X48430D01*
X48390Y37550D01*
X48430Y37590D01*
X48390D01*
X48350Y37630D01*
X48310Y37590D01*
X48270D01*
X48310Y37550D01*
X48270Y37510D01*
X48310D01*
X48350Y37470D01*
Y37510D02*
X48370Y37530D01*
X48390D01*
X48370Y37550D01*
X48390Y37570D01*
X48370D01*
X48350Y37590D01*
X48330Y37570D01*
X48310D01*
X48330Y37550D01*
X48310Y37530D01*
X48330D01*
X48350Y37510D01*
X52750Y37570D02*
X52790Y37610D01*
X52830D01*
X52790Y37650D01*
X52830Y37690D01*
X52790D01*
X52750Y37730D01*
X52710Y37690D01*
X52670D01*
X52710Y37650D01*
X52670Y37610D01*
X52710D01*
X52750Y37570D01*
Y37610D02*
X52770Y37630D01*
X52790D01*
X52770Y37650D01*
X52790Y37670D01*
X52770D01*
X52750Y37690D01*
X52730Y37670D01*
X52710D01*
X52730Y37650D01*
X52710Y37630D01*
X52730D01*
X52750Y37610D01*
X49250Y32070D02*
X49290Y32110D01*
X49330D01*
X49290Y32150D01*
X49330Y32190D01*
X49290D01*
X49250Y32230D01*
X49210Y32190D01*
X49170D01*
X49210Y32150D01*
X49170Y32110D01*
X49210D01*
X49250Y32070D01*
Y32110D02*
X49270Y32130D01*
X49290D01*
X49270Y32150D01*
X49290Y32170D01*
X49270D01*
X49250Y32190D01*
X49230Y32170D01*
X49210D01*
X49230Y32150D01*
X49210Y32130D01*
X49230D01*
X49250Y32110D01*
X49200Y32570D02*
X49240Y32610D01*
X49280D01*
X49240Y32650D01*
X49280Y32690D01*
X49240D01*
X49200Y32730D01*
X49160Y32690D01*
X49120D01*
X49160Y32650D01*
X49120Y32610D01*
X49160D01*
X49200Y32570D01*
Y32610D02*
X49220Y32630D01*
X49240D01*
X49220Y32650D01*
X49240Y32670D01*
X49220D01*
X49200Y32690D01*
X49180Y32670D01*
X49160D01*
X49180Y32650D01*
X49160Y32630D01*
X49180D01*
X49200Y32610D01*
X51500Y32570D02*
X51540Y32610D01*
X51580D01*
X51540Y32650D01*
X51580Y32690D01*
X51540D01*
X51500Y32730D01*
X51460Y32690D01*
X51420D01*
X51460Y32650D01*
X51420Y32610D01*
X51460D01*
X51500Y32570D01*
Y32610D02*
X51520Y32630D01*
X51540D01*
X51520Y32650D01*
X51540Y32670D01*
X51520D01*
X51500Y32690D01*
X51480Y32670D01*
X51460D01*
X51480Y32650D01*
X51460Y32630D01*
X51480D01*
X51500Y32610D01*
Y32070D02*
X51540Y32110D01*
X51580D01*
X51540Y32150D01*
X51580Y32190D01*
X51540D01*
X51500Y32230D01*
X51460Y32190D01*
X51420D01*
X51460Y32150D01*
X51420Y32110D01*
X51460D01*
X51500Y32070D01*
Y32110D02*
X51520Y32130D01*
X51540D01*
X51520Y32150D01*
X51540Y32170D01*
X51520D01*
X51500Y32190D01*
X51480Y32170D01*
X51460D01*
X51480Y32150D01*
X51460Y32130D01*
X51480D01*
X51500Y32110D01*
X52350Y34770D02*
X52390Y34810D01*
X52430D01*
X52390Y34850D01*
X52430Y34890D01*
X52390D01*
X52350Y34930D01*
X52310Y34890D01*
X52270D01*
X52310Y34850D01*
X52270Y34810D01*
X52310D01*
X52350Y34770D01*
Y34810D02*
X52370Y34830D01*
X52390D01*
X52370Y34850D01*
X52390Y34870D01*
X52370D01*
X52350Y34890D01*
X52330Y34870D01*
X52310D01*
X52330Y34850D01*
X52310Y34830D01*
X52330D01*
X52350Y34810D01*
X50750Y34820D02*
X50790Y34860D01*
X50830D01*
X50790Y34900D01*
X50830Y34940D01*
X50790D01*
X50750Y34980D01*
X50710Y34940D01*
X50670D01*
X50710Y34900D01*
X50670Y34860D01*
X50710D01*
X50750Y34820D01*
Y34860D02*
X50770Y34880D01*
X50790D01*
X50770Y34900D01*
X50790Y34920D01*
X50770D01*
X50750Y34940D01*
X50730Y34920D01*
X50710D01*
X50730Y34900D01*
X50710Y34880D01*
X50730D01*
X50750Y34860D01*
X47650Y34820D02*
X47690Y34860D01*
X47730D01*
X47690Y34900D01*
X47730Y34940D01*
X47690D01*
X47650Y34980D01*
X47610Y34940D01*
X47570D01*
X47610Y34900D01*
X47570Y34860D01*
X47610D01*
X47650Y34820D01*
Y34860D02*
X47670Y34880D01*
X47690D01*
X47670Y34900D01*
X47690Y34920D01*
X47670D01*
X47650Y34940D01*
X47630Y34920D01*
X47610D01*
X47630Y34900D01*
X47610Y34880D01*
X47630D01*
X47650Y34860D01*
X49200Y34820D02*
X49240Y34860D01*
X49280D01*
X49240Y34900D01*
X49280Y34940D01*
X49240D01*
X49200Y34980D01*
X49160Y34940D01*
X49120D01*
X49160Y34900D01*
X49120Y34860D01*
X49160D01*
X49200Y34820D01*
Y34860D02*
X49220Y34880D01*
X49240D01*
X49220Y34900D01*
X49240Y34920D01*
X49220D01*
X49200Y34940D01*
X49180Y34920D01*
X49160D01*
X49180Y34900D01*
X49160Y34880D01*
X49180D01*
X49200Y34860D01*
Y33070D02*
X49240Y33110D01*
X49280D01*
X49240Y33150D01*
X49280Y33190D01*
X49240D01*
X49200Y33230D01*
X49160Y33190D01*
X49120D01*
X49160Y33150D01*
X49120Y33110D01*
X49160D01*
X49200Y33070D01*
Y33110D02*
X49220Y33130D01*
X49240D01*
X49220Y33150D01*
X49240Y33170D01*
X49220D01*
X49200Y33190D01*
X49180Y33170D01*
X49160D01*
X49180Y33150D01*
X49160Y33130D01*
X49180D01*
X49200Y33110D01*
X34795Y21770D02*
X34835Y21810D01*
X34875D01*
X34835Y21850D01*
X34875Y21890D01*
X34835D01*
X34795Y21930D01*
X34755Y21890D01*
X34715D01*
X34755Y21850D01*
X34715Y21810D01*
X34755D01*
X34795Y21770D01*
Y21810D02*
X34815Y21830D01*
X34835D01*
X34815Y21850D01*
X34835Y21870D01*
X34815D01*
X34795Y21890D01*
X34775Y21870D01*
X34755D01*
X34775Y21850D01*
X34755Y21830D01*
X34775D01*
X34795Y21810D01*
X36900Y21570D02*
X36940Y21610D01*
X36980D01*
X36940Y21650D01*
X36980Y21690D01*
X36940D01*
X36900Y21730D01*
X36860Y21690D01*
X36820D01*
X36860Y21650D01*
X36820Y21610D01*
X36860D01*
X36900Y21570D01*
Y21610D02*
X36920Y21630D01*
X36940D01*
X36920Y21650D01*
X36940Y21670D01*
X36920D01*
X36900Y21690D01*
X36880Y21670D01*
X36860D01*
X36880Y21650D01*
X36860Y21630D01*
X36880D01*
X36900Y21610D01*
X34750Y20220D02*
X34790Y20260D01*
X34830D01*
X34790Y20300D01*
X34830Y20340D01*
X34790D01*
X34750Y20380D01*
X34710Y20340D01*
X34670D01*
X34710Y20300D01*
X34670Y20260D01*
X34710D01*
X34750Y20220D01*
Y20260D02*
X34770Y20280D01*
X34790D01*
X34770Y20300D01*
X34790Y20320D01*
X34770D01*
X34750Y20340D01*
X34730Y20320D01*
X34710D01*
X34730Y20300D01*
X34710Y20280D01*
X34730D01*
X34750Y20260D01*
Y20970D02*
X34790Y21010D01*
X34830D01*
X34790Y21050D01*
X34830Y21090D01*
X34790D01*
X34750Y21130D01*
X34710Y21090D01*
X34670D01*
X34710Y21050D01*
X34670Y21010D01*
X34710D01*
X34750Y20970D01*
Y21010D02*
X34770Y21030D01*
X34790D01*
X34770Y21050D01*
X34790Y21070D01*
X34770D01*
X34750Y21090D01*
X34730Y21070D01*
X34710D01*
X34730Y21050D01*
X34710Y21030D01*
X34730D01*
X34750Y21010D01*
X39641Y23779D02*
X39681Y23819D01*
X39721D01*
X39681Y23859D01*
X39721Y23899D01*
X39681D01*
X39641Y23939D01*
X39601Y23899D01*
X39561D01*
X39601Y23859D01*
X39561Y23819D01*
X39601D01*
X39641Y23779D01*
Y23819D02*
X39661Y23839D01*
X39681D01*
X39661Y23859D01*
X39681Y23879D01*
X39661D01*
X39641Y23899D01*
X39621Y23879D01*
X39601D01*
X39621Y23859D01*
X39601Y23839D01*
X39621D01*
X39641Y23819D01*
X36150Y17070D02*
X36190Y17110D01*
X36230D01*
X36190Y17150D01*
X36230Y17190D01*
X36190D01*
X36150Y17230D01*
X36110Y17190D01*
X36070D01*
X36110Y17150D01*
X36070Y17110D01*
X36110D01*
X36150Y17070D01*
Y17110D02*
X36170Y17130D01*
X36190D01*
X36170Y17150D01*
X36190Y17170D01*
X36170D01*
X36150Y17190D01*
X36130Y17170D01*
X36110D01*
X36130Y17150D01*
X36110Y17130D01*
X36130D01*
X36150Y17110D01*
X39650Y17415D02*
X39690Y17455D01*
X39730D01*
X39690Y17495D01*
X39730Y17535D01*
X39690D01*
X39650Y17575D01*
X39610Y17535D01*
X39570D01*
X39610Y17495D01*
X39570Y17455D01*
X39610D01*
X39650Y17415D01*
Y17455D02*
X39670Y17475D01*
X39690D01*
X39670Y17495D01*
X39690Y17515D01*
X39670D01*
X39650Y17535D01*
X39630Y17515D01*
X39610D01*
X39630Y17495D01*
X39610Y17475D01*
X39630D01*
X39650Y17455D01*
Y18865D02*
X39690Y18905D01*
X39730D01*
X39690Y18945D01*
X39730Y18985D01*
X39690D01*
X39650Y19025D01*
X39610Y18985D01*
X39570D01*
X39610Y18945D01*
X39570Y18905D01*
X39610D01*
X39650Y18865D01*
Y18905D02*
X39670Y18925D01*
X39690D01*
X39670Y18945D01*
X39690Y18965D01*
X39670D01*
X39650Y18985D01*
X39630Y18965D01*
X39610D01*
X39630Y18945D01*
X39610Y18925D01*
X39630D01*
X39650Y18905D01*
Y20370D02*
X39690Y20410D01*
X39730D01*
X39690Y20450D01*
X39730Y20490D01*
X39690D01*
X39650Y20530D01*
X39610Y20490D01*
X39570D01*
X39610Y20450D01*
X39570Y20410D01*
X39610D01*
X39650Y20370D01*
Y20410D02*
X39670Y20430D01*
X39690D01*
X39670Y20450D01*
X39690Y20470D01*
X39670D01*
X39650Y20490D01*
X39630Y20470D01*
X39610D01*
X39630Y20450D01*
X39610Y20430D01*
X39630D01*
X39650Y20410D01*
X36750Y17820D02*
X36790Y17860D01*
X36830D01*
X36790Y17900D01*
X36830Y17940D01*
X36790D01*
X36750Y17980D01*
X36710Y17940D01*
X36670D01*
X36710Y17900D01*
X36670Y17860D01*
X36710D01*
X36750Y17820D01*
Y17860D02*
X36770Y17880D01*
X36790D01*
X36770Y17900D01*
X36790Y17920D01*
X36770D01*
X36750Y17940D01*
X36730Y17920D01*
X36710D01*
X36730Y17900D01*
X36710Y17880D01*
X36730D01*
X36750Y17860D01*
X36700Y20220D02*
X36740Y20260D01*
X36780D01*
X36740Y20300D01*
X36780Y20340D01*
X36740D01*
X36700Y20380D01*
X36660Y20340D01*
X36620D01*
X36660Y20300D01*
X36620Y20260D01*
X36660D01*
X36700Y20220D01*
Y20260D02*
X36720Y20280D01*
X36740D01*
X36720Y20300D01*
X36740Y20320D01*
X36720D01*
X36700Y20340D01*
X36680Y20320D01*
X36660D01*
X36680Y20300D01*
X36660Y20280D01*
X36680D01*
X36700Y20260D01*
Y20970D02*
X36740Y21010D01*
X36780D01*
X36740Y21050D01*
X36780Y21090D01*
X36740D01*
X36700Y21130D01*
X36660Y21090D01*
X36620D01*
X36660Y21050D01*
X36620Y21010D01*
X36660D01*
X36700Y20970D01*
Y21010D02*
X36720Y21030D01*
X36740D01*
X36720Y21050D01*
X36740Y21070D01*
X36720D01*
X36700Y21090D01*
X36680Y21070D01*
X36660D01*
X36680Y21050D01*
X36660Y21030D01*
X36680D01*
X36700Y21010D01*
X34800Y17870D02*
X34840Y17910D01*
X34880D01*
X34840Y17950D01*
X34880Y17990D01*
X34840D01*
X34800Y18030D01*
X34760Y17990D01*
X34720D01*
X34760Y17950D01*
X34720Y17910D01*
X34760D01*
X34800Y17870D01*
Y17910D02*
X34820Y17930D01*
X34840D01*
X34820Y17950D01*
X34840Y17970D01*
X34820D01*
X34800Y17990D01*
X34780Y17970D01*
X34760D01*
X34780Y17950D01*
X34760Y17930D01*
X34780D01*
X34800Y17910D01*
X41667Y24170D02*
X41707Y24210D01*
X41747D01*
X41707Y24250D01*
X41747Y24290D01*
X41707D01*
X41667Y24330D01*
X41627Y24290D01*
X41587D01*
X41627Y24250D01*
X41587Y24210D01*
X41627D01*
X41667Y24170D01*
Y24210D02*
X41687Y24230D01*
X41707D01*
X41687Y24250D01*
X41707Y24270D01*
X41687D01*
X41667Y24290D01*
X41647Y24270D01*
X41627D01*
X41647Y24250D01*
X41627Y24230D01*
X41647D01*
X41667Y24210D01*
X41200Y18070D02*
X41240Y18110D01*
X41280D01*
X41240Y18150D01*
X41280Y18190D01*
X41240D01*
X41200Y18230D01*
X41160Y18190D01*
X41120D01*
X41160Y18150D01*
X41120Y18110D01*
X41160D01*
X41200Y18070D01*
Y18110D02*
X41220Y18130D01*
X41240D01*
X41220Y18150D01*
X41240Y18170D01*
X41220D01*
X41200Y18190D01*
X41180Y18170D01*
X41160D01*
X41180Y18150D01*
X41160Y18130D01*
X41180D01*
X41200Y18110D01*
X41650Y19220D02*
X41690Y19260D01*
X41730D01*
X41690Y19300D01*
X41730Y19340D01*
X41690D01*
X41650Y19380D01*
X41610Y19340D01*
X41570D01*
X41610Y19300D01*
X41570Y19260D01*
X41610D01*
X41650Y19220D01*
Y19260D02*
X41670Y19280D01*
X41690D01*
X41670Y19300D01*
X41690Y19320D01*
X41670D01*
X41650Y19340D01*
X41630Y19320D01*
X41610D01*
X41630Y19300D01*
X41610Y19280D01*
X41630D01*
X41650Y19260D01*
Y25220D02*
X41690Y25260D01*
X41730D01*
X41690Y25300D01*
X41730Y25340D01*
X41690D01*
X41650Y25380D01*
X41610Y25340D01*
X41570D01*
X41610Y25300D01*
X41570Y25260D01*
X41610D01*
X41650Y25220D01*
Y25260D02*
X41670Y25280D01*
X41690D01*
X41670Y25300D01*
X41690Y25320D01*
X41670D01*
X41650Y25340D01*
X41630Y25320D01*
X41610D01*
X41630Y25300D01*
X41610Y25280D01*
X41630D01*
X41650Y25260D01*
X41250Y25820D02*
X41290Y25860D01*
X41330D01*
X41290Y25900D01*
X41330Y25940D01*
X41290D01*
X41250Y25980D01*
X41210Y25940D01*
X41170D01*
X41210Y25900D01*
X41170Y25860D01*
X41210D01*
X41250Y25820D01*
Y25860D02*
X41270Y25880D01*
X41290D01*
X41270Y25900D01*
X41290Y25920D01*
X41270D01*
X41250Y25940D01*
X41230Y25920D01*
X41210D01*
X41230Y25900D01*
X41210Y25880D01*
X41230D01*
X41250Y25860D01*
X39650Y16870D02*
X39690Y16910D01*
X39730D01*
X39690Y16950D01*
X39730Y16990D01*
X39690D01*
X39650Y17030D01*
X39610Y16990D01*
X39570D01*
X39610Y16950D01*
X39570Y16910D01*
X39610D01*
X39650Y16870D01*
Y16910D02*
X39670Y16930D01*
X39690D01*
X39670Y16950D01*
X39690Y16970D01*
X39670D01*
X39650Y16990D01*
X39630Y16970D01*
X39610D01*
X39630Y16950D01*
X39610Y16930D01*
X39630D01*
X39650Y16910D01*
X41650Y20170D02*
X41690Y20210D01*
X41730D01*
X41690Y20250D01*
X41730Y20290D01*
X41690D01*
X41650Y20330D01*
X41610Y20290D01*
X41570D01*
X41610Y20250D01*
X41570Y20210D01*
X41610D01*
X41650Y20170D01*
Y20210D02*
X41670Y20230D01*
X41690D01*
X41670Y20250D01*
X41690Y20270D01*
X41670D01*
X41650Y20290D01*
X41630Y20270D01*
X41610D01*
X41630Y20250D01*
X41610Y20230D01*
X41630D01*
X41650Y20210D01*
X41667Y23170D02*
X41707Y23210D01*
X41747D01*
X41707Y23250D01*
X41747Y23290D01*
X41707D01*
X41667Y23330D01*
X41627Y23290D01*
X41587D01*
X41627Y23250D01*
X41587Y23210D01*
X41627D01*
X41667Y23170D01*
Y23210D02*
X41687Y23230D01*
X41707D01*
X41687Y23250D01*
X41707Y23270D01*
X41687D01*
X41667Y23290D01*
X41647Y23270D01*
X41627D01*
X41647Y23250D01*
X41627Y23230D01*
X41647D01*
X41667Y23210D01*
X34250Y15020D02*
X34290Y15060D01*
X34330D01*
X34290Y15100D01*
X34330Y15140D01*
X34290D01*
X34250Y15180D01*
X34210Y15140D01*
X34170D01*
X34210Y15100D01*
X34170Y15060D01*
X34210D01*
X34250Y15020D01*
Y15060D02*
X34270Y15080D01*
X34290D01*
X34270Y15100D01*
X34290Y15120D01*
X34270D01*
X34250Y15140D01*
X34230Y15120D01*
X34210D01*
X34230Y15100D01*
X34210Y15080D01*
X34230D01*
X34250Y15060D01*
X34750Y13920D02*
X34790Y13960D01*
X34830D01*
X34790Y14000D01*
X34830Y14040D01*
X34790D01*
X34750Y14080D01*
X34710Y14040D01*
X34670D01*
X34710Y14000D01*
X34670Y13960D01*
X34710D01*
X34750Y13920D01*
Y13960D02*
X34770Y13980D01*
X34790D01*
X34770Y14000D01*
X34790Y14020D01*
X34770D01*
X34750Y14040D01*
X34730Y14020D01*
X34710D01*
X34730Y14000D01*
X34710Y13980D01*
X34730D01*
X34750Y13960D01*
X38700Y13920D02*
X38740Y13960D01*
X38780D01*
X38740Y14000D01*
X38780Y14040D01*
X38740D01*
X38700Y14080D01*
X38660Y14040D01*
X38620D01*
X38660Y14000D01*
X38620Y13960D01*
X38660D01*
X38700Y13920D01*
Y13960D02*
X38720Y13980D01*
X38740D01*
X38720Y14000D01*
X38740Y14020D01*
X38720D01*
X38700Y14040D01*
X38680Y14020D01*
X38660D01*
X38680Y14000D01*
X38660Y13980D01*
X38680D01*
X38700Y13960D01*
X41650Y13870D02*
X41690Y13910D01*
X41730D01*
X41690Y13950D01*
X41730Y13990D01*
X41690D01*
X41650Y14030D01*
X41610Y13990D01*
X41570D01*
X41610Y13950D01*
X41570Y13910D01*
X41610D01*
X41650Y13870D01*
Y13910D02*
X41670Y13930D01*
X41690D01*
X41670Y13950D01*
X41690Y13970D01*
X41670D01*
X41650Y13990D01*
X41630Y13970D01*
X41610D01*
X41630Y13950D01*
X41610Y13930D01*
X41630D01*
X41650Y13910D01*
X42700Y13920D02*
X42740Y13960D01*
X42780D01*
X42740Y14000D01*
X42780Y14040D01*
X42740D01*
X42700Y14080D01*
X42660Y14040D01*
X42620D01*
X42660Y14000D01*
X42620Y13960D01*
X42660D01*
X42700Y13920D01*
Y13960D02*
X42720Y13980D01*
X42740D01*
X42720Y14000D01*
X42740Y14020D01*
X42720D01*
X42700Y14040D01*
X42680Y14020D01*
X42660D01*
X42680Y14000D01*
X42660Y13980D01*
X42680D01*
X42700Y13960D01*
X40700Y13920D02*
X40740Y13960D01*
X40780D01*
X40740Y14000D01*
X40780Y14040D01*
X40740D01*
X40700Y14080D01*
X40660Y14040D01*
X40620D01*
X40660Y14000D01*
X40620Y13960D01*
X40660D01*
X40700Y13920D01*
Y13960D02*
X40720Y13980D01*
X40740D01*
X40720Y14000D01*
X40740Y14020D01*
X40720D01*
X40700Y14040D01*
X40680Y14020D01*
X40660D01*
X40680Y14000D01*
X40660Y13980D01*
X40680D01*
X40700Y13960D01*
X39700Y13920D02*
X39740Y13960D01*
X39780D01*
X39740Y14000D01*
X39780Y14040D01*
X39740D01*
X39700Y14080D01*
X39660Y14040D01*
X39620D01*
X39660Y14000D01*
X39620Y13960D01*
X39660D01*
X39700Y13920D01*
Y13960D02*
X39720Y13980D01*
X39740D01*
X39720Y14000D01*
X39740Y14020D01*
X39720D01*
X39700Y14040D01*
X39680Y14020D01*
X39660D01*
X39680Y14000D01*
X39660Y13980D01*
X39680D01*
X39700Y13960D01*
X37750Y13920D02*
X37790Y13960D01*
X37830D01*
X37790Y14000D01*
X37830Y14040D01*
X37790D01*
X37750Y14080D01*
X37710Y14040D01*
X37670D01*
X37710Y14000D01*
X37670Y13960D01*
X37710D01*
X37750Y13920D01*
Y13960D02*
X37770Y13980D01*
X37790D01*
X37770Y14000D01*
X37790Y14020D01*
X37770D01*
X37750Y14040D01*
X37730Y14020D01*
X37710D01*
X37730Y14000D01*
X37710Y13980D01*
X37730D01*
X37750Y13960D01*
X36750Y13920D02*
X36790Y13960D01*
X36830D01*
X36790Y14000D01*
X36830Y14040D01*
X36790D01*
X36750Y14080D01*
X36710Y14040D01*
X36670D01*
X36710Y14000D01*
X36670Y13960D01*
X36710D01*
X36750Y13920D01*
Y13960D02*
X36770Y13980D01*
X36790D01*
X36770Y14000D01*
X36790Y14020D01*
X36770D01*
X36750Y14040D01*
X36730Y14020D01*
X36710D01*
X36730Y14000D01*
X36710Y13980D01*
X36730D01*
X36750Y13960D01*
X35750Y13920D02*
X35790Y13960D01*
X35830D01*
X35790Y14000D01*
X35830Y14040D01*
X35790D01*
X35750Y14080D01*
X35710Y14040D01*
X35670D01*
X35710Y14000D01*
X35670Y13960D01*
X35710D01*
X35750Y13920D01*
Y13960D02*
X35770Y13980D01*
X35790D01*
X35770Y14000D01*
X35790Y14020D01*
X35770D01*
X35750Y14040D01*
X35730Y14020D01*
X35710D01*
X35730Y14000D01*
X35710Y13980D01*
X35730D01*
X35750Y13960D01*
X33750Y13920D02*
X33790Y13960D01*
X33830D01*
X33790Y14000D01*
X33830Y14040D01*
X33790D01*
X33750Y14080D01*
X33710Y14040D01*
X33670D01*
X33710Y14000D01*
X33670Y13960D01*
X33710D01*
X33750Y13920D01*
Y13960D02*
X33770Y13980D01*
X33790D01*
X33770Y14000D01*
X33790Y14020D01*
X33770D01*
X33750Y14040D01*
X33730Y14020D01*
X33710D01*
X33730Y14000D01*
X33710Y13980D01*
X33730D01*
X33750Y13960D01*
X29200Y39570D02*
X29240Y39610D01*
X29280D01*
X29240Y39650D01*
X29280Y39690D01*
X29240D01*
X29200Y39730D01*
X29160Y39690D01*
X29120D01*
X29160Y39650D01*
X29120Y39610D01*
X29160D01*
X29200Y39570D01*
Y39610D02*
X29220Y39630D01*
X29240D01*
X29220Y39650D01*
X29240Y39670D01*
X29220D01*
X29200Y39690D01*
X29180Y39670D01*
X29160D01*
X29180Y39650D01*
X29160Y39630D01*
X29180D01*
X29200Y39610D01*
X29950Y39570D02*
X29990Y39610D01*
X30030D01*
X29990Y39650D01*
X30030Y39690D01*
X29990D01*
X29950Y39730D01*
X29910Y39690D01*
X29870D01*
X29910Y39650D01*
X29870Y39610D01*
X29910D01*
X29950Y39570D01*
Y39610D02*
X29970Y39630D01*
X29990D01*
X29970Y39650D01*
X29990Y39670D01*
X29970D01*
X29950Y39690D01*
X29930Y39670D01*
X29910D01*
X29930Y39650D01*
X29910Y39630D01*
X29930D01*
X29950Y39610D01*
X30550Y49020D02*
X30590Y49060D01*
X30630D01*
X30590Y49100D01*
X30630Y49140D01*
X30590D01*
X30550Y49180D01*
X30510Y49140D01*
X30470D01*
X30510Y49100D01*
X30470Y49060D01*
X30510D01*
X30550Y49020D01*
Y49060D02*
X30570Y49080D01*
X30590D01*
X30570Y49100D01*
X30590Y49120D01*
X30570D01*
X30550Y49140D01*
X30530Y49120D01*
X30510D01*
X30530Y49100D01*
X30510Y49080D01*
X30530D01*
X30550Y49060D01*
X22300Y45670D02*
X22220Y45830D01*
X22380D01*
X22300Y45670D01*
Y45710D02*
X22260Y45790D01*
X22340D01*
X22300Y45710D01*
X23825Y47770D02*
X23745Y47930D01*
X23905D01*
X23825Y47770D01*
Y47810D02*
X23785Y47890D01*
X23865D01*
X23825Y47810D01*
X36250Y48520D02*
X36290Y48560D01*
X36330D01*
X36290Y48600D01*
X36330Y48640D01*
X36290D01*
X36250Y48680D01*
X36210Y48640D01*
X36170D01*
X36210Y48600D01*
X36170Y48560D01*
X36210D01*
X36250Y48520D01*
Y48560D02*
X36270Y48580D01*
X36290D01*
X36270Y48600D01*
X36290Y48620D01*
X36270D01*
X36250Y48640D01*
X36230Y48620D01*
X36210D01*
X36230Y48600D01*
X36210Y48580D01*
X36230D01*
X36250Y48560D01*
Y47620D02*
X36290Y47660D01*
X36330D01*
X36290Y47700D01*
X36330Y47740D01*
X36290D01*
X36250Y47780D01*
X36210Y47740D01*
X36170D01*
X36210Y47700D01*
X36170Y47660D01*
X36210D01*
X36250Y47620D01*
Y47660D02*
X36270Y47680D01*
X36290D01*
X36270Y47700D01*
X36290Y47720D01*
X36270D01*
X36250Y47740D01*
X36230Y47720D01*
X36210D01*
X36230Y47700D01*
X36210Y47680D01*
X36230D01*
X36250Y47660D01*
X24500Y47770D02*
X24420Y47930D01*
X24580D01*
X24500Y47770D01*
Y47810D02*
X24460Y47890D01*
X24540D01*
X24500Y47810D01*
X23150Y47770D02*
X23070Y47930D01*
X23230D01*
X23150Y47770D01*
Y47810D02*
X23110Y47890D01*
X23190D01*
X23150Y47810D01*
D147*
X23030Y38798D02*
G03*
X23030Y38798I-80J0D01*
G01*
X25030Y38802D02*
G03*
X25030Y38802I-80J0D01*
G01*
X24030Y38798D02*
G03*
X24030Y38798I-80J0D01*
G01*
X41230D02*
G03*
X41230Y38798I-80J0D01*
G01*
X43230Y38802D02*
G03*
X43230Y38802I-80J0D01*
G01*
X42230Y38798D02*
G03*
X42230Y38798I-80J0D01*
G01*
X36680D02*
G03*
X36680Y38798I-80J0D01*
G01*
X38680Y38802D02*
G03*
X38680Y38802I-80J0D01*
G01*
X37680Y38798D02*
G03*
X37680Y38798I-80J0D01*
G01*
X32130D02*
G03*
X32130Y38798I-80J0D01*
G01*
X34130Y38802D02*
G03*
X34130Y38802I-80J0D01*
G01*
X33130Y38798D02*
G03*
X33130Y38798I-80J0D01*
G01*
X27580D02*
G03*
X27580Y38798I-80J0D01*
G01*
X29580Y38802D02*
G03*
X29580Y38802I-80J0D01*
G01*
X28580Y38798D02*
G03*
X28580Y38798I-80J0D01*
G01*
X40049Y28321D02*
G03*
X40049Y28321I-80J0D01*
G01*
X40836D02*
G03*
X40836Y28321I-80J0D01*
G01*
X41624D02*
G03*
X41624Y28321I-80J0D01*
G01*
X42411Y28317D02*
G03*
X42411Y28317I-80J0D01*
G01*
X27318Y47821D02*
G03*
X27318Y47821I-80J0D01*
G01*
X28105D02*
G03*
X28105Y47821I-80J0D01*
G01*
X28893D02*
G03*
X28893Y47821I-80J0D01*
G01*
X29680Y47817D02*
G03*
X29680Y47817I-80J0D01*
G01*
X27430Y45650D02*
G03*
X27430Y45650I-80J0D01*
G01*
Y44650D02*
G03*
X27430Y44650I-80J0D01*
G01*
X31599Y47821D02*
G03*
X31599Y47821I-80J0D01*
G01*
X32386D02*
G03*
X32386Y47821I-80J0D01*
G01*
X33174D02*
G03*
X33174Y47821I-80J0D01*
G01*
X33961Y47817D02*
G03*
X33961Y47817I-80J0D01*
G01*
X34580Y32300D02*
G03*
X34580Y32300I-80J0D01*
G01*
Y33300D02*
G03*
X34580Y33300I-80J0D01*
G01*
X35580Y32300D02*
G03*
X35580Y32300I-80J0D01*
G01*
Y33300D02*
G03*
X35580Y33300I-80J0D01*
G01*
X36580Y32300D02*
G03*
X36580Y32300I-80J0D01*
G01*
Y33300D02*
G03*
X36580Y33300I-80J0D01*
G01*
X37580Y32300D02*
G03*
X37580Y32300I-80J0D01*
G01*
Y33300D02*
G03*
X37580Y33300I-80J0D01*
G01*
X38580Y32300D02*
G03*
X38580Y32300I-80J0D01*
G01*
Y33300D02*
G03*
X38580Y33300I-80J0D01*
G01*
X39580Y32300D02*
G03*
X39580Y32300I-80J0D01*
G01*
Y33300D02*
G03*
X39580Y33300I-80J0D01*
G01*
X40580Y32300D02*
G03*
X40580Y32300I-80J0D01*
G01*
Y33300D02*
G03*
X40580Y33300I-80J0D01*
G01*
X41580Y32300D02*
G03*
X41580Y32300I-80J0D01*
G01*
Y33300D02*
G03*
X41580Y33300I-80J0D01*
G01*
X42580Y32300D02*
G03*
X42580Y32300I-80J0D01*
G01*
Y33300D02*
G03*
X42580Y33300I-80J0D01*
G01*
X43580Y32300D02*
G03*
X43580Y32300I-80J0D01*
G01*
Y33300D02*
G03*
X43580Y33300I-80J0D01*
G01*
D148*
X40009Y28321D02*
G03*
X40009Y28321I-40J0D01*
G01*
X40796D02*
G03*
X40796Y28321I-40J0D01*
G01*
X41584D02*
G03*
X41584Y28321I-40J0D01*
G01*
X42371Y28317D02*
G03*
X42371Y28317I-40J0D01*
G01*
X27278Y47821D02*
G03*
X27278Y47821I-40J0D01*
G01*
X28065D02*
G03*
X28065Y47821I-40J0D01*
G01*
X28853D02*
G03*
X28853Y47821I-40J0D01*
G01*
X29640Y47817D02*
G03*
X29640Y47817I-40J0D01*
G01*
X31559Y47821D02*
G03*
X31559Y47821I-40J0D01*
G01*
X32346D02*
G03*
X32346Y47821I-40J0D01*
G01*
X33134D02*
G03*
X33134Y47821I-40J0D01*
G01*
X33921Y47817D02*
G03*
X33921Y47817I-40J0D01*
G01*
M02*
