G04*
G04 #@! TF.GenerationSoftware,Altium Limited,Altium Designer,20.2.5 (213)*
G04*
G04 Layer_Color=32768*
%FSLAX24Y24*%
%MOIN*%
G70*
G04*
G04 #@! TF.SameCoordinates,94A92F66-6131-4E5E-9460-D235825817E1*
G04*
G04*
G04 #@! TF.FilePolarity,Positive*
G04*
G01*
G75*
%ADD11C,0.0118*%
%ADD12C,0.0236*%
%ADD14C,0.0098*%
%ADD142C,0.0157*%
%ADD145C,0.0079*%
G36*
X24362Y48757D02*
X24268D01*
Y48915D01*
X24362D01*
Y48757D01*
D02*
G37*
G36*
X23339Y48576D02*
X23150D01*
Y48624D01*
X23339D01*
Y48576D01*
D02*
G37*
G36*
X24244Y48624D02*
X24315D01*
Y48576D01*
X24244D01*
Y48443D01*
X24197D01*
Y48576D01*
X24126D01*
Y48624D01*
X24197D01*
Y48757D01*
X24244D01*
Y48624D01*
D02*
G37*
G36*
X24362Y48285D02*
X24268D01*
Y48443D01*
X24362D01*
Y48285D01*
D02*
G37*
G36*
X25031Y48187D02*
X22669D01*
Y49959D01*
X22787D01*
Y48266D01*
X24913D01*
Y49959D01*
X25031D01*
Y48187D01*
D02*
G37*
G36*
X34627Y47150D02*
X33485D01*
Y47268D01*
X34509D01*
Y48882D01*
X30848D01*
Y47268D01*
X31989D01*
Y47150D01*
X30730D01*
Y49000D01*
X34627D01*
Y47150D01*
D02*
G37*
G36*
X30346D02*
X29204D01*
Y47268D01*
X30228D01*
Y48882D01*
X26567D01*
Y47268D01*
X27708D01*
Y47150D01*
X26448D01*
Y49000D01*
X30346D01*
Y47150D01*
D02*
G37*
G36*
X30339Y45798D02*
X30561D01*
Y45719D01*
X30339D01*
Y45602D01*
X30261D01*
Y45719D01*
X30039D01*
Y45798D01*
X30261D01*
Y45915D01*
X30339D01*
Y45798D01*
D02*
G37*
G36*
X29039Y45602D02*
X28961D01*
Y45915D01*
X29039D01*
Y45602D01*
D02*
G37*
G36*
X30339Y43985D02*
X30261D01*
Y44298D01*
X30339D01*
Y43985D01*
D02*
G37*
G36*
X29039Y44181D02*
X29261D01*
Y44102D01*
X29039D01*
Y43985D01*
X28961D01*
Y44102D01*
X28739D01*
Y44181D01*
X28961D01*
Y44298D01*
X29039D01*
Y44181D01*
D02*
G37*
G36*
X33939Y42802D02*
X33861D01*
Y43115D01*
X33939D01*
Y42802D01*
D02*
G37*
G36*
X32561Y42998D02*
X32782D01*
Y42919D01*
X32561D01*
Y42802D01*
X32482D01*
Y42919D01*
X32261D01*
Y42998D01*
X32482D01*
Y43115D01*
X32561D01*
Y42998D01*
D02*
G37*
G36*
X31189D02*
X31411D01*
Y42919D01*
X31189D01*
Y42802D01*
X31111D01*
Y42919D01*
X30889D01*
Y42998D01*
X31111D01*
Y43115D01*
X31189D01*
Y42998D01*
D02*
G37*
G36*
X22189Y42552D02*
X22111D01*
Y42865D01*
X22189D01*
Y42552D01*
D02*
G37*
G36*
X33939Y41381D02*
X34161D01*
Y41302D01*
X33939D01*
Y41185D01*
X33861D01*
Y41302D01*
X33639D01*
Y41381D01*
X33861D01*
Y41498D01*
X33939D01*
Y41381D01*
D02*
G37*
G36*
X32561Y41185D02*
X32482D01*
Y41498D01*
X32561D01*
Y41185D01*
D02*
G37*
G36*
X31189D02*
X31111D01*
Y41498D01*
X31189D01*
Y41185D01*
D02*
G37*
G36*
X22189Y41131D02*
X22411D01*
Y41052D01*
X22189D01*
Y40935D01*
X22111D01*
Y41052D01*
X21889D01*
Y41131D01*
X22111D01*
Y41248D01*
X22189D01*
Y41131D01*
D02*
G37*
G36*
X43077Y27650D02*
X41935D01*
Y27768D01*
X42959D01*
Y29382D01*
X39298D01*
Y27768D01*
X40439D01*
Y27650D01*
X39180D01*
Y29500D01*
X43077D01*
Y27650D01*
D02*
G37*
G36*
X41781Y25846D02*
X41569D01*
Y25897D01*
X41781D01*
Y25846D01*
D02*
G37*
G36*
X42330Y25900D02*
X42411D01*
Y25848D01*
X42330D01*
Y25767D01*
X42279D01*
Y25848D01*
X42198D01*
Y25900D01*
X42279D01*
Y25980D01*
X42330D01*
Y25900D01*
D02*
G37*
G36*
X41781Y24858D02*
X41569D01*
Y24909D01*
X41781D01*
Y24858D01*
D02*
G37*
G36*
X42330Y24912D02*
X42411D01*
Y24861D01*
X42330D01*
Y24780D01*
X42279D01*
Y24861D01*
X42198D01*
Y24912D01*
X42279D01*
Y24992D01*
X42330D01*
Y24912D01*
D02*
G37*
G36*
X41781Y23870D02*
X41569D01*
Y23921D01*
X41781D01*
Y23870D01*
D02*
G37*
G36*
X42330Y23924D02*
X42411D01*
Y23873D01*
X42330D01*
Y23792D01*
X42279D01*
Y23873D01*
X42198D01*
Y23924D01*
X42279D01*
Y24005D01*
X42330D01*
Y23924D01*
D02*
G37*
G36*
X41781Y22882D02*
X41569D01*
Y22934D01*
X41781D01*
Y22882D01*
D02*
G37*
G36*
X42330Y22936D02*
X42411D01*
Y22885D01*
X42330D01*
Y22804D01*
X42279D01*
Y22885D01*
X42198D01*
Y22936D01*
X42279D01*
Y23017D01*
X42330D01*
Y22936D01*
D02*
G37*
G36*
X41781Y21895D02*
X41569D01*
Y21946D01*
X41781D01*
Y21895D01*
D02*
G37*
G36*
X42330Y21949D02*
X42411D01*
Y21897D01*
X42330D01*
Y21817D01*
X42279D01*
Y21897D01*
X42198D01*
Y21949D01*
X42279D01*
Y22029D01*
X42330D01*
Y21949D01*
D02*
G37*
G36*
X41781Y20907D02*
X41569D01*
Y20958D01*
X41781D01*
Y20907D01*
D02*
G37*
G36*
X42330Y20961D02*
X42411D01*
Y20910D01*
X42330D01*
Y20829D01*
X42279D01*
Y20910D01*
X42198D01*
Y20961D01*
X42279D01*
Y21041D01*
X42330D01*
Y20961D01*
D02*
G37*
G36*
X41781Y19919D02*
X41569D01*
Y19971D01*
X41781D01*
Y19919D01*
D02*
G37*
G36*
X42330Y19973D02*
X42411D01*
Y19922D01*
X42330D01*
Y19841D01*
X42279D01*
Y19922D01*
X42198D01*
Y19973D01*
X42279D01*
Y20054D01*
X42330D01*
Y19973D01*
D02*
G37*
G36*
X41781Y18932D02*
X41569D01*
Y18983D01*
X41781D01*
Y18932D01*
D02*
G37*
G36*
X42330Y18986D02*
X42411D01*
Y18934D01*
X42330D01*
Y18853D01*
X42279D01*
Y18934D01*
X42198D01*
Y18986D01*
X42279D01*
Y19066D01*
X42330D01*
Y18986D01*
D02*
G37*
G36*
X41781Y17944D02*
X41569D01*
Y17995D01*
X41781D01*
Y17944D01*
D02*
G37*
G36*
X42330Y17998D02*
X42411D01*
Y17947D01*
X42330D01*
Y17866D01*
X42279D01*
Y17947D01*
X42198D01*
Y17998D01*
X42279D01*
Y18078D01*
X42330D01*
Y17998D01*
D02*
G37*
G36*
X41781Y16956D02*
X41569D01*
Y17007D01*
X41781D01*
Y16956D01*
D02*
G37*
G36*
X42330Y17010D02*
X42411D01*
Y16959D01*
X42330D01*
Y16878D01*
X42279D01*
Y16959D01*
X42198D01*
Y17010D01*
X42279D01*
Y17091D01*
X42330D01*
Y17010D01*
D02*
G37*
G36*
X42681Y15080D02*
X42762D01*
Y15029D01*
X42681D01*
Y14948D01*
X42630D01*
Y15029D01*
X42549D01*
Y15080D01*
X42630D01*
Y15160D01*
X42681D01*
Y15080D01*
D02*
G37*
G36*
X41693D02*
X41774D01*
Y15029D01*
X41693D01*
Y14948D01*
X41642D01*
Y15029D01*
X41562D01*
Y15080D01*
X41642D01*
Y15160D01*
X41693D01*
Y15080D01*
D02*
G37*
G36*
X40706D02*
X40787D01*
Y15029D01*
X40706D01*
Y14948D01*
X40654D01*
Y15029D01*
X40574D01*
Y15080D01*
X40654D01*
Y15160D01*
X40706D01*
Y15080D01*
D02*
G37*
G36*
X39718D02*
X39799D01*
Y15029D01*
X39718D01*
Y14948D01*
X39667D01*
Y15029D01*
X39586D01*
Y15080D01*
X39667D01*
Y15160D01*
X39718D01*
Y15080D01*
D02*
G37*
G36*
X38730D02*
X38811D01*
Y15029D01*
X38730D01*
Y14948D01*
X38679D01*
Y15029D01*
X38599D01*
Y15080D01*
X38679D01*
Y15160D01*
X38730D01*
Y15080D01*
D02*
G37*
G36*
X37743D02*
X37823D01*
Y15029D01*
X37743D01*
Y14948D01*
X37691D01*
Y15029D01*
X37611D01*
Y15080D01*
X37691D01*
Y15160D01*
X37743D01*
Y15080D01*
D02*
G37*
G36*
X36755D02*
X36836D01*
Y15029D01*
X36755D01*
Y14948D01*
X36704D01*
Y15029D01*
X36623D01*
Y15080D01*
X36704D01*
Y15160D01*
X36755D01*
Y15080D01*
D02*
G37*
G36*
X35767D02*
X35848D01*
Y15029D01*
X35767D01*
Y14948D01*
X35716D01*
Y15029D01*
X35635D01*
Y15080D01*
X35716D01*
Y15160D01*
X35767D01*
Y15080D01*
D02*
G37*
G36*
X34779D02*
X34860D01*
Y15029D01*
X34779D01*
Y14948D01*
X34728D01*
Y15029D01*
X34648D01*
Y15080D01*
X34728D01*
Y15160D01*
X34779D01*
Y15080D01*
D02*
G37*
G36*
X33792D02*
X33873D01*
Y15029D01*
X33792D01*
Y14948D01*
X33740D01*
Y15029D01*
X33660D01*
Y15080D01*
X33740D01*
Y15160D01*
X33792D01*
Y15080D01*
D02*
G37*
G36*
X42684Y14318D02*
X42633D01*
Y14531D01*
X42684D01*
Y14318D01*
D02*
G37*
G36*
X41696D02*
X41645D01*
Y14531D01*
X41696D01*
Y14318D01*
D02*
G37*
G36*
X40708D02*
X40657D01*
Y14531D01*
X40708D01*
Y14318D01*
D02*
G37*
G36*
X39721D02*
X39669D01*
Y14531D01*
X39721D01*
Y14318D01*
D02*
G37*
G36*
X38733D02*
X38682D01*
Y14531D01*
X38733D01*
Y14318D01*
D02*
G37*
G36*
X37745D02*
X37694D01*
Y14531D01*
X37745D01*
Y14318D01*
D02*
G37*
G36*
X36758D02*
X36706D01*
Y14531D01*
X36758D01*
Y14318D01*
D02*
G37*
G36*
X35770D02*
X35719D01*
Y14531D01*
X35770D01*
Y14318D01*
D02*
G37*
G36*
X34782D02*
X34731D01*
Y14531D01*
X34782D01*
Y14318D01*
D02*
G37*
G36*
X33794D02*
X33743D01*
Y14531D01*
X33794D01*
Y14318D01*
D02*
G37*
D11*
X49081Y38373D02*
G03*
X49081Y38373I-59J0D01*
G01*
X22649Y46943D02*
G03*
X22649Y46943I-59J0D01*
G01*
X44499Y40700D02*
G03*
X44499Y40700I-59J0D01*
G01*
X44549Y45300D02*
G03*
X44549Y45300I-59J0D01*
G01*
D12*
X22318Y38850D02*
G03*
X22318Y38850I-118J0D01*
G01*
X40518D02*
G03*
X40518Y38850I-118J0D01*
G01*
X35968D02*
G03*
X35968Y38850I-118J0D01*
G01*
X31418D02*
G03*
X31418Y38850I-118J0D01*
G01*
X26868D02*
G03*
X26868Y38850I-118J0D01*
G01*
D14*
X22401Y45230D02*
G03*
X22401Y45230I-49J0D01*
G01*
D142*
X54667Y24643D02*
G03*
X54667Y24643I-79J0D01*
G01*
X30817D02*
G03*
X30817Y24643I-79J0D01*
G01*
D145*
X22752Y47502D02*
G03*
X22752Y47502I-39J0D01*
G01*
X25027D02*
G03*
X25027Y47502I-39J0D01*
G01*
X36241Y44826D02*
G03*
X36241Y44826I-39J0D01*
G01*
M02*
