G04*
G04 #@! TF.GenerationSoftware,Altium Limited,Altium Designer,20.2.5 (213)*
G04*
G04 Layer_Color=128*
%FSLAX24Y24*%
%MOIN*%
G70*
G04*
G04 #@! TF.SameCoordinates,94A92F66-6131-4E5E-9460-D235825817E1*
G04*
G04*
G04 #@! TF.FilePolarity,Positive*
G04*
G01*
G75*
%ADD146C,0.0020*%
D146*
X33795Y30135D02*
X34195D01*
X33995Y29935D02*
Y30335D01*
X32815Y28165D02*
X33215D01*
X33015Y27965D02*
Y28365D01*
X34785Y28165D02*
X35185D01*
X34985Y27965D02*
Y28365D01*
X30400Y29400D02*
X30800D01*
X30600Y29200D02*
Y29600D01*
X29400Y29400D02*
X29800D01*
X29600Y29200D02*
Y29600D01*
X28400Y29400D02*
X28800D01*
X28600Y29200D02*
Y29600D01*
X27400Y29400D02*
X27800D01*
X27600Y29200D02*
Y29600D01*
X26400Y29400D02*
X26800D01*
X26600Y29200D02*
Y29600D01*
X25400Y29400D02*
X25800D01*
X25600Y29200D02*
Y29600D01*
X24400Y29400D02*
X24800D01*
X24600Y29200D02*
Y29600D01*
X23400Y29400D02*
X23800D01*
X23600Y29200D02*
Y29600D01*
X22400Y29400D02*
X22800D01*
X22600Y29200D02*
Y29600D01*
X38185Y28165D02*
X38585D01*
X38385Y27965D02*
Y28365D01*
X36215Y28165D02*
X36615D01*
X36415Y27965D02*
Y28365D01*
X37195Y30135D02*
X37595D01*
X37395Y29935D02*
Y30335D01*
X50095Y27735D02*
X50495D01*
X50295Y27535D02*
Y27935D01*
X49115Y25765D02*
X49515D01*
X49315Y25565D02*
Y25965D01*
X51085Y25765D02*
X51485D01*
X51285Y25565D02*
Y25965D01*
X22714Y38798D02*
X23186D01*
X22950Y38562D02*
Y39034D01*
X24714Y38802D02*
X25186D01*
X24950Y38566D02*
Y39038D01*
X23714Y38798D02*
X24186D01*
X23950Y38562D02*
Y39034D01*
X40914Y38798D02*
X41386D01*
X41150Y38562D02*
Y39034D01*
X42914Y38802D02*
X43386D01*
X43150Y38566D02*
Y39038D01*
X41914Y38798D02*
X42386D01*
X42150Y38562D02*
Y39034D01*
X36364Y38798D02*
X36836D01*
X36600Y38562D02*
Y39034D01*
X38364Y38802D02*
X38836D01*
X38600Y38566D02*
Y39038D01*
X37364Y38798D02*
X37836D01*
X37600Y38562D02*
Y39034D01*
X31814Y38798D02*
X32286D01*
X32050Y38562D02*
Y39034D01*
X33814Y38802D02*
X34286D01*
X34050Y38566D02*
Y39038D01*
X32814Y38798D02*
X33286D01*
X33050Y38562D02*
Y39034D01*
X27264Y38798D02*
X27736D01*
X27500Y38562D02*
Y39034D01*
X29264Y38802D02*
X29736D01*
X29500Y38566D02*
Y39038D01*
X28264Y38798D02*
X28736D01*
X28500Y38562D02*
Y39034D01*
X25433Y48939D02*
X25669D01*
X25551Y48821D02*
Y49057D01*
X22031Y48939D02*
X22267D01*
X22149Y48821D02*
Y49057D01*
X25433Y47305D02*
X25669D01*
X25551Y47187D02*
Y47423D01*
X22031Y47305D02*
X22267D01*
X22149Y47187D02*
Y47423D01*
X24864Y47498D02*
X25120D01*
X24992Y47370D02*
Y47626D01*
X22580Y47502D02*
X22836D01*
X22708Y47374D02*
Y47630D01*
X46320Y20337D02*
X46670D01*
X46495Y20162D02*
Y20512D01*
X47107Y20337D02*
X47457D01*
X47282Y20162D02*
Y20512D01*
X47894Y20337D02*
X48244D01*
X48069Y20162D02*
Y20512D01*
X48681Y20337D02*
X49031D01*
X48856Y20162D02*
Y20512D01*
X49468Y20337D02*
X49818D01*
X49643Y20162D02*
Y20512D01*
X50255Y20337D02*
X50605D01*
X50430Y20162D02*
Y20512D01*
X51042Y20337D02*
X51392D01*
X51217Y20162D02*
Y20512D01*
X51829Y20337D02*
X52179D01*
X52004Y20162D02*
Y20512D01*
X53403Y20337D02*
X53753D01*
X53578Y20162D02*
Y20512D01*
X52616Y20337D02*
X52966D01*
X52791Y20162D02*
Y20512D01*
X46320Y19550D02*
X46670D01*
X46495Y19375D02*
Y19725D01*
X47107Y19550D02*
X47457D01*
X47282Y19375D02*
Y19725D01*
X47894Y19550D02*
X48244D01*
X48069Y19375D02*
Y19725D01*
X48681Y19550D02*
X49031D01*
X48856Y19375D02*
Y19725D01*
X49468Y19550D02*
X49818D01*
X49643Y19375D02*
Y19725D01*
X50255Y19550D02*
X50605D01*
X50430Y19375D02*
Y19725D01*
X51042Y19550D02*
X51392D01*
X51217Y19375D02*
Y19725D01*
X51829Y19550D02*
X52179D01*
X52004Y19375D02*
Y19725D01*
X53403Y19550D02*
X53753D01*
X53578Y19375D02*
Y19725D01*
X52616Y19550D02*
X52966D01*
X52791Y19375D02*
Y19725D01*
X49310Y18530D02*
X49510D01*
X49410Y18430D02*
Y18630D01*
X50100Y18530D02*
X50300D01*
X50200Y18430D02*
Y18630D01*
X50890Y18530D02*
X51090D01*
X50990Y18430D02*
Y18630D01*
X51680Y18530D02*
X51880D01*
X51780Y18430D02*
Y18630D01*
X48520Y18530D02*
X48720D01*
X48620Y18430D02*
Y18630D01*
X52025Y14550D02*
X52475D01*
X52250Y14325D02*
Y14775D01*
X47925Y14550D02*
X48375D01*
X48150Y14325D02*
Y14775D01*
X28960Y19550D02*
X29309D01*
X29135Y19375D02*
Y19725D01*
X29746Y19550D02*
X30096D01*
X29922Y19375D02*
Y19725D01*
X28173Y19550D02*
X28523D01*
X28347Y19375D02*
Y19725D01*
X27385Y19550D02*
X27736D01*
X27561Y19375D02*
Y19725D01*
X26598Y19550D02*
X26948D01*
X26774Y19375D02*
Y19725D01*
X25812Y19550D02*
X26161D01*
X25986Y19375D02*
Y19725D01*
X25024Y19550D02*
X25375D01*
X25199Y19375D02*
Y19725D01*
X24237Y19550D02*
X24588D01*
X24413Y19375D02*
Y19725D01*
X23451Y19550D02*
X23800D01*
X23626Y19375D02*
Y19725D01*
X22664Y19550D02*
X23014D01*
X22838Y19375D02*
Y19725D01*
X28960Y20337D02*
X29309D01*
X29135Y20162D02*
Y20512D01*
X29746Y20337D02*
X30096D01*
X29922Y20162D02*
Y20512D01*
X28173Y20337D02*
X28523D01*
X28347Y20162D02*
Y20512D01*
X27385Y20337D02*
X27736D01*
X27561Y20162D02*
Y20512D01*
X26598Y20337D02*
X26948D01*
X26774Y20162D02*
Y20512D01*
X25812Y20337D02*
X26161D01*
X25986Y20162D02*
Y20512D01*
X25024Y20337D02*
X25375D01*
X25199Y20162D02*
Y20512D01*
X24237Y20337D02*
X24588D01*
X24413Y20162D02*
Y20512D01*
X23451Y20337D02*
X23800D01*
X23626Y20162D02*
Y20512D01*
X22664Y20337D02*
X23014D01*
X22838Y20162D02*
Y20512D01*
X24105Y14550D02*
X24555D01*
X24330Y14325D02*
Y14775D01*
X28205Y14550D02*
X28655D01*
X28430Y14325D02*
Y14775D01*
X24700Y18530D02*
X24900D01*
X24800Y18430D02*
Y18630D01*
X27860Y18530D02*
X28060D01*
X27960Y18430D02*
Y18630D01*
X27070Y18530D02*
X27270D01*
X27170Y18430D02*
Y18630D01*
X26280Y18530D02*
X26480D01*
X26380Y18430D02*
Y18630D01*
X25490Y18530D02*
X25690D01*
X25590Y18430D02*
Y18630D01*
X51903Y21450D02*
X52297D01*
X52100Y21253D02*
Y21647D01*
X50903Y21450D02*
X51297D01*
X51100Y21253D02*
Y21647D01*
X49903Y21450D02*
X50297D01*
X50100Y21253D02*
Y21647D01*
X48903Y21450D02*
X49297D01*
X49100Y21253D02*
Y21647D01*
X47903Y21450D02*
X48297D01*
X48100Y21253D02*
Y21647D01*
X46903Y21450D02*
X47297D01*
X47100Y21253D02*
Y21647D01*
X45903Y21450D02*
X46297D01*
X46100Y21253D02*
Y21647D01*
X45903Y24450D02*
X46297D01*
X46100Y24253D02*
Y24647D01*
X52903Y21450D02*
X53297D01*
X53100Y21253D02*
Y21647D01*
X53903Y21450D02*
X54297D01*
X54100Y21253D02*
Y21647D01*
X46903Y24450D02*
X47297D01*
X47100Y24253D02*
Y24647D01*
X47903Y24450D02*
X48297D01*
X48100Y24253D02*
Y24647D01*
X48903Y24450D02*
X49297D01*
X49100Y24253D02*
Y24647D01*
X49903Y24450D02*
X50297D01*
X50100Y24253D02*
Y24647D01*
X50903Y24450D02*
X51297D01*
X51100Y24253D02*
Y24647D01*
X51903Y24450D02*
X52297D01*
X52100Y24253D02*
Y24647D01*
X52903Y24450D02*
X53297D01*
X53100Y24253D02*
Y24647D01*
X53903Y24450D02*
X54297D01*
X54100Y24253D02*
Y24647D01*
X39780Y28321D02*
X40158D01*
X39969Y28132D02*
Y28510D01*
X40567Y28321D02*
X40945D01*
X40756Y28132D02*
Y28510D01*
X41355Y28321D02*
X41733D01*
X41544Y28132D02*
Y28510D01*
X42142Y28317D02*
X42520D01*
X42331Y28128D02*
Y28506D01*
X28053Y21450D02*
X28447D01*
X28250Y21253D02*
Y21647D01*
X27053Y21450D02*
X27447D01*
X27250Y21253D02*
Y21647D01*
X26053Y21450D02*
X26447D01*
X26250Y21253D02*
Y21647D01*
X25053Y21450D02*
X25447D01*
X25250Y21253D02*
Y21647D01*
X24053Y21450D02*
X24447D01*
X24250Y21253D02*
Y21647D01*
X23053Y21450D02*
X23447D01*
X23250Y21253D02*
Y21647D01*
X22053Y21450D02*
X22447D01*
X22250Y21253D02*
Y21647D01*
X22053Y24450D02*
X22447D01*
X22250Y24253D02*
Y24647D01*
X29053Y21450D02*
X29447D01*
X29250Y21253D02*
Y21647D01*
X30053Y21450D02*
X30447D01*
X30250Y21253D02*
Y21647D01*
X23053Y24450D02*
X23447D01*
X23250Y24253D02*
Y24647D01*
X24053Y24450D02*
X24447D01*
X24250Y24253D02*
Y24647D01*
X25053Y24450D02*
X25447D01*
X25250Y24253D02*
Y24647D01*
X26053Y24450D02*
X26447D01*
X26250Y24253D02*
Y24647D01*
X27053Y24450D02*
X27447D01*
X27250Y24253D02*
Y24647D01*
X28053Y24450D02*
X28447D01*
X28250Y24253D02*
Y24647D01*
X29053Y24450D02*
X29447D01*
X29250Y24253D02*
Y24647D01*
X30053Y24450D02*
X30447D01*
X30250Y24253D02*
Y24647D01*
X25995Y27735D02*
X26395D01*
X26195Y27535D02*
Y27935D01*
X25015Y25765D02*
X25415D01*
X25215Y25565D02*
Y25965D01*
X26985Y25765D02*
X27385D01*
X27185Y25565D02*
Y25965D01*
X27049Y47821D02*
X27427D01*
X27238Y47632D02*
Y48010D01*
X27836Y47821D02*
X28214D01*
X28025Y47632D02*
Y48010D01*
X28624Y47821D02*
X29002D01*
X28813Y47632D02*
Y48010D01*
X29411Y47817D02*
X29789D01*
X29600Y47628D02*
Y48006D01*
X27114Y45650D02*
X27586D01*
X27350Y45414D02*
Y45886D01*
X27114Y44650D02*
X27586D01*
X27350Y44414D02*
Y44886D01*
X31330Y47821D02*
X31708D01*
X31519Y47632D02*
Y48010D01*
X32117Y47821D02*
X32495D01*
X32306Y47632D02*
Y48010D01*
X32905Y47821D02*
X33283D01*
X33094Y47632D02*
Y48010D01*
X33692Y47817D02*
X34070D01*
X33881Y47628D02*
Y48006D01*
X37045Y48485D02*
X37445D01*
X37245Y48285D02*
Y48685D01*
X36065Y46515D02*
X36465D01*
X36265Y46315D02*
Y46715D01*
X38035Y46515D02*
X38435D01*
X38235Y46315D02*
Y46715D01*
X34264Y32300D02*
X34736D01*
X34500Y32064D02*
Y32536D01*
X34264Y33300D02*
X34736D01*
X34500Y33064D02*
Y33536D01*
X35264Y32300D02*
X35736D01*
X35500Y32064D02*
Y32536D01*
X35264Y33300D02*
X35736D01*
X35500Y33064D02*
Y33536D01*
X36264Y32300D02*
X36736D01*
X36500Y32064D02*
Y32536D01*
X36264Y33300D02*
X36736D01*
X36500Y33064D02*
Y33536D01*
X37264Y32300D02*
X37736D01*
X37500Y32064D02*
Y32536D01*
X37264Y33300D02*
X37736D01*
X37500Y33064D02*
Y33536D01*
X38264Y32300D02*
X38736D01*
X38500Y32064D02*
Y32536D01*
X38264Y33300D02*
X38736D01*
X38500Y33064D02*
Y33536D01*
X39264Y32300D02*
X39736D01*
X39500Y32064D02*
Y32536D01*
X39264Y33300D02*
X39736D01*
X39500Y33064D02*
Y33536D01*
X40264Y32300D02*
X40736D01*
X40500Y32064D02*
Y32536D01*
X40264Y33300D02*
X40736D01*
X40500Y33064D02*
Y33536D01*
X41264Y32300D02*
X41736D01*
X41500Y32064D02*
Y32536D01*
X41264Y33300D02*
X41736D01*
X41500Y33064D02*
Y33536D01*
X42264Y32300D02*
X42736D01*
X42500Y32064D02*
Y32536D01*
X42264Y33300D02*
X42736D01*
X42500Y33064D02*
Y33536D01*
X43264Y32300D02*
X43736D01*
X43500Y32064D02*
Y32536D01*
X43264Y33300D02*
X43736D01*
X43500Y33064D02*
Y33536D01*
X38557Y26553D02*
X38837D01*
X38697Y26413D02*
Y26693D01*
X38270Y25150D02*
X38430D01*
X38350Y25070D02*
Y25230D01*
X39570Y22325D02*
X39730D01*
X39650Y22245D02*
Y22405D01*
X39570Y21700D02*
X39730D01*
X39650Y21620D02*
Y21780D01*
X39570Y21050D02*
X39730D01*
X39650Y20970D02*
Y21130D01*
X39820Y25950D02*
X39980D01*
X39900Y25870D02*
Y26030D01*
X39665Y25428D02*
X39825D01*
X39745Y25348D02*
Y25508D01*
X27220Y48500D02*
X27380D01*
X27300Y48420D02*
Y48580D01*
X27570Y48300D02*
X27730D01*
X27650Y48220D02*
Y48380D01*
X41120Y17000D02*
X41280D01*
X41200Y16920D02*
Y17080D01*
X30160Y44900D02*
X30440D01*
X30300Y44760D02*
Y45040D01*
X41108Y21950D02*
X41268D01*
X41188Y21870D02*
Y22030D01*
X41120Y20950D02*
X41280D01*
X41200Y20870D02*
Y21030D01*
X26620Y46050D02*
X26780D01*
X26700Y45970D02*
Y46130D01*
X28975Y48476D02*
X29135D01*
X29055Y48396D02*
Y48556D01*
X28420Y48456D02*
X28580D01*
X28500Y48376D02*
Y48536D01*
X30170Y48600D02*
X30330D01*
X30250Y48520D02*
Y48680D01*
X26825Y48505D02*
X26985D01*
X26905Y48425D02*
Y48585D01*
X38310Y35550D02*
X38590D01*
X38450Y35410D02*
Y35690D01*
X41920Y31827D02*
X42080D01*
X42000Y31747D02*
Y31907D01*
X40220Y31300D02*
X40380D01*
X40300Y31220D02*
Y31380D01*
X39980Y31734D02*
X40140D01*
X40060Y31654D02*
Y31814D01*
X46385Y36250D02*
X46545D01*
X46465Y36170D02*
Y36330D01*
X45840Y36250D02*
X46000D01*
X45920Y36170D02*
Y36330D01*
X46620Y37600D02*
X46780D01*
X46700Y37520D02*
Y37680D01*
X45855Y37600D02*
X46015D01*
X45935Y37520D02*
Y37680D01*
X44560Y36950D02*
X44840D01*
X44700Y36810D02*
Y37090D01*
X33317Y36293D02*
X33597D01*
X33457Y36153D02*
Y36433D01*
X37122Y40948D02*
X37282D01*
X37202Y40868D02*
Y41028D01*
X37770Y40775D02*
X37930D01*
X37850Y40695D02*
Y40855D01*
X45360Y35750D02*
X45640D01*
X45500Y35610D02*
Y35890D01*
X37870Y34239D02*
X38030D01*
X37950Y34159D02*
Y34319D01*
X38006Y33983D02*
X38166D01*
X38086Y33903D02*
Y34063D01*
X46120Y40250D02*
X46280D01*
X46200Y40170D02*
Y40330D01*
X44020Y29750D02*
X44180D01*
X44100Y29670D02*
Y29830D01*
X44310Y29750D02*
X44470D01*
X44390Y29670D02*
Y29830D01*
X45665Y31525D02*
X45825D01*
X45745Y31445D02*
Y31605D01*
X46120Y42450D02*
X46280D01*
X46200Y42370D02*
Y42530D01*
X49920Y37850D02*
X50080D01*
X50000Y37770D02*
Y37930D01*
X48020Y39850D02*
X48180D01*
X48100Y39770D02*
Y39930D01*
X50420Y39900D02*
X50580D01*
X50500Y39820D02*
Y39980D01*
X30475Y39650D02*
X30635D01*
X30555Y39570D02*
Y39730D01*
X31165Y39650D02*
X31325D01*
X31245Y39570D02*
Y39730D01*
X31684Y39650D02*
X31844D01*
X31764Y39570D02*
Y39730D01*
X32368Y39698D02*
X32528D01*
X32448Y39618D02*
Y39778D01*
X42420Y41800D02*
X42580D01*
X42500Y41720D02*
Y41880D01*
X38620Y47300D02*
X38780D01*
X38700Y47220D02*
Y47380D01*
X41470Y42000D02*
X41630D01*
X41550Y41920D02*
Y42080D01*
X38620Y48100D02*
X38780D01*
X38700Y48020D02*
Y48180D01*
X46120Y43200D02*
X46280D01*
X46200Y43120D02*
Y43280D01*
X48370Y47400D02*
X48530D01*
X48450Y47320D02*
Y47480D01*
X27173Y28600D02*
X27333D01*
X27253Y28520D02*
Y28680D01*
X33770Y28600D02*
X33930D01*
X33850Y28520D02*
Y28680D01*
X55225Y29650D02*
X55385D01*
X55305Y29570D02*
Y29730D01*
X36670Y18700D02*
X36830D01*
X36750Y18620D02*
Y18780D01*
X34720Y18700D02*
X34880D01*
X34800Y18620D02*
Y18780D01*
X36670Y19500D02*
X36830D01*
X36750Y19420D02*
Y19580D01*
X34720Y19500D02*
X34880D01*
X34800Y19420D02*
Y19580D01*
X46570Y28550D02*
X46730D01*
X46650Y28470D02*
Y28630D01*
X55070Y30000D02*
X55230D01*
X55150Y29920D02*
Y30080D01*
X52920Y39781D02*
X53080D01*
X53000Y39701D02*
Y39861D01*
X51420Y39800D02*
X51580D01*
X51500Y39720D02*
Y39880D01*
X23892Y45700D02*
X24052D01*
X23972Y45620D02*
Y45780D01*
X26320Y34900D02*
X26480D01*
X26400Y34820D02*
Y34980D01*
X25270Y22950D02*
X25430D01*
X25350Y22870D02*
Y23030D01*
X28720Y34400D02*
X28880D01*
X28800Y34320D02*
Y34480D01*
X28520Y30400D02*
X28680D01*
X28600Y30320D02*
Y30480D01*
X50271Y23351D02*
X50431D01*
X50351Y23271D02*
Y23431D01*
X54300Y30350D02*
X54460D01*
X54380Y30270D02*
Y30430D01*
X49420Y39850D02*
X49580D01*
X49500Y39770D02*
Y39930D01*
X52820Y33650D02*
X52980D01*
X52900Y33570D02*
Y33730D01*
X51420Y33150D02*
X51580D01*
X51500Y33070D02*
Y33230D01*
X24620Y22250D02*
X24780D01*
X24700Y22170D02*
Y22330D01*
X48270Y37550D02*
X48430D01*
X48350Y37470D02*
Y37630D01*
X52670Y37650D02*
X52830D01*
X52750Y37570D02*
Y37730D01*
X49170Y32150D02*
X49330D01*
X49250Y32070D02*
Y32230D01*
X49120Y32650D02*
X49280D01*
X49200Y32570D02*
Y32730D01*
X51420Y32650D02*
X51580D01*
X51500Y32570D02*
Y32730D01*
X51420Y32150D02*
X51580D01*
X51500Y32070D02*
Y32230D01*
X52270Y34850D02*
X52430D01*
X52350Y34770D02*
Y34930D01*
X50670Y34900D02*
X50830D01*
X50750Y34820D02*
Y34980D01*
X47570Y34900D02*
X47730D01*
X47650Y34820D02*
Y34980D01*
X49120Y34900D02*
X49280D01*
X49200Y34820D02*
Y34980D01*
X49120Y33150D02*
X49280D01*
X49200Y33070D02*
Y33230D01*
X34715Y21850D02*
X34875D01*
X34795Y21770D02*
Y21930D01*
X36820Y21650D02*
X36980D01*
X36900Y21570D02*
Y21730D01*
X34670Y20300D02*
X34830D01*
X34750Y20220D02*
Y20380D01*
X34670Y21050D02*
X34830D01*
X34750Y20970D02*
Y21130D01*
X39561Y23859D02*
X39721D01*
X39641Y23779D02*
Y23939D01*
X36070Y17150D02*
X36230D01*
X36150Y17070D02*
Y17230D01*
X39570Y17495D02*
X39730D01*
X39650Y17415D02*
Y17575D01*
X39570Y18945D02*
X39730D01*
X39650Y18865D02*
Y19025D01*
X39570Y20450D02*
X39730D01*
X39650Y20370D02*
Y20530D01*
X36670Y17900D02*
X36830D01*
X36750Y17820D02*
Y17980D01*
X36620Y20300D02*
X36780D01*
X36700Y20220D02*
Y20380D01*
X36620Y21050D02*
X36780D01*
X36700Y20970D02*
Y21130D01*
X34720Y17950D02*
X34880D01*
X34800Y17870D02*
Y18030D01*
X41587Y24250D02*
X41747D01*
X41667Y24170D02*
Y24330D01*
X41120Y18150D02*
X41280D01*
X41200Y18070D02*
Y18230D01*
X41570Y19300D02*
X41730D01*
X41650Y19220D02*
Y19380D01*
X41570Y25300D02*
X41730D01*
X41650Y25220D02*
Y25380D01*
X41170Y25900D02*
X41330D01*
X41250Y25820D02*
Y25980D01*
X39570Y16950D02*
X39730D01*
X39650Y16870D02*
Y17030D01*
X41570Y20250D02*
X41730D01*
X41650Y20170D02*
Y20330D01*
X41587Y23250D02*
X41747D01*
X41667Y23170D02*
Y23330D01*
X34170Y15100D02*
X34330D01*
X34250Y15020D02*
Y15180D01*
X34670Y14000D02*
X34830D01*
X34750Y13920D02*
Y14080D01*
X38620Y14000D02*
X38780D01*
X38700Y13920D02*
Y14080D01*
X41570Y13950D02*
X41730D01*
X41650Y13870D02*
Y14030D01*
X42620Y14000D02*
X42780D01*
X42700Y13920D02*
Y14080D01*
X40620Y14000D02*
X40780D01*
X40700Y13920D02*
Y14080D01*
X39620Y14000D02*
X39780D01*
X39700Y13920D02*
Y14080D01*
X37670Y14000D02*
X37830D01*
X37750Y13920D02*
Y14080D01*
X36670Y14000D02*
X36830D01*
X36750Y13920D02*
Y14080D01*
X35670Y14000D02*
X35830D01*
X35750Y13920D02*
Y14080D01*
X33670Y14000D02*
X33830D01*
X33750Y13920D02*
Y14080D01*
X29120Y39650D02*
X29280D01*
X29200Y39570D02*
Y39730D01*
X29870Y39650D02*
X30030D01*
X29950Y39570D02*
Y39730D01*
X30470Y49100D02*
X30630D01*
X30550Y49020D02*
Y49180D01*
X22160Y45750D02*
X22440D01*
X22300Y45610D02*
Y45890D01*
X23685Y47850D02*
X23965D01*
X23825Y47710D02*
Y47990D01*
X36170Y48600D02*
X36330D01*
X36250Y48520D02*
Y48680D01*
X36170Y47700D02*
X36330D01*
X36250Y47620D02*
Y47780D01*
X24360Y47850D02*
X24640D01*
X24500Y47710D02*
Y47990D01*
X23010Y47850D02*
X23290D01*
X23150Y47710D02*
Y47990D01*
M02*
