G04*
G04 #@! TF.GenerationSoftware,Altium Limited,Altium Designer,20.2.5 (213)*
G04*
G04 Layer_Color=65535*
%FSLAX24Y24*%
%MOIN*%
G70*
G04*
G04 #@! TF.SameCoordinates,94A92F66-6131-4E5E-9460-D235825817E1*
G04*
G04*
G04 #@! TF.FilePolarity,Positive*
G04*
G01*
G75*
%ADD10C,0.0100*%
%ADD11C,0.0118*%
%ADD12C,0.0236*%
%ADD13C,0.0098*%
%ADD14C,0.0098*%
%ADD15C,0.0060*%
%ADD16C,0.0300*%
%ADD17C,0.0060*%
%ADD18C,0.0059*%
G36*
X23982Y48150D02*
X23882D01*
Y49050D01*
X23982D01*
Y48150D01*
D02*
G37*
G36*
X29582Y45993D02*
X29450D01*
Y46173D01*
X29582D01*
Y45993D01*
D02*
G37*
G36*
X28550D02*
X28418D01*
Y46173D01*
X28550D01*
Y45993D01*
D02*
G37*
G36*
X22373Y45470D02*
Y45677D01*
X22580Y45680D01*
X22373Y45470D01*
D02*
G37*
G36*
X29850Y43727D02*
X29718D01*
Y43907D01*
X29850D01*
Y43727D01*
D02*
G37*
G36*
X22732Y42943D02*
X22600D01*
Y43123D01*
X22732D01*
Y42943D01*
D02*
G37*
G36*
X21700D02*
X21568D01*
Y43123D01*
X21700D01*
Y42943D01*
D02*
G37*
G36*
X21460Y13950D02*
X19900D01*
Y49450D01*
X21460D01*
Y13950D01*
D02*
G37*
G36*
X30882Y43727D02*
X30750D01*
Y43907D01*
X30882D01*
Y43727D01*
D02*
G37*
G36*
X34482Y43193D02*
X34350D01*
Y43373D01*
X34482D01*
Y43193D01*
D02*
G37*
G36*
X33450D02*
X33318D01*
Y43373D01*
X33450D01*
Y43193D01*
D02*
G37*
G36*
X33103Y40927D02*
X32971D01*
Y41107D01*
X33103D01*
Y40927D01*
D02*
G37*
G36*
X32071D02*
X31940D01*
Y41107D01*
X32071D01*
Y40927D01*
D02*
G37*
G36*
X31732D02*
X31600D01*
Y41107D01*
X31732D01*
Y40927D01*
D02*
G37*
G36*
X30700D02*
X30568D01*
Y41107D01*
X30700D01*
Y40927D01*
D02*
G37*
G36*
X56500Y13950D02*
X54940D01*
Y49450D01*
X56500D01*
Y13950D01*
D02*
G37*
D10*
X33484Y28067D02*
G03*
X34497Y28058I516J1083D01*
G01*
X35100Y28672D02*
G03*
X34557Y30213I-1100J478D01*
G01*
X33482Y30233D02*
G03*
X32909Y28650I518J-1083D01*
G01*
X36882Y30233D02*
G03*
X36309Y28650I518J-1083D01*
G01*
X38500Y28672D02*
G03*
X37957Y30213I-1100J478D01*
G01*
X36884Y28067D02*
G03*
X37897Y28058I516J1083D01*
G01*
X49784Y25667D02*
G03*
X50797Y25658I516J1083D01*
G01*
X51400Y26272D02*
G03*
X50857Y27813I-1100J478D01*
G01*
X49782Y27833D02*
G03*
X49209Y26250I518J-1083D01*
G01*
X26200Y40750D02*
G03*
X26200Y40750I-50J0D01*
G01*
X31250Y46450D02*
G03*
X31250Y46450I-50J0D01*
G01*
X53325Y29902D02*
G03*
X53203Y29780I0J-122D01*
G01*
Y29465D02*
G03*
X53325Y29343I122J-0D01*
G01*
X54303Y29778D02*
G03*
X54181Y29900I-122J0D01*
G01*
Y29341D02*
G03*
X54303Y29463I0J122D01*
G01*
X54181Y31698D02*
G03*
X54303Y31820I0J122D01*
G01*
Y32135D02*
G03*
X54181Y32257I-122J0D01*
G01*
X53203Y31822D02*
G03*
X53325Y31700I122J-0D01*
G01*
Y32259D02*
G03*
X53203Y32137I0J-122D01*
G01*
X54181Y32484D02*
G03*
X54303Y32606I0J122D01*
G01*
Y32921D02*
G03*
X54181Y33043I-122J0D01*
G01*
X53203Y32608D02*
G03*
X53325Y32486I122J-0D01*
G01*
Y33045D02*
G03*
X53203Y32923I0J-122D01*
G01*
X54181Y33270D02*
G03*
X54303Y33392I0J122D01*
G01*
Y33706D02*
G03*
X54181Y33828I-122J0D01*
G01*
X53203Y33394D02*
G03*
X53325Y33272I122J-0D01*
G01*
Y33831D02*
G03*
X53203Y33709I0J-122D01*
G01*
X54181Y34055D02*
G03*
X54303Y34177I0J122D01*
G01*
Y34492D02*
G03*
X54181Y34614I-122J0D01*
G01*
X53203Y34180D02*
G03*
X53325Y34058I122J-0D01*
G01*
Y34616D02*
G03*
X53203Y34495I0J-122D01*
G01*
X49917Y34460D02*
G03*
X50783Y34460I433J0D01*
G01*
X48775Y34498D02*
G03*
X48775Y34498I-118J0D01*
G01*
X28701Y35098D02*
G03*
X28746Y37588I-351J1252D01*
G01*
X27939Y37583D02*
G03*
X27923Y35122I411J-1233D01*
G01*
X26018Y36991D02*
G03*
X26140Y36869I122J0D01*
G01*
X26455D02*
G03*
X26577Y36991I0J122D01*
G01*
X26143Y37970D02*
G03*
X26021Y37848I-0J-122D01*
G01*
X26580D02*
G03*
X26458Y37970I-122J0D01*
G01*
X26580Y36509D02*
G03*
X26458Y36631I-122J0D01*
G01*
X26143D02*
G03*
X26021Y36509I-0J-122D01*
G01*
X26455Y35530D02*
G03*
X26577Y35652I0J122D01*
G01*
X26018D02*
G03*
X26140Y35530I122J0D01*
G01*
X54628Y23200D02*
G03*
X54628Y22700I-0J-250D01*
G01*
X25289Y33483D02*
G03*
X25273Y31022I411J-1233D01*
G01*
X26051Y30998D02*
G03*
X26096Y33488I-351J1252D01*
G01*
X28320Y30700D02*
G03*
X28442Y30578I122J0D01*
G01*
X28757D02*
G03*
X28879Y30700I0J122D01*
G01*
X28445Y31679D02*
G03*
X28323Y31557I-0J-122D01*
G01*
X28882D02*
G03*
X28760Y31679I-122J0D01*
G01*
X23639Y37583D02*
G03*
X23623Y35122I411J-1233D01*
G01*
X24401Y35098D02*
G03*
X24446Y37588I-351J1252D01*
G01*
X21870Y36991D02*
G03*
X21992Y36869I122J0D01*
G01*
X22307D02*
G03*
X22429Y36991I0J122D01*
G01*
X21995Y37970D02*
G03*
X21873Y37848I-0J-122D01*
G01*
X22432D02*
G03*
X22310Y37970I-122J0D01*
G01*
X23270Y30700D02*
G03*
X23392Y30578I122J0D01*
G01*
X23707D02*
G03*
X23829Y30700I0J122D01*
G01*
X23395Y31679D02*
G03*
X23273Y31557I-0J-122D01*
G01*
X23832D02*
G03*
X23710Y31679I-122J0D01*
G01*
X30778Y23200D02*
G03*
X30778Y22700I-0J-250D01*
G01*
X25684Y25667D02*
G03*
X26697Y25658I516J1083D01*
G01*
X27300Y26272D02*
G03*
X26757Y27813I-1100J478D01*
G01*
X25682Y27833D02*
G03*
X25109Y26250I518J-1083D01*
G01*
X25625Y44220D02*
G03*
X25747Y44342I0J122D01*
G01*
Y44657D02*
G03*
X25625Y44779I-122J0D01*
G01*
X24647Y44345D02*
G03*
X24769Y44223I122J-0D01*
G01*
Y44782D02*
G03*
X24647Y44660I0J-122D01*
G01*
X29075Y40320D02*
G03*
X29197Y40442I0J122D01*
G01*
Y40757D02*
G03*
X29075Y40879I-122J0D01*
G01*
X28097Y40445D02*
G03*
X28219Y40323I122J-0D01*
G01*
Y40882D02*
G03*
X28097Y40760I0J-122D01*
G01*
X29075Y42720D02*
G03*
X29197Y42842I0J122D01*
G01*
Y43157D02*
G03*
X29075Y43279I-122J0D01*
G01*
X28097Y42845D02*
G03*
X28219Y42723I122J-0D01*
G01*
Y43282D02*
G03*
X28097Y43160I0J-122D01*
G01*
X36539Y37583D02*
G03*
X36523Y35122I411J-1233D01*
G01*
X37301Y35098D02*
G03*
X37346Y37588I-351J1252D01*
G01*
X34568Y35652D02*
G03*
X34690Y35530I122J0D01*
G01*
X35005D02*
G03*
X35127Y35652I0J122D01*
G01*
X34693Y36631D02*
G03*
X34571Y36509I-0J-122D01*
G01*
X35130D02*
G03*
X35008Y36631I-122J0D01*
G01*
X35130Y37848D02*
G03*
X35008Y37970I-122J0D01*
G01*
X34693D02*
G03*
X34571Y37848I-0J-122D01*
G01*
X35005Y36869D02*
G03*
X35127Y36991I0J122D01*
G01*
X34568D02*
G03*
X34690Y36869I122J0D01*
G01*
X36350Y44450D02*
G03*
X36350Y44450I-50J0D01*
G01*
X35480Y47325D02*
G03*
X35358Y47447I-122J0D01*
G01*
X35043D02*
G03*
X34921Y47325I-0J-122D01*
G01*
X35355Y46347D02*
G03*
X35477Y46469I0J122D01*
G01*
X34918D02*
G03*
X35040Y46347I122J0D01*
G01*
X34918Y43275D02*
G03*
X35040Y43153I122J0D01*
G01*
X35355D02*
G03*
X35477Y43275I0J122D01*
G01*
X35043Y44253D02*
G03*
X34921Y44131I-0J-122D01*
G01*
X35480D02*
G03*
X35358Y44253I-122J0D01*
G01*
X36734Y46417D02*
G03*
X37747Y46408I516J1083D01*
G01*
X38350Y47022D02*
G03*
X37807Y48563I-1100J478D01*
G01*
X36732Y48583D02*
G03*
X36159Y47000I518J-1083D01*
G01*
X29770Y40975D02*
G03*
X29892Y40853I122J0D01*
G01*
X30207D02*
G03*
X30329Y40975I0J122D01*
G01*
X29895Y41953D02*
G03*
X29773Y41831I-0J-122D01*
G01*
X30332D02*
G03*
X30210Y41953I-122J0D01*
G01*
X30332Y43275D02*
G03*
X30210Y43397I-122J0D01*
G01*
X29895D02*
G03*
X29773Y43275I-0J-122D01*
G01*
X30207Y42297D02*
G03*
X30329Y42419I0J122D01*
G01*
X29770D02*
G03*
X29892Y42297I122J0D01*
G01*
X30730Y37848D02*
G03*
X30608Y37970I-122J0D01*
G01*
X30293D02*
G03*
X30171Y37848I-0J-122D01*
G01*
X30605Y36869D02*
G03*
X30727Y36991I0J122D01*
G01*
X30168D02*
G03*
X30290Y36869I122J0D01*
G01*
X30168Y35652D02*
G03*
X30290Y35530I122J0D01*
G01*
X30605D02*
G03*
X30727Y35652I0J122D01*
G01*
X30293Y36631D02*
G03*
X30171Y36509I-0J-122D01*
G01*
X30730D02*
G03*
X30608Y36631I-122J0D01*
G01*
X33061Y35117D02*
G03*
X33077Y37578I-411J1233D01*
G01*
X32299Y37602D02*
G03*
X32254Y35112I351J-1252D01*
G01*
X38918Y35652D02*
G03*
X39040Y35530I122J0D01*
G01*
X39355D02*
G03*
X39477Y35652I0J122D01*
G01*
X39043Y36631D02*
G03*
X38921Y36509I-0J-122D01*
G01*
X39480D02*
G03*
X39358Y36631I-122J0D01*
G01*
X39480Y37848D02*
G03*
X39358Y37970I-122J0D01*
G01*
X39043D02*
G03*
X38921Y37848I-0J-122D01*
G01*
X39355Y36869D02*
G03*
X39477Y36991I0J122D01*
G01*
X38918D02*
G03*
X39040Y36869I122J0D01*
G01*
X41661Y35117D02*
G03*
X41677Y37578I-411J1233D01*
G01*
X40899Y37602D02*
G03*
X40854Y35112I351J-1252D01*
G01*
X35675Y41670D02*
G03*
X35797Y41792I0J122D01*
G01*
Y42107D02*
G03*
X35675Y42229I-122J0D01*
G01*
X34697Y41795D02*
G03*
X34819Y41673I122J-0D01*
G01*
Y42232D02*
G03*
X34697Y42110I0J-122D01*
G01*
X35675Y40870D02*
G03*
X35797Y40992I0J122D01*
G01*
Y41307D02*
G03*
X35675Y41429I-122J0D01*
G01*
X34697Y40995D02*
G03*
X34819Y40873I122J-0D01*
G01*
Y41432D02*
G03*
X34697Y41310I0J-122D01*
G01*
X49642Y41539D02*
G03*
X49764Y41661I0J122D01*
G01*
Y41976D02*
G03*
X49642Y42098I-122J0D01*
G01*
X48663Y41663D02*
G03*
X48785Y41541I122J-0D01*
G01*
Y42100D02*
G03*
X48663Y41978I0J-122D01*
G01*
X48785Y37891D02*
G03*
X48663Y37769I0J-122D01*
G01*
Y37454D02*
G03*
X48785Y37332I122J-0D01*
G01*
X49764Y37767D02*
G03*
X49642Y37889I-122J0D01*
G01*
Y37330D02*
G03*
X49764Y37452I0J122D01*
G01*
X50193Y41636D02*
G03*
X50315Y41514I122J0D01*
G01*
X50630D02*
G03*
X50752Y41636I0J122D01*
G01*
X50317Y42615D02*
G03*
X50195Y42493I-0J-122D01*
G01*
X50754D02*
G03*
X50632Y42615I-122J0D01*
G01*
X50752Y37737D02*
G03*
X50630Y37859I-122J0D01*
G01*
X50315D02*
G03*
X50193Y37737I-0J-122D01*
G01*
X50628Y36758D02*
G03*
X50750Y36880I0J122D01*
G01*
X50191D02*
G03*
X50313Y36758I122J0D01*
G01*
X51256Y42100D02*
G03*
X51134Y41978I0J-122D01*
G01*
Y41663D02*
G03*
X51256Y41541I122J-0D01*
G01*
X52235Y41976D02*
G03*
X52113Y42098I-122J0D01*
G01*
Y41539D02*
G03*
X52235Y41661I0J122D01*
G01*
X52113Y37330D02*
G03*
X52235Y37452I0J122D01*
G01*
Y37767D02*
G03*
X52113Y37889I-122J0D01*
G01*
X51134Y37454D02*
G03*
X51256Y37332I122J-0D01*
G01*
Y37891D02*
G03*
X51134Y37769I0J-122D01*
G01*
X38599Y42530D02*
G03*
X38477Y42408I0J-122D01*
G01*
Y42093D02*
G03*
X38599Y41971I122J-0D01*
G01*
X39578Y42405D02*
G03*
X39456Y42527I-122J0D01*
G01*
Y41968D02*
G03*
X39578Y42090I0J122D01*
G01*
X45925Y40620D02*
G03*
X46047Y40742I0J122D01*
G01*
Y41057D02*
G03*
X45925Y41179I-122J0D01*
G01*
X44947Y40745D02*
G03*
X45069Y40623I122J-0D01*
G01*
Y41182D02*
G03*
X44947Y41060I0J-122D01*
G01*
X47325Y32484D02*
G03*
X47447Y32606I0J122D01*
G01*
Y32921D02*
G03*
X47325Y33043I-122J0D01*
G01*
X46347Y32608D02*
G03*
X46469Y32486I122J-0D01*
G01*
Y33045D02*
G03*
X46347Y32923I0J-122D01*
G01*
X47325Y31698D02*
G03*
X47447Y31820I0J122D01*
G01*
Y32135D02*
G03*
X47325Y32257I-122J0D01*
G01*
X46347Y31822D02*
G03*
X46469Y31700I122J-0D01*
G01*
Y32259D02*
G03*
X46347Y32137I0J-122D01*
G01*
X47325Y33270D02*
G03*
X47447Y33392I0J122D01*
G01*
Y33706D02*
G03*
X47325Y33828I-122J0D01*
G01*
X46347Y33394D02*
G03*
X46469Y33272I122J-0D01*
G01*
Y33831D02*
G03*
X46347Y33709I0J-122D01*
G01*
X47325Y34055D02*
G03*
X47447Y34177I0J122D01*
G01*
Y34492D02*
G03*
X47325Y34614I-122J0D01*
G01*
X46347Y34180D02*
G03*
X46469Y34058I122J-0D01*
G01*
Y34616D02*
G03*
X46347Y34495I0J-122D01*
G01*
X38575Y43330D02*
G03*
X38453Y43208I0J-122D01*
G01*
Y42893D02*
G03*
X38575Y42771I122J-0D01*
G01*
X39553Y43205D02*
G03*
X39431Y43327I-122J0D01*
G01*
Y42768D02*
G03*
X39553Y42890I0J122D01*
G01*
X45075Y42730D02*
G03*
X44953Y42608I0J-122D01*
G01*
Y42293D02*
G03*
X45075Y42171I122J-0D01*
G01*
X46053Y42605D02*
G03*
X45931Y42727I-122J0D01*
G01*
Y42168D02*
G03*
X46053Y42290I0J122D01*
G01*
X39425Y43520D02*
G03*
X39547Y43642I0J122D01*
G01*
Y43957D02*
G03*
X39425Y44079I-122J0D01*
G01*
X38447Y43645D02*
G03*
X38569Y43523I122J-0D01*
G01*
Y44082D02*
G03*
X38447Y43960I0J-122D01*
G01*
X47325Y29341D02*
G03*
X47447Y29463I0J122D01*
G01*
Y29778D02*
G03*
X47325Y29900I-122J0D01*
G01*
X46347Y29465D02*
G03*
X46469Y29343I122J-0D01*
G01*
Y29902D02*
G03*
X46347Y29780I0J-122D01*
G01*
X38675Y45680D02*
G03*
X38553Y45558I0J-122D01*
G01*
Y45243D02*
G03*
X38675Y45121I122J-0D01*
G01*
X39653Y45555D02*
G03*
X39531Y45677I-122J0D01*
G01*
Y45118D02*
G03*
X39653Y45240I0J122D01*
G01*
X45925Y46170D02*
G03*
X46047Y46292I0J122D01*
G01*
Y46607D02*
G03*
X45925Y46729I-122J0D01*
G01*
X44947Y46295D02*
G03*
X45069Y46173I122J-0D01*
G01*
Y46732D02*
G03*
X44947Y46610I0J-122D01*
G01*
X39070Y46575D02*
G03*
X39192Y46453I122J0D01*
G01*
X39507D02*
G03*
X39629Y46575I0J122D01*
G01*
X39195Y47553D02*
G03*
X39073Y47431I-0J-122D01*
G01*
X39632D02*
G03*
X39510Y47553I-122J0D01*
G01*
X45069Y48080D02*
G03*
X44947Y47958I0J-122D01*
G01*
Y47643D02*
G03*
X45069Y47521I122J-0D01*
G01*
X46047Y47955D02*
G03*
X45925Y48077I-122J0D01*
G01*
Y47518D02*
G03*
X46047Y47640I0J122D01*
G01*
X48190Y35150D02*
G03*
X48312Y35028I122J0D01*
G01*
X48627D02*
G03*
X48749Y35150I0J122D01*
G01*
X48314Y36129D02*
G03*
X48192Y36007I-0J-122D01*
G01*
X48751D02*
G03*
X48629Y36129I-122J0D01*
G01*
X52870Y35150D02*
G03*
X52992Y35028I122J0D01*
G01*
X53307D02*
G03*
X53429Y35150I0J122D01*
G01*
X52995Y36129D02*
G03*
X52873Y36007I-0J-122D01*
G01*
X53432D02*
G03*
X53310Y36129I-122J0D01*
G01*
X49750Y35150D02*
G03*
X49872Y35028I122J0D01*
G01*
X50187D02*
G03*
X50309Y35150I0J122D01*
G01*
X49874Y36129D02*
G03*
X49752Y36007I-0J-122D01*
G01*
X50311D02*
G03*
X50189Y36129I-122J0D01*
G01*
X51310Y35150D02*
G03*
X51432Y35028I122J0D01*
G01*
X51747D02*
G03*
X51869Y35150I0J122D01*
G01*
X51435Y36129D02*
G03*
X51313Y36007I-0J-122D01*
G01*
X51872D02*
G03*
X51750Y36129I-122J0D01*
G01*
X39120Y47925D02*
G03*
X39242Y47803I122J0D01*
G01*
X39557D02*
G03*
X39679Y47925I0J122D01*
G01*
X39245Y48903D02*
G03*
X39123Y48781I-0J-122D01*
G01*
X39682D02*
G03*
X39560Y48903I-122J0D01*
G01*
X32500Y27650D02*
Y30150D01*
X33000Y30650D01*
X35000D01*
X35500Y27650D02*
Y30150D01*
X35000Y30650D02*
X35500Y30150D01*
X32500Y27650D02*
X35500D01*
X31100Y29000D02*
Y30000D01*
X30900Y28800D02*
X31100Y29000D01*
X22100Y28800D02*
X30900D01*
X22100D02*
Y30000D01*
X31100D01*
X35900Y27650D02*
X38900D01*
X38400Y30650D02*
X38900Y30150D01*
Y27650D02*
Y30150D01*
X36400Y30650D02*
X38400D01*
X35900Y30150D02*
X36400Y30650D01*
X35900Y27650D02*
Y30150D01*
X48800Y25250D02*
Y27750D01*
X49300Y28250D01*
X51300D01*
X51800Y25250D02*
Y27750D01*
X51300Y28250D02*
X51800Y27750D01*
X48800Y25250D02*
X51800D01*
X22950Y42800D02*
Y43400D01*
X25950Y42800D02*
Y43400D01*
Y40400D02*
Y41000D01*
X22950Y40400D02*
Y41000D01*
Y40400D02*
X25950D01*
X22950Y43400D02*
X25950D01*
X34400Y43800D02*
Y44400D01*
X31400Y43800D02*
Y44400D01*
Y46200D02*
Y46800D01*
X34400Y46200D02*
Y46800D01*
X31400D02*
X34400D01*
X31400Y43800D02*
X34400D01*
X54303Y29463D02*
Y29778D01*
X53866Y29900D02*
X54181D01*
X53866Y29341D02*
X54181D01*
X53325Y29902D02*
X53640D01*
X53203Y29465D02*
Y29780D01*
X53325Y29343D02*
X53640D01*
X53203Y31822D02*
Y32137D01*
X53325Y31700D02*
X53640D01*
X53325Y32259D02*
X53640D01*
X53866Y31698D02*
X54181D01*
X54303Y31820D02*
Y32135D01*
X53866Y32257D02*
X54181D01*
X53203Y32608D02*
Y32923D01*
X53325Y32486D02*
X53640D01*
X53325Y33045D02*
X53640D01*
X53866Y32484D02*
X54181D01*
X54303Y32606D02*
Y32921D01*
X53866Y33043D02*
X54181D01*
X53203Y33394D02*
Y33709D01*
X53325Y33272D02*
X53640D01*
X53325Y33831D02*
X53640D01*
X53866Y33270D02*
X54181D01*
X54303Y33392D02*
Y33706D01*
X53866Y33828D02*
X54181D01*
X53203Y34180D02*
Y34495D01*
X53325Y34058D02*
X53640D01*
X53325Y34616D02*
X53640D01*
X53866Y34055D02*
X54181D01*
X54303Y34177D02*
Y34492D01*
X53866Y34614D02*
X54181D01*
X49072Y29341D02*
Y34450D01*
X48972D02*
X49917Y34460D01*
X48972Y29341D02*
X51728D01*
X51628D02*
Y34468D01*
X50783Y34460D02*
X51728Y34468D01*
X28750Y34950D02*
X29750D01*
X26950D02*
X27950D01*
X26950D02*
Y37150D01*
Y37250D02*
X27450Y37750D01*
X26950Y37150D02*
Y37250D01*
X29250Y37750D02*
X29750Y37250D01*
Y37150D02*
Y37250D01*
X27450Y37750D02*
X27950D01*
X29750Y34950D02*
Y37150D01*
X28750Y37750D02*
X29250D01*
X26143Y37970D02*
X26458D01*
X26021Y37533D02*
Y37848D01*
X26580Y37533D02*
Y37848D01*
X26018Y36991D02*
Y37306D01*
X26140Y36869D02*
X26455D01*
X26577Y36991D02*
Y37306D01*
X26140Y35530D02*
X26455D01*
X26577Y35652D02*
Y35967D01*
X26018Y35652D02*
Y35967D01*
X26580Y36194D02*
Y36509D01*
X26143Y36631D02*
X26458D01*
X26021Y36194D02*
Y36509D01*
X54957Y13954D02*
Y19154D01*
Y13954D02*
X56517D01*
X54506Y24230D02*
X54628D01*
X53441D02*
X53694D01*
X52441D02*
X52759D01*
X51441D02*
X51759D01*
X50441D02*
X50759D01*
X49441D02*
X49759D01*
X48441D02*
X48759D01*
X47441D02*
X47759D01*
X46441D02*
X46759D01*
X45572D02*
X45759D01*
X45572Y21670D02*
Y24230D01*
Y21670D02*
X45759D01*
X46441D02*
X46759D01*
X47441D02*
X47759D01*
X48441D02*
X48759D01*
X49441D02*
X49759D01*
X50441D02*
X50759D01*
X51441D02*
X51759D01*
X52441D02*
X52759D01*
X53441D02*
X53759D01*
X54441D02*
X54628D01*
Y22700D01*
Y23200D02*
Y24230D01*
X26100Y33650D02*
X26600D01*
X27100Y30850D02*
Y33050D01*
X24800Y33650D02*
X25300D01*
X27100Y33050D02*
Y33150D01*
X26600Y33650D02*
X27100Y33150D01*
X24300Y33050D02*
Y33150D01*
X24800Y33650D01*
X24300Y30850D02*
Y33050D01*
Y30850D02*
X25300D01*
X26100D02*
X27100D01*
X28323Y31242D02*
Y31557D01*
X28445Y31679D02*
X28760D01*
X28882Y31242D02*
Y31557D01*
X28320Y30700D02*
Y31015D01*
X28879Y30700D02*
Y31015D01*
X28442Y30578D02*
X28757D01*
X24450Y37750D02*
X24950D01*
X25450Y34950D02*
Y37150D01*
X23150Y37750D02*
X23650D01*
X25450Y37150D02*
Y37250D01*
X24950Y37750D02*
X25450Y37250D01*
X22650Y37150D02*
Y37250D01*
X23150Y37750D01*
X22650Y34950D02*
Y37150D01*
Y34950D02*
X23650D01*
X24450D02*
X25450D01*
X21873Y37533D02*
Y37848D01*
X21995Y37970D02*
X22310D01*
X22432Y37533D02*
Y37848D01*
X21870Y36991D02*
Y37306D01*
X22429Y36991D02*
Y37306D01*
X21992Y36869D02*
X22307D01*
X23273Y31242D02*
Y31557D01*
X23395Y31679D02*
X23710D01*
X23832Y31242D02*
Y31557D01*
X23270Y30700D02*
Y31015D01*
X23829Y30700D02*
Y31015D01*
X23392Y30578D02*
X23707D01*
X39376Y27819D02*
Y29304D01*
Y27819D02*
X42930D01*
Y29304D01*
X39376D02*
X42930D01*
X43117Y27650D02*
Y29500D01*
X42930Y28519D02*
X43117D01*
X42930Y28162D02*
X43117D01*
X39180Y27650D02*
Y29500D01*
Y28519D02*
X39367D01*
X39180Y28152D02*
X39367Y28169D01*
X39180Y29500D02*
X43117D01*
X41945Y27650D02*
Y27819D01*
X40395Y27650D02*
Y27819D01*
X39180Y27650D02*
X43117D01*
X30656Y24230D02*
X30778D01*
X29591D02*
X29844D01*
X28591D02*
X28909D01*
X27591D02*
X27909D01*
X26591D02*
X26909D01*
X25591D02*
X25909D01*
X24591D02*
X24909D01*
X23591D02*
X23909D01*
X22591D02*
X22909D01*
X21722D02*
X21909D01*
X21722Y21670D02*
Y24230D01*
Y21670D02*
X21909D01*
X22591D02*
X22909D01*
X23591D02*
X23909D01*
X24591D02*
X24909D01*
X25591D02*
X25909D01*
X26591D02*
X26909D01*
X27591D02*
X27909D01*
X28591D02*
X28909D01*
X29591D02*
X29909D01*
X30591D02*
X30778D01*
Y22700D01*
Y23200D02*
Y24230D01*
X24700Y25250D02*
Y27750D01*
X25200Y28250D01*
X27200D01*
X27700Y25250D02*
Y27750D01*
X27200Y28250D02*
X27700Y27750D01*
X24700Y25250D02*
X27700D01*
X22567Y45677D02*
X22581D01*
X22373Y45483D02*
X22567Y45677D01*
X24027Y45388D02*
Y45677D01*
X22373Y44023D02*
Y44302D01*
Y45390D02*
Y45677D01*
X23738Y44023D02*
X24027D01*
X22373D02*
X22650D01*
X23738Y45677D02*
X24027D01*
X22373D02*
X22650D01*
X24027Y44023D02*
Y44300D01*
X24769Y44223D02*
X25084D01*
X24647Y44345D02*
Y44660D01*
X24769Y44782D02*
X25084D01*
X25310Y44220D02*
X25625D01*
X25310Y44779D02*
X25625D01*
X25747Y44342D02*
Y44657D01*
X23102Y48967D02*
Y49050D01*
Y48150D02*
Y48233D01*
X24362Y48967D02*
Y49050D01*
Y48150D02*
Y48233D01*
X23102Y48150D02*
X24362D01*
X23102Y49050D02*
X23783D01*
X24362D01*
X26645Y47319D02*
Y48803D01*
Y47319D02*
X30199D01*
Y48803D01*
X26645D02*
X30199D01*
X30386Y47150D02*
Y49000D01*
X30199Y48019D02*
X30386D01*
X30199Y47662D02*
X30386D01*
X26448Y47150D02*
Y49000D01*
Y48019D02*
X26635D01*
X26448Y47652D02*
X26635Y47669D01*
X26448Y49000D02*
X30386D01*
X29214Y47150D02*
Y47319D01*
X27664Y47150D02*
Y47319D01*
X26448Y47150D02*
X30386D01*
X26250Y43950D02*
X27150D01*
Y43750D02*
Y43950D01*
X27550Y43750D02*
Y43950D01*
X28050D01*
Y44150D01*
X28250D01*
X28050Y44450D02*
X28250D01*
X28050D02*
Y45850D01*
X28250D01*
X28050Y46150D02*
X28250D01*
X28050D02*
Y46350D01*
X27550D02*
X28050D01*
X27550D02*
Y46550D01*
X27150Y46350D02*
Y46550D01*
X26250Y46350D02*
X27150D01*
X26250Y43950D02*
Y46350D01*
X26011Y43693D02*
X28275D01*
X26011D02*
X26011Y46607D01*
X26011D02*
X28275D01*
Y43693D02*
Y46607D01*
X30926Y47319D02*
Y48803D01*
Y47319D02*
X34480D01*
Y48803D01*
X30926D02*
X34480D01*
X34667Y47150D02*
Y49000D01*
X34480Y48019D02*
X34667D01*
X34480Y47662D02*
X34667D01*
X30730Y47150D02*
Y49000D01*
Y48019D02*
X30917D01*
X30730Y47652D02*
X30917Y47669D01*
X30730Y49000D02*
X34667D01*
X33495Y47150D02*
Y47319D01*
X31945Y47150D02*
Y47319D01*
X30730Y47150D02*
X34667D01*
X28219Y40323D02*
X28534D01*
X28097Y40445D02*
Y40760D01*
X28219Y40882D02*
X28534D01*
X28760Y40320D02*
X29075D01*
X28760Y40879D02*
X29075D01*
X29197Y40442D02*
Y40757D01*
X28219Y42723D02*
X28534D01*
X28097Y42845D02*
Y43160D01*
X28219Y43282D02*
X28534D01*
X28760Y42720D02*
X29075D01*
X28760Y43279D02*
X29075D01*
X29197Y42842D02*
Y43157D01*
X37350Y37750D02*
X37850D01*
X38350Y34950D02*
Y37150D01*
X36050Y37750D02*
X36550D01*
X38350Y37150D02*
Y37250D01*
X37850Y37750D02*
X38350Y37250D01*
X35550Y37150D02*
Y37250D01*
X36050Y37750D01*
X35550Y34950D02*
Y37150D01*
Y34950D02*
X36550D01*
X37350D02*
X38350D01*
X34571Y36194D02*
Y36509D01*
X34693Y36631D02*
X35008D01*
X35130Y36194D02*
Y36509D01*
X34568Y35652D02*
Y35967D01*
X35127Y35652D02*
Y35967D01*
X34690Y35530D02*
X35005D01*
X35127Y36991D02*
Y37306D01*
X34690Y36869D02*
X35005D01*
X34568Y36991D02*
Y37306D01*
X35130Y37533D02*
Y37848D01*
X34571Y37533D02*
Y37848D01*
X34693Y37970D02*
X35008D01*
X35296Y44590D02*
X36004D01*
X35296Y45810D02*
X36004D01*
X35477Y46469D02*
Y46784D01*
X35040Y46347D02*
X35355D01*
X34918Y46469D02*
Y46784D01*
X35480Y47010D02*
Y47325D01*
X34921Y47010D02*
Y47325D01*
X35043Y47447D02*
X35358D01*
X34921Y43816D02*
Y44131D01*
X35043Y44253D02*
X35358D01*
X35480Y43816D02*
Y44131D01*
X34918Y43275D02*
Y43590D01*
X35477Y43275D02*
Y43590D01*
X35040Y43153D02*
X35355D01*
X35750Y46000D02*
Y48500D01*
X36250Y49000D01*
X38250D01*
X38750Y46000D02*
Y48500D01*
X38250Y49000D02*
X38750Y48500D01*
X35750Y46000D02*
X38750D01*
X29773Y41516D02*
Y41831D01*
X29895Y41953D02*
X30210D01*
X30332Y41516D02*
Y41831D01*
X29770Y40975D02*
Y41290D01*
X30329Y40975D02*
Y41290D01*
X29892Y40853D02*
X30207D01*
X30329Y42419D02*
Y42734D01*
X29892Y42297D02*
X30207D01*
X29770Y42419D02*
Y42734D01*
X30332Y42960D02*
Y43275D01*
X29773Y42960D02*
Y43275D01*
X29895Y43397D02*
X30210D01*
X30727Y36991D02*
Y37306D01*
X30290Y36869D02*
X30605D01*
X30168Y36991D02*
Y37306D01*
X30730Y37533D02*
Y37848D01*
X30171Y37533D02*
Y37848D01*
X30293Y37970D02*
X30608D01*
X30171Y36194D02*
Y36509D01*
X30293Y36631D02*
X30608D01*
X30730Y36194D02*
Y36509D01*
X30168Y35652D02*
Y35967D01*
X30727Y35652D02*
Y35967D01*
X30290Y35530D02*
X30605D01*
X31750Y34950D02*
X32250D01*
X31250Y35550D02*
Y37750D01*
X33050Y34950D02*
X33550D01*
X31250Y35450D02*
Y35550D01*
Y35450D02*
X31750Y34950D01*
X34050Y35450D02*
Y35550D01*
X33550Y34950D02*
X34050Y35450D01*
Y35550D02*
Y37750D01*
X33050D02*
X34050D01*
X31250D02*
X32250D01*
X38921Y36194D02*
Y36509D01*
X39043Y36631D02*
X39358D01*
X39480Y36194D02*
Y36509D01*
X38918Y35652D02*
Y35967D01*
X39477Y35652D02*
Y35967D01*
X39040Y35530D02*
X39355D01*
X39477Y36991D02*
Y37306D01*
X39040Y36869D02*
X39355D01*
X38918Y36991D02*
Y37306D01*
X39480Y37533D02*
Y37848D01*
X38921Y37533D02*
Y37848D01*
X39043Y37970D02*
X39358D01*
X40350Y34950D02*
X40850D01*
X39850Y35550D02*
Y37750D01*
X41650Y34950D02*
X42150D01*
X39850Y35450D02*
Y35550D01*
Y35450D02*
X40350Y34950D01*
X42650Y35450D02*
Y35550D01*
X42150Y34950D02*
X42650Y35450D01*
Y35550D02*
Y37750D01*
X41650D02*
X42650D01*
X39850D02*
X40850D01*
X34819Y41673D02*
X35134D01*
X34697Y41795D02*
Y42110D01*
X34819Y42232D02*
X35134D01*
X35360Y41670D02*
X35675D01*
X35360Y42229D02*
X35675D01*
X35797Y41792D02*
Y42107D01*
X34819Y40873D02*
X35134D01*
X34697Y40995D02*
Y41310D01*
X34819Y41432D02*
X35134D01*
X35360Y40870D02*
X35675D01*
X35360Y41429D02*
X35675D01*
X35797Y40992D02*
Y41307D01*
X36930Y25900D02*
X40470D01*
X36530Y21600D02*
X40470D01*
X36530Y26100D02*
X40470D01*
X36530Y25500D02*
X36930Y25900D01*
X36530Y21800D02*
X40470D01*
X36530D02*
Y22130D01*
Y23120D02*
Y23450D01*
Y24420D02*
Y24750D01*
X40470Y25570D02*
Y25900D01*
Y24400D02*
Y24730D01*
Y21800D02*
Y22130D01*
Y23100D02*
Y23430D01*
X36530Y16950D02*
X40070D01*
X36530Y21250D02*
X40470D01*
X36530Y16750D02*
X40470D01*
X40070Y16950D02*
X40470Y17350D01*
X36530Y21050D02*
X40470D01*
Y20720D02*
Y21050D01*
Y19400D02*
Y19730D01*
Y18100D02*
Y18430D01*
X36530Y16950D02*
Y17280D01*
Y18120D02*
Y18450D01*
Y20720D02*
Y21050D01*
Y19420D02*
Y19750D01*
X48785Y41541D02*
X49100D01*
X48663Y41663D02*
Y41978D01*
X48785Y42100D02*
X49100D01*
X49327Y41539D02*
X49642D01*
X49327Y42098D02*
X49642D01*
X49764Y41661D02*
Y41976D01*
X49327Y37889D02*
X49642D01*
X49764Y37452D02*
Y37767D01*
X49327Y37330D02*
X49642D01*
X48785Y37891D02*
X49100D01*
X48785Y37332D02*
X49100D01*
X48663Y37454D02*
Y37769D01*
X48435Y50190D02*
X48575Y50330D01*
X49125D01*
X47615Y50190D02*
X48435D01*
X49125Y49530D02*
Y50330D01*
X46925D02*
X47475D01*
X47615Y50190D01*
X46925Y49530D02*
Y50330D01*
X46725Y49530D02*
X46925D01*
X49125D02*
X49325D01*
X46925D02*
X49125D01*
X46725Y44610D02*
X49325D01*
X46725Y46240D02*
Y47990D01*
X49325Y45640D02*
Y46890D01*
Y47990D02*
Y48440D01*
X46725Y49040D02*
Y49530D01*
Y44610D02*
Y45240D01*
X49325Y49390D02*
Y49530D01*
X33400Y31900D02*
X33767Y31296D01*
Y31300D02*
X38000D01*
X32504Y34532D02*
X45496D01*
Y31068D02*
Y34532D01*
X32504Y31068D02*
Y34532D01*
X38000Y31300D02*
Y31600D01*
X40000D01*
Y31300D02*
Y31600D01*
X32700Y31300D02*
Y34300D01*
X45300D01*
Y31300D02*
Y34300D01*
X40000Y31300D02*
X45300D01*
X33067Y31296D02*
X33400Y31900D01*
X32504Y31068D02*
X45496Y31068D01*
X32700Y31300D02*
X33067D01*
X50195Y42178D02*
Y42493D01*
X50317Y42615D02*
X50632D01*
X50754Y42178D02*
Y42493D01*
X50193Y41636D02*
Y41951D01*
X50752Y41636D02*
Y41951D01*
X50315Y41514D02*
X50630D01*
X50750Y36880D02*
Y37195D01*
X50313Y36758D02*
X50628D01*
X50191Y36880D02*
Y37195D01*
X50752Y37422D02*
Y37737D01*
X50193Y37422D02*
Y37737D01*
X50315Y37859D02*
X50630D01*
X52985Y50190D02*
X53125Y50330D01*
X53675D01*
X52165Y50190D02*
X52985D01*
X53675Y49530D02*
Y50330D01*
X51475D02*
X52025D01*
X52165Y50190D01*
X51475Y49530D02*
Y50330D01*
X51275Y49530D02*
X51475D01*
X53675D02*
X53875D01*
X51475D02*
X53675D01*
X51275Y44610D02*
X53875D01*
X51275Y46240D02*
Y47990D01*
X53875Y45640D02*
Y46890D01*
Y47990D02*
Y48440D01*
X51275Y49040D02*
Y49530D01*
Y44610D02*
Y45240D01*
X53875Y49390D02*
Y49530D01*
X51798Y42098D02*
X52113D01*
X52235Y41661D02*
Y41976D01*
X51798Y41539D02*
X52113D01*
X51256Y42100D02*
X51571D01*
X51256Y41541D02*
X51571D01*
X51134Y41663D02*
Y41978D01*
X51256Y37332D02*
X51571D01*
X51134Y37454D02*
Y37769D01*
X51256Y37891D02*
X51571D01*
X51798Y37330D02*
X52113D01*
X51798Y37889D02*
X52113D01*
X52235Y37452D02*
Y37767D01*
X39141Y42527D02*
X39456D01*
X39578Y42090D02*
Y42405D01*
X39141Y41968D02*
X39456D01*
X38599Y42530D02*
X38914D01*
X38599Y41971D02*
X38914D01*
X38477Y42093D02*
Y42408D01*
X45069Y40623D02*
X45384D01*
X44947Y40745D02*
Y41060D01*
X45069Y41182D02*
X45384D01*
X45610Y40620D02*
X45925D01*
X45610Y41179D02*
X45925D01*
X46047Y40742D02*
Y41057D01*
X46469Y32486D02*
X46784D01*
X46347Y32608D02*
Y32923D01*
X46469Y33045D02*
X46784D01*
X47010Y32484D02*
X47325D01*
X47010Y33043D02*
X47325D01*
X47447Y32606D02*
Y32921D01*
X46469Y31700D02*
X46784D01*
X46347Y31822D02*
Y32137D01*
X46469Y32259D02*
X46784D01*
X47010Y31698D02*
X47325D01*
X47010Y32257D02*
X47325D01*
X47447Y31820D02*
Y32135D01*
X46469Y33272D02*
X46784D01*
X46347Y33394D02*
Y33709D01*
X46469Y33831D02*
X46784D01*
X47010Y33270D02*
X47325D01*
X47010Y33828D02*
X47325D01*
X47447Y33392D02*
Y33706D01*
X46469Y34058D02*
X46784D01*
X46347Y34180D02*
Y34495D01*
X46469Y34616D02*
X46784D01*
X47010Y34055D02*
X47325D01*
X47010Y34614D02*
X47325D01*
X47447Y34177D02*
Y34492D01*
X39116Y43327D02*
X39431D01*
X39553Y42890D02*
Y43205D01*
X39116Y42768D02*
X39431D01*
X38575Y43330D02*
X38890D01*
X38575Y42771D02*
X38890D01*
X38453Y42893D02*
Y43208D01*
X45616Y42727D02*
X45931D01*
X46053Y42290D02*
Y42605D01*
X45616Y42168D02*
X45931D01*
X45075Y42730D02*
X45390D01*
X45075Y42171D02*
X45390D01*
X44953Y42293D02*
Y42608D01*
X38569Y43523D02*
X38884D01*
X38447Y43645D02*
Y43960D01*
X38569Y44082D02*
X38884D01*
X39110Y43520D02*
X39425D01*
X39110Y44079D02*
X39425D01*
X39547Y43642D02*
Y43957D01*
X46469Y29343D02*
X46784D01*
X46347Y29465D02*
Y29780D01*
X46469Y29902D02*
X46784D01*
X47010Y29341D02*
X47325D01*
X47010Y29900D02*
X47325D01*
X47447Y29463D02*
Y29778D01*
X39216Y45677D02*
X39531D01*
X39653Y45240D02*
Y45555D01*
X39216Y45118D02*
X39531D01*
X38675Y45680D02*
X38990D01*
X38675Y45121D02*
X38990D01*
X38553Y45243D02*
Y45558D01*
X45069Y46173D02*
X45384D01*
X44947Y46295D02*
Y46610D01*
X45069Y46732D02*
X45384D01*
X45610Y46170D02*
X45925D01*
X45610Y46729D02*
X45925D01*
X46047Y46292D02*
Y46607D01*
X39073Y47116D02*
Y47431D01*
X39195Y47553D02*
X39510D01*
X39632Y47116D02*
Y47431D01*
X39070Y46575D02*
Y46890D01*
X39629Y46575D02*
Y46890D01*
X39192Y46453D02*
X39507D01*
X45610Y48077D02*
X45925D01*
X46047Y47640D02*
Y47955D01*
X45610Y47518D02*
X45925D01*
X45069Y48080D02*
X45384D01*
X45069Y47521D02*
X45384D01*
X44947Y47643D02*
Y47958D01*
X48192Y35692D02*
Y36007D01*
X48314Y36129D02*
X48629D01*
X48751Y35692D02*
Y36007D01*
X48190Y35150D02*
Y35465D01*
X48749Y35150D02*
Y35465D01*
X48312Y35028D02*
X48627D01*
X52873Y35692D02*
Y36007D01*
X52995Y36129D02*
X53310D01*
X53432Y35692D02*
Y36007D01*
X52870Y35150D02*
Y35465D01*
X53429Y35150D02*
Y35465D01*
X52992Y35028D02*
X53307D01*
X49752Y35692D02*
Y36007D01*
X49874Y36129D02*
X50189D01*
X50311Y35692D02*
Y36007D01*
X49750Y35150D02*
Y35465D01*
X50309Y35150D02*
Y35465D01*
X49872Y35028D02*
X50187D01*
X51313Y35692D02*
Y36007D01*
X51435Y36129D02*
X51750D01*
X51872Y35692D02*
Y36007D01*
X51310Y35150D02*
Y35465D01*
X51869Y35150D02*
Y35465D01*
X51432Y35028D02*
X51747D01*
X39123Y48466D02*
Y48781D01*
X39245Y48903D02*
X39560D01*
X39682Y48466D02*
Y48781D01*
X39120Y47925D02*
Y48240D01*
X39679Y47925D02*
Y48240D01*
X39242Y47803D02*
X39557D01*
X25200Y44000D02*
Y43700D01*
X25350D01*
X25400Y43750D01*
Y43800D01*
X25350Y43850D01*
X25200D01*
X25350D01*
X25400Y43900D01*
Y43950D01*
X25350Y44000D01*
X25200D01*
X25500Y43850D02*
X25700D01*
X25600Y43950D02*
Y43750D01*
X25250Y46450D02*
Y46150D01*
X25400D01*
X25450Y46200D01*
Y46250D01*
X25400Y46300D01*
X25250D01*
X25400D01*
X25450Y46350D01*
Y46400D01*
X25400Y46450D01*
X25250D01*
X25550Y46300D02*
X25750D01*
X41650Y30300D02*
X41600Y30350D01*
X41500D01*
X41450Y30300D01*
Y30250D01*
X41500Y30200D01*
X41600D01*
X41650Y30150D01*
Y30100D01*
X41600Y30050D01*
X41500D01*
X41450Y30100D01*
X41750Y30200D02*
X41950D01*
X41850Y30300D02*
Y30100D01*
X42350Y30350D02*
Y30050D01*
X42500D01*
X42550Y30100D01*
Y30300D01*
X42500Y30350D01*
X42350D01*
X42650Y30200D02*
X42850D01*
X42750Y30300D02*
Y30100D01*
X43249Y30350D02*
Y30050D01*
X43399D01*
X43449Y30100D01*
Y30300D01*
X43399Y30350D01*
X43249D01*
X43549Y30200D02*
X43749D01*
X44349Y30300D02*
X44299Y30350D01*
X44199D01*
X44149Y30300D01*
Y30250D01*
X44199Y30200D01*
X44299D01*
X44349Y30150D01*
Y30100D01*
X44299Y30050D01*
X44199D01*
X44149Y30100D01*
X44449Y30200D02*
X44649D01*
X52100Y44200D02*
X51900D01*
X51800Y44100D01*
Y43700D01*
X51900Y43600D01*
X52100D01*
X52200Y43700D01*
Y44100D01*
X52100Y44200D01*
X52400D02*
Y43700D01*
X52500Y43600D01*
X52700D01*
X52800Y43700D01*
Y44200D01*
X53000D02*
X53399D01*
X53200D01*
Y43600D01*
X47550Y44250D02*
X47750D01*
X47650D01*
Y43650D01*
X47550D01*
X47750D01*
X48050D02*
Y44250D01*
X48450Y43650D01*
Y44250D01*
X26800Y47000D02*
X26750Y47050D01*
X26650D01*
X26600Y47000D01*
Y46950D01*
X26650Y46900D01*
X26750D01*
X26800Y46850D01*
Y46800D01*
X26750Y46750D01*
X26650D01*
X26600Y46800D01*
X27400Y47000D02*
X27350Y47050D01*
X27250D01*
X27200Y47000D01*
Y46800D01*
X27250Y46750D01*
X27350D01*
X27400Y46800D01*
X28000Y47000D02*
X27950Y47050D01*
X27850D01*
X27800Y47000D01*
Y46800D01*
X27850Y46750D01*
X27950D01*
X28000Y46800D01*
Y46900D01*
X27900D01*
X28599Y47000D02*
X28549Y47050D01*
X28449D01*
X28399Y47000D01*
Y46800D01*
X28449Y46750D01*
X28549D01*
X28599Y46800D01*
Y46900D01*
X28499D01*
X29149Y47050D02*
X29049D01*
X28999Y47000D01*
Y46800D01*
X29049Y46750D01*
X29149D01*
X29199Y46800D01*
Y47000D01*
X29149Y47050D01*
X29599D02*
Y46750D01*
X29749D01*
X29799Y46800D01*
Y47000D01*
X29749Y47050D01*
X29599D01*
X30399Y47000D02*
X30349Y47050D01*
X30249D01*
X30199Y47000D01*
Y46950D01*
X30249Y46900D01*
X30349D01*
X30399Y46850D01*
Y46800D01*
X30349Y46750D01*
X30249D01*
X30199Y46800D01*
X30999Y47000D02*
X30949Y47050D01*
X30849D01*
X30799Y47000D01*
Y46800D01*
X30849Y46750D01*
X30949D01*
X30999Y46800D01*
Y46900D01*
X30899D01*
X28950Y37050D02*
Y36850D01*
X29050Y36950D02*
X28850D01*
X26300Y32950D02*
Y32750D01*
X26400Y32850D02*
X26200D01*
X24650Y37050D02*
Y36850D01*
X24750Y36950D02*
X24550D01*
X37550Y37050D02*
Y36850D01*
X37650Y36950D02*
X37450D01*
X32050Y35650D02*
Y35850D01*
X31950Y35750D02*
X32150D01*
X40650Y35650D02*
Y35850D01*
X40550Y35750D02*
X40750D01*
D11*
X49081Y39409D02*
G03*
X49081Y39409I-59J0D01*
G01*
X48790Y38621D02*
G03*
X48790Y38621I-59J0D01*
G01*
X44179Y40409D02*
G03*
X44179Y40409I-59J0D01*
G01*
X43320Y40700D02*
G03*
X43320Y40700I-59J0D01*
G01*
X44229Y45009D02*
G03*
X44229Y45009I-59J0D01*
G01*
X43370Y45300D02*
G03*
X43370Y45300I-59J0D01*
G01*
D12*
X54380Y23600D02*
G03*
X54380Y23598I-118J-1D01*
G01*
X30530Y23600D02*
G03*
X30530Y23598I-118J-1D01*
G01*
D13*
X54661Y24450D02*
G03*
X54661Y24449I-49J-0D01*
G01*
X30811Y24450D02*
G03*
X30811Y24449I-49J-0D01*
G01*
D14*
X22259Y45470D02*
G03*
X22259Y45470I-49J0D01*
G01*
D15*
X37940Y15555D02*
Y15932D01*
Y15555D02*
X38460D01*
Y15932D01*
X37940Y16268D02*
Y16645D01*
X38460D01*
Y16268D02*
Y16645D01*
X37940Y26305D02*
Y26682D01*
Y26305D02*
X38460D01*
Y26682D01*
X37940Y27018D02*
Y27395D01*
X38460D01*
Y27018D02*
Y27395D01*
X39815Y29705D02*
Y30082D01*
Y29705D02*
X40335D01*
Y30082D01*
X39815Y30418D02*
Y30795D01*
X40335D01*
Y30418D02*
Y30795D01*
X39140Y29705D02*
Y30082D01*
Y29705D02*
X39660D01*
Y30082D01*
X39140Y30418D02*
Y30795D01*
X39660D01*
Y30418D02*
Y30795D01*
X28448Y43877D02*
X28550D01*
X29450D02*
X29552D01*
X28448D02*
Y46023D01*
X29552Y43877D02*
Y46023D01*
X28441Y45250D02*
X29545D01*
X53896Y30892D02*
X54273D01*
Y31413D01*
X53896D02*
X54273D01*
X53183Y30892D02*
X53560D01*
X53183D02*
Y31413D01*
X53560D01*
X53896Y30107D02*
X54273D01*
Y30627D01*
X53896D02*
X54273D01*
X53183Y30107D02*
X53560D01*
X53183D02*
Y30627D01*
X53560D01*
X48677Y42822D02*
X49054D01*
X48677Y42302D02*
Y42822D01*
Y42302D02*
X49054D01*
X49390Y42822D02*
X49768D01*
Y42302D02*
Y42822D01*
X49390Y42302D02*
X49768D01*
X51840D02*
X52218D01*
Y42822D01*
X51840D02*
X52218D01*
X51127Y42302D02*
X51504D01*
X51127D02*
Y42822D01*
X51504D01*
X48790Y39113D02*
Y40311D01*
X52255D01*
Y39113D02*
Y40311D01*
X48790Y39113D02*
X52255D01*
X29755Y44650D02*
X30859D01*
X29748Y43877D02*
Y46023D01*
X30852Y43877D02*
Y46023D01*
X29748D02*
X29850D01*
X30750D02*
X30852D01*
X46037Y19144D02*
Y20643D01*
X46137Y20744D01*
X54037D01*
X46037Y19144D02*
X54037D01*
Y20744D01*
X30380Y19144D02*
Y20744D01*
X22380Y19144D02*
X30380D01*
X22480Y20744D02*
X30380D01*
X22380Y20643D02*
X22480Y20744D01*
X22380Y19144D02*
Y20643D01*
X42430Y12675D02*
Y13052D01*
Y12675D02*
X42950D01*
Y13052D01*
X42430Y13388D02*
Y13765D01*
X42950D01*
Y13388D02*
Y13765D01*
X39443Y12675D02*
Y13052D01*
Y12675D02*
X39963D01*
Y13052D01*
X39443Y13388D02*
Y13765D01*
X39963D01*
Y13388D02*
Y13765D01*
X38448Y12675D02*
Y13052D01*
Y12675D02*
X38968D01*
Y13052D01*
X38448Y13388D02*
Y13765D01*
X38968D01*
Y13388D02*
Y13765D01*
X41434Y12675D02*
Y13052D01*
Y12675D02*
X41954D01*
Y13052D01*
X41434Y13388D02*
Y13765D01*
X41954D01*
Y13388D02*
Y13765D01*
X40439Y12675D02*
Y13052D01*
Y12675D02*
X40959D01*
Y13052D01*
X40439Y13388D02*
Y13765D01*
X40959D01*
Y13388D02*
Y13765D01*
X34466Y12675D02*
Y13052D01*
Y12675D02*
X34986D01*
Y13052D01*
X34466Y13388D02*
Y13765D01*
X34986D01*
Y13388D02*
Y13765D01*
X33470Y12675D02*
Y13052D01*
Y12675D02*
X33990D01*
Y13052D01*
X33470Y13388D02*
Y13765D01*
X33990D01*
Y13388D02*
Y13765D01*
X35461Y12675D02*
Y13052D01*
Y12675D02*
X35981D01*
Y13052D01*
X35461Y13388D02*
Y13765D01*
X35981D01*
Y13388D02*
Y13765D01*
X37452Y12675D02*
Y13052D01*
Y12675D02*
X37972D01*
Y13052D01*
X37452Y13388D02*
Y13765D01*
X37972D01*
Y13388D02*
Y13765D01*
X36457Y12675D02*
Y13052D01*
Y12675D02*
X36977D01*
Y13052D01*
X36457Y13388D02*
Y13765D01*
X36977D01*
Y13388D02*
Y13765D01*
X27308Y34260D02*
X27686D01*
X27308Y33740D02*
Y34260D01*
Y33740D02*
X27686D01*
X28021Y34260D02*
X28399D01*
Y33740D02*
Y34260D01*
X28021Y33740D02*
X28399D01*
X29360Y33883D02*
Y34260D01*
X28840D02*
X29360D01*
X28840Y33883D02*
Y34260D01*
X29360Y33169D02*
Y33547D01*
X28840Y33169D02*
X29360D01*
X28840D02*
Y33547D01*
X27540Y30608D02*
Y30986D01*
Y30608D02*
X28060D01*
Y30986D01*
X27540Y31321D02*
Y31699D01*
X28060D01*
Y31321D02*
Y31699D01*
X27605Y32671D02*
Y33029D01*
X28295Y33045D02*
Y33455D01*
X27605D02*
X28295D01*
Y32245D02*
Y32655D01*
X27605Y32245D02*
X28295D01*
X22490Y30608D02*
Y30986D01*
Y30608D02*
X23010D01*
Y30986D01*
X22490Y31321D02*
Y31699D01*
X23010D01*
Y31321D02*
Y31699D01*
X40490Y29705D02*
Y30082D01*
Y29705D02*
X41010D01*
Y30082D01*
X40490Y30418D02*
Y30795D01*
X41010D01*
Y30418D02*
Y30795D01*
X25368Y44990D02*
X25745D01*
Y45510D01*
X25368D02*
X25745D01*
X24655Y44990D02*
X25032D01*
X24655D02*
Y45510D01*
X25032D01*
X24550Y48075D02*
Y48225D01*
Y48075D02*
Y48150D01*
X24475D02*
X24625D01*
X21598Y40827D02*
X21700D01*
X22600D02*
X22702D01*
X21598D02*
Y42973D01*
X22702Y40827D02*
Y42973D01*
X21591Y42200D02*
X22695D01*
X26280Y40250D02*
Y40815D01*
Y40250D02*
X27820D01*
Y40815D01*
X26280Y42785D02*
Y43350D01*
X27820D01*
Y42785D02*
Y43350D01*
X31600Y43223D02*
X31702D01*
X30598D02*
X30700D01*
X31702Y41077D02*
Y43223D01*
X30598Y41077D02*
Y43223D01*
X30605Y41850D02*
X31709D01*
X33348Y41077D02*
X33450D01*
X34350D02*
X34452D01*
X33348D02*
Y43223D01*
X34452Y41077D02*
Y43223D01*
X33341Y42450D02*
X34445D01*
X34898Y47905D02*
Y48282D01*
Y47905D02*
X35418D01*
Y48282D01*
X34898Y48618D02*
Y48995D01*
X35418D01*
Y48618D02*
Y48995D01*
X32971Y43223D02*
X33073D01*
X31970D02*
X32071D01*
X33073Y41077D02*
Y43223D01*
X31970Y41077D02*
Y43223D01*
X31977Y41850D02*
X33080D01*
X48643Y37122D02*
X49021D01*
X48643Y36602D02*
Y37122D01*
Y36602D02*
X49021D01*
X49356Y37122D02*
X49734D01*
Y36602D02*
Y37122D01*
X49356Y36602D02*
X49734D01*
X47812Y40122D02*
Y40500D01*
Y40122D02*
X48332D01*
Y40500D01*
X47812Y40835D02*
Y41213D01*
X48332D01*
Y40835D02*
Y41213D01*
X47812Y38210D02*
Y38588D01*
Y38210D02*
X48332D01*
Y38588D01*
X47812Y38923D02*
Y39301D01*
X48332D01*
Y38923D02*
Y39301D01*
X53332Y40835D02*
Y41213D01*
X52812D02*
X53332D01*
X52812Y40835D02*
Y41213D01*
X53332Y40122D02*
Y40500D01*
X52812Y40122D02*
X53332D01*
X52812D02*
Y40500D01*
X53332Y38923D02*
Y39301D01*
X52812D02*
X53332D01*
X52812Y38923D02*
Y39301D01*
X53332Y38210D02*
Y38588D01*
X52812Y38210D02*
X53332D01*
X52812D02*
Y38588D01*
X51878Y36602D02*
X52255D01*
Y37122D01*
X51878D02*
X52255D01*
X51164Y36602D02*
X51542D01*
X51164D02*
Y37122D01*
X51542D01*
X43558Y40392D02*
Y44508D01*
X40942D02*
X43558D01*
X40942Y40392D02*
Y44508D01*
Y40392D02*
X43558D01*
X45668Y41440D02*
X46045D01*
Y41960D01*
X45668D02*
X46045D01*
X44955Y41440D02*
X45332D01*
X44955D02*
Y41960D01*
X45332D01*
X39168Y41240D02*
X39545D01*
Y41760D01*
X39168D02*
X39545D01*
X38455Y41240D02*
X38832D01*
X38455D02*
Y41760D01*
X38832D01*
X44890Y42955D02*
Y43332D01*
Y42955D02*
X45410D01*
Y43332D01*
X44890Y43668D02*
Y44045D01*
X45410D01*
Y43668D02*
Y44045D01*
X45490Y42955D02*
Y43332D01*
Y42955D02*
X46010D01*
Y43332D01*
X45490Y43668D02*
Y44045D01*
X46010D01*
Y43668D02*
Y44045D01*
X54360Y42518D02*
Y42895D01*
X53840D02*
X54360D01*
X53840Y42518D02*
Y42895D01*
X54360Y41805D02*
Y42182D01*
X53840Y41805D02*
X54360D01*
X53840D02*
Y42182D01*
X53140Y41805D02*
Y42182D01*
Y41805D02*
X53660D01*
Y42182D01*
X53140Y42518D02*
Y42895D01*
X53660D01*
Y42518D02*
Y42895D01*
X52070Y35058D02*
Y35436D01*
Y35058D02*
X52591D01*
Y35436D01*
X52070Y35771D02*
Y36149D01*
X52591D01*
Y35771D02*
Y36149D01*
X50510Y35058D02*
Y35436D01*
Y35058D02*
X51030D01*
Y35436D01*
X50510Y35771D02*
Y36149D01*
X51030D01*
Y35771D02*
Y36149D01*
X47390Y35058D02*
Y35436D01*
Y35058D02*
X47910D01*
Y35436D01*
X47390Y35771D02*
Y36149D01*
X47910D01*
Y35771D02*
Y36149D01*
X48950Y35058D02*
Y35436D01*
Y35058D02*
X49470D01*
Y35436D01*
X48950Y35771D02*
Y36149D01*
X49470D01*
Y35771D02*
Y36149D01*
X47040Y30892D02*
X47417D01*
Y31413D01*
X47040D02*
X47417D01*
X46327Y30892D02*
X46704D01*
X46327D02*
Y31413D01*
X46704D01*
X47040Y30107D02*
X47417D01*
Y30627D01*
X47040D02*
X47417D01*
X46327Y30107D02*
X46704D01*
X46327D02*
Y30627D01*
X46704D01*
X43608Y44992D02*
Y49108D01*
X40992D02*
X43608D01*
X40992Y44992D02*
Y49108D01*
Y44992D02*
X43608D01*
X44990Y44805D02*
Y45182D01*
Y44805D02*
X45510D01*
Y45182D01*
X44990Y45518D02*
Y45895D01*
X45510D01*
Y45518D02*
Y45895D01*
X39268Y44490D02*
X39645D01*
Y45010D01*
X39268D02*
X39645D01*
X38555Y44490D02*
X38932D01*
X38555D02*
Y45010D01*
X38932D01*
X44940Y48251D02*
Y48629D01*
Y48251D02*
X45460D01*
Y48629D01*
X44940Y48964D02*
Y49342D01*
X45460D01*
Y48964D02*
Y49342D01*
X45668Y46840D02*
X46045D01*
Y47360D01*
X45668D02*
X46045D01*
X44955Y46840D02*
X45332D01*
X44955D02*
Y47360D01*
X45332D01*
D16*
X33600Y29150D02*
X34400D01*
X34000Y28750D02*
Y29550D01*
X37400Y28750D02*
Y29550D01*
X37000Y29150D02*
X37800D01*
X49900Y26750D02*
X50700D01*
X50300Y26350D02*
Y27150D01*
X25800Y26750D02*
X26600D01*
X26200Y26350D02*
Y27150D01*
X36850Y47500D02*
X37650D01*
X37250Y47100D02*
Y47900D01*
D17*
X45200Y38000D02*
Y38650D01*
X45100Y37900D02*
X45200Y38000D01*
X44200Y37900D02*
X45100D01*
X44100Y38000D02*
X44200Y37900D01*
X44100Y38000D02*
Y38650D01*
Y39250D02*
Y39900D01*
X44200Y40000D01*
X45100D01*
X45200Y39900D01*
Y39250D02*
Y39900D01*
X37400Y41700D02*
X38050D01*
X38150Y41800D01*
Y42700D01*
X38050Y42800D02*
X38150Y42700D01*
X37400Y42800D02*
X38050D01*
X36150D02*
X36800D01*
X36050Y42700D02*
X36150Y42800D01*
X36050Y41800D02*
Y42700D01*
Y41800D02*
X36150Y41700D01*
X36800D01*
X36150Y44200D02*
X36800D01*
X36050Y44100D02*
X36150Y44200D01*
X36050Y43200D02*
Y44100D01*
Y43200D02*
X36150Y43100D01*
X36800D01*
X37400D02*
X38050D01*
X38150Y43200D01*
Y44100D01*
X38050Y44200D02*
X38150Y44100D01*
X37400Y44200D02*
X38050D01*
X46550Y39250D02*
Y39900D01*
X46450Y40000D02*
X46550Y39900D01*
X45550Y40000D02*
X46450D01*
X45450Y39900D02*
X45550Y40000D01*
X45450Y39250D02*
Y39900D01*
Y38000D02*
Y38650D01*
Y38000D02*
X45550Y37900D01*
X46450D01*
X46550Y38000D01*
Y38650D01*
D18*
X41943Y25875D02*
X42077D01*
X41522Y26170D02*
X41935D01*
X41404Y26051D02*
X41522Y26170D01*
X41404Y26012D02*
Y26051D01*
Y25736D02*
Y26012D01*
Y25697D02*
X41522Y25579D01*
X41404Y25697D02*
Y25736D01*
X41522Y25579D02*
X41935D01*
X42537Y25588D02*
Y26170D01*
X42085Y25580D02*
X42537D01*
X42085Y26170D02*
X42537D01*
X42077Y25745D02*
Y26013D01*
X41943Y25875D02*
X42077Y26009D01*
Y26013D01*
X41943Y25875D02*
X42073Y25745D01*
X42077D01*
X41943Y24887D02*
X42077D01*
X41522Y25182D02*
X41935D01*
X41404Y25064D02*
X41522Y25182D01*
X41404Y25024D02*
Y25064D01*
Y24749D02*
Y25024D01*
Y24709D02*
X41522Y24591D01*
X41404Y24709D02*
Y24749D01*
X41522Y24591D02*
X41935D01*
X42537Y24600D02*
Y25183D01*
X42085Y24592D02*
X42537D01*
X42085Y25183D02*
X42537D01*
X42077Y24758D02*
Y25025D01*
X41943Y24887D02*
X42077Y25021D01*
Y25025D01*
X41943Y24887D02*
X42073Y24758D01*
X42077D01*
X41943Y23900D02*
X42077D01*
X41522Y24194D02*
X41935D01*
X41404Y24076D02*
X41522Y24194D01*
X41404Y24037D02*
Y24076D01*
Y23761D02*
Y24037D01*
Y23722D02*
X41522Y23604D01*
X41404Y23722D02*
Y23761D01*
X41522Y23604D02*
X41935D01*
X42537Y23612D02*
Y24195D01*
X42085Y23604D02*
X42537D01*
X42085Y24195D02*
X42537D01*
X42077Y23770D02*
Y24038D01*
X41943Y23900D02*
X42077Y24034D01*
Y24038D01*
X41943Y23900D02*
X42073Y23770D01*
X42077D01*
X41943Y22912D02*
X42077D01*
X41522Y23206D02*
X41935D01*
X41404Y23088D02*
X41522Y23206D01*
X41404Y23049D02*
Y23088D01*
Y22773D02*
Y23049D01*
Y22734D02*
X41522Y22616D01*
X41404Y22734D02*
Y22773D01*
X41522Y22616D02*
X41935D01*
X42537Y22625D02*
Y23207D01*
X42085Y22617D02*
X42537D01*
X42085Y23207D02*
X42537D01*
X42077Y22782D02*
Y23050D01*
X41943Y22912D02*
X42077Y23046D01*
Y23050D01*
X41943Y22912D02*
X42073Y22782D01*
X42077D01*
X41943Y21924D02*
X42077D01*
X41522Y22219D02*
X41935D01*
X41404Y22101D02*
X41522Y22219D01*
X41404Y22061D02*
Y22101D01*
Y21786D02*
Y22061D01*
Y21746D02*
X41522Y21628D01*
X41404Y21746D02*
Y21786D01*
X41522Y21628D02*
X41935D01*
X42537Y21637D02*
Y22220D01*
X42085Y21629D02*
X42537D01*
X42085Y22220D02*
X42537D01*
X42077Y21794D02*
Y22062D01*
X41943Y21924D02*
X42077Y22058D01*
Y22062D01*
X41943Y21924D02*
X42073Y21794D01*
X42077D01*
X41943Y20937D02*
X42077D01*
X41522Y21231D02*
X41935D01*
X41404Y21113D02*
X41522Y21231D01*
X41404Y21073D02*
Y21113D01*
Y20798D02*
Y21073D01*
Y20759D02*
X41522Y20640D01*
X41404Y20759D02*
Y20798D01*
X41522Y20640D02*
X41935D01*
X42537Y20649D02*
Y21232D01*
X42085Y20641D02*
X42537D01*
X42085Y21232D02*
X42537D01*
X42077Y20807D02*
Y21074D01*
X41943Y20937D02*
X42077Y21070D01*
Y21074D01*
X41943Y20937D02*
X42073Y20807D01*
X42077D01*
X41943Y19949D02*
X42077D01*
X41522Y20243D02*
X41935D01*
X41404Y20125D02*
X41522Y20243D01*
X41404Y20086D02*
Y20125D01*
Y19810D02*
Y20086D01*
Y19771D02*
X41522Y19653D01*
X41404Y19771D02*
Y19810D01*
X41522Y19653D02*
X41935D01*
X42537Y19662D02*
Y20244D01*
X42085Y19654D02*
X42537D01*
X42085Y20244D02*
X42537D01*
X42077Y19819D02*
Y20087D01*
X41943Y19949D02*
X42077Y20083D01*
Y20087D01*
X41943Y19949D02*
X42073Y19819D01*
X42077D01*
X41943Y18961D02*
X42077D01*
X41522Y19256D02*
X41935D01*
X41404Y19137D02*
X41522Y19256D01*
X41404Y19098D02*
Y19137D01*
Y18822D02*
Y19098D01*
Y18783D02*
X41522Y18665D01*
X41404Y18783D02*
Y18822D01*
X41522Y18665D02*
X41935D01*
X42537Y18674D02*
Y19256D01*
X42085Y18666D02*
X42537D01*
X42085Y19256D02*
X42537D01*
X42077Y18831D02*
Y19099D01*
X41943Y18961D02*
X42077Y19095D01*
Y19099D01*
X41943Y18961D02*
X42073Y18831D01*
X42077D01*
X41943Y17973D02*
X42077D01*
X41522Y18268D02*
X41935D01*
X41404Y18150D02*
X41522Y18268D01*
X41404Y18110D02*
Y18150D01*
Y17835D02*
Y18110D01*
Y17795D02*
X41522Y17677D01*
X41404Y17795D02*
Y17835D01*
X41522Y17677D02*
X41935D01*
X42537Y17686D02*
Y18269D01*
X42085Y17678D02*
X42537D01*
X42085Y18269D02*
X42537D01*
X42077Y17844D02*
Y18111D01*
X41943Y17973D02*
X42077Y18107D01*
Y18111D01*
X41943Y17973D02*
X42073Y17844D01*
X42077D01*
X41943Y16986D02*
X42077D01*
X41522Y17280D02*
X41935D01*
X41404Y17162D02*
X41522Y17280D01*
X41404Y17123D02*
Y17162D01*
Y16847D02*
Y17123D01*
Y16808D02*
X41522Y16690D01*
X41404Y16808D02*
Y16847D01*
X41522Y16690D02*
X41935D01*
X42537Y16698D02*
Y17281D01*
X42085Y16690D02*
X42537D01*
X42085Y17281D02*
X42537D01*
X42077Y16856D02*
Y17124D01*
X41943Y16986D02*
X42077Y17120D01*
Y17124D01*
X41943Y16986D02*
X42073Y16856D01*
X42077D01*
X33765Y14692D02*
Y14826D01*
X33470Y14271D02*
Y14685D01*
Y14271D02*
X33589Y14153D01*
X33628D01*
X33904D01*
X33943D02*
X34061Y14271D01*
X33904Y14153D02*
X33943D01*
X34061Y14271D02*
Y14685D01*
X33470Y15287D02*
X34052D01*
X34060Y14834D02*
Y15287D01*
X33470Y14834D02*
Y15287D01*
X33627Y14826D02*
X33895D01*
X33631D02*
X33765Y14692D01*
X33627Y14826D02*
X33631D01*
X33765Y14692D02*
X33895Y14822D01*
Y14826D01*
X34753Y14692D02*
Y14826D01*
X34458Y14271D02*
Y14685D01*
Y14271D02*
X34576Y14153D01*
X34616D01*
X34891D01*
X34931D02*
X35049Y14271D01*
X34891Y14153D02*
X34931D01*
X35049Y14271D02*
Y14685D01*
X34457Y15287D02*
X35040D01*
X35048Y14834D02*
Y15287D01*
X34457Y14834D02*
Y15287D01*
X34615Y14826D02*
X34882D01*
X34619D02*
X34753Y14692D01*
X34615Y14826D02*
X34619D01*
X34753Y14692D02*
X34882Y14822D01*
Y14826D01*
X35740Y14692D02*
Y14826D01*
X35446Y14271D02*
Y14685D01*
Y14271D02*
X35564Y14153D01*
X35603D01*
X35879D01*
X35918D02*
X36036Y14271D01*
X35879Y14153D02*
X35918D01*
X36036Y14271D02*
Y14685D01*
X35445Y15287D02*
X36028D01*
X36036Y14834D02*
Y15287D01*
X35445Y14834D02*
Y15287D01*
X35602Y14826D02*
X35870D01*
X35606D02*
X35740Y14692D01*
X35602Y14826D02*
X35606D01*
X35740Y14692D02*
X35870Y14822D01*
Y14826D01*
X36728Y14692D02*
Y14826D01*
X36434Y14271D02*
Y14685D01*
Y14271D02*
X36552Y14153D01*
X36591D01*
X36867D01*
X36906D02*
X37024Y14271D01*
X36867Y14153D02*
X36906D01*
X37024Y14271D02*
Y14685D01*
X36433Y15287D02*
X37015D01*
X37023Y14834D02*
Y15287D01*
X36433Y14834D02*
Y15287D01*
X36590Y14826D02*
X36858D01*
X36594D02*
X36728Y14692D01*
X36590Y14826D02*
X36594D01*
X36728Y14692D02*
X36858Y14822D01*
Y14826D01*
X37716Y14692D02*
Y14826D01*
X37421Y14271D02*
Y14685D01*
Y14271D02*
X37539Y14153D01*
X37579D01*
X37854D01*
X37894D02*
X38012Y14271D01*
X37854Y14153D02*
X37894D01*
X38012Y14271D02*
Y14685D01*
X37420Y15287D02*
X38003D01*
X38011Y14834D02*
Y15287D01*
X37420Y14834D02*
Y15287D01*
X37578Y14826D02*
X37846D01*
X37582D02*
X37716Y14692D01*
X37578Y14826D02*
X37582D01*
X37716Y14692D02*
X37846Y14822D01*
Y14826D01*
X38703Y14692D02*
Y14826D01*
X38409Y14271D02*
Y14685D01*
Y14271D02*
X38527Y14153D01*
X38567D01*
X38842D01*
X38881D02*
X39000Y14271D01*
X38842Y14153D02*
X38881D01*
X39000Y14271D02*
Y14685D01*
X38408Y15287D02*
X38991D01*
X38999Y14834D02*
Y15287D01*
X38408Y14834D02*
Y15287D01*
X38566Y14826D02*
X38833D01*
X38570D02*
X38703Y14692D01*
X38566Y14826D02*
X38570D01*
X38703Y14692D02*
X38833Y14822D01*
Y14826D01*
X39691Y14692D02*
Y14826D01*
X39397Y14271D02*
Y14685D01*
Y14271D02*
X39515Y14153D01*
X39554D01*
X39830D01*
X39869D02*
X39987Y14271D01*
X39830Y14153D02*
X39869D01*
X39987Y14271D02*
Y14685D01*
X39396Y15287D02*
X39978D01*
X39986Y14834D02*
Y15287D01*
X39396Y14834D02*
Y15287D01*
X39553Y14826D02*
X39821D01*
X39557D02*
X39691Y14692D01*
X39553Y14826D02*
X39557D01*
X39691Y14692D02*
X39821Y14822D01*
Y14826D01*
X40679Y14692D02*
Y14826D01*
X40384Y14271D02*
Y14685D01*
Y14271D02*
X40503Y14153D01*
X40542D01*
X40818D01*
X40857D02*
X40975Y14271D01*
X40818Y14153D02*
X40857D01*
X40975Y14271D02*
Y14685D01*
X40384Y15287D02*
X40966D01*
X40974Y14834D02*
Y15287D01*
X40384Y14834D02*
Y15287D01*
X40541Y14826D02*
X40809D01*
X40545D02*
X40679Y14692D01*
X40541Y14826D02*
X40545D01*
X40679Y14692D02*
X40809Y14822D01*
Y14826D01*
X41667Y14692D02*
Y14826D01*
X41372Y14271D02*
Y14685D01*
Y14271D02*
X41490Y14153D01*
X41530D01*
X41805D01*
X41845D02*
X41963Y14271D01*
X41805Y14153D02*
X41845D01*
X41963Y14271D02*
Y14685D01*
X41371Y15287D02*
X41954D01*
X41962Y14834D02*
Y15287D01*
X41371Y14834D02*
Y15287D01*
X41529Y14826D02*
X41796D01*
X41533D02*
X41667Y14692D01*
X41529Y14826D02*
X41533D01*
X41667Y14692D02*
X41796Y14822D01*
Y14826D01*
X42654Y14692D02*
Y14826D01*
X42360Y14271D02*
Y14685D01*
Y14271D02*
X42478Y14153D01*
X42517D01*
X42793D01*
X42832D02*
X42950Y14271D01*
X42793Y14153D02*
X42832D01*
X42950Y14271D02*
Y14685D01*
X42359Y15287D02*
X42942D01*
X42950Y14834D02*
Y15287D01*
X42359Y14834D02*
Y15287D01*
X42516Y14826D02*
X42784D01*
X42520D02*
X42654Y14692D01*
X42516Y14826D02*
X42520D01*
X42654Y14692D02*
X42784Y14822D01*
Y14826D01*
M02*
