M48
;Layer_Color=9474304
;FILE_FORMAT=2:5
INCH,LZ
;TYPE=PLATED
T1F00S00C0.01600
T2F00S00C0.03000
%
T01
X0476489Y0300011
X0457745Y0299756
X0466Y02895
X0446Y02915
X0441Y0277535
X0426Y0278
X0411299Y0281535
X0404Y0283996
X0396701Y0280517
X03935Y02885
X0395255Y0300756
X03965Y0306
X0413256Y0300756
X0426Y0309
X04155Y03585
X0404Y03495
T02
X0476407Y0258
X0466407
X0456407
X0446407
X0436407
X0426407
X0416407
X0406407
X0396408
X0386407
X04085Y0386
X04185
X04285
X04385
X04485
X04585
X04685
X04785
M30
