G04*
G04 #@! TF.GenerationSoftware,Altium Limited,Altium Designer,20.2.6 (244)*
G04*
G04 Layer_Color=32896*
%FSLAX25Y25*%
%MOIN*%
G70*
G04*
G04 #@! TF.SameCoordinates,AC53DD8C-A68E-409E-BB1C-E70DDFC25F91*
G04*
G04*
G04 #@! TF.FilePolarity,Positive*
G04*
G01*
G75*
%ADD10C,0.01000*%
%ADD12C,0.00600*%
G36*
X423583Y252037D02*
X424254D01*
Y251577D01*
X423583D01*
Y250916D01*
X423137D01*
Y251577D01*
X422467D01*
Y252037D01*
X423137D01*
Y252699D01*
X423583D01*
Y252037D01*
D02*
G37*
G36*
X429500Y250547D02*
X428985D01*
Y251613D01*
X428819D01*
X428766Y251608D01*
X428722Y251605D01*
X428686Y251600D01*
X428658Y251594D01*
X428639Y251589D01*
X428625Y251586D01*
X428622Y251583D01*
X428591Y251572D01*
X428564Y251555D01*
X428536Y251539D01*
X428514Y251519D01*
X428495Y251503D01*
X428478Y251492D01*
X428470Y251481D01*
X428467Y251478D01*
X428450Y251461D01*
X428434Y251439D01*
X428414Y251414D01*
X428392Y251386D01*
X428348Y251325D01*
X428301Y251262D01*
X428259Y251201D01*
X428240Y251176D01*
X428226Y251151D01*
X428212Y251132D01*
X428201Y251118D01*
X428195Y251107D01*
X428193Y251104D01*
X427819Y250547D01*
X427201D01*
X427514Y251043D01*
X427547Y251098D01*
X427580Y251145D01*
X427611Y251192D01*
X427639Y251234D01*
X427664Y251273D01*
X427688Y251306D01*
X427711Y251337D01*
X427730Y251364D01*
X427747Y251386D01*
X427763Y251406D01*
X427777Y251422D01*
X427788Y251436D01*
X427797Y251445D01*
X427802Y251453D01*
X427808Y251458D01*
X427849Y251500D01*
X427896Y251541D01*
X427943Y251577D01*
X427988Y251608D01*
X428026Y251636D01*
X428057Y251655D01*
X428068Y251663D01*
X428076Y251666D01*
X428082Y251672D01*
X428085D01*
X428024Y251683D01*
X427965Y251697D01*
X427913Y251713D01*
X427863Y251730D01*
X427816Y251749D01*
X427774Y251769D01*
X427738Y251788D01*
X427705Y251810D01*
X427675Y251830D01*
X427650Y251849D01*
X427628Y251866D01*
X427608Y251880D01*
X427594Y251893D01*
X427586Y251902D01*
X427580Y251907D01*
X427578Y251910D01*
X427547Y251946D01*
X427522Y251985D01*
X427500Y252024D01*
X427481Y252065D01*
X427464Y252104D01*
X427450Y252143D01*
X427431Y252220D01*
X427423Y252253D01*
X427417Y252287D01*
X427414Y252314D01*
X427411Y252339D01*
X427409Y252359D01*
Y252373D01*
Y252384D01*
Y252386D01*
X427414Y252469D01*
X427425Y252544D01*
X427445Y252613D01*
X427464Y252672D01*
X427475Y252697D01*
X427486Y252722D01*
X427494Y252741D01*
X427506Y252758D01*
X427511Y252771D01*
X427517Y252780D01*
X427522Y252785D01*
Y252788D01*
X427566Y252849D01*
X427616Y252902D01*
X427664Y252943D01*
X427711Y252979D01*
X427755Y253004D01*
X427772Y253012D01*
X427788Y253021D01*
X427802Y253026D01*
X427810Y253032D01*
X427816Y253034D01*
X427819D01*
X427855Y253046D01*
X427896Y253057D01*
X427943Y253068D01*
X427990Y253073D01*
X428087Y253087D01*
X428187Y253096D01*
X428231Y253098D01*
X428276Y253101D01*
X428314D01*
X428348Y253104D01*
X429500D01*
Y250547D01*
D02*
G37*
G36*
X425905Y253140D02*
X426010Y253129D01*
X426057Y253120D01*
X426104Y253112D01*
X426146Y253104D01*
X426184Y253096D01*
X426220Y253084D01*
X426251Y253076D01*
X426278Y253068D01*
X426301Y253060D01*
X426317Y253051D01*
X426331Y253048D01*
X426339Y253043D01*
X426342D01*
X426409Y253012D01*
X426470Y252976D01*
X426528Y252938D01*
X426575Y252899D01*
X426616Y252866D01*
X426633Y252852D01*
X426647Y252838D01*
X426658Y252827D01*
X426666Y252818D01*
X426672Y252816D01*
X426675Y252813D01*
X426727Y252752D01*
X426774Y252694D01*
X426816Y252633D01*
X426849Y252580D01*
X426874Y252530D01*
X426885Y252511D01*
X426893Y252494D01*
X426902Y252481D01*
X426907Y252469D01*
X426910Y252464D01*
Y252461D01*
X426929Y252411D01*
X426949Y252356D01*
X426976Y252248D01*
X426999Y252137D01*
X427004Y252084D01*
X427012Y252035D01*
X427015Y251985D01*
X427021Y251943D01*
X427024Y251904D01*
Y251871D01*
X427026Y251843D01*
Y251821D01*
Y251810D01*
Y251805D01*
X427024Y251694D01*
X427012Y251589D01*
X426996Y251489D01*
X426974Y251397D01*
X426949Y251312D01*
X426921Y251234D01*
X426891Y251162D01*
X426857Y251098D01*
X426827Y251040D01*
X426796Y250990D01*
X426769Y250946D01*
X426744Y250910D01*
X426722Y250882D01*
X426705Y250863D01*
X426694Y250852D01*
X426691Y250846D01*
X426625Y250785D01*
X426555Y250733D01*
X426483Y250686D01*
X426409Y250647D01*
X426334Y250614D01*
X426256Y250586D01*
X426184Y250561D01*
X426112Y250544D01*
X426046Y250528D01*
X425985Y250519D01*
X425927Y250511D01*
X425880Y250505D01*
X425841Y250503D01*
X425810Y250500D01*
X425785D01*
X425683Y250503D01*
X425583Y250514D01*
X425492Y250533D01*
X425406Y250555D01*
X425326Y250580D01*
X425251Y250611D01*
X425184Y250641D01*
X425123Y250675D01*
X425068Y250708D01*
X425021Y250738D01*
X424979Y250769D01*
X424946Y250794D01*
X424918Y250816D01*
X424902Y250835D01*
X424888Y250846D01*
X424885Y250849D01*
X424824Y250918D01*
X424774Y250990D01*
X424727Y251068D01*
X424688Y251148D01*
X424658Y251228D01*
X424630Y251309D01*
X424608Y251389D01*
X424589Y251464D01*
X424575Y251536D01*
X424564Y251605D01*
X424558Y251663D01*
X424553Y251716D01*
X424550Y251760D01*
X424547Y251777D01*
Y251791D01*
Y251802D01*
Y251810D01*
Y251816D01*
Y251818D01*
X424550Y251932D01*
X424561Y252040D01*
X424578Y252140D01*
X424600Y252234D01*
X424625Y252320D01*
X424655Y252400D01*
X424686Y252475D01*
X424716Y252539D01*
X424749Y252600D01*
X424780Y252649D01*
X424808Y252694D01*
X424835Y252730D01*
X424858Y252758D01*
X424874Y252777D01*
X424885Y252791D01*
X424888Y252794D01*
X424954Y252854D01*
X425024Y252910D01*
X425096Y252957D01*
X425171Y252996D01*
X425248Y253032D01*
X425323Y253060D01*
X425395Y253082D01*
X425467Y253101D01*
X425533Y253115D01*
X425594Y253126D01*
X425650Y253134D01*
X425697Y253140D01*
X425736Y253143D01*
X425766Y253145D01*
X425791D01*
X425905Y253140D01*
D02*
G37*
G36*
X434204Y251228D02*
X433240D01*
Y251719D01*
X434204D01*
Y251228D01*
D02*
G37*
G36*
X439500Y250547D02*
X438985D01*
Y251613D01*
X438819D01*
X438766Y251608D01*
X438722Y251605D01*
X438686Y251600D01*
X438658Y251594D01*
X438638Y251589D01*
X438625Y251586D01*
X438622Y251583D01*
X438591Y251572D01*
X438564Y251555D01*
X438536Y251539D01*
X438514Y251519D01*
X438494Y251503D01*
X438478Y251492D01*
X438470Y251481D01*
X438467Y251478D01*
X438450Y251461D01*
X438434Y251439D01*
X438414Y251414D01*
X438392Y251386D01*
X438348Y251325D01*
X438301Y251262D01*
X438259Y251201D01*
X438240Y251176D01*
X438226Y251151D01*
X438212Y251132D01*
X438201Y251118D01*
X438195Y251107D01*
X438193Y251104D01*
X437819Y250547D01*
X437201D01*
X437514Y251043D01*
X437547Y251098D01*
X437580Y251145D01*
X437611Y251192D01*
X437639Y251234D01*
X437664Y251273D01*
X437688Y251306D01*
X437711Y251337D01*
X437730Y251364D01*
X437747Y251386D01*
X437763Y251406D01*
X437777Y251422D01*
X437788Y251436D01*
X437796Y251445D01*
X437802Y251453D01*
X437808Y251458D01*
X437849Y251500D01*
X437896Y251541D01*
X437943Y251577D01*
X437988Y251608D01*
X438026Y251636D01*
X438057Y251655D01*
X438068Y251663D01*
X438076Y251666D01*
X438082Y251672D01*
X438085D01*
X438024Y251683D01*
X437965Y251697D01*
X437913Y251713D01*
X437863Y251730D01*
X437816Y251749D01*
X437774Y251769D01*
X437738Y251788D01*
X437705Y251810D01*
X437675Y251830D01*
X437650Y251849D01*
X437628Y251866D01*
X437608Y251880D01*
X437594Y251893D01*
X437586Y251902D01*
X437580Y251907D01*
X437578Y251910D01*
X437547Y251946D01*
X437522Y251985D01*
X437500Y252024D01*
X437481Y252065D01*
X437464Y252104D01*
X437450Y252143D01*
X437431Y252220D01*
X437423Y252253D01*
X437417Y252287D01*
X437414Y252314D01*
X437411Y252339D01*
X437409Y252359D01*
Y252373D01*
Y252384D01*
Y252386D01*
X437414Y252469D01*
X437425Y252544D01*
X437445Y252613D01*
X437464Y252672D01*
X437475Y252697D01*
X437486Y252722D01*
X437495Y252741D01*
X437506Y252758D01*
X437511Y252771D01*
X437517Y252780D01*
X437522Y252785D01*
Y252788D01*
X437567Y252849D01*
X437616Y252902D01*
X437664Y252943D01*
X437711Y252979D01*
X437755Y253004D01*
X437772Y253012D01*
X437788Y253021D01*
X437802Y253026D01*
X437810Y253032D01*
X437816Y253034D01*
X437819D01*
X437855Y253046D01*
X437896Y253057D01*
X437943Y253068D01*
X437990Y253073D01*
X438087Y253087D01*
X438187Y253096D01*
X438231Y253098D01*
X438276Y253101D01*
X438314D01*
X438348Y253104D01*
X439500D01*
Y250547D01*
D02*
G37*
G36*
X435905Y253140D02*
X436010Y253129D01*
X436057Y253120D01*
X436104Y253112D01*
X436145Y253104D01*
X436184Y253096D01*
X436220Y253084D01*
X436251Y253076D01*
X436278Y253068D01*
X436301Y253060D01*
X436317Y253051D01*
X436331Y253048D01*
X436339Y253043D01*
X436342D01*
X436409Y253012D01*
X436470Y252976D01*
X436528Y252938D01*
X436575Y252899D01*
X436616Y252866D01*
X436633Y252852D01*
X436647Y252838D01*
X436658Y252827D01*
X436666Y252818D01*
X436672Y252816D01*
X436675Y252813D01*
X436727Y252752D01*
X436774Y252694D01*
X436816Y252633D01*
X436849Y252580D01*
X436874Y252530D01*
X436885Y252511D01*
X436893Y252494D01*
X436902Y252481D01*
X436907Y252469D01*
X436910Y252464D01*
Y252461D01*
X436929Y252411D01*
X436949Y252356D01*
X436976Y252248D01*
X436999Y252137D01*
X437004Y252084D01*
X437012Y252035D01*
X437015Y251985D01*
X437021Y251943D01*
X437024Y251904D01*
Y251871D01*
X437026Y251843D01*
Y251821D01*
Y251810D01*
Y251805D01*
X437024Y251694D01*
X437012Y251589D01*
X436996Y251489D01*
X436974Y251397D01*
X436949Y251312D01*
X436921Y251234D01*
X436891Y251162D01*
X436857Y251098D01*
X436827Y251040D01*
X436797Y250990D01*
X436769Y250946D01*
X436744Y250910D01*
X436722Y250882D01*
X436705Y250863D01*
X436694Y250852D01*
X436691Y250846D01*
X436625Y250785D01*
X436555Y250733D01*
X436483Y250686D01*
X436409Y250647D01*
X436334Y250614D01*
X436256Y250586D01*
X436184Y250561D01*
X436112Y250544D01*
X436046Y250528D01*
X435985Y250519D01*
X435927Y250511D01*
X435880Y250505D01*
X435841Y250503D01*
X435810Y250500D01*
X435785D01*
X435683Y250503D01*
X435583Y250514D01*
X435492Y250533D01*
X435406Y250555D01*
X435326Y250580D01*
X435251Y250611D01*
X435184Y250641D01*
X435123Y250675D01*
X435068Y250708D01*
X435021Y250738D01*
X434979Y250769D01*
X434946Y250794D01*
X434918Y250816D01*
X434902Y250835D01*
X434888Y250846D01*
X434885Y250849D01*
X434824Y250918D01*
X434774Y250990D01*
X434727Y251068D01*
X434689Y251148D01*
X434658Y251228D01*
X434630Y251309D01*
X434608Y251389D01*
X434589Y251464D01*
X434575Y251536D01*
X434564Y251605D01*
X434558Y251663D01*
X434553Y251716D01*
X434550Y251760D01*
X434547Y251777D01*
Y251791D01*
Y251802D01*
Y251810D01*
Y251816D01*
Y251818D01*
X434550Y251932D01*
X434561Y252040D01*
X434578Y252140D01*
X434600Y252234D01*
X434625Y252320D01*
X434655Y252400D01*
X434686Y252475D01*
X434716Y252539D01*
X434749Y252600D01*
X434780Y252649D01*
X434808Y252694D01*
X434835Y252730D01*
X434858Y252758D01*
X434874Y252777D01*
X434885Y252791D01*
X434888Y252794D01*
X434954Y252854D01*
X435024Y252910D01*
X435096Y252957D01*
X435171Y252996D01*
X435248Y253032D01*
X435323Y253060D01*
X435395Y253082D01*
X435467Y253101D01*
X435533Y253115D01*
X435594Y253126D01*
X435650Y253134D01*
X435697Y253140D01*
X435736Y253143D01*
X435766Y253145D01*
X435791D01*
X435905Y253140D01*
D02*
G37*
G36*
X415424Y250500D02*
X414948D01*
Y252179D01*
X413911Y250500D01*
X413396D01*
Y253057D01*
X413873D01*
Y251339D01*
X414925Y253057D01*
X415424D01*
Y250500D01*
D02*
G37*
G36*
X419000D02*
X418485D01*
Y251566D01*
X418319D01*
X418266Y251561D01*
X418222Y251558D01*
X418186Y251553D01*
X418158Y251547D01*
X418139Y251541D01*
X418125Y251539D01*
X418122Y251536D01*
X418091Y251525D01*
X418064Y251508D01*
X418036Y251492D01*
X418014Y251472D01*
X417994Y251456D01*
X417978Y251445D01*
X417970Y251433D01*
X417967Y251431D01*
X417950Y251414D01*
X417934Y251392D01*
X417914Y251367D01*
X417892Y251339D01*
X417848Y251278D01*
X417801Y251215D01*
X417759Y251154D01*
X417740Y251129D01*
X417726Y251104D01*
X417712Y251084D01*
X417701Y251071D01*
X417695Y251060D01*
X417693Y251057D01*
X417319Y250500D01*
X416701D01*
X417014Y250996D01*
X417047Y251051D01*
X417080Y251098D01*
X417111Y251145D01*
X417139Y251187D01*
X417164Y251226D01*
X417188Y251259D01*
X417211Y251289D01*
X417230Y251317D01*
X417247Y251339D01*
X417263Y251359D01*
X417277Y251375D01*
X417288Y251389D01*
X417297Y251397D01*
X417302Y251406D01*
X417308Y251411D01*
X417349Y251453D01*
X417396Y251494D01*
X417443Y251530D01*
X417488Y251561D01*
X417526Y251589D01*
X417557Y251608D01*
X417568Y251616D01*
X417576Y251619D01*
X417582Y251625D01*
X417585D01*
X417524Y251636D01*
X417465Y251649D01*
X417413Y251666D01*
X417363Y251683D01*
X417316Y251702D01*
X417274Y251722D01*
X417238Y251741D01*
X417205Y251763D01*
X417175Y251782D01*
X417150Y251802D01*
X417128Y251818D01*
X417108Y251832D01*
X417094Y251846D01*
X417086Y251854D01*
X417080Y251860D01*
X417078Y251863D01*
X417047Y251899D01*
X417022Y251938D01*
X417000Y251976D01*
X416981Y252018D01*
X416964Y252057D01*
X416950Y252096D01*
X416931Y252173D01*
X416923Y252206D01*
X416917Y252240D01*
X416914Y252267D01*
X416911Y252292D01*
X416909Y252312D01*
Y252325D01*
Y252337D01*
Y252339D01*
X416914Y252422D01*
X416925Y252497D01*
X416945Y252566D01*
X416964Y252625D01*
X416975Y252649D01*
X416986Y252674D01*
X416994Y252694D01*
X417006Y252711D01*
X417011Y252724D01*
X417017Y252733D01*
X417022Y252738D01*
Y252741D01*
X417066Y252802D01*
X417116Y252854D01*
X417164Y252896D01*
X417211Y252932D01*
X417255Y252957D01*
X417272Y252965D01*
X417288Y252974D01*
X417302Y252979D01*
X417310Y252985D01*
X417316Y252988D01*
X417319D01*
X417355Y252998D01*
X417396Y253010D01*
X417443Y253021D01*
X417490Y253026D01*
X417587Y253040D01*
X417687Y253048D01*
X417731Y253051D01*
X417776Y253054D01*
X417814D01*
X417848Y253057D01*
X419000D01*
Y250500D01*
D02*
G37*
G36*
X416438D02*
X415922D01*
Y253057D01*
X416438D01*
Y250500D01*
D02*
G37*
G36*
X467627Y250547D02*
X467151D01*
Y252226D01*
X466115Y250547D01*
X465600D01*
Y253104D01*
X466076D01*
Y251386D01*
X467129Y253104D01*
X467627D01*
Y250547D01*
D02*
G37*
G36*
X469361Y253140D02*
X469422Y253134D01*
X469481Y253126D01*
X469536Y253115D01*
X469586Y253104D01*
X469633Y253093D01*
X469674Y253082D01*
X469713Y253071D01*
X469747Y253060D01*
X469774Y253048D01*
X469799Y253037D01*
X469819Y253029D01*
X469832Y253024D01*
X469841Y253021D01*
X469843Y253018D01*
X469902Y252985D01*
X469957Y252949D01*
X470010Y252913D01*
X470057Y252874D01*
X470101Y252832D01*
X470140Y252794D01*
X470179Y252755D01*
X470209Y252716D01*
X470240Y252680D01*
X470264Y252647D01*
X470284Y252616D01*
X470303Y252591D01*
X470317Y252569D01*
X470326Y252553D01*
X470331Y252541D01*
X470334Y252539D01*
X470364Y252481D01*
X470389Y252420D01*
X470411Y252359D01*
X470431Y252298D01*
X470445Y252237D01*
X470458Y252179D01*
X470470Y252120D01*
X470478Y252068D01*
X470486Y252018D01*
X470492Y251974D01*
X470495Y251932D01*
X470497Y251896D01*
X470500Y251868D01*
Y251846D01*
Y251835D01*
Y251830D01*
X470497Y251760D01*
X470495Y251694D01*
X470486Y251630D01*
X470478Y251566D01*
X470464Y251508D01*
X470453Y251453D01*
X470439Y251400D01*
X470425Y251350D01*
X470411Y251306D01*
X470398Y251267D01*
X470384Y251231D01*
X470373Y251204D01*
X470364Y251179D01*
X470356Y251162D01*
X470353Y251151D01*
X470350Y251148D01*
X470320Y251090D01*
X470290Y251037D01*
X470254Y250988D01*
X470218Y250940D01*
X470182Y250899D01*
X470143Y250857D01*
X470107Y250821D01*
X470071Y250791D01*
X470037Y250760D01*
X470007Y250735D01*
X469977Y250716D01*
X469954Y250697D01*
X469932Y250683D01*
X469918Y250675D01*
X469907Y250669D01*
X469904Y250666D01*
X469846Y250636D01*
X469788Y250611D01*
X469730Y250589D01*
X469669Y250569D01*
X469608Y250555D01*
X469550Y250542D01*
X469494Y250531D01*
X469442Y250522D01*
X469392Y250514D01*
X469348Y250508D01*
X469306Y250505D01*
X469270Y250503D01*
X469242Y250500D01*
X469204D01*
X469145Y250503D01*
X469087Y250505D01*
X468974Y250519D01*
X468918Y250528D01*
X468868Y250539D01*
X468819Y250550D01*
X468774Y250561D01*
X468733Y250572D01*
X468694Y250580D01*
X468661Y250591D01*
X468633Y250600D01*
X468611Y250608D01*
X468594Y250614D01*
X468583Y250619D01*
X468580D01*
X468525Y250641D01*
X468472Y250666D01*
X468423Y250688D01*
X468378Y250713D01*
X468334Y250735D01*
X468295Y250758D01*
X468262Y250780D01*
X468229Y250802D01*
X468201Y250821D01*
X468176Y250838D01*
X468157Y250855D01*
X468140Y250868D01*
X468126Y250880D01*
X468118Y250888D01*
X468112Y250891D01*
X468110Y250893D01*
Y251916D01*
X469220D01*
Y251483D01*
X468630D01*
Y251156D01*
X468677Y251123D01*
X468724Y251096D01*
X468772Y251071D01*
X468816Y251048D01*
X468855Y251029D01*
X468885Y251015D01*
X468896Y251010D01*
X468904Y251007D01*
X468910Y251004D01*
X468913D01*
X468974Y250982D01*
X469032Y250968D01*
X469085Y250957D01*
X469134Y250949D01*
X469176Y250943D01*
X469195D01*
X469209Y250940D01*
X469237D01*
X469298Y250943D01*
X469353Y250952D01*
X469406Y250963D01*
X469458Y250976D01*
X469506Y250993D01*
X469547Y251012D01*
X469589Y251032D01*
X469625Y251054D01*
X469655Y251076D01*
X469686Y251096D01*
X469708Y251115D01*
X469730Y251132D01*
X469744Y251145D01*
X469758Y251159D01*
X469763Y251165D01*
X469766Y251168D01*
X469802Y251212D01*
X469832Y251262D01*
X469860Y251314D01*
X469882Y251370D01*
X469902Y251428D01*
X469918Y251483D01*
X469932Y251541D01*
X469943Y251594D01*
X469951Y251647D01*
X469957Y251697D01*
X469963Y251738D01*
X469965Y251777D01*
Y251807D01*
X469968Y251832D01*
Y251846D01*
Y251852D01*
X469965Y251929D01*
X469960Y252001D01*
X469949Y252068D01*
X469938Y252129D01*
X469921Y252187D01*
X469904Y252240D01*
X469888Y252287D01*
X469868Y252328D01*
X469849Y252367D01*
X469832Y252397D01*
X469816Y252425D01*
X469799Y252447D01*
X469788Y252467D01*
X469777Y252478D01*
X469771Y252486D01*
X469769Y252489D01*
X469730Y252528D01*
X469688Y252561D01*
X469644Y252589D01*
X469600Y252613D01*
X469555Y252636D01*
X469511Y252652D01*
X469467Y252666D01*
X469425Y252677D01*
X469386Y252685D01*
X469348Y252694D01*
X469314Y252699D01*
X469287Y252702D01*
X469265Y252705D01*
X469231D01*
X469151Y252699D01*
X469079Y252688D01*
X469015Y252669D01*
X468963Y252649D01*
X468940Y252638D01*
X468918Y252630D01*
X468902Y252619D01*
X468888Y252611D01*
X468874Y252605D01*
X468866Y252600D01*
X468863Y252594D01*
X468860D01*
X468808Y252550D01*
X468766Y252503D01*
X468730Y252453D01*
X468702Y252406D01*
X468680Y252364D01*
X468672Y252345D01*
X468666Y252328D01*
X468661Y252317D01*
X468658Y252306D01*
X468655Y252301D01*
Y252298D01*
X468143Y252395D01*
X468159Y252458D01*
X468179Y252519D01*
X468204Y252577D01*
X468229Y252630D01*
X468256Y252677D01*
X468287Y252724D01*
X468315Y252766D01*
X468345Y252802D01*
X468373Y252835D01*
X468400Y252866D01*
X468425Y252888D01*
X468445Y252910D01*
X468464Y252926D01*
X468478Y252938D01*
X468486Y252943D01*
X468489Y252946D01*
X468542Y252982D01*
X468597Y253012D01*
X468655Y253037D01*
X468716Y253062D01*
X468780Y253082D01*
X468841Y253096D01*
X468902Y253109D01*
X468960Y253120D01*
X469015Y253129D01*
X469065Y253134D01*
X469112Y253140D01*
X469154Y253143D01*
X469184Y253145D01*
X469298D01*
X469361Y253140D01*
D02*
G37*
G36*
X465054Y250547D02*
X464032D01*
X463982Y250550D01*
X463935Y250553D01*
X463894Y250555D01*
X463852Y250558D01*
X463813Y250564D01*
X463780Y250569D01*
X463750Y250575D01*
X463722Y250578D01*
X463697Y250583D01*
X463675Y250589D01*
X463658Y250591D01*
X463644Y250594D01*
X463636Y250597D01*
X463630Y250600D01*
X463628D01*
X463547Y250630D01*
X463475Y250663D01*
X463414Y250697D01*
X463362Y250730D01*
X463340Y250744D01*
X463320Y250758D01*
X463306Y250771D01*
X463293Y250782D01*
X463281Y250791D01*
X463273Y250799D01*
X463270Y250802D01*
X463268Y250805D01*
X463204Y250874D01*
X463148Y250949D01*
X463101Y251024D01*
X463063Y251096D01*
X463046Y251129D01*
X463032Y251159D01*
X463021Y251187D01*
X463010Y251209D01*
X463004Y251228D01*
X462999Y251245D01*
X462993Y251253D01*
Y251256D01*
X462966Y251345D01*
X462946Y251436D01*
X462932Y251528D01*
X462924Y251613D01*
X462919Y251652D01*
X462916Y251688D01*
Y251719D01*
X462913Y251747D01*
Y251769D01*
Y251785D01*
Y251796D01*
Y251799D01*
Y251866D01*
X462916Y251929D01*
X462921Y251988D01*
X462927Y252046D01*
X462932Y252098D01*
X462941Y252148D01*
X462949Y252195D01*
X462955Y252237D01*
X462963Y252273D01*
X462971Y252306D01*
X462979Y252337D01*
X462985Y252359D01*
X462991Y252378D01*
X462996Y252392D01*
X462999Y252400D01*
Y252403D01*
X463032Y252492D01*
X463071Y252572D01*
X463112Y252644D01*
X463132Y252674D01*
X463151Y252702D01*
X463171Y252730D01*
X463187Y252752D01*
X463204Y252771D01*
X463215Y252788D01*
X463226Y252802D01*
X463234Y252810D01*
X463240Y252816D01*
X463243Y252818D01*
X463306Y252877D01*
X463370Y252926D01*
X463434Y252968D01*
X463495Y252998D01*
X463547Y253024D01*
X463569Y253034D01*
X463589Y253040D01*
X463605Y253046D01*
X463617Y253051D01*
X463625Y253054D01*
X463628D01*
X463661Y253062D01*
X463697Y253071D01*
X463774Y253082D01*
X463855Y253093D01*
X463932Y253098D01*
X463968Y253101D01*
X464032D01*
X464060Y253104D01*
X465054D01*
Y250547D01*
D02*
G37*
G36*
X445418Y251181D02*
X444454D01*
Y251672D01*
X445418D01*
Y251181D01*
D02*
G37*
G36*
X447089Y250500D02*
X446535D01*
X445621Y253057D01*
X446169D01*
X446795Y251165D01*
X447443Y253057D01*
X448000D01*
X447089Y250500D01*
D02*
G37*
G36*
X444699Y376205D02*
X444655Y376189D01*
X444614Y376169D01*
X444536Y376122D01*
X444467Y376072D01*
X444406Y376020D01*
X444378Y375995D01*
X444356Y375973D01*
X444334Y375953D01*
X444317Y375934D01*
X444303Y375920D01*
X444295Y375909D01*
X444290Y375901D01*
X444287Y375898D01*
X444226Y375815D01*
X444176Y375737D01*
X444135Y375668D01*
X444104Y375607D01*
X444090Y375579D01*
X444079Y375554D01*
X444071Y375535D01*
X444062Y375516D01*
X444057Y375502D01*
X444054Y375491D01*
X444051Y375485D01*
Y375482D01*
X443605D01*
X443630Y375549D01*
X443655Y375613D01*
X443683Y375676D01*
X443713Y375734D01*
X443744Y375790D01*
X443774Y375842D01*
X443805Y375890D01*
X443835Y375934D01*
X443863Y375975D01*
X443891Y376009D01*
X443916Y376042D01*
X443935Y376067D01*
X443952Y376086D01*
X443965Y376103D01*
X443974Y376111D01*
X443977Y376114D01*
X442135D01*
Y376604D01*
X444699D01*
Y376205D01*
D02*
G37*
G36*
X442625Y374463D02*
X442135D01*
Y374953D01*
X442625D01*
Y374463D01*
D02*
G37*
G36*
X443522Y374028D02*
X443644Y374020D01*
X443758Y374009D01*
X443860Y373992D01*
X443954Y373973D01*
X444040Y373953D01*
X444118Y373928D01*
X444184Y373906D01*
X444245Y373884D01*
X444295Y373862D01*
X444340Y373840D01*
X444373Y373820D01*
X444400Y373804D01*
X444420Y373793D01*
X444431Y373784D01*
X444434Y373782D01*
X444481Y373740D01*
X444522Y373696D01*
X444558Y373649D01*
X444589Y373602D01*
X444614Y373554D01*
X444636Y373505D01*
X444653Y373458D01*
X444666Y373413D01*
X444677Y373369D01*
X444686Y373327D01*
X444691Y373291D01*
X444697Y373261D01*
Y373236D01*
X444699Y373217D01*
Y373200D01*
X444697Y373133D01*
X444689Y373070D01*
X444675Y373009D01*
X444658Y372953D01*
X444639Y372901D01*
X444616Y372854D01*
X444592Y372809D01*
X444569Y372771D01*
X444544Y372737D01*
X444520Y372707D01*
X444497Y372682D01*
X444478Y372660D01*
X444461Y372643D01*
X444448Y372632D01*
X444439Y372624D01*
X444436Y372621D01*
X444373Y372577D01*
X444301Y372538D01*
X444223Y372505D01*
X444140Y372477D01*
X444054Y372452D01*
X443968Y372433D01*
X443882Y372416D01*
X443796Y372402D01*
X443716Y372394D01*
X443641Y372386D01*
X443575Y372380D01*
X443514Y372374D01*
X443489D01*
X443467D01*
X443447Y372372D01*
X443428D01*
X443417D01*
X443406D01*
X443400D01*
X443398D01*
X443265Y372374D01*
X443143Y372383D01*
X443029Y372394D01*
X442927Y372408D01*
X442833Y372424D01*
X442750Y372444D01*
X442675Y372463D01*
X442608Y372485D01*
X442553Y372507D01*
X442503Y372527D01*
X442461Y372546D01*
X442428Y372563D01*
X442403Y372577D01*
X442387Y372590D01*
X442376Y372596D01*
X442373Y372599D01*
X442323Y372643D01*
X442279Y372690D01*
X442240Y372740D01*
X442206Y372790D01*
X442182Y372840D01*
X442157Y372890D01*
X442137Y372937D01*
X442123Y372984D01*
X442112Y373028D01*
X442101Y373070D01*
X442096Y373106D01*
X442093Y373139D01*
X442090Y373164D01*
X442087Y373183D01*
Y373200D01*
X442090Y373266D01*
X442099Y373330D01*
X442112Y373391D01*
X442129Y373446D01*
X442148Y373499D01*
X442170Y373546D01*
X442193Y373590D01*
X442218Y373629D01*
X442243Y373662D01*
X442265Y373693D01*
X442287Y373721D01*
X442306Y373740D01*
X442323Y373757D01*
X442337Y373770D01*
X442345Y373776D01*
X442348Y373779D01*
X442412Y373823D01*
X442484Y373862D01*
X442564Y373895D01*
X442644Y373926D01*
X442730Y373948D01*
X442819Y373970D01*
X442905Y373987D01*
X442990Y374000D01*
X443071Y374009D01*
X443146Y374017D01*
X443215Y374023D01*
X443273Y374028D01*
X443301D01*
X443323D01*
X443342Y374031D01*
X443362D01*
X443373D01*
X443384D01*
X443389D01*
X443392D01*
X443522Y374028D01*
D02*
G37*
G36*
X444691Y371671D02*
X442799Y371045D01*
X444691Y370397D01*
Y369840D01*
X442135Y370751D01*
Y371305D01*
X444691Y372219D01*
Y371671D01*
D02*
G37*
G36*
X443965Y368834D02*
X443990Y368776D01*
X444007Y368721D01*
X444018Y368671D01*
X444024Y368629D01*
X444026Y368613D01*
X444029Y368596D01*
Y368568D01*
X444026Y368524D01*
X444021Y368485D01*
X444010Y368449D01*
X443999Y368416D01*
X443988Y368391D01*
X443977Y368372D01*
X443971Y368361D01*
X443968Y368355D01*
X443957Y368338D01*
X443941Y368319D01*
X443905Y368283D01*
X443866Y368250D01*
X443824Y368217D01*
X443785Y368189D01*
X443752Y368167D01*
X443738Y368159D01*
X443730Y368153D01*
X443724Y368150D01*
X443722Y368147D01*
X443988D01*
Y367693D01*
X442135D01*
Y368183D01*
X442705D01*
X442791D01*
X442869Y368186D01*
X442938D01*
X443002Y368189D01*
X443060Y368192D01*
X443110Y368195D01*
X443154Y368200D01*
X443193Y368203D01*
X443226Y368206D01*
X443254Y368211D01*
X443279Y368214D01*
X443295Y368217D01*
X443309Y368219D01*
X443317D01*
X443323Y368222D01*
X443326D01*
X443378Y368239D01*
X443420Y368258D01*
X443456Y368278D01*
X443483Y368294D01*
X443506Y368311D01*
X443519Y368325D01*
X443528Y368333D01*
X443531Y368336D01*
X443550Y368363D01*
X443564Y368394D01*
X443575Y368422D01*
X443580Y368449D01*
X443586Y368474D01*
X443589Y368494D01*
Y368510D01*
X443586Y368552D01*
X443578Y368591D01*
X443564Y368629D01*
X443550Y368665D01*
X443533Y368696D01*
X443522Y368718D01*
X443511Y368735D01*
X443508Y368740D01*
X443935Y368893D01*
X443965Y368834D01*
D02*
G37*
G36*
X443118Y367305D02*
X443207Y367294D01*
X443290Y367280D01*
X443364Y367264D01*
X443431Y367244D01*
X443495Y367225D01*
X443550Y367203D01*
X443597Y367181D01*
X443639Y367159D01*
X443675Y367139D01*
X443705Y367120D01*
X443727Y367106D01*
X443741Y367095D01*
X443752Y367087D01*
X443755Y367084D01*
X443802Y367037D01*
X443846Y366987D01*
X443882Y366934D01*
X443913Y366881D01*
X443941Y366826D01*
X443963Y366774D01*
X443979Y366721D01*
X443996Y366668D01*
X444007Y366621D01*
X444015Y366577D01*
X444021Y366535D01*
X444024Y366502D01*
X444026Y366472D01*
X444029Y366452D01*
Y366433D01*
X444026Y366366D01*
X444018Y366300D01*
X444004Y366239D01*
X443988Y366183D01*
X443968Y366128D01*
X443946Y366078D01*
X443921Y366031D01*
X443899Y365990D01*
X443874Y365954D01*
X443849Y365920D01*
X443827Y365890D01*
X443808Y365868D01*
X443791Y365848D01*
X443777Y365834D01*
X443769Y365826D01*
X443766Y365823D01*
X443716Y365782D01*
X443661Y365746D01*
X443603Y365713D01*
X443544Y365685D01*
X443483Y365663D01*
X443423Y365643D01*
X443364Y365627D01*
X443309Y365616D01*
X443254Y365604D01*
X443207Y365599D01*
X443159Y365594D01*
X443121Y365588D01*
X443090D01*
X443065Y365585D01*
X443051D01*
X443046D01*
X442977Y365588D01*
X442907Y365594D01*
X442844Y365602D01*
X442783Y365613D01*
X442727Y365627D01*
X442675Y365643D01*
X442625Y365660D01*
X442581Y365677D01*
X442542Y365693D01*
X442506Y365710D01*
X442478Y365726D01*
X442453Y365740D01*
X442431Y365751D01*
X442417Y365760D01*
X442409Y365765D01*
X442406Y365768D01*
X442351Y365815D01*
X442304Y365865D01*
X442262Y365920D01*
X442226Y365976D01*
X442196Y366037D01*
X442170Y366095D01*
X442148Y366153D01*
X442132Y366211D01*
X442118Y366267D01*
X442110Y366316D01*
X442101Y366364D01*
X442099Y366402D01*
X442096Y366436D01*
X442093Y366460D01*
Y366483D01*
X442096Y366538D01*
X442099Y366591D01*
X442107Y366643D01*
X442115Y366690D01*
X442126Y366735D01*
X442137Y366776D01*
X442148Y366815D01*
X442162Y366851D01*
X442176Y366881D01*
X442187Y366909D01*
X442198Y366934D01*
X442209Y366953D01*
X442218Y366970D01*
X442226Y366981D01*
X442229Y366987D01*
X442232Y366989D01*
X442259Y367026D01*
X442290Y367062D01*
X442356Y367123D01*
X442423Y367175D01*
X442489Y367217D01*
X442520Y367233D01*
X442550Y367247D01*
X442575Y367261D01*
X442597Y367272D01*
X442617Y367278D01*
X442630Y367283D01*
X442639Y367289D01*
X442641D01*
X442725Y366801D01*
X442675Y366785D01*
X442633Y366765D01*
X442597Y366746D01*
X442569Y366724D01*
X442547Y366707D01*
X442531Y366693D01*
X442522Y366682D01*
X442520Y366679D01*
X442500Y366649D01*
X442484Y366616D01*
X442473Y366585D01*
X442467Y366555D01*
X442461Y366527D01*
X442459Y366508D01*
Y366488D01*
X442461Y366458D01*
X442464Y366427D01*
X442478Y366372D01*
X442497Y366322D01*
X442520Y366280D01*
X442539Y366247D01*
X442558Y366222D01*
X442572Y366208D01*
X442578Y366206D01*
Y366203D01*
X442628Y366164D01*
X442683Y366136D01*
X442741Y366117D01*
X442797Y366103D01*
X442844Y366095D01*
X442866Y366092D01*
X442885Y366089D01*
X442899Y366087D01*
X442913D01*
X442918D01*
X442921D01*
Y367314D01*
X443024D01*
X443118Y367305D01*
D02*
G37*
G36*
X443988Y364920D02*
X443040Y364569D01*
X442982Y364549D01*
X442957Y364541D01*
X442932Y364532D01*
X442913Y364524D01*
X442896Y364522D01*
X442885Y364516D01*
X442882D01*
X442866Y364510D01*
X442844Y364505D01*
X442816Y364496D01*
X442791Y364488D01*
X442766Y364480D01*
X442744Y364472D01*
X442730Y364469D01*
X442727Y364466D01*
X442725D01*
X443040Y364366D01*
X443988Y364017D01*
Y363502D01*
X442135Y364247D01*
Y364688D01*
X443988Y365424D01*
Y364920D01*
D02*
G37*
G36*
X444691Y362751D02*
X444237D01*
Y363242D01*
X444691D01*
Y362751D01*
D02*
G37*
G36*
X443988D02*
X442135D01*
Y363242D01*
X443988D01*
Y362751D01*
D02*
G37*
G36*
X443965Y362480D02*
X443990Y362422D01*
X444007Y362366D01*
X444018Y362317D01*
X444024Y362275D01*
X444026Y362258D01*
X444029Y362242D01*
Y362214D01*
X444026Y362170D01*
X444021Y362131D01*
X444010Y362095D01*
X443999Y362062D01*
X443988Y362037D01*
X443977Y362017D01*
X443971Y362006D01*
X443968Y362001D01*
X443957Y361984D01*
X443941Y361965D01*
X443905Y361929D01*
X443866Y361895D01*
X443824Y361862D01*
X443785Y361835D01*
X443752Y361812D01*
X443738Y361804D01*
X443730Y361799D01*
X443724Y361796D01*
X443722Y361793D01*
X443988D01*
Y361339D01*
X442135D01*
Y361829D01*
X442705D01*
X442791D01*
X442869Y361832D01*
X442938D01*
X443002Y361835D01*
X443060Y361837D01*
X443110Y361840D01*
X443154Y361846D01*
X443193Y361848D01*
X443226Y361851D01*
X443254Y361857D01*
X443279Y361859D01*
X443295Y361862D01*
X443309Y361865D01*
X443317D01*
X443323Y361868D01*
X443326D01*
X443378Y361884D01*
X443420Y361904D01*
X443456Y361923D01*
X443483Y361940D01*
X443506Y361956D01*
X443519Y361970D01*
X443528Y361979D01*
X443531Y361981D01*
X443550Y362009D01*
X443564Y362040D01*
X443575Y362067D01*
X443580Y362095D01*
X443586Y362120D01*
X443589Y362139D01*
Y362156D01*
X443586Y362197D01*
X443578Y362236D01*
X443564Y362275D01*
X443550Y362311D01*
X443533Y362341D01*
X443522Y362364D01*
X443511Y362380D01*
X443508Y362386D01*
X443935Y362538D01*
X443965Y362480D01*
D02*
G37*
G36*
X443517Y360923D02*
X443575Y360918D01*
X443633Y360912D01*
X443686Y360907D01*
X443736Y360898D01*
X443783Y360890D01*
X443824Y360884D01*
X443860Y360876D01*
X443893Y360868D01*
X443924Y360859D01*
X443946Y360854D01*
X443965Y360848D01*
X443979Y360843D01*
X443988Y360840D01*
X443990D01*
X444079Y360807D01*
X444159Y360768D01*
X444231Y360727D01*
X444262Y360707D01*
X444290Y360688D01*
X444317Y360668D01*
X444340Y360652D01*
X444359Y360635D01*
X444376Y360624D01*
X444389Y360613D01*
X444398Y360605D01*
X444403Y360599D01*
X444406Y360596D01*
X444464Y360533D01*
X444514Y360469D01*
X444556Y360405D01*
X444586Y360344D01*
X444611Y360292D01*
X444622Y360269D01*
X444628Y360250D01*
X444633Y360233D01*
X444639Y360222D01*
X444641Y360214D01*
Y360211D01*
X444650Y360178D01*
X444658Y360142D01*
X444669Y360065D01*
X444680Y359984D01*
X444686Y359907D01*
X444689Y359871D01*
Y359807D01*
X444691Y359779D01*
Y358785D01*
X442135D01*
Y359807D01*
X442137Y359857D01*
X442140Y359904D01*
X442143Y359945D01*
X442146Y359987D01*
X442151Y360026D01*
X442157Y360059D01*
X442162Y360089D01*
X442165Y360117D01*
X442170Y360142D01*
X442176Y360164D01*
X442179Y360181D01*
X442182Y360195D01*
X442184Y360203D01*
X442187Y360209D01*
Y360211D01*
X442218Y360292D01*
X442251Y360364D01*
X442284Y360425D01*
X442317Y360477D01*
X442331Y360499D01*
X442345Y360519D01*
X442359Y360533D01*
X442370Y360546D01*
X442378Y360558D01*
X442387Y360566D01*
X442389Y360569D01*
X442392Y360572D01*
X442461Y360635D01*
X442536Y360691D01*
X442611Y360738D01*
X442683Y360776D01*
X442716Y360793D01*
X442747Y360807D01*
X442774Y360818D01*
X442797Y360829D01*
X442816Y360835D01*
X442833Y360840D01*
X442841Y360846D01*
X442844D01*
X442932Y360873D01*
X443024Y360893D01*
X443115Y360907D01*
X443201Y360915D01*
X443240Y360921D01*
X443276Y360923D01*
X443306D01*
X443334Y360926D01*
X443356D01*
X443373D01*
X443384D01*
X443387D01*
X443453D01*
X443517Y360923D01*
D02*
G37*
G36*
X444691Y355433D02*
X444259D01*
Y356192D01*
X442135D01*
Y356707D01*
X444259D01*
Y357461D01*
X444691D01*
Y355433D01*
D02*
G37*
G36*
Y353433D02*
X442135D01*
Y353948D01*
X443220D01*
Y355018D01*
X443652D01*
Y353948D01*
X444259D01*
Y355187D01*
X444691D01*
Y353433D01*
D02*
G37*
G36*
X439452Y352644D02*
X439438Y352599D01*
X439427Y352561D01*
X439418Y352525D01*
X439413Y352497D01*
X439410Y352475D01*
X439407Y352461D01*
Y352447D01*
X439410Y352414D01*
X439418Y352389D01*
X439424Y352378D01*
X439427Y352369D01*
X439429Y352367D01*
Y352364D01*
X439449Y352344D01*
X439468Y352331D01*
X439485Y352325D01*
X439488Y352322D01*
X439490D01*
X439499D01*
X439512Y352320D01*
X439529D01*
X439548Y352317D01*
X439593D01*
X439637Y352314D01*
X439681D01*
X439704D01*
X439720D01*
X439734D01*
X439745D01*
X439753D01*
X439756D01*
X440504D01*
Y352649D01*
X440895D01*
Y352314D01*
X441551D01*
X441263Y351824D01*
X440895D01*
Y351599D01*
X440504D01*
Y351824D01*
X439695D01*
X439648D01*
X439607D01*
X439568D01*
X439532Y351827D01*
X439499D01*
X439471Y351829D01*
X439446D01*
X439424Y351832D01*
X439407D01*
X439391D01*
X439377Y351835D01*
X439366D01*
X439355Y351838D01*
X439349D01*
X439307Y351846D01*
X439269Y351857D01*
X439235Y351868D01*
X439208Y351879D01*
X439188Y351890D01*
X439172Y351899D01*
X439161Y351904D01*
X439158Y351907D01*
X439133Y351929D01*
X439111Y351951D01*
X439091Y351979D01*
X439075Y352004D01*
X439061Y352026D01*
X439053Y352045D01*
X439047Y352057D01*
X439044Y352062D01*
X439031Y352104D01*
X439019Y352145D01*
X439011Y352184D01*
X439006Y352220D01*
X439003Y352253D01*
X439000Y352278D01*
Y352300D01*
X439003Y352378D01*
X439011Y352453D01*
X439022Y352519D01*
X439036Y352574D01*
X439042Y352599D01*
X439050Y352622D01*
X439055Y352641D01*
X439061Y352658D01*
X439067Y352671D01*
X439069Y352680D01*
X439072Y352685D01*
Y352688D01*
X439452Y352644D01*
D02*
G37*
G36*
X444691Y351073D02*
X444259D01*
Y351832D01*
X442135D01*
Y352347D01*
X444259D01*
Y353101D01*
X444691D01*
Y351073D01*
D02*
G37*
G36*
X440335Y351295D02*
X440390Y351292D01*
X440438Y351286D01*
X440474Y351281D01*
X440499Y351278D01*
X440515Y351273D01*
X440521D01*
X440562Y351261D01*
X440601Y351245D01*
X440637Y351231D01*
X440667Y351214D01*
X440693Y351198D01*
X440709Y351187D01*
X440723Y351178D01*
X440726Y351176D01*
X440759Y351148D01*
X440787Y351115D01*
X440814Y351081D01*
X440834Y351048D01*
X440853Y351021D01*
X440864Y350996D01*
X440872Y350979D01*
X440875Y350976D01*
Y350973D01*
X440895Y350923D01*
X440911Y350871D01*
X440922Y350821D01*
X440928Y350777D01*
X440934Y350735D01*
X440936Y350705D01*
Y350677D01*
X440934Y350610D01*
X440922Y350547D01*
X440908Y350486D01*
X440886Y350428D01*
X440864Y350375D01*
X440836Y350325D01*
X440809Y350278D01*
X440778Y350237D01*
X440748Y350198D01*
X440720Y350167D01*
X440693Y350137D01*
X440670Y350115D01*
X440651Y350095D01*
X440634Y350081D01*
X440623Y350073D01*
X440620Y350070D01*
X440895D01*
Y349616D01*
X439042D01*
Y350106D01*
X439881D01*
X439936D01*
X439989Y350109D01*
X440036D01*
X440077Y350112D01*
X440116Y350115D01*
X440152Y350117D01*
X440183Y350120D01*
X440210Y350126D01*
X440233Y350129D01*
X440252Y350131D01*
X440269Y350134D01*
X440282Y350137D01*
X440294Y350140D01*
X440299D01*
X440305Y350142D01*
X440346Y350159D01*
X440382Y350178D01*
X440415Y350201D01*
X440440Y350223D01*
X440463Y350245D01*
X440476Y350261D01*
X440487Y350273D01*
X440490Y350278D01*
X440515Y350317D01*
X440532Y350359D01*
X440546Y350397D01*
X440554Y350430D01*
X440559Y350464D01*
X440562Y350486D01*
Y350508D01*
X440559Y350544D01*
X440554Y350574D01*
X440546Y350602D01*
X440537Y350627D01*
X440529Y350646D01*
X440521Y350663D01*
X440515Y350672D01*
X440512Y350674D01*
X440493Y350699D01*
X440471Y350721D01*
X440446Y350738D01*
X440424Y350752D01*
X440404Y350763D01*
X440388Y350771D01*
X440377Y350777D01*
X440374D01*
X440354Y350782D01*
X440332Y350788D01*
X440307Y350793D01*
X440277Y350796D01*
X440213Y350802D01*
X440147Y350807D01*
X440086D01*
X440058Y350810D01*
X440036D01*
X440014D01*
X440000D01*
X439989D01*
X439986D01*
X439042D01*
Y351300D01*
X440191D01*
X440269D01*
X440335Y351295D01*
D02*
G37*
G36*
X444691Y349314D02*
X444256D01*
X443783Y349406D01*
Y349766D01*
X444256Y349846D01*
X444691D01*
Y349314D01*
D02*
G37*
G36*
Y348464D02*
X444256D01*
X443783Y348555D01*
Y348915D01*
X444256Y348996D01*
X444691D01*
Y348464D01*
D02*
G37*
G36*
X440025Y349212D02*
X440113Y349201D01*
X440197Y349187D01*
X440271Y349170D01*
X440338Y349151D01*
X440402Y349131D01*
X440457Y349109D01*
X440504Y349087D01*
X440546Y349065D01*
X440582Y349045D01*
X440612Y349026D01*
X440634Y349012D01*
X440648Y349001D01*
X440659Y348993D01*
X440662Y348990D01*
X440709Y348943D01*
X440753Y348893D01*
X440789Y348840D01*
X440820Y348788D01*
X440848Y348732D01*
X440870Y348680D01*
X440886Y348627D01*
X440903Y348575D01*
X440914Y348528D01*
X440922Y348483D01*
X440928Y348442D01*
X440931Y348408D01*
X440934Y348378D01*
X440936Y348358D01*
Y348339D01*
X440934Y348273D01*
X440925Y348206D01*
X440911Y348145D01*
X440895Y348090D01*
X440875Y348034D01*
X440853Y347985D01*
X440828Y347937D01*
X440806Y347896D01*
X440781Y347860D01*
X440756Y347827D01*
X440734Y347796D01*
X440715Y347774D01*
X440698Y347755D01*
X440684Y347741D01*
X440676Y347732D01*
X440673Y347730D01*
X440623Y347688D01*
X440568Y347652D01*
X440510Y347619D01*
X440451Y347591D01*
X440390Y347569D01*
X440330Y347550D01*
X440271Y347533D01*
X440216Y347522D01*
X440161Y347511D01*
X440113Y347505D01*
X440066Y347500D01*
X440028Y347494D01*
X439997D01*
X439972Y347492D01*
X439958D01*
X439953D01*
X439884Y347494D01*
X439814Y347500D01*
X439751Y347508D01*
X439690Y347519D01*
X439634Y347533D01*
X439582Y347550D01*
X439532Y347566D01*
X439488Y347583D01*
X439449Y347600D01*
X439413Y347616D01*
X439385Y347633D01*
X439360Y347647D01*
X439338Y347658D01*
X439324Y347666D01*
X439316Y347672D01*
X439313Y347674D01*
X439258Y347721D01*
X439211Y347771D01*
X439169Y347827D01*
X439133Y347882D01*
X439103Y347943D01*
X439078Y348001D01*
X439055Y348059D01*
X439039Y348117D01*
X439025Y348173D01*
X439017Y348223D01*
X439008Y348270D01*
X439006Y348309D01*
X439003Y348342D01*
X439000Y348367D01*
Y348389D01*
X439003Y348444D01*
X439006Y348497D01*
X439014Y348550D01*
X439022Y348597D01*
X439033Y348641D01*
X439044Y348683D01*
X439055Y348721D01*
X439069Y348757D01*
X439083Y348788D01*
X439094Y348816D01*
X439105Y348840D01*
X439116Y348860D01*
X439125Y348877D01*
X439133Y348888D01*
X439136Y348893D01*
X439139Y348896D01*
X439166Y348932D01*
X439197Y348968D01*
X439263Y349029D01*
X439330Y349081D01*
X439396Y349123D01*
X439427Y349140D01*
X439457Y349153D01*
X439482Y349167D01*
X439504Y349178D01*
X439524Y349184D01*
X439537Y349189D01*
X439546Y349195D01*
X439548D01*
X439632Y348708D01*
X439582Y348691D01*
X439540Y348672D01*
X439504Y348652D01*
X439476Y348630D01*
X439454Y348613D01*
X439438Y348600D01*
X439429Y348588D01*
X439427Y348586D01*
X439407Y348555D01*
X439391Y348522D01*
X439380Y348492D01*
X439374Y348461D01*
X439368Y348433D01*
X439366Y348414D01*
Y348394D01*
X439368Y348364D01*
X439371Y348334D01*
X439385Y348278D01*
X439404Y348228D01*
X439427Y348187D01*
X439446Y348153D01*
X439465Y348129D01*
X439479Y348115D01*
X439485Y348112D01*
Y348109D01*
X439535Y348070D01*
X439590Y348043D01*
X439648Y348023D01*
X439704Y348009D01*
X439751Y348001D01*
X439773Y347998D01*
X439792Y347996D01*
X439806Y347993D01*
X439820D01*
X439825D01*
X439828D01*
Y349220D01*
X439931D01*
X440025Y349212D01*
D02*
G37*
G36*
X443018Y348170D02*
X443085Y348165D01*
X443143Y348153D01*
X443201Y348140D01*
X443254Y348123D01*
X443303Y348104D01*
X443351Y348084D01*
X443389Y348065D01*
X443428Y348043D01*
X443459Y348023D01*
X443486Y348004D01*
X443511Y347987D01*
X443528Y347973D01*
X443542Y347962D01*
X443550Y347957D01*
X443553Y347954D01*
X443594Y347913D01*
X443630Y347868D01*
X443661Y347824D01*
X443688Y347780D01*
X443711Y347735D01*
X443730Y347691D01*
X443747Y347649D01*
X443758Y347608D01*
X443769Y347572D01*
X443777Y347536D01*
X443780Y347505D01*
X443785Y347480D01*
Y347458D01*
X443788Y347442D01*
Y347428D01*
X443785Y347378D01*
X443780Y347331D01*
X443769Y347284D01*
X443755Y347242D01*
X443738Y347201D01*
X443719Y347165D01*
X443700Y347129D01*
X443680Y347098D01*
X443658Y347068D01*
X443639Y347043D01*
X443619Y347023D01*
X443603Y347004D01*
X443589Y346990D01*
X443578Y346979D01*
X443572Y346973D01*
X443569Y346971D01*
X443650Y346976D01*
X443722Y346985D01*
X443788Y346996D01*
X443846Y347004D01*
X443902Y347015D01*
X443949Y347026D01*
X443990Y347040D01*
X444026Y347051D01*
X444057Y347062D01*
X444085Y347071D01*
X444107Y347082D01*
X444123Y347090D01*
X444135Y347095D01*
X444146Y347101D01*
X444148Y347107D01*
X444151D01*
X444176Y347129D01*
X444198Y347148D01*
X444218Y347170D01*
X444234Y347192D01*
X444259Y347237D01*
X444276Y347278D01*
X444284Y347314D01*
X444290Y347345D01*
X444292Y347356D01*
Y347370D01*
X444290Y347411D01*
X444281Y347447D01*
X444270Y347480D01*
X444256Y347508D01*
X444242Y347530D01*
X444231Y347544D01*
X444223Y347555D01*
X444220Y347558D01*
X444193Y347583D01*
X444157Y347605D01*
X444123Y347622D01*
X444087Y347633D01*
X444057Y347641D01*
X444032Y347649D01*
X444013Y347652D01*
X444010D01*
X444007D01*
X444057Y348126D01*
X444115Y348115D01*
X444168Y348101D01*
X444218Y348084D01*
X444265Y348065D01*
X444306Y348045D01*
X444345Y348026D01*
X444381Y348004D01*
X444412Y347985D01*
X444442Y347965D01*
X444464Y347946D01*
X444486Y347929D01*
X444503Y347913D01*
X444517Y347902D01*
X444525Y347890D01*
X444531Y347885D01*
X444533Y347882D01*
X444564Y347846D01*
X444589Y347807D01*
X444611Y347766D01*
X444630Y347727D01*
X444647Y347685D01*
X444658Y347647D01*
X444680Y347569D01*
X444686Y347536D01*
X444691Y347503D01*
X444694Y347472D01*
X444697Y347450D01*
X444699Y347428D01*
Y347400D01*
X444697Y347325D01*
X444686Y347251D01*
X444672Y347184D01*
X444650Y347120D01*
X444628Y347059D01*
X444600Y347004D01*
X444572Y346951D01*
X444544Y346907D01*
X444514Y346866D01*
X444486Y346830D01*
X444459Y346796D01*
X444436Y346771D01*
X444414Y346752D01*
X444400Y346735D01*
X444389Y346727D01*
X444386Y346724D01*
X444323Y346680D01*
X444254Y346638D01*
X444179Y346605D01*
X444099Y346575D01*
X444015Y346550D01*
X443929Y346530D01*
X443846Y346514D01*
X443763Y346500D01*
X443686Y346489D01*
X443611Y346480D01*
X443544Y346475D01*
X443486Y346469D01*
X443461D01*
X443439D01*
X443420Y346467D01*
X443403D01*
X443389D01*
X443381D01*
X443375D01*
X443373D01*
X443248Y346469D01*
X443134Y346478D01*
X443026Y346489D01*
X442930Y346505D01*
X442841Y346525D01*
X442761Y346544D01*
X442689Y346566D01*
X442622Y346591D01*
X442567Y346613D01*
X442520Y346636D01*
X442478Y346655D01*
X442445Y346674D01*
X442420Y346691D01*
X442401Y346702D01*
X442389Y346710D01*
X442387Y346713D01*
X442334Y346760D01*
X442287Y346813D01*
X442248Y346866D01*
X442215Y346918D01*
X442184Y346971D01*
X442160Y347023D01*
X442140Y347076D01*
X442126Y347126D01*
X442112Y347173D01*
X442104Y347215D01*
X442096Y347253D01*
X442093Y347287D01*
X442090Y347314D01*
X442087Y347334D01*
Y347350D01*
X442090Y347417D01*
X442099Y347480D01*
X442110Y347539D01*
X442123Y347594D01*
X442143Y347647D01*
X442162Y347696D01*
X442184Y347741D01*
X442206Y347780D01*
X442226Y347816D01*
X442248Y347849D01*
X442268Y347877D01*
X442287Y347899D01*
X442301Y347918D01*
X442312Y347929D01*
X442320Y347937D01*
X442323Y347940D01*
X442370Y347982D01*
X442417Y348018D01*
X442470Y348048D01*
X442520Y348076D01*
X442572Y348098D01*
X442625Y348117D01*
X442677Y348131D01*
X442725Y348145D01*
X442772Y348153D01*
X442816Y348162D01*
X442855Y348165D01*
X442888Y348170D01*
X442913D01*
X442935Y348173D01*
X442946D01*
X442952D01*
X443018Y348170D01*
D02*
G37*
G36*
X440895Y346827D02*
X439947Y346475D01*
X439889Y346456D01*
X439864Y346447D01*
X439839Y346439D01*
X439820Y346431D01*
X439803Y346428D01*
X439792Y346422D01*
X439789D01*
X439773Y346417D01*
X439751Y346411D01*
X439723Y346403D01*
X439698Y346395D01*
X439673Y346386D01*
X439651Y346378D01*
X439637Y346375D01*
X439634Y346372D01*
X439632D01*
X439947Y346273D01*
X440895Y345924D01*
Y345409D01*
X439042Y346154D01*
Y346594D01*
X440895Y347331D01*
Y346827D01*
D02*
G37*
G36*
X443533Y346145D02*
X443650Y346137D01*
X443755Y346126D01*
X443852Y346109D01*
X443943Y346090D01*
X444024Y346071D01*
X444096Y346046D01*
X444162Y346023D01*
X444218Y346001D01*
X444265Y345979D01*
X444306Y345957D01*
X444340Y345937D01*
X444364Y345921D01*
X444384Y345910D01*
X444395Y345901D01*
X444398Y345899D01*
X444450Y345852D01*
X444497Y345799D01*
X444539Y345746D01*
X444572Y345694D01*
X444603Y345641D01*
X444625Y345586D01*
X444647Y345536D01*
X444661Y345486D01*
X444675Y345439D01*
X444683Y345395D01*
X444691Y345356D01*
X444694Y345323D01*
X444697Y345298D01*
X444699Y345275D01*
Y345259D01*
X444697Y345192D01*
X444689Y345131D01*
X444677Y345073D01*
X444663Y345015D01*
X444644Y344965D01*
X444625Y344915D01*
X444603Y344871D01*
X444580Y344832D01*
X444558Y344796D01*
X444536Y344763D01*
X444517Y344735D01*
X444497Y344713D01*
X444484Y344697D01*
X444472Y344683D01*
X444464Y344674D01*
X444461Y344672D01*
X444414Y344630D01*
X444367Y344597D01*
X444314Y344566D01*
X444262Y344539D01*
X444212Y344516D01*
X444159Y344497D01*
X444107Y344483D01*
X444060Y344469D01*
X444013Y344461D01*
X443971Y344453D01*
X443932Y344450D01*
X443899Y344444D01*
X443874D01*
X443852Y344442D01*
X443841D01*
X443835D01*
X443766Y344444D01*
X443702Y344450D01*
X443641Y344461D01*
X443583Y344475D01*
X443528Y344492D01*
X443478Y344511D01*
X443434Y344530D01*
X443392Y344552D01*
X443356Y344572D01*
X443323Y344591D01*
X443295Y344611D01*
X443270Y344627D01*
X443254Y344641D01*
X443240Y344652D01*
X443231Y344658D01*
X443229Y344661D01*
X443187Y344702D01*
X443154Y344746D01*
X443123Y344791D01*
X443096Y344835D01*
X443074Y344877D01*
X443054Y344921D01*
X443040Y344963D01*
X443026Y345001D01*
X443018Y345037D01*
X443010Y345073D01*
X443007Y345104D01*
X443002Y345129D01*
Y345151D01*
X442999Y345165D01*
Y345179D01*
X443002Y345231D01*
X443007Y345278D01*
X443018Y345325D01*
X443032Y345370D01*
X443049Y345411D01*
X443065Y345447D01*
X443085Y345483D01*
X443107Y345514D01*
X443126Y345544D01*
X443146Y345569D01*
X443162Y345591D01*
X443179Y345608D01*
X443193Y345622D01*
X443204Y345633D01*
X443209Y345638D01*
X443212Y345641D01*
X443132Y345636D01*
X443060Y345627D01*
X442996Y345619D01*
X442935Y345608D01*
X442882Y345597D01*
X442835Y345586D01*
X442794Y345575D01*
X442758Y345564D01*
X442727Y345552D01*
X442700Y345541D01*
X442677Y345530D01*
X442661Y345522D01*
X442650Y345516D01*
X442639Y345511D01*
X442636Y345505D01*
X442633D01*
X442608Y345486D01*
X442589Y345464D01*
X442569Y345442D01*
X442553Y345422D01*
X442528Y345378D01*
X442511Y345339D01*
X442503Y345303D01*
X442497Y345275D01*
X442495Y345264D01*
Y345251D01*
X442497Y345206D01*
X442506Y345170D01*
X442517Y345137D01*
X442531Y345109D01*
X442542Y345087D01*
X442553Y345071D01*
X442561Y345059D01*
X442564Y345057D01*
X442594Y345032D01*
X442628Y345012D01*
X442664Y344996D01*
X442697Y344985D01*
X442730Y344976D01*
X442755Y344971D01*
X442766D01*
X442774Y344968D01*
X442777D01*
X442780D01*
X442727Y344494D01*
X442669Y344506D01*
X442614Y344519D01*
X442564Y344533D01*
X442517Y344552D01*
X442473Y344569D01*
X442434Y344591D01*
X442398Y344611D01*
X442367Y344630D01*
X442337Y344650D01*
X442315Y344666D01*
X442292Y344683D01*
X442276Y344697D01*
X442262Y344710D01*
X442254Y344719D01*
X442248Y344724D01*
X442245Y344727D01*
X442218Y344763D01*
X442193Y344802D01*
X442173Y344841D01*
X442154Y344882D01*
X442140Y344921D01*
X442126Y344963D01*
X442107Y345040D01*
X442101Y345073D01*
X442096Y345107D01*
X442093Y345137D01*
X442090Y345162D01*
X442087Y345184D01*
Y345212D01*
X442090Y345287D01*
X442101Y345361D01*
X442115Y345428D01*
X442137Y345492D01*
X442160Y345552D01*
X442184Y345608D01*
X442215Y345660D01*
X442243Y345705D01*
X442270Y345746D01*
X442301Y345782D01*
X442326Y345816D01*
X442351Y345841D01*
X442370Y345860D01*
X442384Y345877D01*
X442395Y345885D01*
X442398Y345888D01*
X442461Y345935D01*
X442531Y345973D01*
X442605Y346010D01*
X442686Y346037D01*
X442769Y346062D01*
X442855Y346084D01*
X442938Y346101D01*
X443021Y346115D01*
X443098Y346126D01*
X443170Y346134D01*
X443237Y346140D01*
X443295Y346145D01*
X443320D01*
X443342D01*
X443362Y346148D01*
X443378D01*
X443392D01*
X443400D01*
X443406D01*
X443409D01*
X443533Y346145D01*
D02*
G37*
G36*
X440025Y345239D02*
X440113Y345228D01*
X440197Y345215D01*
X440271Y345198D01*
X440338Y345179D01*
X440402Y345159D01*
X440457Y345137D01*
X440504Y345115D01*
X440546Y345093D01*
X440582Y345073D01*
X440612Y345054D01*
X440634Y345040D01*
X440648Y345029D01*
X440659Y345021D01*
X440662Y345018D01*
X440709Y344971D01*
X440753Y344921D01*
X440789Y344868D01*
X440820Y344816D01*
X440848Y344760D01*
X440870Y344708D01*
X440886Y344655D01*
X440903Y344602D01*
X440914Y344555D01*
X440922Y344511D01*
X440928Y344469D01*
X440931Y344436D01*
X440934Y344406D01*
X440936Y344386D01*
Y344367D01*
X440934Y344301D01*
X440925Y344234D01*
X440911Y344173D01*
X440895Y344118D01*
X440875Y344062D01*
X440853Y344012D01*
X440828Y343965D01*
X440806Y343924D01*
X440781Y343888D01*
X440756Y343854D01*
X440734Y343824D01*
X440715Y343802D01*
X440698Y343782D01*
X440684Y343769D01*
X440676Y343760D01*
X440673Y343758D01*
X440623Y343716D01*
X440568Y343680D01*
X440510Y343647D01*
X440451Y343619D01*
X440390Y343597D01*
X440330Y343578D01*
X440271Y343561D01*
X440216Y343550D01*
X440161Y343539D01*
X440113Y343533D01*
X440066Y343528D01*
X440028Y343522D01*
X439997D01*
X439972Y343519D01*
X439958D01*
X439953D01*
X439884Y343522D01*
X439814Y343528D01*
X439751Y343536D01*
X439690Y343547D01*
X439634Y343561D01*
X439582Y343578D01*
X439532Y343594D01*
X439488Y343611D01*
X439449Y343627D01*
X439413Y343644D01*
X439385Y343661D01*
X439360Y343674D01*
X439338Y343686D01*
X439324Y343694D01*
X439316Y343699D01*
X439313Y343702D01*
X439258Y343749D01*
X439211Y343799D01*
X439169Y343854D01*
X439133Y343910D01*
X439103Y343971D01*
X439078Y344029D01*
X439055Y344087D01*
X439039Y344145D01*
X439025Y344201D01*
X439017Y344251D01*
X439008Y344298D01*
X439006Y344337D01*
X439003Y344370D01*
X439000Y344395D01*
Y344417D01*
X439003Y344472D01*
X439006Y344525D01*
X439014Y344578D01*
X439022Y344625D01*
X439033Y344669D01*
X439044Y344710D01*
X439055Y344749D01*
X439069Y344785D01*
X439083Y344816D01*
X439094Y344843D01*
X439105Y344868D01*
X439116Y344888D01*
X439125Y344904D01*
X439133Y344915D01*
X439136Y344921D01*
X439139Y344924D01*
X439166Y344960D01*
X439197Y344996D01*
X439263Y345057D01*
X439330Y345109D01*
X439396Y345151D01*
X439427Y345167D01*
X439457Y345181D01*
X439482Y345195D01*
X439504Y345206D01*
X439524Y345212D01*
X439537Y345217D01*
X439546Y345223D01*
X439548D01*
X439632Y344735D01*
X439582Y344719D01*
X439540Y344699D01*
X439504Y344680D01*
X439476Y344658D01*
X439454Y344641D01*
X439438Y344627D01*
X439429Y344616D01*
X439427Y344614D01*
X439407Y344583D01*
X439391Y344550D01*
X439380Y344519D01*
X439374Y344489D01*
X439368Y344461D01*
X439366Y344442D01*
Y344422D01*
X439368Y344392D01*
X439371Y344361D01*
X439385Y344306D01*
X439404Y344256D01*
X439427Y344215D01*
X439446Y344181D01*
X439465Y344156D01*
X439479Y344143D01*
X439485Y344140D01*
Y344137D01*
X439535Y344098D01*
X439590Y344071D01*
X439648Y344051D01*
X439704Y344037D01*
X439751Y344029D01*
X439773Y344026D01*
X439792Y344023D01*
X439806Y344021D01*
X439820D01*
X439825D01*
X439828D01*
Y345248D01*
X439931D01*
X440025Y345239D01*
D02*
G37*
G36*
X442625Y343591D02*
X442135D01*
Y344082D01*
X442625D01*
Y343591D01*
D02*
G37*
G36*
X443522Y343157D02*
X443644Y343148D01*
X443758Y343137D01*
X443860Y343120D01*
X443954Y343101D01*
X444040Y343082D01*
X444118Y343057D01*
X444184Y343035D01*
X444245Y343012D01*
X444295Y342990D01*
X444340Y342968D01*
X444373Y342949D01*
X444400Y342932D01*
X444420Y342921D01*
X444431Y342913D01*
X444434Y342910D01*
X444481Y342868D01*
X444522Y342824D01*
X444558Y342777D01*
X444589Y342730D01*
X444614Y342683D01*
X444636Y342633D01*
X444653Y342586D01*
X444666Y342542D01*
X444677Y342497D01*
X444686Y342456D01*
X444691Y342420D01*
X444697Y342389D01*
Y342364D01*
X444699Y342345D01*
Y342328D01*
X444697Y342262D01*
X444689Y342198D01*
X444675Y342137D01*
X444658Y342082D01*
X444639Y342029D01*
X444616Y341982D01*
X444592Y341938D01*
X444569Y341899D01*
X444544Y341866D01*
X444520Y341835D01*
X444497Y341810D01*
X444478Y341788D01*
X444461Y341772D01*
X444448Y341760D01*
X444439Y341752D01*
X444436Y341749D01*
X444373Y341705D01*
X444301Y341666D01*
X444223Y341633D01*
X444140Y341605D01*
X444054Y341580D01*
X443968Y341561D01*
X443882Y341544D01*
X443796Y341530D01*
X443716Y341522D01*
X443641Y341514D01*
X443575Y341508D01*
X443514Y341503D01*
X443489D01*
X443467D01*
X443447Y341500D01*
X443428D01*
X443417D01*
X443406D01*
X443400D01*
X443398D01*
X443265Y341503D01*
X443143Y341511D01*
X443029Y341522D01*
X442927Y341536D01*
X442833Y341553D01*
X442750Y341572D01*
X442675Y341591D01*
X442608Y341614D01*
X442553Y341636D01*
X442503Y341655D01*
X442461Y341674D01*
X442428Y341691D01*
X442403Y341705D01*
X442387Y341719D01*
X442376Y341724D01*
X442373Y341727D01*
X442323Y341772D01*
X442279Y341819D01*
X442240Y341868D01*
X442206Y341918D01*
X442182Y341968D01*
X442157Y342018D01*
X442137Y342065D01*
X442123Y342112D01*
X442112Y342157D01*
X442101Y342198D01*
X442096Y342234D01*
X442093Y342267D01*
X442090Y342292D01*
X442087Y342312D01*
Y342328D01*
X442090Y342395D01*
X442099Y342458D01*
X442112Y342519D01*
X442129Y342575D01*
X442148Y342627D01*
X442170Y342674D01*
X442193Y342719D01*
X442218Y342758D01*
X442243Y342791D01*
X442265Y342821D01*
X442287Y342849D01*
X442306Y342868D01*
X442323Y342885D01*
X442337Y342899D01*
X442345Y342904D01*
X442348Y342907D01*
X442412Y342951D01*
X442484Y342990D01*
X442564Y343023D01*
X442644Y343054D01*
X442730Y343076D01*
X442819Y343098D01*
X442905Y343115D01*
X442990Y343129D01*
X443071Y343137D01*
X443146Y343145D01*
X443215Y343151D01*
X443273Y343157D01*
X443301D01*
X443323D01*
X443342Y343159D01*
X443362D01*
X443373D01*
X443384D01*
X443389D01*
X443392D01*
X443522Y343157D01*
D02*
G37*
G36*
X439474Y342015D02*
X441576D01*
Y341500D01*
X439042D01*
Y343298D01*
X439474D01*
Y342015D01*
D02*
G37*
G36*
X385337Y250500D02*
X384860D01*
Y252179D01*
X383824Y250500D01*
X383309D01*
Y253057D01*
X383786D01*
Y251339D01*
X384838Y253057D01*
X385337D01*
Y250500D01*
D02*
G37*
G36*
X388500D02*
X386702D01*
Y250932D01*
X387985D01*
Y253034D01*
X388500D01*
Y250500D01*
D02*
G37*
G36*
X386350D02*
X385835D01*
Y253057D01*
X386350D01*
Y250500D01*
D02*
G37*
G36*
X457589D02*
X457035D01*
X456121Y253057D01*
X456669D01*
X457295Y251165D01*
X457943Y253057D01*
X458500D01*
X457589Y250500D01*
D02*
G37*
G36*
X455298Y251990D02*
X455968D01*
Y251530D01*
X455298D01*
Y250868D01*
X454852D01*
Y251530D01*
X454182D01*
Y251990D01*
X454852D01*
Y252652D01*
X455298D01*
Y251990D01*
D02*
G37*
G36*
X393996Y252037D02*
X394666D01*
Y251577D01*
X393996D01*
Y250916D01*
X393550D01*
Y251577D01*
X392880D01*
Y252037D01*
X393550D01*
Y252699D01*
X393996D01*
Y252037D01*
D02*
G37*
G36*
X399500Y250547D02*
X397702D01*
Y250979D01*
X398985D01*
Y253082D01*
X399500D01*
Y250547D01*
D02*
G37*
G36*
X396317Y253140D02*
X396423Y253129D01*
X396470Y253120D01*
X396517Y253112D01*
X396558Y253104D01*
X396597Y253096D01*
X396633Y253084D01*
X396663Y253076D01*
X396691Y253068D01*
X396713Y253060D01*
X396730Y253051D01*
X396744Y253048D01*
X396752Y253043D01*
X396755D01*
X396821Y253012D01*
X396882Y252976D01*
X396940Y252938D01*
X396988Y252899D01*
X397029Y252866D01*
X397046Y252852D01*
X397060Y252838D01*
X397071Y252827D01*
X397079Y252818D01*
X397085Y252816D01*
X397087Y252813D01*
X397140Y252752D01*
X397187Y252694D01*
X397229Y252633D01*
X397262Y252580D01*
X397287Y252530D01*
X397298Y252511D01*
X397306Y252494D01*
X397315Y252481D01*
X397320Y252469D01*
X397323Y252464D01*
Y252461D01*
X397342Y252411D01*
X397362Y252356D01*
X397389Y252248D01*
X397411Y252137D01*
X397417Y252084D01*
X397425Y252035D01*
X397428Y251985D01*
X397434Y251943D01*
X397436Y251904D01*
Y251871D01*
X397439Y251843D01*
Y251821D01*
Y251810D01*
Y251805D01*
X397436Y251694D01*
X397425Y251589D01*
X397409Y251489D01*
X397387Y251397D01*
X397362Y251312D01*
X397334Y251234D01*
X397303Y251162D01*
X397270Y251098D01*
X397240Y251040D01*
X397209Y250990D01*
X397182Y250946D01*
X397157Y250910D01*
X397134Y250882D01*
X397118Y250863D01*
X397107Y250852D01*
X397104Y250846D01*
X397038Y250785D01*
X396968Y250733D01*
X396896Y250686D01*
X396821Y250647D01*
X396747Y250614D01*
X396669Y250586D01*
X396597Y250561D01*
X396525Y250544D01*
X396459Y250528D01*
X396398Y250519D01*
X396339Y250511D01*
X396292Y250505D01*
X396254Y250503D01*
X396223Y250500D01*
X396198D01*
X396096Y250503D01*
X395996Y250514D01*
X395904Y250533D01*
X395819Y250555D01*
X395738Y250580D01*
X395663Y250611D01*
X395597Y250641D01*
X395536Y250675D01*
X395481Y250708D01*
X395434Y250738D01*
X395392Y250769D01*
X395359Y250794D01*
X395331Y250816D01*
X395315Y250835D01*
X395301Y250846D01*
X395298Y250849D01*
X395237Y250918D01*
X395187Y250990D01*
X395140Y251068D01*
X395101Y251148D01*
X395071Y251228D01*
X395043Y251309D01*
X395021Y251389D01*
X395002Y251464D01*
X394988Y251536D01*
X394977Y251605D01*
X394971Y251663D01*
X394966Y251716D01*
X394963Y251760D01*
X394960Y251777D01*
Y251791D01*
Y251802D01*
Y251810D01*
Y251816D01*
Y251818D01*
X394963Y251932D01*
X394974Y252040D01*
X394990Y252140D01*
X395013Y252234D01*
X395038Y252320D01*
X395068Y252400D01*
X395098Y252475D01*
X395129Y252539D01*
X395162Y252600D01*
X395193Y252649D01*
X395220Y252694D01*
X395248Y252730D01*
X395270Y252758D01*
X395287Y252777D01*
X395298Y252791D01*
X395301Y252794D01*
X395367Y252854D01*
X395436Y252910D01*
X395508Y252957D01*
X395583Y252996D01*
X395661Y253032D01*
X395736Y253060D01*
X395808Y253082D01*
X395880Y253101D01*
X395946Y253115D01*
X396007Y253126D01*
X396062Y253134D01*
X396110Y253140D01*
X396148Y253143D01*
X396179Y253145D01*
X396204D01*
X396317Y253140D01*
D02*
G37*
G36*
X404116Y251228D02*
X403153D01*
Y251719D01*
X404116D01*
Y251228D01*
D02*
G37*
G36*
X409000Y250547D02*
X407202D01*
Y250979D01*
X408485D01*
Y253082D01*
X409000D01*
Y250547D01*
D02*
G37*
G36*
X405817Y253140D02*
X405923Y253129D01*
X405970Y253120D01*
X406017Y253112D01*
X406058Y253104D01*
X406097Y253096D01*
X406133Y253084D01*
X406164Y253076D01*
X406191Y253068D01*
X406213Y253060D01*
X406230Y253051D01*
X406244Y253048D01*
X406252Y253043D01*
X406255D01*
X406321Y253012D01*
X406382Y252976D01*
X406440Y252938D01*
X406488Y252899D01*
X406529Y252866D01*
X406546Y252852D01*
X406560Y252838D01*
X406571Y252827D01*
X406579Y252818D01*
X406585Y252816D01*
X406587Y252813D01*
X406640Y252752D01*
X406687Y252694D01*
X406729Y252633D01*
X406762Y252580D01*
X406787Y252530D01*
X406798Y252511D01*
X406806Y252494D01*
X406814Y252481D01*
X406820Y252469D01*
X406823Y252464D01*
Y252461D01*
X406842Y252411D01*
X406862Y252356D01*
X406889Y252248D01*
X406911Y252137D01*
X406917Y252084D01*
X406925Y252035D01*
X406928Y251985D01*
X406934Y251943D01*
X406936Y251904D01*
Y251871D01*
X406939Y251843D01*
Y251821D01*
Y251810D01*
Y251805D01*
X406936Y251694D01*
X406925Y251589D01*
X406909Y251489D01*
X406886Y251397D01*
X406862Y251312D01*
X406834Y251234D01*
X406803Y251162D01*
X406770Y251098D01*
X406740Y251040D01*
X406709Y250990D01*
X406681Y250946D01*
X406657Y250910D01*
X406634Y250882D01*
X406618Y250863D01*
X406607Y250852D01*
X406604Y250846D01*
X406537Y250785D01*
X406468Y250733D01*
X406396Y250686D01*
X406321Y250647D01*
X406247Y250614D01*
X406169Y250586D01*
X406097Y250561D01*
X406025Y250544D01*
X405959Y250528D01*
X405898Y250519D01*
X405839Y250511D01*
X405792Y250505D01*
X405754Y250503D01*
X405723Y250500D01*
X405698D01*
X405596Y250503D01*
X405496Y250514D01*
X405405Y250533D01*
X405319Y250555D01*
X405238Y250580D01*
X405163Y250611D01*
X405097Y250641D01*
X405036Y250675D01*
X404981Y250708D01*
X404934Y250738D01*
X404892Y250769D01*
X404859Y250794D01*
X404831Y250816D01*
X404814Y250835D01*
X404801Y250846D01*
X404798Y250849D01*
X404737Y250918D01*
X404687Y250990D01*
X404640Y251068D01*
X404601Y251148D01*
X404571Y251228D01*
X404543Y251309D01*
X404521Y251389D01*
X404501Y251464D01*
X404488Y251536D01*
X404477Y251605D01*
X404471Y251663D01*
X404465Y251716D01*
X404463Y251760D01*
X404460Y251777D01*
Y251791D01*
Y251802D01*
Y251810D01*
Y251816D01*
Y251818D01*
X404463Y251932D01*
X404474Y252040D01*
X404490Y252140D01*
X404513Y252234D01*
X404537Y252320D01*
X404568Y252400D01*
X404599Y252475D01*
X404629Y252539D01*
X404662Y252600D01*
X404693Y252649D01*
X404720Y252694D01*
X404748Y252730D01*
X404770Y252758D01*
X404787Y252777D01*
X404798Y252791D01*
X404801Y252794D01*
X404867Y252854D01*
X404936Y252910D01*
X405008Y252957D01*
X405083Y252996D01*
X405161Y253032D01*
X405236Y253060D01*
X405308Y253082D01*
X405380Y253101D01*
X405446Y253115D01*
X405507Y253126D01*
X405562Y253134D01*
X405610Y253140D01*
X405648Y253143D01*
X405679Y253145D01*
X405704D01*
X405817Y253140D01*
D02*
G37*
G36*
X439078Y336792D02*
X440827D01*
X440549Y336508D01*
X440160Y336584D01*
X439008D01*
Y334939D01*
X439987D01*
X440473Y335251D01*
X440493Y335071D01*
X440514Y334897D01*
X440535Y334745D01*
X440549Y334599D01*
X440570Y334474D01*
X440584Y334356D01*
X440597Y334252D01*
X440611Y334155D01*
X440625Y334079D01*
X440639Y334009D01*
X440646Y333947D01*
X440660Y333905D01*
X440667Y333870D01*
Y333842D01*
X440674Y333829D01*
Y333822D01*
X440708Y333676D01*
X440757Y333558D01*
X440813Y333461D01*
X440868Y333391D01*
X440917Y333336D01*
X440958Y333294D01*
X440986Y333273D01*
X441000Y333266D01*
X440514Y332808D01*
X440264Y333162D01*
X439112D01*
X439126Y332940D01*
X439140Y332739D01*
X439154Y332545D01*
X439168Y332378D01*
X439182Y332219D01*
X439196Y332080D01*
X439202Y331955D01*
X439216Y331844D01*
X439230Y331747D01*
X439237Y331663D01*
X439251Y331594D01*
X439258Y331538D01*
X439265Y331497D01*
Y331462D01*
X439272Y331448D01*
Y331441D01*
X439307Y331275D01*
X439334Y331122D01*
X439369Y331004D01*
X439397Y330900D01*
X439425Y330824D01*
X439445Y330768D01*
X439459Y330740D01*
X439466Y330727D01*
X439508Y330650D01*
X439557Y330595D01*
X439605Y330553D01*
X439654Y330525D01*
X439695Y330504D01*
X439730Y330490D01*
X439758Y330484D01*
X439806D01*
X439869Y330490D01*
X439938Y330497D01*
X440022Y330511D01*
X440112Y330525D01*
X440202Y330539D01*
X440403Y330574D01*
X440493Y330595D01*
X440590Y330615D01*
X440674Y330629D01*
X440743Y330643D01*
X440806Y330657D01*
X440854Y330671D01*
X440882Y330678D01*
X440896D01*
X440931Y330539D01*
X440778Y330484D01*
X440646Y330428D01*
X440528Y330359D01*
X440424Y330296D01*
X440334Y330227D01*
X440250Y330157D01*
X440181Y330088D01*
X440126Y330019D01*
X440077Y329956D01*
X440042Y329901D01*
X440008Y329845D01*
X439987Y329797D01*
X439973Y329762D01*
X439959Y329734D01*
X439952Y329713D01*
Y329706D01*
X439834Y329762D01*
X439723Y329817D01*
X439626Y329866D01*
X439536Y329921D01*
X439459Y329977D01*
X439390Y330032D01*
X439327Y330081D01*
X439272Y330137D01*
X439230Y330178D01*
X439196Y330220D01*
X439161Y330261D01*
X439140Y330289D01*
X439119Y330317D01*
X439105Y330338D01*
X439098Y330345D01*
Y330352D01*
X439064Y330421D01*
X439029Y330504D01*
X438967Y330671D01*
X438918Y330851D01*
X438876Y331025D01*
X438856Y331108D01*
X438842Y331185D01*
X438828Y331254D01*
X438821Y331309D01*
X438814Y331358D01*
X438807Y331400D01*
X438800Y331420D01*
Y331427D01*
X438765Y331698D01*
X438731Y331976D01*
X438696Y332246D01*
X438689Y332371D01*
X438675Y332489D01*
X438661Y332600D01*
X438654Y332704D01*
X438647Y332795D01*
X438640Y332871D01*
X438633Y332933D01*
X438626Y332975D01*
Y333010D01*
Y333017D01*
X438377Y333232D01*
X438835Y333683D01*
X439147Y333371D01*
X440264D01*
X440022Y334731D01*
X439008D01*
Y334342D01*
X438522Y334550D01*
X438529Y334668D01*
X438536Y334800D01*
Y334946D01*
X438543Y335099D01*
X438550Y335411D01*
Y335564D01*
Y335716D01*
X438557Y335862D01*
Y336001D01*
Y336119D01*
Y336230D01*
Y336313D01*
Y336383D01*
Y336424D01*
Y336431D01*
Y336438D01*
X438307Y336653D01*
X438765Y337104D01*
X439078Y336792D01*
D02*
G37*
G36*
X437363Y337555D02*
X437273Y337431D01*
X437197Y337306D01*
X437127Y337194D01*
X437058Y337084D01*
X437003Y336979D01*
X436954Y336889D01*
X436905Y336799D01*
X436871Y336723D01*
X436836Y336646D01*
X436808Y336584D01*
X436787Y336528D01*
X436767Y336487D01*
X436753Y336452D01*
X436746Y336424D01*
X436739Y336410D01*
Y336403D01*
X436711Y336313D01*
X436676Y336244D01*
X436642Y336195D01*
X436607Y336160D01*
X436572Y336140D01*
X436545Y336133D01*
X436531Y336126D01*
X436524D01*
X436496Y336133D01*
X436468Y336154D01*
X436434Y336181D01*
X436406Y336216D01*
X436378Y336244D01*
X436357Y336272D01*
X436343Y336292D01*
X436336Y336299D01*
X436295Y336362D01*
X436267Y336424D01*
X436239Y336473D01*
X436225Y336521D01*
X436218Y336556D01*
X436211Y336591D01*
Y336605D01*
Y336612D01*
X436218Y336667D01*
X436239Y336723D01*
X436260Y336778D01*
X436288Y336834D01*
X436322Y336875D01*
X436343Y336910D01*
X436364Y336938D01*
X436371Y336945D01*
X436406Y336986D01*
X436454Y337028D01*
X436510Y337077D01*
X436572Y337132D01*
X436718Y337243D01*
X436871Y337361D01*
X437016Y337458D01*
X437086Y337507D01*
X437141Y337548D01*
X437190Y337576D01*
X437225Y337604D01*
X437252Y337618D01*
X437259Y337625D01*
X437363Y337555D01*
D02*
G37*
G36*
X434941Y337632D02*
X434969Y337507D01*
X435011Y337375D01*
X435059Y337236D01*
X435170Y336938D01*
X435295Y336646D01*
X435358Y336508D01*
X435420Y336376D01*
X435476Y336258D01*
X435524Y336160D01*
X435566Y336070D01*
X435594Y336008D01*
X435615Y335966D01*
X435622Y335959D01*
Y335952D01*
X437363D01*
X437891Y336230D01*
X437877Y335876D01*
X437870Y335536D01*
Y335369D01*
X437863Y335210D01*
Y335064D01*
Y334925D01*
X437856Y334793D01*
Y334675D01*
Y334571D01*
Y334488D01*
Y334419D01*
Y334363D01*
Y334335D01*
Y334321D01*
Y333967D01*
X437863Y333620D01*
Y333454D01*
X437870Y333301D01*
Y333149D01*
Y333010D01*
X437877Y332885D01*
Y332767D01*
X437884Y332670D01*
Y332579D01*
X437891Y332510D01*
Y332462D01*
Y332434D01*
Y332420D01*
X437398Y332663D01*
Y333051D01*
X436107D01*
Y331865D01*
X438626D01*
X438342Y331580D01*
X438030Y331656D01*
X436107D01*
Y331240D01*
Y331039D01*
X436114Y330844D01*
Y330657D01*
X436121Y330477D01*
Y330310D01*
Y330150D01*
X436128Y330012D01*
Y329880D01*
X436135Y329769D01*
Y329672D01*
X436142Y329595D01*
Y329540D01*
Y329505D01*
Y329491D01*
X435622Y329741D01*
X435628Y329880D01*
X435635Y330026D01*
Y330178D01*
X435642Y330331D01*
X435649Y330650D01*
Y330810D01*
Y330962D01*
X435656Y331101D01*
Y331233D01*
Y331351D01*
Y331455D01*
Y331538D01*
Y331601D01*
Y331643D01*
Y331656D01*
X432929D01*
X433560Y332316D01*
X434011Y331865D01*
X435656D01*
Y333051D01*
X434289D01*
Y332524D01*
X433803Y332767D01*
Y332822D01*
X433810Y332892D01*
Y332968D01*
X433817Y333051D01*
Y333142D01*
Y333239D01*
X433824Y333454D01*
Y333683D01*
X433831Y333919D01*
Y334412D01*
X433838Y334648D01*
Y334877D01*
Y335085D01*
Y335175D01*
Y335265D01*
Y335342D01*
Y335418D01*
Y335480D01*
Y335536D01*
Y335578D01*
Y335605D01*
Y335626D01*
Y335633D01*
X433560Y335848D01*
X434081Y336299D01*
X434358Y335952D01*
X435441D01*
X435358Y336063D01*
X435281Y336167D01*
X435205Y336265D01*
X435136Y336355D01*
X435073Y336438D01*
X435018Y336508D01*
X434962Y336570D01*
X434914Y336632D01*
X434872Y336681D01*
X434830Y336723D01*
X434803Y336757D01*
X434775Y336792D01*
X434740Y336827D01*
X434726Y336841D01*
X434629Y336931D01*
X434539Y337014D01*
X434449Y337084D01*
X434372Y337139D01*
X434310Y337188D01*
X434261Y337215D01*
X434234Y337236D01*
X434220Y337243D01*
X434921Y337736D01*
X434941Y337632D01*
D02*
G37*
G36*
X427016Y337639D02*
X427009Y337576D01*
X427002Y337431D01*
Y337264D01*
X426995Y337077D01*
Y336882D01*
X426988Y336681D01*
Y336265D01*
X426981Y336063D01*
Y335876D01*
Y335709D01*
Y335557D01*
Y335487D01*
Y335432D01*
Y335376D01*
Y335335D01*
Y335300D01*
Y335272D01*
Y335258D01*
Y335251D01*
X428341D01*
X427994Y336265D01*
X427682Y336473D01*
X428480Y336855D01*
X428494Y336730D01*
X428515Y336591D01*
X428563Y336313D01*
X428619Y336029D01*
X428654Y335890D01*
X428682Y335758D01*
X428709Y335640D01*
X428737Y335522D01*
X428765Y335418D01*
X428786Y335335D01*
X428806Y335258D01*
X428820Y335210D01*
X428834Y335175D01*
Y335161D01*
X428945Y334786D01*
X429001Y334606D01*
X429056Y334439D01*
X429119Y334273D01*
X429174Y334120D01*
X429230Y333974D01*
X429285Y333842D01*
X429334Y333724D01*
X429382Y333613D01*
X429424Y333523D01*
X429459Y333440D01*
X429487Y333378D01*
X429507Y333336D01*
X429521Y333301D01*
X429528Y333294D01*
X429424Y333225D01*
X429320Y333357D01*
X429223Y333503D01*
X429029Y333801D01*
X428862Y334106D01*
X428779Y334252D01*
X428709Y334398D01*
X428647Y334530D01*
X428584Y334654D01*
X428536Y334759D01*
X428494Y334856D01*
X428459Y334932D01*
X428432Y334995D01*
X428418Y335029D01*
X428411Y335043D01*
X426981D01*
Y333121D01*
X428869D01*
X428550Y332802D01*
X428404Y332836D01*
X428258Y332864D01*
X428119Y332885D01*
X427987Y332899D01*
X427877Y332906D01*
X427835Y332913D01*
X426981D01*
Y330470D01*
X429674D01*
X429355Y330157D01*
X429209Y330192D01*
X429063Y330220D01*
X428924Y330234D01*
X428792Y330248D01*
X428682Y330255D01*
X428633Y330261D01*
X423942D01*
X424642Y330956D01*
X425128Y330470D01*
X426488D01*
Y332913D01*
X424462D01*
X425128Y333572D01*
X425579Y333121D01*
X426488D01*
Y335043D01*
X424289D01*
X424989Y335737D01*
X425475Y335251D01*
X426488D01*
Y337070D01*
X426142Y337313D01*
X427016Y337694D01*
Y337639D01*
D02*
G37*
G36*
X431464Y335349D02*
X431485Y335210D01*
X431513Y335085D01*
X431541Y334967D01*
X431568Y334863D01*
X431603Y334766D01*
X431638Y334675D01*
X431673Y334599D01*
X431700Y334530D01*
X431735Y334474D01*
X431763Y334419D01*
X431791Y334377D01*
X431811Y334349D01*
X431825Y334328D01*
X431832Y334314D01*
X431839Y334308D01*
X431922Y334210D01*
X431978Y334127D01*
X432020Y334051D01*
X432054Y333995D01*
X432068Y333947D01*
X432075Y333919D01*
X432082Y333898D01*
Y333891D01*
X432075Y333877D01*
X432061Y333856D01*
X432020Y333829D01*
X431985Y333801D01*
X431971Y333794D01*
X431964D01*
X431881Y333766D01*
X431818Y333752D01*
X431784Y333745D01*
X431770D01*
X431728Y333752D01*
X431686Y333759D01*
X431596Y333794D01*
X431562Y333808D01*
X431534Y333822D01*
X431513Y333829D01*
X431506Y333836D01*
X431451Y333877D01*
X431402Y333926D01*
X431360Y333988D01*
X431333Y334044D01*
X431305Y334099D01*
X431291Y334141D01*
X431277Y334169D01*
Y334183D01*
X431263Y334238D01*
X431256Y334314D01*
Y334405D01*
Y334502D01*
Y334606D01*
Y334717D01*
X431270Y334939D01*
X431277Y335043D01*
X431284Y335147D01*
X431291Y335244D01*
X431298Y335328D01*
X431305Y335397D01*
Y335446D01*
X431312Y335480D01*
Y335494D01*
X431451D01*
X431464Y335349D01*
D02*
G37*
G36*
X430847Y337465D02*
Y337326D01*
X430840Y337194D01*
Y337063D01*
X430833Y336945D01*
Y336841D01*
Y336736D01*
X430826Y336646D01*
Y336570D01*
Y336501D01*
Y336438D01*
Y336396D01*
Y336362D01*
Y336341D01*
Y336334D01*
Y331407D01*
Y331101D01*
X430833Y330782D01*
X430840Y330477D01*
Y330338D01*
Y330199D01*
X430847Y330074D01*
Y329956D01*
X430854Y329852D01*
Y329769D01*
X430861Y329692D01*
Y329637D01*
Y329609D01*
Y329595D01*
X430299Y329845D01*
X430312Y330095D01*
X430319Y330338D01*
X430326Y330553D01*
Y330650D01*
Y330747D01*
X430333Y330831D01*
Y330907D01*
Y330969D01*
Y331025D01*
Y331066D01*
Y331101D01*
Y331122D01*
Y331129D01*
Y335779D01*
X430201Y335633D01*
X430083Y335494D01*
X429986Y335362D01*
X429910Y335251D01*
X429854Y335147D01*
X429813Y335078D01*
X429799Y335043D01*
X429785Y335029D01*
X429778Y335015D01*
Y335008D01*
X429750Y334939D01*
X429729Y334883D01*
X429702Y334835D01*
X429674Y334800D01*
X429653Y334772D01*
X429632Y334745D01*
X429584Y334724D01*
X429549Y334710D01*
X429521Y334717D01*
X429507D01*
X429500Y334724D01*
X429452Y334772D01*
X429410Y334835D01*
X429382Y334897D01*
X429355Y334960D01*
X429341Y335022D01*
X429327Y335071D01*
X429320Y335099D01*
Y335113D01*
Y335210D01*
X429341Y335300D01*
X429376Y335376D01*
X429417Y335446D01*
X429459Y335494D01*
X429494Y335536D01*
X429521Y335557D01*
X429535Y335564D01*
X429584Y335598D01*
X429639Y335633D01*
X429764Y335702D01*
X429896Y335765D01*
X430028Y335827D01*
X430146Y335876D01*
X430194Y335897D01*
X430243Y335918D01*
X430278Y335931D01*
X430305Y335945D01*
X430326Y335952D01*
X430333D01*
Y337139D01*
X430021Y337382D01*
X430861Y337771D01*
X430847Y337465D01*
D02*
G37*
G36*
X426357Y327925D02*
X426246Y327821D01*
X426148Y327724D01*
X426058Y327634D01*
X425982Y327544D01*
X425906Y327461D01*
X425836Y327384D01*
X425781Y327308D01*
X425732Y327245D01*
X425683Y327190D01*
X425649Y327134D01*
X425621Y327086D01*
X425593Y327051D01*
X425572Y327023D01*
X425559Y327003D01*
X425552Y326989D01*
Y326982D01*
X425510Y326898D01*
X425475Y326843D01*
X425441Y326801D01*
X425406Y326766D01*
X425385Y326753D01*
X425364Y326746D01*
X425350Y326739D01*
X425343D01*
X425329Y326746D01*
X425309Y326766D01*
X425288Y326794D01*
X425274Y326829D01*
X425253Y326857D01*
X425239Y326885D01*
X425225Y326905D01*
Y326912D01*
X425198Y326975D01*
X425170Y327037D01*
X425156Y327093D01*
X425149Y327134D01*
X425142Y327176D01*
X425135Y327204D01*
Y327224D01*
Y327232D01*
X425142Y327294D01*
X425170Y327356D01*
X425198Y327419D01*
X425239Y327467D01*
X425274Y327516D01*
X425309Y327551D01*
X425336Y327572D01*
X425343Y327578D01*
X425385Y327613D01*
X425441Y327648D01*
X425510Y327683D01*
X425579Y327724D01*
X425732Y327801D01*
X425892Y327870D01*
X426044Y327932D01*
X426107Y327960D01*
X426169Y327981D01*
X426218Y328002D01*
X426253Y328016D01*
X426280Y328030D01*
X426287D01*
X426357Y327925D01*
D02*
G37*
G36*
X427321Y328030D02*
X427314Y327863D01*
X427307Y327717D01*
Y327585D01*
X427300Y327481D01*
Y327440D01*
Y327405D01*
Y327377D01*
Y327356D01*
Y327343D01*
Y327336D01*
Y326357D01*
X430201D01*
X429882Y326038D01*
X429736Y326073D01*
X429591Y326100D01*
X429452Y326121D01*
X429320Y326135D01*
X429209Y326142D01*
X429160Y326149D01*
X427300D01*
X427293Y325746D01*
X427287Y325358D01*
X427266Y324990D01*
X427238Y324636D01*
X427210Y324310D01*
X427176Y324004D01*
X427141Y323727D01*
X427106Y323470D01*
X427071Y323241D01*
X427051Y323130D01*
X427037Y323033D01*
X427016Y322943D01*
X427002Y322859D01*
X426988Y322783D01*
X426974Y322713D01*
X426960Y322651D01*
X426946Y322596D01*
X426940Y322547D01*
X426926Y322512D01*
X426919Y322484D01*
Y322464D01*
X426912Y322450D01*
Y322443D01*
X427071Y322207D01*
X427245Y321971D01*
X427439Y321749D01*
X427634Y321534D01*
X427835Y321333D01*
X428043Y321138D01*
X428244Y320958D01*
X428439Y320791D01*
X428626Y320645D01*
X428799Y320507D01*
X428952Y320389D01*
X429091Y320291D01*
X429202Y320215D01*
X429251Y320187D01*
X429292Y320160D01*
X429320Y320139D01*
X429341Y320125D01*
X429355Y320111D01*
X429362D01*
X429292Y320000D01*
X429022Y320125D01*
X428758Y320264D01*
X428501Y320416D01*
X428258Y320576D01*
X428029Y320743D01*
X427814Y320909D01*
X427613Y321076D01*
X427425Y321235D01*
X427259Y321388D01*
X427113Y321527D01*
X426981Y321659D01*
X426870Y321770D01*
X426787Y321860D01*
X426724Y321929D01*
X426697Y321957D01*
X426683Y321978D01*
X426669Y321985D01*
Y321992D01*
X426530Y321777D01*
X426391Y321575D01*
X426259Y321395D01*
X426142Y321235D01*
X426023Y321096D01*
X425912Y320972D01*
X425815Y320861D01*
X425725Y320770D01*
X425642Y320687D01*
X425572Y320625D01*
X425503Y320569D01*
X425454Y320527D01*
X425413Y320493D01*
X425385Y320472D01*
X425364Y320465D01*
X425357Y320458D01*
X425260Y320403D01*
X425170Y320354D01*
X425094Y320312D01*
X425024Y320278D01*
X424962Y320250D01*
X424906Y320222D01*
X424858Y320201D01*
X424816Y320187D01*
X424747Y320160D01*
X424705Y320153D01*
X424684Y320146D01*
X424677D01*
X424642Y320153D01*
X424622Y320167D01*
X424608Y320187D01*
X424601Y320215D01*
Y320264D01*
X424608Y320278D01*
Y320285D01*
X424642Y320423D01*
X424663Y320569D01*
X424684Y320715D01*
X424691Y320854D01*
X424698Y320978D01*
Y321034D01*
Y321076D01*
Y321117D01*
Y321145D01*
Y321159D01*
Y321166D01*
X424684Y321381D01*
X424670Y321603D01*
X424649Y321832D01*
X424628Y322040D01*
X424615Y322137D01*
X424608Y322228D01*
X424601Y322311D01*
X424587Y322380D01*
X424580Y322436D01*
Y322478D01*
X424573Y322505D01*
Y322512D01*
X424712Y322547D01*
X424754Y322374D01*
X424802Y322214D01*
X424844Y322061D01*
X424878Y321915D01*
X424920Y321784D01*
X424955Y321659D01*
X424983Y321548D01*
X425017Y321444D01*
X425038Y321353D01*
X425066Y321277D01*
X425087Y321208D01*
X425101Y321152D01*
X425114Y321104D01*
X425128Y321076D01*
X425135Y321055D01*
Y321048D01*
X425274Y321152D01*
X425406Y321263D01*
X425531Y321381D01*
X425642Y321492D01*
X425746Y321610D01*
X425843Y321721D01*
X425933Y321832D01*
X426017Y321936D01*
X426086Y322033D01*
X426148Y322124D01*
X426197Y322207D01*
X426246Y322276D01*
X426280Y322332D01*
X426301Y322374D01*
X426315Y322401D01*
X426322Y322408D01*
X426190Y322679D01*
X426065Y322943D01*
X425947Y323199D01*
X425892Y323324D01*
X425836Y323435D01*
X425795Y323546D01*
X425746Y323643D01*
X425711Y323727D01*
X425683Y323803D01*
X425656Y323859D01*
X425635Y323907D01*
X425628Y323935D01*
X425621Y323942D01*
X425565Y324088D01*
X425510Y324226D01*
X425454Y324344D01*
X425399Y324442D01*
X425350Y324532D01*
X425309Y324608D01*
X425260Y324678D01*
X425225Y324726D01*
X425184Y324775D01*
X425156Y324809D01*
X425128Y324837D01*
X425101Y324858D01*
X425073Y324879D01*
X425059Y324886D01*
X425725Y325448D01*
X425739Y325358D01*
X425760Y325260D01*
X425808Y325066D01*
X425864Y324858D01*
X425919Y324664D01*
X425947Y324573D01*
X425968Y324490D01*
X425996Y324414D01*
X426017Y324344D01*
X426030Y324296D01*
X426044Y324254D01*
X426058Y324226D01*
Y324219D01*
X426107Y324081D01*
X426155Y323949D01*
X426204Y323824D01*
X426246Y323706D01*
X426294Y323595D01*
X426336Y323498D01*
X426370Y323408D01*
X426412Y323324D01*
X426447Y323248D01*
X426475Y323185D01*
X426502Y323130D01*
X426523Y323081D01*
X426537Y323047D01*
X426551Y323019D01*
X426565Y323005D01*
Y322998D01*
X426655Y323553D01*
X426724Y324109D01*
X426752Y324379D01*
X426773Y324643D01*
X426794Y324893D01*
X426808Y325129D01*
X426822Y325344D01*
X426828Y325538D01*
X426835Y325712D01*
Y325795D01*
Y325864D01*
X426842Y325927D01*
Y325982D01*
Y326031D01*
Y326073D01*
Y326107D01*
Y326128D01*
Y326142D01*
Y326149D01*
X424504D01*
X425170Y326808D01*
X425621Y326357D01*
X426842D01*
Y327544D01*
X426600Y327787D01*
X427335Y328210D01*
X427321Y328030D01*
D02*
G37*
G36*
X431416Y327891D02*
X431409Y327759D01*
Y327634D01*
X431402Y327523D01*
Y327419D01*
X431395Y327322D01*
Y327232D01*
Y327148D01*
X431388Y327079D01*
Y327016D01*
Y326968D01*
Y326919D01*
Y326885D01*
Y326864D01*
Y326850D01*
Y326843D01*
Y325552D01*
X432679D01*
X432367Y325233D01*
X432221Y325268D01*
X432068Y325295D01*
X431929Y325316D01*
X431798Y325330D01*
X431686Y325337D01*
X431645Y325344D01*
X431388D01*
Y322512D01*
X431645Y322450D01*
X431888Y322394D01*
X432103Y322346D01*
X432207Y322325D01*
X432297Y322304D01*
X432380Y322283D01*
X432457Y322269D01*
X432519Y322255D01*
X432575Y322249D01*
X432617Y322242D01*
X432651Y322235D01*
X432672Y322228D01*
X432679D01*
X432297Y321568D01*
X432276Y321596D01*
X432242Y321631D01*
X432193Y321673D01*
X432138Y321707D01*
X432068Y321749D01*
X431999Y321797D01*
X431916Y321839D01*
X431825Y321888D01*
X431631Y321985D01*
X431416Y322082D01*
X431187Y322179D01*
X430958Y322276D01*
X430729Y322374D01*
X430507Y322464D01*
X430299Y322540D01*
X430208Y322582D01*
X430118Y322616D01*
X430035Y322644D01*
X429965Y322672D01*
X429903Y322700D01*
X429847Y322721D01*
X429799Y322734D01*
X429771Y322748D01*
X429750Y322755D01*
X429743D01*
X429778Y322894D01*
X430895Y322616D01*
Y325344D01*
X429674D01*
X430271Y325934D01*
X430653Y325552D01*
X430895D01*
Y327405D01*
X430618Y327648D01*
X431423Y328030D01*
X431416Y327891D01*
D02*
G37*
G36*
X428279Y325170D02*
X429119D01*
X429570Y325448D01*
X429556Y325233D01*
X429549Y325011D01*
X429542Y324789D01*
Y324587D01*
X429535Y324497D01*
Y324414D01*
Y324338D01*
Y324275D01*
Y324219D01*
Y324185D01*
Y324157D01*
Y324150D01*
Y323880D01*
X429542Y323630D01*
Y323512D01*
X429549Y323401D01*
Y323296D01*
Y323199D01*
X429556Y323109D01*
Y323026D01*
X429563Y322956D01*
Y322901D01*
X429570Y322852D01*
Y322818D01*
Y322797D01*
Y322790D01*
X429119Y322963D01*
Y323248D01*
X428244D01*
Y322894D01*
X427786Y323102D01*
X427800Y323262D01*
X427807Y323401D01*
X427814Y323512D01*
Y323609D01*
X427821Y323678D01*
Y323727D01*
Y323762D01*
Y323768D01*
Y324851D01*
X427543Y325066D01*
X428029Y325483D01*
X428279Y325170D01*
D02*
G37*
G36*
X435864Y326503D02*
X435948Y326336D01*
X436031Y326170D01*
X436114Y326010D01*
X436149Y325941D01*
X436184Y325878D01*
X436218Y325816D01*
X436246Y325767D01*
X436267Y325726D01*
X436288Y325698D01*
X436295Y325677D01*
X436302Y325670D01*
X436434Y325455D01*
X436565Y325240D01*
X436697Y325038D01*
X436822Y324851D01*
X436878Y324775D01*
X436933Y324698D01*
X436975Y324629D01*
X437016Y324573D01*
X437051Y324532D01*
X437072Y324497D01*
X437086Y324476D01*
X437093Y324469D01*
X437308Y324671D01*
X437516Y324858D01*
X437710Y325038D01*
X437905Y325205D01*
X438092Y325365D01*
X438259Y325510D01*
X438425Y325642D01*
X438571Y325767D01*
X438710Y325871D01*
X438828Y325968D01*
X438932Y326052D01*
X439022Y326121D01*
X439091Y326177D01*
X439147Y326211D01*
X439175Y326239D01*
X439189Y326246D01*
X439293Y326142D01*
X438932Y325781D01*
X438578Y325420D01*
X438411Y325247D01*
X438252Y325073D01*
X438106Y324914D01*
X437967Y324761D01*
X437835Y324615D01*
X437717Y324483D01*
X437620Y324372D01*
X437530Y324268D01*
X437461Y324192D01*
X437412Y324129D01*
X437384Y324095D01*
X437370Y324081D01*
X437579Y323789D01*
X437683Y323657D01*
X437780Y323526D01*
X437877Y323401D01*
X437967Y323290D01*
X438057Y323185D01*
X438134Y323088D01*
X438210Y323005D01*
X438279Y322922D01*
X438342Y322859D01*
X438391Y322804D01*
X438432Y322755D01*
X438460Y322727D01*
X438481Y322707D01*
X438488Y322700D01*
X438703Y322484D01*
X438911Y322283D01*
X439112Y322103D01*
X439293Y321936D01*
X439376Y321860D01*
X439445Y321797D01*
X439515Y321742D01*
X439570Y321693D01*
X439612Y321652D01*
X439647Y321624D01*
X439668Y321610D01*
X439675Y321603D01*
X439605Y321499D01*
X439404Y321624D01*
X439202Y321770D01*
X439001Y321908D01*
X438814Y322047D01*
X438731Y322117D01*
X438654Y322172D01*
X438592Y322228D01*
X438529Y322276D01*
X438481Y322311D01*
X438446Y322346D01*
X438425Y322360D01*
X438418Y322366D01*
X438168Y322589D01*
X437919Y322818D01*
X437683Y323047D01*
X437572Y323158D01*
X437467Y323262D01*
X437370Y323359D01*
X437287Y323449D01*
X437204Y323533D01*
X437141Y323602D01*
X437086Y323657D01*
X437051Y323699D01*
X437023Y323727D01*
X437016Y323734D01*
X436864Y323553D01*
X436732Y323387D01*
X436607Y323234D01*
X436503Y323102D01*
X436420Y322991D01*
X436385Y322950D01*
X436357Y322908D01*
X436329Y322880D01*
X436315Y322859D01*
X436302Y322845D01*
Y322838D01*
X436191Y322686D01*
X436087Y322533D01*
X435989Y322380D01*
X435899Y322242D01*
X435830Y322124D01*
X435802Y322075D01*
X435774Y322033D01*
X435753Y321999D01*
X435740Y321971D01*
X435726Y321957D01*
Y321950D01*
X435691Y321888D01*
X435663Y321839D01*
X435635Y321791D01*
X435608Y321749D01*
X435559Y321686D01*
X435524Y321645D01*
X435490Y321624D01*
X435469Y321610D01*
X435455Y321603D01*
X435448D01*
X435434Y321610D01*
X435413Y321631D01*
X435393Y321666D01*
X435379Y321700D01*
X435358Y321728D01*
X435344Y321763D01*
X435330Y321784D01*
Y321791D01*
X435302Y321860D01*
X435275Y321929D01*
X435261Y321992D01*
X435254Y322047D01*
X435247Y322096D01*
X435240Y322131D01*
Y322151D01*
Y322158D01*
X435247Y322228D01*
X435254Y322311D01*
X435275Y322387D01*
X435288Y322464D01*
X435309Y322533D01*
X435330Y322596D01*
X435337Y322630D01*
X435344Y322644D01*
X435379Y322713D01*
X435434Y322804D01*
X435510Y322901D01*
X435601Y323012D01*
X435705Y323137D01*
X435823Y323262D01*
X436066Y323519D01*
X436184Y323643D01*
X436302Y323762D01*
X436413Y323866D01*
X436503Y323963D01*
X436586Y324039D01*
X436649Y324101D01*
X436690Y324136D01*
X436697Y324150D01*
X436704D01*
X436524Y324400D01*
X436350Y324629D01*
X436191Y324844D01*
X436121Y324948D01*
X436052Y325038D01*
X435989Y325122D01*
X435934Y325198D01*
X435885Y325268D01*
X435844Y325323D01*
X435809Y325365D01*
X435788Y325399D01*
X435774Y325420D01*
X435767Y325427D01*
X435684Y325538D01*
X435601Y325635D01*
X435524Y325719D01*
X435455Y325788D01*
X435386Y325857D01*
X435323Y325913D01*
X435261Y325955D01*
X435205Y325996D01*
X435156Y326031D01*
X435115Y326052D01*
X435045Y326086D01*
X435025Y326100D01*
X435004D01*
X434997Y326107D01*
X434990D01*
X435795Y326669D01*
X435864Y326503D01*
D02*
G37*
G36*
X427724Y322318D02*
X427932Y322262D01*
X428133Y322214D01*
X428321Y322165D01*
X428494Y322124D01*
X428661Y322082D01*
X428820Y322040D01*
X428973Y322006D01*
X429119Y321978D01*
X429251Y321950D01*
X429376Y321922D01*
X429494Y321895D01*
X429598Y321874D01*
X429702Y321853D01*
X429799Y321839D01*
X429882Y321818D01*
X429965Y321804D01*
X430035Y321797D01*
X430167Y321777D01*
X430271Y321763D01*
X430347Y321749D01*
X430410D01*
X430451Y321742D01*
X430479D01*
X430132Y321117D01*
X430097Y321152D01*
X430049Y321187D01*
X429993Y321228D01*
X429924Y321263D01*
X429847Y321305D01*
X429771Y321346D01*
X429681Y321395D01*
X429584Y321437D01*
X429376Y321534D01*
X429153Y321624D01*
X428918Y321714D01*
X428682Y321804D01*
X428452Y321895D01*
X428230Y321971D01*
X428029Y322047D01*
X427932Y322082D01*
X427842Y322110D01*
X427765Y322137D01*
X427689Y322158D01*
X427627Y322186D01*
X427578Y322200D01*
X427529Y322214D01*
X427502Y322228D01*
X427481Y322235D01*
X427474D01*
X427509Y322374D01*
X427724Y322318D01*
D02*
G37*
G36*
X435101Y327474D02*
X440306D01*
X440827Y327787D01*
X440820Y327627D01*
X440813Y327488D01*
Y327349D01*
X440806Y327232D01*
Y327127D01*
X440799Y327030D01*
Y326940D01*
Y326864D01*
X440792Y326801D01*
Y326746D01*
Y326697D01*
Y326662D01*
Y326635D01*
Y326614D01*
Y326607D01*
Y326600D01*
Y320840D01*
X441000Y320632D01*
X440480Y320208D01*
X440271Y320520D01*
X433838D01*
X434470Y321215D01*
X434955Y320736D01*
X440306D01*
Y327266D01*
X433942D01*
X434608Y327967D01*
X435101Y327474D01*
D02*
G37*
G36*
X477128Y250547D02*
X476651D01*
Y252226D01*
X475615Y250547D01*
X475100D01*
Y253104D01*
X475576D01*
Y251386D01*
X476629Y253104D01*
X477128D01*
Y250547D01*
D02*
G37*
G36*
X478862Y253140D02*
X478923Y253134D01*
X478981Y253126D01*
X479036Y253115D01*
X479086Y253104D01*
X479133Y253093D01*
X479175Y253082D01*
X479213Y253071D01*
X479247Y253060D01*
X479274Y253048D01*
X479299Y253037D01*
X479319Y253029D01*
X479332Y253024D01*
X479341Y253021D01*
X479344Y253018D01*
X479402Y252985D01*
X479457Y252949D01*
X479510Y252913D01*
X479557Y252874D01*
X479601Y252832D01*
X479640Y252794D01*
X479679Y252755D01*
X479709Y252716D01*
X479740Y252680D01*
X479765Y252647D01*
X479784Y252616D01*
X479803Y252591D01*
X479817Y252569D01*
X479825Y252553D01*
X479831Y252541D01*
X479834Y252539D01*
X479864Y252481D01*
X479889Y252420D01*
X479911Y252359D01*
X479931Y252298D01*
X479945Y252237D01*
X479958Y252179D01*
X479970Y252120D01*
X479978Y252068D01*
X479986Y252018D01*
X479992Y251974D01*
X479994Y251932D01*
X479997Y251896D01*
X480000Y251868D01*
Y251846D01*
Y251835D01*
Y251830D01*
X479997Y251760D01*
X479994Y251694D01*
X479986Y251630D01*
X479978Y251566D01*
X479964Y251508D01*
X479953Y251453D01*
X479939Y251400D01*
X479925Y251350D01*
X479911Y251306D01*
X479897Y251267D01*
X479884Y251231D01*
X479873Y251204D01*
X479864Y251179D01*
X479856Y251162D01*
X479853Y251151D01*
X479850Y251148D01*
X479820Y251090D01*
X479789Y251037D01*
X479753Y250988D01*
X479717Y250940D01*
X479681Y250899D01*
X479643Y250857D01*
X479607Y250821D01*
X479571Y250791D01*
X479537Y250760D01*
X479507Y250735D01*
X479476Y250716D01*
X479454Y250697D01*
X479432Y250683D01*
X479418Y250675D01*
X479407Y250669D01*
X479404Y250666D01*
X479346Y250636D01*
X479288Y250611D01*
X479230Y250589D01*
X479169Y250569D01*
X479108Y250555D01*
X479050Y250542D01*
X478995Y250531D01*
X478942Y250522D01*
X478892Y250514D01*
X478848Y250508D01*
X478806Y250505D01*
X478770Y250503D01*
X478742Y250500D01*
X478704D01*
X478646Y250503D01*
X478587Y250505D01*
X478474Y250519D01*
X478418Y250528D01*
X478369Y250539D01*
X478319Y250550D01*
X478274Y250561D01*
X478233Y250572D01*
X478194Y250580D01*
X478161Y250591D01*
X478133Y250600D01*
X478111Y250608D01*
X478094Y250614D01*
X478083Y250619D01*
X478080D01*
X478025Y250641D01*
X477972Y250666D01*
X477922Y250688D01*
X477878Y250713D01*
X477834Y250735D01*
X477795Y250758D01*
X477762Y250780D01*
X477729Y250802D01*
X477701Y250821D01*
X477676Y250838D01*
X477657Y250855D01*
X477640Y250868D01*
X477626Y250880D01*
X477618Y250888D01*
X477612Y250891D01*
X477609Y250893D01*
Y251916D01*
X478720D01*
Y251483D01*
X478130D01*
Y251156D01*
X478177Y251123D01*
X478224Y251096D01*
X478271Y251071D01*
X478316Y251048D01*
X478355Y251029D01*
X478385Y251015D01*
X478396Y251010D01*
X478405Y251007D01*
X478410Y251004D01*
X478413D01*
X478474Y250982D01*
X478532Y250968D01*
X478584Y250957D01*
X478634Y250949D01*
X478676Y250943D01*
X478695D01*
X478709Y250940D01*
X478737D01*
X478798Y250943D01*
X478853Y250952D01*
X478906Y250963D01*
X478959Y250976D01*
X479006Y250993D01*
X479047Y251012D01*
X479089Y251032D01*
X479125Y251054D01*
X479155Y251076D01*
X479186Y251096D01*
X479208Y251115D01*
X479230Y251132D01*
X479244Y251145D01*
X479258Y251159D01*
X479263Y251165D01*
X479266Y251168D01*
X479302Y251212D01*
X479332Y251262D01*
X479360Y251314D01*
X479382Y251370D01*
X479402Y251428D01*
X479418Y251483D01*
X479432Y251541D01*
X479443Y251594D01*
X479452Y251647D01*
X479457Y251697D01*
X479463Y251738D01*
X479465Y251777D01*
Y251807D01*
X479468Y251832D01*
Y251846D01*
Y251852D01*
X479465Y251929D01*
X479460Y252001D01*
X479449Y252068D01*
X479438Y252129D01*
X479421Y252187D01*
X479404Y252240D01*
X479388Y252287D01*
X479368Y252328D01*
X479349Y252367D01*
X479332Y252397D01*
X479316Y252425D01*
X479299Y252447D01*
X479288Y252467D01*
X479277Y252478D01*
X479272Y252486D01*
X479269Y252489D01*
X479230Y252528D01*
X479188Y252561D01*
X479144Y252589D01*
X479100Y252613D01*
X479055Y252636D01*
X479011Y252652D01*
X478967Y252666D01*
X478925Y252677D01*
X478887Y252685D01*
X478848Y252694D01*
X478814Y252699D01*
X478787Y252702D01*
X478765Y252705D01*
X478731D01*
X478651Y252699D01*
X478579Y252688D01*
X478515Y252669D01*
X478463Y252649D01*
X478441Y252638D01*
X478418Y252630D01*
X478402Y252619D01*
X478388Y252611D01*
X478374Y252605D01*
X478366Y252600D01*
X478363Y252594D01*
X478360D01*
X478307Y252550D01*
X478266Y252503D01*
X478230Y252453D01*
X478202Y252406D01*
X478180Y252364D01*
X478172Y252345D01*
X478166Y252328D01*
X478161Y252317D01*
X478158Y252306D01*
X478155Y252301D01*
Y252298D01*
X477643Y252395D01*
X477659Y252458D01*
X477679Y252519D01*
X477704Y252577D01*
X477729Y252630D01*
X477756Y252677D01*
X477787Y252724D01*
X477814Y252766D01*
X477845Y252802D01*
X477873Y252835D01*
X477900Y252866D01*
X477925Y252888D01*
X477945Y252910D01*
X477964Y252926D01*
X477978Y252938D01*
X477986Y252943D01*
X477989Y252946D01*
X478042Y252982D01*
X478097Y253012D01*
X478155Y253037D01*
X478216Y253062D01*
X478280Y253082D01*
X478341Y253096D01*
X478402Y253109D01*
X478460Y253120D01*
X478515Y253129D01*
X478565Y253134D01*
X478612Y253140D01*
X478654Y253143D01*
X478684Y253145D01*
X478798D01*
X478862Y253140D01*
D02*
G37*
G36*
X474554Y250547D02*
X473532D01*
X473482Y250550D01*
X473435Y250553D01*
X473393Y250555D01*
X473352Y250558D01*
X473313Y250564D01*
X473280Y250569D01*
X473249Y250575D01*
X473222Y250578D01*
X473197Y250583D01*
X473175Y250589D01*
X473158Y250591D01*
X473144Y250594D01*
X473136Y250597D01*
X473130Y250600D01*
X473128D01*
X473047Y250630D01*
X472975Y250663D01*
X472914Y250697D01*
X472862Y250730D01*
X472839Y250744D01*
X472820Y250758D01*
X472806Y250771D01*
X472792Y250782D01*
X472781Y250791D01*
X472773Y250799D01*
X472770Y250802D01*
X472767Y250805D01*
X472704Y250874D01*
X472648Y250949D01*
X472601Y251024D01*
X472563Y251096D01*
X472546Y251129D01*
X472532Y251159D01*
X472521Y251187D01*
X472510Y251209D01*
X472504Y251228D01*
X472499Y251245D01*
X472493Y251253D01*
Y251256D01*
X472466Y251345D01*
X472446Y251436D01*
X472432Y251528D01*
X472424Y251613D01*
X472418Y251652D01*
X472416Y251688D01*
Y251719D01*
X472413Y251747D01*
Y251769D01*
Y251785D01*
Y251796D01*
Y251799D01*
Y251866D01*
X472416Y251929D01*
X472421Y251988D01*
X472427Y252046D01*
X472432Y252098D01*
X472441Y252148D01*
X472449Y252195D01*
X472455Y252237D01*
X472463Y252273D01*
X472471Y252306D01*
X472479Y252337D01*
X472485Y252359D01*
X472491Y252378D01*
X472496Y252392D01*
X472499Y252400D01*
Y252403D01*
X472532Y252492D01*
X472571Y252572D01*
X472612Y252644D01*
X472632Y252674D01*
X472651Y252702D01*
X472671Y252730D01*
X472687Y252752D01*
X472704Y252771D01*
X472715Y252788D01*
X472726Y252802D01*
X472734Y252810D01*
X472740Y252816D01*
X472743Y252818D01*
X472806Y252877D01*
X472870Y252926D01*
X472934Y252968D01*
X472995Y252998D01*
X473047Y253024D01*
X473069Y253034D01*
X473089Y253040D01*
X473105Y253046D01*
X473117Y253051D01*
X473125Y253054D01*
X473128D01*
X473161Y253062D01*
X473197Y253071D01*
X473274Y253082D01*
X473355Y253093D01*
X473432Y253098D01*
X473468Y253101D01*
X473532D01*
X473560Y253104D01*
X474554D01*
Y250547D01*
D02*
G37*
%LPC*%
G36*
X428985Y252672D02*
X428431D01*
X428392Y252669D01*
X428326D01*
X428298Y252666D01*
X428256D01*
X428242Y252663D01*
X428220D01*
X428209Y252661D01*
X428206D01*
X428162Y252649D01*
X428121Y252636D01*
X428087Y252622D01*
X428060Y252602D01*
X428037Y252589D01*
X428024Y252575D01*
X428013Y252564D01*
X428010Y252561D01*
X427988Y252528D01*
X427971Y252494D01*
X427957Y252461D01*
X427949Y252428D01*
X427943Y252397D01*
X427941Y252375D01*
Y252359D01*
Y252356D01*
Y252353D01*
X427943Y252312D01*
X427949Y252273D01*
X427957Y252240D01*
X427965Y252212D01*
X427977Y252190D01*
X427985Y252173D01*
X427990Y252162D01*
X427993Y252159D01*
X428015Y252132D01*
X428037Y252109D01*
X428062Y252090D01*
X428087Y252076D01*
X428107Y252065D01*
X428123Y252057D01*
X428134Y252054D01*
X428140Y252051D01*
X428159Y252046D01*
X428187Y252040D01*
X428218Y252037D01*
X428251Y252035D01*
X428326Y252029D01*
X428406Y252024D01*
X428481D01*
X428514Y252021D01*
X428985D01*
Y252672D01*
D02*
G37*
G36*
X425816Y252705D02*
X425785D01*
X425727Y252702D01*
X425672Y252697D01*
X425619Y252685D01*
X425572Y252672D01*
X425525Y252655D01*
X425484Y252636D01*
X425445Y252616D01*
X425409Y252597D01*
X425378Y252575D01*
X425351Y252555D01*
X425328Y252536D01*
X425309Y252519D01*
X425292Y252505D01*
X425281Y252494D01*
X425276Y252489D01*
X425273Y252486D01*
X425240Y252445D01*
X425209Y252395D01*
X425184Y252345D01*
X425159Y252292D01*
X425143Y252240D01*
X425126Y252184D01*
X425112Y252129D01*
X425104Y252076D01*
X425096Y252026D01*
X425090Y251979D01*
X425085Y251938D01*
X425082Y251902D01*
X425079Y251871D01*
Y251849D01*
Y251835D01*
Y251830D01*
X425082Y251749D01*
X425087Y251672D01*
X425099Y251603D01*
X425110Y251536D01*
X425126Y251478D01*
X425143Y251422D01*
X425159Y251373D01*
X425179Y251328D01*
X425198Y251289D01*
X425215Y251256D01*
X425231Y251226D01*
X425248Y251204D01*
X425259Y251184D01*
X425270Y251173D01*
X425276Y251165D01*
X425279Y251162D01*
X425317Y251123D01*
X425359Y251090D01*
X425400Y251060D01*
X425442Y251035D01*
X425484Y251012D01*
X425528Y250996D01*
X425567Y250979D01*
X425605Y250968D01*
X425644Y250960D01*
X425677Y250952D01*
X425708Y250946D01*
X425733Y250943D01*
X425755D01*
X425772Y250940D01*
X425785D01*
X425841Y250943D01*
X425896Y250952D01*
X425949Y250963D01*
X425996Y250976D01*
X426040Y250993D01*
X426082Y251012D01*
X426121Y251032D01*
X426157Y251054D01*
X426187Y251073D01*
X426215Y251093D01*
X426240Y251112D01*
X426259Y251129D01*
X426276Y251145D01*
X426287Y251156D01*
X426292Y251162D01*
X426295Y251165D01*
X426331Y251209D01*
X426362Y251259D01*
X426386Y251309D01*
X426411Y251361D01*
X426431Y251417D01*
X426445Y251472D01*
X426459Y251525D01*
X426470Y251577D01*
X426478Y251627D01*
X426483Y251675D01*
X426489Y251716D01*
X426492Y251752D01*
Y251782D01*
X426495Y251805D01*
Y251818D01*
Y251824D01*
X426492Y251904D01*
X426486Y251979D01*
X426478Y252048D01*
X426464Y252112D01*
X426450Y252173D01*
X426434Y252226D01*
X426414Y252276D01*
X426398Y252320D01*
X426378Y252359D01*
X426362Y252392D01*
X426345Y252420D01*
X426331Y252442D01*
X426317Y252461D01*
X426309Y252472D01*
X426303Y252481D01*
X426301Y252483D01*
X426262Y252522D01*
X426223Y252555D01*
X426179Y252586D01*
X426137Y252611D01*
X426093Y252633D01*
X426051Y252652D01*
X426010Y252666D01*
X425968Y252677D01*
X425932Y252685D01*
X425896Y252694D01*
X425866Y252699D01*
X425838Y252702D01*
X425816Y252705D01*
D02*
G37*
G36*
X438985Y252672D02*
X438431D01*
X438392Y252669D01*
X438326D01*
X438298Y252666D01*
X438256D01*
X438242Y252663D01*
X438220D01*
X438209Y252661D01*
X438206D01*
X438162Y252649D01*
X438121Y252636D01*
X438087Y252622D01*
X438060Y252602D01*
X438037Y252589D01*
X438024Y252575D01*
X438013Y252564D01*
X438010Y252561D01*
X437988Y252528D01*
X437971Y252494D01*
X437957Y252461D01*
X437949Y252428D01*
X437943Y252397D01*
X437941Y252375D01*
Y252359D01*
Y252356D01*
Y252353D01*
X437943Y252312D01*
X437949Y252273D01*
X437957Y252240D01*
X437965Y252212D01*
X437977Y252190D01*
X437985Y252173D01*
X437990Y252162D01*
X437993Y252159D01*
X438015Y252132D01*
X438037Y252109D01*
X438062Y252090D01*
X438087Y252076D01*
X438107Y252065D01*
X438123Y252057D01*
X438134Y252054D01*
X438140Y252051D01*
X438159Y252046D01*
X438187Y252040D01*
X438217Y252037D01*
X438251Y252035D01*
X438326Y252029D01*
X438406Y252024D01*
X438481D01*
X438514Y252021D01*
X438985D01*
Y252672D01*
D02*
G37*
G36*
X435816Y252705D02*
X435785D01*
X435727Y252702D01*
X435672Y252697D01*
X435619Y252685D01*
X435572Y252672D01*
X435525Y252655D01*
X435484Y252636D01*
X435445Y252616D01*
X435409Y252597D01*
X435378Y252575D01*
X435351Y252555D01*
X435328Y252536D01*
X435309Y252519D01*
X435292Y252505D01*
X435281Y252494D01*
X435276Y252489D01*
X435273Y252486D01*
X435240Y252445D01*
X435209Y252395D01*
X435184Y252345D01*
X435159Y252292D01*
X435143Y252240D01*
X435126Y252184D01*
X435112Y252129D01*
X435104Y252076D01*
X435096Y252026D01*
X435090Y251979D01*
X435085Y251938D01*
X435082Y251902D01*
X435079Y251871D01*
Y251849D01*
Y251835D01*
Y251830D01*
X435082Y251749D01*
X435087Y251672D01*
X435099Y251603D01*
X435110Y251536D01*
X435126Y251478D01*
X435143Y251422D01*
X435159Y251373D01*
X435179Y251328D01*
X435198Y251289D01*
X435215Y251256D01*
X435231Y251226D01*
X435248Y251204D01*
X435259Y251184D01*
X435270Y251173D01*
X435276Y251165D01*
X435279Y251162D01*
X435317Y251123D01*
X435359Y251090D01*
X435400Y251060D01*
X435442Y251035D01*
X435484Y251012D01*
X435528Y250996D01*
X435567Y250979D01*
X435605Y250968D01*
X435644Y250960D01*
X435677Y250952D01*
X435708Y250946D01*
X435733Y250943D01*
X435755D01*
X435772Y250940D01*
X435785D01*
X435841Y250943D01*
X435896Y250952D01*
X435949Y250963D01*
X435996Y250976D01*
X436040Y250993D01*
X436082Y251012D01*
X436121Y251032D01*
X436157Y251054D01*
X436187Y251073D01*
X436215Y251093D01*
X436240Y251112D01*
X436259Y251129D01*
X436276Y251145D01*
X436287Y251156D01*
X436292Y251162D01*
X436295Y251165D01*
X436331Y251209D01*
X436362Y251259D01*
X436386Y251309D01*
X436411Y251361D01*
X436431Y251417D01*
X436445Y251472D01*
X436458Y251525D01*
X436470Y251577D01*
X436478Y251627D01*
X436483Y251675D01*
X436489Y251716D01*
X436492Y251752D01*
Y251782D01*
X436494Y251805D01*
Y251818D01*
Y251824D01*
X436492Y251904D01*
X436486Y251979D01*
X436478Y252048D01*
X436464Y252112D01*
X436450Y252173D01*
X436434Y252226D01*
X436414Y252276D01*
X436398Y252320D01*
X436378Y252359D01*
X436362Y252392D01*
X436345Y252420D01*
X436331Y252442D01*
X436317Y252461D01*
X436309Y252472D01*
X436303Y252481D01*
X436301Y252483D01*
X436262Y252522D01*
X436223Y252555D01*
X436179Y252586D01*
X436137Y252611D01*
X436093Y252633D01*
X436051Y252652D01*
X436010Y252666D01*
X435968Y252677D01*
X435932Y252685D01*
X435896Y252694D01*
X435866Y252699D01*
X435838Y252702D01*
X435816Y252705D01*
D02*
G37*
G36*
X418485Y252625D02*
X417931D01*
X417892Y252622D01*
X417826D01*
X417798Y252619D01*
X417756D01*
X417742Y252616D01*
X417720D01*
X417709Y252613D01*
X417706D01*
X417662Y252602D01*
X417621Y252589D01*
X417587Y252575D01*
X417560Y252555D01*
X417537Y252541D01*
X417524Y252528D01*
X417513Y252517D01*
X417510Y252514D01*
X417488Y252481D01*
X417471Y252447D01*
X417457Y252414D01*
X417449Y252381D01*
X417443Y252350D01*
X417441Y252328D01*
Y252312D01*
Y252309D01*
Y252306D01*
X417443Y252264D01*
X417449Y252226D01*
X417457Y252192D01*
X417465Y252165D01*
X417477Y252143D01*
X417485Y252126D01*
X417490Y252115D01*
X417493Y252112D01*
X417515Y252084D01*
X417537Y252062D01*
X417562Y252043D01*
X417587Y252029D01*
X417607Y252018D01*
X417623Y252010D01*
X417634Y252007D01*
X417640Y252004D01*
X417659Y251999D01*
X417687Y251993D01*
X417718Y251990D01*
X417751Y251988D01*
X417826Y251982D01*
X417906Y251976D01*
X417981D01*
X418014Y251974D01*
X418485D01*
Y252625D01*
D02*
G37*
G36*
X464539Y252672D02*
X464201D01*
X464154Y252669D01*
X464110D01*
X464071Y252666D01*
X464035Y252663D01*
X464004Y252661D01*
X463979D01*
X463954Y252658D01*
X463935Y252655D01*
X463918Y252652D01*
X463907Y252649D01*
X463896D01*
X463891Y252647D01*
X463885D01*
X463833Y252633D01*
X463786Y252613D01*
X463744Y252594D01*
X463711Y252575D01*
X463683Y252555D01*
X463661Y252539D01*
X463650Y252528D01*
X463644Y252525D01*
X463611Y252489D01*
X463581Y252450D01*
X463556Y252409D01*
X463536Y252370D01*
X463520Y252334D01*
X463506Y252303D01*
X463503Y252295D01*
X463500Y252287D01*
X463497Y252281D01*
Y252278D01*
X463489Y252248D01*
X463481Y252215D01*
X463467Y252140D01*
X463459Y252065D01*
X463450Y251993D01*
Y251957D01*
X463448Y251926D01*
Y251899D01*
X463445Y251874D01*
Y251852D01*
Y251838D01*
Y251827D01*
Y251824D01*
Y251771D01*
X463448Y251719D01*
X463450Y251672D01*
X463453Y251625D01*
X463456Y251583D01*
X463461Y251547D01*
X463467Y251511D01*
X463470Y251478D01*
X463475Y251450D01*
X463481Y251425D01*
X463486Y251406D01*
X463489Y251386D01*
X463492Y251373D01*
X463495Y251364D01*
X463497Y251359D01*
Y251356D01*
X463520Y251295D01*
X463542Y251245D01*
X463564Y251204D01*
X463586Y251168D01*
X463603Y251143D01*
X463619Y251123D01*
X463630Y251112D01*
X463633Y251109D01*
X463666Y251084D01*
X463700Y251062D01*
X463736Y251043D01*
X463769Y251026D01*
X463797Y251015D01*
X463819Y251007D01*
X463835Y251004D01*
X463838Y251001D01*
X463841D01*
X463860Y250999D01*
X463882Y250993D01*
X463930Y250988D01*
X463982Y250985D01*
X464035Y250982D01*
X464079Y250979D01*
X464539D01*
Y252672D01*
D02*
G37*
G36*
X443500Y373518D02*
X443464D01*
X443434D01*
X443411D01*
X443398D01*
X443392D01*
X443312D01*
X443234Y373516D01*
X443165Y373513D01*
X443101Y373510D01*
X443043Y373507D01*
X442990Y373502D01*
X442943Y373496D01*
X442902Y373494D01*
X442866Y373488D01*
X442835Y373482D01*
X442810Y373477D01*
X442788Y373474D01*
X442772Y373471D01*
X442761Y373469D01*
X442755Y373466D01*
X442752D01*
X442702Y373449D01*
X442658Y373433D01*
X442625Y373416D01*
X442597Y373396D01*
X442575Y373383D01*
X442561Y373369D01*
X442553Y373360D01*
X442550Y373358D01*
X442531Y373330D01*
X442517Y373305D01*
X442509Y373277D01*
X442503Y373253D01*
X442497Y373230D01*
X442495Y373214D01*
Y373200D01*
X442497Y373167D01*
X442503Y373139D01*
X442511Y373111D01*
X442522Y373089D01*
X442533Y373070D01*
X442542Y373053D01*
X442547Y373045D01*
X442550Y373042D01*
X442575Y373017D01*
X442608Y372995D01*
X442644Y372975D01*
X442683Y372959D01*
X442716Y372945D01*
X442744Y372937D01*
X442755Y372934D01*
X442763Y372931D01*
X442769Y372928D01*
X442772D01*
X442808Y372920D01*
X442846Y372915D01*
X442891Y372909D01*
X442941Y372903D01*
X443043Y372895D01*
X443146Y372890D01*
X443195Y372887D01*
X443240D01*
X443281D01*
X443320Y372884D01*
X443351D01*
X443373D01*
X443387D01*
X443392D01*
X443472D01*
X443547Y372887D01*
X443619Y372890D01*
X443680Y372892D01*
X443738Y372895D01*
X443791Y372901D01*
X443838Y372903D01*
X443880Y372909D01*
X443916Y372915D01*
X443949Y372917D01*
X443974Y372923D01*
X443996Y372926D01*
X444013Y372928D01*
X444024Y372931D01*
X444029Y372934D01*
X444032D01*
X444082Y372951D01*
X444126Y372967D01*
X444159Y372987D01*
X444187Y373003D01*
X444209Y373017D01*
X444223Y373031D01*
X444231Y373039D01*
X444234Y373042D01*
X444254Y373070D01*
X444267Y373095D01*
X444278Y373122D01*
X444284Y373147D01*
X444290Y373169D01*
X444292Y373186D01*
Y373200D01*
X444290Y373233D01*
X444284Y373261D01*
X444273Y373288D01*
X444265Y373313D01*
X444254Y373330D01*
X444242Y373347D01*
X444237Y373355D01*
X444234Y373358D01*
X444209Y373383D01*
X444176Y373405D01*
X444140Y373424D01*
X444101Y373441D01*
X444065Y373455D01*
X444037Y373463D01*
X444026Y373466D01*
X444018Y373469D01*
X444013Y373471D01*
X444010D01*
X443974Y373480D01*
X443935Y373488D01*
X443891Y373494D01*
X443841Y373499D01*
X443741Y373507D01*
X443639Y373513D01*
X443589Y373516D01*
X443544D01*
X443500Y373518D01*
D02*
G37*
G36*
X443240Y366826D02*
X443229D01*
X443223D01*
X443220D01*
Y366095D01*
X443292Y366098D01*
X443353Y366109D01*
X443409Y366125D01*
X443453Y366145D01*
X443489Y366164D01*
X443514Y366181D01*
X443531Y366192D01*
X443536Y366197D01*
X443558Y366217D01*
X443575Y366239D01*
X443605Y366280D01*
X443628Y366325D01*
X443641Y366366D01*
X443650Y366405D01*
X443652Y366433D01*
X443655Y366444D01*
Y366460D01*
X443650Y366513D01*
X443639Y366563D01*
X443619Y366607D01*
X443600Y366643D01*
X443578Y366674D01*
X443558Y366696D01*
X443547Y366710D01*
X443542Y366715D01*
X443497Y366751D01*
X443445Y366776D01*
X443392Y366796D01*
X443339Y366810D01*
X443292Y366818D01*
X443273Y366821D01*
X443256Y366823D01*
X443240Y366826D01*
D02*
G37*
G36*
X443461Y360394D02*
X443439D01*
X443425D01*
X443414D01*
X443411D01*
X443359D01*
X443306Y360391D01*
X443259Y360389D01*
X443212Y360386D01*
X443170Y360383D01*
X443134Y360378D01*
X443098Y360372D01*
X443065Y360369D01*
X443038Y360364D01*
X443013Y360358D01*
X442993Y360353D01*
X442974Y360350D01*
X442960Y360347D01*
X442952Y360344D01*
X442946Y360342D01*
X442943D01*
X442882Y360319D01*
X442833Y360297D01*
X442791Y360275D01*
X442755Y360253D01*
X442730Y360236D01*
X442711Y360220D01*
X442700Y360209D01*
X442697Y360206D01*
X442672Y360173D01*
X442650Y360139D01*
X442630Y360103D01*
X442614Y360070D01*
X442603Y360042D01*
X442594Y360020D01*
X442592Y360004D01*
X442589Y360001D01*
Y359998D01*
X442586Y359979D01*
X442581Y359957D01*
X442575Y359909D01*
X442572Y359857D01*
X442569Y359804D01*
X442567Y359760D01*
Y359300D01*
X444259D01*
Y359638D01*
X444256Y359685D01*
Y359729D01*
X444254Y359768D01*
X444251Y359804D01*
X444248Y359835D01*
Y359860D01*
X444245Y359885D01*
X444242Y359904D01*
X444240Y359921D01*
X444237Y359932D01*
Y359943D01*
X444234Y359948D01*
Y359954D01*
X444220Y360006D01*
X444201Y360053D01*
X444182Y360095D01*
X444162Y360128D01*
X444143Y360156D01*
X444126Y360178D01*
X444115Y360189D01*
X444112Y360195D01*
X444076Y360228D01*
X444037Y360258D01*
X443996Y360283D01*
X443957Y360303D01*
X443921Y360319D01*
X443891Y360333D01*
X443882Y360336D01*
X443874Y360339D01*
X443868Y360342D01*
X443866D01*
X443835Y360350D01*
X443802Y360358D01*
X443727Y360372D01*
X443652Y360380D01*
X443580Y360389D01*
X443544D01*
X443514Y360391D01*
X443486D01*
X443461Y360394D01*
D02*
G37*
G36*
X440147Y348732D02*
X440136D01*
X440130D01*
X440127D01*
Y348001D01*
X440199Y348004D01*
X440260Y348015D01*
X440316Y348032D01*
X440360Y348051D01*
X440396Y348070D01*
X440421Y348087D01*
X440438Y348098D01*
X440443Y348104D01*
X440465Y348123D01*
X440482Y348145D01*
X440512Y348187D01*
X440535Y348231D01*
X440548Y348273D01*
X440557Y348311D01*
X440559Y348339D01*
X440562Y348350D01*
Y348367D01*
X440557Y348419D01*
X440546Y348469D01*
X440526Y348514D01*
X440507Y348550D01*
X440485Y348580D01*
X440465Y348602D01*
X440454Y348616D01*
X440449Y348622D01*
X440404Y348658D01*
X440352Y348683D01*
X440299Y348702D01*
X440246Y348716D01*
X440199Y348724D01*
X440180Y348727D01*
X440163Y348730D01*
X440147Y348732D01*
D02*
G37*
G36*
X442971Y347694D02*
X442957D01*
X442949D01*
X442946D01*
X442902D01*
X442863Y347691D01*
X442824Y347685D01*
X442791Y347680D01*
X442758Y347672D01*
X442730Y347666D01*
X442705Y347658D01*
X442683Y347649D01*
X442664Y347638D01*
X442647Y347630D01*
X442619Y347616D01*
X442605Y347605D01*
X442600Y347602D01*
X442564Y347566D01*
X442539Y347528D01*
X442520Y347492D01*
X442509Y347456D01*
X442500Y347422D01*
X442497Y347397D01*
X442495Y347381D01*
Y347375D01*
X442497Y347350D01*
X442500Y347323D01*
X442514Y347275D01*
X442536Y347234D01*
X442558Y347195D01*
X442581Y347165D01*
X442603Y347143D01*
X442617Y347129D01*
X442622Y347123D01*
X442675Y347087D01*
X442736Y347059D01*
X442797Y347043D01*
X442855Y347029D01*
X442907Y347021D01*
X442932Y347018D01*
X442952D01*
X442968Y347015D01*
X442979D01*
X442988D01*
X442990D01*
X443065Y347021D01*
X443132Y347032D01*
X443190Y347045D01*
X443234Y347065D01*
X443270Y347082D01*
X443298Y347098D01*
X443312Y347109D01*
X443317Y347112D01*
X443353Y347151D01*
X443381Y347190D01*
X443400Y347231D01*
X443414Y347267D01*
X443423Y347300D01*
X443425Y347328D01*
X443428Y347345D01*
Y347350D01*
X443423Y347403D01*
X443409Y347450D01*
X443392Y347492D01*
X443370Y347528D01*
X443348Y347555D01*
X443331Y347577D01*
X443317Y347588D01*
X443312Y347594D01*
X443290Y347611D01*
X443262Y347627D01*
X443207Y347652D01*
X443146Y347669D01*
X443085Y347683D01*
X443032Y347688D01*
X443007Y347691D01*
X442988D01*
X442971Y347694D01*
D02*
G37*
G36*
X443816Y345600D02*
X443805D01*
X443796D01*
X443794D01*
X443719Y345597D01*
X443652Y345586D01*
X443597Y345569D01*
X443553Y345552D01*
X443517Y345533D01*
X443489Y345519D01*
X443475Y345508D01*
X443470Y345503D01*
X443434Y345464D01*
X443406Y345425D01*
X443387Y345384D01*
X443373Y345347D01*
X443364Y345314D01*
X443362Y345289D01*
X443359Y345270D01*
Y345264D01*
X443364Y345212D01*
X443375Y345165D01*
X443395Y345123D01*
X443417Y345087D01*
X443436Y345059D01*
X443456Y345037D01*
X443467Y345026D01*
X443472Y345021D01*
X443495Y345004D01*
X443522Y344987D01*
X443578Y344965D01*
X443639Y344949D01*
X443697Y344935D01*
X443752Y344929D01*
X443774Y344927D01*
X443794D01*
X443813Y344924D01*
X443824D01*
X443832D01*
X443835D01*
X443880D01*
X443918Y344927D01*
X443957Y344932D01*
X443990Y344938D01*
X444024Y344943D01*
X444051Y344951D01*
X444076Y344960D01*
X444101Y344968D01*
X444121Y344976D01*
X444137Y344985D01*
X444165Y344999D01*
X444179Y345010D01*
X444184Y345012D01*
X444220Y345048D01*
X444248Y345084D01*
X444267Y345123D01*
X444278Y345159D01*
X444287Y345190D01*
X444290Y345215D01*
X444292Y345231D01*
Y345264D01*
X444287Y345289D01*
X444273Y345337D01*
X444251Y345381D01*
X444229Y345417D01*
X444204Y345447D01*
X444182Y345469D01*
X444168Y345483D01*
X444165Y345489D01*
X444162D01*
X444109Y345525D01*
X444049Y345552D01*
X443988Y345572D01*
X443929Y345586D01*
X443877Y345594D01*
X443852Y345597D01*
X443832D01*
X443816Y345600D01*
D02*
G37*
G36*
X440147Y344760D02*
X440136D01*
X440130D01*
X440127D01*
Y344029D01*
X440199Y344032D01*
X440260Y344043D01*
X440316Y344059D01*
X440360Y344079D01*
X440396Y344098D01*
X440421Y344115D01*
X440438Y344126D01*
X440443Y344131D01*
X440465Y344151D01*
X440482Y344173D01*
X440512Y344215D01*
X440535Y344259D01*
X440548Y344301D01*
X440557Y344339D01*
X440559Y344367D01*
X440562Y344378D01*
Y344395D01*
X440557Y344447D01*
X440546Y344497D01*
X440526Y344542D01*
X440507Y344578D01*
X440485Y344608D01*
X440465Y344630D01*
X440454Y344644D01*
X440449Y344650D01*
X440404Y344686D01*
X440352Y344710D01*
X440299Y344730D01*
X440246Y344744D01*
X440199Y344752D01*
X440180Y344755D01*
X440163Y344758D01*
X440147Y344760D01*
D02*
G37*
G36*
X443500Y342647D02*
X443464D01*
X443434D01*
X443411D01*
X443398D01*
X443392D01*
X443312D01*
X443234Y342644D01*
X443165Y342641D01*
X443101Y342638D01*
X443043Y342636D01*
X442990Y342630D01*
X442943Y342625D01*
X442902Y342622D01*
X442866Y342616D01*
X442835Y342611D01*
X442810Y342605D01*
X442788Y342602D01*
X442772Y342600D01*
X442761Y342597D01*
X442755Y342594D01*
X442752D01*
X442702Y342578D01*
X442658Y342561D01*
X442625Y342544D01*
X442597Y342525D01*
X442575Y342511D01*
X442561Y342497D01*
X442553Y342489D01*
X442550Y342486D01*
X442531Y342458D01*
X442517Y342434D01*
X442509Y342406D01*
X442503Y342381D01*
X442497Y342359D01*
X442495Y342342D01*
Y342328D01*
X442497Y342295D01*
X442503Y342267D01*
X442511Y342240D01*
X442522Y342217D01*
X442533Y342198D01*
X442542Y342181D01*
X442547Y342173D01*
X442550Y342170D01*
X442575Y342145D01*
X442608Y342123D01*
X442644Y342104D01*
X442683Y342087D01*
X442716Y342073D01*
X442744Y342065D01*
X442755Y342062D01*
X442763Y342059D01*
X442769Y342057D01*
X442772D01*
X442808Y342049D01*
X442846Y342043D01*
X442891Y342037D01*
X442941Y342032D01*
X443043Y342023D01*
X443146Y342018D01*
X443195Y342015D01*
X443240D01*
X443281D01*
X443320Y342012D01*
X443351D01*
X443373D01*
X443387D01*
X443392D01*
X443472D01*
X443547Y342015D01*
X443619Y342018D01*
X443680Y342021D01*
X443738Y342023D01*
X443791Y342029D01*
X443838Y342032D01*
X443880Y342037D01*
X443916Y342043D01*
X443949Y342046D01*
X443974Y342051D01*
X443996Y342054D01*
X444013Y342057D01*
X444024Y342059D01*
X444029Y342062D01*
X444032D01*
X444082Y342079D01*
X444126Y342096D01*
X444159Y342115D01*
X444187Y342132D01*
X444209Y342145D01*
X444223Y342159D01*
X444231Y342168D01*
X444234Y342170D01*
X444254Y342198D01*
X444267Y342223D01*
X444278Y342251D01*
X444284Y342276D01*
X444290Y342298D01*
X444292Y342314D01*
Y342328D01*
X444290Y342361D01*
X444284Y342389D01*
X444273Y342417D01*
X444265Y342442D01*
X444254Y342458D01*
X444242Y342475D01*
X444237Y342483D01*
X444234Y342486D01*
X444209Y342511D01*
X444176Y342533D01*
X444140Y342553D01*
X444101Y342569D01*
X444065Y342583D01*
X444037Y342591D01*
X444026Y342594D01*
X444018Y342597D01*
X444013Y342600D01*
X444010D01*
X443974Y342608D01*
X443935Y342616D01*
X443891Y342622D01*
X443841Y342627D01*
X443741Y342636D01*
X443639Y342641D01*
X443589Y342644D01*
X443544D01*
X443500Y342647D01*
D02*
G37*
G36*
X396229Y252705D02*
X396198D01*
X396140Y252702D01*
X396085Y252697D01*
X396032Y252685D01*
X395985Y252672D01*
X395938Y252655D01*
X395896Y252636D01*
X395858Y252616D01*
X395821Y252597D01*
X395791Y252575D01*
X395763Y252555D01*
X395741Y252536D01*
X395722Y252519D01*
X395705Y252505D01*
X395694Y252494D01*
X395689Y252489D01*
X395686Y252486D01*
X395653Y252445D01*
X395622Y252395D01*
X395597Y252345D01*
X395572Y252292D01*
X395555Y252240D01*
X395539Y252184D01*
X395525Y252129D01*
X395517Y252076D01*
X395508Y252026D01*
X395503Y251979D01*
X395497Y251938D01*
X395495Y251902D01*
X395492Y251871D01*
Y251849D01*
Y251835D01*
Y251830D01*
X395495Y251749D01*
X395500Y251672D01*
X395511Y251603D01*
X395522Y251536D01*
X395539Y251478D01*
X395555Y251422D01*
X395572Y251373D01*
X395591Y251328D01*
X395611Y251289D01*
X395627Y251256D01*
X395644Y251226D01*
X395661Y251204D01*
X395672Y251184D01*
X395683Y251173D01*
X395689Y251165D01*
X395691Y251162D01*
X395730Y251123D01*
X395772Y251090D01*
X395813Y251060D01*
X395855Y251035D01*
X395896Y251012D01*
X395940Y250996D01*
X395979Y250979D01*
X396018Y250968D01*
X396057Y250960D01*
X396090Y250952D01*
X396121Y250946D01*
X396146Y250943D01*
X396168D01*
X396184Y250940D01*
X396198D01*
X396254Y250943D01*
X396309Y250952D01*
X396362Y250963D01*
X396409Y250976D01*
X396453Y250993D01*
X396495Y251012D01*
X396533Y251032D01*
X396569Y251054D01*
X396600Y251073D01*
X396627Y251093D01*
X396652Y251112D01*
X396672Y251129D01*
X396689Y251145D01*
X396700Y251156D01*
X396705Y251162D01*
X396708Y251165D01*
X396744Y251209D01*
X396774Y251259D01*
X396799Y251309D01*
X396824Y251361D01*
X396844Y251417D01*
X396857Y251472D01*
X396871Y251525D01*
X396882Y251577D01*
X396891Y251627D01*
X396896Y251675D01*
X396902Y251716D01*
X396904Y251752D01*
Y251782D01*
X396907Y251805D01*
Y251818D01*
Y251824D01*
X396904Y251904D01*
X396899Y251979D01*
X396891Y252048D01*
X396877Y252112D01*
X396863Y252173D01*
X396846Y252226D01*
X396827Y252276D01*
X396810Y252320D01*
X396791Y252359D01*
X396774Y252392D01*
X396758Y252420D01*
X396744Y252442D01*
X396730Y252461D01*
X396722Y252472D01*
X396716Y252481D01*
X396713Y252483D01*
X396675Y252522D01*
X396636Y252555D01*
X396591Y252586D01*
X396550Y252611D01*
X396506Y252633D01*
X396464Y252652D01*
X396423Y252666D01*
X396381Y252677D01*
X396345Y252685D01*
X396309Y252694D01*
X396279Y252699D01*
X396251Y252702D01*
X396229Y252705D01*
D02*
G37*
G36*
X405729D02*
X405698D01*
X405640Y252702D01*
X405585Y252697D01*
X405532Y252685D01*
X405485Y252672D01*
X405438Y252655D01*
X405396Y252636D01*
X405358Y252616D01*
X405321Y252597D01*
X405291Y252575D01*
X405263Y252555D01*
X405241Y252536D01*
X405222Y252519D01*
X405205Y252505D01*
X405194Y252494D01*
X405189Y252489D01*
X405186Y252486D01*
X405153Y252445D01*
X405122Y252395D01*
X405097Y252345D01*
X405072Y252292D01*
X405056Y252240D01*
X405039Y252184D01*
X405025Y252129D01*
X405017Y252076D01*
X405008Y252026D01*
X405003Y251979D01*
X404997Y251938D01*
X404995Y251902D01*
X404992Y251871D01*
Y251849D01*
Y251835D01*
Y251830D01*
X404995Y251749D01*
X405000Y251672D01*
X405011Y251603D01*
X405022Y251536D01*
X405039Y251478D01*
X405056Y251422D01*
X405072Y251373D01*
X405091Y251328D01*
X405111Y251289D01*
X405127Y251256D01*
X405144Y251226D01*
X405161Y251204D01*
X405172Y251184D01*
X405183Y251173D01*
X405189Y251165D01*
X405191Y251162D01*
X405230Y251123D01*
X405272Y251090D01*
X405313Y251060D01*
X405355Y251035D01*
X405396Y251012D01*
X405441Y250996D01*
X405479Y250979D01*
X405518Y250968D01*
X405557Y250960D01*
X405590Y250952D01*
X405621Y250946D01*
X405646Y250943D01*
X405668D01*
X405684Y250940D01*
X405698D01*
X405754Y250943D01*
X405809Y250952D01*
X405862Y250963D01*
X405909Y250976D01*
X405953Y250993D01*
X405995Y251012D01*
X406033Y251032D01*
X406069Y251054D01*
X406100Y251073D01*
X406128Y251093D01*
X406152Y251112D01*
X406172Y251129D01*
X406188Y251145D01*
X406200Y251156D01*
X406205Y251162D01*
X406208Y251165D01*
X406244Y251209D01*
X406274Y251259D01*
X406299Y251309D01*
X406324Y251361D01*
X406344Y251417D01*
X406357Y251472D01*
X406371Y251525D01*
X406382Y251577D01*
X406391Y251627D01*
X406396Y251675D01*
X406402Y251716D01*
X406404Y251752D01*
Y251782D01*
X406407Y251805D01*
Y251818D01*
Y251824D01*
X406404Y251904D01*
X406399Y251979D01*
X406391Y252048D01*
X406377Y252112D01*
X406363Y252173D01*
X406346Y252226D01*
X406327Y252276D01*
X406310Y252320D01*
X406291Y252359D01*
X406274Y252392D01*
X406258Y252420D01*
X406244Y252442D01*
X406230Y252461D01*
X406222Y252472D01*
X406216Y252481D01*
X406213Y252483D01*
X406175Y252522D01*
X406136Y252555D01*
X406091Y252586D01*
X406050Y252611D01*
X406006Y252633D01*
X405964Y252652D01*
X405923Y252666D01*
X405881Y252677D01*
X405845Y252685D01*
X405809Y252694D01*
X405779Y252699D01*
X405751Y252702D01*
X405729Y252705D01*
D02*
G37*
G36*
X437398Y335744D02*
X436107D01*
Y334627D01*
X437398D01*
Y335744D01*
D02*
G37*
G36*
X435656D02*
X434289D01*
Y334627D01*
X435656D01*
Y335744D01*
D02*
G37*
G36*
X437398Y334419D02*
X436107D01*
Y333260D01*
X437398D01*
Y334419D01*
D02*
G37*
G36*
X435656D02*
X434289D01*
Y333260D01*
X435656D01*
Y334419D01*
D02*
G37*
G36*
X429119Y324962D02*
X428244D01*
Y323456D01*
X429119D01*
Y324962D01*
D02*
G37*
G36*
X474039Y252672D02*
X473701D01*
X473654Y252669D01*
X473610D01*
X473571Y252666D01*
X473535Y252663D01*
X473504Y252661D01*
X473479D01*
X473455Y252658D01*
X473435Y252655D01*
X473419Y252652D01*
X473407Y252649D01*
X473396D01*
X473391Y252647D01*
X473385D01*
X473333Y252633D01*
X473285Y252613D01*
X473244Y252594D01*
X473211Y252575D01*
X473183Y252555D01*
X473161Y252539D01*
X473150Y252528D01*
X473144Y252525D01*
X473111Y252489D01*
X473080Y252450D01*
X473056Y252409D01*
X473036Y252370D01*
X473020Y252334D01*
X473006Y252303D01*
X473003Y252295D01*
X473000Y252287D01*
X472997Y252281D01*
Y252278D01*
X472989Y252248D01*
X472981Y252215D01*
X472967Y252140D01*
X472959Y252065D01*
X472950Y251993D01*
Y251957D01*
X472948Y251926D01*
Y251899D01*
X472945Y251874D01*
Y251852D01*
Y251838D01*
Y251827D01*
Y251824D01*
Y251771D01*
X472948Y251719D01*
X472950Y251672D01*
X472953Y251625D01*
X472956Y251583D01*
X472961Y251547D01*
X472967Y251511D01*
X472970Y251478D01*
X472975Y251450D01*
X472981Y251425D01*
X472986Y251406D01*
X472989Y251386D01*
X472992Y251373D01*
X472995Y251364D01*
X472997Y251359D01*
Y251356D01*
X473020Y251295D01*
X473042Y251245D01*
X473064Y251204D01*
X473086Y251168D01*
X473103Y251143D01*
X473119Y251123D01*
X473130Y251112D01*
X473133Y251109D01*
X473166Y251084D01*
X473200Y251062D01*
X473236Y251043D01*
X473269Y251026D01*
X473297Y251015D01*
X473319Y251007D01*
X473335Y251004D01*
X473338Y251001D01*
X473341D01*
X473360Y250999D01*
X473383Y250993D01*
X473430Y250988D01*
X473482Y250985D01*
X473535Y250982D01*
X473579Y250979D01*
X474039D01*
Y252672D01*
D02*
G37*
%LPD*%
D10*
X406319Y303472D02*
G03*
X405099Y302253I0J-1220D01*
G01*
X410688D02*
G03*
X409469Y303472I-1220J0D01*
G01*
X405122Y293686D02*
G03*
X406342Y292466I1220J0D01*
G01*
X409491D02*
G03*
X410711Y293686I0J1220D01*
G01*
X402492Y292528D02*
G03*
X403711Y293747I0J1220D01*
G01*
X398122D02*
G03*
X399342Y292528I1220J0D01*
G01*
X403688Y302314D02*
G03*
X402468Y303534I-1220J0D01*
G01*
X399319D02*
G03*
X398099Y302314I0J-1220D01*
G01*
X464576Y291528D02*
G03*
X465795Y292747I0J1220D01*
G01*
X460206D02*
G03*
X461426Y291528I1220J0D01*
G01*
X465772Y301314D02*
G03*
X464553Y302534I-1220J0D01*
G01*
X461403D02*
G03*
X460183Y301314I0J-1220D01*
G01*
X468924Y302728D02*
G03*
X467705Y301508I0J-1220D01*
G01*
X473294D02*
G03*
X472074Y302728I-1220J0D01*
G01*
X467728Y292942D02*
G03*
X468947Y291722I1220J0D01*
G01*
X472097D02*
G03*
X473317Y292942I0J1220D01*
G01*
X400527Y362424D02*
G03*
X401747Y361205I1220J0D01*
G01*
Y366794D02*
G03*
X400527Y365574I0J-1220D01*
G01*
X410314Y361227D02*
G03*
X411533Y362447I0J1220D01*
G01*
Y365597D02*
G03*
X410314Y366817I-1220J0D01*
G01*
X412599Y267220D02*
G03*
X413819Y266000I1220J0D01*
G01*
Y271589D02*
G03*
X412599Y270369I0J-1220D01*
G01*
X422385Y266023D02*
G03*
X423605Y267243I0J1220D01*
G01*
Y270392D02*
G03*
X422385Y271612I-1220J0D01*
G01*
X384099Y267220D02*
G03*
X385319Y266000I1220J0D01*
G01*
Y271589D02*
G03*
X384099Y270369I0J-1220D01*
G01*
X393885Y266023D02*
G03*
X395105Y267243I0J1220D01*
G01*
Y270392D02*
G03*
X393885Y271612I-1220J0D01*
G01*
X435403Y277033D02*
G03*
X434183Y275814I0J-1220D01*
G01*
X439773D02*
G03*
X438553Y277033I-1220J0D01*
G01*
X434206Y267247D02*
G03*
X435426Y266027I1220J0D01*
G01*
X438576D02*
G03*
X439795Y267247I0J1220D01*
G01*
X427903Y277033D02*
G03*
X426683Y275814I0J-1220D01*
G01*
X432272D02*
G03*
X431053Y277033I-1220J0D01*
G01*
X426706Y267247D02*
G03*
X427926Y266027I1220J0D01*
G01*
X431076D02*
G03*
X432295Y267247I0J1220D01*
G01*
X405903Y277033D02*
G03*
X404683Y275814I0J-1220D01*
G01*
X410273D02*
G03*
X409053Y277033I-1220J0D01*
G01*
X404706Y267247D02*
G03*
X405926Y266027I1220J0D01*
G01*
X409076D02*
G03*
X410295Y267247I0J1220D01*
G01*
X398403Y277033D02*
G03*
X397183Y275814I0J-1220D01*
G01*
X402773D02*
G03*
X401553Y277033I-1220J0D01*
G01*
X397206Y267247D02*
G03*
X398426Y266027I1220J0D01*
G01*
X401576D02*
G03*
X402795Y267247I0J1220D01*
G01*
X405122Y293687D02*
Y296836D01*
X406342Y292467D02*
X409491D01*
X410711Y293687D02*
Y296836D01*
X405099Y299103D02*
Y302253D01*
X410688Y299103D02*
Y302253D01*
X406319Y303472D02*
X409469D01*
X403688Y299164D02*
Y302313D01*
X399319Y303533D02*
X402468D01*
X398099Y299164D02*
Y302313D01*
X403711Y293747D02*
Y296897D01*
X398122Y293747D02*
Y296897D01*
X399342Y292528D02*
X402492D01*
X465772Y298164D02*
Y301313D01*
X461403Y302533D02*
X464553D01*
X460183Y298164D02*
Y301313D01*
X465795Y292747D02*
Y295897D01*
X460206Y292747D02*
Y295897D01*
X461426Y291528D02*
X464576D01*
X467728Y292942D02*
Y296092D01*
X468947Y291722D02*
X472097D01*
X473317Y292942D02*
Y296092D01*
X467705Y298359D02*
Y301508D01*
X473294Y298359D02*
Y301508D01*
X468924Y302728D02*
X472074D01*
X407164Y361228D02*
X410314D01*
X411533Y362447D02*
Y365597D01*
X407164Y366817D02*
X410314D01*
X401747Y361205D02*
X404897D01*
X401747Y366794D02*
X404897D01*
X400527Y362424D02*
Y365574D01*
X423605Y267243D02*
Y270392D01*
X419236Y266023D02*
X422386D01*
X419236Y271612D02*
X422386D01*
X413819Y266000D02*
X416969D01*
X412599Y267220D02*
Y270369D01*
X413819Y271589D02*
X416969D01*
X395105Y267243D02*
Y270392D01*
X390736Y266023D02*
X393886D01*
X390736Y271612D02*
X393886D01*
X385319Y266000D02*
X388469D01*
X384099Y267220D02*
Y270369D01*
X385319Y271589D02*
X388469D01*
X435426Y266027D02*
X438576D01*
X434206Y267247D02*
Y270397D01*
X439795Y267247D02*
Y270397D01*
X434183Y272664D02*
Y275814D01*
X435403Y277033D02*
X438553D01*
X439772Y272664D02*
Y275814D01*
X427926Y266027D02*
X431076D01*
X426706Y267247D02*
Y270397D01*
X432295Y267247D02*
Y270397D01*
X426683Y272664D02*
Y275814D01*
X427903Y277033D02*
X431053D01*
X432272Y272664D02*
Y275814D01*
X405926Y266027D02*
X409076D01*
X404706Y267247D02*
Y270397D01*
X410295Y267247D02*
Y270397D01*
X404683Y272664D02*
Y275814D01*
X405903Y277033D02*
X409053D01*
X410272Y272664D02*
Y275814D01*
X398426Y266027D02*
X401576D01*
X397206Y267247D02*
Y270397D01*
X402795Y267247D02*
Y270397D01*
X397183Y272664D02*
Y275814D01*
X398403Y277033D02*
X401553D01*
X402772Y272664D02*
Y275814D01*
X479500Y351498D02*
X480500D01*
X481000Y350998D01*
Y348999D01*
X480500Y348499D01*
X479500D01*
X479001Y348999D01*
Y350998D01*
X479500Y351498D01*
X478001Y348499D02*
Y351498D01*
X476502D01*
X476002Y350998D01*
Y349998D01*
X476502Y349499D01*
X478001D01*
X473003Y351498D02*
X475002D01*
Y348499D01*
X473003D01*
X475002Y349998D02*
X474002D01*
X472003Y348499D02*
Y351498D01*
X470004Y348499D01*
Y351498D01*
X469004Y350498D02*
X468504D01*
Y349998D01*
X469004D01*
Y350498D01*
Y348999D02*
X468504D01*
Y348499D01*
X469004D01*
Y348999D01*
X463506Y348499D02*
Y351498D01*
X462506Y350498D01*
X461506Y351498D01*
Y348499D01*
X458507Y350998D02*
X459007Y351498D01*
X460007D01*
X460507Y350998D01*
Y348999D01*
X460007Y348499D01*
X459007D01*
X458507Y348999D01*
X457508Y351498D02*
Y348999D01*
X457008Y348499D01*
X456008D01*
X455508Y348999D01*
Y351498D01*
X479001Y344999D02*
X479500Y345499D01*
X480500D01*
X481000Y344999D01*
Y343000D01*
X480500Y342500D01*
X479500D01*
X479001Y343000D01*
X478001Y345499D02*
Y342500D01*
X476002D01*
X473502Y345499D02*
X474502D01*
X475002Y344999D01*
Y343000D01*
X474502Y342500D01*
X473502D01*
X473003Y343000D01*
Y344999D01*
X473502Y345499D01*
X470004Y344999D02*
X470503Y345499D01*
X471503D01*
X472003Y344999D01*
Y344499D01*
X471503Y344000D01*
X470503D01*
X470004Y343500D01*
Y343000D01*
X470503Y342500D01*
X471503D01*
X472003Y343000D01*
X467004Y345499D02*
X469004D01*
Y342500D01*
X467004D01*
X469004Y344000D02*
X468004D01*
X466005Y344499D02*
X465505D01*
Y344000D01*
X466005D01*
Y344499D01*
Y343000D02*
X465505D01*
Y342500D01*
X466005D01*
Y343000D01*
X460507Y345499D02*
Y342500D01*
X458507D01*
X457508Y345499D02*
X456508D01*
X457008D01*
Y342500D01*
X457508D01*
X456508D01*
X453009Y344999D02*
X453509Y345499D01*
X454509D01*
X455008Y344999D01*
Y343000D01*
X454509Y342500D01*
X453509D01*
X453009Y343000D01*
Y344000D01*
X454009D01*
X452009Y345499D02*
Y342500D01*
Y344000D01*
X450010D01*
Y345499D01*
Y342500D01*
X449010Y345499D02*
X447011D01*
X448011D01*
Y342500D01*
X447501Y376501D02*
X447001Y377000D01*
Y378000D01*
X447501Y378500D01*
X449500D01*
X450000Y378000D01*
Y377000D01*
X449500Y376501D01*
X447501Y373502D02*
X447001Y374002D01*
Y375001D01*
X447501Y375501D01*
X448001D01*
X448500Y375001D01*
Y374002D01*
X449000Y373502D01*
X449500D01*
X450000Y374002D01*
Y375001D01*
X449500Y375501D01*
X480000Y312499D02*
Y314498D01*
X479000Y315498D01*
X478001Y314498D01*
Y312499D01*
Y313998D01*
X480000D01*
X477001Y314498D02*
Y312999D01*
X476501Y312499D01*
X475002D01*
Y314498D01*
X472003Y315498D02*
Y312499D01*
X473502D01*
X474002Y312999D01*
Y313998D01*
X473502Y314498D01*
X472003D01*
X471003Y312499D02*
X470003D01*
X470503D01*
Y314498D01*
X471003D01*
X468004Y312499D02*
X467004D01*
X466504Y312999D01*
Y313998D01*
X467004Y314498D01*
X468004D01*
X468504Y313998D01*
Y312999D01*
X468004Y312499D01*
X465505Y311999D02*
X463505D01*
X462506Y315498D02*
Y312499D01*
X461006D01*
X460506Y312999D01*
Y314998D01*
X461006Y315498D01*
X462506D01*
X459507D02*
X458507D01*
X459007D01*
Y312499D01*
X459507D01*
X458507D01*
X455008Y315498D02*
X457007D01*
Y313998D01*
X456008D01*
X457007D01*
Y312499D01*
X452009Y315498D02*
X454008D01*
Y313998D01*
X453009D01*
X454008D01*
Y312499D01*
X451009Y311999D02*
X449010D01*
X446011Y314998D02*
X446511Y315498D01*
X447510D01*
X448010Y314998D01*
Y312999D01*
X447510Y312499D01*
X446511D01*
X446011Y312999D01*
X444512Y312499D02*
X443512D01*
X443012Y312999D01*
Y313998D01*
X443512Y314498D01*
X444512D01*
X445011Y313998D01*
Y312999D01*
X444512Y312499D01*
X442012D02*
Y314498D01*
X440513D01*
X440013Y313998D01*
Y312499D01*
X439013Y314498D02*
X438014Y312499D01*
X437014Y314498D01*
X434515Y312499D02*
X435514D01*
X436014Y312999D01*
Y313998D01*
X435514Y314498D01*
X434515D01*
X434015Y313998D01*
Y313498D01*
X436014D01*
X433015Y314498D02*
Y312499D01*
Y313498D01*
X432515Y313998D01*
X432016Y314498D01*
X431516D01*
X429516Y314998D02*
Y314498D01*
X430016D01*
X429016D01*
X429516D01*
Y312999D01*
X429016Y312499D01*
X427017D02*
X426018D01*
X425518Y312999D01*
Y313998D01*
X426018Y314498D01*
X427017D01*
X427517Y313998D01*
Y312999D01*
X427017Y312499D01*
X424518Y314498D02*
Y312499D01*
Y313498D01*
X424018Y313998D01*
X423518Y314498D01*
X423018D01*
X418520Y315498D02*
Y313498D01*
X417520Y312499D01*
X416521Y313498D01*
Y315498D01*
X415521Y314998D02*
X415021Y315498D01*
X414021D01*
X413521Y314998D01*
Y312999D01*
X414021Y312499D01*
X415021D01*
X415521Y312999D01*
Y314998D01*
X412522Y312499D02*
Y312999D01*
X412022D01*
Y312499D01*
X412522D01*
X410023D02*
X409023D01*
X409523D01*
Y315498D01*
X410023Y314998D01*
X480000Y308999D02*
Y306000D01*
X478001D01*
X475501D02*
X476501D01*
X477001Y306500D01*
Y307500D01*
X476501Y307999D01*
X475501D01*
X475002Y307500D01*
Y307000D01*
X477001D01*
X474002Y307999D02*
X473002Y306000D01*
X472003Y307999D01*
X469503Y306000D02*
X470503D01*
X471003Y306500D01*
Y307500D01*
X470503Y307999D01*
X469503D01*
X469004Y307500D01*
Y307000D01*
X471003D01*
X468004Y306000D02*
Y307999D01*
X466504D01*
X466005Y307500D01*
Y306000D01*
X464505Y308499D02*
Y307999D01*
X465005D01*
X464005D01*
X464505D01*
Y306500D01*
X464005Y306000D01*
X457507D02*
X459507D01*
X457507Y307999D01*
Y308499D01*
X458007Y308999D01*
X459007D01*
X459507Y308499D01*
X456508D02*
X456008Y308999D01*
X455008D01*
X454508Y308499D01*
Y306500D01*
X455008Y306000D01*
X456008D01*
X456508Y306500D01*
Y308499D01*
X451509Y306000D02*
X453509D01*
X451509Y307999D01*
Y308499D01*
X452009Y308999D01*
X453009D01*
X453509Y308499D01*
X448510Y306000D02*
X450510D01*
X448510Y307999D01*
Y308499D01*
X449010Y308999D01*
X450010D01*
X450510Y308499D01*
X447510Y307500D02*
X445511D01*
X444512Y308499D02*
X444012Y308999D01*
X443012D01*
X442512Y308499D01*
Y306500D01*
X443012Y306000D01*
X444012D01*
X444512Y306500D01*
Y308499D01*
X441512Y308999D02*
X439513D01*
Y308499D01*
X441512Y306500D01*
Y306000D01*
X438513Y307500D02*
X436514D01*
X435514Y306000D02*
X434515D01*
X435014D01*
Y308999D01*
X435514Y308499D01*
X433015D02*
X432515Y308999D01*
X431516D01*
X431016Y308499D01*
Y307999D01*
X431516Y307500D01*
X431016Y307000D01*
Y306500D01*
X431516Y306000D01*
X432515D01*
X433015Y306500D01*
Y307000D01*
X432515Y307500D01*
X433015Y307999D01*
Y308499D01*
X432515Y307500D02*
X431516D01*
X430000Y378500D02*
X427001D01*
Y377000D01*
X427501Y376501D01*
X428501D01*
X429000Y377000D01*
Y378500D01*
Y377500D02*
X430000Y376501D01*
X427501Y373502D02*
X427001Y374002D01*
Y375001D01*
X427501Y375501D01*
X428001D01*
X428501Y375001D01*
Y374002D01*
X429000Y373502D01*
X429500D01*
X430000Y374002D01*
Y375001D01*
X429500Y375501D01*
X467001Y378500D02*
X469000D01*
X470000Y377500D01*
X469000Y376501D01*
X467001D01*
X467501Y373502D02*
X467001Y374002D01*
Y375001D01*
X467501Y375501D01*
X469500D01*
X470000Y375001D01*
Y374002D01*
X469500Y373502D01*
X467501Y370503D02*
X467001Y371002D01*
Y372002D01*
X467501Y372502D01*
X469500D01*
X470000Y372002D01*
Y371002D01*
X469500Y370503D01*
X406501Y376501D02*
X406001Y377000D01*
Y378000D01*
X406501Y378500D01*
X407001D01*
X407501Y378000D01*
Y377000D01*
X408000Y376501D01*
X408500D01*
X409000Y377000D01*
Y378000D01*
X408500Y378500D01*
X406001Y375501D02*
X409000D01*
Y374002D01*
X408500Y373502D01*
X406501D01*
X406001Y374002D01*
Y375501D01*
X409000Y372502D02*
X407001D01*
X406001Y371502D01*
X407001Y370503D01*
X409000D01*
X407501D01*
Y372502D01*
X417001Y376501D02*
X416501Y377000D01*
Y378000D01*
X417001Y378500D01*
X417501D01*
X418001Y378000D01*
Y377000D01*
X418500Y376501D01*
X419000D01*
X419500Y377000D01*
Y378000D01*
X419000Y378500D01*
X417001Y373502D02*
X416501Y374002D01*
Y375001D01*
X417001Y375501D01*
X419000D01*
X419500Y375001D01*
Y374002D01*
X419000Y373502D01*
X416501Y372502D02*
X419500D01*
Y370503D01*
X478001Y376501D02*
X477501Y377000D01*
Y378000D01*
X478001Y378500D01*
X480000D01*
X480500Y378000D01*
Y377000D01*
X480000Y376501D01*
X479001D01*
Y377500D01*
X480500Y375501D02*
X477501D01*
X480500Y373502D01*
X477501D01*
Y372502D02*
X480500D01*
Y371002D01*
X480000Y370503D01*
X478001D01*
X477501Y371002D01*
Y372502D01*
X440000Y378500D02*
X437001D01*
Y377000D01*
X437501Y376501D01*
X438500D01*
X439000Y377000D01*
Y378500D01*
Y377500D02*
X440000Y376501D01*
X437001Y373502D02*
Y375501D01*
X440000D01*
Y373502D01*
X438500Y375501D02*
Y374501D01*
X437501Y370503D02*
X437001Y371002D01*
Y372002D01*
X437501Y372502D01*
X438001D01*
X438500Y372002D01*
Y371002D01*
X439000Y370503D01*
X439500D01*
X440000Y371002D01*
Y372002D01*
X439500Y372502D01*
X457001Y378500D02*
X460000D01*
Y377000D01*
X459500Y376501D01*
X459000D01*
X458500Y377000D01*
Y378500D01*
Y377000D01*
X458001Y376501D01*
X457501D01*
X457001Y377000D01*
Y378500D01*
Y375501D02*
X460000D01*
Y373502D01*
X457001Y372502D02*
X460000D01*
X459000D01*
X457001Y370503D01*
X458500Y372002D01*
X460000Y370503D01*
D12*
X427449Y351207D02*
Y354793D01*
X420550Y354947D02*
Y359048D01*
X427449D01*
X420550Y346952D02*
Y351053D01*
Y346952D02*
X427449D01*
X413547Y361815D02*
X417322D01*
X413547D02*
Y367017D01*
X417322D01*
X420678Y361815D02*
X424453D01*
Y367017D01*
X420678D02*
X424453D01*
X427047Y361815D02*
X430822D01*
X427047D02*
Y367017D01*
X430822D01*
X434178Y361815D02*
X437953D01*
Y367017D01*
X434178D02*
X437953D01*
X400547Y351399D02*
X404322D01*
X400547D02*
Y356601D01*
X404322D01*
X407678Y351399D02*
X411453D01*
Y356601D01*
X407678D02*
X411453D01*
X418899Y280678D02*
Y284453D01*
X424101D01*
Y280678D02*
Y284453D01*
X418899Y273547D02*
Y277322D01*
Y273547D02*
X424101D01*
Y277322D01*
X412399Y280678D02*
Y284453D01*
X417601D01*
Y280678D02*
Y284453D01*
X412399Y273547D02*
Y277322D01*
Y273547D02*
X417601D01*
Y277322D01*
X390399Y280678D02*
Y284453D01*
X395601D01*
Y280678D02*
Y284453D01*
X390399Y273547D02*
Y277322D01*
Y273547D02*
X395601D01*
Y277322D01*
X383899Y280678D02*
Y284453D01*
X389101D01*
Y280678D02*
Y284453D01*
X383899Y273547D02*
Y277322D01*
Y273547D02*
X389101D01*
Y277322D01*
X426899Y286178D02*
Y289953D01*
X432101D01*
Y286178D02*
Y289953D01*
X426899Y279047D02*
Y282822D01*
Y279047D02*
X432101D01*
Y282822D01*
X397899Y286178D02*
Y289953D01*
X403101D01*
Y286178D02*
Y289953D01*
X397899Y279047D02*
Y282822D01*
Y279047D02*
X403101D01*
Y282822D01*
X439601Y279047D02*
Y282822D01*
X434399Y279047D02*
X439601D01*
X434399D02*
Y282822D01*
X439601Y286178D02*
Y289953D01*
X434399D02*
X439601D01*
X434399Y286178D02*
Y289953D01*
X410101Y279047D02*
Y282822D01*
X404899Y279047D02*
X410101D01*
X404899D02*
Y282822D01*
X410101Y286178D02*
Y289953D01*
X404899D02*
X410101D01*
X404899Y286178D02*
Y289953D01*
M02*
