G04*
G04 #@! TF.GenerationSoftware,Altium Limited,Altium Designer,20.2.6 (244)*
G04*
G04 Layer_Color=32896*
%FSLAX25Y25*%
%MOIN*%
G70*
G04*
G04 #@! TF.SameCoordinates,AC53DD8C-A68E-409E-BB1C-E70DDFC25F91*
G04*
G04*
G04 #@! TF.FilePolarity,Positive*
G04*
G01*
G75*
G36*
X435650Y362841D02*
X429350D01*
Y365991D01*
X435650D01*
Y362841D01*
D02*
G37*
G36*
X422150D02*
X415850D01*
Y365991D01*
X422150D01*
Y362841D01*
D02*
G37*
G36*
X409150Y362425D02*
X402850D01*
Y365575D01*
X409150D01*
Y362425D01*
D02*
G37*
G36*
Y352425D02*
X402850D01*
Y355575D01*
X409150D01*
Y352425D01*
D02*
G37*
G36*
X427149Y347252D02*
X420850D01*
Y358748D01*
X427149D01*
Y347252D01*
D02*
G37*
G36*
X434575Y324850D02*
X431425D01*
Y331150D01*
X434575D01*
Y324850D01*
D02*
G37*
G36*
X409469Y294850D02*
X406320D01*
Y301150D01*
X409469D01*
Y294850D01*
D02*
G37*
G36*
X402491D02*
X399341D01*
Y301150D01*
X402491D01*
Y294850D01*
D02*
G37*
G36*
X472075Y294106D02*
X468925D01*
Y300405D01*
X472075D01*
Y294106D01*
D02*
G37*
G36*
X464575Y293850D02*
X461425D01*
Y300150D01*
X464575D01*
Y293850D01*
D02*
G37*
G36*
X438575Y281350D02*
X435425D01*
Y287650D01*
X438575D01*
Y281350D01*
D02*
G37*
G36*
X431075D02*
X427925D01*
Y287650D01*
X431075D01*
Y281350D01*
D02*
G37*
G36*
X409075D02*
X405925D01*
Y287650D01*
X409075D01*
Y281350D01*
D02*
G37*
G36*
X402075D02*
X398925D01*
Y287650D01*
X402075D01*
Y281350D01*
D02*
G37*
G36*
X423075Y275850D02*
X419925D01*
Y282150D01*
X423075D01*
Y275850D01*
D02*
G37*
G36*
X416575D02*
X413425D01*
Y282150D01*
X416575D01*
Y275850D01*
D02*
G37*
G36*
X394575D02*
X391425D01*
Y282150D01*
X394575D01*
Y275850D01*
D02*
G37*
G36*
X388075D02*
X384925D01*
Y282150D01*
X388075D01*
Y275850D01*
D02*
G37*
G36*
X438575Y268350D02*
X435425D01*
Y274650D01*
X438575D01*
Y268350D01*
D02*
G37*
G36*
X431075D02*
X427925D01*
Y274650D01*
X431075D01*
Y268350D01*
D02*
G37*
G36*
X409075D02*
X405925D01*
Y274650D01*
X409075D01*
Y268350D01*
D02*
G37*
G36*
X401575D02*
X398425D01*
Y274650D01*
X401575D01*
Y268350D01*
D02*
G37*
G36*
X421282Y267242D02*
X414983D01*
Y270392D01*
X421282D01*
Y267242D01*
D02*
G37*
G36*
X392782D02*
X386483D01*
Y270392D01*
X392782D01*
Y267242D01*
D02*
G37*
M02*
