G04*
G04 #@! TF.GenerationSoftware,Altium Limited,Altium Designer,20.2.6 (244)*
G04*
G04 Layer_Physical_Order=2*
G04 Layer_Color=16711680*
%FSLAX25Y25*%
%MOIN*%
G70*
G04*
G04 #@! TF.SameCoordinates,AC53DD8C-A68E-409E-BB1C-E70DDFC25F91*
G04*
G04*
G04 #@! TF.FilePolarity,Positive*
G04*
G01*
G75*
%ADD10C,0.01000*%
%ADD15R,0.03543X0.03150*%
%ADD21C,0.00800*%
%ADD22C,0.02000*%
%ADD23C,0.06000*%
%ADD24R,0.06000X0.06000*%
%ADD25C,0.02800*%
%ADD26R,0.04213X0.02095*%
%ADD27R,0.03175X0.03402*%
%ADD28C,0.01000*%
%ADD29R,0.03150X0.03543*%
%ADD30R,0.03402X0.03175*%
G36*
X464133Y361195D02*
X464696Y360633D01*
X465000Y359898D01*
Y359500D01*
X461000D01*
Y359898D01*
X461305Y360633D01*
X461867Y361195D01*
X462602Y361500D01*
X463398D01*
X464133Y361195D01*
D02*
G37*
G36*
X465000Y357102D02*
X464696Y356367D01*
X464133Y355804D01*
X463398Y355500D01*
X462602D01*
X461867Y355804D01*
X461305Y356367D01*
X461000Y357102D01*
Y357500D01*
X465000D01*
Y357102D01*
D02*
G37*
G36*
X531350Y391769D02*
X532442Y391317D01*
X533425Y390661D01*
X534261Y389825D01*
X534917Y388842D01*
X535369Y387750D01*
X535600Y386591D01*
Y386000D01*
Y350700D01*
X531600D01*
Y275800D01*
X535600D01*
Y240500D01*
Y239909D01*
X535369Y238750D01*
X534917Y237658D01*
X534261Y236675D01*
X533425Y235840D01*
X532442Y235183D01*
X531350Y234731D01*
X530191Y234500D01*
X508000D01*
X508000Y392000D01*
X530191D01*
X531350Y391769D01*
D02*
G37*
G36*
X358284Y392425D02*
X358425Y392284D01*
X358502Y392100D01*
Y392000D01*
Y234500D01*
Y234400D01*
X358425Y234216D01*
X358284Y234075D01*
X358100Y233998D01*
X335760D01*
X334504Y234248D01*
X333320Y234738D01*
X332256Y235450D01*
X331350Y236355D01*
X330638Y237420D01*
X330148Y238604D01*
X329899Y239860D01*
Y240500D01*
Y275800D01*
Y275900D01*
X329975Y276084D01*
X330116Y276225D01*
X330300Y276302D01*
X333898D01*
Y350199D01*
X330300D01*
X330116Y350275D01*
X329975Y350416D01*
X329899Y350600D01*
Y350700D01*
Y386000D01*
Y386640D01*
X330148Y387896D01*
X330638Y389080D01*
X331350Y390144D01*
X332256Y391050D01*
X333320Y391761D01*
X334504Y392252D01*
X335760Y392501D01*
X358100D01*
X358284Y392425D01*
D02*
G37*
%LPC*%
G36*
X522480Y385749D02*
X521120D01*
X521059Y385724D01*
X520994Y385737D01*
X519661Y385472D01*
X519605Y385435D01*
X519539D01*
X518283Y384915D01*
X518236Y384868D01*
X518171Y384855D01*
X517041Y384100D01*
X517004Y384044D01*
X516942Y384019D01*
X515981Y383058D01*
X515956Y382996D01*
X515900Y382959D01*
X515145Y381829D01*
X515132Y381764D01*
X515085Y381717D01*
X514565Y380461D01*
Y380395D01*
X514528Y380339D01*
X514263Y379006D01*
X514276Y378941D01*
X514251Y378880D01*
Y378200D01*
Y377520D01*
X514276Y377459D01*
X514263Y377394D01*
X514528Y376061D01*
X514565Y376005D01*
Y375939D01*
X515085Y374683D01*
X515132Y374636D01*
X515145Y374571D01*
X515900Y373441D01*
X515956Y373404D01*
X515981Y373342D01*
X516942Y372381D01*
X517004Y372356D01*
X517041Y372300D01*
X518171Y371545D01*
X518236Y371532D01*
X518283Y371485D01*
X519539Y370965D01*
X519605D01*
X519661Y370928D01*
X520994Y370663D01*
X521059Y370676D01*
X521120Y370651D01*
X522480D01*
X522541Y370676D01*
X522606Y370663D01*
X523939Y370928D01*
X523995Y370965D01*
X524061D01*
X525317Y371485D01*
X525364Y371532D01*
X525429Y371545D01*
X526559Y372300D01*
X526596Y372356D01*
X526658Y372381D01*
X527619Y373342D01*
X527644Y373404D01*
X527700Y373441D01*
X528455Y374571D01*
X528468Y374636D01*
X528515Y374683D01*
X529035Y375939D01*
Y376005D01*
X529072Y376061D01*
X529337Y377394D01*
X529324Y377459D01*
X529349Y377520D01*
Y378200D01*
Y378880D01*
X529324Y378941D01*
X529337Y379006D01*
X529072Y380339D01*
X529035Y380395D01*
Y380461D01*
X528515Y381717D01*
X528468Y381764D01*
X528455Y381829D01*
X527700Y382959D01*
X527644Y382996D01*
X527619Y383058D01*
X526658Y384019D01*
X526596Y384044D01*
X526559Y384100D01*
X525429Y384855D01*
X525364Y384868D01*
X525317Y384915D01*
X524061Y385435D01*
X523995D01*
X523939Y385472D01*
X522606Y385737D01*
X522541Y385724D01*
X522480Y385749D01*
D02*
G37*
G36*
Y255849D02*
X521120D01*
X521059Y255824D01*
X520994Y255837D01*
X519661Y255572D01*
X519605Y255535D01*
X519539D01*
X518283Y255015D01*
X518236Y254968D01*
X518171Y254955D01*
X517041Y254200D01*
X517004Y254144D01*
X516942Y254119D01*
X515981Y253158D01*
X515956Y253096D01*
X515900Y253059D01*
X515145Y251929D01*
X515132Y251864D01*
X515085Y251817D01*
X514565Y250561D01*
Y250495D01*
X514528Y250439D01*
X514263Y249106D01*
X514276Y249041D01*
X514251Y248980D01*
Y248300D01*
Y247620D01*
X514276Y247559D01*
X514263Y247494D01*
X514528Y246161D01*
X514565Y246105D01*
Y246039D01*
X515085Y244783D01*
X515132Y244736D01*
X515145Y244671D01*
X515900Y243541D01*
X515956Y243504D01*
X515981Y243442D01*
X516942Y242481D01*
X517004Y242456D01*
X517041Y242400D01*
X518171Y241645D01*
X518236Y241632D01*
X518283Y241585D01*
X519539Y241065D01*
X519605D01*
X519661Y241028D01*
X520994Y240763D01*
X521059Y240776D01*
X521120Y240751D01*
X522480D01*
X522541Y240776D01*
X522606Y240763D01*
X523939Y241028D01*
X523995Y241065D01*
X524061D01*
X525317Y241585D01*
X525364Y241632D01*
X525429Y241645D01*
X526559Y242400D01*
X526596Y242456D01*
X526658Y242481D01*
X527619Y243442D01*
X527644Y243504D01*
X527700Y243541D01*
X528455Y244671D01*
X528468Y244736D01*
X528515Y244783D01*
X529035Y246039D01*
Y246105D01*
X529072Y246161D01*
X529337Y247494D01*
X529324Y247559D01*
X529349Y247620D01*
Y248300D01*
Y248980D01*
X529324Y249041D01*
X529337Y249106D01*
X529072Y250439D01*
X529035Y250495D01*
Y250561D01*
X528515Y251817D01*
X528468Y251864D01*
X528455Y251929D01*
X527700Y253059D01*
X527644Y253096D01*
X527619Y253158D01*
X526658Y254119D01*
X526596Y254144D01*
X526559Y254200D01*
X525429Y254955D01*
X525364Y254968D01*
X525317Y255015D01*
X524061Y255535D01*
X523995D01*
X523939Y255572D01*
X522606Y255837D01*
X522541Y255824D01*
X522480Y255849D01*
D02*
G37*
G36*
X344880Y385749D02*
X343520D01*
X343459Y385724D01*
X343394Y385737D01*
X342061Y385472D01*
X342005Y385435D01*
X341939D01*
X340683Y384915D01*
X340636Y384868D01*
X340571Y384855D01*
X339441Y384100D01*
X339404Y384044D01*
X339342Y384019D01*
X338381Y383058D01*
X338356Y382996D01*
X338300Y382959D01*
X337545Y381829D01*
X337532Y381764D01*
X337485Y381717D01*
X336965Y380461D01*
Y380395D01*
X336928Y380339D01*
X336663Y379006D01*
X336676Y378941D01*
X336651Y378880D01*
Y378200D01*
Y377520D01*
X336676Y377459D01*
X336663Y377394D01*
X336928Y376061D01*
X336965Y376005D01*
Y375939D01*
X337485Y374683D01*
X337532Y374636D01*
X337545Y374571D01*
X338300Y373441D01*
X338356Y373404D01*
X338381Y373342D01*
X339342Y372381D01*
X339404Y372356D01*
X339441Y372300D01*
X340571Y371545D01*
X340636Y371532D01*
X340683Y371485D01*
X341939Y370965D01*
X342005D01*
X342061Y370928D01*
X343394Y370663D01*
X343459Y370676D01*
X343520Y370651D01*
X344880D01*
X344941Y370676D01*
X345006Y370663D01*
X346339Y370928D01*
X346395Y370965D01*
X346461D01*
X347717Y371485D01*
X347764Y371532D01*
X347829Y371545D01*
X348959Y372300D01*
X348996Y372356D01*
X349058Y372381D01*
X350019Y373342D01*
X350044Y373404D01*
X350100Y373441D01*
X350855Y374571D01*
X350868Y374636D01*
X350915Y374683D01*
X351435Y375939D01*
Y376005D01*
X351472Y376061D01*
X351737Y377394D01*
X351724Y377459D01*
X351749Y377520D01*
Y378200D01*
Y378880D01*
X351724Y378941D01*
X351737Y379006D01*
X351472Y380339D01*
X351435Y380395D01*
Y380461D01*
X350915Y381717D01*
X350868Y381764D01*
X350855Y381829D01*
X350100Y382959D01*
X350044Y382996D01*
X350019Y383058D01*
X349058Y384019D01*
X348996Y384044D01*
X348959Y384100D01*
X347829Y384855D01*
X347764Y384868D01*
X347717Y384915D01*
X346461Y385435D01*
X346395D01*
X346339Y385472D01*
X345006Y385737D01*
X344941Y385724D01*
X344880Y385749D01*
D02*
G37*
G36*
Y256849D02*
X343520D01*
X343459Y256824D01*
X343394Y256837D01*
X342061Y256572D01*
X342005Y256535D01*
X341939D01*
X340683Y256015D01*
X340636Y255968D01*
X340571Y255955D01*
X339441Y255200D01*
X339404Y255144D01*
X339342Y255119D01*
X338381Y254158D01*
X338356Y254096D01*
X338300Y254059D01*
X337545Y252929D01*
X337532Y252864D01*
X337485Y252817D01*
X336965Y251561D01*
Y251495D01*
X336928Y251439D01*
X336663Y250106D01*
X336676Y250041D01*
X336651Y249980D01*
Y249300D01*
Y248620D01*
X336676Y248559D01*
X336663Y248494D01*
X336928Y247161D01*
X336965Y247105D01*
Y247039D01*
X337485Y245783D01*
X337532Y245736D01*
X337545Y245671D01*
X338300Y244541D01*
X338356Y244504D01*
X338381Y244442D01*
X339342Y243481D01*
X339404Y243456D01*
X339441Y243400D01*
X340571Y242645D01*
X340636Y242632D01*
X340683Y242585D01*
X341939Y242065D01*
X342005D01*
X342061Y242028D01*
X343394Y241763D01*
X343459Y241776D01*
X343520Y241751D01*
X344880D01*
X344941Y241776D01*
X345006Y241763D01*
X346339Y242028D01*
X346395Y242065D01*
X346461D01*
X347717Y242585D01*
X347764Y242632D01*
X347829Y242645D01*
X348959Y243400D01*
X348996Y243456D01*
X349058Y243481D01*
X350019Y244442D01*
X350044Y244504D01*
X350100Y244541D01*
X350855Y245671D01*
X350868Y245736D01*
X350915Y245783D01*
X351435Y247039D01*
Y247105D01*
X351472Y247161D01*
X351737Y248494D01*
X351724Y248559D01*
X351749Y248620D01*
Y249300D01*
Y249980D01*
X351724Y250041D01*
X351737Y250106D01*
X351472Y251439D01*
X351435Y251495D01*
Y251561D01*
X350915Y252817D01*
X350868Y252864D01*
X350855Y252929D01*
X350100Y254059D01*
X350044Y254096D01*
X350019Y254158D01*
X349058Y255119D01*
X348996Y255144D01*
X348959Y255200D01*
X347829Y255955D01*
X347764Y255968D01*
X347717Y256015D01*
X346461Y256535D01*
X346395D01*
X346339Y256572D01*
X345006Y256837D01*
X344941Y256824D01*
X344880Y256849D01*
D02*
G37*
%LPD*%
D10*
X478500Y386000D02*
Y390000D01*
Y382000D02*
Y386000D01*
X474500D02*
X478500D01*
X482500D01*
X463000Y355000D02*
Y356500D01*
X428468Y349260D02*
X431574D01*
X428468D02*
Y351307D01*
Y347213D02*
Y349260D01*
X403244Y364000D02*
Y366772D01*
X400670Y364000D02*
X403244D01*
Y361228D02*
Y364000D01*
X425362Y349260D02*
X428468D01*
X399500Y309000D02*
X426000D01*
X396500Y306000D02*
X399500Y309000D01*
X413256Y300756D02*
X417011Y297000D01*
X467292D01*
X470303Y300011D02*
X470500D01*
X467292Y297000D02*
X470303Y300011D01*
X401113Y300756D02*
X406357Y306000D01*
X467000D01*
X400916Y300756D02*
X401113D01*
X463000Y294245D02*
X470048D01*
X456407Y269408D02*
X480500Y293500D01*
Y303500D01*
X456407Y258000D02*
Y269408D01*
X400613Y287466D02*
X407500D01*
X404000Y283996D02*
Y284079D01*
X400613Y287466D02*
X404000Y284079D01*
X400500Y287466D02*
X400613D01*
X443779Y294245D02*
X463000D01*
X386500Y281965D02*
Y289000D01*
X390500Y293000D02*
X394852D01*
X386500Y289000D02*
X390500Y293000D01*
X394852D02*
X400387Y287466D01*
X393500Y288421D02*
Y288500D01*
Y288421D02*
X400387Y281535D01*
Y287466D02*
X400500D01*
X400387Y281535D02*
X400500D01*
X439061Y284561D02*
X446000Y291500D01*
X432640Y284561D02*
X439061D01*
X395255Y300756D02*
X400916D01*
X429500Y274255D02*
Y281535D01*
X429613D01*
X432640Y284561D01*
X476489Y294479D02*
Y300011D01*
X446407Y264398D02*
X476489Y294479D01*
X446407Y258000D02*
Y264398D01*
X437113Y281535D02*
X441000Y277648D01*
X437000Y281535D02*
X437113D01*
X437000Y287466D02*
X443779Y294245D01*
X429500Y287466D02*
X437000D01*
X407500Y281535D02*
X411299D01*
Y281400D02*
Y281535D01*
X423465Y278000D02*
X426000D01*
X421500Y276034D02*
X423465Y278000D01*
X420888Y275423D02*
X421500Y276034D01*
X441000Y277535D02*
Y277648D01*
X437000Y274255D02*
Y281535D01*
X396356Y280173D02*
X396701Y280517D01*
X396356Y279278D02*
Y280173D01*
X393113Y276034D02*
X396356Y279278D01*
X393000Y276034D02*
X393113D01*
X467000Y306000D02*
X478000D01*
X463989Y300745D02*
Y302989D01*
X467000Y306000D01*
X463000Y299756D02*
X463989Y300745D01*
X478000Y306000D02*
X480500Y303500D01*
X470500Y300011D02*
X476489D01*
X457745Y299756D02*
X463000D01*
X407895Y300756D02*
X413256D01*
X470245Y294245D02*
X470500Y294500D01*
X421500Y281965D02*
X422588Y283053D01*
X424974D01*
X429387Y287466D01*
X429500D01*
X414887Y281965D02*
X415000D01*
X410474Y286378D02*
X414887Y281965D01*
X408588Y286378D02*
X410474D01*
X407500Y287466D02*
X408588Y286378D01*
X415000Y281965D02*
X421500D01*
X407895Y287860D02*
Y295245D01*
X407500Y287466D02*
X407895Y287860D01*
X400916Y295245D02*
X407895D01*
X386500Y281965D02*
X393000D01*
X386500Y269194D02*
X386877Y268817D01*
X386500Y269194D02*
Y276034D01*
X392388Y268817D02*
Y275423D01*
X393000Y276034D01*
X400000Y274255D02*
Y281034D01*
X400500Y281535D01*
X407500Y274255D02*
Y281535D01*
X415377Y268817D02*
Y275657D01*
X415000Y276034D02*
X415377Y275657D01*
X420888Y268817D02*
Y275423D01*
X436407Y258000D02*
Y268152D01*
X437000Y268744D01*
X426407Y258000D02*
Y258179D01*
X429500Y261271D01*
Y268744D01*
X416407Y258000D02*
Y267787D01*
X415377Y268817D02*
X416407Y267787D01*
X406407Y258000D02*
Y267670D01*
X407482Y268744D01*
X407500D01*
X396408Y258000D02*
Y265349D01*
X399803Y268744D01*
X400000D01*
X386407Y258000D02*
Y268347D01*
X386877Y268817D01*
X458500Y386000D02*
X459084Y385416D01*
Y364416D02*
Y385416D01*
X435465Y364416D02*
X459084D01*
X463000Y360500D01*
X429534Y357287D02*
Y364416D01*
X428987Y356740D02*
X429534Y357287D01*
X428468Y356740D02*
X428987D01*
X421966Y364416D02*
X429534D01*
X415500Y363881D02*
X415619Y364000D01*
X408755D02*
X415619D01*
X416035Y364416D01*
X415500Y358500D02*
Y363881D01*
X408965Y354000D02*
X417472D01*
X418472Y353000D01*
X419531D01*
X403034Y350917D02*
Y354000D01*
Y350917D02*
X404000Y349952D01*
Y349500D02*
Y349952D01*
D15*
X407895Y295245D02*
D03*
Y300756D02*
D03*
X400916D02*
D03*
Y295245D02*
D03*
X463000Y299756D02*
D03*
Y294245D02*
D03*
X470500Y294500D02*
D03*
Y300011D02*
D03*
X437000Y268744D02*
D03*
Y274255D02*
D03*
X429500Y268744D02*
D03*
Y274255D02*
D03*
X407500Y268744D02*
D03*
Y274255D02*
D03*
X400000Y268744D02*
D03*
Y274255D02*
D03*
D21*
X482900Y386000D02*
G03*
X482900Y386000I-4400J0D01*
G01*
X472500D02*
G03*
X472500Y386000I-4000J0D01*
G01*
X462500D02*
G03*
X457584Y382106I-4000J0D01*
G01*
X460584Y382586D02*
G03*
X462500Y386000I-2084J3414D01*
G01*
X452500D02*
G03*
X452500Y386000I-4000J0D01*
G01*
X442500D02*
G03*
X442500Y386000I-4000J0D01*
G01*
D02*
G03*
X442500Y386000I-4000J0D01*
G01*
X432500D02*
G03*
X432500Y386000I-4000J0D01*
G01*
X422500D02*
G03*
X422500Y386000I-4000J0D01*
G01*
X417900Y358500D02*
G03*
X417000Y360373I-2400J0D01*
G01*
X418532Y355061D02*
G03*
X417472Y355500I-1060J-1061D01*
G01*
X414000Y360373D02*
G03*
X417900Y358500I1500J-1874D01*
G01*
X418533Y355061D02*
G03*
X417472Y355500I-1061J-1061D01*
G01*
X406400Y349500D02*
G03*
X405588Y351299I-2400J0D01*
G01*
X401709Y350215D02*
G03*
X406400Y349500I2291J-715D01*
G01*
X401535Y350917D02*
G03*
X401709Y350215I1500J0D01*
G01*
X401535Y350917D02*
G03*
X401709Y350215I1500J0D01*
G01*
X482002Y388664D02*
X485338Y392000D01*
X480453Y389943D02*
X482510Y392000D01*
X487641D02*
X488000Y391641D01*
X484812Y392000D02*
X488000Y388812D01*
X473499Y392000D02*
X475928Y389570D01*
X472249Y387396D02*
X476853Y392000D01*
X478059Y390378D02*
X479681Y392000D01*
X476327D02*
X477960Y390367D01*
X481984Y392000D02*
X488000Y385984D01*
X479156Y392000D02*
X488000Y383156D01*
X482847Y386681D02*
X488000Y391833D01*
X472102Y387740D02*
X474108Y385734D01*
X472226Y384544D02*
X474122Y386441D01*
X467842Y392000D02*
X470240Y389602D01*
X465014Y392000D02*
X467223Y389791D01*
X471081Y389056D02*
X474024Y392000D01*
X469144Y389948D02*
X471196Y392000D01*
X457825Y389943D02*
X459882Y392000D01*
X456528D02*
X458528Y390000D01*
X462185Y392000D02*
X465519Y388667D01*
X460289Y389578D02*
X462711Y392000D01*
X470670D02*
X474611Y388059D01*
X462498Y386130D02*
X468368Y392000D01*
X462308Y363313D02*
X488000Y389005D01*
X461800Y388261D02*
X465539Y392000D01*
X459357D02*
X464577Y386780D01*
X482867Y385460D02*
X488000Y380327D01*
X472291Y384723D02*
X488000Y369014D01*
X482070Y383428D02*
X488000Y377499D01*
X480559Y382111D02*
X488000Y374670D01*
X478234Y381608D02*
X488000Y371842D01*
X471167Y383018D02*
X488000Y366185D01*
X464126Y362302D02*
X488000Y386177D01*
X469280Y382077D02*
X488000Y363357D01*
X460894Y364727D02*
X477819Y381653D01*
X463788Y362442D02*
X464523Y362138D01*
X463475Y362504D02*
X463788Y362442D01*
X464523Y362138D02*
X464854Y361916D01*
X460584Y367246D02*
X475836Y382498D01*
X460584Y370074D02*
X474557Y384047D01*
X460584Y375731D02*
X467104Y382251D01*
X460584Y372903D02*
X469955Y382274D01*
X460584Y381388D02*
X464552Y385356D01*
X460584Y378560D02*
X465444Y383419D01*
X460584Y365317D02*
X463381Y362520D01*
X460584Y365037D02*
Y382586D01*
Y365037D02*
X463102Y362520D01*
X438053Y362916D02*
X458463D01*
X457584Y365916D02*
Y382106D01*
X445112Y365916D02*
X457584Y378388D01*
X447940Y365916D02*
X457584Y375560D01*
X451188Y388962D02*
X454225Y392000D01*
X449313Y389916D02*
X451397Y392000D01*
X453700D02*
X456336Y389364D01*
X450871Y392000D02*
X454977Y387894D01*
X442386Y392000D02*
X445615Y388771D01*
X441880Y388140D02*
X445740Y392000D01*
X448043D02*
X450706Y389336D01*
X445215Y392000D02*
X447376Y389839D01*
X452301Y387247D02*
X457054Y392000D01*
X452062Y384179D02*
X454557Y386675D01*
X452339Y384876D02*
X457584Y379630D01*
X442493Y386236D02*
X457584Y371145D01*
X442499Y385931D02*
X448569Y392000D01*
X451836Y388207D02*
X454530Y385513D01*
X436729Y392000D02*
X438736Y389993D01*
X433901Y392000D02*
X436460Y389441D01*
X440420Y389509D02*
X442912Y392000D01*
X438059Y389976D02*
X440083Y392000D01*
X429477Y389879D02*
X431598Y392000D01*
X429477Y389879D02*
X431598Y392000D01*
X431291Y388865D02*
X434426Y392000D01*
X431072D02*
X435049Y388023D01*
X439558Y392000D02*
X444613Y386945D01*
X432382Y385034D02*
X451500Y365916D01*
X432348Y387093D02*
X437255Y392000D01*
X428244D02*
X434509Y385735D01*
X431746Y383663D02*
X434524Y386441D01*
X451271Y383115D02*
X457584Y376802D01*
X441941Y383960D02*
X457584Y368317D01*
X453597Y365916D02*
X457584Y369903D01*
X449444Y382113D02*
X457584Y373973D01*
X437827Y367117D02*
X454922Y384211D01*
X434999Y367117D02*
X450321Y382438D01*
X456426Y365916D02*
X457584Y367074D01*
X442283Y365916D02*
X457584Y381217D01*
X440523Y382549D02*
X457157Y365916D01*
X439455D02*
X456239Y382700D01*
X450769Y365916D02*
X457584Y372731D01*
X438053Y365916D02*
X457584D01*
X438235Y382009D02*
X454328Y365916D01*
X438053D02*
Y367117D01*
Y361715D02*
Y362916D01*
X431372Y383215D02*
X448671Y365916D01*
X429342Y367117D02*
X445538Y383312D01*
X432122Y367068D02*
X447253Y382199D01*
X429603Y382155D02*
X445843Y365916D01*
X432878Y367117D02*
X438053D01*
X426947D02*
X432122D01*
Y365494D02*
X432878Y364739D01*
Y361715D02*
Y367117D01*
X432122Y364240D02*
X432878Y364996D01*
Y361715D02*
X438053D01*
X432122Y362666D02*
X432878Y361910D01*
X426947Y362184D02*
X427416Y361715D01*
X426947D02*
Y362916D01*
X431035Y361715D02*
X432122D01*
X465649Y360997D02*
X488000Y383348D01*
X462500Y386028D02*
X488000Y360528D01*
X466020Y359500D02*
Y359898D01*
X465942Y359110D02*
X466020Y359500D01*
X465416Y361354D02*
X465637Y361023D01*
X464854Y361916D02*
X465416Y361354D01*
X465942Y360288D02*
X466004Y359975D01*
X465637Y361023D02*
X465942Y360288D01*
X488000Y340020D02*
Y392000D01*
X461864Y383836D02*
X488000Y357700D01*
X467299Y340020D02*
X488000Y360721D01*
X465709Y358229D02*
X488000Y380520D01*
X464470Y340020D02*
X488000Y363549D01*
X461642Y340020D02*
X488000Y366378D01*
X466020Y359881D02*
X485881Y340020D01*
X460584Y370973D02*
X488000Y343558D01*
X455985Y340020D02*
X488000Y372034D01*
X460584Y368145D02*
X488000Y340729D01*
X458814Y340020D02*
X488000Y369206D01*
X460584Y379459D02*
X488000Y352043D01*
X460584Y382287D02*
X488000Y354871D01*
X460584Y373802D02*
X488000Y346386D01*
X460584Y376630D02*
X488000Y349214D01*
X453157Y340020D02*
X488000Y374863D01*
X450328Y340020D02*
X488000Y377691D01*
X451671Y362916D02*
X474568Y340020D01*
X448843Y362916D02*
X471739Y340020D01*
X443186Y362916D02*
X466082Y340020D01*
X440357Y362916D02*
X463254Y340020D01*
X446014Y362916D02*
X468911Y340020D01*
X466020Y357102D02*
Y357500D01*
X465942Y357890D02*
X466020Y357500D01*
X481441Y340020D02*
X488000Y346579D01*
X465942Y356712D02*
X466004Y357025D01*
X465721Y358221D02*
X465942Y357890D01*
X465721Y358779D02*
X465942Y359110D01*
X465637Y355977D02*
X465942Y356712D01*
X465416Y355646D02*
X465637Y355977D01*
X478613Y340020D02*
X488000Y349407D01*
X470127Y340020D02*
X488000Y357892D01*
X487098Y340020D02*
X488000Y340922D01*
X484270Y340020D02*
X488000Y343750D01*
X472956Y340020D02*
X488000Y355064D01*
X466011Y357061D02*
X483053Y340020D01*
X475784D02*
X488000Y352235D01*
X465390Y358442D02*
X465721Y358221D01*
X465390Y358558D02*
X465721Y358779D01*
X464854Y355083D02*
X465416Y355646D01*
X464523Y354862D02*
X464854Y355083D01*
X463788Y354558D02*
X464523Y354862D01*
X461477D02*
X462212Y354558D01*
X465007Y355237D02*
X480224Y340020D01*
X463398Y354480D02*
X463788Y354558D01*
X462935Y354480D02*
X477396Y340020D01*
X443000D02*
X488000D01*
X462212Y354558D02*
X462602Y354480D01*
X447500Y340020D02*
X462089Y354609D01*
X462602Y354480D02*
X463398D01*
X460058Y360288D02*
X460360Y361018D01*
X458463Y362916D02*
X460360Y361018D01*
X460279Y358779D02*
X460610Y358558D01*
X460058Y359110D02*
X460279Y358779D01*
X459980Y359898D02*
X460058Y360288D01*
X457328Y362916D02*
X460041Y360203D01*
X459980Y359500D02*
X460058Y359110D01*
X459980Y359500D02*
Y359898D01*
X454500Y362916D02*
X459980Y357435D01*
X435167Y339000D02*
X458773Y362606D01*
X438053Y362392D02*
X460425Y340020D01*
X437995Y339000D02*
X460187Y361192D01*
X435901Y361715D02*
X457597Y340020D01*
X432338Y339000D02*
X456254Y362916D01*
X433073Y361715D02*
X454769Y340020D01*
X432122Y361715D02*
Y367117D01*
X431035Y360324D02*
X432878Y362167D01*
X431574Y358035D02*
X435254Y361715D01*
X431035Y358787D02*
X431574D01*
X428034D02*
Y361715D01*
X427416D02*
X428034Y361097D01*
X431035Y358787D02*
Y361715D01*
X431974Y347121D02*
X447769Y362916D01*
X429510Y339000D02*
X453426Y362916D01*
X431974Y349950D02*
X444940Y362916D01*
X431035Y360925D02*
X451940Y340020D01*
X431574Y355207D02*
X439284Y362916D01*
X430903Y351707D02*
X442112Y362916D01*
X431574Y354693D02*
Y358787D01*
X460279Y358221D02*
X460610Y358442D01*
X460058Y356712D02*
X460362Y355977D01*
X460583Y355646D02*
X461146Y355083D01*
X460362Y355977D02*
X460583Y355646D01*
X460058Y357890D02*
X460279Y358221D01*
X459980Y357500D02*
X460058Y357890D01*
X459980Y357102D02*
X460058Y356712D01*
X459980Y357102D02*
Y357500D01*
X444671Y340020D02*
X460469Y355817D01*
X440823Y339000D02*
X460473Y358649D01*
X461146Y355083D02*
X461477Y354862D01*
X442610Y339942D02*
X443000Y340020D01*
X442279Y339721D02*
X442610Y339942D01*
X442058Y339390D02*
X442279Y339721D01*
X441980Y339000D02*
X442058Y339390D01*
X431061Y354693D02*
X431574Y355207D01*
X428781Y354693D02*
X431767Y351707D01*
X431665Y346813D02*
X431974Y347121D01*
X428075Y351707D02*
X431061Y354693D01*
X431574Y354729D02*
X446283Y340020D01*
X431574Y357557D02*
X449112Y340020D01*
X431974Y348672D02*
X441646Y339000D01*
X431974Y351500D02*
X443455Y340020D01*
X431974Y346813D02*
Y351707D01*
X428177Y346813D02*
X435989Y339000D01*
X431005Y346813D02*
X438818Y339000D01*
X422587Y392000D02*
X425715Y388872D01*
X421956Y388015D02*
X425941Y392000D01*
X425416D02*
X427534Y389882D01*
X422490Y385721D02*
X428769Y392000D01*
X420548Y389436D02*
X423113Y392000D01*
X418278Y389994D02*
X420284Y392000D01*
X422474Y386456D02*
X425221Y383710D01*
X419759Y392000D02*
X424655Y387104D01*
X425313Y365916D02*
X444584Y385187D01*
X422014Y384088D02*
X440186Y365916D01*
X426210Y382721D02*
X443014Y365916D01*
X420857Y367117D02*
X436360Y382620D01*
X418028Y367117D02*
X434991Y384080D01*
X420648Y382626D02*
X436157Y367117D01*
X416930Y392000D02*
X418956Y389974D01*
X378000Y392000D02*
X488000D01*
X415200Y367117D02*
X430837Y382754D01*
X414102Y392000D02*
X416588Y389514D01*
X412500Y387044D02*
X417456Y392000D01*
X403941Y367172D02*
X418779Y382010D01*
X401113Y367172D02*
X416486Y382544D01*
X412500Y385117D02*
X430500Y367117D01*
X409198Y366772D02*
X425635Y383209D01*
X412500Y382288D02*
X427671Y367117D01*
X411330Y366075D02*
X427407Y382152D01*
X406370Y366772D02*
X424621Y385023D01*
X394303Y392000D02*
X419378Y366925D01*
X406370Y366772D02*
X424621Y385023D01*
X426947Y365916D02*
Y367117D01*
X423685D02*
X438569Y382001D01*
X426215Y362916D02*
X426947Y362184D01*
X424553Y365916D02*
X426947D01*
X424553D02*
Y367117D01*
X419378D02*
X424553D01*
Y362916D02*
X426947D01*
X424553Y362328D02*
X425141Y362916D01*
X426947Y361715D02*
X428034D01*
X424553Y361750D02*
X427515Y358787D01*
X426670D02*
X428034Y360152D01*
X425362Y358787D02*
X428034D01*
X424553Y361715D02*
Y362916D01*
X419378Y361715D02*
Y367117D01*
Y361715D02*
X424553D01*
X418445Y382000D02*
X433328Y367117D01*
X409960Y382000D02*
X426044Y365916D01*
X418622Y362053D02*
X419378Y362809D01*
X407131Y382000D02*
X422015Y367117D01*
X418622Y364882D02*
X419378Y365638D01*
X413447Y367117D02*
X418622D01*
Y364852D02*
X419378Y364096D01*
X418622Y361715D02*
Y367117D01*
X418284Y361715D02*
X418622Y362053D01*
X417900Y358503D02*
X421112Y361715D01*
X417000D02*
X418622D01*
X417000Y360373D02*
Y361715D01*
Y360431D02*
X418284Y361715D01*
X412500Y389873D02*
X414627Y392000D01*
X411273D02*
X415126Y388148D01*
X409799Y390000D02*
X411799Y392000D01*
X404500Y390000D02*
X412500D01*
X405617Y392000D02*
X407617Y390000D01*
X402788Y392000D02*
X404788Y390000D01*
X408445Y392000D02*
X410445Y390000D01*
X406971D02*
X408970Y392000D01*
X391474D02*
X416358Y367117D01*
X388646Y392000D02*
X413529Y367117D01*
X412500Y382000D02*
Y390000D01*
X385818Y392000D02*
X411046Y366772D01*
X399960Y392000D02*
X404500Y387460D01*
X397131Y392000D02*
X404500Y384631D01*
Y382000D02*
Y390000D01*
X378000Y378000D02*
X392000Y392000D01*
X378000Y380828D02*
X389172Y392000D01*
X378000Y372343D02*
X397657Y392000D01*
X378000Y375172D02*
X394828Y392000D01*
X378000Y386485D02*
X383515Y392000D01*
X378000Y389314D02*
X380686Y392000D01*
X378000Y383657D02*
X386343Y392000D01*
X380161D02*
X404989Y367172D01*
X378000Y366686D02*
X403314Y392000D01*
X382989D02*
X408217Y366772D01*
X378000Y363858D02*
X406142Y392000D01*
X378000Y391332D02*
X402161Y367172D01*
X378000Y369515D02*
X400485Y392000D01*
X378000Y388504D02*
X400270Y366234D01*
X412500Y384216D02*
X414506Y386222D01*
X412500Y387945D02*
X414500Y385945D01*
X411330Y362500D02*
X413447D01*
X411330Y365500D02*
X413447D01*
Y367117D01*
X411330Y365500D02*
Y366772D01*
Y366487D02*
X412318Y365500D01*
X411046Y366772D02*
X411330Y366487D01*
X413447Y361715D02*
Y362500D01*
X412489D02*
X414000Y360989D01*
Y360373D02*
Y361715D01*
X413447D02*
X414000D01*
X411330Y361228D02*
Y362500D01*
X410932Y361228D02*
X413154Y359007D01*
X406219Y360828D02*
Y361228D01*
Y366772D02*
Y367172D01*
X404500Y382000D02*
X412500D01*
X406219Y366772D02*
X411330D01*
X400270Y367172D02*
X406219D01*
X378000Y385675D02*
X400270Y363406D01*
X406219Y361228D02*
X411330D01*
X378000Y358201D02*
X404500Y384701D01*
X406219Y360964D02*
X406483Y361228D01*
X400270Y360828D02*
X406219D01*
X400270D02*
Y367172D01*
X378000Y361030D02*
X404500Y387529D01*
X420101Y355047D02*
X426947Y361893D01*
X418622Y362024D02*
X425362Y355284D01*
X422637Y354755D02*
X425362Y357479D01*
X421759Y361715D02*
X425362Y358113D01*
X417707Y355482D02*
X423941Y361715D01*
X417618Y357371D02*
X419942Y355047D01*
X418546D02*
X422637D01*
X426681Y339000D02*
X450597Y362916D01*
X425362Y354693D02*
X431574D01*
X425953D02*
X428939Y351707D01*
X425246D02*
X428232Y354693D01*
X425362D02*
Y358787D01*
X422637Y350953D02*
Y355047D01*
Y351927D02*
X425404Y354693D01*
X416007Y356154D02*
X416661Y355500D01*
X414897D02*
X415497Y356100D01*
X411553Y355500D02*
X417472D01*
X408104Y361228D02*
X413832Y355500D01*
X407613Y356701D02*
X413412Y362500D01*
X412069Y355500D02*
X413601Y357032D01*
X410441Y356701D02*
X413398Y359657D01*
X417000Y360818D02*
X426111Y351707D01*
X414004Y352500D02*
X427504Y339000D01*
X411553Y352500D02*
X416425D01*
Y350953D02*
Y352500D01*
X378000Y346887D02*
X415064Y383952D01*
X402245Y340020D02*
X414725Y352500D01*
X424962Y351707D02*
X431974D01*
X424962Y346813D02*
X431974D01*
X422044Y340020D02*
X428837Y346813D01*
X424962D02*
Y351707D01*
X422637Y352352D02*
X424962Y350027D01*
Y347199D02*
X425348Y346813D01*
X424962Y351423D02*
X425246Y351707D01*
X425348Y346813D02*
X433161Y339000D01*
X423992Y339139D02*
X431665Y346813D01*
X424020Y339000D02*
X441980D01*
X423942Y339390D02*
X424020Y339000D01*
X423390Y339942D02*
X423721Y339721D01*
X423000Y340020D02*
X423390Y339942D01*
X423721Y339721D02*
X423942Y339390D01*
X421208Y350953D02*
X424962Y347199D01*
X413559Y340020D02*
X424962Y351423D01*
X419216Y340020D02*
X426009Y346813D01*
X416387Y340020D02*
X424962Y348594D01*
X416425Y350953D02*
X422637D01*
X410730Y340020D02*
X421664Y350953D01*
X406317Y348873D02*
X415170Y340020D01*
X411553Y352122D02*
X424675Y339000D01*
X409548Y351299D02*
X420827Y340020D01*
X418379Y350953D02*
X430332Y339000D01*
X378000Y340020D02*
X423000D01*
X406719Y351299D02*
X417999Y340020D01*
X405073D02*
X416425Y351371D01*
X407902Y340020D02*
X418835Y350953D01*
X405676Y360828D02*
X409803Y356701D01*
X404784D02*
X409312Y361228D01*
X411553Y355500D02*
Y356701D01*
X406378D02*
X411553D01*
X402847Y360828D02*
X406975Y356701D01*
X378000Y380018D02*
X401318Y356701D01*
X401956D02*
X406083Y360828D01*
X400447Y356701D02*
X405622D01*
X382446Y340020D02*
X403255Y360828D01*
X378000Y352544D02*
X407456Y382000D01*
X406378Y351299D02*
Y356701D01*
X405622Y351299D02*
Y356701D01*
X379618Y340020D02*
X400426Y360828D01*
X379618Y340020D02*
X400426Y360828D01*
X400447Y351299D02*
Y356701D01*
X378000Y349716D02*
X410284Y382000D01*
X378000Y382847D02*
X404146Y356701D01*
X378000Y377190D02*
X400447Y354743D01*
X378000Y355373D02*
X404627Y382000D01*
X378000Y344059D02*
X400270Y366329D01*
X378000Y374362D02*
X400447Y351915D01*
X378000Y341231D02*
X400270Y363500D01*
X378000Y368705D02*
X406685Y340020D01*
X378000Y371533D02*
X409514Y340020D01*
X378000Y363048D02*
X401028Y340020D01*
X378000Y365876D02*
X403857Y340020D01*
X378000Y360220D02*
X398200Y340020D01*
X378000D02*
Y392000D01*
Y357391D02*
X395372Y340020D01*
X411553Y352156D02*
X411897Y352500D01*
X411553Y351299D02*
Y352500D01*
X406378Y351299D02*
X411553D01*
X406378Y351641D02*
X406719Y351299D01*
X405622Y355225D02*
X406378Y354469D01*
X405622Y354710D02*
X406378Y355466D01*
X405622Y352396D02*
X406378Y351641D01*
X405622Y351882D02*
X406378Y352638D01*
X406380Y349811D02*
X407868Y351299D01*
X405030Y347332D02*
X412342Y340020D01*
X401535Y350917D02*
Y351299D01*
X399417Y340020D02*
X410696Y351299D01*
X390931Y340020D02*
X401559Y350647D01*
X396588Y340020D02*
X403689Y347120D01*
X393760Y340020D02*
X401966Y348226D01*
X400447Y351299D02*
X401535D01*
X388103Y340020D02*
X400447Y352364D01*
X401062Y351299D02*
X401537Y350824D01*
X385274Y340020D02*
X400447Y355192D01*
X378000Y354563D02*
X392543Y340020D01*
X378000Y348906D02*
X386886Y340020D01*
X378000Y351734D02*
X389715Y340020D01*
X378000Y343249D02*
X381229Y340020D01*
X378000Y346077D02*
X384058Y340020D01*
X378000Y340421D02*
X378401Y340020D01*
D22*
X470048Y294245D02*
X470245D01*
X466153Y290350D02*
X470048Y294245D01*
X466153Y289653D02*
Y290350D01*
X466000Y289500D02*
X466153Y289653D01*
D23*
X396408Y258000D02*
D03*
X386407D02*
D03*
X466407D02*
D03*
X456407D02*
D03*
X436407D02*
D03*
X426407D02*
D03*
X406407D02*
D03*
X446407D02*
D03*
D03*
X416407D02*
D03*
X468500Y386000D02*
D03*
X438500D02*
D03*
D03*
X478500D02*
D03*
X458500D02*
D03*
X448500D02*
D03*
X428500D02*
D03*
X418500D02*
D03*
D24*
X476407Y258000D02*
D03*
X408500Y386000D02*
D03*
D25*
X426000Y309000D02*
D03*
X396500Y306000D02*
D03*
X466000Y289500D02*
D03*
X404000Y283996D02*
D03*
X393500Y288500D02*
D03*
X446000Y291500D02*
D03*
X395255Y300756D02*
D03*
X411299Y281535D02*
D03*
X426000Y278000D02*
D03*
X441000Y277535D02*
D03*
X396701Y280517D02*
D03*
X476489Y300011D02*
D03*
X457745Y299756D02*
D03*
X413256Y300756D02*
D03*
X404000Y349500D02*
D03*
X415500Y358500D02*
D03*
D26*
X419531Y353000D02*
D03*
X428468Y349260D02*
D03*
Y356740D02*
D03*
D27*
X416035Y364416D02*
D03*
X421966D02*
D03*
X429534D02*
D03*
X435465D02*
D03*
X403034Y354000D02*
D03*
X408965D02*
D03*
D28*
X463000Y356500D02*
D03*
Y360500D02*
D03*
D29*
X408755Y364000D02*
D03*
X403244D02*
D03*
X420888Y268817D02*
D03*
X415377D02*
D03*
X392388D02*
D03*
X386877D02*
D03*
D30*
X421500Y281965D02*
D03*
Y276034D02*
D03*
X415000Y281965D02*
D03*
Y276034D02*
D03*
X393000Y281965D02*
D03*
Y276034D02*
D03*
X386500Y281965D02*
D03*
Y276034D02*
D03*
X429500Y287466D02*
D03*
Y281535D02*
D03*
X400500Y287466D02*
D03*
Y281535D02*
D03*
X437000D02*
D03*
Y287466D02*
D03*
X407500Y281535D02*
D03*
Y287466D02*
D03*
M02*
