G04*
G04 #@! TF.GenerationSoftware,Altium Limited,Altium Designer,20.2.6 (244)*
G04*
G04 Layer_Physical_Order=1*
G04 Layer_Color=255*
%FSLAX25Y25*%
%MOIN*%
G70*
G04*
G04 #@! TF.SameCoordinates,AC53DD8C-A68E-409E-BB1C-E70DDFC25F91*
G04*
G04*
G04 #@! TF.FilePolarity,Positive*
G04*
G01*
G75*
%ADD10C,0.01000*%
%ADD13R,0.10000X0.01600*%
%ADD14O,0.02260X0.09451*%
%ADD15R,0.03543X0.03150*%
%ADD21C,0.00800*%
%ADD22C,0.02000*%
%ADD23C,0.06000*%
%ADD24R,0.06000X0.06000*%
%ADD25C,0.02800*%
G36*
X358284Y392425D02*
X358425Y392284D01*
X358502Y392100D01*
Y392000D01*
Y234500D01*
Y234400D01*
X358425Y234216D01*
X358284Y234075D01*
X358100Y233998D01*
X335760D01*
X334504Y234248D01*
X333320Y234738D01*
X332256Y235450D01*
X331350Y236355D01*
X330638Y237420D01*
X330148Y238604D01*
X329899Y239860D01*
Y240500D01*
Y275800D01*
Y275900D01*
X329975Y276084D01*
X330116Y276225D01*
X330300Y276302D01*
X333898D01*
Y350199D01*
X330300D01*
X330116Y350275D01*
X329975Y350416D01*
X329899Y350600D01*
Y350700D01*
Y386000D01*
Y386640D01*
X330148Y387896D01*
X330638Y389080D01*
X331350Y390144D01*
X332256Y391050D01*
X333320Y391761D01*
X334504Y392252D01*
X335760Y392501D01*
X358100D01*
X358284Y392425D01*
D02*
G37*
G36*
X531350Y391769D02*
X532442Y391317D01*
X533425Y390661D01*
X534261Y389825D01*
X534917Y388842D01*
X535369Y387750D01*
X535600Y386591D01*
Y386000D01*
Y350700D01*
X531600D01*
Y275800D01*
X535600D01*
Y240500D01*
Y239909D01*
X535369Y238750D01*
X534917Y237658D01*
X534261Y236675D01*
X533425Y235840D01*
X532442Y235183D01*
X531350Y234731D01*
X530191Y234500D01*
X508000D01*
X508000Y392000D01*
X530191D01*
X531350Y391769D01*
D02*
G37*
%LPC*%
G36*
X344880Y385749D02*
X343520D01*
X343459Y385724D01*
X343394Y385737D01*
X342061Y385472D01*
X342005Y385435D01*
X341939D01*
X340683Y384915D01*
X340636Y384868D01*
X340571Y384855D01*
X339441Y384100D01*
X339404Y384044D01*
X339342Y384019D01*
X338381Y383058D01*
X338356Y382996D01*
X338300Y382959D01*
X337545Y381829D01*
X337532Y381764D01*
X337485Y381717D01*
X336965Y380461D01*
Y380395D01*
X336928Y380339D01*
X336663Y379006D01*
X336676Y378941D01*
X336651Y378880D01*
Y378200D01*
Y377520D01*
X336676Y377459D01*
X336663Y377394D01*
X336928Y376061D01*
X336965Y376005D01*
Y375939D01*
X337485Y374683D01*
X337532Y374636D01*
X337545Y374571D01*
X338300Y373441D01*
X338356Y373404D01*
X338381Y373342D01*
X339342Y372381D01*
X339404Y372356D01*
X339441Y372300D01*
X340571Y371545D01*
X340636Y371532D01*
X340683Y371485D01*
X341939Y370965D01*
X342005D01*
X342061Y370928D01*
X343394Y370663D01*
X343459Y370676D01*
X343520Y370651D01*
X344880D01*
X344941Y370676D01*
X345006Y370663D01*
X346339Y370928D01*
X346395Y370965D01*
X346461D01*
X347717Y371485D01*
X347764Y371532D01*
X347829Y371545D01*
X348959Y372300D01*
X348996Y372356D01*
X349058Y372381D01*
X350019Y373342D01*
X350044Y373404D01*
X350100Y373441D01*
X350855Y374571D01*
X350868Y374636D01*
X350915Y374683D01*
X351435Y375939D01*
Y376005D01*
X351472Y376061D01*
X351737Y377394D01*
X351724Y377459D01*
X351749Y377520D01*
Y378200D01*
Y378880D01*
X351724Y378941D01*
X351737Y379006D01*
X351472Y380339D01*
X351435Y380395D01*
Y380461D01*
X350915Y381717D01*
X350868Y381764D01*
X350855Y381829D01*
X350100Y382959D01*
X350044Y382996D01*
X350019Y383058D01*
X349058Y384019D01*
X348996Y384044D01*
X348959Y384100D01*
X347829Y384855D01*
X347764Y384868D01*
X347717Y384915D01*
X346461Y385435D01*
X346395D01*
X346339Y385472D01*
X345006Y385737D01*
X344941Y385724D01*
X344880Y385749D01*
D02*
G37*
G36*
Y256849D02*
X343520D01*
X343459Y256824D01*
X343394Y256837D01*
X342061Y256572D01*
X342005Y256535D01*
X341939D01*
X340683Y256015D01*
X340636Y255968D01*
X340571Y255955D01*
X339441Y255200D01*
X339404Y255144D01*
X339342Y255119D01*
X338381Y254158D01*
X338356Y254096D01*
X338300Y254059D01*
X337545Y252929D01*
X337532Y252864D01*
X337485Y252817D01*
X336965Y251561D01*
Y251495D01*
X336928Y251439D01*
X336663Y250106D01*
X336676Y250041D01*
X336651Y249980D01*
Y249300D01*
Y248620D01*
X336676Y248559D01*
X336663Y248494D01*
X336928Y247161D01*
X336965Y247105D01*
Y247039D01*
X337485Y245783D01*
X337532Y245736D01*
X337545Y245671D01*
X338300Y244541D01*
X338356Y244504D01*
X338381Y244442D01*
X339342Y243481D01*
X339404Y243456D01*
X339441Y243400D01*
X340571Y242645D01*
X340636Y242632D01*
X340683Y242585D01*
X341939Y242065D01*
X342005D01*
X342061Y242028D01*
X343394Y241763D01*
X343459Y241776D01*
X343520Y241751D01*
X344880D01*
X344941Y241776D01*
X345006Y241763D01*
X346339Y242028D01*
X346395Y242065D01*
X346461D01*
X347717Y242585D01*
X347764Y242632D01*
X347829Y242645D01*
X348959Y243400D01*
X348996Y243456D01*
X349058Y243481D01*
X350019Y244442D01*
X350044Y244504D01*
X350100Y244541D01*
X350855Y245671D01*
X350868Y245736D01*
X350915Y245783D01*
X351435Y247039D01*
Y247105D01*
X351472Y247161D01*
X351737Y248494D01*
X351724Y248559D01*
X351749Y248620D01*
Y249300D01*
Y249980D01*
X351724Y250041D01*
X351737Y250106D01*
X351472Y251439D01*
X351435Y251495D01*
Y251561D01*
X350915Y252817D01*
X350868Y252864D01*
X350855Y252929D01*
X350100Y254059D01*
X350044Y254096D01*
X350019Y254158D01*
X349058Y255119D01*
X348996Y255144D01*
X348959Y255200D01*
X347829Y255955D01*
X347764Y255968D01*
X347717Y256015D01*
X346461Y256535D01*
X346395D01*
X346339Y256572D01*
X345006Y256837D01*
X344941Y256824D01*
X344880Y256849D01*
D02*
G37*
G36*
X522480Y385749D02*
X521120D01*
X521059Y385724D01*
X520994Y385737D01*
X519661Y385472D01*
X519605Y385435D01*
X519539D01*
X518283Y384915D01*
X518236Y384868D01*
X518171Y384855D01*
X517041Y384100D01*
X517004Y384044D01*
X516942Y384019D01*
X515981Y383058D01*
X515956Y382996D01*
X515900Y382959D01*
X515145Y381829D01*
X515132Y381764D01*
X515085Y381717D01*
X514565Y380461D01*
Y380395D01*
X514528Y380339D01*
X514263Y379006D01*
X514276Y378941D01*
X514251Y378880D01*
Y378200D01*
Y377520D01*
X514276Y377459D01*
X514263Y377394D01*
X514528Y376061D01*
X514565Y376005D01*
Y375939D01*
X515085Y374683D01*
X515132Y374636D01*
X515145Y374571D01*
X515900Y373441D01*
X515956Y373404D01*
X515981Y373342D01*
X516942Y372381D01*
X517004Y372356D01*
X517041Y372300D01*
X518171Y371545D01*
X518236Y371532D01*
X518283Y371485D01*
X519539Y370965D01*
X519605D01*
X519661Y370928D01*
X520994Y370663D01*
X521059Y370676D01*
X521120Y370651D01*
X522480D01*
X522541Y370676D01*
X522606Y370663D01*
X523939Y370928D01*
X523995Y370965D01*
X524061D01*
X525317Y371485D01*
X525364Y371532D01*
X525429Y371545D01*
X526559Y372300D01*
X526596Y372356D01*
X526658Y372381D01*
X527619Y373342D01*
X527644Y373404D01*
X527700Y373441D01*
X528455Y374571D01*
X528468Y374636D01*
X528515Y374683D01*
X529035Y375939D01*
Y376005D01*
X529072Y376061D01*
X529337Y377394D01*
X529324Y377459D01*
X529349Y377520D01*
Y378200D01*
Y378880D01*
X529324Y378941D01*
X529337Y379006D01*
X529072Y380339D01*
X529035Y380395D01*
Y380461D01*
X528515Y381717D01*
X528468Y381764D01*
X528455Y381829D01*
X527700Y382959D01*
X527644Y382996D01*
X527619Y383058D01*
X526658Y384019D01*
X526596Y384044D01*
X526559Y384100D01*
X525429Y384855D01*
X525364Y384868D01*
X525317Y384915D01*
X524061Y385435D01*
X523995D01*
X523939Y385472D01*
X522606Y385737D01*
X522541Y385724D01*
X522480Y385749D01*
D02*
G37*
G36*
Y255849D02*
X521120D01*
X521059Y255824D01*
X520994Y255837D01*
X519661Y255572D01*
X519605Y255535D01*
X519539D01*
X518283Y255015D01*
X518236Y254968D01*
X518171Y254955D01*
X517041Y254200D01*
X517004Y254144D01*
X516942Y254119D01*
X515981Y253158D01*
X515956Y253096D01*
X515900Y253059D01*
X515145Y251929D01*
X515132Y251864D01*
X515085Y251817D01*
X514565Y250561D01*
Y250495D01*
X514528Y250439D01*
X514263Y249106D01*
X514276Y249041D01*
X514251Y248980D01*
Y248300D01*
Y247620D01*
X514276Y247559D01*
X514263Y247494D01*
X514528Y246161D01*
X514565Y246105D01*
Y246039D01*
X515085Y244783D01*
X515132Y244736D01*
X515145Y244671D01*
X515900Y243541D01*
X515956Y243504D01*
X515981Y243442D01*
X516942Y242481D01*
X517004Y242456D01*
X517041Y242400D01*
X518171Y241645D01*
X518236Y241632D01*
X518283Y241585D01*
X519539Y241065D01*
X519605D01*
X519661Y241028D01*
X520994Y240763D01*
X521059Y240776D01*
X521120Y240751D01*
X522480D01*
X522541Y240776D01*
X522606Y240763D01*
X523939Y241028D01*
X523995Y241065D01*
X524061D01*
X525317Y241585D01*
X525364Y241632D01*
X525429Y241645D01*
X526559Y242400D01*
X526596Y242456D01*
X526658Y242481D01*
X527619Y243442D01*
X527644Y243504D01*
X527700Y243541D01*
X528455Y244671D01*
X528468Y244736D01*
X528515Y244783D01*
X529035Y246039D01*
Y246105D01*
X529072Y246161D01*
X529337Y247494D01*
X529324Y247559D01*
X529349Y247620D01*
Y248300D01*
Y248980D01*
X529324Y249041D01*
X529337Y249106D01*
X529072Y250439D01*
X529035Y250495D01*
Y250561D01*
X528515Y251817D01*
X528468Y251864D01*
X528455Y251929D01*
X527700Y253059D01*
X527644Y253096D01*
X527619Y253158D01*
X526658Y254119D01*
X526596Y254144D01*
X526559Y254200D01*
X525429Y254955D01*
X525364Y254968D01*
X525317Y255015D01*
X524061Y255535D01*
X523995D01*
X523939Y255572D01*
X522606Y255837D01*
X522541Y255824D01*
X522480Y255849D01*
D02*
G37*
%LPD*%
D10*
X478500Y386000D02*
Y390000D01*
Y386000D02*
X482500D01*
X474500D02*
X478500D01*
Y382000D02*
Y386000D01*
X392500Y362700D02*
X398500D01*
X386500D02*
X392500D01*
Y348700D02*
X398500D01*
X386500D02*
X392500D01*
Y346900D02*
Y348700D01*
X432803Y325244D02*
X433000D01*
X431728Y324170D02*
X432803Y325244D01*
X431728Y323973D02*
Y324170D01*
X426000Y318245D02*
X431728Y323973D01*
X426000Y309000D02*
Y318245D01*
Y309000D02*
X428500D01*
X446000Y291500D01*
X396500Y312202D02*
X399000D01*
X394000D02*
X396500D01*
Y306000D02*
Y312202D01*
X433000Y330755D02*
Y339000D01*
X404000Y274798D02*
Y283996D01*
X393500Y288500D02*
X448064D01*
X454532Y294968D01*
X402683Y286500D02*
X461426D01*
X469532Y278394D01*
X456100Y284900D02*
X459532Y281468D01*
X396701Y280517D02*
X402683Y286500D01*
X414665Y284900D02*
X456100D01*
X411299Y281535D02*
X414665Y284900D01*
X454532Y294968D02*
Y312202D01*
X406600Y263400D02*
X426865D01*
X399000Y271000D02*
Y274798D01*
Y271000D02*
X406600Y263400D01*
X395255Y300756D02*
X395600Y301100D01*
X396494D01*
X404000Y308606D01*
X454532Y274798D02*
X459532D01*
X426000Y268000D02*
Y278000D01*
X423000Y265000D02*
X426000Y268000D01*
X415500Y265000D02*
X423000D01*
X409000Y271500D02*
X415500Y265000D01*
X409000Y271500D02*
Y274798D01*
X426865Y263400D02*
X441000Y277535D01*
X459532Y274798D02*
Y281468D01*
X394000Y274798D02*
X399000D01*
X469532D02*
Y278394D01*
X454532Y312202D02*
X459532D01*
X469532D02*
X469572Y312161D01*
Y306928D02*
Y312161D01*
Y306928D02*
X476489Y300011D01*
X464532Y306543D02*
Y312202D01*
X457745Y299756D02*
X464532Y306543D01*
X409000Y305011D02*
Y312202D01*
Y305011D02*
X413256Y300756D01*
X404000Y308606D02*
Y312202D01*
X384000Y352086D02*
Y356514D01*
X384586Y357100D02*
X392500D01*
X384000Y356514D02*
X384586Y357100D01*
Y351500D02*
X392500D01*
X384000Y352086D02*
X384586Y351500D01*
X399200Y354300D02*
X404000Y349500D01*
X392500Y354300D02*
X399200D01*
X392500Y357100D02*
X413613D01*
X415013Y358500D01*
X415500D01*
X417000Y360000D01*
X438298D01*
X468202Y385702D02*
X468500Y386000D01*
X464000Y385702D02*
X468202D01*
X438298Y360000D02*
X464000Y385702D01*
X428000Y365500D02*
X448500Y386000D01*
X392500Y365500D02*
X428000D01*
X420800Y368300D02*
X438500Y386000D01*
X392500Y368300D02*
X420800D01*
X413600Y371100D02*
X428500Y386000D01*
X392500Y371100D02*
X413600D01*
X392500Y373900D02*
X406400D01*
X418500Y386000D01*
X392500Y376700D02*
X403700D01*
X408500Y381500D01*
Y386000D01*
D13*
X392500Y382300D02*
D03*
Y379500D02*
D03*
Y376700D02*
D03*
Y373900D02*
D03*
Y371100D02*
D03*
Y368300D02*
D03*
Y365500D02*
D03*
Y362700D02*
D03*
Y359900D02*
D03*
Y357100D02*
D03*
Y348700D02*
D03*
Y354300D02*
D03*
Y351500D02*
D03*
D14*
X419000Y312202D02*
D03*
X414000D02*
D03*
X409000D02*
D03*
X404000D02*
D03*
X399000D02*
D03*
X394000D02*
D03*
X389000D02*
D03*
X384000D02*
D03*
X419000Y274798D02*
D03*
X414000D02*
D03*
X409000D02*
D03*
X404000D02*
D03*
X399000D02*
D03*
X394000D02*
D03*
X389000D02*
D03*
X384000D02*
D03*
X479532Y312202D02*
D03*
X474532D02*
D03*
X469532D02*
D03*
X464532D02*
D03*
X459532D02*
D03*
X454532D02*
D03*
X449532D02*
D03*
X444532D02*
D03*
X479532Y274798D02*
D03*
X474532D02*
D03*
X469532D02*
D03*
X464532D02*
D03*
X459532D02*
D03*
X454532D02*
D03*
X449532D02*
D03*
X444532D02*
D03*
D15*
X433000Y325244D02*
D03*
Y330755D02*
D03*
D21*
X472500Y386000D02*
G03*
X464685Y387202I-4000J0D01*
G01*
X482900Y386000D02*
G03*
X482900Y386000I-4400J0D01*
G01*
X464927Y384202D02*
G03*
X472500Y386000I3573J1798D01*
G01*
X464000Y387202D02*
G03*
X462939Y386762I0J-1500D01*
G01*
X462488Y386311D02*
G03*
X458189Y382012I-3988J-311D01*
G01*
X464000Y387202D02*
G03*
X462940Y386763I0J-1500D01*
G01*
X452500Y386000D02*
G03*
X444817Y384439I-4000J0D01*
G01*
X446939Y382317D02*
G03*
X452500Y386000I1561J3683D01*
G01*
X442500D02*
G03*
X434817Y384439I-4000J0D01*
G01*
X436939Y382317D02*
G03*
X442500Y386000I1561J3683D01*
G01*
D02*
G03*
X434817Y384439I-4000J0D01*
G01*
X436939Y382317D02*
G03*
X442500Y386000I1561J3683D01*
G01*
X432500D02*
G03*
X424817Y384439I-4000J0D01*
G01*
X426939Y382317D02*
G03*
X432500Y386000I1561J3683D01*
G01*
X416939Y382317D02*
G03*
X422500Y386000I1561J3683D01*
G01*
X428000Y364000D02*
G03*
X429061Y364439I0J1500D01*
G01*
X428000Y364000D02*
G03*
X429060Y364439I0J1500D01*
G01*
X421548Y367000D02*
G03*
X421860Y367239I-748J1300D01*
G01*
X421548Y367000D02*
G03*
X421861Y367239I-748J1300D01*
G01*
X438298Y358500D02*
G03*
X439359Y358939I0J1500D01*
G01*
X438298Y358500D02*
G03*
X439358Y358939I0J1500D01*
G01*
X434500Y339000D02*
G03*
X431500Y339000I-1500J0D01*
G01*
X417000Y361500D02*
G03*
X415940Y361061I0J-1500D01*
G01*
X417000Y361500D02*
G03*
X415939Y361061I0J-1500D01*
G01*
X414830Y356195D02*
G03*
X417900Y358500I670J2304D01*
G01*
X422500Y386000D02*
G03*
X414817Y384439I-4000J0D01*
G01*
X409561Y380440D02*
G03*
X410000Y381500I-1061J1060D01*
G01*
X409561Y380439D02*
G03*
X410000Y381500I-1061J1061D01*
G01*
X414348Y369800D02*
G03*
X414661Y370039I-748J1300D01*
G01*
X414348Y369800D02*
G03*
X414660Y370039I-748J1300D01*
G01*
X404448Y375400D02*
G03*
X404760Y375639I-748J1300D01*
G01*
X407148Y372600D02*
G03*
X407461Y372839I-748J1300D01*
G01*
X404448Y375400D02*
G03*
X404761Y375639I-748J1300D01*
G01*
X407148Y372600D02*
G03*
X407460Y372839I-748J1300D01*
G01*
X413613Y355600D02*
G03*
X414673Y356039I0J1500D01*
G01*
X415764Y360885D02*
G03*
X413110Y358718I-264J-2385D01*
G01*
X413613Y355600D02*
G03*
X414674Y356039I0J1500D01*
G01*
X400261Y355361D02*
G03*
X399948Y355600I-1061J-1061D01*
G01*
X400260Y355361D02*
G03*
X399948Y355600I-1060J-1061D01*
G01*
X406400Y349500D02*
G03*
X403736Y351885I-2400J0D01*
G01*
X401615Y349764D02*
G03*
X406400Y349500I2385J-264D01*
G01*
X384586Y358600D02*
G03*
X383526Y358161I0J-1500D01*
G01*
X384586Y358600D02*
G03*
X383525Y358161I0J-1500D01*
G01*
X382939Y357574D02*
G03*
X382500Y356514I1061J-1060D01*
G01*
X382939Y357575D02*
G03*
X382500Y356514I1061J-1061D01*
G01*
X383526Y350439D02*
G03*
X384586Y350000I1060J1061D01*
G01*
X383525Y350439D02*
G03*
X384586Y350000I1061J1061D01*
G01*
X382500Y352086D02*
G03*
X382939Y351026I1500J0D01*
G01*
X382500Y352086D02*
G03*
X382939Y351025I1500J0D01*
G01*
X478059Y390378D02*
X479681Y392000D01*
X476327D02*
X477960Y390367D01*
X487641Y392000D02*
X488000Y391641D01*
X480453Y389943D02*
X482510Y392000D01*
X469144Y389948D02*
X471196Y392000D01*
X467842D02*
X470240Y389602D01*
X473499Y392000D02*
X475928Y389570D01*
X471081Y389056D02*
X474024Y392000D01*
X481984D02*
X488000Y385984D01*
X479156Y392000D02*
X488000Y383156D01*
X484812Y392000D02*
X488000Y388812D01*
X482847Y386681D02*
X488000Y391833D01*
X472249Y387396D02*
X476853Y392000D01*
X470670D02*
X474611Y388059D01*
X482002Y388664D02*
X485338Y392000D01*
X457825Y389943D02*
X459882Y392000D01*
X456528D02*
X458528Y390000D01*
X465014Y392000D02*
X467223Y389791D01*
X460289Y389578D02*
X462711Y392000D01*
X449313Y389916D02*
X451397Y392000D01*
X448043D02*
X450706Y389336D01*
X453700Y392000D02*
X456336Y389364D01*
X451188Y388962D02*
X454225Y392000D01*
X462185D02*
X465519Y388667D01*
X459357Y392000D02*
X464155Y387202D01*
X463474Y387106D02*
X468368Y392000D01*
X461800Y388261D02*
X465539Y392000D01*
X450871D02*
X454977Y387894D01*
X442499Y385931D02*
X448569Y392000D01*
X452301Y387247D02*
X457054Y392000D01*
X472226Y384544D02*
X474122Y386441D01*
X472102Y387740D02*
X474108Y385734D01*
X464621Y384202D02*
X464927D01*
X464000Y387202D02*
X464685D01*
X482867Y385460D02*
X488000Y380327D01*
X482070Y383428D02*
X488000Y377499D01*
X480559Y382111D02*
X488000Y374670D01*
X478234Y381608D02*
X488000Y371842D01*
X462488Y386311D02*
X462939Y386762D01*
X451836Y388207D02*
X454530Y385513D01*
X452062Y384179D02*
X454557Y386675D01*
X452339Y384876D02*
X456696Y380519D01*
X451271Y383115D02*
X455281Y379104D01*
X449444Y382113D02*
X453867Y377690D01*
X446675Y382054D02*
X452453Y376276D01*
X445261Y380640D02*
X451039Y374862D01*
X443847Y379226D02*
X449625Y373448D01*
X442433Y377811D02*
X448210Y372034D01*
X442386Y392000D02*
X445615Y388771D01*
X440420Y389509D02*
X442912Y392000D01*
X445215D02*
X447376Y389839D01*
X441880Y388140D02*
X445740Y392000D01*
X433901D02*
X436460Y389441D01*
X432348Y387093D02*
X437255Y392000D01*
X438059Y389976D02*
X440083Y392000D01*
X436729D02*
X438736Y389993D01*
X439558Y392000D02*
X444613Y386945D01*
X442493Y386236D02*
X444554Y384175D01*
X431746Y383663D02*
X434524Y386441D01*
X429477Y389879D02*
X431598Y392000D01*
X425416D02*
X427534Y389882D01*
X431291Y388865D02*
X434426Y392000D01*
X429477Y389879D02*
X431598Y392000D01*
X418278Y389994D02*
X420284Y392000D01*
X416930D02*
X418956Y389974D01*
X422587Y392000D02*
X425715Y388872D01*
X420548Y389436D02*
X423113Y392000D01*
X431072D02*
X435049Y388023D01*
X428244Y392000D02*
X434509Y385735D01*
X422490Y385721D02*
X428769Y392000D01*
X421956Y388015D02*
X425941Y392000D01*
X419759D02*
X424655Y387104D01*
X422474Y386456D02*
X424654Y384276D01*
X441941Y383960D02*
X443140Y382761D01*
X440523Y382549D02*
X441726Y381347D01*
X438235Y382009D02*
X440311Y379933D01*
X436018Y381397D02*
X438897Y378518D01*
X432382Y385034D02*
X433897Y383518D01*
X431372Y383215D02*
X432483Y382104D01*
X429603Y382155D02*
X431069Y380690D01*
X434604Y379983D02*
X437483Y377104D01*
X433190Y378569D02*
X436069Y375690D01*
X441018Y376397D02*
X446796Y370619D01*
X431776Y377154D02*
X434655Y374276D01*
X430362Y375740D02*
X433240Y372862D01*
X428947Y374326D02*
X431826Y371447D01*
X427533Y372912D02*
X430412Y370033D01*
X422014Y384088D02*
X423240Y382862D01*
X426776Y382154D02*
X429655Y379276D01*
X425362Y380740D02*
X428240Y377862D01*
X420648Y382626D02*
X421826Y381447D01*
X418445Y382000D02*
X420412Y380033D01*
X416119Y381498D02*
X418998Y378619D01*
X423947Y379326D02*
X426826Y376447D01*
X414661Y370040D02*
X426939Y382317D01*
X422533Y377912D02*
X425412Y375033D01*
X421119Y376498D02*
X423998Y373619D01*
X419705Y375083D02*
X422583Y372205D01*
X414705Y380083D02*
X417583Y377205D01*
X418291Y373669D02*
X421169Y370791D01*
X463060Y382640D02*
X488000Y357700D01*
X461645Y381226D02*
X488000Y354871D01*
X460231Y379812D02*
X488000Y352043D01*
X458817Y378397D02*
X488000Y349214D01*
X472291Y384723D02*
X488000Y369014D01*
X464474Y384054D02*
X488000Y360528D01*
X471167Y383018D02*
X488000Y366185D01*
X469280Y382077D02*
X488000Y363357D01*
Y340020D02*
Y392000D01*
X447500Y340020D02*
X488000Y380520D01*
X453157Y340020D02*
X488000Y374863D01*
X450328Y340020D02*
X488000Y377691D01*
X457403Y376983D02*
X488000Y346386D01*
X444671Y340020D02*
X488000Y383348D01*
X455989Y375569D02*
X488000Y343558D01*
X439360Y358940D02*
X464621Y384202D01*
X435039Y361500D02*
X456239Y382700D01*
X437677Y361500D02*
X458189Y382012D01*
X433677Y340339D02*
X475836Y382498D01*
X432211Y361500D02*
X454922Y384211D01*
X429382Y361500D02*
X450321Y382438D01*
X429061Y364440D02*
X446939Y382317D01*
X426554Y361500D02*
X447253Y382199D01*
X440823Y339000D02*
X488000Y386177D01*
X437995Y339000D02*
X488000Y389005D01*
X435167Y339000D02*
X477819Y381653D01*
X429510Y339000D02*
X474557Y384047D01*
X426681Y339000D02*
X469955Y382274D01*
X422044Y340020D02*
X465444Y383419D01*
X423992Y339139D02*
X467104Y382251D01*
X481441Y340020D02*
X488000Y346579D01*
X478613Y340020D02*
X488000Y349407D01*
X487098Y340020D02*
X488000Y340922D01*
X484270Y340020D02*
X488000Y343750D01*
X470127Y340020D02*
X488000Y357892D01*
X454574Y374155D02*
X488000Y340729D01*
X475784Y340020D02*
X488000Y352235D01*
X472956Y340020D02*
X488000Y355064D01*
X458814Y340020D02*
X488000Y369206D01*
X455985Y340020D02*
X488000Y372034D01*
X467299Y340020D02*
X488000Y360721D01*
X461642Y340020D02*
X488000Y366378D01*
X453160Y372741D02*
X485881Y340020D01*
X451746Y371326D02*
X483053Y340020D01*
X464470D02*
X488000Y363549D01*
X441847Y361427D02*
X463254Y340020D01*
X440432Y360013D02*
X460425Y340020D01*
X438962Y358655D02*
X457597Y340020D01*
X436288Y358500D02*
X454769Y340020D01*
X430631Y358500D02*
X449112Y340020D01*
X427803Y358500D02*
X446283Y340020D01*
X433460Y358500D02*
X451940Y340020D01*
X450332Y369912D02*
X480224Y340020D01*
X448918Y368498D02*
X477396Y340020D01*
X447503Y367084D02*
X474568Y340020D01*
X443000D02*
X488000D01*
X446089Y365669D02*
X471739Y340020D01*
X444675Y364255D02*
X468911Y340020D01*
X443261Y362841D02*
X466082Y340020D01*
X427379Y367000D02*
X444817Y384439D01*
X426397Y367000D02*
X444584Y385187D01*
X439604Y374983D02*
X445382Y369205D01*
X438190Y373569D02*
X443968Y367791D01*
X436776Y372154D02*
X442554Y366377D01*
X423569Y367000D02*
X438569Y382001D01*
X426119Y371498D02*
X428998Y368619D01*
X424705Y370083D02*
X427583Y367205D01*
X435362Y370740D02*
X441139Y364962D01*
X433947Y369326D02*
X439725Y363548D01*
X432533Y367912D02*
X438311Y362134D01*
X431119Y366498D02*
X436117Y361500D01*
X429705Y365083D02*
X433288Y361500D01*
X420179Y369800D02*
X434817Y384439D01*
X417883Y369800D02*
X430837Y382754D01*
X421861Y367240D02*
X436939Y382317D01*
X415055Y369800D02*
X427407Y382152D01*
X416876Y372255D02*
X419331Y369800D01*
X415462Y370841D02*
X416503Y369800D01*
X423290Y368669D02*
X424960Y367000D01*
X421548D02*
X427379D01*
X422303Y364000D02*
X424803Y361500D01*
X420897D02*
X423397Y364000D01*
X421876Y367255D02*
X422131Y367000D01*
X419474Y364000D02*
X421974Y361500D01*
X416646Y364000D02*
X419146Y361500D01*
X424974Y358500D02*
X443455Y340020D01*
X442610Y339942D02*
X443000Y340020D01*
X442279Y339721D02*
X442610Y339942D01*
X425131Y364000D02*
X427631Y361500D01*
X423725D02*
X426225Y364000D01*
X427960D02*
X430460Y361500D01*
X442058Y339390D02*
X442279Y339721D01*
X441980Y339000D02*
X442058Y339390D01*
X434500Y339000D02*
X441980D01*
X423942Y339390D02*
X424020Y339000D01*
X423721Y339721D02*
X423942Y339390D01*
X424020Y339000D02*
X431500D01*
X418069Y361500D02*
X420569Y364000D01*
X417000Y361500D02*
X437677D01*
X417900Y358500D02*
X438298D01*
X416007Y356154D02*
X432023Y340138D01*
X422146Y358500D02*
X441646Y339000D01*
X419317Y358500D02*
X438818Y339000D01*
X419216Y340020D02*
X437696Y358500D01*
X417618Y357371D02*
X435989Y339000D01*
X423000Y340020D02*
X423390Y339942D01*
X416387Y340020D02*
X434868Y358500D01*
X423390Y339942D02*
X423721Y339721D01*
X414102Y392000D02*
X416588Y389514D01*
X411273Y392000D02*
X415126Y388148D01*
X412500Y387044D02*
X417456Y392000D01*
X412500Y389873D02*
X414627Y392000D01*
X409799Y390000D02*
X411799Y392000D01*
X412500Y384216D02*
X414506Y386222D01*
X412500Y387945D02*
X414500Y385945D01*
X412198Y372600D02*
X424621Y385023D01*
X412198Y372600D02*
X424621Y385023D01*
X412979Y372600D02*
X424817Y384439D01*
X409370Y372600D02*
X418779Y382010D01*
X412500Y385117D02*
X413998Y383619D01*
X412500Y382121D02*
Y390000D01*
Y382121D02*
X414817Y384439D01*
X408445Y392000D02*
X410445Y390000D01*
X378000Y392000D02*
X488000D01*
X406971Y390000D02*
X408970Y392000D01*
X404500Y390000D02*
X412500D01*
X399960Y392000D02*
X404500Y387460D01*
X397131Y392000D02*
X404500Y384631D01*
X405617Y392000D02*
X407617Y390000D01*
X402788Y392000D02*
X404788Y390000D01*
X398242Y384100D02*
X406142Y392000D01*
X394303D02*
X405591Y380712D01*
X407461Y372840D02*
X416939Y382317D01*
X405779Y375400D02*
X412379Y382000D01*
X404500D02*
Y390000D01*
X398500Y381529D02*
X404500Y387529D01*
X398500Y378701D02*
X404500Y384701D01*
X410000Y381716D02*
X410284Y382000D01*
X410000D02*
X412379D01*
X413291Y378669D02*
X416169Y375791D01*
X410000Y381960D02*
X411169Y380790D01*
X410000Y381500D02*
Y382000D01*
X409126Y380005D02*
X409755Y379376D01*
X411876Y377255D02*
X414755Y374376D01*
X414348Y369800D02*
X420179D01*
X413818Y364000D02*
X416430Y361387D01*
X410462Y375841D02*
X413341Y372962D01*
X409048Y374427D02*
X410874Y372600D01*
X404761Y375640D02*
X409560Y380439D01*
X404500Y382000D02*
X406879D01*
X407712Y378591D02*
X408341Y377962D01*
X406298Y377176D02*
X406926Y376548D01*
X403079Y378200D02*
X406879Y382000D01*
X400827Y378200D02*
X404627Y382000D01*
X404884Y375762D02*
X405246Y375400D01*
X407634Y373012D02*
X408046Y372600D01*
X407148D02*
X412979D01*
X398900Y364000D02*
X428000D01*
X404448Y375400D02*
X405779D01*
X395414Y384100D02*
X403314Y392000D01*
X392585Y384100D02*
X400485Y392000D01*
X398500Y381300D02*
Y384100D01*
X389757D02*
X397657Y392000D01*
X388646D02*
X396546Y384100D01*
X386928D02*
X394828Y392000D01*
X386500Y383672D02*
X386928Y384100D01*
X386500Y381300D02*
Y384100D01*
X398500Y382146D02*
X402446Y378200D01*
X391474Y392000D02*
X404177Y379298D01*
X398500Y380500D02*
Y381300D01*
Y380500D02*
Y381300D01*
X386500Y380500D02*
Y381300D01*
Y380500D02*
Y381300D01*
Y378500D02*
Y380500D01*
X382989Y392000D02*
X390889Y384100D01*
X380161Y392000D02*
X388061Y384100D01*
X386500D02*
X398500D01*
X385818Y392000D02*
X393718Y384100D01*
X378000Y386485D02*
X383515Y392000D01*
X378000Y389314D02*
X380686Y392000D01*
X378000Y391332D02*
X386500Y382832D01*
X378000Y383657D02*
X386343Y392000D01*
X378000Y378000D02*
X392000Y392000D01*
X378000Y380828D02*
X389172Y392000D01*
X378000Y385675D02*
X386500Y377175D01*
X378000Y388504D02*
X386500Y380004D01*
X378000Y382847D02*
X386500Y374347D01*
X378000Y375172D02*
X386500Y383672D01*
X378000Y372343D02*
X386500Y380843D01*
X398500Y379317D02*
X399618Y378200D01*
X398500Y378500D02*
Y380500D01*
Y378200D02*
X403079D01*
X386500Y377700D02*
Y378500D01*
Y375700D02*
Y377700D01*
Y378500D01*
Y374900D02*
Y375700D01*
Y374900D02*
Y375700D01*
Y367300D02*
Y369300D01*
Y370100D01*
X398900Y362130D02*
X400770Y364000D01*
X386500Y372100D02*
Y372900D01*
Y374900D01*
Y372100D02*
Y372900D01*
X378000Y366686D02*
X386500Y375186D01*
X378000Y377190D02*
X386500Y368690D01*
Y366500D02*
Y367300D01*
Y369300D02*
Y370100D01*
X378000Y369515D02*
X386500Y378015D01*
X378000Y380018D02*
X386500Y371518D01*
Y370100D02*
Y372100D01*
Y366500D02*
Y367300D01*
X378000Y374362D02*
X386500Y365862D01*
Y364900D02*
Y366500D01*
X378000Y371533D02*
X386100Y363433D01*
X378000Y363858D02*
X386500Y372358D01*
X386100Y364900D02*
X386500D01*
X414343Y360602D02*
X417740Y364000D01*
X409512Y358600D02*
X414912Y364000D01*
X410989D02*
X414371Y360618D01*
X408161Y364000D02*
X413154Y359007D01*
X412340Y358600D02*
X413398Y359657D01*
X406683Y358600D02*
X412083Y364000D01*
X413559Y340020D02*
X432039Y358500D01*
X410730Y340020D02*
X429211Y358500D01*
X413728Y355604D02*
X430332Y339000D01*
X410904Y355600D02*
X427504Y339000D01*
X407902Y340020D02*
X426382Y358500D01*
X406380Y349811D02*
X412169Y355600D01*
X401026Y358600D02*
X406426Y364000D01*
X399675D02*
X405075Y358600D01*
X403855D02*
X409255Y364000D01*
X402504D02*
X407904Y358600D01*
X398500Y358902D02*
X403598Y364000D01*
X398500Y358902D02*
X403598Y364000D01*
X398900Y360500D02*
Y364000D01*
X398500Y360500D02*
X398900D01*
X405073Y340020D02*
X423554Y358500D01*
X398500Y358600D02*
X412992D01*
X402245Y340020D02*
X420725Y358500D01*
X399417Y340020D02*
X415497Y356100D01*
X405332Y364000D02*
X410732Y358600D01*
X398900Y361947D02*
X402247Y358600D01*
X398500Y359519D02*
X399418Y358600D01*
X405274Y351534D02*
X409340Y355600D01*
X399948D02*
X413613D01*
X403266Y352355D02*
X406512Y355600D01*
X400261Y355360D02*
X403736Y351885D01*
X401852Y353769D02*
X403683Y355600D01*
X400438Y355183D02*
X400855Y355600D01*
X408075D02*
X424675Y339000D01*
X405247Y355600D02*
X420827Y340020D01*
X406317Y348873D02*
X415170Y340020D01*
X402419Y355600D02*
X417999Y340020D01*
X405030Y347332D02*
X412342Y340020D01*
X398900Y350817D02*
X399731Y351648D01*
X398579Y352800D02*
X401615Y349764D01*
X398900Y347988D02*
X401145Y350234D01*
X398500Y350900D02*
X398900D01*
Y346500D02*
Y350900D01*
X398633D02*
X398900Y350633D01*
X386100Y346500D02*
X398900D01*
Y347805D02*
X406685Y340020D01*
X398900Y350633D02*
X409514Y340020D01*
X397376Y346500D02*
X403857Y340020D01*
X378000D02*
X423000D01*
X396588D02*
X403689Y347120D01*
X393760Y340020D02*
X401966Y348226D01*
X394548Y346500D02*
X401028Y340020D01*
X386500Y358900D02*
Y360500D01*
X386205D02*
X386500Y360205D01*
X398500Y358900D02*
Y360500D01*
X386100D02*
X386500D01*
X386100D02*
Y364900D01*
X383879Y358423D02*
X386100Y360644D01*
X384586Y358600D02*
X386500D01*
X385500Y355548D02*
X386500Y354548D01*
X385500Y355600D02*
X386500D01*
Y353300D02*
Y355300D01*
X385500Y354387D02*
X386500Y355387D01*
X382940Y357575D02*
X383524Y358160D01*
X385500Y353000D02*
Y355600D01*
X378000Y368705D02*
X386100Y360605D01*
X378000Y361030D02*
X386500Y369530D01*
X378000Y365876D02*
X385276Y358600D01*
X378000Y358201D02*
X386500Y366701D01*
X378000Y360220D02*
X382500Y355719D01*
X378000Y363048D02*
X383206Y357842D01*
X378000Y357391D02*
X382500Y352891D01*
X378000Y355373D02*
X386100Y363473D01*
X378000Y354563D02*
X392543Y340020D01*
X378000Y352544D02*
X382677Y357221D01*
X382500Y352086D02*
Y356514D01*
X378000Y340020D02*
Y392000D01*
Y349716D02*
X382500Y354216D01*
X398500Y350900D02*
Y352500D01*
X385500Y353000D02*
X386500D01*
X385391Y350000D02*
X386100Y349291D01*
X384586Y350000D02*
X386100D01*
X388891Y346500D02*
X395372Y340020D01*
X388103D02*
X394583Y346500D01*
X391720D02*
X398200Y340020D01*
X390931D02*
X397412Y346500D01*
X386100D02*
Y350000D01*
X385274Y340020D02*
X391755Y346500D01*
X382940Y351025D02*
X383524Y350440D01*
X378000Y344059D02*
X384043Y350102D01*
X379618Y340020D02*
X386100Y346502D01*
X378000Y341231D02*
X386100Y349330D01*
X378000Y346887D02*
X382617Y351504D01*
X378000Y348906D02*
X386886Y340020D01*
X378000Y351734D02*
X389715Y340020D01*
X382446D02*
X388926Y346500D01*
X379618Y340020D02*
X386100Y346502D01*
X378000Y343249D02*
X381229Y340020D01*
X378000Y346077D02*
X384058Y340020D01*
X378000Y340421D02*
X378401Y340020D01*
D22*
X466000Y289500D02*
X479500D01*
X483500Y285500D01*
Y265092D02*
Y285500D01*
X476407Y258000D02*
X483500Y265092D01*
X466407Y258000D02*
X476407D01*
X466407D02*
Y269327D01*
X464532Y271203D02*
X466407Y269327D01*
X464532Y271203D02*
Y274798D01*
D23*
X396408Y258000D02*
D03*
X386407D02*
D03*
X466407D02*
D03*
X456407D02*
D03*
X436407D02*
D03*
X426407D02*
D03*
X406407D02*
D03*
X446407D02*
D03*
D03*
X416407D02*
D03*
X468500Y386000D02*
D03*
X438500D02*
D03*
D03*
X478500D02*
D03*
X458500D02*
D03*
X448500D02*
D03*
X428500D02*
D03*
X418500D02*
D03*
D24*
X476407Y258000D02*
D03*
X408500Y386000D02*
D03*
D25*
X426000Y309000D02*
D03*
X396500Y306000D02*
D03*
X466000Y289500D02*
D03*
X404000Y283996D02*
D03*
X393500Y288500D02*
D03*
X446000Y291500D02*
D03*
X395255Y300756D02*
D03*
X411299Y281535D02*
D03*
X426000Y278000D02*
D03*
X441000Y277535D02*
D03*
X396701Y280517D02*
D03*
X476489Y300011D02*
D03*
X457745Y299756D02*
D03*
X413256Y300756D02*
D03*
X404000Y349500D02*
D03*
X415500Y358500D02*
D03*
M02*
