G04*
G04 #@! TF.GenerationSoftware,Altium Limited,Altium Designer,20.2.6 (244)*
G04*
G04 Layer_Color=255*
%FSLAX25Y25*%
%MOIN*%
G70*
G04*
G04 #@! TF.SameCoordinates,AC53DD8C-A68E-409E-BB1C-E70DDFC25F91*
G04*
G04*
G04 #@! TF.FilePolarity,Positive*
G04*
G01*
G75*
%ADD13R,0.10000X0.01600*%
%ADD14O,0.02260X0.09451*%
%ADD15R,0.03543X0.03150*%
%ADD23C,0.06000*%
%ADD24R,0.06000X0.06000*%
D13*
X392500Y382300D02*
D03*
Y379500D02*
D03*
Y376700D02*
D03*
Y373900D02*
D03*
Y371100D02*
D03*
Y368300D02*
D03*
Y365500D02*
D03*
Y362700D02*
D03*
Y359900D02*
D03*
Y357100D02*
D03*
Y348700D02*
D03*
Y354300D02*
D03*
Y351500D02*
D03*
D14*
X419000Y312202D02*
D03*
X414000D02*
D03*
X409000D02*
D03*
X404000D02*
D03*
X399000D02*
D03*
X394000D02*
D03*
X389000D02*
D03*
X384000D02*
D03*
X419000Y274798D02*
D03*
X414000D02*
D03*
X409000D02*
D03*
X404000D02*
D03*
X399000D02*
D03*
X394000D02*
D03*
X389000D02*
D03*
X384000D02*
D03*
X479532Y312202D02*
D03*
X474532D02*
D03*
X469532D02*
D03*
X464532D02*
D03*
X459532D02*
D03*
X454532D02*
D03*
X449532D02*
D03*
X444532D02*
D03*
X479532Y274798D02*
D03*
X474532D02*
D03*
X469532D02*
D03*
X464532D02*
D03*
X459532D02*
D03*
X454532D02*
D03*
X449532D02*
D03*
X444532D02*
D03*
D15*
X433000Y325244D02*
D03*
Y330755D02*
D03*
D23*
X396408Y258000D02*
D03*
X386407D02*
D03*
X466407D02*
D03*
X456407D02*
D03*
X436407D02*
D03*
X426407D02*
D03*
X406407D02*
D03*
X446407D02*
D03*
D03*
X416407D02*
D03*
X468500Y386000D02*
D03*
X438500D02*
D03*
D03*
X478500D02*
D03*
X458500D02*
D03*
X448500D02*
D03*
X428500D02*
D03*
X418500D02*
D03*
D24*
X476407Y258000D02*
D03*
X408500Y386000D02*
D03*
M02*
