G04*
G04 #@! TF.GenerationSoftware,Altium Limited,Altium Designer,20.2.6 (244)*
G04*
G04 Layer_Color=8388736*
%FSLAX24Y24*%
%MOIN*%
G70*
G04*
G04 #@! TF.SameCoordinates,FA5C595E-BAF6-4CA8-81BB-533EFFED9D24*
G04*
G04*
G04 #@! TF.FilePolarity,Positive*
G04*
G01*
G75*
%ADD11C,0.0100*%
%ADD134C,0.0024*%
D11*
X20921Y34850D02*
G03*
X20921Y34850I-71J0D01*
G01*
X41520Y6570D02*
Y20570D01*
X27300D02*
X41520D01*
X17600Y34650D02*
X20950D01*
X17600Y33100D02*
X20950D01*
X17600Y33125D02*
Y33575D01*
Y34175D02*
Y34625D01*
X20950Y34175D02*
Y34625D01*
Y33125D02*
Y33575D01*
X27300Y6570D02*
Y20570D01*
X41520Y6570D02*
X52520D01*
X16300D02*
X27300D01*
X16300D02*
Y42000D01*
X52520Y6570D02*
Y42000D01*
X16300D02*
X52520D01*
D134*
X50427Y35893D02*
G03*
X50427Y35893I-12J0D01*
G01*
Y35043D02*
G03*
X50427Y35043I-12J0D01*
G01*
X47947Y33057D02*
G03*
X47947Y33057I-12J0D01*
G01*
X47919Y33804D02*
G03*
X47919Y33804I-12J0D01*
G01*
X47947Y34634D02*
G03*
X47947Y34634I-12J0D01*
G01*
X47919Y35380D02*
G03*
X47919Y35380I-12J0D01*
G01*
X51269Y23471D02*
G03*
X51269Y23471I-12J0D01*
G01*
X50254Y22841D02*
G03*
X50254Y22841I-12J0D01*
G01*
X48947Y22557D02*
G03*
X48947Y22557I-12J0D01*
G01*
X49571Y23242D02*
G03*
X49571Y23242I-12J0D01*
G01*
X44969Y22392D02*
G03*
X44969Y22392I-12J0D01*
G01*
X46119Y17107D02*
G03*
X46119Y17107I-12J0D01*
G01*
Y16174D02*
G03*
X46119Y16174I-12J0D01*
G01*
Y15241D02*
G03*
X46119Y15241I-12J0D01*
G01*
Y14308D02*
G03*
X46119Y14308I-12J0D01*
G01*
X46147Y12357D02*
G03*
X46147Y12357I-12J0D01*
G01*
X50427Y40792D02*
G03*
X50427Y40792I-12J0D01*
G01*
Y39988D02*
G03*
X50427Y39988I-12J0D01*
G01*
X48571Y35893D02*
G03*
X48571Y35893I-12J0D01*
G01*
X47947Y37608D02*
G03*
X47947Y37608I-12J0D01*
G01*
X47919Y38451D02*
G03*
X47919Y38451I-12J0D01*
G01*
X47947Y39378D02*
G03*
X47947Y39378I-12J0D01*
G01*
X48571Y39947D02*
G03*
X48571Y39947I-12J0D01*
G01*
X47919Y41108D02*
G03*
X47919Y41108I-12J0D01*
G01*
X23019Y41267D02*
G03*
X23019Y41267I-12J0D01*
G01*
X22122Y40637D02*
G03*
X22122Y40637I-12J0D01*
G01*
X19619Y12737D02*
G03*
X19619Y12737I-12J0D01*
G01*
X18869Y12765D02*
G03*
X18869Y12765I-12J0D01*
G01*
X21777Y12092D02*
G03*
X21777Y12092I-12J0D01*
G01*
X22369Y14265D02*
G03*
X22369Y14265I-12J0D01*
G01*
X21412Y15408D02*
G03*
X21412Y15408I-12J0D01*
G01*
X21154Y16185D02*
G03*
X21154Y16185I-12J0D01*
G01*
X21854D02*
G03*
X21854Y16185I-12J0D01*
G01*
X22821Y23236D02*
G03*
X22821Y23236I-12J0D01*
G01*
X22197Y22708D02*
G03*
X22197Y22708I-12J0D01*
G01*
X19921Y21558D02*
G03*
X19921Y21558I-12J0D01*
G01*
X22169Y24358D02*
G03*
X22169Y24358I-12J0D01*
G01*
X44069Y11315D02*
G03*
X44069Y11315I-12J0D01*
G01*
X31928Y30587D02*
G03*
X31928Y30587I-12J0D01*
G01*
X32552Y30052D02*
G03*
X32552Y30052I-12J0D01*
G01*
X40654Y26515D02*
G03*
X40654Y26515I-12J0D01*
G01*
X47804Y26015D02*
G03*
X47804Y26015I-12J0D01*
G01*
X38354Y26515D02*
G03*
X38354Y26515I-12J0D01*
G01*
X31197Y21242D02*
G03*
X31197Y21242I-12J0D01*
G01*
X42923Y30842D02*
G03*
X42923Y30842I-12J0D01*
G01*
X35997Y31158D02*
G03*
X35997Y31158I-12J0D01*
G01*
X36627Y32292D02*
G03*
X36627Y32292I-12J0D01*
G01*
X42923Y32192D02*
G03*
X42923Y32192I-12J0D01*
G01*
X35719Y29618D02*
G03*
X35719Y29618I-12J0D01*
G01*
X24169Y37665D02*
G03*
X24169Y37665I-12J0D01*
G01*
X18954Y35865D02*
G03*
X18954Y35865I-12J0D01*
G01*
X47277Y38057D02*
G03*
X47277Y38057I-12J0D01*
G01*
X45354Y34715D02*
G03*
X45354Y34715I-12J0D01*
G01*
X47819Y32735D02*
G03*
X47819Y32735I-12J0D01*
G01*
X47747Y28088D02*
G03*
X47747Y28088I-12J0D01*
G01*
X47504Y34668D02*
G03*
X47504Y34668I-12J0D01*
G01*
X25369Y39885D02*
G03*
X25369Y39885I-12J0D01*
G01*
X24619D02*
G03*
X24619Y39885I-12J0D01*
G01*
X31313Y34030D02*
G03*
X31313Y34030I-12J0D01*
G01*
X30454Y34015D02*
G03*
X30454Y34015I-12J0D01*
G01*
X21569Y21409D02*
G03*
X21569Y21409I-12J0D01*
G01*
X19904Y40993D02*
G03*
X19904Y40993I-12J0D01*
G01*
X25477Y37708D02*
G03*
X25477Y37708I-12J0D01*
G01*
X18669Y40335D02*
G03*
X18669Y40335I-12J0D01*
G01*
X22047Y32943D02*
G03*
X22047Y32943I-12J0D01*
G01*
X19139Y40965D02*
G03*
X19139Y40965I-12J0D01*
G01*
X22427Y40849D02*
G03*
X22427Y40849I-12J0D01*
G01*
X23097Y40493D02*
G03*
X23097Y40493I-12J0D01*
G01*
X26904Y23265D02*
G03*
X26904Y23265I-12J0D01*
G01*
X19754Y35865D02*
G03*
X19754Y35865I-12J0D01*
G01*
X19554Y37365D02*
G03*
X19554Y37365I-12J0D01*
G01*
X18154Y35865D02*
G03*
X18154Y35865I-12J0D01*
G01*
X20869Y35261D02*
G03*
X20869Y35261I-12J0D01*
G01*
X18627Y29107D02*
G03*
X18627Y29107I-12J0D01*
G01*
X17897Y23842D02*
G03*
X17897Y23842I-12J0D01*
G01*
X23554Y30515D02*
G03*
X23554Y30515I-12J0D01*
G01*
X21497Y25543D02*
G03*
X21497Y25543I-12J0D01*
G01*
X23119Y29913D02*
G03*
X23119Y29913I-12J0D01*
G01*
X35597Y26467D02*
G03*
X35597Y26467I-12J0D01*
G01*
Y27243D02*
G03*
X35597Y27243I-12J0D01*
G01*
X39888Y26515D02*
G03*
X39888Y26515I-12J0D01*
G01*
X37727Y34207D02*
G03*
X37727Y34207I-12J0D01*
G01*
Y27508D02*
G03*
X37727Y27508I-12J0D01*
G01*
X37125Y26442D02*
G03*
X37125Y26442I-12J0D01*
G01*
X35597Y25693D02*
G03*
X35597Y25693I-12J0D01*
G01*
X39121Y26515D02*
G03*
X39121Y26515I-12J0D01*
G01*
X41547Y27192D02*
G03*
X41547Y27192I-12J0D01*
G01*
X42177Y34207D02*
G03*
X42177Y34207I-12J0D01*
G01*
X42199Y26758D02*
G03*
X42199Y26758I-12J0D01*
G01*
X33271Y31446D02*
G03*
X33271Y31446I-12J0D01*
G01*
X39154Y33315D02*
G03*
X39154Y33315I-12J0D01*
G01*
X37969Y32685D02*
G03*
X37969Y32685I-12J0D01*
G01*
X36906Y28715D02*
G03*
X36906Y28715I-12J0D01*
G01*
X39474Y28085D02*
G03*
X39474Y28085I-12J0D01*
G01*
X33271Y29743D02*
G03*
X33271Y29743I-12J0D01*
G01*
X36511Y32663D02*
G03*
X36511Y32663I-12J0D01*
G01*
X36512Y28113D02*
G03*
X36512Y28113I-12J0D01*
G01*
X35719Y28085D02*
G03*
X35719Y28085I-12J0D01*
G01*
Y31152D02*
G03*
X35719Y31152I-12J0D01*
G01*
X36904Y33315D02*
G03*
X36904Y33315I-12J0D01*
G01*
X37657Y28715D02*
G03*
X37657Y28715I-12J0D01*
G01*
X37097Y25693D02*
G03*
X37097Y25693I-12J0D01*
G01*
X41597Y25642D02*
G03*
X41597Y25642I-12J0D01*
G01*
X33895Y32615D02*
G03*
X33895Y32615I-12J0D01*
G01*
X33271Y30594D02*
G03*
X33271Y30594I-12J0D01*
G01*
X38404Y33315D02*
G03*
X38404Y33315I-12J0D01*
G01*
X38408Y28715D02*
G03*
X38408Y28715I-12J0D01*
G01*
X39904Y33315D02*
G03*
X39904Y33315I-12J0D01*
G01*
X40660Y28715D02*
G03*
X40660Y28715I-12J0D01*
G01*
X31928Y31439D02*
G03*
X31928Y31439I-12J0D01*
G01*
X40654Y33315D02*
G03*
X40654Y33315I-12J0D01*
G01*
X41411Y28715D02*
G03*
X41411Y28715I-12J0D01*
G01*
X43269Y32685D02*
G03*
X43269Y32685I-12J0D01*
G01*
Y28113D02*
G03*
X43269Y28113I-12J0D01*
G01*
X35719Y32685D02*
G03*
X35719Y32685I-12J0D01*
G01*
X42469D02*
G03*
X42469Y32685I-12J0D01*
G01*
X41404Y33315D02*
G03*
X41404Y33315I-12J0D01*
G01*
X42477Y28085D02*
G03*
X42477Y28085I-12J0D01*
G01*
X39909Y28715D02*
G03*
X39909Y28715I-12J0D01*
G01*
X32552Y32608D02*
G03*
X32552Y32608I-12J0D01*
G01*
M02*
