G04*
G04 #@! TF.GenerationSoftware,Altium Limited,Altium Designer,20.2.6 (244)*
G04*
G04 Layer_Color=32896*
%FSLAX24Y24*%
%MOIN*%
G70*
G04*
G04 #@! TF.SameCoordinates,FA5C595E-BAF6-4CA8-81BB-533EFFED9D24*
G04*
G04*
G04 #@! TF.FilePolarity,Positive*
G04*
G01*
G75*
%ADD11C,0.0100*%
G36*
X50415Y40793D02*
X49785D01*
Y41107D01*
X50415D01*
Y40793D01*
D02*
G37*
G36*
X48537D02*
X47907D01*
Y41107D01*
X48537D01*
Y40793D01*
D02*
G37*
G36*
X23007Y40637D02*
X22693D01*
Y41267D01*
X23007D01*
Y40637D01*
D02*
G37*
G36*
X22425D02*
X22415D01*
Y40534D01*
X21785D01*
Y40849D01*
X22110D01*
Y41267D01*
X22425D01*
Y40637D01*
D02*
G37*
G36*
X23715Y40493D02*
X23085D01*
Y40807D01*
X23715D01*
Y40493D01*
D02*
G37*
G36*
X20207Y40363D02*
X19893D01*
Y40993D01*
X20207D01*
Y40363D01*
D02*
G37*
G36*
X19442Y40335D02*
X19127D01*
Y40965D01*
X19442D01*
Y40335D01*
D02*
G37*
G36*
X18657D02*
X18343D01*
Y40965D01*
X18657D01*
Y40335D01*
D02*
G37*
G36*
X50415Y39988D02*
X49785D01*
Y40303D01*
X50415D01*
Y39988D01*
D02*
G37*
G36*
X48559Y39947D02*
X47929D01*
Y40262D01*
X48559D01*
Y39947D01*
D02*
G37*
G36*
X25357Y39885D02*
X25043D01*
Y40515D01*
X25357D01*
Y39885D01*
D02*
G37*
G36*
X24607D02*
X24293D01*
Y40515D01*
X24607D01*
Y39885D01*
D02*
G37*
G36*
X48565Y39063D02*
X47935D01*
Y39378D01*
X48565D01*
Y39063D01*
D02*
G37*
G36*
X48537Y38136D02*
X47907D01*
Y38451D01*
X48537D01*
Y38136D01*
D02*
G37*
G36*
X47265Y37743D02*
X46635D01*
Y38057D01*
X47265D01*
Y37743D01*
D02*
G37*
G36*
X25465Y37393D02*
X24835D01*
Y37707D01*
X25465D01*
Y37393D01*
D02*
G37*
G36*
X48565Y37293D02*
X47935D01*
Y37607D01*
X48565D01*
Y37293D01*
D02*
G37*
G36*
X24157Y37035D02*
X23843D01*
Y37665D01*
X24157D01*
Y37035D01*
D02*
G37*
G36*
X19857Y36735D02*
X19543D01*
Y37365D01*
X19857D01*
Y36735D01*
D02*
G37*
G36*
X50415Y35893D02*
X49785D01*
Y36207D01*
X50415D01*
Y35893D01*
D02*
G37*
G36*
X48559Y35893D02*
X47929D01*
Y36207D01*
X48559D01*
Y35893D01*
D02*
G37*
G36*
X20857Y35261D02*
X20543D01*
Y35891D01*
X20857D01*
Y35261D01*
D02*
G37*
G36*
X20057Y35235D02*
X19743D01*
Y35865D01*
X20057D01*
Y35235D01*
D02*
G37*
G36*
X19257D02*
X18943D01*
Y35865D01*
X19257D01*
Y35235D01*
D02*
G37*
G36*
X18457D02*
X18143D01*
Y35865D01*
X18457D01*
Y35235D01*
D02*
G37*
G36*
X48537Y35065D02*
X47907D01*
Y35380D01*
X48537D01*
Y35065D01*
D02*
G37*
G36*
X50415Y35043D02*
X49785D01*
Y35357D01*
X50415D01*
Y35043D01*
D02*
G37*
G36*
X48565Y34319D02*
X47935D01*
Y34634D01*
X48565D01*
Y34319D01*
D02*
G37*
G36*
X45657Y34085D02*
X45343D01*
Y34715D01*
X45657D01*
Y34085D01*
D02*
G37*
G36*
X47807Y34038D02*
X47493D01*
Y34668D01*
X47807D01*
Y34038D01*
D02*
G37*
G36*
X42165Y33893D02*
X41535D01*
Y34207D01*
X42165D01*
Y33893D01*
D02*
G37*
G36*
X37715D02*
X37085D01*
Y34207D01*
X37715D01*
Y33893D01*
D02*
G37*
G36*
X48537Y33489D02*
X47907D01*
Y33804D01*
X48537D01*
Y33489D01*
D02*
G37*
G36*
X31616Y33401D02*
X31301D01*
Y34030D01*
X31616D01*
Y33401D01*
D02*
G37*
G36*
X30757Y33385D02*
X30443D01*
Y34015D01*
X30757D01*
Y33385D01*
D02*
G37*
G36*
X22665Y32943D02*
X22035D01*
Y33257D01*
X22665D01*
Y32943D01*
D02*
G37*
G36*
X48565Y32743D02*
X47935D01*
Y33057D01*
X48565D01*
Y32743D01*
D02*
G37*
G36*
X47807Y32735D02*
X47493D01*
Y33365D01*
X47807D01*
Y32735D01*
D02*
G37*
G36*
X43257Y32685D02*
X42943D01*
Y33315D01*
X43257D01*
Y32685D01*
D02*
G37*
G36*
X42457Y32685D02*
X42143D01*
Y33315D01*
X42457D01*
Y32685D01*
D02*
G37*
G36*
X41707D02*
X41393D01*
Y33315D01*
X41707D01*
Y32685D01*
D02*
G37*
G36*
X40957D02*
X40643D01*
Y33315D01*
X40957D01*
Y32685D01*
D02*
G37*
G36*
X40207D02*
X39893D01*
Y33315D01*
X40207D01*
Y32685D01*
D02*
G37*
G36*
X39457D02*
X39143D01*
Y33315D01*
X39457D01*
Y32685D01*
D02*
G37*
G36*
X38707D02*
X38393D01*
Y33315D01*
X38707D01*
Y32685D01*
D02*
G37*
G36*
X37957D02*
X37643D01*
Y33315D01*
X37957D01*
Y32685D01*
D02*
G37*
G36*
X37207D02*
X36893D01*
Y33315D01*
X37207D01*
Y32685D01*
D02*
G37*
G36*
X35707D02*
X35393D01*
Y33315D01*
X35707D01*
Y32685D01*
D02*
G37*
G36*
X36499Y32663D02*
X36184D01*
Y33293D01*
X36499D01*
Y32663D01*
D02*
G37*
G36*
X33883Y32300D02*
X33253D01*
Y32615D01*
X33883D01*
Y32300D01*
D02*
G37*
G36*
X36615Y32293D02*
X35985D01*
Y32607D01*
X36615D01*
Y32293D01*
D02*
G37*
G36*
X32541D02*
X31911D01*
Y32607D01*
X32541D01*
Y32293D01*
D02*
G37*
G36*
X42912Y32193D02*
X42282D01*
Y32507D01*
X42912D01*
Y32193D01*
D02*
G37*
G36*
X33889Y31446D02*
X33259D01*
Y31761D01*
X33889D01*
Y31446D01*
D02*
G37*
G36*
X32547Y31439D02*
X31917D01*
Y31753D01*
X32547D01*
Y31439D01*
D02*
G37*
G36*
X35707Y31152D02*
X35393D01*
Y31782D01*
X35707D01*
Y31152D01*
D02*
G37*
G36*
X42912Y30843D02*
X42282D01*
Y31157D01*
X42912D01*
Y30843D01*
D02*
G37*
G36*
X36615D02*
X35985D01*
Y31157D01*
X36615D01*
Y30843D01*
D02*
G37*
G36*
X33889Y30594D02*
X33259D01*
Y30909D01*
X33889D01*
Y30594D01*
D02*
G37*
G36*
X32547Y30587D02*
X31917D01*
Y30902D01*
X32547D01*
Y30587D01*
D02*
G37*
G36*
X23107Y29913D02*
X22793D01*
Y30543D01*
X23107D01*
Y29913D01*
D02*
G37*
G36*
X23857Y29885D02*
X23543D01*
Y30515D01*
X23857D01*
Y29885D01*
D02*
G37*
G36*
X33889Y29743D02*
X33259D01*
Y30057D01*
X33889D01*
Y29743D01*
D02*
G37*
G36*
X32541Y29737D02*
X31911D01*
Y30052D01*
X32541D01*
Y29737D01*
D02*
G37*
G36*
X35707Y29618D02*
X35393D01*
Y30248D01*
X35707D01*
Y29618D01*
D02*
G37*
G36*
X18615Y28793D02*
X17985D01*
Y29107D01*
X18615D01*
Y28793D01*
D02*
G37*
G36*
X43257Y28113D02*
X42943D01*
Y28743D01*
X43257D01*
Y28113D01*
D02*
G37*
G36*
X36500D02*
X36185D01*
Y28743D01*
X36500D01*
Y28113D01*
D02*
G37*
G36*
X47735Y28088D02*
X47420D01*
Y28718D01*
X47735D01*
Y28088D01*
D02*
G37*
G36*
X42465Y28085D02*
X42150D01*
Y28715D01*
X42465D01*
Y28085D01*
D02*
G37*
G36*
X41714D02*
X41399D01*
Y28715D01*
X41714D01*
Y28085D01*
D02*
G37*
G36*
X40963D02*
X40648D01*
Y28715D01*
X40963D01*
Y28085D01*
D02*
G37*
G36*
X40213D02*
X39898D01*
Y28715D01*
X40213D01*
Y28085D01*
D02*
G37*
G36*
X39462D02*
X39147D01*
Y28715D01*
X39462D01*
Y28085D01*
D02*
G37*
G36*
X38711D02*
X38396D01*
Y28715D01*
X38711D01*
Y28085D01*
D02*
G37*
G36*
X37960D02*
X37645D01*
Y28715D01*
X37960D01*
Y28085D01*
D02*
G37*
G36*
X37209D02*
X36894D01*
Y28715D01*
X37209D01*
Y28085D01*
D02*
G37*
G36*
X35707D02*
X35393D01*
Y28715D01*
X35707D01*
Y28085D01*
D02*
G37*
G36*
X36215Y27243D02*
X35585D01*
Y27557D01*
X36215D01*
Y27243D01*
D02*
G37*
G36*
X42165Y27193D02*
X41535D01*
Y27507D01*
X42165D01*
Y27193D01*
D02*
G37*
G36*
X37715D02*
X37085D01*
Y27507D01*
X37715D01*
Y27193D01*
D02*
G37*
G36*
X36215Y26468D02*
X35585D01*
Y26782D01*
X36215D01*
Y26468D01*
D02*
G37*
G36*
X42187Y26443D02*
X41557D01*
Y26757D01*
X42187D01*
Y26443D01*
D02*
G37*
G36*
X37743D02*
X37113D01*
Y26757D01*
X37743D01*
Y26443D01*
D02*
G37*
G36*
X40957Y25885D02*
X40643D01*
Y26515D01*
X40957D01*
Y25885D01*
D02*
G37*
G36*
X40191D02*
X39876D01*
Y26515D01*
X40191D01*
Y25885D01*
D02*
G37*
G36*
X39424D02*
X39109D01*
Y26515D01*
X39424D01*
Y25885D01*
D02*
G37*
G36*
X38657D02*
X38343D01*
Y26515D01*
X38657D01*
Y25885D01*
D02*
G37*
G36*
X37715Y25693D02*
X37085D01*
Y26007D01*
X37715D01*
Y25693D01*
D02*
G37*
G36*
X36215D02*
X35585D01*
Y26007D01*
X36215D01*
Y25693D01*
D02*
G37*
G36*
X42215Y25643D02*
X41585D01*
Y25957D01*
X42215D01*
Y25643D01*
D02*
G37*
G36*
X22115Y25543D02*
X21485D01*
Y25857D01*
X22115D01*
Y25543D01*
D02*
G37*
G36*
X48107Y25385D02*
X47793D01*
Y26015D01*
X48107D01*
Y25385D01*
D02*
G37*
G36*
X22787Y24043D02*
X22157D01*
Y24357D01*
X22787D01*
Y24043D01*
D02*
G37*
G36*
X18515Y23843D02*
X17885D01*
Y24157D01*
X18515D01*
Y23843D01*
D02*
G37*
G36*
X49559Y23243D02*
X48929D01*
Y23557D01*
X49559D01*
Y23243D01*
D02*
G37*
G36*
X22809Y23236D02*
X22179D01*
Y23551D01*
X22809D01*
Y23236D01*
D02*
G37*
G36*
X51257Y22841D02*
X50943D01*
Y23471D01*
X51257D01*
Y22841D01*
D02*
G37*
G36*
X50557D02*
X50243D01*
Y23471D01*
X50557D01*
Y22841D01*
D02*
G37*
G36*
X27207Y22635D02*
X26893D01*
Y23265D01*
X27207D01*
Y22635D01*
D02*
G37*
G36*
X22815Y22393D02*
X22185D01*
Y22707D01*
X22815D01*
Y22393D01*
D02*
G37*
G36*
X49565Y22243D02*
X48935D01*
Y22557D01*
X49565D01*
Y22243D01*
D02*
G37*
G36*
X44957Y21762D02*
X44643D01*
Y22392D01*
X44957D01*
Y21762D01*
D02*
G37*
G36*
X21557Y21409D02*
X21243D01*
Y22039D01*
X21557D01*
Y21409D01*
D02*
G37*
G36*
X31815Y21243D02*
X31185D01*
Y21557D01*
X31815D01*
Y21243D01*
D02*
G37*
G36*
X20539D02*
X19909D01*
Y21557D01*
X20539D01*
Y21243D01*
D02*
G37*
G36*
X46737Y16793D02*
X46107D01*
Y17107D01*
X46737D01*
Y16793D01*
D02*
G37*
G36*
X22157Y16185D02*
X21843D01*
Y16815D01*
X22157D01*
Y16185D01*
D02*
G37*
G36*
X21457D02*
X21143D01*
Y16815D01*
X21457D01*
Y16185D01*
D02*
G37*
G36*
X46737Y15859D02*
X46107D01*
Y16174D01*
X46737D01*
Y15859D01*
D02*
G37*
G36*
X22030Y15093D02*
X21400D01*
Y15407D01*
X22030D01*
Y15093D01*
D02*
G37*
G36*
X46737Y14926D02*
X46107D01*
Y15241D01*
X46737D01*
Y14926D01*
D02*
G37*
G36*
Y13993D02*
X46107D01*
Y14307D01*
X46737D01*
Y13993D01*
D02*
G37*
G36*
X22357Y13635D02*
X22043D01*
Y14265D01*
X22357D01*
Y13635D01*
D02*
G37*
G36*
X18857Y12135D02*
X18543D01*
Y12765D01*
X18857D01*
Y12135D01*
D02*
G37*
G36*
X19607Y12107D02*
X19293D01*
Y12737D01*
X19607D01*
Y12107D01*
D02*
G37*
G36*
X21765Y12093D02*
X21135D01*
Y12407D01*
X21765D01*
Y12093D01*
D02*
G37*
G36*
X46765Y12043D02*
X46135D01*
Y12357D01*
X46765D01*
Y12043D01*
D02*
G37*
G36*
X44057Y10685D02*
X43743D01*
Y11315D01*
X44057D01*
Y10685D01*
D02*
G37*
D11*
X20921Y34850D02*
G03*
X20921Y34850I-71J0D01*
G01*
X41520Y6570D02*
Y20570D01*
X27300D02*
X41520D01*
X17600Y34650D02*
X20950D01*
X17600Y33100D02*
X20950D01*
X17600Y33125D02*
Y33575D01*
Y34175D02*
Y34625D01*
X20950Y34175D02*
Y34625D01*
Y33125D02*
Y33575D01*
X27300Y6570D02*
Y20570D01*
X41520Y6570D02*
X52520D01*
X16300D02*
X27300D01*
X16300D02*
Y42000D01*
X52520Y6570D02*
Y42000D01*
X16300D02*
X52520D01*
M02*
