G04*
G04 #@! TF.GenerationSoftware,Altium Limited,Altium Designer,20.2.6 (244)*
G04*
G04 Layer_Color=32768*
%FSLAX24Y24*%
%MOIN*%
G70*
G04*
G04 #@! TF.SameCoordinates,FA5C595E-BAF6-4CA8-81BB-533EFFED9D24*
G04*
G04*
G04 #@! TF.FilePolarity,Positive*
G04*
G01*
G75*
%ADD10C,0.0059*%
%ADD11C,0.0100*%
%ADD12C,0.0236*%
%ADD14C,0.0157*%
%ADD15C,0.0118*%
%ADD135C,0.0079*%
G36*
X20531Y40437D02*
X18169D01*
Y42208D01*
X18287D01*
Y40516D01*
X20413D01*
Y42208D01*
X20531D01*
Y40437D01*
D02*
G37*
G36*
X46589Y34252D02*
X46511D01*
Y34565D01*
X46589D01*
Y34252D01*
D02*
G37*
G36*
Y32831D02*
X46811D01*
Y32752D01*
X46589D01*
Y32635D01*
X46511D01*
Y32752D01*
X46289D01*
Y32831D01*
X46511D01*
Y32948D01*
X46589D01*
Y32831D01*
D02*
G37*
G36*
X51375Y29567D02*
X47418D01*
Y29898D01*
X51375D01*
Y29567D01*
D02*
G37*
G36*
X19939Y28848D02*
X20161D01*
Y28769D01*
X19939D01*
Y28652D01*
X19861D01*
Y28769D01*
X19639D01*
Y28848D01*
X19861D01*
Y28965D01*
X19939D01*
Y28848D01*
D02*
G37*
G36*
X18189Y27452D02*
X18111D01*
Y27765D01*
X18189D01*
Y27452D01*
D02*
G37*
G36*
X19939Y27035D02*
X19861D01*
Y27348D01*
X19939D01*
Y27035D01*
D02*
G37*
G36*
X18189Y26031D02*
X18411D01*
Y25952D01*
X18189D01*
Y25835D01*
X18111D01*
Y25952D01*
X17889D01*
Y26031D01*
X18111D01*
Y26148D01*
X18189D01*
Y26031D01*
D02*
G37*
G36*
X19839Y25832D02*
X20061D01*
Y25753D01*
X19839D01*
Y25636D01*
X19761D01*
Y25753D01*
X19539D01*
Y25832D01*
X19761D01*
Y25949D01*
X19839D01*
Y25832D01*
D02*
G37*
G36*
Y24019D02*
X19761D01*
Y24332D01*
X19839D01*
Y24019D01*
D02*
G37*
G36*
X26383Y22485D02*
X26052D01*
Y26442D01*
X26383D01*
Y22485D01*
D02*
G37*
G36*
X19537Y16235D02*
X19206D01*
Y20192D01*
X19537D01*
Y16235D01*
D02*
G37*
D10*
X23222Y40200D02*
G03*
X23222Y40200I-30J0D01*
G01*
D11*
X20921Y34850D02*
G03*
X20921Y34850I-71J0D01*
G01*
X41520Y6570D02*
Y20570D01*
X27300D02*
X41520D01*
X17600Y34650D02*
X20950D01*
X17600Y33100D02*
X20950D01*
X17600Y33125D02*
Y33575D01*
Y34175D02*
Y34625D01*
X20950Y34175D02*
Y34625D01*
Y33125D02*
Y33575D01*
X27300Y6570D02*
Y20570D01*
X41520Y6570D02*
X52520D01*
X16300D02*
X27300D01*
X16300D02*
Y42000D01*
X52520Y6570D02*
Y42000D01*
X16300D02*
X52520D01*
D12*
X50591Y31748D02*
G03*
X50591Y31748I-118J0D01*
G01*
X17474Y19290D02*
G03*
X17474Y19290I-118J0D01*
G01*
X24320Y25540D02*
G03*
X24320Y25540I-118J0D01*
G01*
D14*
X45236Y20688D02*
G03*
X45236Y20688I-79J0D01*
G01*
X20336Y20738D02*
G03*
X20336Y20738I-79J0D01*
G01*
D15*
X45420Y21900D02*
G03*
X45420Y21900I-59J0D01*
G01*
X44721Y33750D02*
G03*
X44721Y33750I-59J0D01*
G01*
Y38600D02*
G03*
X44721Y38600I-59J0D01*
G01*
X18149Y39193D02*
G03*
X18149Y39193I-59J0D01*
G01*
X19071Y22000D02*
G03*
X19071Y22000I-59J0D01*
G01*
X37609Y29361D02*
G03*
X37609Y29361I-59J0D01*
G01*
D135*
X20527Y39752D02*
G03*
X20527Y39752I-39J0D01*
G01*
X18252D02*
G03*
X18252Y39752I-39J0D01*
G01*
X21465Y29949D02*
G03*
X21465Y29949I-39J0D01*
G01*
M02*
