G04*
G04 #@! TF.GenerationSoftware,Altium Limited,Altium Designer,20.2.6 (244)*
G04*
G04 Layer_Color=128*
%FSLAX24Y24*%
%MOIN*%
G70*
G04*
G04 #@! TF.SameCoordinates,FA5C595E-BAF6-4CA8-81BB-533EFFED9D24*
G04*
G04*
G04 #@! TF.FilePolarity,Positive*
G04*
G01*
G75*
%ADD11C,0.0100*%
%ADD28R,0.0315X0.0354*%
%ADD29R,0.0354X0.0315*%
%ADD30R,0.0340X0.0318*%
%ADD31R,0.0200X0.0300*%
%ADD32R,0.0318X0.0340*%
%ADD124O,0.0734X0.0248*%
%ADD125R,0.0236X0.0800*%
%ADD126R,0.0118X0.0800*%
%ADD127R,0.0787X0.0236*%
%ADD128R,0.1500X0.1701*%
G36*
X23020Y41382D02*
Y41184D01*
X22904Y41076D01*
X22796D01*
X22680Y41184D01*
Y41382D01*
X22705Y41407D01*
X22995D01*
X23020Y41382D01*
D02*
G37*
G36*
X22438D02*
Y41184D01*
X22322Y41076D01*
X22213D01*
X22098Y41184D01*
Y41382D01*
X22123Y41407D01*
X22413D01*
X22438Y41382D01*
D02*
G37*
G36*
X21161Y41510D02*
X21217Y41456D01*
X21247Y41385D01*
X21248Y41346D01*
Y41031D01*
X21247Y40993D01*
X21217Y40922D01*
X21161Y40867D01*
X21090Y40838D01*
X21012D01*
X20941Y40867D01*
X20886Y40922D01*
X20855Y40993D01*
X20854Y41031D01*
X20854Y41346D01*
X20854Y41346D01*
X20855Y41385D01*
X20886Y41456D01*
X20941Y41510D01*
X21012Y41540D01*
X21090D01*
X21161Y41510D01*
D02*
G37*
G36*
X17760Y41511D02*
X17815Y41456D01*
X17846Y41385D01*
X17846Y41346D01*
Y41031D01*
X17846Y40993D01*
X17815Y40921D01*
X17760Y40867D01*
X17688Y40837D01*
X17611D01*
X17539Y40867D01*
X17484Y40921D01*
X17453Y40993D01*
X17453Y41031D01*
X17453Y41346D01*
X17453Y41346D01*
X17453Y41385D01*
X17484Y41456D01*
X17539Y41511D01*
X17611Y41540D01*
X17688D01*
X17760Y41511D01*
D02*
G37*
G36*
X50555Y41095D02*
Y40805D01*
X50530Y40780D01*
X50332D01*
X50224Y40896D01*
Y41004D01*
X50332Y41120D01*
X50530D01*
X50555Y41095D01*
D02*
G37*
G36*
X49976Y41004D02*
Y40896D01*
X49868Y40780D01*
X49670D01*
X49645Y40805D01*
Y41095D01*
X49670Y41120D01*
X49868D01*
X49976Y41004D01*
D02*
G37*
G36*
X48677Y41095D02*
Y40805D01*
X48652Y40780D01*
X48454D01*
X48346Y40896D01*
Y41004D01*
X48454Y41120D01*
X48652D01*
X48677Y41095D01*
D02*
G37*
G36*
X48098Y41004D02*
Y40896D01*
X47990Y40780D01*
X47792D01*
X47767Y40805D01*
Y41095D01*
X47792Y41120D01*
X47990D01*
X48098Y41004D01*
D02*
G37*
G36*
X23020Y40720D02*
Y40522D01*
X22995Y40496D01*
X22705D01*
X22680Y40522D01*
Y40720D01*
X22796Y40828D01*
X22904D01*
X23020Y40720D01*
D02*
G37*
G36*
X22438D02*
Y40522D01*
X22413Y40496D01*
X22123D01*
X22098Y40522D01*
Y40720D01*
X22213Y40828D01*
X22322D01*
X22438Y40720D01*
D02*
G37*
G36*
X50555Y40291D02*
Y40001D01*
X50530Y39976D01*
X50332D01*
X50224Y40091D01*
Y40200D01*
X50332Y40316D01*
X50530D01*
X50555Y40291D01*
D02*
G37*
G36*
X49976Y40200D02*
Y40091D01*
X49868Y39976D01*
X49670D01*
X49645Y40001D01*
Y40291D01*
X49670Y40316D01*
X49868D01*
X49976Y40200D01*
D02*
G37*
G36*
X48668Y40249D02*
Y39959D01*
X48643Y39934D01*
X48527D01*
X48368Y40050D01*
Y40158D01*
X48527Y40274D01*
X48643D01*
X48668Y40249D01*
D02*
G37*
G36*
X48120Y40158D02*
Y40050D01*
X47961Y39934D01*
X47845D01*
X47820Y39959D01*
Y40249D01*
X47845Y40274D01*
X47961D01*
X48120Y40158D01*
D02*
G37*
G36*
X21161Y39936D02*
X21217Y39881D01*
X21247Y39810D01*
X21248Y39772D01*
Y39339D01*
X21247Y39300D01*
X21217Y39229D01*
X21161Y39174D01*
X21090Y39145D01*
X21012D01*
X20941Y39174D01*
X20886Y39229D01*
X20855Y39300D01*
X20854Y39339D01*
X20854Y39772D01*
X20854Y39772D01*
X20855Y39810D01*
X20886Y39881D01*
X20941Y39936D01*
X21012Y39965D01*
X21090D01*
X21161Y39936D01*
D02*
G37*
G36*
X17761Y39938D02*
X17817Y39883D01*
X17846Y39811D01*
Y39772D01*
Y39339D01*
Y39299D01*
X17817Y39227D01*
X17761Y39172D01*
X17689Y39142D01*
X17610D01*
X17538Y39172D01*
X17483Y39227D01*
X17453Y39299D01*
Y39339D01*
Y39772D01*
Y39811D01*
X17483Y39883D01*
X17538Y39938D01*
X17610Y39968D01*
X17689D01*
X17761Y39938D01*
D02*
G37*
G36*
X48674Y39366D02*
Y39076D01*
X48649Y39051D01*
X48533D01*
X48374Y39166D01*
Y39275D01*
X48533Y39391D01*
X48649D01*
X48674Y39366D01*
D02*
G37*
G36*
X48126Y39275D02*
Y39166D01*
X47967Y39051D01*
X47851D01*
X47826Y39076D01*
Y39366D01*
X47851Y39391D01*
X47967D01*
X48126Y39275D01*
D02*
G37*
G36*
X48677Y38439D02*
Y38149D01*
X48652Y38124D01*
X48454D01*
X48346Y38239D01*
Y38348D01*
X48454Y38464D01*
X48652D01*
X48677Y38439D01*
D02*
G37*
G36*
X48098Y38348D02*
Y38239D01*
X47990Y38124D01*
X47792D01*
X47767Y38149D01*
Y38439D01*
X47792Y38464D01*
X47990D01*
X48098Y38348D01*
D02*
G37*
G36*
X24170Y37780D02*
Y37582D01*
X24054Y37474D01*
X23946D01*
X23830Y37582D01*
Y37780D01*
X23855Y37805D01*
X24145D01*
X24170Y37780D01*
D02*
G37*
G36*
X48674Y37595D02*
Y37305D01*
X48649Y37280D01*
X48533D01*
X48374Y37396D01*
Y37504D01*
X48533Y37620D01*
X48649D01*
X48674Y37595D01*
D02*
G37*
G36*
X48126Y37504D02*
Y37396D01*
X47967Y37280D01*
X47851D01*
X47826Y37305D01*
Y37595D01*
X47851Y37620D01*
X47967D01*
X48126Y37504D01*
D02*
G37*
G36*
X24170Y37118D02*
Y36920D01*
X24145Y36895D01*
X23855D01*
X23830Y36920D01*
Y37118D01*
X23946Y37226D01*
X24054D01*
X24170Y37118D01*
D02*
G37*
G36*
X50555Y36195D02*
Y35905D01*
X50530Y35880D01*
X50332D01*
X50224Y35996D01*
Y36104D01*
X50332Y36220D01*
X50530D01*
X50555Y36195D01*
D02*
G37*
G36*
X49976Y36104D02*
Y35996D01*
X49868Y35880D01*
X49670D01*
X49645Y35905D01*
Y36195D01*
X49670Y36220D01*
X49868D01*
X49976Y36104D01*
D02*
G37*
G36*
X48668Y36195D02*
Y35905D01*
X48643Y35880D01*
X48527D01*
X48368Y35996D01*
Y36104D01*
X48527Y36220D01*
X48643D01*
X48668Y36195D01*
D02*
G37*
G36*
X48120Y36104D02*
Y35996D01*
X47961Y35880D01*
X47845D01*
X47820Y35905D01*
Y36195D01*
X47845Y36220D01*
X47961D01*
X48120Y36104D01*
D02*
G37*
G36*
X48677Y35367D02*
Y35078D01*
X48652Y35052D01*
X48454D01*
X48346Y35168D01*
Y35277D01*
X48454Y35393D01*
X48652D01*
X48677Y35367D01*
D02*
G37*
G36*
X48098Y35277D02*
Y35168D01*
X47990Y35052D01*
X47792D01*
X47767Y35078D01*
Y35367D01*
X47792Y35393D01*
X47990D01*
X48098Y35277D01*
D02*
G37*
G36*
X50555Y35345D02*
Y35055D01*
X50530Y35030D01*
X50332D01*
X50224Y35146D01*
Y35254D01*
X50332Y35370D01*
X50530D01*
X50555Y35345D01*
D02*
G37*
G36*
X49976Y35254D02*
Y35146D01*
X49868Y35030D01*
X49670D01*
X49645Y35055D01*
Y35345D01*
X49670Y35370D01*
X49868D01*
X49976Y35254D01*
D02*
G37*
G36*
X48674Y34621D02*
Y34331D01*
X48649Y34306D01*
X48533D01*
X48374Y34422D01*
Y34530D01*
X48533Y34646D01*
X48649D01*
X48674Y34621D01*
D02*
G37*
G36*
X48126Y34530D02*
Y34422D01*
X47967Y34306D01*
X47851D01*
X47826Y34331D01*
Y34621D01*
X47851Y34646D01*
X47967D01*
X48126Y34530D01*
D02*
G37*
G36*
X48677Y33791D02*
Y33502D01*
X48652Y33476D01*
X48454D01*
X48346Y33592D01*
Y33701D01*
X48454Y33817D01*
X48652D01*
X48677Y33791D01*
D02*
G37*
G36*
X48098Y33701D02*
Y33592D01*
X47990Y33476D01*
X47792D01*
X47767Y33502D01*
Y33791D01*
X47792Y33817D01*
X47990D01*
X48098Y33701D01*
D02*
G37*
G36*
X48674Y33045D02*
Y32755D01*
X48649Y32730D01*
X48533D01*
X48374Y32846D01*
Y32954D01*
X48533Y33070D01*
X48649D01*
X48674Y33045D01*
D02*
G37*
G36*
X48126Y32954D02*
Y32846D01*
X47967Y32730D01*
X47851D01*
X47826Y32755D01*
Y33045D01*
X47851Y33070D01*
X47967D01*
X48126Y32954D01*
D02*
G37*
G36*
X36755Y32595D02*
Y32305D01*
X36730Y32280D01*
X36532D01*
X36424Y32396D01*
Y32504D01*
X36532Y32620D01*
X36730D01*
X36755Y32595D01*
D02*
G37*
G36*
X36176Y32504D02*
Y32396D01*
X36068Y32280D01*
X35870D01*
X35845Y32305D01*
Y32595D01*
X35870Y32620D01*
X36068D01*
X36176Y32504D01*
D02*
G37*
G36*
X43052Y32495D02*
Y32205D01*
X43027Y32180D01*
X42829D01*
X42721Y32296D01*
Y32404D01*
X42829Y32520D01*
X43027D01*
X43052Y32495D01*
D02*
G37*
G36*
X42473Y32404D02*
Y32296D01*
X42365Y32180D01*
X42166D01*
X42141Y32205D01*
Y32495D01*
X42166Y32520D01*
X42365D01*
X42473Y32404D01*
D02*
G37*
G36*
X43052Y31145D02*
Y30855D01*
X43027Y30830D01*
X42829D01*
X42721Y30946D01*
Y31054D01*
X42829Y31170D01*
X43027D01*
X43052Y31145D01*
D02*
G37*
G36*
X42473Y31054D02*
Y30946D01*
X42365Y30830D01*
X42166D01*
X42141Y30855D01*
Y31145D01*
X42166Y31170D01*
X42365D01*
X42473Y31054D01*
D02*
G37*
G36*
X36755Y31145D02*
Y30855D01*
X36730Y30830D01*
X36532D01*
X36424Y30946D01*
Y31054D01*
X36532Y31170D01*
X36730D01*
X36755Y31145D01*
D02*
G37*
G36*
X36176Y31054D02*
Y30946D01*
X36068Y30830D01*
X35870D01*
X35845Y30855D01*
Y31145D01*
X35870Y31170D01*
X36068D01*
X36176Y31054D01*
D02*
G37*
G36*
X22927Y24345D02*
Y24055D01*
X22902Y24030D01*
X22704D01*
X22596Y24146D01*
Y24254D01*
X22704Y24370D01*
X22902D01*
X22927Y24345D01*
D02*
G37*
G36*
X22348Y24254D02*
Y24146D01*
X22240Y24030D01*
X22042D01*
X22017Y24055D01*
Y24345D01*
X22042Y24370D01*
X22240D01*
X22348Y24254D01*
D02*
G37*
G36*
X51270Y23586D02*
Y23388D01*
X51154Y23280D01*
X51046D01*
X50930Y23388D01*
Y23586D01*
X50955Y23612D01*
X51245D01*
X51270Y23586D01*
D02*
G37*
G36*
X50570D02*
Y23388D01*
X50454Y23280D01*
X50346D01*
X50230Y23388D01*
Y23586D01*
X50255Y23612D01*
X50545D01*
X50570Y23586D01*
D02*
G37*
G36*
X49668Y23545D02*
Y23255D01*
X49643Y23230D01*
X49527D01*
X49368Y23346D01*
Y23454D01*
X49527Y23570D01*
X49643D01*
X49668Y23545D01*
D02*
G37*
G36*
X49120Y23454D02*
Y23346D01*
X48961Y23230D01*
X48845D01*
X48820Y23255D01*
Y23545D01*
X48845Y23570D01*
X48961D01*
X49120Y23454D01*
D02*
G37*
G36*
X22918Y23539D02*
Y23249D01*
X22893Y23224D01*
X22777D01*
X22618Y23339D01*
Y23448D01*
X22777Y23564D01*
X22893D01*
X22918Y23539D01*
D02*
G37*
G36*
X22370Y23448D02*
Y23339D01*
X22211Y23224D01*
X22095D01*
X22070Y23249D01*
Y23539D01*
X22095Y23564D01*
X22211D01*
X22370Y23448D01*
D02*
G37*
G36*
X51270Y22924D02*
Y22726D01*
X51245Y22701D01*
X50955D01*
X50930Y22726D01*
Y22924D01*
X51046Y23032D01*
X51154D01*
X51270Y22924D01*
D02*
G37*
G36*
X50570D02*
Y22726D01*
X50545Y22701D01*
X50255D01*
X50230Y22726D01*
Y22924D01*
X50346Y23032D01*
X50454D01*
X50570Y22924D01*
D02*
G37*
G36*
X22924Y22695D02*
Y22405D01*
X22899Y22380D01*
X22783D01*
X22624Y22496D01*
Y22604D01*
X22783Y22720D01*
X22899D01*
X22924Y22695D01*
D02*
G37*
G36*
X22376Y22604D02*
Y22496D01*
X22217Y22380D01*
X22101D01*
X22076Y22405D01*
Y22695D01*
X22101Y22720D01*
X22217D01*
X22376Y22604D01*
D02*
G37*
G36*
X49674Y22545D02*
Y22255D01*
X49649Y22230D01*
X49533D01*
X49374Y22346D01*
Y22454D01*
X49533Y22570D01*
X49649D01*
X49674Y22545D01*
D02*
G37*
G36*
X49126Y22454D02*
Y22346D01*
X48967Y22230D01*
X48851D01*
X48826Y22255D01*
Y22545D01*
X48851Y22570D01*
X48967D01*
X49126Y22454D01*
D02*
G37*
G36*
X44970Y22476D02*
Y22360D01*
X44854Y22201D01*
X44746D01*
X44630Y22360D01*
Y22476D01*
X44655Y22501D01*
X44945D01*
X44970Y22476D01*
D02*
G37*
G36*
Y21794D02*
Y21678D01*
X44945Y21653D01*
X44655D01*
X44630Y21678D01*
Y21794D01*
X44746Y21953D01*
X44854D01*
X44970Y21794D01*
D02*
G37*
G36*
X20649Y21545D02*
Y21255D01*
X20624Y21230D01*
X20507D01*
X20348Y21346D01*
Y21454D01*
X20507Y21570D01*
X20624D01*
X20649Y21545D01*
D02*
G37*
G36*
X20100Y21454D02*
Y21346D01*
X19942Y21230D01*
X19825D01*
X19800Y21255D01*
Y21545D01*
X19825Y21570D01*
X19942D01*
X20100Y21454D01*
D02*
G37*
G36*
X46877Y17095D02*
Y16805D01*
X46852Y16780D01*
X46654D01*
X46546Y16896D01*
Y17004D01*
X46654Y17120D01*
X46852D01*
X46877Y17095D01*
D02*
G37*
G36*
X46298Y17004D02*
Y16896D01*
X46190Y16780D01*
X45992D01*
X45967Y16805D01*
Y17095D01*
X45992Y17120D01*
X46190D01*
X46298Y17004D01*
D02*
G37*
G36*
X22170Y16930D02*
Y16732D01*
X22054Y16624D01*
X21946D01*
X21830Y16732D01*
Y16930D01*
X21855Y16955D01*
X22145D01*
X22170Y16930D01*
D02*
G37*
G36*
X21470D02*
Y16732D01*
X21354Y16624D01*
X21246D01*
X21130Y16732D01*
Y16930D01*
X21155Y16955D01*
X21445D01*
X21470Y16930D01*
D02*
G37*
G36*
X22170Y16268D02*
Y16070D01*
X22145Y16045D01*
X21855D01*
X21830Y16070D01*
Y16268D01*
X21946Y16376D01*
X22054D01*
X22170Y16268D01*
D02*
G37*
G36*
X21470D02*
Y16070D01*
X21445Y16045D01*
X21155D01*
X21130Y16070D01*
Y16268D01*
X21246Y16376D01*
X21354D01*
X21470Y16268D01*
D02*
G37*
G36*
X46877Y16162D02*
Y15872D01*
X46852Y15847D01*
X46654D01*
X46546Y15962D01*
Y16071D01*
X46654Y16187D01*
X46852D01*
X46877Y16162D01*
D02*
G37*
G36*
X46298Y16071D02*
Y15962D01*
X46190Y15847D01*
X45992D01*
X45967Y15872D01*
Y16162D01*
X45992Y16187D01*
X46190D01*
X46298Y16071D01*
D02*
G37*
G36*
X22170Y15395D02*
Y15105D01*
X22145Y15080D01*
X21947D01*
X21839Y15196D01*
Y15304D01*
X21947Y15420D01*
X22145D01*
X22170Y15395D01*
D02*
G37*
G36*
X21591Y15304D02*
Y15196D01*
X21483Y15080D01*
X21285D01*
X21259Y15105D01*
Y15395D01*
X21285Y15420D01*
X21483D01*
X21591Y15304D01*
D02*
G37*
G36*
X46877Y15228D02*
Y14938D01*
X46852Y14913D01*
X46654D01*
X46546Y15029D01*
Y15138D01*
X46654Y15253D01*
X46852D01*
X46877Y15228D01*
D02*
G37*
G36*
X46298Y15138D02*
Y15029D01*
X46190Y14913D01*
X45992D01*
X45967Y14938D01*
Y15228D01*
X45992Y15253D01*
X46190D01*
X46298Y15138D01*
D02*
G37*
G36*
X22370Y14380D02*
Y14182D01*
X22254Y14074D01*
X22146D01*
X22030Y14182D01*
Y14380D01*
X22055Y14405D01*
X22345D01*
X22370Y14380D01*
D02*
G37*
G36*
X46877Y14295D02*
Y14005D01*
X46852Y13980D01*
X46654D01*
X46546Y14096D01*
Y14204D01*
X46654Y14320D01*
X46852D01*
X46877Y14295D01*
D02*
G37*
G36*
X46298Y14204D02*
Y14096D01*
X46190Y13980D01*
X45992D01*
X45967Y14005D01*
Y14295D01*
X45992Y14320D01*
X46190D01*
X46298Y14204D01*
D02*
G37*
G36*
X22370Y13718D02*
Y13520D01*
X22345Y13495D01*
X22055D01*
X22030Y13520D01*
Y13718D01*
X22146Y13826D01*
X22254D01*
X22370Y13718D01*
D02*
G37*
G36*
X18870Y12880D02*
Y12682D01*
X18754Y12574D01*
X18646D01*
X18530Y12682D01*
Y12880D01*
X18555Y12905D01*
X18845D01*
X18870Y12880D01*
D02*
G37*
G36*
X19620Y12821D02*
Y12705D01*
X19504Y12546D01*
X19396D01*
X19280Y12705D01*
Y12821D01*
X19305Y12846D01*
X19595D01*
X19620Y12821D01*
D02*
G37*
G36*
X21905Y12395D02*
Y12105D01*
X21880Y12080D01*
X21682D01*
X21574Y12196D01*
Y12304D01*
X21682Y12420D01*
X21880D01*
X21905Y12395D01*
D02*
G37*
G36*
X21326Y12304D02*
Y12196D01*
X21218Y12080D01*
X21020D01*
X20995Y12105D01*
Y12395D01*
X21020Y12420D01*
X21218D01*
X21326Y12304D01*
D02*
G37*
G36*
X46874Y12345D02*
Y12055D01*
X46849Y12030D01*
X46733D01*
X46574Y12146D01*
Y12254D01*
X46733Y12370D01*
X46849D01*
X46874Y12345D01*
D02*
G37*
G36*
X46326Y12254D02*
Y12146D01*
X46167Y12030D01*
X46051D01*
X46026Y12055D01*
Y12345D01*
X46051Y12370D01*
X46167D01*
X46326Y12254D01*
D02*
G37*
G36*
X19620Y12139D02*
Y12023D01*
X19595Y11998D01*
X19305D01*
X19280Y12023D01*
Y12139D01*
X19396Y12298D01*
X19504D01*
X19620Y12139D01*
D02*
G37*
G36*
X18870Y12218D02*
Y12020D01*
X18845Y11995D01*
X18555D01*
X18530Y12020D01*
Y12218D01*
X18646Y12326D01*
X18754D01*
X18870Y12218D01*
D02*
G37*
G36*
X44070Y11430D02*
Y11232D01*
X43954Y11124D01*
X43846D01*
X43730Y11232D01*
Y11430D01*
X43755Y11455D01*
X44045D01*
X44070Y11430D01*
D02*
G37*
G36*
Y10768D02*
Y10570D01*
X44045Y10545D01*
X43755D01*
X43730Y10570D01*
Y10768D01*
X43846Y10876D01*
X43954D01*
X44070Y10768D01*
D02*
G37*
D11*
X20921Y34850D02*
G03*
X20921Y34850I-71J0D01*
G01*
X41520Y6570D02*
Y20570D01*
X27300D02*
X41520D01*
X17600Y34650D02*
X20950D01*
X17600Y33100D02*
X20950D01*
X17600Y33125D02*
Y33575D01*
Y34175D02*
Y34625D01*
X20950Y34175D02*
Y34625D01*
Y33125D02*
Y33575D01*
X27300Y6570D02*
Y20570D01*
X41520Y6570D02*
X52520D01*
X16300D02*
X27300D01*
X16300D02*
Y42000D01*
X52520Y6570D02*
Y42000D01*
X16300D02*
X52520D01*
D28*
X47974Y32900D02*
D03*
X48526D02*
D03*
X47974Y34476D02*
D03*
X48526D02*
D03*
X49526Y22400D02*
D03*
X48974D02*
D03*
X48968Y23400D02*
D03*
X49519D02*
D03*
X46174Y12200D02*
D03*
X46726D02*
D03*
X47968Y36050D02*
D03*
X48519D02*
D03*
X47974Y37450D02*
D03*
X48526D02*
D03*
X47974Y39221D02*
D03*
X48526D02*
D03*
X48519Y40104D02*
D03*
X47968D02*
D03*
X22769Y23394D02*
D03*
X22218D02*
D03*
X22224Y22550D02*
D03*
X22776D02*
D03*
X19949Y21400D02*
D03*
X20500D02*
D03*
D29*
X44800Y21801D02*
D03*
Y22353D02*
D03*
X19450Y12698D02*
D03*
Y12146D02*
D03*
D30*
X51100Y23453D02*
D03*
Y22860D02*
D03*
X50400D02*
D03*
Y23453D02*
D03*
X22850Y41248D02*
D03*
Y40655D02*
D03*
X22268D02*
D03*
Y41248D02*
D03*
X18700Y12153D02*
D03*
Y12747D02*
D03*
X22200Y13653D02*
D03*
Y14247D02*
D03*
X21300Y16797D02*
D03*
Y16203D02*
D03*
X22000Y16797D02*
D03*
Y16203D02*
D03*
X43900Y11297D02*
D03*
Y10703D02*
D03*
X24000Y37053D02*
D03*
Y37647D02*
D03*
D31*
X50302Y8150D02*
D03*
X49762D02*
D03*
X48694D02*
D03*
X48154D02*
D03*
X47086D02*
D03*
X46546D02*
D03*
X45478D02*
D03*
X44938D02*
D03*
X43870D02*
D03*
X43330D02*
D03*
X24562Y8250D02*
D03*
X25102D02*
D03*
X22954D02*
D03*
X23494D02*
D03*
X21346D02*
D03*
X21886D02*
D03*
X19738D02*
D03*
X20278D02*
D03*
X20480Y9300D02*
D03*
X21020D02*
D03*
X18880D02*
D03*
X19420D02*
D03*
X18130Y8250D02*
D03*
X18670D02*
D03*
X49420Y9200D02*
D03*
X48880D02*
D03*
X47820D02*
D03*
X47280D02*
D03*
X46220D02*
D03*
X45680D02*
D03*
X44620D02*
D03*
X44080D02*
D03*
X51020D02*
D03*
X50480D02*
D03*
X22620Y9300D02*
D03*
X22080D02*
D03*
X24220D02*
D03*
X23680D02*
D03*
X25820D02*
D03*
X25280D02*
D03*
D32*
X50397Y36050D02*
D03*
X49803D02*
D03*
X50397Y35200D02*
D03*
X49803D02*
D03*
X48519Y33646D02*
D03*
X47925D02*
D03*
X48519Y35223D02*
D03*
X47925D02*
D03*
X46719Y16950D02*
D03*
X46125D02*
D03*
X46719Y16017D02*
D03*
X46125D02*
D03*
X46719Y15083D02*
D03*
X46125D02*
D03*
X46719Y14150D02*
D03*
X46125D02*
D03*
X49803Y40950D02*
D03*
X50397D02*
D03*
X49803Y40146D02*
D03*
X50397D02*
D03*
X48519Y38294D02*
D03*
X47925D02*
D03*
X48519Y40950D02*
D03*
X47925D02*
D03*
X21153Y12250D02*
D03*
X21747D02*
D03*
X22011Y15250D02*
D03*
X21418D02*
D03*
X22769Y24200D02*
D03*
X22175D02*
D03*
X42893Y31000D02*
D03*
X42300D02*
D03*
X36003D02*
D03*
X36597D02*
D03*
Y32450D02*
D03*
X36003D02*
D03*
X42893Y32350D02*
D03*
X42300D02*
D03*
D124*
X47756Y23400D02*
D03*
Y22900D02*
D03*
Y22400D02*
D03*
Y21900D02*
D03*
X45644Y23400D02*
D03*
Y22900D02*
D03*
Y22400D02*
D03*
Y21900D02*
D03*
X44944Y33750D02*
D03*
Y34250D02*
D03*
Y34750D02*
D03*
Y35250D02*
D03*
X47056Y33750D02*
D03*
Y34250D02*
D03*
Y34750D02*
D03*
Y35250D02*
D03*
X44944Y38600D02*
D03*
Y39100D02*
D03*
Y39600D02*
D03*
Y40100D02*
D03*
X47056Y38600D02*
D03*
Y39100D02*
D03*
Y39600D02*
D03*
Y40100D02*
D03*
X19294Y22000D02*
D03*
Y22500D02*
D03*
Y23000D02*
D03*
Y23500D02*
D03*
X21406Y22000D02*
D03*
Y22500D02*
D03*
Y23000D02*
D03*
Y23500D02*
D03*
D125*
X18090Y39011D02*
D03*
X20610D02*
D03*
X18405D02*
D03*
X20295D02*
D03*
D126*
X18661D02*
D03*
X18858D02*
D03*
X19055D02*
D03*
X19645D02*
D03*
X19842D02*
D03*
X20039D02*
D03*
X19252D02*
D03*
X19448D02*
D03*
D127*
X41250Y32950D02*
D03*
Y32450D02*
D03*
Y31950D02*
D03*
Y31450D02*
D03*
Y30950D02*
D03*
Y30450D02*
D03*
Y29950D02*
D03*
Y29450D02*
D03*
Y28950D02*
D03*
Y28450D02*
D03*
X37549Y28450D02*
D03*
Y28950D02*
D03*
Y29450D02*
D03*
Y29950D02*
D03*
Y30450D02*
D03*
Y30950D02*
D03*
Y31450D02*
D03*
Y31950D02*
D03*
Y32450D02*
D03*
Y32950D02*
D03*
D128*
X39400Y30700D02*
D03*
M02*
