G04*
G04 #@! TF.GenerationSoftware,Altium Limited,Altium Designer,20.2.6 (244)*
G04*
G04 Layer_Color=16711935*
%FSLAX24Y24*%
%MOIN*%
G70*
G04*
G04 #@! TF.SameCoordinates,FA5C595E-BAF6-4CA8-81BB-533EFFED9D24*
G04*
G04*
G04 #@! TF.FilePolarity,Negative*
G04*
G01*
G75*
%ADD11C,0.0100*%
%ADD50R,0.0395X0.0434*%
%ADD51R,0.0434X0.0395*%
%ADD52R,0.0420X0.0398*%
%ADD53R,0.0280X0.0380*%
%ADD54R,0.0398X0.0420*%
%ADD64C,0.0336*%
%ADD65O,0.0474X0.0907*%
%ADD66O,0.0474X0.0789*%
%ADD67C,0.0592*%
%ADD68C,0.0710*%
%ADD69R,0.0710X0.0710*%
%ADD70C,0.0780*%
%ADD71R,0.0780X0.0780*%
%ADD72R,0.0780X0.0780*%
%ADD73O,0.0680X0.0880*%
%ADD74O,0.0680X0.0480*%
%ADD75R,0.0680X0.0480*%
%ADD76O,0.0789X0.1104*%
%ADD77R,0.0789X0.1104*%
%ADD78R,0.0680X0.0680*%
%ADD79C,0.0680*%
%ADD80O,0.1104X0.0789*%
%ADD81R,0.1104X0.0789*%
%ADD82R,0.0680X0.0680*%
%ADD129O,0.0814X0.0328*%
%ADD130R,0.0316X0.0880*%
%ADD131R,0.0198X0.0880*%
%ADD132R,0.0867X0.0316*%
%ADD133R,0.1580X0.1781*%
D11*
X20921Y34850D02*
G03*
X20921Y34850I-71J0D01*
G01*
X41520Y6570D02*
Y20570D01*
X27300D02*
X41520D01*
X17600Y34650D02*
X20950D01*
X17600Y33100D02*
X20950D01*
X17600Y33125D02*
Y33575D01*
Y34175D02*
Y34625D01*
X20950Y34175D02*
Y34625D01*
Y33125D02*
Y33575D01*
X27300Y6570D02*
Y20570D01*
X41520Y6570D02*
X52520D01*
X16300D02*
X27300D01*
X16300D02*
Y42000D01*
X52520Y6570D02*
Y42000D01*
X16300D02*
X52520D01*
D50*
X47974Y32900D02*
D03*
X48526D02*
D03*
X47974Y34476D02*
D03*
X48526D02*
D03*
X49526Y22400D02*
D03*
X48974D02*
D03*
X48968Y23400D02*
D03*
X49519D02*
D03*
X46174Y12200D02*
D03*
X46726D02*
D03*
X47968Y36050D02*
D03*
X48519D02*
D03*
X47974Y37450D02*
D03*
X48526D02*
D03*
X47974Y39221D02*
D03*
X48526D02*
D03*
X48519Y40104D02*
D03*
X47968D02*
D03*
X22769Y23394D02*
D03*
X22218D02*
D03*
X22224Y22550D02*
D03*
X22776D02*
D03*
X19949Y21400D02*
D03*
X20500D02*
D03*
D51*
X44800Y21801D02*
D03*
Y22353D02*
D03*
X19450Y12698D02*
D03*
Y12146D02*
D03*
D52*
X51100Y23453D02*
D03*
Y22860D02*
D03*
X50400D02*
D03*
Y23453D02*
D03*
X22850Y41248D02*
D03*
Y40655D02*
D03*
X22268D02*
D03*
Y41248D02*
D03*
X18700Y12153D02*
D03*
Y12747D02*
D03*
X22200Y13653D02*
D03*
Y14247D02*
D03*
X21300Y16797D02*
D03*
Y16203D02*
D03*
X22000Y16797D02*
D03*
Y16203D02*
D03*
X43900Y11297D02*
D03*
Y10703D02*
D03*
X24000Y37053D02*
D03*
Y37647D02*
D03*
D53*
X50302Y8150D02*
D03*
X49762D02*
D03*
X48694D02*
D03*
X48154D02*
D03*
X47086D02*
D03*
X46546D02*
D03*
X45478D02*
D03*
X44938D02*
D03*
X43870D02*
D03*
X43330D02*
D03*
X24562Y8250D02*
D03*
X25102D02*
D03*
X22954D02*
D03*
X23494D02*
D03*
X21346D02*
D03*
X21886D02*
D03*
X19738D02*
D03*
X20278D02*
D03*
X20480Y9300D02*
D03*
X21020D02*
D03*
X18880D02*
D03*
X19420D02*
D03*
X18130Y8250D02*
D03*
X18670D02*
D03*
X49420Y9200D02*
D03*
X48880D02*
D03*
X47820D02*
D03*
X47280D02*
D03*
X46220D02*
D03*
X45680D02*
D03*
X44620D02*
D03*
X44080D02*
D03*
X51020D02*
D03*
X50480D02*
D03*
X22620Y9300D02*
D03*
X22080D02*
D03*
X24220D02*
D03*
X23680D02*
D03*
X25820D02*
D03*
X25280D02*
D03*
D54*
X50397Y36050D02*
D03*
X49803D02*
D03*
X50397Y35200D02*
D03*
X49803D02*
D03*
X48519Y33646D02*
D03*
X47925D02*
D03*
X48519Y35223D02*
D03*
X47925D02*
D03*
X46719Y16950D02*
D03*
X46125D02*
D03*
X46719Y16017D02*
D03*
X46125D02*
D03*
X46719Y15083D02*
D03*
X46125D02*
D03*
X46719Y14150D02*
D03*
X46125D02*
D03*
X49803Y40950D02*
D03*
X50397D02*
D03*
X49803Y40146D02*
D03*
X50397D02*
D03*
X48519Y38294D02*
D03*
X47925D02*
D03*
X48519Y40950D02*
D03*
X47925D02*
D03*
X21153Y12250D02*
D03*
X21747D02*
D03*
X22011Y15250D02*
D03*
X21418D02*
D03*
X22769Y24200D02*
D03*
X22175D02*
D03*
X42893Y31000D02*
D03*
X42300D02*
D03*
X36003D02*
D03*
X36597D02*
D03*
Y32450D02*
D03*
X36003D02*
D03*
X42893Y32350D02*
D03*
X42300D02*
D03*
D64*
X18208Y39752D02*
D03*
X20492Y39748D02*
D03*
D65*
X17649Y39555D02*
D03*
X21051D02*
D03*
D66*
X17649Y41189D02*
D03*
X21051D02*
D03*
D67*
X28700Y38169D02*
D03*
X30668D02*
D03*
D68*
X48350Y18200D02*
D03*
Y17200D02*
D03*
Y16200D02*
D03*
Y15200D02*
D03*
Y14200D02*
D03*
Y13200D02*
D03*
Y12200D02*
D03*
X45350D02*
D03*
X48350Y19200D02*
D03*
Y20200D02*
D03*
X45350Y13200D02*
D03*
Y14200D02*
D03*
Y15200D02*
D03*
Y16200D02*
D03*
Y17200D02*
D03*
Y18200D02*
D03*
Y19200D02*
D03*
X23450Y18250D02*
D03*
Y17250D02*
D03*
Y16250D02*
D03*
Y15250D02*
D03*
Y14250D02*
D03*
Y13250D02*
D03*
Y12250D02*
D03*
X20450D02*
D03*
X23450Y19250D02*
D03*
Y20250D02*
D03*
X20450Y13250D02*
D03*
Y14250D02*
D03*
Y15250D02*
D03*
Y16250D02*
D03*
Y17250D02*
D03*
Y18250D02*
D03*
Y19250D02*
D03*
D69*
X45350Y20200D02*
D03*
X20450Y20250D02*
D03*
D70*
X25505Y19465D02*
D03*
X24515Y21435D02*
D03*
X44335Y19105D02*
D03*
X42365Y18115D02*
D03*
X46485Y29465D02*
D03*
X45495Y31435D02*
D03*
X19935Y30265D02*
D03*
X18945Y32235D02*
D03*
D71*
X26485Y21435D02*
D03*
X44515Y29465D02*
D03*
X17965Y30265D02*
D03*
D72*
X42365Y20085D02*
D03*
D73*
X23850Y7100D02*
D03*
X19750D02*
D03*
X44950D02*
D03*
X49050D02*
D03*
D74*
X23380Y11080D02*
D03*
X21010D02*
D03*
X21800D02*
D03*
X22590D02*
D03*
X47790D02*
D03*
X47000D02*
D03*
X46210D02*
D03*
X48580D02*
D03*
D75*
X20220D02*
D03*
X45420D02*
D03*
D76*
X49383Y30750D02*
D03*
X48383Y30754D02*
D03*
D77*
X50383Y30750D02*
D03*
D78*
X46900Y36750D02*
D03*
X25400Y39000D02*
D03*
X22150Y32100D02*
D03*
D79*
X45900Y36750D02*
D03*
X24400Y39000D02*
D03*
X24150Y32100D02*
D03*
X25150D02*
D03*
X23150D02*
D03*
X25150Y35300D02*
D03*
D80*
X18354Y18200D02*
D03*
X18350Y17200D02*
D03*
X25200Y24450D02*
D03*
X25196Y23450D02*
D03*
D81*
X18354Y19200D02*
D03*
X25200Y25450D02*
D03*
D82*
X25150Y36300D02*
D03*
D129*
X47756Y23400D02*
D03*
Y22900D02*
D03*
Y22400D02*
D03*
Y21900D02*
D03*
X45644Y23400D02*
D03*
Y22900D02*
D03*
Y22400D02*
D03*
Y21900D02*
D03*
X44944Y33750D02*
D03*
Y34250D02*
D03*
Y34750D02*
D03*
Y35250D02*
D03*
X47056Y33750D02*
D03*
Y34250D02*
D03*
Y34750D02*
D03*
Y35250D02*
D03*
X44944Y38600D02*
D03*
Y39100D02*
D03*
Y39600D02*
D03*
Y40100D02*
D03*
X47056Y38600D02*
D03*
Y39100D02*
D03*
Y39600D02*
D03*
Y40100D02*
D03*
X19294Y22000D02*
D03*
Y22500D02*
D03*
Y23000D02*
D03*
Y23500D02*
D03*
X21406Y22000D02*
D03*
Y22500D02*
D03*
Y23000D02*
D03*
Y23500D02*
D03*
D130*
X18090Y39011D02*
D03*
X20610D02*
D03*
X18405D02*
D03*
X20295D02*
D03*
D131*
X18661D02*
D03*
X18858D02*
D03*
X19055D02*
D03*
X19645D02*
D03*
X19842D02*
D03*
X20039D02*
D03*
X19252D02*
D03*
X19448D02*
D03*
D132*
X41250Y32950D02*
D03*
Y32450D02*
D03*
Y31950D02*
D03*
Y31450D02*
D03*
Y30950D02*
D03*
Y30450D02*
D03*
Y29950D02*
D03*
Y29450D02*
D03*
Y28950D02*
D03*
Y28450D02*
D03*
X37549Y28450D02*
D03*
Y28950D02*
D03*
Y29450D02*
D03*
Y29950D02*
D03*
Y30450D02*
D03*
Y30950D02*
D03*
Y31450D02*
D03*
Y31950D02*
D03*
Y32450D02*
D03*
Y32950D02*
D03*
D133*
X39400Y30700D02*
D03*
M02*
