M48
;Layer_Color=9474304
;FILE_FORMAT=2:4
INCH,LZ
;TYPE=PLATED
T3F00S00C0.0200
T4F00S00C0.0236
;TYPE=NON_PLATED
%
G90
G05
T03
G00X01975Y0072
M15
G01Y007
M16
G00X02385Y0072
M15
G01Y007
M16
G00X02348Y01108
M15
G01X02328
M16
G00X02269Y01108
M15
G01X02249
M16
G00X0219Y01108
M15
G01X0217
M16
G00X02111Y01108
M15
G01X02091
M16
G00X02032Y01108
M15
G01X02012
M16
G00X04552Y01108
M15
G01X04532
M16
G00X04631Y01108
M15
G01X04611
M16
G00X04495Y0072
M15
G01Y007
M16
G00X04905Y0072
M15
G01Y007
M16
G00X04868Y01108
M15
G01X04848
M16
G00X04789Y01108
M15
G01X04769
M16
G00X0471Y01108
M15
G01X0469
M16
T04
G00X017649Y039771
M15
G01Y039338
M16
G00X017649Y041346
M15
G01Y041031
M16
G00X021051Y041346
M15
G01Y041031
M16
G00X021051Y039771
M15
G01Y039338
M16
M17
M30
