G04*
G04 #@! TF.GenerationSoftware,Altium Limited,Altium Designer,20.2.6 (244)*
G04*
G04 Layer_Color=255*
%FSLAX24Y24*%
%MOIN*%
G70*
G04*
G04 #@! TF.SameCoordinates,FA5C595E-BAF6-4CA8-81BB-533EFFED9D24*
G04*
G04*
G04 #@! TF.FilePolarity,Positive*
G04*
G01*
G75*
%ADD11C,0.0100*%
%ADD20R,0.1004X0.1004*%
%ADD21R,0.0262X0.0110*%
%ADD22R,0.0110X0.0262*%
%ADD23R,0.1181X0.2087*%
%ADD24R,0.0472X0.1496*%
%ADD25O,0.1200X0.0400*%
%ADD26O,0.0400X0.1200*%
%ADD27R,0.1200X0.0600*%
%ADD28R,0.0315X0.0354*%
%ADD29R,0.0354X0.0315*%
%ADD30R,0.0340X0.0318*%
%ADD31R,0.0200X0.0300*%
%ADD32R,0.0318X0.0340*%
%ADD33R,0.0669X0.0860*%
%ADD34R,0.0500X0.0300*%
%ADD35R,0.1496X0.0984*%
%ADD36R,0.0670X0.0475*%
%ADD37R,0.0984X0.1496*%
%ADD38R,0.0217X0.0394*%
%ADD39R,0.0512X0.0118*%
%ADD40R,0.0630X0.0787*%
%ADD41O,0.0226X0.0802*%
%ADD86C,0.0256*%
%ADD87O,0.0394X0.0827*%
%ADD88O,0.0394X0.0709*%
%ADD89C,0.0512*%
%ADD90C,0.0630*%
%ADD91R,0.0630X0.0630*%
%ADD92C,0.0700*%
%ADD93R,0.0700X0.0700*%
%ADD94R,0.0700X0.0700*%
%ADD95O,0.0600X0.0800*%
%ADD96O,0.0600X0.0400*%
%ADD97R,0.0600X0.0400*%
%ADD98O,0.0709X0.1024*%
%ADD99R,0.0709X0.1024*%
%ADD100R,0.0600X0.0600*%
%ADD101C,0.0600*%
%ADD102O,0.1024X0.0709*%
%ADD103R,0.1024X0.0709*%
%ADD104R,0.0600X0.0600*%
D11*
X20921Y34850D02*
G03*
X20921Y34850I-71J0D01*
G01*
X41520Y6570D02*
Y20570D01*
X27300D02*
X41520D01*
X17600Y34650D02*
X20950D01*
X17600Y33100D02*
X20950D01*
X17600Y33125D02*
Y33575D01*
Y34175D02*
Y34625D01*
X20950Y34175D02*
Y34625D01*
Y33125D02*
Y33575D01*
X27300Y6570D02*
Y20570D01*
X41520Y6570D02*
X52520D01*
X16300D02*
X27300D01*
X16300D02*
Y42000D01*
X52520Y6570D02*
Y42000D01*
X16300D02*
X52520D01*
D20*
X22700Y39200D02*
D03*
D21*
X23451Y39692D02*
D03*
Y39495D02*
D03*
Y39298D02*
D03*
Y39102D02*
D03*
Y38905D02*
D03*
Y38708D02*
D03*
X21949D02*
D03*
Y38905D02*
D03*
Y39102D02*
D03*
Y39298D02*
D03*
Y39495D02*
D03*
Y39692D02*
D03*
D22*
X23192Y38449D02*
D03*
X22995D02*
D03*
X22798D02*
D03*
X22602D02*
D03*
X22405D02*
D03*
X22208D02*
D03*
Y39951D02*
D03*
X22405D02*
D03*
X22602D02*
D03*
X22798D02*
D03*
X22995D02*
D03*
X23192D02*
D03*
D23*
X26731Y37657D02*
D03*
X32637Y37657D02*
D03*
D24*
X31064Y36633D02*
D03*
X30080D02*
D03*
X29292D02*
D03*
X28308Y36633D02*
D03*
D25*
X50830Y33600D02*
D03*
X48770D02*
D03*
X48820Y27550D02*
D03*
X50880D02*
D03*
X48700Y39150D02*
D03*
X50760D02*
D03*
X27020Y33000D02*
D03*
X29080D02*
D03*
X17920Y21950D02*
D03*
X19980D02*
D03*
X23530Y23850D02*
D03*
X21470D02*
D03*
X31970Y26650D02*
D03*
X34030D02*
D03*
D26*
X25600Y16190D02*
D03*
Y18250D02*
D03*
X50200Y19120D02*
D03*
Y21180D02*
D03*
X39300Y24430D02*
D03*
Y22370D02*
D03*
X42450Y24430D02*
D03*
Y22370D02*
D03*
X36150D02*
D03*
Y24430D02*
D03*
X45600D02*
D03*
Y22370D02*
D03*
X48750Y24430D02*
D03*
Y22370D02*
D03*
X33000D02*
D03*
Y24430D02*
D03*
X18650Y13250D02*
D03*
Y15310D02*
D03*
X29850Y24430D02*
D03*
Y22370D02*
D03*
X45600Y28130D02*
D03*
Y26070D02*
D03*
D27*
X42000Y40333D02*
D03*
X39250Y39934D02*
D03*
X42000Y38914D02*
D03*
Y36514D02*
D03*
X39250Y37183D02*
D03*
X34725D02*
D03*
X37475Y36514D02*
D03*
Y38914D02*
D03*
X34725Y39934D02*
D03*
X37475Y40333D02*
D03*
D28*
X32507Y30744D02*
D03*
X31956D02*
D03*
X31950Y29894D02*
D03*
X32501D02*
D03*
X31776Y21400D02*
D03*
X31224D02*
D03*
X25426Y37550D02*
D03*
X24874D02*
D03*
X23124Y40650D02*
D03*
X23676D02*
D03*
X18576Y28950D02*
D03*
X18024D02*
D03*
X17924Y24000D02*
D03*
X18476D02*
D03*
X21524Y25700D02*
D03*
X22076D02*
D03*
X35624Y26625D02*
D03*
X36176D02*
D03*
X35624Y27400D02*
D03*
X36176D02*
D03*
X37152Y26600D02*
D03*
X37704D02*
D03*
X35624Y25850D02*
D03*
X36176D02*
D03*
X42147Y26600D02*
D03*
X41596D02*
D03*
X33299Y31604D02*
D03*
X33850D02*
D03*
X33299Y29900D02*
D03*
X33850D02*
D03*
X33844Y32458D02*
D03*
X33293D02*
D03*
X33299Y30752D02*
D03*
X33850D02*
D03*
X31956Y31596D02*
D03*
X32507D02*
D03*
X32501Y32450D02*
D03*
X31950D02*
D03*
D29*
X40800Y25924D02*
D03*
Y26476D02*
D03*
X47950Y25424D02*
D03*
Y25976D02*
D03*
X38500Y25924D02*
D03*
Y26476D02*
D03*
X19100Y35826D02*
D03*
Y35274D02*
D03*
X45500Y34676D02*
D03*
Y34124D02*
D03*
X47578Y28127D02*
D03*
Y28678D02*
D03*
X31459Y33991D02*
D03*
Y33440D02*
D03*
X30600Y33976D02*
D03*
Y33424D02*
D03*
X21400Y21449D02*
D03*
Y22000D02*
D03*
X18500Y40374D02*
D03*
Y40926D02*
D03*
X19284D02*
D03*
Y40374D02*
D03*
X27050Y23226D02*
D03*
Y22674D02*
D03*
X19900Y35826D02*
D03*
Y35274D02*
D03*
X19700Y37326D02*
D03*
Y36774D02*
D03*
X18300Y35826D02*
D03*
Y35274D02*
D03*
X20700Y35300D02*
D03*
Y35851D02*
D03*
X23700Y30476D02*
D03*
Y29924D02*
D03*
X40033Y26476D02*
D03*
Y25924D02*
D03*
X39267Y26476D02*
D03*
Y25924D02*
D03*
X36342Y32703D02*
D03*
Y33254D02*
D03*
X36342Y28152D02*
D03*
Y28704D02*
D03*
X43100Y32724D02*
D03*
Y33276D02*
D03*
Y28152D02*
D03*
Y28704D02*
D03*
D30*
X35550Y29637D02*
D03*
Y30230D02*
D03*
X47650Y33347D02*
D03*
Y32753D02*
D03*
Y34057D02*
D03*
Y34650D02*
D03*
X25200Y40497D02*
D03*
Y39903D02*
D03*
X24450Y40497D02*
D03*
Y39903D02*
D03*
X20050Y40381D02*
D03*
Y40975D02*
D03*
X22950Y30525D02*
D03*
Y29931D02*
D03*
X39300Y32703D02*
D03*
Y33297D02*
D03*
X37800D02*
D03*
Y32703D02*
D03*
X37052Y28103D02*
D03*
Y28697D02*
D03*
X39304D02*
D03*
Y28103D02*
D03*
X35550Y28697D02*
D03*
Y28103D02*
D03*
Y31763D02*
D03*
Y31170D02*
D03*
X37050Y32703D02*
D03*
Y33297D02*
D03*
X37803Y28103D02*
D03*
Y28697D02*
D03*
X38550Y32703D02*
D03*
Y33297D02*
D03*
X38553Y28103D02*
D03*
Y28697D02*
D03*
X40050Y32703D02*
D03*
Y33297D02*
D03*
X40806Y28103D02*
D03*
Y28697D02*
D03*
X40800Y32703D02*
D03*
Y33297D02*
D03*
X41557Y28103D02*
D03*
Y28697D02*
D03*
X35550Y33297D02*
D03*
Y32703D02*
D03*
X42300Y33297D02*
D03*
Y32703D02*
D03*
X41550D02*
D03*
Y33297D02*
D03*
X42308Y28697D02*
D03*
Y28103D02*
D03*
X40055D02*
D03*
Y28697D02*
D03*
D31*
X25670Y41325D02*
D03*
X25130D02*
D03*
X24570D02*
D03*
X24030D02*
D03*
X23470D02*
D03*
X22930D02*
D03*
X22370D02*
D03*
X21830D02*
D03*
D32*
X46653Y37900D02*
D03*
X47247D02*
D03*
X22647Y33100D02*
D03*
X22053D02*
D03*
X21803Y40692D02*
D03*
X22397D02*
D03*
X37103Y34050D02*
D03*
X37697D02*
D03*
X37103Y27350D02*
D03*
X37697D02*
D03*
X42147D02*
D03*
X41553D02*
D03*
Y34050D02*
D03*
X42147D02*
D03*
X37697Y25850D02*
D03*
X37103D02*
D03*
X42197Y25800D02*
D03*
X41603D02*
D03*
D33*
X46550Y34466D02*
D03*
Y32734D02*
D03*
X18150Y27666D02*
D03*
Y25934D02*
D03*
X19900Y27134D02*
D03*
Y28866D02*
D03*
X19800Y24118D02*
D03*
Y25850D02*
D03*
D34*
X20656Y33900D02*
D03*
X17900D02*
D03*
D35*
X22850Y35198D02*
D03*
Y37402D02*
D03*
D36*
X20600Y37882D02*
D03*
Y36718D02*
D03*
D37*
X21498Y27750D02*
D03*
X23702D02*
D03*
D38*
X22174Y31051D02*
D03*
X21800D02*
D03*
X21426D02*
D03*
Y29949D02*
D03*
X21800D02*
D03*
X22174D02*
D03*
D39*
X30477Y26579D02*
D03*
Y26776D02*
D03*
Y26973D02*
D03*
Y27170D02*
D03*
Y27366D02*
D03*
Y27563D02*
D03*
Y27760D02*
D03*
Y27957D02*
D03*
Y28154D02*
D03*
Y28351D02*
D03*
Y28548D02*
D03*
Y28744D02*
D03*
Y28941D02*
D03*
Y29138D02*
D03*
Y29335D02*
D03*
Y29532D02*
D03*
Y29729D02*
D03*
Y29926D02*
D03*
Y30122D02*
D03*
Y30319D02*
D03*
D40*
X29423Y30989D02*
D03*
Y25911D02*
D03*
D41*
X37550Y29610D02*
D03*
X38050D02*
D03*
X38550D02*
D03*
X39050D02*
D03*
X39550D02*
D03*
X40050D02*
D03*
X40550D02*
D03*
X37550Y31790D02*
D03*
X38050D02*
D03*
X38550D02*
D03*
X39050D02*
D03*
X39550D02*
D03*
X40050D02*
D03*
X40550D02*
D03*
D86*
X18208Y39752D02*
D03*
X20492Y39748D02*
D03*
D87*
X17649Y39555D02*
D03*
X21051D02*
D03*
D88*
X17649Y41189D02*
D03*
X21051D02*
D03*
D89*
X28700Y38169D02*
D03*
X30668D02*
D03*
D90*
X48350Y18200D02*
D03*
Y17200D02*
D03*
Y16200D02*
D03*
Y15200D02*
D03*
Y14200D02*
D03*
Y13200D02*
D03*
Y12200D02*
D03*
X45350D02*
D03*
X48350Y19200D02*
D03*
Y20200D02*
D03*
X45350Y13200D02*
D03*
Y14200D02*
D03*
Y15200D02*
D03*
Y16200D02*
D03*
Y17200D02*
D03*
Y18200D02*
D03*
Y19200D02*
D03*
X23450Y18250D02*
D03*
Y17250D02*
D03*
Y16250D02*
D03*
Y15250D02*
D03*
Y14250D02*
D03*
Y13250D02*
D03*
Y12250D02*
D03*
X20450D02*
D03*
X23450Y19250D02*
D03*
Y20250D02*
D03*
X20450Y13250D02*
D03*
Y14250D02*
D03*
Y15250D02*
D03*
Y16250D02*
D03*
Y17250D02*
D03*
Y18250D02*
D03*
Y19250D02*
D03*
D91*
X45350Y20200D02*
D03*
X20450Y20250D02*
D03*
D92*
X25505Y19465D02*
D03*
X24515Y21435D02*
D03*
X44335Y19105D02*
D03*
X42365Y18115D02*
D03*
X46485Y29465D02*
D03*
X45495Y31435D02*
D03*
X19935Y30265D02*
D03*
X18945Y32235D02*
D03*
D93*
X26485Y21435D02*
D03*
X44515Y29465D02*
D03*
X17965Y30265D02*
D03*
D94*
X42365Y20085D02*
D03*
D95*
X23850Y7100D02*
D03*
X19750D02*
D03*
X44950D02*
D03*
X49050D02*
D03*
D96*
X23380Y11080D02*
D03*
X21010D02*
D03*
X21800D02*
D03*
X22590D02*
D03*
X47790D02*
D03*
X47000D02*
D03*
X46210D02*
D03*
X48580D02*
D03*
D97*
X20220D02*
D03*
X45420D02*
D03*
D98*
X49383Y30750D02*
D03*
X48383Y30754D02*
D03*
D99*
X50383Y30750D02*
D03*
D100*
X46900Y36750D02*
D03*
X25400Y39000D02*
D03*
X22150Y32100D02*
D03*
D101*
X45900Y36750D02*
D03*
X24400Y39000D02*
D03*
X24150Y32100D02*
D03*
X25150D02*
D03*
X23150D02*
D03*
X25150Y35300D02*
D03*
D102*
X18354Y18200D02*
D03*
X18350Y17200D02*
D03*
X25200Y24450D02*
D03*
X25196Y23450D02*
D03*
D103*
X18354Y19200D02*
D03*
X25200Y25450D02*
D03*
D104*
X25150Y36300D02*
D03*
M02*
