M48
;Layer_Color=9474304
;FILE_FORMAT=2:4
INCH,LZ
;TYPE=PLATED
T1F00S00C0.0100
T2F00S00C0.0200
T5F00S00C0.0280
T6F00S00C0.0300
T7F00S00C0.0394
T8F00S00C0.0400
T9F00S00C0.0472
;TYPE=NON_PLATED
T10F00S00C0.0256
T11F00S00C0.0512
%
T01
X03325Y02911
X03345Y0293
X034016Y029416
X0343Y02865
X03459Y02834
X03605Y03035
X0361Y031
X0322Y0303
X036685Y0266
X0405Y0307
X04224Y03025
X0429Y03055
X04375Y02985
X02925Y02945
X029144Y028983
X029653Y028759
X02875Y0284
X021236Y03338
X0207Y0348
X02045
X0202
X01995
X0197
X019Y03435
X01885Y0345
X0187Y03465
X01855Y0348
X0186Y0398
X0201
X02175Y0402
X02155Y03905
X023837Y038918
X024025Y038498
X0258Y038226
X0248Y04025
X02475Y041
X023797Y041069
X023676Y04065
X023
X0232Y04144
X0218Y04165
X034906Y032812
X0349Y0315
X03875Y0323
X03895Y032475
X0429Y0319
Y0315
T02
X03445Y0291
T05
X01925Y01045
Y01105
X0198Y0101
X022205Y012255
X019294Y014656
X04745Y0144
Y01525
X0474Y0129
Y0187
X04955Y0215
X05105Y022
X0515Y02445
X04765Y0273
X044505Y024975
X04407Y02443
Y02303
Y02162
X043035Y024865
X0407Y02735
X03955Y0275
X03865Y02705
X03675Y0293
X0334Y0281
Y02745
X03255Y02834
X03485Y0258
X03455Y0252
X03525
X0304Y02395
X02805Y02455
X02855Y0272
X0294Y027555
X02795Y02835
X0262Y02895
X025325
Y0296
X02445Y029725
Y02895
Y0305
X026093Y0272
X02075Y026225
X018874Y02495
X0236Y023
X022603Y016797
X0264Y01775
X028Y03125
X0241Y0351
X0229Y03425
X02105Y03295
X0202
X02065Y0325
X01955Y0343
X02155Y0381
X02985Y038
X03405Y03455
X03355Y0337
X03305Y03335
X03445Y0321
X03845Y03397
X03975Y0346
X0386Y036534
X044Y0369
X04475Y0361
X043045Y034045
X042123Y031677
X045787Y032487
X043464Y038914
X04705Y04095
X049439Y039744
X0512Y0397
X0505Y03425
X04905Y0342
T06
X02215Y0321
X02315
X02415
X02515
Y0353
Y0363
X0254Y039
X0244
X0459Y03675
X0469
T07
X02045Y01225
Y01325
Y01425
Y01525
X02345
Y01425
Y01325
Y01225
X04535Y0122
Y0132
Y0142
Y0152
X04835
Y0142
Y0132
Y0122
Y0162
Y0172
Y0182
Y0192
Y0202
X04535
Y0192
Y0182
Y0172
Y0162
X02345Y01625
Y01725
Y01825
Y01925
Y02025
X02045
Y01925
Y01825
Y01725
Y01625
T08
X042365Y018115
Y020085
X044335Y019105
X044515Y029465
X046485
X019935Y030265
X017965
X024515Y021435
X026485
X025505Y019465
X018945Y032235
X045495Y031435
T09
X048383Y030754
X049383Y03075
X050383
X0252Y02545
Y02445
X025196Y02345
X018354Y0192
Y0182
X01835Y0172
T10
X018208Y039752
X020492Y039748
T11
X0287Y038169
X030668
M30
